<?xml version="1.0" standalone="no"?>
<!DOCTYPE svg PUBLIC "-//W3C//DTD SVG 1.1//EN" "http://www.w3.org/Graphics/SVG/1.1/DTD/svg11.dtd" >
<svg xmlns="http://www.w3.org/2000/svg">
<metadata></metadata>
<defs>
<font id="db_gill_siam_xboldit" horiz-adv-x="0" >
<font-face units-per-em="2048" ascent="1638" descent="-410" />
<missing-glyph horiz-adv-x="640" />
<glyph unicode="&#x2b;&#x2d;" horiz-adv-x="1225" d="M44 -3l37 249h1035l-35 -249h-1037zM153 764l35 248h383l56 395h268l-55 -395h383l-33 -248h-384l-55 -394h-270l56 394h-384z" />
<glyph unicode="&#x2e;&#x2e;&#x2e;" horiz-adv-x="2100" d="M183.5 154q5.5 36 23.5 69t46 56.5t62 37.5q35 14 71 14q37 0 67.5 -14t51 -37.5t29 -55.5t4.5 -70q-6 -36 -24.5 -68.5t-45.5 -56t-61 -37.5t-71 -14q-36 0 -66.5 14t-51.5 37.5t-30.5 56t-4 68.5zM882.5 154q5.5 36 24.5 69t46 56.5t61 37.5t70 14t67 -14t51.5 -37.5 t30.5 -55.5t4 -70q-5 -36 -23.5 -68.5t-46 -56t-61.5 -37.5q-36 -14 -72 -14t-66.5 14t-51.5 37.5t-30 56t-3.5 68.5zM1584.5 154q5.5 36 23.5 69t46 56.5t61.5 37.5t70.5 14q36 0 66.5 -14t51.5 -37.5t30 -55.5t4 -70q-6 -36 -24 -68.5t-46 -56t-61 -37.5t-71 -14 q-36 0 -66.5 14t-51.5 37.5t-30 56t-3.5 68.5z" />
<glyph unicode="&#x3c;&#x3d;" horiz-adv-x="1225" d="M44 -1l37 248h1035l-35 -248h-1037zM170 778l30 219l1079 426l-39 -283l-715 -248l-22 -5l21 -3l644 -249l-39 -282z" />
<glyph unicode="&#x3e;&#x3d;" horiz-adv-x="1225" d="M44 -1l37 248h1035l-35 -248h-1037zM97 353l39 282l715 249l21 3l-21 5l-644 248l40 283l960 -426l-31 -219z" />
<glyph unicode="&#xe4f;&#x22;" horiz-adv-x="1248" d="M55.5 398q-11.5 73 0.5 152q11 80 42 153t78.5 137t108.5 116.5t132 90t149 58.5q79 21 160 21q80 0 152.5 -21t132 -58.5t106 -90t76.5 -116.5t40.5 -137t-0.5 -153q-11 -79 -42.5 -152t-78.5 -137t-108.5 -116.5t-132 -90t-148.5 -58.5t-160 -21q-81 0 -154 21 t-132.5 58.5t-105.5 90t-75 116.5t-40.5 137zM250 556q-11 -85 10 -159.5t66 -130t112.5 -87.5t148.5 -32q54 0 106.5 15t100.5 41t88.5 63.5t73 83t54.5 97.5q21 53 29.5 109t1.5 108t-26.5 97t-50.5 82.5t-71 64t-88.5 41t-102.5 14.5t-107 -14.5t-100 -41t-88 -64 t-73 -82.5t-53.5 -97t-30.5 -108zM371 553q8 53 35.5 99.5t69 82t94.5 55t108 19.5q56 0 103 -19.5t78.5 -55t46 -82t7.5 -99.5q-8 -53 -35 -100t-69 -82t-94.5 -55.5t-108.5 -20.5t-103 20.5t-78.5 55.5t-46.5 82t-7 100zM410 1396l35 255h271l-35 -255l-64 -187h-197z M555 553q-3 -22 2 -40t14.5 -32.5t25 -22.5t33.5 -8q19 0 36.5 8t31.5 22.5t23.5 32.5t12.5 40t-1.5 40.5t-14.5 32t-25 22t-34 8.5q-20 0 -36.5 -8.5t-30.5 -22t-24.5 -32t-12.5 -40.5zM845 1396l36 255h271l-34 -255l-64 -187h-198z" />
<glyph unicode="&#xe0e;&#xe3a;" horiz-adv-x="1437" d="M46 0l32 225h167l72 509q14 94 44.5 163.5t74.5 117.5t98.5 78t116.5 47.5t128 23.5t133 6q65 0 129 -6t121 -23.5t103.5 -47.5t77 -78t42.5 -117q13 -70 -1 -164l-151 -1073h-423q-14 17 -31 30.5t-40 25t-52 17.5q-31 6 -67 6q-24 0 -53 -3.5t-63 -14.5t-70 -30.5 t-73 -52.5l27 189q19 14 50.5 28.5t67.5 26t76.5 20t79.5 8.5q46 0 83.5 -7t68.5 -21t58 -34t51 -48l129 922q9 54 5.5 93.5t-15 66t-29.5 43t-38.5 25.5t-44.5 12t-47 3t-47 -3t-48 -12t-46.5 -25.5t-41.5 -43t-33 -66.5t-22 -93l-103 -723h-496zM847.5 -632.5 q5.5 36.5 24 69t46 56t61.5 37.5q36 14 72 14t66 -14t50.5 -37.5t30 -56t3.5 -69t-24 -69t-44.5 -56t-61 -37.5t-70.5 -14t-66.5 14t-51.5 37.5t-31 56t-4.5 69z" />
<glyph unicode="&#xe0f;&#xe3a;" horiz-adv-x="1437" d="M46 0l32 225h167l72 509q14 94 44.5 163.5t74.5 117.5t98.5 78t116.5 47.5t128 23.5t133 6q65 0 129 -6t121 -23.5t103.5 -47.5t77 -78t43 -117.5t-1.5 -163.5l-151 -1073h-423q-9 17 -24.5 31.5t-34 23.5t-39 14t-39.5 5q-22 0 -48.5 -6t-54 -19t-51.5 -35 q-24 -20 -41 -53l-347 92l25 175l308 -86q20 23 45 43.5t55.5 34t64 22t72.5 8.5q77 0 133 -32t86 -90l132 934q9 54 4.5 93.5t-16 66t-30 43t-39 25.5t-44 12t-44.5 3q-23 0 -45.5 -3t-46.5 -12t-47.5 -25.5t-43 -43t-33.5 -66.5t-22 -93l-103 -723h-496zM847.5 -632.5 q5.5 36.5 24 69t46 56t61.5 37.5q36 14 72 14t66 -14t50.5 -37.5t30 -56t3.5 -69t-24 -69t-44.5 -56t-61 -37.5t-70.5 -14t-66.5 14t-51.5 37.5t-31 56t-4.5 69z" />
<glyph unicode="&#xe0e;&#xe38;" horiz-adv-x="1437" d="M47 0l32 225h166l72 509q14 94 44.5 163.5t75 117.5t100 78t116.5 47.5t127 23.5q65 6 132 6t130.5 -6t120.5 -23.5t104 -47.5t78 -78t42 -117.5t-3 -163.5l-150 -1073h-422q-14 17 -32 30.5t-40.5 25t-51.5 17.5t-65 6q-24 0 -54 -3.5t-63 -14.5t-70 -31 q-38 -19 -75 -52l28 189q20 14 50.5 28.5t68 26t78 20t76.5 8.5q46 0 84 -7t70 -21t58.5 -34t49.5 -48l130 922q8 54 4.5 93.5t-15.5 66t-29 43t-38.5 25.5t-45.5 12t-46 3t-47 -3t-49 -12t-46 -25.5t-41 -43t-33.5 -66.5t-21.5 -93l-101 -723h-498zM762 -659l28 191h425 l-53 -377h-295l25 186h-130z" />
<glyph unicode="&#xe0f;&#xe38;" horiz-adv-x="1437" d="M47 0l32 225h166l72 509q14 94 44.5 163.5t75 117.5t100 78t116.5 47.5t127 23.5q65 6 132 6q65 0 129.5 -6t121.5 -23.5t104.5 -47.5t78 -78t41.5 -117.5t-1 -163.5l-152 -1073h-422q-10 17 -25.5 31.5t-34 23.5t-39.5 14t-40 5q-22 0 -48.5 -6t-53 -19t-50.5 -35 q-23 -20 -41 -53l-347 92l25 175l309 -86q19 23 43.5 43.5t54.5 34t64.5 22t71.5 8.5q77 0 134 -32t88 -90l131 934q8 54 4 93.5t-16 66t-30 43t-39.5 25.5t-44.5 12q-22 3 -44 3t-45.5 -3t-47.5 -12t-46 -25.5t-41.5 -43t-35 -66.5t-22.5 -93l-101 -723h-498zM762 -659 l28 191h425l-53 -377h-295l25 186h-130z" />
<glyph unicode="&#xe0e;&#xe39;" horiz-adv-x="1437" d="M47 0l32 225h166l72 509q14 94 44.5 163.5t75 117.5t100 78t116.5 47.5t127 23.5q65 6 132 6t130.5 -6t120.5 -23.5t104 -47.5t78 -78t42 -117.5t-3 -163.5l-150 -1073h-422q-14 17 -32 30.5t-40.5 25t-51.5 17.5t-65 6q-24 0 -54 -3.5t-63 -14.5t-70 -31 q-38 -19 -75 -52l28 189q20 14 50.5 28.5t68 26t78 20t76.5 8.5q46 0 84 -7t70 -21t58.5 -34t49.5 -48l130 922q8 54 4.5 93.5t-15.5 66t-29 43t-38.5 25.5t-45.5 12t-46 3t-47 -3t-49 -12t-46 -25.5t-41 -43t-33.5 -66.5t-21.5 -93l-101 -723h-498zM399 -659l26 192h353 l-19 -115q-3 -14 -2 -27.5t7.5 -23t21.5 -15t42.5 -5.5t43 5.5t24.5 15t12.5 23t4.5 27.5l14 115h288l-20 -145q-8 -66 -33 -110.5t-65.5 -71t-96 -38.5t-127.5 -12h-140q-39 0 -79 10t-70.5 30t-48.5 50.5t-15 72.5l3 22h-124z" />
<glyph unicode="&#xe0f;&#xe39;" horiz-adv-x="1437" d="M47 0l32 225h166l72 509q14 94 44.5 163.5t75 117.5t100 78t116.5 47.5t127 23.5q65 6 132 6q65 0 129.5 -6t121.5 -23.5t104.5 -47.5t78 -78t41.5 -117.5t-1 -163.5l-152 -1073h-422q-10 17 -25.5 31.5t-34 23.5t-39.5 14t-40 5q-22 0 -48.5 -6t-53 -19t-50.5 -35 q-23 -20 -41 -53l-347 92l25 175l309 -86q19 23 43.5 43.5t54.5 34t64.5 22t71.5 8.5q77 0 134 -32t88 -90l131 934q8 54 4 93.5t-16 66t-30 43t-39.5 25.5t-44.5 12q-22 3 -44 3t-45.5 -3t-47.5 -12t-46 -25.5t-41.5 -43t-35 -66.5t-22.5 -93l-101 -723h-498zM399 -659 l26 192h353l-19 -115q-3 -14 -2 -27.5t7.5 -23t21.5 -15t42.5 -5.5t43 5.5t24.5 15t12.5 23t4.5 27.5l14 115h288l-20 -145q-8 -66 -33 -110.5t-65.5 -71t-96 -38.5t-127.5 -12h-140q-39 0 -79 10t-70.5 30t-48.5 50.5t-15 72.5l3 22h-124z" />
<glyph unicode="&#xd;" horiz-adv-x="724" />
<glyph unicode=" "  horiz-adv-x="640" />
<glyph unicode="&#x09;" horiz-adv-x="640" />
<glyph unicode="&#xa0;" horiz-adv-x="640" />
<glyph unicode="!" horiz-adv-x="568" d="M79.5 158.5q5.5 36.5 24 69t46 57t61.5 38t70 13.5t66.5 -13.5t51.5 -38t30.5 -57t4 -69t-23.5 -69t-46 -57t-62 -38.5q-35 -13 -71 -13t-67 13.5t-51.5 38t-29.5 57t-3.5 69zM221 826q-1 71 0 143.5t5.5 142.5t12.5 126q17 110 65.5 161.5t134.5 51.5q84 0 118.5 -51.5 t17.5 -161.5q-8 -58 -23 -127t-34 -142.5t-40.5 -145t-41 -134t-36 -112t-25.5 -75.5q-11 -25 -19 -40.5t-16.5 -23t-19 -10.5t-25.5 -3q-17 0 -27.5 3t-16.5 12.5t-10.5 27t-6.5 46.5q-3 24 -6 70.5t-4.5 108.5t-2.5 133z" />
<glyph unicode="&#x22;" horiz-adv-x="1006" d="M214 1250l36 254h270l-36 -254l-86 -283h-178zM699 1250l36 254h271l-36 -254l-86 -283h-178z" />
<glyph unicode="#" horiz-adv-x="1282" d="M18 320l32 228h193l96 275h-250l32 231h299l133 378h231l-135 -378h338l133 378h227l-134 -378h149l-33 -231h-193l-96 -275h250l-31 -228h-301l-134 -381h-226l130 381h-335l-132 -381h-230l132 381h-145zM473 548h336l96 275h-335z" />
<glyph unicode="$" horiz-adv-x="1138" d="M81 126l36 248q89 -77 172.5 -119t169.5 -58l58 403q-103 26 -170.5 66t-105.5 93t-49 115.5t-3 127.5q11 74 48 138t94.5 114t132.5 81t162 41l18 131h176l-19 -131q75 -3 154 -30.5t160 -76.5l-36 -260q-39 32 -75.5 55t-72.5 39.5t-76 28t-85 18.5l-49 -341 q96 -31 164.5 -77.5t111.5 -102.5t59 -120q14 -63 6 -127q-11 -78 -47 -144t-94.5 -117t-138 -87.5t-176.5 -52.5l-29 -203h-177l30 203q-39 5 -87 19.5t-96 35t-92 44t-74 46.5zM434 1015q-9 -50 21.5 -85t99.5 -57l39 277q-70 -17 -112.5 -52.5t-47.5 -82.5zM637 202 q39 8 70 23t55.5 37t39.5 49q15 25 19 56q9 60 -26.5 106.5t-110.5 72.5z" />
<glyph unicode="%" horiz-adv-x="1509" d="M104 -17l1215 1468h182l-1209 -1468h-188zM157 1112q10 70 45.5 132.5t88 108t118.5 72.5q66 26 136 26q69 0 127.5 -26.5t97.5 -72t57 -107.5q18 -63 8 -133q-9 -70 -44.5 -131.5t-88.5 -107.5t-118 -73q-67 -27 -136 -27q-70 0 -128.5 27t-97.5 73t-57 107.5t-8 131.5z M349 1112q-4 -31 3.5 -57t25 -46.5t42.5 -32t55 -11.5q31 0 59.5 11.5t51.5 32t38 46.5t20 57q4 31 -4 58t-25 47t-42 31t-56 11t-59 -11t-51 -31t-38.5 -47t-19.5 -58zM776 322q9 70 44.5 132t88.5 107.5t118.5 73t134.5 27.5q70 0 128 -27.5t98.5 -73t58 -107.5t7.5 -132 q-10 -69 -45.5 -131.5t-88 -108.5t-118 -72.5t-134.5 -26.5q-70 0 -128.5 26.5t-98.5 72.5t-57.5 108.5t-7.5 131.5zM967 322q-4 -30 4 -57t25 -47.5t42 -31.5t56 -11t59.5 11t51 31.5t38 47.5t19.5 57q4 31 -3.5 57.5t-25 46.5t-42.5 32t-55 12q-31 0 -59.5 -12t-51.5 -32 t-38 -46.5t-20 -57.5z" />
<glyph unicode="&#x26;" horiz-adv-x="1574" d="M82 359q17 122 116 225t279 189q-25 43 -45.5 82t-33 77t-18 77t1.5 84q11 80 52 146t105 113.5t147.5 73t179.5 25.5q92 0 163.5 -25t120 -69.5t69.5 -107t10 -137.5q-9 -53 -34 -103t-66.5 -96.5t-98.5 -89.5t-128 -82l179 -235q32 25 56.5 50t47 50t40.5 55 q20 30 40 66h306q-32 -61 -71 -119t-83 -110.5t-91 -98.5t-94 -85l243 -314h-419l-89 122q-118 -68 -241 -104.5t-245 -36.5q-97 0 -175.5 29t-132 79t-78.5 119.5t-13 150.5zM405.5 379q-10.5 -37 3.5 -73q8 -25 26 -42t41.5 -26.5t50 -14.5t51.5 -5t55.5 7t65 19t67.5 28 q35 17 62 34l-214 282q-54 -31 -97.5 -65.5t-72 -70.5t-39 -73zM680 1104q-3 -20 4.5 -45t21.5 -51.5t30.5 -51.5t33.5 -44q85 46 133 96.5t55 103.5q2 21 -3.5 41t-20 35.5t-39.5 25t-58 9.5q-64 0 -106.5 -30.5t-50.5 -88.5z" />
<glyph unicode="'" horiz-adv-x="503" d="M206 1250l36 254h270l-37 -254l-86 -283h-175z" />
<glyph unicode="(" horiz-adv-x="808" d="M125.5 426.5q-0.5 112.5 16 229.5t49.5 228t79.5 215.5t104 200.5t123.5 179t137 154t146 125h217q-122 -118 -212.5 -246t-153 -265.5t-102 -284.5t-62.5 -306q-22 -157 -24 -306.5t21.5 -289t77.5 -270.5q55 -131 144 -251h-217q-61 55 -114.5 126t-96 157t-72 183.5 t-45.5 203t-16.5 218z" />
<glyph unicode=")" horiz-adv-x="808" d="M-97 -461q122 120 212.5 251t153.5 270.5t102.5 289t62.5 306.5q22 159 24 306t-22.5 284.5t-78.5 265.5t-143 246h217q58 -55 109.5 -125.5t94 -153.5t73.5 -179t48 -200.5t19 -215.5q3 -111 -13.5 -228t-49 -229.5t-78 -218t-103 -203t-123.5 -183.5t-139 -157 q-72 -71 -149 -126h-217z" />
<glyph unicode="*" horiz-adv-x="984" d="M108 861.5q0 16.5 5 30.5t16 24t29 15l326 68l1 5v1l-306 71q-15 4 -23.5 13t-10.5 21.5t2 28.5q3 15 14 31l57 89q11 20 23.5 32.5t27.5 15t31.5 -5.5t38.5 -35l175 -210q14 14 31 20l-50 297q-9 39 11.5 58.5t64.5 19.5h107q46 0 61 -17q14 -19 -2 -61l-135 -297 q15 -6 26 -20l232 210q27 23 45 32.5t30.5 7.5t21 -16t17.5 -36l30 -68q19 -46 10.5 -73t-47.5 -37l-325 -71v-1v-6l305 -67q16 -4 24.5 -15t8.5 -26.5t-7.5 -32.5t-20.5 -37l-46 -64q-14 -21 -27 -35.5t-25 -20t-25 0.5q-14 5 -28 22l-189 226q-14 -14 -31 -19l50 -298 q7 -41 -13 -60t-59 -19h-114q-20 0 -35 4.5t-23 12.5t-8 24q-1 15 10 38l135 299h-1q-14 6 -25 20l-234 -212q-24 -20 -41 -29t-31 -8t-24 13t-18 31l-33 81q-9 18 -9 34.5z" />
<glyph unicode="+" horiz-adv-x="1225" d="M128 594l35 248h383l56 392h268l-55 -392h383l-33 -248h-384l-55 -395h-270l56 395h-384z" />
<glyph unicode="," horiz-adv-x="568" d="M56 -354l14 94q41 17 73 45.5t48.5 62.5t19.5 69.5t-14 63.5q-52 22 -71.5 58t-12.5 94q5 37 22.5 68t44 52.5t59.5 34t70 12.5q47 0 83 -17.5t59 -49t32 -75.5t2 -97q-11 -79 -50 -150.5t-96.5 -128.5t-130.5 -93q-75 -37 -152 -43z" />
<glyph unicode="-" horiz-adv-x="810" d="M108 588l37 259h658l-36 -259h-659z" />
<glyph unicode="." horiz-adv-x="568" d="M116.5 154q5.5 36 24.5 69t46 56.5t62 37.5t71 14t66.5 -14t51.5 -37.5t30 -55.5q10 -32 5 -70q-6 -36 -24.5 -68.5t-46 -56t-62 -37.5t-70.5 -14t-67 14t-51.5 37.5t-30.5 56t-4.5 68.5z" />
<glyph unicode="/" horiz-adv-x="590" d="M-53 -19l562 1470h217l-568 -1470h-211z" />
<glyph unicode="0" horiz-adv-x="1188" d="M105 398q-19 132 3 294q17 121 51 221t80.5 178.5t105 137t124 97.5t135.5 58.5t142 19.5q120 0 211 -51.5t148 -144t76.5 -222.5t-2.5 -288q-23 -157 -76.5 -288.5t-134 -226.5t-186.5 -148.5t-231.5 -53.5t-218.5 50t-150 143t-77 224zM414.5 487.5 q5.5 -81.5 26 -134.5t57.5 -78q36 -25 86 -25q53 0 97.5 31.5t79 92t59.5 148.5t42 199q15 106 11 184.5t-25 128.5t-57 75t-85 25q-55 0 -101 -32t-81 -91t-60 -143t-39 -190q-16 -109 -10.5 -190.5z" />
<glyph unicode="1" horiz-adv-x="1188" d="M386 0l195 1382h318l-193 -1382h-320z" />
<glyph unicode="2" horiz-adv-x="1188" d="M53 0l5 40q67 70 131 132t125 121.5t119 117.5q56 59 109 120q61 72 105.5 125t75 99t47.5 89t25 94q8 53 -1.5 92.5t-33 64.5t-60 37.5t-83.5 12.5q-39 0 -89 -12.5t-104 -36t-110.5 -56t-105.5 -74.5l42 300q64 38 123 64.5t116 42.5t113.5 23.5t114.5 7.5 q100 0 181.5 -26.5t136.5 -78t78.5 -128t9.5 -176.5q-11 -80 -49 -155.5t-103 -158t-155 -177.5t-209 -212h491l-42 -292h-1003z" />
<glyph unicode="3" horiz-adv-x="1188" d="M120 64l38 277q39 -31 76.5 -52.5t76.5 -35.5t81.5 -20t91.5 -6q47 0 93 11t82 32.5t60 53.5q26 32 32 74q8 61 -6 100t-47.5 59.5t-84 26t-115.5 3.5l36 253q58 -3 105.5 2.5t83.5 25t58 53t28 81.5q4 31 -3 58.5t-31 49t-66 34t-106 12.5q-41 0 -79 -4t-74 -12.5 t-73.5 -21.5t-76.5 -31l35 253q38 15 85.5 27t98.5 19.5t102.5 12t95.5 4.5q120 0 204 -26.5t136 -72t72 -107.5q19 -63 8 -132q-8 -56 -28.5 -107.5t-54.5 -94.5t-81 -75t-108 -51q64 -16 109.5 -46.5t73.5 -73.5t37 -97q8 -56 -1 -117q-14 -103 -61 -182t-124.5 -132 t-182 -80.5t-235.5 -27.5q-46 0 -95.5 5.5t-98 16.5t-91.5 26t-76 35z" />
<glyph unicode="4" horiz-adv-x="1207" d="M85 339l32 230l845 827h203l-117 -827h117l-31 -230h-118l-49 -339h-316l48 339h-614zM389 569h342l53 376z" />
<glyph unicode="5" horiz-adv-x="1188" d="M108 58l37 262q75 -46 159.5 -69.5t170.5 -23.5q41 0 84.5 11.5t81 34.5t64.5 58q26 33 33 80q8 63 -13.5 109t-78.5 70t-153 24q-98 0 -237 -26l112 794h791l-39 -287h-506l-34 -244q151 11 252.5 -16t160 -83.5t78 -135.5t5.5 -174q-17 -114 -71 -200t-134.5 -144 t-182 -87.5t-210.5 -29.5q-58 0 -113.5 6t-104.5 16.5t-88 24.5t-64 30z" />
<glyph unicode="6" horiz-adv-x="1188" d="M107 448q10 69 36.5 136t66 133.5t91.5 139t113 155.5l280 370h354l-389 -515q58 9 118 4t114 -24t100 -51.5t76.5 -81t43.5 -114.5q12 -66 1 -150q-11 -72 -36 -134.5t-64.5 -114.5t-90.5 -93t-110.5 -69t-127.5 -43q-66 -15 -138 -15q-111 0 -198.5 33t-146 94.5 t-83.5 147.5t-10 192zM425 436q-5 -43 4 -77t30.5 -59t55 -37.5t73.5 -12.5q39 0 76 12.5t66 37.5t49 61.5t26 80.5q5 44 -4 79.5t-31 61.5t-55.5 39t-75.5 13q-36 0 -72 -13t-65 -39.5t-50 -62.5t-27 -84z" />
<glyph unicode="7" horiz-adv-x="1188" d="M183 0l616 1098h-585l39 284h1004l-3 -16l-749 -1366h-322z" />
<glyph unicode="8" horiz-adv-x="1188" d="M93 404q8 62 34 114t65.5 93t89.5 71q49 30 107 49q-100 39 -141.5 114t-27.5 181q14 92 57 162.5t111 118t158.5 72.5t195.5 25q106 0 189.5 -25t139 -72.5t79 -118t9.5 -162.5q-14 -106 -78 -181t-173 -114q51 -19 92.5 -49t69.5 -71t39 -92.5t3 -114.5 q-14 -94 -61 -172.5t-121 -134t-172.5 -86t-215.5 -30.5t-207 30.5t-148 86t-82 133.5t-12 173zM413 410q-14 -103 28.5 -160.5t132.5 -57.5q46 0 84 14.5t66.5 43t47.5 69t26 91.5q7 50 -3.5 88.5t-33 64.5t-55.5 40t-72 14t-75 -14t-67 -40t-51.5 -65t-27.5 -88zM523 1009 q-6 -46 1.5 -81.5t26.5 -59t48 -36t64 -12.5q36 0 68 12.5t58 36t43 58.5q19 35 24 82q6 45 -2.5 79.5t-28.5 57.5t-48 35t-61 12q-34 0 -65 -12t-57.5 -35t-45.5 -58q-20 -34 -25 -79z" />
<glyph unicode="9" horiz-adv-x="1188" d="M172 931q11 73 37.5 135.5t65.5 115t90 93t110.5 68.5t127 43t139.5 15q111 0 199 -33.5t145.5 -94.5t82 -147t10.5 -192q-10 -69 -35.5 -135t-66 -133.5t-92.5 -140.5q-54 -72 -115 -155l-278 -370h-353l389 514q-58 -8 -118.5 -2.5t-114.5 23.5t-100 51.5t-77.5 82 t-44 114t-1.5 148.5zM481 941q-6 -44 3 -79.5t31.5 -61.5t55 -39t74.5 -13q36 0 72 13t66 39t51 62q22 37 28 83q5 42 -4.5 76.5t-32 59.5t-55 38.5t-72.5 13.5q-39 0 -76 -13.5t-66 -38.5t-49.5 -60t-25.5 -80z" />
<glyph unicode=":" horiz-adv-x="568" d="M92 154q5 36 24 69t46 56.5t62 37.5t71 14t66.5 -14t51.5 -37.5t30 -55.5q10 -32 5 -70q-6 -36 -24 -68.5t-46 -56t-62 -37.5q-35 -14 -71 -14q-37 0 -67.5 14t-51 37.5t-30.5 56t-4 68.5zM192 862q5 36 23.5 68t46 56.5t61.5 37.5q36 14 72 14t66.5 -13.5t51.5 -38 t29 -56.5t4 -68q-5 -36 -23 -69.5t-45.5 -57t-62 -37.5t-70.5 -14t-67 14t-51.5 37.5t-30.5 57t-4 69.5z" />
<glyph unicode=";" horiz-adv-x="568" d="M31 -354l13 94q42 17 72.5 45.5t48 62.5t19.5 69.5t-12 63.5q-52 22 -73 58t-13 94q6 37 24 68t43.5 52.5t59.5 34.5q34 12 71 12q47 0 82.5 -17.5t58.5 -49t32.5 -75.5t1.5 -97q-9 -53 -28.5 -103t-50 -94.5t-69.5 -82t-83.5 -66.5t-94.5 -47t-102 -22zM202.5 862 q5.5 36 24.5 68t46 56.5t62 38t71 13.5t66.5 -13.5t51.5 -38t30 -56.5q10 -32 4.5 -68t-24 -69.5t-46 -57t-62 -37.5t-70.5 -14t-66.5 14t-51.5 37.5t-31 57t-4.5 69.5z" />
<glyph unicode="&#x3c;" horiz-adv-x="1225" d="M138 599l34 252l1082 447l-42 -287l-759 -285l678 -287l-38 -287z" />
<glyph unicode="=" horiz-adv-x="1225" d="M103 373l36 255h1017l-36 -255h-1017zM167 817l35 253h1017l-35 -253h-1017z" />
<glyph unicode="&#x3e;" horiz-adv-x="1225" d="M75 152l40 287l761 287l-680 285l40 287l954 -447l-36 -252z" />
<glyph unicode="?" horiz-adv-x="788" d="M136.5 158.5q5.5 36.5 24 69t46 57t62 38t70.5 13.5t66.5 -13.5t51.5 -38t30 -57.5q11 -32 5 -68.5t-24.5 -69t-45.5 -57t-62 -38t-71 -13.5t-66.5 13.5t-51.5 38t-30.5 57t-4 69zM171 1151l88 258q36 12 69 20t66.5 13.5t69.5 7t82 1.5q67 0 122 -19.5t91.5 -58.5 t51.5 -97t1 -138q-10 -58 -31 -102.5t-48.5 -81.5t-60.5 -67.5t-66 -61.5t-65 -64t-60 -73q-20 -28 -31.5 -52t-19 -48.5t-12.5 -50t-9 -55.5l-3 -25q-3 -11 -7 -18t-12.5 -10.5t-21 -4t-29.5 -0.5q-20 0 -34 4q-13 3 -18 11q-6 6 -11.5 31t-9.5 58.5t-4 73.5t8 79 q11 53 30.5 94.5t43 75t48.5 63.5t47.5 61t39 67.5t22.5 82.5q7 50 -15 78.5t-66 28.5q-51 0 -108 -19q-59 -18 -120 -62h-18z" />
<glyph unicode="@" horiz-adv-x="2055" d="M184 493q-9 99 8 219q19 136 71.5 258.5t129.5 226.5t177 187.5t212.5 142t236.5 90.5t249 32q119 0 223.5 -21t189 -63t148.5 -103t103 -140t51.5 -178t-2.5 -215q-14 -92 -49 -179.5t-87 -165.5t-120 -142t-144.5 -110t-159.5 -71q-84 -25 -169 -25q-36 0 -59 5.5 t-36.5 17t-21.5 29.5q-6 19 -12 46q-33 -28 -64.5 -46t-62.5 -30t-62.5 -17t-64.5 -5q-82 0 -139 37.5t-89 100t-37.5 143.5t12.5 167q16 80 46 156t69 142t87.5 120t104.5 93t117 62q61 22 128 22q61 0 113 -23.5t85 -71.5q7 20 13.5 38t11.5 33h213l-264 -757 q-10 -28 -12 -47.5t6.5 -28t29 -7t55.5 12.5q53 17 108.5 56.5t105 101.5t86.5 146.5t52 193.5q8 64 4 126.5t-25 121t-60 108.5t-101.5 86t-149.5 57.5t-202 21.5q-94 0 -188 -25.5t-181 -71.5t-163.5 -112t-136 -147.5t-100 -176.5t-55.5 -200q-17 -123 0 -221t58.5 -172 t103.5 -126.5t134 -86t150 -48t152 -14.5q104 0 195 16t172.5 46.5t156.5 77.5q75 48 144 109h264q-41 -59 -99.5 -114.5t-129 -107t-153 -94.5t-174.5 -74t-193 -48.5t-207 -17.5q-75 0 -153 11t-153 35.5t-146 62t-130.5 89.5t-106 120t-76 151.5t-38.5 184.5zM817 573.5 q0 -36.5 11.5 -67.5t33.5 -51.5t62 -20.5q49 0 90.5 24t75 62.5t61.5 86.5t47.5 96t32.5 91t20 71q6 22 8 39q6 41 1 74.5t-19.5 55.5t-36.5 34.5t-53 12.5q-45 0 -83.5 -19.5t-72 -52.5t-61.5 -76t-50 -92.5t-37.5 -101t-23.5 -98.5q-6 -31 -6 -67.5z" />
<glyph unicode="A" horiz-adv-x="1640" d="M-36 0l809 1432h397l406 -1432h-361l-78 299h-651l-161 -299h-361zM621 548h452l-142 542h-14z" />
<glyph unicode="B" horiz-adv-x="1445" d="M117 0l200 1432h445q147 0 250 -29.5t165.5 -78t88.5 -111.5q22 -56 22 -114q0 -9 -1 -18q-3 -43 -17.5 -84t-41.5 -77.5t-66 -68t-90 -56.5q82 -21 140 -63.5t94.5 -98t50.5 -119.5q8 -34 7 -68q0 -29 -5 -58q-5 -32 -19 -74t-40.5 -85t-67.5 -84t-98.5 -73.5 t-134.5 -52t-176 -19.5h-706zM488 249h240q77 0 128.5 16t84 43.5t48 63t21.5 74.5q2 12 1 23q-1 26 -9 50q-12 34 -40 57.5t-68.5 37.5t-90.5 14h-261zM575 877h189q51 0 85.5 14t57 34t31.5 45q10 25 13 45q2 10 2 20q1 9 -1 17q-2 18 -11.5 37.5t-26 36.5t-44.5 29.5 t-69 19.5q-41 9 -96 9h-85z" />
<glyph unicode="C" horiz-adv-x="1542" d="M151 531q-4 35 -4 70q0 55 9 111q22 154 92 281t183.5 221.5t267.5 156t343 86.5q48 5 100 8q35 2 72 2q18 -1 37 -1l112 -4t112 -9l-41 -271q-108 12 -202 14q-10 0 -21 1q-83 0 -156 -11q-114 -18 -209 -54.5t-167.5 -93.5t-118.5 -136t-60 -183q-6 -47 -7 -90 q1 -53 11 -100q18 -84 64 -142.5t121 -90t174 -31.5q78 0 140 8t116 22t104 32q47 18 97 39l-38 -283q-45 -20 -95 -39t-109 -33t-128 -22t-152 -8q-125 0 -225 29t-175.5 79.5t-127.5 119.5t-82 151t-37 171z" />
<glyph unicode="D" horiz-adv-x="1520" d="M117 0l200 1432l328 1q158 0 283.5 -34t221 -92.5t161 -137t104 -169t49.5 -188.5q5 -43 4 -85q0 -54 -7 -107q-22 -154 -81.5 -270t-162 -194t-257 -117t-365.5 -39h-478zM489 249h139q128 0 217 29t147.5 78.5t89 115t41.5 138.5q6 46 6 92q1 25 -1 51 q-6 71 -28.5 134.5t-61.5 117.5t-95 94.5t-130.5 62.5t-167.5 22h-25z" />
<glyph unicode="E" horiz-adv-x="1341" d="M117 0l200 1432h1019l-35 -248h-681l-45 -319h629l-36 -251h-629l-50 -365h695l-34 -249h-1033z" />
<glyph unicode="F" horiz-adv-x="1238" d="M117 0l200 1432h973l-35 -248h-635l-45 -319h587l-36 -251h-587l-86 -614h-336z" />
<glyph unicode="G" horiz-adv-x="1526" d="M148 534q-1 16 -1 33q0 72 9 145q22 154 92 281t183.5 221.5t267.5 156t343 86.5q48 5 108 8q46 2 93 2h32q64 -1 127.5 -4t119.5 -9l-43 -272q-53 6 -110.5 9.5t-114.5 4.5q-21 1 -41 1q-34 0 -67 -1q-51 -3 -91 -10q-114 -18 -209 -54.5t-167.5 -93.5t-118.5 -136 t-60 -183q-8 -62 -8 -119q-1 -4 -1 -7q0 -54 9 -101q9 -50 29.5 -92.5t54 -72.5t80 -46.5t109.5 -16.5q28 0 60 3t65 7t66 11q31 7 59 15l31 212h-189l36 255h528l-86 -622q-50 -42 -119.5 -72.5t-147.5 -50t-158.5 -29.5t-155.5 -10q-131 0 -230.5 29.5t-171 80t-117.5 121 t-69.5 151t-25.5 169.5z" />
<glyph unicode="H" horiz-adv-x="1720" d="M117 0l200 1432h338l-82 -576h714l81 576h336l-200 -1432h-336l84 607h-715l-85 -607h-335z" />
<glyph unicode="I" horiz-adv-x="697" d="M131 0l200 1432h338l-202 -1432h-336z" />
<glyph unicode="J" horiz-adv-x="715" d="M-152 -411l38 261q11 -2 21 -2.5t22 -0.5q61 0 104 19.5t73 55.5t48 87.5t27 116.5l183 1306h337l-183 -1299q-8 -65 -24 -125.5t-39.5 -113t-57 -100t-77.5 -85.5q-34 -30 -73 -53t-84.5 -39t-100 -23.5t-118.5 -7.5h-46.5t-49.5 3z" />
<glyph unicode="K" horiz-adv-x="1509" d="M117 0l200 1432h336l-93 -672l539 672h419l-589 -673l539 -759h-414l-494 759q-12 -90 -26 -186t-28 -193.5t-28 -193.5t-25 -186h-336z" />
<glyph unicode="L" horiz-adv-x="1276" d="M117 0l200 1432h336l-167 -1183h722l-35 -249h-1056z" />
<glyph unicode="M" horiz-adv-x="1934" d="M31 0l492 1433h311l200 -810l449 810h353v-1433h-338v881l-503 -881h-69l-246 884l-303 -884h-346z" />
<glyph unicode="N" horiz-adv-x="1677" d="M117 0l200 1432h314l573 -904h14l128 904h336l-203 -1432h-285l-591 949h-14l-136 -949h-336z" />
<glyph unicode="O" horiz-adv-x="1706" d="M144 532q-3 34 -3 69q0 57 9 116q13 89 45.5 177.5t85.5 169.5t125 152t165 124t207 82t248 29q133 0 237.5 -30t182 -82t130.5 -123t82 -153t37 -170q3 -34 3 -67q0 -54 -8 -109q-14 -94 -47 -184.5t-88 -172.5t-129.5 -151.5t-167 -119.5t-203 -79t-238.5 -29 q-130 0 -233 29t-181.5 79t-133 119.5t-86 151.5t-39.5 172zM493 717q-6 -44 -6 -84q0 -53 10 -100q17 -83 63 -140t122 -89t177 -32q100 0 183.5 32t146.5 89t103.5 140t54.5 184q6 44 6 85q1 51 -9 97q-18 82 -64 140.5t-121 90t-175 31.5q-101 0 -185.5 -31.5t-147.5 -90 t-103.5 -140.5t-54.5 -182z" />
<glyph unicode="P" horiz-adv-x="1345" d="M117 0l200 1432h439q114 0 203 -18t154.5 -50t111 -76.5t72 -98t34.5 -113.5q4 -33 4 -65q0 -28 -3 -57q-10 -84 -44 -153.5t-96 -119.5t-151.5 -78t-212.5 -28h-291l-81 -575h-339zM569 824h191q64 0 106.5 10.5t69 28.5t39.5 44q12 26 17 58q2 16 2 32q0 23 -5 47 q-9 40 -41.5 70.5t-91 50t-151.5 19.5h-86z" />
<glyph unicode="Q" horiz-adv-x="1756" d="M145 550q-2 30 -2 59q0 54 7 108q13 89 45.5 177.5t85.5 169.5t125 152t165 124t207 82t248 29q133 0 237.5 -30t182 -82t130.5 -123t82 -153t37 -170q3 -34 3 -67q0 -55 -8 -109q-16 -111 -60.5 -218t-118.5 -199.5t-175.5 -164t-226.5 -110.5q41 -25 93 -47 t107.5 -37.5t111 -25.5t102.5 -10q38 0 70.5 4.5t59.5 12.5l18 -28l-295 -222q-92 6 -185 33.5t-183.5 70t-175 97.5t-156.5 119q-103 15 -186.5 51t-145.5 88t-104.5 119t-66 142t-28.5 158zM493 717q-6 -44 -6 -84q0 -53 10 -100q17 -83 63 -140t122 -89t177 -32 q100 0 183.5 32t146.5 89t103.5 140t54.5 184q6 44 6 85q0 51 -9 97q-18 82 -64 140.5t-121 90t-175 31.5q-101 0 -185.5 -31.5t-147.5 -90t-103.5 -140.5t-54.5 -182z" />
<glyph unicode="R" horiz-adv-x="1427" d="M117 0l200 1432h439q114 0 203 -18t154.5 -50t111 -76.5t72 -98t34.5 -113.5q4 -33 4 -65q0 -28 -3 -57q-6 -56 -25.5 -102.5t-53 -87.5t-80.5 -74.5t-111 -61.5q28 -16 52 -48t46 -75.5t42 -97.5q18 -54 38 -115q18 -58 41 -132t51 -160h-367q-23 63 -39.5 122 t-30.5 114q-18 64 -35.5 121t-39 101.5t-50 75t-67.5 41.5h-166l-81 -575h-339zM569 824h191q64 0 106.5 10.5t69 28.5t39.5 44q12 26 17 58q2 16 2 32q0 23 -5 47q-9 40 -41.5 70.5t-91 50t-151.5 19.5h-86z" />
<glyph unicode="S" horiz-adv-x="1260" d="M95 117l38 287q46 -40 101 -72t114 -55.5t121 -35.5t122 -12q53 0 96.5 11.5t75.5 31t51 46.5t23 57q1 8 1 15q0 26 -14 47q-18 27 -51.5 48.5t-79 40.5t-98.5 38q-50 20 -101.5 41t-100 47t-89.5 61.5t-69.5 82t-39.5 107.5q-6 30 -6 64t6 73q13 91 61 167.5t126 131 t181.5 83.5t226.5 29q58 0 115 -5t113 -16.5t114 -31t120 -47.5l-37 -271q-70 33 -128 56t-109.5 38.5t-98.5 22.5q-45 7 -92 7q-50 0 -93 -11t-75 -29.5t-53 -41.5q-21 -24 -24 -50q-4 -31 14 -56t50.5 -46.5t77 -41t94.5 -38.5q49 -20 101 -42t99.5 -50t89 -63.5t70 -82 t40.5 -104.5q7 -32 6 -69q0 -30 -4 -63q-14 -103 -65.5 -184.5t-130 -137t-181 -84.5t-219.5 -29q-92 0 -163 11t-126.5 30.5t-104 43t-95.5 51.5z" />
<glyph unicode="T" horiz-adv-x="1484" d="M183 1184l35 248h1350l-35 -248h-507l-166 -1184h-337l166 1184h-506z" />
<glyph unicode="U" horiz-adv-x="1617" d="M203 617l115 815h338l-119 -837q-6 -40 -6 -75q-1 -34 5 -64q12 -61 44.5 -103t87.5 -65t135 -23q73 0 133.5 19.5t107 62t77 110.5t44.5 163l114 812h338l-116 -812q-25 -178 -88 -300.5t-158.5 -197.5t-219 -108t-268.5 -33q-154 0 -270 37.5t-189 115.5 q-74 76 -100 196q-14 65 -15 145q0 66 10 142z" />
<glyph unicode="V" horiz-adv-x="1481" d="M158 1432h376l246 -830h15l462 830h369l-852 -1451h-140z" />
<glyph unicode="W" horiz-adv-x="2204" d="M161 1432h349l216 -819h16l364 819h238l196 -819h15l369 819h336l-702 -1451h-137l-235 979h-16l-451 -979h-138z" />
<glyph unicode="X" horiz-adv-x="1663" d="M-42 0l724 742q-58 82 -120 169t-124.5 176t-125 176.5t-120.5 168.5h435l279 -456h14l400 456h426l-672 -690l533 -742h-437l-318 500h-12q-114 -125 -227 -250t-227 -250h-428z" />
<glyph unicode="Y" horiz-adv-x="1392" d="M200 1432h355l169 -465h14l268 465h417l-547 -754l-96 -678h-338l95 678z" />
<glyph unicode="Z" horiz-adv-x="1448" d="M-28 0l947 1184h-733l36 248h1300l-935 -1183h774l-35 -249h-1354z" />
<glyph unicode="[" horiz-adv-x="899" d="M72 -464l313 2221h676l-31 -214h-371l-252 -1792h371l-30 -215h-676z" />
<glyph unicode="\" horiz-adv-x="590" d="M170 1451h215l147 -1470h-212z" />
<glyph unicode="]" horiz-adv-x="899" d="M-70 -464l31 215h370l251 1792h-371l31 214h675l-312 -2221h-675z" />
<glyph unicode="^" horiz-adv-x="1225" d="M133 628l499 804h227l264 -804h-278l-144 509l-288 -509h-280z" />
<glyph unicode="_" horiz-adv-x="1049" d="M-36 -277l17 119h1075l-16 -119h-1076z" />
<glyph unicode="`" horiz-adv-x="699" d="M133 1421h341l113 -308h-177z" />
<glyph unicode="a" horiz-adv-x="1170" d="M50 481q6 69 26.5 140t59.5 138t96 125t135 102t176.5 69t220.5 25l390 -1l-152 -1079h-303l10 67q-33 -20 -62.5 -35t-60 -25t-65.5 -14t-78 -4q-58 0 -111.5 12.5t-99.5 37.5t-82.5 64.5t-61 94.5t-34.5 125q-6 42 -7 90q0 33 3 68zM338 346q8 -54 31 -94.5t62 -63.5 t94 -27h15q15 0 32 1q26 2 52.5 11.5t54 26.5t52.5 46l95 627h-53q-75 0 -135 -17.5t-106 -47.5t-80 -70t-56.5 -84.5t-36.5 -92t-20 -91.5q-4 -36 -4 -68q-1 -30 3 -56z" />
<glyph unicode="b" horiz-adv-x="1285" d="M76 24l217 1541h307l-80 -567q39 24 73.5 40t68 25t68 12.5t71.5 3.5q109 0 196 -40t144 -111.5t81 -173.5q13 -57 13 -121q0 -49 -8 -101q-16 -116 -65.5 -215.5t-131.5 -173t-196 -117t-260 -45.5q-21 -1 -44 -1q-35 0 -75 2q-66 3 -132.5 8.5t-130.5 14t-116 19.5z M406 189q42 -3 87 -7q24 -2 50 -3q22 0 44 2q70 4 123.5 28.5t92.5 68.5t63 108t36 146q7 44 7 83q-1 37 -7 67q-12 64 -41.5 105t-73.5 62q-42 21 -92 21q-47 0 -97 -17q-48 -16 -106 -57z" />
<glyph unicode="c" horiz-adv-x="1088" d="M125 525q17 117 71 213.5t136 167.5t189 116q107 43 228 59q77 10 167 10q90 -1 179 -12l-33 -220q-56 9 -100 11q-32 2 -59 1h-21q-34 -1 -62 -5t-50 -7q-56 -10 -108 -35.5t-93.5 -66t-71.5 -97.5t-42 -132q-8 -48 -8 -90q0 -30 4 -56q10 -62 43 -104q34 -43 84 -63 q46 -18 105 -18h12q29 2 64.5 5.5t76 11t83.5 20.5t90 36l-30 -212q-52 -22 -98 -37t-88 -25t-82.5 -13.5t-79.5 -3.5q-133 0 -236 37.5t-170 107.5t-93 172q-15 59 -15 126q0 49 8 103z" />
<glyph unicode="d" horiz-adv-x="1285" d="M99 517q14 122 64.5 219.5t128.5 169t177.5 115.5t208.5 58q74 9 143 11q31 1 61 2q35 0 67 -2l68 475h306l-217 -1541q-58 -14 -124.5 -23t-135 -14t-132 -5.5t-116.5 -0.5q-145 2 -246.5 45.5t-161.5 115.5t-82 168q-14 61 -14 128q0 38 5 79zM418 382q8 -58 34 -102 t72 -70.5t117 -28.5q26 -2 50 -2q21 -1 41 1q44 2 91 9l94 687q-30 2 -55 4q-12 1 -24 0.5t-24 -0.5q-23 -2 -44 -4q-22 0 -44 -6q-57 -11 -108 -37.5t-91.5 -69.5t-68.5 -105.5t-40 -150.5q-4 -34 -4 -66q0 -31 4 -59z" />
<glyph unicode="e" horiz-adv-x="1207" d="M113 525q16 123 69 224.5t134.5 175t188.5 114t234 40.5q123 0 212 -40.5t143 -116.5q53 -78 69 -190q6 -42 6 -88q0 -78 -17 -169h-729q-5 -32 -4 -62q-1 -34 5 -64q12 -57 45.5 -96.5t86.5 -61t128 -21.5q50 0 97 5.5t96 20.5t102.5 40t117.5 64l-27 -189 q-41 -30 -85.5 -52.5t-89 -36.5t-86.5 -22t-79.5 -13t-66.5 -6.5t-49 -1.5q-130 0 -231.5 37t-167.5 107t-93 172q-16 60 -16 131q0 47 7 99zM455 649h446q1 12 1 24q0 41 -8 75q-10 44 -33 74.5t-60 48t-89 17.5q-42 0 -83 -16.5t-75 -48t-60.5 -76t-38.5 -98.5z" />
<glyph unicode="f" horiz-adv-x="665" d="M70 -375l169 1206h-153l32 228h153l4 31q17 125 64 218t115.5 155.5t153.5 93.5q84 30 182 30q23 0 49 -2t50 -4.5t47 -5.5t40 -6l-34 -243q-30 6 -51 8t-35 2.5t-25 0.5h-25q-36 0 -72 -14t-66.5 -42.5t-53 -72t-30.5 -104.5l-9 -45h169l-32 -228h-167l-170 -1206h-305z " />
<glyph unicode="g" horiz-adv-x="1195" d="M11 -220q6 34 21 71.5t51.5 73.5t94.5 68t150 51v5q-25 8 -47 20t-37.5 28.5t-23.5 38.5q-9 22 -3 50q5 42 29.5 70t56.5 45t64.5 26t56.5 15l1 6q-32 5 -64.5 17t-61 32t-53 48t-39.5 62t-22 75q-3 20 -3 41q0 24 4 50q6 36 20 77.5t40 84.5t68 83.5t100.5 71t135 50 t176.5 19.5h581l-31 -211l-207 5q26 -20 43 -47.5t25 -55t10 -54.5q3 -26 0 -48q-4 -31 -12.5 -61t-22.5 -57t-36 -52t-53 -50q-50 -39 -107 -59.5t-114 -33.5t-108.5 -19.5t-93 -16.5t-68 -26.5t-29.5 -47.5q-3 -22 12 -37.5t43.5 -23.5t66.5 -13.5t82 -11.5t90.5 -12.5 t90 -18t82.5 -28t67 -44.5q28 -26 42 -54.5t19.5 -56.5t4.5 -53t-4 -44q-13 -92 -60 -159t-123 -111t-179 -65t-225 -21q-108 0 -187.5 13t-136.5 36t-93.5 53t-56.5 64t-25 70q-4 21 -4 42q0 15 2 30zM295 -207q-2 -9 -2 -17q0 -23 12 -42q16 -26 50 -45.5t83.5 -29 t113.5 -9.5q53 0 99.5 12.5t82.5 34.5t57.5 49t25.5 57t-10.5 56.5t-46.5 46t-79 30.5t-108 11q-56 0 -104.5 -12.5t-86 -33.5t-61.5 -48.5t-26 -59.5zM468 667q-2 -16 -2 -31q0 -22 4 -44q8 -36 30.5 -64t57 -45t81.5 -17q48 0 88 17t69.5 48t47.5 69q18 37 23 78 q2 15 2 30q0 21 -5 42q-8 35 -28.5 62.5t-55.5 44t-82 16.5t-87 -16.5t-69.5 -44.5t-48.5 -66t-25 -79z" />
<glyph unicode="h" horiz-adv-x="1274" d="M72 0l220 1565h306l-96 -675h4q36 47 80 81.5t92 59t97 36.5t96.5 12t91 -9t82.5 -28.5t69.5 -50.5t51 -74t26.5 -100q3 -24 2 -50q0 -36 -4 -78l-97 -689h-306l89 630q4 31 4 58q0 23 -3 43q-7 42 -26.5 68.5t-50 37.5t-66.5 11q-28 0 -61.5 -8.5t-66.5 -28.5t-68 -54 t-65 -84l-96 -673h-305z" />
<glyph unicode="i" horiz-adv-x="596" d="M89 0l150 1059h306l-147 -1059h-309zM256 1407q5 39 24.5 72t49 58t64.5 40q34 15 73 15t71 -15t53 -40t31 -58q6 -22 6 -46q0 -13 -2 -26q-6 -39 -25 -72.5t-47.5 -58.5t-64.5 -39.5t-73 -14.5q-39 0 -70.5 14.5t-53.5 39.5q-22 24 -32 58q-7 21 -6 45q0 14 2 28z" />
<glyph unicode="j" horiz-adv-x="596" d="M-85 -282q45 11 77.5 30.5t56 50.5t39 74.5t23.5 101.5l152 1084h307l-159 -1123q-11 -82 -36.5 -146.5t-61 -114.5t-78 -87t-87.5 -61.5t-91 -37.5t-86 -17zM281 1407q5 39 24.5 72t49 58t64.5 40q34 15 73 15t71 -15t53 -40t30 -58q7 -22 7 -46q0 -13 -2 -26 q-6 -39 -25 -72.5t-47.5 -58.5t-64.5 -39.5t-73 -14.5q-39 0 -70.5 14.5t-53 39.5t-31.5 58q-7 22 -7 45q0 14 2 28z" />
<glyph unicode="k" horiz-adv-x="1203" d="M72 0l220 1565h306l-142 -995h4l457 489h360l-479 -497l354 -562h-376l-317 550h-4l-78 -550h-305z" />
<glyph unicode="l" horiz-adv-x="600" d="M92 0l219 1565h306l-219 -1565h-306z" />
<glyph unicode="m" horiz-adv-x="2091" d="M89 0l150 1059h303l-19 -150q89 83 187.5 126.5t220.5 43.5q131 0 207 -56q77 -56 105 -170q66 71 124.5 115t115.5 69t112.5 33.5t114.5 8.5q86 0 150 -26t105 -75t56 -122q9 -39 9 -85q0 -37 -6 -79l-97 -692h-306l91 648q4 28 4 53t-4 45q-9 42 -29.5 69t-49.5 41 t-62 14q-92 0 -171 -51q-80 -52 -145 -141l-96 -678h-303l92 659q4 26 4 49q0 27 -6 48q-10 40 -32 65.5t-54 37t-66 11.5q-31 0 -69 -11t-78 -32t-79 -51q-40 -28 -75 -67l-98 -709h-306z" />
<glyph unicode="n" horiz-adv-x="1276" d="M89 0l150 1059h303l-22 -167q43 50 92.5 85.5t102 58t105 33t100.5 10.5q43 0 84 -7t76.5 -25t64 -47.5t45.5 -73.5q18 -42 23 -102q2 -19 2 -39q0 -45 -8 -98l-96 -687h-306l94 671q4 28 4 52q-1 19 -3 35q-6 38 -19.5 62.5t-37 37t-51.5 12.5q-34 0 -72 -9.5t-76 -32 t-77 -58.5t-78 -89l-94 -681h-306z" />
<glyph unicode="o" horiz-adv-x="1245" d="M120 531q19 136 74.5 237.5t138.5 171t188 104.5t223 35q65 0 130.5 -12.5t123.5 -40.5t105.5 -71t79.5 -104t43 -141q5 -35 5 -75q0 -50 -8 -107q-14 -105 -50 -186t-87.5 -142t-112.5 -103.5t-126.5 -68t-131.5 -37.5t-126 -12q-130 0 -226 39.5t-156 112t-83 173.5 q-12 56 -12 120q0 51 8 107zM444 308q9 -41 25.5 -69t39 -44.5t49 -23.5t56.5 -7q112 0 186 94t101 279q8 56 8 105q0 22 -2 44q-5 66 -26.5 112.5t-62 71.5t-101.5 25q-53 0 -96 -22t-77.5 -66.5t-59.5 -112.5t-39 -163q-11 -69 -11 -122q0 -58 10 -101z" />
<glyph unicode="p" horiz-adv-x="1276" d="M75 600.5q0 27.5 15.5 66t46 83.5t76.5 95t107 100l44 314h305l-24 -172q50 8 91 8t73 -2q122 -13 211 -55.5t147.5 -110.5t84.5 -161q22 -76 22 -166q0 -20 -1 -41q-3 -64 -23.5 -129.5t-61 -128t-100 -117.5t-138 -96t-176.5 -64.5t-215 -23.5h-63l-68 -506h-307 l171 1245q-70 -50 -134 -119q-11 -11 -24.5 -26.5t-27 -22.5t-22.5 -2.5t-9 32zM525 214h18q95 0 175.5 30.5t141 82t94.5 118.5t34 140q0 72 -23 125.5t-61 91.5t-89 56t-103 20h-47.5t-48.5 -4z" />
<glyph unicode="q" horiz-adv-x="1281" d="M163 513q16 115 61.5 212.5t122 169.5t185.5 119q109 45 253 62q45 5 104 8t125 4q23 1 45 1q45 0 91 -2q70 -3 133 -8l-217 -1585h-307l75 535q-67 -25 -135.5 -34.5t-142.5 -9.5q-110 0 -191 41.5t-131.5 113t-68.5 167.5q-10 51 -10 106q0 48 8 100zM482 376 q7 -62 31.5 -103.5t61.5 -61.5q37 -19 81 -22q14 -1 28 -1q48 0 85 8q48 11 90 31l92 654q-30 4 -61 4q-15 0 -31 -1q-47 -3 -96 -14q-114 -26 -185.5 -110t-92.5 -235q-7 -51 -7 -94q0 -29 4 -55z" />
<glyph unicode="r" horiz-adv-x="988" d="M89 0l150 1059h304l-40 -286h3q42 75 88.5 132t93.5 96t93.5 58.5t91.5 19.5q24 0 48 -4.5t49 -14t53 -27t58 -43.5l-126 -281q-28 22 -51 36t-43.5 21t-40 9.5t-39.5 2.5q-37 0 -78 -19.5t-83 -58t-82 -95.5t-77 -130l-66 -475h-306z" />
<glyph unicode="s" horiz-adv-x="941" d="M74 78l32 222q39 -23 75.5 -43.5t76 -35.5t81.5 -23.5t92 -8.5q42 0 72.5 7.5t51 20t32.5 28.5t15 36q4 30 -15.5 52.5t-53 42t-77 37.5t-89 40t-88.5 48.5t-74 64t-47 86.5q-8 30 -8 66q0 22 3 46q11 73 47 131.5t96 98.5t141 62.5t180 22.5q47 0 90.5 -7t81.5 -18.5 t73.5 -26.5t71.5 -33l-32 -223q-43 32 -87.5 56t-86 38.5t-78 22t-63.5 7.5t-52 -3.5t-44.5 -11.5t-32.5 -24q-13 -14 -16 -39q-3 -27 16 -49t52 -42t77 -41t88.5 -44.5t87.5 -54t73 -69.5t46 -89q9 -30 10 -66q0 -23 -4 -49q-11 -78 -44.5 -140t-89 -105t-134 -66 t-178.5 -23q-58 0 -114 10t-104.5 24.5t-87.5 32.5t-62 32z" />
<glyph unicode="t" horiz-adv-x="1002" d="M117 844l33 215h227l46 332h304l-46 -332h288l-29 -215h-289l-67 -481q-6 -39 -6 -67.5t9 -48.5t26.5 -30.5t48.5 -10.5q36 0 95.5 11t137.5 39l-36 -221q-44 -18 -88.5 -29.5t-86.5 -17t-78 -7.5t-64 -2q-37 0 -74 6.5t-70.5 23t-60 43.5t-43.5 69.5t-22 101.5 q-2 19 -2 40q0 45 8 98l68 483h-229z" />
<glyph unicode="u" horiz-adv-x="1276" d="M137 235q-2 19 -2 39q0 45 8 99l96 686h306l-95 -673q-4 -27 -4 -50q0 -20 3 -38q6 -38 20.5 -61.5t38 -35.5t51.5 -12q35 0 71.5 9.5t75.5 32t78 57.5q39 37 76 90l96 681h305l-149 -1059h-304l23 165q-43 -50 -93 -85.5t-102 -57.5t-105 -31.5t-100 -9.5q-43 0 -84 6.5 t-77 25t-64 47.5t-46 72t-23 103z" />
<glyph unicode="v" horiz-adv-x="1124" d="M117 1059h328l139 -643l321 643h327l-615 -1080h-186z" />
<glyph unicode="w" horiz-adv-x="1712" d="M111 1059h314l131 -629l322 629h183l143 -629l307 629h313l-597 -1080h-159l-160 635l-344 -635h-155z" />
<glyph unicode="x" horiz-adv-x="1217" d="M-29 0l510 550l-342 509h361l176 -315h1l264 315h360l-484 -509l356 -550h-356l-198 342l-294 -342h-354z" />
<glyph unicode="y" horiz-adv-x="1124" d="M28 -507l381 652l-278 914h330l137 -600l333 600h320l-901 -1566h-322z" />
<glyph unicode="z" horiz-adv-x="1127" d="M-19 0l696 844h-463l29 215h941l-679 -844h549l-31 -215h-1042z" />
<glyph unicode="{" horiz-adv-x="808" d="M92 539l29 212q67 0 113.5 21.5t77 61.5t48.5 98t29 130l45 313q15 105 50.5 179t90.5 119t129 64.5t169 19.5h92l-32 -217h-13q-69 0 -110 -11t-65.5 -39t-37 -79.5t-23.5 -131.5q0 -2 -1.5 -13.5t-4 -27.5t-5 -35t-4.5 -35t-4 -27t-2 -12q-11 -85 -25.5 -155 t-41 -128.5t-68.5 -107.5t-111 -93q56 -45 85 -94t38 -108t4 -128.5t-17 -154.5q0 -2 -2 -13t-3.5 -26t-4.5 -33t-5 -34t-4 -26.5t-2 -13.5q-11 -81 -12.5 -132.5t14 -79t54 -38.5t108.5 -11h11l-30 -217h-92q-93 0 -162 19.5t-111.5 64.5t-57 118t-0.5 180l44 307 q12 72 9 130.5t-22.5 99t-59.5 61.5q-41 23 -107 23z" />
<glyph unicode="|" horiz-adv-x="590" d="M71 -460l313 2220h228l-313 -2220h-228z" />
<glyph unicode="}" horiz-adv-x="808" d="M-64 -464l31 217h12q46 0 79.5 4t57 15t39 30.5t26.5 48.5t18 70q7 40 15 93q0 1 2 12.5t4 27.5t5 34t4.5 33t3.5 26t2 13q12 85 26 154.5t40.5 128.5t69 108t110.5 94q-56 44 -84.5 93t-37.5 107.5t-4.5 128.5t16.5 155q0 1 2 12t4 27t4.5 35t5 35t4 27t1.5 14 q11 80 13 131.5t-14 79.5t-55 39t-107 11h-12l30 217h92q93 0 162.5 -19.5t112 -64.5t58 -118t-1.5 -180l-43 -313q-11 -72 -9 -130t21.5 -98t60.5 -61.5t108 -21.5l-30 -212q-66 0 -113.5 -22t-78 -62.5t-48.5 -97.5q-18 -60 -29 -132l-42 -307q-15 -106 -50.5 -179.5 t-91 -118.5t-130.5 -64.5t-167 -19.5h-92z" />
<glyph unicode="~" horiz-adv-x="1225" d="M47 389l39 274q47 40 93 66t90.5 40.5t87.5 19.5t84 5q52 0 97.5 -12t85.5 -30t76.5 -39.5t74 -39.5t76.5 -30t86 -12q36 0 75 7t79 22.5t82 41t85 62.5l-39 -272q-33 -28 -68.5 -52t-78 -41.5t-92 -27.5t-106.5 -10q-48 0 -91.5 12.5t-83 31t-77.5 40t-75.5 40t-77 31 t-83.5 12.5q-36 0 -77 -7t-84.5 -22t-88.5 -42q-44 -26 -89 -68z" />
<glyph unicode="&#xa2;" horiz-adv-x="1049" d="M136 709q16 111 66 207t125.5 169.5t175.5 118t214 55.5l25 174h181l-25 -179q50 -9 101.5 -24t109.5 -44l-33 -228q-34 15 -63 27.5t-54 21t-48 14t-45 9.5l-90 -648q52 6 113.5 22t130.5 49l-29 -213q-72 -30 -131 -47.5t-115 -24.5l-24 -167h-179l22 164 q-115 12 -202.5 53.5t-142.5 111t-77 165.5t-6 214zM438 600.5q7 -50.5 27.5 -90.5t54 -68.5t78.5 -43.5l86 619q-47 -15 -87.5 -42t-73 -66.5t-54 -89t-30.5 -107.5q-8 -61 -1 -111.5z" />
<glyph unicode="&#xa3;" horiz-adv-x="1093" d="M44 -19q3 16 11.5 46.5t21 69t28 83.5t32 93.5t34.5 97.5t34.5 95t32.5 87q16 42 29 73h-117l29 204h163q33 75 65 143.5t68.5 130.5t75 114t86.5 93q44 39 93.5 68t100 46.5t100.5 22.5q50 6 95 0l61 -228q-72 17 -133.5 3t-114 -62t-102.5 -130.5t-100 -200.5h134 l-29 -204h-185q-11 -26 -22.5 -55.5t-24 -62.5t-24 -65.5t-22.5 -63.5q-25 -72 -51 -147q22 6 35 8t32 2q50 0 88 -7t73 -15.5t72.5 -15.5t85.5 -7q28 0 47 1.5t36 5.5t36 11t45 17l-1 -210q-32 -14 -56.5 -21.5t-45 -12.5t-43 -6t-48.5 -1q-31 0 -73.5 8t-92.5 17t-107 17 t-117 8q-47 0 -88 -3t-80 -10t-79 -16q-40 -10 -88 -21z" />
<glyph unicode="&#xa5;" horiz-adv-x="1159" d="M56 336l32 223h376l17 122h-377l32 221h263l-246 534h311l195 -477h5l335 477h312l-402 -534h267l-31 -221h-382l-17 -122h383l-32 -223h-383l-47 -335h-281l48 335h-378z" />
<glyph unicode="&#xa9;" horiz-adv-x="1554" d="M19 717q0 104 27.5 201t76.5 181t117.5 152.5t152.5 117.5t180.5 76t200.5 27t200 -27t180 -76t153 -117.5t117.5 -152.5t76 -180t27.5 -202q0 -104 -27.5 -200.5t-76 -180t-117.5 -152.5t-153 -118t-180 -75.5t-200 -26.5t-200.5 26.5t-180.5 75.5t-152.5 118 t-117.5 152.5t-76.5 180.5t-27.5 200zM183 717q0 -80 21 -156t60 -141.5t92.5 -119t119 -92t141 -59.5t156.5 -21q80 0 156 21t141.5 59.5t119 92t92 119t59.5 141.5t21 156q0 81 -21 156.5t-59.5 141t-92 119t-119 92.5t-141.5 60t-156 21q-81 0 -156.5 -21t-141 -60 t-119 -92.5t-92.5 -119t-60 -141t-21 -156.5zM403 712q0 97 26.5 176t76.5 135t121 85t160 29q66 0 122.5 -19.5t99 -57t69.5 -91.5q28 -54 34 -122h-156q-4 30 -18 57t-37 47.5t-54 31.5q-32 12 -71 12q-48 0 -84 -18.5t-62.5 -54t-40.5 -87.5q-14 -54 -14 -118 q0 -65 15 -117t42 -88.5t66 -55t89 -18.5q30 0 59.5 10.5t53 30t39 46.5t17.5 62h159q-3 -69 -32 -122.5t-75 -90t-103.5 -56t-119.5 -19.5q-86 0 -157 29t-121 82.5t-77 130t-27 171.5z" />
<glyph unicode="&#xab;" horiz-adv-x="1246" d="M81 481l403 459h300l-425 -459l297 -459h-300zM603 481l403 459h301l-427 -459l297 -459h-300z" />
<glyph unicode="&#xad;" horiz-adv-x="810" d="M108 588l37 259h658l-36 -259h-659z" />
<glyph unicode="&#xae;" horiz-adv-x="1554" d="M24 717q0 104 27 201t75.5 181t117.5 152.5t153 117.5t180.5 76t200.5 27q105 0 200.5 -27t180 -76t152.5 -117.5t117.5 -152.5t76.5 -180t27 -202q0 -104 -27 -200.5t-76.5 -180t-117.5 -152.5t-152.5 -118t-181 -75.5t-199.5 -26.5q-104 0 -200.5 26.5t-180.5 75.5 t-153 118t-117.5 152.5t-75.5 180.5t-27 200zM186 717q0 -80 21.5 -156t60 -141.5t92.5 -119t119.5 -92t140.5 -59.5t156 -21q80 0 156.5 21t142 59.5t119 92t91.5 119t59 141.5t21 156q0 81 -21 156.5t-59 141t-91.5 119t-119 92.5t-141.5 60q-77 21 -157 21 q-81 0 -156 -21t-140.5 -60t-119.5 -92.5t-92.5 -119t-60 -141t-21.5 -156.5zM484 334v772h383q63 0 108 -16.5t75.5 -45t45.5 -68t15 -85.5q0 -44 -12 -82.5t-38.5 -67.5t-65.5 -48.5t-93 -25.5v-4q25 -8 42.5 -17t35.5 -27.5t38 -49t50 -80.5l90 -155h-193l-63 125 q-22 41 -45 76.5t-45 59.5q-25 24 -55 37t-65 13h-51v-311h-157zM641 767h162q39 0 66.5 10t44 26.5t24 36.5t7.5 41q0 50 -40 78t-121 28h-143v-220z" />
<glyph unicode="&#xbb;" horiz-adv-x="1246" d="M17 22l426 459l-297 459h300l274 -459l-403 -459h-300zM539 22l426 459l-298 459h300l276 -459l-403 -459h-301z" />
<glyph unicode="&#xbc;" horiz-adv-x="1882" d="M204 -57l1197 1483h197l-1196 -1483h-198zM304 628l107 754h217l-105 -754h-219zM997 181l18 123l465 452h137l-63 -445h58l-16 -130h-60l-26 -181h-212l25 181h-326zM1193 311h150l22 164z" />
<glyph unicode="&#xbd;" horiz-adv-x="1882" d="M181 -57l1196 1483h199l-1198 -1483h-197zM281 628l105 754h220l-107 -754h-218zM1073 0l6 28q94 92 165 164t120.5 130.5t76.5 104.5t32 83q3 22 -2 39.5t-16.5 31.5t-29 21t-39.5 7q-47 0 -103 -26q-57 -24 -129 -80l25 178q41 21 75.5 34t64 21.5t59 12.5t59.5 4 q66 0 116 -14.5t82.5 -41.5t46.5 -66.5t8 -88.5q-5 -39 -25.5 -79t-54.5 -87t-84 -100.5t-114 -117.5h267l-22 -158h-584z" />
<glyph unicode="&#xbe;" horiz-adv-x="1882" d="M196 674l22 160q28 -19 51.5 -31.5t45 -21t44 -11.5t45.5 -3q26 0 48.5 5.5t39.5 17t27 27.5q11 17 13 36q13 87 -116 96l20 141q56 5 88.5 26t38.5 59q6 34 -21.5 56.5t-77.5 22.5q-16 0 -35.5 -3.5t-42.5 -10t-47 -14.5q-25 -8 -47 -18l21 146q51 19 102.5 27t108.5 8 q61 0 112 -13.5t85 -38.5t50 -59q16 -33 10 -74q-17 -106 -144 -170q69 -30 98 -74.5t18 -112.5q-7 -51 -35.5 -92t-74 -70t-107 -45.5t-130.5 -16.5q-28 0 -51.5 2.5t-47 8t-51 15.5t-60.5 25zM339 -57l1197 1483h199l-1198 -1483h-198zM1104 181l16 123l467 452h138 l-63 -445h59l-20 -130h-57l-26 -181h-211l25 181h-328zM1301 311h149l23 164z" />
<glyph unicode="&#xd7;" horiz-adv-x="1225" d="M140 417l342 300l-257 300l209 183l258 -301l341 301l157 -183l-342 -300l258 -300l-209 -183l-258 301l-342 -301z" />
<glyph unicode="&#xf7;" horiz-adv-x="1225" d="M121 595l35 247h1051l-37 -247h-1049zM450 300q5 31 20.5 58.5t40 48.5t54 33.5t61.5 12.5q30 0 56.5 -12.5t44.5 -33.5t26.5 -48.5t4.5 -58.5q-5 -32 -21.5 -59.5t-40 -48.5t-53 -33t-59.5 -12q-32 0 -58.5 12t-44.5 33t-25.5 48.5t-5.5 59.5zM567 1134q4 32 21 60.5 t41 49.5t53.5 33t61.5 12q30 0 56.5 -12t44 -33t25.5 -49.5t4 -60.5q-4 -30 -20.5 -58t-40 -49t-53 -33.5t-59.5 -12.5q-32 0 -58.5 12.5t-44.5 33.5t-26 49t-5 58z" />
<glyph unicode="&#xe00;" />
<glyph unicode="&#xe01;" horiz-adv-x="1380" d="M103 0l103 734q14 94 46 163.5t77 117.5t101 78t120 47.5t131 23.5t132 6q67 0 131.5 -6t123 -23.5t107 -47.5t80.5 -78t44.5 -117.5t-1.5 -163.5l-103 -734h-330l102 723q9 54 4.5 93.5t-17.5 66t-31.5 43t-42.5 25.5t-47.5 12t-47.5 3q-34 0 -73 -7.5t-75.5 -32.5 t-64 -74t-38.5 -129l-102 -723h-329z" />
<glyph unicode="&#xe02;" horiz-adv-x="1231" d="M131 1148h357l160 -636l339 636h353l-666 -1148h-193z" />
<glyph unicode="&#xe03;" horiz-adv-x="1310" d="M136 967l29 206l221 -149l194 124h255l-40 -292q-7 -53 -30 -87.5t-53 -61.5t-64 -50t-64.5 -51t-54 -66t-31.5 -95l-6 -36q-8 -49 -4 -89.5t22 -69.5t50 -45t79.5 -16t85 12t62.5 35t40 56t21 75l108 781h331l-100 -714q-18 -131 -62.5 -218.5t-117 -139.5t-173 -74.5 t-231.5 -22.5q-140 0 -232 30.5t-143 87t-66 137t-1 177.5l3 14q8 50 26 87.5t43.5 65t54.5 47.5t59.5 36.5t61 32t55.5 35t44 43.5q20 24 29 59l13 109l-191 -123z" />
<glyph unicode="&#xe04;" horiz-adv-x="1405" d="M103 0l103 734q14 93 46 161t77.5 116t104 79.5t123 48.5t133.5 24t136 7q66 0 133 -7t126.5 -23.5t109.5 -47.5t83 -79t46 -117t-1 -162l-103 -734h-330l102 723q9 54 3.5 93.5t-19 66t-33.5 43t-44.5 25.5t-50 12t-50.5 3t-51.5 -3.5t-53.5 -12t-53 -25t-46.5 -43.5 t-36 -66.5t-23.5 -94.5l-24 -168q47 61 96.5 94t106.5 33q21 0 40.5 -6.5t36 -16t30.5 -20.5t25 -23l-94 -232q-28 28 -55 37q-29 9 -51 9q-17 0 -37.5 -8.5t-44.5 -25.5t-47.5 -45.5t-44.5 -70.5l-39 -278h-329z" />
<glyph unicode="&#xe05;" horiz-adv-x="1448" d="M103 0l161 1148h303l243 -219l313 219h303l-161 -1148h-331l120 853l-252 -169h-51l-198 169l-58 -422q46 60 95 92.5t106 32.5q21 0 40.5 -6.5t36.5 -16t30.5 -21.5t24.5 -23l-94 -230q-28 27 -55 36q-28 8 -51 8q-16 0 -37 -7t-44 -25t-46 -46.5t-45 -70.5l-22 -154 h-331z" />
<glyph unicode="&#xe06;" horiz-adv-x="1387" d="M103 0l60 425q7 50 25 87.5t43 65t54 47.5t59.5 36.5t61 32t55.5 35t44.5 43.5t29.5 59l15 109l-191 -123l-223 150l29 206l220 -149l193 124h256l-40 -292q-7 -53 -29.5 -87.5t-53 -61.5t-64.5 -50t-64.5 -51t-54.5 -66q-25 -38 -33 -95l-9 -67q3 -33 27 -64.5 t60.5 -55.5t80.5 -38t85 -14q37 0 69 9.5t55.5 29t39.5 50t21 72.5l110 781h331l-111 -792q-14 -97 -53 -168t-96 -118.5t-129 -69.5t-153 -22q-56 0 -112 11t-106 32t-91 51q-41 31 -64 70l-19 -142h-328z" />
<glyph unicode="&#xe07;" horiz-adv-x="974" d="M0 72l31 225q36 -19 81.5 -37t93 -31.5t93.5 -21.5t83 -8q25 0 45.5 4.5t36.5 18.5t26 39t16 67l85 595h-185l30 225h516l-121 -862q-11 -75 -43 -130.5t-82 -93t-114 -56.5t-137 -20q-81 -1 -155.5 8t-135.5 23t-104 30q-43 14 -60 25z" />
<glyph unicode="&#xe08;" horiz-adv-x="1166" d="M136 792l34 245q64 31 127.5 54.5t129.5 41.5t134.5 27.5t140.5 9.5q121 0 203 -19.5t129 -61t61 -107.5q14 -65 2 -159l-116 -823h-330l33 234q-10 62 -30 106t-47 71.5t-60.5 40t-69.5 12.5q-31 0 -55 -4t-47 -15l36 244q25 6 62 9t83 -6q70 -11 111.5 -38t65.5 -73 l23 167q6 40 6 77.5t-14.5 66t-47.5 45.5t-91 17q-42 0 -98 -10t-119.5 -29.5t-130 -50t-125.5 -72.5z" />
<glyph unicode="&#xe09;" horiz-adv-x="1358" d="M156 356l36 268h331l-35 -246q-11 -83 19 -121.5t105 -38.5q41 0 87 14.5t86.5 38.5t71 55t41.5 65l50 358q3 28 4.5 53.5t-5.5 48t-22.5 42t-43.5 33.5t-68 21t-96 7q-22 0 -56.5 -4.5t-78 -12.5t-92 -20.5t-96.5 -29.5t-94 -37q-44 -19 -83 -44l33 245 q129 60 270.5 89.5t287.5 29.5q119 0 213.5 -19.5t158.5 -61t93 -107.5q31 -65 17 -159l-117 -823h-328l20 142q-34 -39 -80.5 -69.5t-100 -51.5t-110.5 -32t-113 -11q-80 0 -144 22t-104.5 69.5t-55.5 118.5t-1 168z" />
<glyph unicode="&#xe0a;" horiz-adv-x="1341" d="M129 439q14 92 49.5 161.5t80 116.5t92 76.5t83.5 43.5l14 100h-291l29 211h545l-51 -364q-39 -20 -73 -46t-62.5 -65t-49 -93.5t-31.5 -129.5q-8 -64 1.5 -109.5t34 -75t59.5 -43.5q36 -14 75 -14q53 0 90.5 16t64.5 42.5t44.5 61.5t30 73t18.5 77q5 39 10 75 q12 73 16 131t-6 105.5t-40.5 83.5t-88.5 64l30 211h579l-30 -211h-246q39 -25 68.5 -68t46 -96.5t20.5 -117t-4 -130.5q-17 -119 -60.5 -219t-118.5 -172.5t-185.5 -112.5t-262.5 -40q-130 0 -227.5 31.5t-158.5 91.5t-85.5 145t-9.5 190z" />
<glyph unicode="&#xe0b;" horiz-adv-x="1419" d="M150 966l31 211l201 -137l174 108h259l-59 -406q-33 -16 -66.5 -35.5t-62 -51.5t-50 -82t-32.5 -128q-8 -60 3 -104.5t35 -73.5t58.5 -44t74.5 -15q53 0 90.5 16t64.5 42.5t45 61.5t30 73t19 77q5 39 11 75q11 73 15 131t-6.5 105.5t-40 83.5t-88.5 64l31 211h578 l-31 -211h-246q41 -25 70 -68t45.5 -96.5t21 -117t-5.5 -130.5q-17 -119 -60 -219t-118.5 -172.5t-185.5 -112.5t-263 -40q-130 0 -227 33t-158 92t-85.5 142.5t-10.5 185.5q9 57 27.5 102t43.5 82t55 64.5t60.5 49t59.5 37t53 26.5l20 142l-177 -114z" />
<glyph unicode="&#xe0c;" horiz-adv-x="2051" d="M103 0l103 734q14 94 46 163.5t76.5 117.5t100 78t116.5 47.5t126.5 23.5t126.5 6q62 0 125.5 -6t120.5 -23.5t104 -47.5t79 -78t44 -117q13 -70 -1 -164l-51 -353q3 -33 15.5 -64t35.5 -54.5t55 -37.5t73 -14q36 0 69 10t58.5 29.5t42.5 50t22 72.5l109 775h330 l-111 -785q-14 -98 -52 -169.5t-95 -118t-130 -69.5t-154 -23q-111 0 -183 43.5t-120 122.5l-19 -149h-328l100 723q8 58 4 98.5t-16.5 67t-31.5 41.5t-40.5 23.5t-42 10.5t-40.5 2q-18 0 -39.5 -2t-45 -10.5t-47.5 -23.5t-44 -41.5t-36 -67.5q-16 -40 -24 -98l-70 -498h167 l-31 -225h-497z" />
<glyph unicode="&#xe0d;" horiz-adv-x="1983" d="M114 0l103 734q14 94 44.5 163.5t75 117.5t99.5 78t115.5 47.5t124 23.5t127.5 6q63 0 125 -6t119 -23.5t102.5 -47.5t76.5 -78t43.5 -117.5t-1.5 -163.5l-34 -236q-5 -34 -3 -66t15 -57t41 -40t77 -15q57 0 91.5 16.5t54 42t28 57t10.5 62.5l92 650h331l-147 -1052 q-14 -95 -59.5 -171.5t-119.5 -130.5t-177 -84t-231 -30h-44.5t-61.5 1.5t-74 6.5t-83 15.5t-86 27.5q-43 16 -85 44l35 250q42 -36 87 -59.5t87 -38.5t80.5 -21t69.5 -8t53 -1.5t30 0.5q56 0 100 16t75 44.5t50 69t26 90.5l5 44q-47 -29 -100 -45t-114 -16q-111 0 -189 25 t-126.5 73.5t-66 118t-4.5 157.5l36 249q8 58 3 98.5t-16.5 67t-31 41.5t-39.5 23.5t-40.5 10.5t-36.5 2q-17 0 -38.5 -2t-44.5 -10.5t-45 -23.5t-43 -41.5t-36 -67.5q-16 -40 -24 -98l-70 -498h167l-30 -225h-498z" />
<glyph unicode="&#xe0e;" horiz-adv-x="1437" d="M33 0l31 225h167l72 509q14 94 44.5 163.5t75 117.5t99.5 78t117 47.5t127 23.5t132 6q65 0 130 -6t122 -23.5t103.5 -47.5t77 -78t42 -117.5t-1.5 -163.5l-162 -1150h-422q-14 17 -32 31t-40.5 24.5t-51.5 17.5t-67 7q-23 0 -52.5 -4.5t-62.5 -15.5t-70 -30 q-38 -20 -75 -53l28 190q20 14 50.5 28.5t68 26t77.5 19.5t77 8q45 0 83.5 -7t70.5 -20t58.5 -33t49.5 -48l141 998q8 54 4.5 93.5t-15.5 66t-29 43t-38.5 25.5t-45.5 12t-46 3t-47 -3t-48.5 -12t-46 -25.5t-41 -43t-33.5 -66.5t-22 -93l-101 -723h-498z" />
<glyph unicode="&#xe0f;" horiz-adv-x="1437" d="M33 0l32 225h166l72 509q14 94 44.5 163.5t75 117.5t100 78t117 47.5t127.5 23.5q64 6 131 6q65 0 130 -6t122 -23.5t104 -47.5t77.5 -78t41.5 -117.5t-1 -163.5l-163 -1151h-422q-9 17 -25 30.5t-34.5 23t-39.5 14t-40 4.5q-22 0 -48.5 -5.5t-53 -18t-50 -34.5 t-41.5 -56l-347 92l25 177l309 -87q19 24 43.5 43.5t54.5 34t64.5 22t71.5 7.5q77 0 134 -30.5t88 -91.5l142 1015q8 54 4 93.5t-15.5 66t-29.5 43t-40 25.5t-44.5 12t-44.5 3t-45.5 -3t-47.5 -12t-46 -25.5t-41.5 -43t-34.5 -66.5q-13 -40 -21 -93l-103 -723h-498z" />
<glyph unicode="&#xe10;" horiz-adv-x="1171" d="M81 -281l22 170l150 -86q17 23 40.5 43.5t50 34t55 21.5t58.5 8q32 0 60.5 -9t51.5 -26t40 -39t25 -49l17 113h328l-34 -239h-421q-6 36 -34.5 54t-66.5 18q-19 0 -39 -5t-40 -18t-40 -34.5t-37 -54.5zM150 801l35 244q119 53 241.5 82t251.5 29h611l-30 -211h-236 q19 -16 34.5 -40t25.5 -58.5t11 -82t-7 -107.5l-92 -657h-331l34 234q-10 61 -30 105.5t-47 72t-60.5 40t-69.5 12.5q-31 0 -55.5 -4t-46.5 -15l36 244q25 6 62 9t83 -6q69 -11 111 -38q42 -26 65 -73l21 154q9 41 4.5 78.5t-26.5 65t-64 44.5t-106 17q-44 0 -97 -7 t-108.5 -24t-111 -43t-108.5 -65z" />
<glyph unicode="&#xe11;" horiz-adv-x="1440" d="M146 965l29 205l189 -146l195 124h247l-19 -139q47 38 88 66.5t80.5 48t80.5 29.5q43 10 90 10q82 0 134 -22.5t80 -70.5t33.5 -121t-8.5 -173l-110 -776h-329l116 833q6 41 -6.5 60t-45.5 19q-18 0 -45.5 -14t-60 -37.5t-69.5 -55.5t-71.5 -68t-68 -73.5t-58.5 -72.5 t-41.5 -67t-19.5 -57l-67 -467h-331l56 400q8 61 26.5 107t42 79.5t50 58.5t51.5 44l125 99l21 152l-192 -123z" />
<glyph unicode="&#xe12;" horiz-adv-x="2136" d="M103 0l161 1148h303l245 -219l311 219h303l-108 -767q2 -33 13.5 -64t33 -54.5t52.5 -37.5t73 -14q36 0 68 10t55.5 29.5t39.5 49.5q18 31 23 73l109 775h329l-110 -785q-14 -98 -51.5 -169.5t-93 -118t-126.5 -69.5q-73 -23 -154 -23q-56 0 -99.5 11.5t-79 32 t-64.5 51.5q-29 30 -52 69l-19 -147h-331l120 853l-251 -169h-52l-196 169l-99 -695q36 20 67.5 43.5t55 46t39.5 43t24 37.5q11 21 13 36t-3.5 25.5t-16.5 15.5q-12 6 -26 6l83 159q25 -1 51.5 -7.5t48.5 -17.5q25 -13 45.5 -33t28.5 -49t2 -69t-34 -91q-25 -47 -66 -93 t-93 -85.5t-113.5 -72.5t-127.5 -52h-331z" />
<glyph unicode="&#xe13;" horiz-adv-x="2004" d="M103 0l103 734q14 94 46 163.5t76.5 117.5t100 78t116.5 47.5t126.5 23.5t126.5 6q62 0 125.5 -6t120.5 -23.5t104 -47.5t79 -78t44 -117q13 -70 -1 -164l-51 -361q-6 -42 2 -72.5t28 -50t50 -29.5t66 -10q85 0 142.5 46t84.5 124l107 767h330l-161 -1148h-328l20 149 q-34 -39 -71.5 -69.5t-80.5 -52t-91.5 -33t-104.5 -11.5q-81 0 -147.5 23t-109.5 69.5t-62 118t-5 169.5l49 360q8 58 4 98.5t-16.5 67t-31.5 41.5t-40.5 23.5t-42 10.5t-40.5 2q-18 0 -39.5 -2t-45 -10.5t-47.5 -23.5t-44 -41.5t-36 -67.5q-16 -40 -24 -98l-70 -498h167 l-31 -225h-497z" />
<glyph unicode="&#xe14;" horiz-adv-x="1442" d="M103 0l103 734q14 93 46 162t79.5 117t107 78.5t126 47.5t137.5 24t143 7q70 0 139.5 -7t131 -23.5t112.5 -47.5t85.5 -79t48.5 -117t0 -162l-104 -734h-329l100 723q8 54 3 93.5t-19.5 66t-36.5 43t-48.5 25.5t-55.5 12q-27 3 -54.5 3t-57.5 -3t-58.5 -12t-55.5 -25.5 t-49.5 -43t-38.5 -66.5t-24 -93l-78 -551q53 34 93 68.5t68.5 68.5t44.5 64.5t20 54.5q6 45 -11.5 58.5t-46.5 4.5l24 169q23 9 47.5 11.5t57.5 1.5q31 -2 59 -11.5t46.5 -32t26 -59t0.5 -92.5q-9 -67 -48 -132t-100 -126.5t-138.5 -117t-162.5 -102.5h-333z" />
<glyph unicode="&#xe15;" horiz-adv-x="1451" d="M103 0l161 1148h303l243 -219l313 219h303l-161 -1148h-331l120 853l-252 -169h-51l-198 169l-97 -695q36 20 67.5 43.5t54 46t39.5 43t25 37.5q11 21 12.5 36t-4 25.5t-16.5 15.5q-11 6 -25 6l83 159q24 -1 51 -7.5t49 -17.5q25 -13 44.5 -33t28 -49t2.5 -69 q-5 -40 -33 -91q-25 -47 -66 -93t-93 -85.5t-113.5 -72.5t-127.5 -52h-331z" />
<glyph unicode="&#xe16;" horiz-adv-x="1381" d="M103 0l161 1148l548 11q66 2 131.5 -4.5t124 -24.5t106.5 -50t80 -82t43.5 -121t-0.5 -165l-100 -712h-330l98 701q11 82 -3 130.5t-42.5 74t-65.5 32.5t-73 4l-217 -9l-100 -708h167l-31 -225h-497z" />
<glyph unicode="&#xe17;" horiz-adv-x="1395" d="M103 0l161 1148h331l-82 -575q-1 -9 -3.5 -20t-6 -26t-6 -32t-6.5 -34q-9 -38 -18 -83q25 36 48 70q11 13 21.5 29t22.5 31.5t22.5 30t21.5 25.5l470 584h294l-161 -1148h-329l82 591q5 39 13.5 78t15.5 70q8 39 18 73q-20 -39 -40 -75q-9 -16 -19.5 -33t-20 -32.5 t-19 -30t-19.5 -25.5l-508 -616h-283z" />
<glyph unicode="&#xe18;" horiz-adv-x="1276" d="M113 75l57 403h330l-36 -250q46 -14 94 -19t87 -5q50 0 89.5 8t69.5 23t48 40t24 61q5 39 -11 67t-51.5 48t-88 36t-123.5 34q-56 14 -110 29.5t-101.5 34t-85.5 43.5t-64.5 58t-37.5 75t-3 98q11 82 53.5 141t113.5 96.5t170 55.5q97 18 222 18q78 0 153 -12.5 t137.5 -28.5t107.5 -32q47 -16 66 -27l-36 -247q-119 57 -237.5 91t-223.5 40q-37 2 -73 -0.5t-66 -11t-48 -20.5q-19 -13 -22 -30q-3 -27 22 -45.5t71 -35t110 -33t136 -39.5q98 -27 171.5 -57.5t119.5 -74t64 -104.5t4 -153q-10 -69 -37 -123.5t-68.5 -96t-94.5 -70.5 t-112 -47.5t-122.5 -26.5t-124.5 -8q-117 0 -210 11t-161 26.5t-112 32t-60 27.5z" />
<glyph unicode="&#xe19;" horiz-adv-x="1394" d="M161 413l104 734h330l-100 -722q-9 -61 1.5 -102.5t34.5 -68t56.5 -37.5t65.5 -11q39 0 81.5 14.5t80.5 41.5t70 63t52 78l105 744h330l-161 -1147h-328l23 164q-47 -50 -97 -85.5t-100 -58.5t-101.5 -32.5t-104.5 -9.5q-80 0 -149.5 26.5t-117 80t-69.5 135.5t-6 193z " />
<glyph unicode="&#xe1a;" horiz-adv-x="1380" d="M161 250q-14 70 0 164l104 734h330l-100 -709q-9 -55 -4 -94t18.5 -66t32 -44t41.5 -26t48 -11.5t47 -2.5q34 0 73.5 7.5t75 33t63 73.5t39.5 130l100 709h330l-104 -734q-14 -94 -45 -163.5t-77 -118.5t-103 -79.5t-120 -47t-130 -22.5q-66 -5 -132 -5q-67 0 -132.5 5.5 t-123.5 23t-106 47t-80 78.5t-45 118z" />
<glyph unicode="&#xe1b;" horiz-adv-x="1380" d="M143.5 250.5q-12.5 69.5 1.5 163.5l102 734h331l-100 -709q-8 -55 -4 -94t17.5 -66t32.5 -44t42 -26t48 -12q25 -2 48 -2q33 0 72 7.5t75 33t64 73.5t39 130l169 1201h330l-174 -1226q-14 -94 -45 -163.5t-76.5 -118.5t-102.5 -79.5t-120 -47t-130.5 -22t-132.5 -5.5 q-67 0 -131.5 5.5t-123 23t-107 47t-80.5 78.5t-44.5 118.5z" />
<glyph unicode="&#xe1c;" horiz-adv-x="1448" d="M103 0l161 1148h498l-32 -225h-166l-75 -523l270 337h50l181 -337l105 748h331l-161 -1148h-289l-237 425l-344 -425h-292z" />
<glyph unicode="&#xe1d;" horiz-adv-x="1498" d="M86 0l161 1148h498l-33 -225h-166l-73 -523l293 337h51l206 -337l174 1240h329l-229 -1640h-289l-260 425l-371 -425h-291z" />
<glyph unicode="&#xe1e;" horiz-adv-x="1729" d="M131 1148h339l86 -648l331 648h197l148 -648l266 648h341l-549 -1148h-195l-178 656l-364 -656h-193z" />
<glyph unicode="&#xe1f;" horiz-adv-x="1662" d="M115 1148h341l85 -648l332 648h197l148 -648l378 1079h332l-621 -1579h-228l-177 656l-364 -656h-193z" />
<glyph unicode="&#xe20;" horiz-adv-x="1437" d="M17 0l33 225h165l73 509q14 94 44.5 163.5t74 117.5t99.5 78t117 47.5t127.5 23.5t132 6t129.5 -6t121 -23.5t104 -47.5t78 -78t42 -117.5t-2 -163.5l-104 -734h-328l100 723q8 54 5.5 93.5t-13.5 66t-29.5 43t-40 25.5t-44.5 12q-25 3 -48 3q-22 0 -46 -3t-48 -12 t-46 -25.5t-41 -43t-33 -66.5q-13 -40 -22 -93l-103 -723h-497z" />
<glyph unicode="&#xe21;" horiz-adv-x="1394" d="M104 0l161 1148h330l-104 -745q8 -42 29.5 -78t52 -62.5t68 -41.5t76.5 -15q34 0 70.5 11t68 37.5t53.5 68t31 102.5l102 723h330l-104 -734q-17 -111 -60 -193t-105.5 -136t-139.5 -81q-79 -26 -160 -26q-52 0 -99.5 10.5t-92 33t-83.5 57.5t-72 85l-24 -164h-328z" />
<glyph unicode="&#xe22;" horiz-adv-x="1348" d="M125 386q8 57 32 102.5t55 76t65 48.5t62 24q-35 11 -64.5 36t-50.5 59.5t-28 78.5t4 93q13 54 44 102t77 84t105 57q58 21 124 21q34 0 66 -1.5t64.5 -8t66 -18t68.5 -31.5l-28 -203q-23 17 -43 26.5t-37.5 15.5t-32.5 7t-32 1q-25 0 -46 -9.5t-36 -25t-23 -35.5 q-9 -21 -12 -41q-2 -26 2 -50.5t20.5 -44t47.5 -32.5t78 -15h16.5t22.5 1.5t23.5 2.5t23.5 2l-22 -153q-50 0 -97.5 -9t-85.5 -28.5t-64 -51.5t-33 -78q-8 -53 6 -89.5t41 -59.5t64.5 -34t76.5 -11q33 0 73 7.5t75 33t63 73.5t39 130l100 709h331l-104 -734 q-14 -94 -45.5 -163.5t-77 -118.5t-102.5 -79.5t-119.5 -47t-130.5 -22.5q-66 -5 -133 -5q-119 0 -216.5 20.5t-163.5 68.5t-95 127q-31 78 -14 192z" />
<glyph unicode="&#xe23;" horiz-adv-x="1031" d="M72 50l36 253q75 -47 159.5 -73t182.5 -26q39 0 72.5 5t58 15.5t39.5 27.5q17 18 19 41q6 34 -15 58t-57 45.5t-83.5 42t-96 44.5t-94.5 54t-79 69t-50 90.5t-7 119.5q11 79 53.5 144.5t108.5 112t154.5 72t189.5 25.5q53 0 98 -4t87 -13t80.5 -23.5t79.5 -38.5l-35 -246 q-50 40 -101.5 64.5t-97.5 37.5t-86 18t-65 5q-17 0 -40.5 -4t-45 -14t-39.5 -28q-17 -18 -20 -48q-3 -25 17.5 -46t57 -40.5t82.5 -40.5t94.5 -47t94.5 -58t78.5 -74t48.5 -95.5t8 -122.5q-12 -89 -52 -159.5t-104 -117.5t-151.5 -72t-194.5 -25q-66 0 -128 7t-113.5 18 t-89 23.5t-54.5 23.5z" />
<glyph unicode="&#xe24;" horiz-adv-x="1381" d="M120 0l161 1148l547 11q67 2 131.5 -4.5t123 -24.5t106.5 -50t80 -82t44.5 -121t-1.5 -165l-164 -1169h-329l162 1158q9 54 4.5 93.5t-17 67.5t-32 44t-43 25t-47.5 11q-26 2 -48 0l-217 -9l-100 -708h167l-32 -225h-496z" />
<glyph unicode="&#xe25;" horiz-adv-x="1277" d="M75 261q10 70 44 125.5t88 100t126.5 80.5t158.5 66.5t185 55.5t204 48q9 40 9 79t-18.5 69.5t-61.5 49.5t-118 19q-53 0 -115.5 -12.5t-127.5 -38t-129 -64t-120 -91.5l40 283q134 67 272 103q139 36 283 36q109 0 195 -19.5t142 -61t81 -107.5q24 -65 12 -159 l-116 -823h-331l78 556q-94 -22 -171.5 -46.5t-134.5 -53.5t-91 -64.5t-39 -77.5q-3 -25 4.5 -47t23.5 -38t37 -25t44.5 -9t52.5 5q30 6 57 17l-25 -170q-75 -36 -140 -51t-131 -15t-119 23.5t-88.5 62.5t-52 89.5t-8.5 104.5z" />
<glyph unicode="&#xe26;" horiz-adv-x="1437" d="M33 0l32 225h166l72 509q14 94 44.5 163.5t75 117.5t100 78t117 47.5t127.5 23.5q64 6 131 6q65 0 130 -6t122 -23.5t104 -47.5t77.5 -78t41.5 -117.5t-2 -163.5l-167 -1191h-330l166 1180q8 54 5 93.5t-14.5 66t-29 43t-39.5 25.5t-46 12t-46 3t-47 -3t-48.5 -12 t-46 -25.5t-40.5 -43t-33 -66.5q-13 -40 -21 -93l-103 -723h-498z" />
<glyph unicode="&#xe27;" horiz-adv-x="1050" d="M44 61l35 248q31 -23 66.5 -38t71.5 -26t73 -15.5t70 -4.5q70 0 126 26.5t98.5 74t69.5 111t38 138.5q11 84 3 151.5t-38 114t-79.5 71.5t-121.5 25q-25 0 -60 -4t-75 -13.5t-86 -24.5q-46 -17 -96 -39l33 231q39 21 86.5 37t94.5 27t93 16.5t82 5.5q142 0 247.5 -41 t171 -117.5t90.5 -187t5 -249.5q-18 -128 -72.5 -237.5t-141 -189.5t-200.5 -126t-250 -46q-47 0 -86 3.5t-78 13.5t-79 25t-91 40z" />
<glyph unicode="&#xe28;" horiz-adv-x="1405" d="M103 0l101 720q14 93 46 161t78.5 116t104.5 79.5t122.5 49t132.5 24t136 6.5h21h670l-29 -211h-232q14 -14 29 -37.5t25 -55.5t13 -73q4 -40 -3 -90l-98 -689h-329l99 709q8 54 4 93.5t-18 66t-35 43.5t-44.5 26t-50 11.5t-50.5 2.5q-25 0 -52 -3.5t-53.5 -11.5 t-51.5 -25t-46.5 -44t-37.5 -66.5t-23 -93.5l-20 -155q45 61 95 94q52 33 107 33q21 0 40 -6.5t35.5 -16t30.5 -20.5t25 -23l-94 -232q-28 28 -54.5 37t-50.5 9q-16 0 -37.5 -8.5t-44.5 -25.5t-47 -46q-22 -28 -44 -70l-39 -278h-331z" />
<glyph unicode="&#xe29;" horiz-adv-x="1380" d="M159.5 250.5q-12.5 69.5 1.5 163.5l103 734h331l-100 -709q-9 -55 -4.5 -94t17 -66t32 -44t42.5 -26t47 -11.5t48 -2.5q22 0 48 2.5t51 11.5t49 26t44.5 44t35.5 66t24 94l20 156h-146l9 58l527 524h23l-50 -368h124l-31 -214h-126l-25 -181q-14 -94 -45.5 -163.5 t-76.5 -118.5t-102 -79.5t-121 -47t-130.5 -22t-132.5 -5.5t-131 5.5t-123 23t-107 47t-81 78.5t-44.5 118.5z" />
<glyph unicode="&#xe2a;" horiz-adv-x="1292" d="M75 261q10 70 44 124t88 97t126.5 78t158.5 63.5t184 52.5q100 25 205 47q9 44 4 83t-26.5 69.5t-62.5 47.5t-105 17q-53 0 -115.5 -10.5t-127 -33.5t-128.5 -60q-64 -35 -120 -88l39 269q134 67 271.5 103t281.5 36h611l-30 -211h-228q11 -10 25 -32.5t24 -58t14 -79.5 t-3 -94l-96 -681h-331l78 542q-94 -22 -172 -44.5t-134.5 -48.5t-90.5 -59.5t-39 -75.5q-3 -25 4.5 -47t23.5 -38t37 -25t44.5 -9t53 5.5t56.5 16.5l-23 -170q-75 -36 -141 -51t-130 -15q-67 0 -120 23.5t-89 62.5t-52 89q-17 51 -9 105z" />
<glyph unicode="&#xe2b;" horiz-adv-x="1395" d="M103 0l161 1148h331l-75 -531q-3 -14 -5.5 -33.5t-7 -39.5t-8.5 -41.5t-10 -41.5q-8 -47 -19 -94q22 47 53 100q26 45 65 102t92 118l399 461h336l-356 -400q50 -15 92 -44.5t70.5 -79t38.5 -120.5q10 -73 -3 -173l-48 -331h-328l53 378q6 36 3 63t-10 48t-19.5 35.5 t-26.5 23.5l-489 -548h-289z" />
<glyph unicode="&#xe2c;" horiz-adv-x="1585" d="M131 1148h322l43 -689l239 319h160l147 -319l87 233q22 64 13 108.5t-37.5 74.5t-73 44t-93.5 14q-28 0 -53.5 -3.5t-57.5 -9.5l29 209q25 5 47.5 8t43 5.5t43.5 4t50 1.5h550l-30 -210h-171q22 -21 35 -53t16 -73.5t-6 -93t-31 -112.5l-230 -606h-194l-206 478 l-341 -478h-193z" />
<glyph unicode="&#xe2d;" horiz-adv-x="1346" d="M121 135l74 525h487l-29 -212h-155l-32 -224q30 -14 74 -24q44 -8 108 -5q47 2 86 19t70 43.5t54 61t40 75t28 83.5t16 86q3 24 6.5 53t4.5 60.5t-3.5 63t-15.5 61.5t-29 56.5t-48.5 46t-72.5 30.5t-97 11q-53 0 -113.5 -7t-121.5 -20.5t-121 -33t-113 -44.5l34 233 q47 21 105.5 38.5t123 30.5t132.5 20t133 7q155 0 266 -44t179 -121.5t93 -187.5t6 -243q-18 -130 -73 -239t-145.5 -188t-212.5 -123.5t-272 -44.5q-70 0 -141.5 12.5t-134 33t-112.5 48.5t-78 63z" />
<glyph unicode="&#xe2e;" horiz-adv-x="1349" d="M121 135l74 525h489l-31 -212h-155l-32 -224q30 -14 74 -24q44 -8 108 -5q72 4 123.5 36.5t86 83.5t55.5 114t29 127q5 31 8.5 71t0 82t-17 82t-44 70.5t-80.5 50t-125 19.5q-53 0 -112.5 -7t-121 -20.5t-121 -33t-112.5 -44.5l33 233q47 21 105.5 38.5t123 30.5 t133.5 21q69 7 133 7h687l-31 -211h-226q36 -28 61 -68t39.5 -90t18.5 -107t-4 -114q-18 -130 -73 -238t-145.5 -186t-212 -121t-272.5 -43q-70 0 -141 12.5t-134 33t-113 48.5t-78 63z" />
<glyph unicode="&#xe2f;" horiz-adv-x="1416" d="M211 795q11 81 48.5 148.5t93.5 116t124 75.5q71 27 143 27q31 0 57 -1.5t51 -5.5t49 -12.5t50 -22.5l-26 -193q-34 13 -57.5 17t-47.5 4q-11 0 -26 -3t-32.5 -9t-35.5 -17t-33.5 -29t-27 -44t-17.5 -61q-3 -16 -2 -36.5t5 -41t15 -40t30.5 -35t50 -25t73.5 -9.5 q31 0 64.5 5.5t68 16.5t68.5 27.5t63 40.5l66 460h329l-161 -1145h-329l66 474q-36 -24 -77.5 -39t-83.5 -25t-83 -12.5t-77 -2.5q-104 0 -184.5 26t-132 77.5t-73.5 126.5q-23 73 -9 167z" />
<glyph unicode="&#xe30;" horiz-adv-x="854" d="M67 131l47 332h299l-15 -107h376l-32 -225h-675zM147 706l48 334h300l-17 -107h378l-33 -227h-676z" />
<glyph unicode="&#xe31;" d="M-853 1304l47 336h300l-21 -144h619l-27 -192h-918z" />
<glyph unicode="&#xe32;" horiz-adv-x="928" d="M120 851l32 223q19 12 59.5 27t96.5 29t124 23t146 9q166 -3 237.5 -76.5t49.5 -225.5l-120 -860h-331l116 820q5 40 -4 66t-27 40t-41.5 18t-50.5 4q-22 0 -57.5 -7t-75.5 -19.5t-80.5 -30.5t-73.5 -40z" />
<glyph unicode="&#xe33;" horiz-adv-x="928" d="M-383.5 1523.5q5.5 47.5 30 88.5t59.5 72t78.5 48.5t90.5 17.5t86 -17.5t64.5 -48.5t37.5 -72t6.5 -88.5t-30 -88.5t-60 -71.5t-78.5 -48t-90 -17.5t-86 17.5t-65 48t-37.5 71.5t-6 88.5zM-225 1523q-3 -27 13.5 -47.5t44.5 -20.5q14 0 28 5t24.5 15t17.5 22q5 13 8 26 q4 28 -13.5 48.5t-44.5 20.5q-14 0 -27.5 -5t-23.5 -15t-17 -22.5t-10 -26.5zM100 851l31 223q19 12 59.5 27t96 29t125 23t144.5 9q165 -3 238 -76q73 -74 51 -226l-122 -860h-330l116 820q5 40 -3 66t-26.5 40t-43.5 18t-50 4q-22 0 -57.5 -7t-75 -19.5t-80 -30.5 t-73.5 -40z" />
<glyph unicode="&#xe34;" d="M-1109 1304l26 192h1093l-27 -192h-1092z" />
<glyph unicode="&#xe35;" d="M-1112 1304l26 192h764l26 197h329l-52 -389h-1093z" />
<glyph unicode="&#xe36;" d="M-1131 1304l27 192h701v7q0 2 1 6q2 3 2 6q8 45 31.5 85t58.5 69.5t77 45.5q44 17 88 17q48 0 86 -18t64.5 -48.5t38.5 -72.5t5 -88q-6 -47 -29 -84t-53.5 -63t-62.5 -40t-57 -14h-978zM-245 1505q-2 -27 14.5 -47.5t44.5 -20.5q14 0 27 5.5t23.5 14.5t17.5 21.5t10 26.5 q4 28 -13.5 48t-45.5 20q-14 0 -27.5 -5.5t-23.5 -14.5t-17 -21.5t-10 -26.5z" />
<glyph unicode="&#xe37;" d="M-1112 1304l26 192h359l26 196h294l-27 -196h148l27 196h292l-52 -388h-1093z" />
<glyph unicode="&#xe38;" d="M-673 -332l25 190h426l-53 -375h-295l28 185h-131z" />
<glyph unicode="&#xe39;" d="M-1037 -332l25 190h353l-19 -114q-3 -14 -1.5 -27t8.5 -23t21.5 -16t40.5 -6q28 0 43.5 6t25 16t12.5 23t5 27l14 114h287l-20 -143q-8 -67 -32.5 -111.5t-64.5 -71.5t-96.5 -38t-128.5 -11h-139q-39 0 -79.5 9.5t-71 30t-48.5 51t-15 72.5l2 22h-122z" />
<glyph unicode="&#xe3a;" d="M-574.5 -292q5.5 36 24.5 69.5t45.5 57t61 37.5t70.5 14q37 0 67.5 -14t51 -37.5t30.5 -56.5q10 -34 4.5 -70t-24.5 -68t-46 -55.5t-61.5 -37.5t-71.5 -14q-36 0 -66.5 14t-51.5 37.5t-30 55.5t-3.5 68z" />
<glyph unicode="&#xe3d;" />
<glyph unicode="&#xe3e;" />
<glyph unicode="&#xe3f;" horiz-adv-x="1390" d="M113 0l191 1362h427l20 143h180l-19 -143q110 0 185.5 -25t121.5 -68t62.5 -98.5t7.5 -118.5q-6 -47 -25 -90t-48 -79t-68 -64.5t-85 -48.5q82 -22 132 -63t76.5 -91t32 -106.5t-2.5 -109.5q-4 -30 -17.5 -72t-39.5 -86.5t-66.5 -87.5t-97.5 -77.5t-131 -55.5 q-76 -21 -171 -21h-58l-31 -217h-180l30 217h-426zM428 236h145l51 362h-144zM513 834h144l41 292h-145zM753 236q70 0 117 16t76.5 42t43.5 60q14 35 19 71q6 38 -5.5 69t-37 54t-62.5 36.5t-81 13.5h-20zM837 835q41 5 72 21.5t51.5 38.5t31 48t13.5 45q3 21 -0.5 44.5 t-17.5 44t-40.5 34.5t-68.5 15z" />
<glyph unicode="&#xe40;" horiz-adv-x="617" d="M103 0l161 1148h331l-161 -1148h-331z" />
<glyph unicode="&#xe41;" horiz-adv-x="1164" d="M103 0l161 1148h331l-161 -1148h-331zM651 0l161 1148h331l-162 -1148h-330z" />
<glyph unicode="&#xe42;" horiz-adv-x="683" d="M47 1432q16 84 59.5 147.5t106 104.5t142 61t165.5 20q54 0 103.5 -9.5t91 -25t75 -33.5t55.5 -32l-93 -155q-65 38 -121.5 52t-100.5 14q-60 0 -104.5 -22t-72.5 -65q20 -9 45 -22.5t51 -38.5t50.5 -62t40.5 -88.5t21 -119.5t-8 -154l-108 -779h161l-32 -225h-485 l142 1004q11 86 9 150t-15.5 109.5t-34 75t-45 49t-50 29t-48.5 15.5z" />
<glyph unicode="&#xe43;" horiz-adv-x="683" d="M53 1436q5 55 24.5 103t50 85.5t71 65.5t85 46t93 28t96.5 10q77 0 134 -14t97.5 -37.5t66 -55.5t39 -69.5t15 -78t-4.5 -82.5q-44 -28 -79 -53.5t-61.5 -57t-48 -70t-39 -94.5t-31 -131t-27.5 -175l-89 -631h161l-32 -225h-485l117 823q14 94 30.5 166.5t38.5 129.5 t50 101.5t61.5 82t71.5 71t84 66.5q4 25 -2 50.5t-21.5 46t-39 33t-51.5 12.5q-25 0 -53.5 -5.5t-54 -22.5t-45 -44.5t-25.5 -73.5h-197z" />
<glyph unicode="&#xe44;" horiz-adv-x="683" d="M19 1540l119 216q47 -37 92 -57t84.5 -29.5t71 -11t48.5 -1.5q12 0 45.5 0.5t79.5 9.5t100.5 28.5t110.5 58.5l83 -225q-40 -21 -74 -42t-62.5 -50.5t-53.5 -71.5t-46.5 -103t-39.5 -146t-35 -201l-97 -690h162l-32 -225h-483l126 909q11 78 23 140.5t28 114t36 94.5 t48.5 80.5t65.5 73.5t84 73q-40 -20 -86.5 -25t-88.5 -5q-36 0 -75 5t-79.5 15t-79 26.5t-75.5 38.5z" />
<glyph unicode="&#xe45;" horiz-adv-x="928" d="M136 851l31 223q19 12 59.5 27t96.5 29t125 23t146 9q165 -3 237.5 -76.5t49.5 -225.5l-186 -1319h-329l179 1279q5 40 -3 66t-26 40t-43 18t-50 4q-23 0 -57.5 -7t-75 -19.5t-80.5 -30.5t-74 -40z" />
<glyph unicode="&#xe46;" horiz-adv-x="1316" d="M164 489l93 659h318l178 -208l239 208h317l-159 -1140q-12 -75 -36 -134.5t-59 -106t-76.5 -82t-87.5 -63.5t-94.5 -49t-93.5 -37l-80 222q28 7 60.5 23.5t62.5 44.5t53.5 68.5t31.5 95.5l123 877l-231 -203h-14l-189 203l-53 -378h-303z" />
<glyph unicode="&#xe47;" d="M-955 1537l1 10q12 72 46 118.5t87.5 74.5t121.5 38t146 10h592l-25 -173h-570q-19 0 -40 -2t-39 -9.5t-32 -22t-17 -41.5v-5q-3 -21 4 -34.5t18 -20.5t23.5 -9.5t18.5 -2.5h33q50 0 85 21t52 48h91q11 -25 26.5 -38.5t36.5 -20.5t48.5 -8.5t64.5 -1.5h6q24 0 46.5 2.5 t44.5 7.5t43 14t43 24l-25 -182q-22 -16 -44.5 -26t-44.5 -15.5t-42.5 -7t-35.5 -1.5h-50q-33 0 -62.5 11.5t-53 29.5t-40 40t-25.5 46q-13 -24 -37 -46t-52.5 -40t-61.5 -29.5t-68 -11.5h-39q-159 0 -225.5 64t-48.5 189z" />
<glyph unicode="&#xe48;" d="M-242 1831l50 361h298l-50 -361h-298z" />
<glyph unicode="&#xe49;" d="M-477 1865l16 114q41 10 63.5 31.5t24.5 49.5q3 19 -4.5 31.5t-20.5 21t-30 10.5q-17 1 -32 1l12 113q25 8 65.5 14t90.5 6q45 0 77 -13.5t51 -34.5t27 -46t5 -47q-3 -21 -11.5 -40t-18 -33t-20 -25t-18.5 -16h19.5h15.5h13.5h13.5q32 2 68.5 6.5t74.5 11.5t79 19.5 t84 34.5l-23 -164q-48 -25 -121.5 -46t-169.5 -29q-60 -6 -106.5 -6t-84.5 4.5t-72 11.5q-33 9 -68 20z" />
<glyph unicode="&#xe4a;" d="M-658 1998q-1 23 2 43q5 45 29 85t60 67.5t80.5 43t95.5 12.5q30 -3 59.5 -15.5t47.5 -28.5q23 16 56 28.5t65 15.5q50 3 91 -8t67.5 -35t39 -57t7.5 -75q-4 -29 -16 -55t-29 -37q22 4 50 14t57 24.5t58.5 32.5t52.5 40l-23 -164q-39 -27 -79.5 -45.5t-82 -29.5 t-85.5 -16t-88 -6h-37.5t-39 2t-35 4t-24.5 5l14 100q47 -7 77 15q30 21 38 74q5 39 -7.5 58.5t-31.5 19.5q-21 0 -39 -18t-24 -49h-116q4 31 -7 49t-34 18q-19 0 -35 -19.5t-22 -58.5q-8 -54 16.5 -75t74.5 -14l-14 -97q-14 -7 -39 -12t-47 -5q-43 0 -74 10.5t-51.5 28 t-33 39t-18 45t-6.5 46.5z" />
<glyph unicode="&#xe4b;" d="M-368 1967l23 174h159l18 136h285l-20 -136h159l-25 -174h-156l-19 -136h-287l20 136h-157z" />
<glyph unicode="&#xe4c;" d="M-311 1849q11 72 54 124t108.5 86t146 51.5t166.5 20.5l-21 -143q-101 -9 -156 -39q-54 -31 -62 -86q-3 -20 6 -33t23.5 -21t31.5 -12t28 -4l-21 -142q-76 -2 -136 7.5t-100.5 34t-58.5 64t-9 92.5z" />
<glyph unicode="&#xe4d;" d="M-430.5 1498.5q5.5 47.5 29.5 88.5t59.5 72t78.5 48.5t90.5 17.5t86.5 -17.5t64.5 -48.5t37.5 -72t6.5 -88.5t-30 -88.5t-60 -71.5t-78.5 -48t-90.5 -17.5t-86 17.5t-64.5 48t-37.5 71.5t-6 88.5zM-272 1498q-5 -27 12.5 -47.5t45.5 -20.5q14 0 27 5t23.5 15t18.5 22 q6 13 9 26q4 28 -13.5 48.5t-45.5 20.5q-13 0 -26.5 -5t-24 -15t-17.5 -22.5t-9 -26.5z" />
<glyph unicode="&#xe4e;" d="M-375 1507q5 36 20.5 66.5t39.5 55t54 41.5t64 26q-37 47 -27 122q7 52 30 90.5t57 67t76 47t89 29.5t96.5 13.5t96.5 1.5l-19 -140q-39 0 -76 -3.5t-67 -15.5t-50 -35.5t-26 -64.5q-2 -18 6 -31.5t22 -22t33.5 -14t38.5 -7.5l-11 -115q-50 -4 -91.5 -9t-72 -16t-50 -28 t-22.5 -44q-3 -20 9 -34t30 -22t36.5 -11t30.5 -4l-20 -142q-67 -8 -124.5 1.5t-98.5 35.5t-62 66t-12 96z" />
<glyph unicode="&#xe4f;" horiz-adv-x="1337" d="M100.5 410q-10.5 75 0.5 157q12 81 44.5 157.5t81 141.5t112 119.5t136.5 93.5t153.5 59.5t163.5 20.5q84 0 158 -20.5t136 -59.5t109.5 -93.5t78 -119.5t41.5 -141q11 -77 0 -158t-44 -156.5t-81.5 -141.5t-111.5 -120t-135.5 -92.5t-153 -60t-163.5 -21.5 q-84 0 -159 21.5t-137 60t-110 92.5t-78.5 120t-41 141zM303 573q-12 -87 9.5 -163t68.5 -133t116 -91q70 -33 154 -33q55 0 109.5 15t103 42.5t91 65.5t75 85.5t54.5 100t31 111.5q12 86 -9.5 163t-68.5 134t-116 90q-70 32 -154 32q-55 0 -109.5 -14.5t-103 -41.5t-91 -66 t-75 -85.5t-55 -100t-30.5 -111.5zM427 570q8 56 36.5 103t71.5 83t97.5 57t111.5 21q58 0 106 -21t80 -57t47 -83t9 -103q-9 -56 -37.5 -104t-71.5 -83t-97 -56q-52 -21 -110 -21t-106 21t-81 56t-49 83t-7 104zM616 570q-3 -22 2 -41.5t15.5 -33.5t26.5 -22.5t34 -8.5 q19 0 36.5 8.5t32.5 22.5t25 33.5t12.5 41.5t-1.5 41.5t-15 34t-26.5 23.5t-34.5 9q-20 0 -37 -9t-32 -23.5t-25 -34t-13 -41.5z" />
<glyph unicode="&#xe50;" horiz-adv-x="1616" d="M171 518q12 88 48.5 161.5t90.5 133.5t123.5 105t149 75t165.5 45.5t175 15.5q75 0 152 -12.5t148 -39t131.5 -68.5t101.5 -101.5t58.5 -138t3.5 -178.5q-14 -103 -55.5 -183t-101.5 -140t-133.5 -100t-151.5 -66.5t-157 -37.5t-148 -11q-95 0 -180 18t-156 50t-125 80 t-89 107.5t-49 131t-1 153.5zM516.5 396q6.5 -53 24.5 -92.5t45.5 -67.5t62.5 -44.5t72.5 -25t74.5 -8.5q67 0 129 25t113.5 72t87 115t47.5 155q11 78 -4 142t-52.5 110t-93.5 71.5t-125 25.5q-63 0 -125.5 -21.5t-114.5 -66t-89.5 -111t-48.5 -157.5q-10 -69 -3.5 -122z " />
<glyph unicode="&#xe51;" horiz-adv-x="1616" d="M133 61l31 213q61 -25 130 -44t136.5 -31.5t131.5 -19.5t115 -7q86 0 153 17t117 44t85.5 62.5t58 74.5t35.5 78q11 38 17 72q5 39 5 78.5t-9.5 75.5t-29 67.5t-52.5 55t-80.5 37t-111.5 13.5q-34 0 -68.5 -3t-66.5 -8t-59 -10q-26 -3 -43 -9l-28 -200h151l-28 -186h-464 l69 500q61 25 130 45.5t142.5 36.5t152.5 25q78 10 164 10q167 3 284.5 -37.5t188 -112t94 -171t6.5 -215.5q-17 -120 -82 -220t-171 -171t-248 -111q-141 -39 -313 -39q-74 0 -151 6t-149.5 18.5t-135 29.5t-107.5 36z" />
<glyph unicode="&#xe52;" horiz-adv-x="1616" d="M125 414l128 902h322l-122 -873q-7 -48 5.5 -87t38.5 -68t62.5 -51.5t76.5 -35.5t80 -19.5t74 -6.5t76.5 6.5t85 19.5t83.5 35.5t75 51.5t57 68t31 87l39 274l-302 -215l-307 243l42 292l304 -259l349 259h281l-86 -623q-11 -83 -51.5 -147t-99 -112.5t-132 -82 t-153.5 -54.5t-162 -30.5t-157 -9.5t-155 9.5t-155 30.5t-139 55t-110 82t-68 113q-22 63 -11 146z" />
<glyph unicode="&#xe53;" horiz-adv-x="1616" d="M183 205q-8 54 0 123l101 709h283l311 -267l390 267h283l-146 -1037h-324l101 717l-342 -226l-276 226l-52 -376q-6 -34 1 -52.5t24.5 -30t44.5 -14t64 -2.5l-33 -245q-70 0 -131.5 5.5t-113 18t-90.5 36.5t-62.5 60t-32.5 88z" />
<glyph unicode="&#xe54;" horiz-adv-x="1616" d="M149 520q16 119 81.5 220t173.5 174t255 113.5t328 40.5q86 0 169.5 -7t160 -19t139.5 -28q62 -16 106 -35l-29 -215q-61 26 -128.5 44.5t-137 31t-141 19t-140.5 6.5q-89 0 -159.5 -17t-123 -44t-89.5 -62.5t-61.5 -75t-38.5 -79.5q-14 -39 -19 -75q-6 -37 -1.5 -71.5 t16 -68.5t34 -64t56.5 -55t80 -43t107 -27q-59 39 -84 99t-16 124q5 42 28.5 82t65.5 72t101 52q58 19 135 19q48 0 89.5 -2.5t88.5 -12.5l-19 -146q-20 5 -39 8t-31 3q-32 0 -57.5 -12t-43.5 -30t-28 -39t-12 -39q-3 -19 -0.5 -44.5t20 -50t53 -44.5t99.5 -27l-4 -6 q100 11 182.5 28t146.5 36l-25 -189q-147 -47 -307 -66.5t-334 -21.5q-183 0 -313 41t-210 113.5t-110.5 172.5t-13.5 217z" />
<glyph unicode="&#xe55;" horiz-adv-x="1616" d="M154 520q14 103 63.5 190.5t130 157t192 116.5t247.5 68q-3 17 -4.5 34.5t1.5 35.5q7 47 32.5 88t65.5 72.5t89 49.5t102 18t97.5 -18t75 -49.5t44.5 -72.5t8 -88q-5 -39 -25 -74q92 -11 168.5 -29t126.5 -40l-29 -215q-61 26 -128.5 44.5t-138 31t-142 19t-140.5 6.5 q-89 0 -158.5 -17t-122.5 -44t-90.5 -62.5t-61 -75t-37.5 -79.5q-14 -39 -20 -75q-8 -53 3 -106t45 -98t94 -78q61 -33 150 -47q-59 39 -84 99q-24 60 -16 124q6 42 29.5 82t65 72t101.5 52q57 19 135 19q47 0 89 -2.5t89 -12.5l-19 -146q-20 5 -39.5 8t-30.5 3 q-32 0 -57.5 -12t-44 -30t-28.5 -39q-9 -21 -12 -39q-3 -19 0 -44.5t20.5 -50t53 -44.5t99.5 -27l-2 -2q-1 -1 -3 -4q100 11 183 28t147 36l-27 -189q-147 -47 -306 -66.5t-333 -21.5q-183 0 -313 41t-210 113.5t-110.5 172.5t-14.5 217zM965 1122q-3 -14 2.5 -26t14 -21.5 t21.5 -15.5q12 -5 28 -5t30.5 5.5t26 15t19.5 21.5t11 26q2 14 -2.5 25.5t-13.5 21.5t-22.5 15.5t-28.5 5.5q-17 0 -31 -5.5t-25.5 -15.5t-19.5 -21.5t-10 -25.5z" />
<glyph unicode="&#xe56;" horiz-adv-x="1616" d="M183 83l31 212q47 -34 100 -56t108 -36t110 -19.5t107 -5.5q84 0 162.5 19.5t141 59.5t105 100t53.5 141q11 77 -6.5 143.5t-66.5 114t-134.5 71.5t-211.5 18q-66 -3 -118 -10.5t-98 -19.5t-92 -28.5t-99 -37.5l79 567h324l-40 -283q19 3 42 6l46 6q205 17 351 -11 t236.5 -96t125 -173t15.5 -241q-20 -133 -85 -234.5t-170.5 -172t-249 -106t-315.5 -35.5q-84 0 -152 9t-123.5 23t-99.5 34q-45 19 -76 41z" />
<glyph unicode="&#xe57;" horiz-adv-x="1616" d="M-25 0l145 1037h282l236 -267l313 267h258l-112 -801q33 0 68 10t63.5 29.5t49 50t26.5 73.5l128 916h303l-128 -901q-11 -73 -37.5 -133t-66 -106.5t-89 -79t-103.5 -54.5t-112 -31.5t-113 -9.5h-324l101 717l-265 -226l-200 226l-101 -717h-322z" />
<glyph unicode="&#xe58;" horiz-adv-x="1616" d="M164 376.5q-7 62.5 3 129.5q16 125 82.5 228.5t174 178t255 115t327.5 40.5q87 0 171 -7t159.5 -19t139.5 -28t109 -35l-31 -215q-61 26 -129 44.5t-137.5 31t-140.5 19t-141 6.5q-89 0 -159 -17t-123 -44t-89.5 -62.5t-61.5 -75t-37.5 -79t-18.5 -75.5 q-7 -48 -7.5 -82.5t6.5 -62.5t20 -50t34 -46l245 207h63l215 -240q30 0 51 11t35.5 27t22 37t10.5 43q6 42 -2.5 67t-26.5 37.5t-40 14.5q-23 3 -42 0l25 167q39 3 84 2.5t89 -9.5t83 -28.5t66.5 -53t40 -82t2.5 -115.5q-5 -39 -18 -80.5t-37.5 -82t-60 -78t-86.5 -65.5 t-117 -44.5t-149 -16.5l-208 246l-280 -249q-61 6 -114.5 28t-97.5 58t-78 83.5t-54 103t-27 118z" />
<glyph unicode="&#xe59;" horiz-adv-x="1616" d="M119.5 331q-8.5 89 5.5 193q17 114 58.5 210.5t115.5 169t179.5 114t249.5 44.5q50 1 108.5 0.5t111.5 -6.5l72 -197q27 58 64.5 97t84 64t100.5 35t115 10q30 0 61 -3t64.5 -8.5t67 -15t69.5 -26.5l-28 -202q-22 17 -61 31.5t-85 21.5t-93 3t-89 -29q-38 -22 -63.5 -54 t-42 -71t-25 -81t-11.5 -85l221 -546h-274l-333 828q-14 3 -34 4.5t-44.5 -1.5t-50.5 -11q-24 -8 -46 -25q-48 -36 -77 -108.5t-46 -188.5q-5 -45 -8 -88t2 -80.5t18 -69.5t38 -53q20 -17 50.5 -27t66.5 -11.5t76.5 5.5t79.5 23l-28 -189q-36 -8 -80 -17t-95 -12 q-28 -1 -56 -0.5t-54 2.5t-50 5.5t-40 7.5q-80 20 -136 66t-88 114t-40.5 157z" />
<glyph unicode="&#xe5a;" horiz-adv-x="1937" d="M211 795q11 81 48.5 148.5t93.5 116t124 75.5q71 27 143 27q31 0 57 -1.5t51 -5.5t49 -12.5t50 -22.5l-26 -193q-34 13 -57.5 17t-47.5 4q-11 0 -26 -3t-32.5 -9t-35.5 -17t-33.5 -29t-27 -44t-17.5 -61q-3 -16 -2 -36.5t5 -41t15 -40t30.5 -35t50 -25t73.5 -9.5 q31 0 64.5 5.5t68 16.5t68.5 27.5t63 40.5l66 460h329l-161 -1145h-329l66 474q-36 -24 -77.5 -39t-83.5 -25t-83 -12.5t-77 -2.5q-104 0 -184.5 26t-132 77.5t-73.5 126.5q-23 73 -9 167zM1423 3l162 1145h330l-161 -1145h-331z" />
<glyph unicode="&#xe5b;" horiz-adv-x="2299" d="M124 416q-7 68 1 137q17 123 63.5 223t119.5 171.5t173 111t225 39.5q75 0 132 -16.5t99.5 -44.5t71 -65.5t44 -82t19.5 -92.5q4 -49 -4 -96q-12 -75 -46.5 -136.5t-85.5 -106t-114 -68t-128 -23.5l26 186q19 0 36 12t30 32t22 46.5t15 55.5q5 45 1 84.5t-22 68.5 t-48.5 45t-75.5 16q-50 0 -94.5 -25t-80.5 -71t-61 -109.5t-36 -141.5q-6 -45 -4.5 -90t13.5 -86.5t33.5 -78t55 -63t78 -41.5t103.5 -15q93 0 176.5 34.5t149.5 100.5t112.5 161.5t66.5 214.5q7 50 13 100t6 110h209q22 -35 41.5 -71t35.5 -71.5t28 -68t21 -60.5 q31 47 61 93q32 43 63 88l95 3q13 -36 31.5 -83.5t37.5 -91.5q19 22 39.5 45.5t42.5 45.5q13 11 22.5 18t20.5 11.5t26.5 7t36.5 2.5l305 3l-25 -178h-271q-9 0 -17.5 -3t-18.5 -11q-16 -17 -35.5 -36t-41 -43.5t-46 -56t-49.5 -71.5h-74l-5 13h1q-17 44 -32 84.5t-35 81.5 q-26 -36 -55 -83t-67 -111h-97q-16 60 -32 112t-32 93q-3 -9 -4.5 -19t-2.5 -15q-28 -98 -72 -176.5t-101 -139.5t-125 -106t-141.5 -74.5t-152 -43.5t-156.5 -14q-97 0 -175 23t-138.5 63.5t-102 94.5t-66.5 117t-32 131z" />
<glyph unicode="&#xe74;" />
<glyph unicode="&#x2000;" horiz-adv-x="1138" />
<glyph unicode="&#x2001;" horiz-adv-x="2277" />
<glyph unicode="&#x2002;" horiz-adv-x="1138" />
<glyph unicode="&#x2003;" horiz-adv-x="2277" />
<glyph unicode="&#x2004;" horiz-adv-x="759" />
<glyph unicode="&#x2005;" horiz-adv-x="569" />
<glyph unicode="&#x2006;" horiz-adv-x="379" />
<glyph unicode="&#x2007;" horiz-adv-x="379" />
<glyph unicode="&#x2008;" horiz-adv-x="284" />
<glyph unicode="&#x2009;" horiz-adv-x="455" />
<glyph unicode="&#x200a;" horiz-adv-x="126" />
<glyph unicode="&#x200b;" />
<glyph unicode="&#x2010;" horiz-adv-x="810" d="M108 588l37 259h658l-36 -259h-659z" />
<glyph unicode="&#x2011;" horiz-adv-x="810" d="M108 588l37 259h658l-36 -259h-659z" />
<glyph unicode="&#x2012;" horiz-adv-x="810" d="M108 588l37 259h658l-36 -259h-659z" />
<glyph unicode="&#x2013;" horiz-adv-x="1049" d="M19 592l35 250h1077l-36 -250h-1076z" />
<glyph unicode="&#x2014;" horiz-adv-x="2100" d="M19 592l35 250h2128l-36 -250h-2127z" />
<glyph unicode="&#x2018;" horiz-adv-x="568" d="M158 1037q12 79 50.5 150.5t97 128.5t131 93.5t150.5 43.5l-14 -95q-42 -17 -72.5 -45.5t-48 -62.5t-19.5 -69.5t12 -62.5q53 -23 73.5 -59t12.5 -94q-6 -36 -23 -67.5t-43 -53t-59 -34t-71 -12.5q-47 0 -82.5 17.5t-59 48.5t-33.5 75.5t-2 97.5z" />
<glyph unicode="&#x2019;" horiz-adv-x="568" d="M138 798l12 94q42 17 74 45.5t48.5 62.5t19.5 69t-13 64q-52 22 -72.5 58t-11.5 95q5 36 22 67t43 53t59.5 34.5t69.5 12.5q47 0 83.5 -17.5t59.5 -49.5t32 -76.5t2 -97.5q-11 -79 -50 -150.5t-97 -128t-131 -92.5q-73 -35 -150 -43z" />
<glyph unicode="&#x201c;" horiz-adv-x="1182" d="M186 1037q11 79 50 150.5t97 128.5t131 93.5t150 43.5l-14 -95q-41 -17 -72.5 -45.5t-49 -62.5t-19.5 -69.5t14 -62.5q52 -23 73 -59t13 -94q-6 -36 -24 -67.5t-43.5 -53t-59.5 -34.5q-34 -12 -71 -12q-47 0 -82.5 17.5t-58.5 48.5t-32.5 75.5t-1.5 97.5zM770 1037 q11 79 50 150.5t97.5 128.5t130.5 93.5t150 43.5l-14 -95q-41 -17 -72 -45.5t-48 -62.5t-19.5 -69.5t11.5 -62.5q53 -23 74 -59t13 -94q-6 -36 -23.5 -67.5t-43 -53t-59 -34t-70.5 -12.5q-48 0 -83.5 17.5t-59 48.5t-33 75.5t-1.5 97.5z" />
<glyph unicode="&#x201d;" horiz-adv-x="1182" d="M142 798l14 94q41 17 72 45.5t48 62.5t19 69t-11 64q-53 22 -74 58t-13 95q6 36 23.5 67t44 53t59.5 34q35 13 71 13q47 0 82.5 -17.5t58.5 -49.5t32 -76.5t2 -97.5q-11 -79 -50 -150.5t-97.5 -128t-130.5 -92.5q-72 -35 -150 -43zM728 798l13 94q42 17 73 45.5 t47.5 62.5t19.5 69t-11 64q-53 22 -73.5 58t-12.5 95q6 36 22.5 67t43 53t59.5 34.5t71 12.5q47 0 82.5 -17.5t59 -49.5t32 -76.5t2.5 -97.5q-11 -79 -49.5 -150.5t-97 -128t-131.5 -92.5q-72 -35 -150 -43z" />
<glyph unicode="&#x2022;" horiz-adv-x="1118" d="M235 614.5q11 77.5 49 145t96.5 118.5t131 80t148.5 29q78 0 141.5 -29t107 -80t63.5 -119q20 -67 9 -144.5t-50 -146t-97 -118.5t-130 -80q-70 -30 -148 -30t-142 30t-107 80t-63 118.5t-9 146z" />
<glyph unicode="&#x202f;" horiz-adv-x="455" />
<glyph unicode="&#x205f;" horiz-adv-x="569" />
<glyph unicode="&#x20ac;" horiz-adv-x="1316" d="M50 478l58 173h120q3 41 10 76t12 58h-155l55 174h150q20 46 49 99.5t70.5 109t97.5 106.5t128 90.5t159.5 63t196.5 23.5q50 0 93 -2.5t82 -9.5t78 -17.5t83 -25.5l-75 -255q-36 17 -68.5 29.5t-64 21.5t-65 13t-72.5 4q-69 0 -128 -20t-107 -54t-84 -80t-59 -96h574 l-57 -174h-567q-8 -41 -13 -73q-3 -31 -3 -61h547l-57 -173h-485q6 -64 28 -111t57 -78.5t78 -46.5t86 -15q33 0 73 3.5t85.5 13t97.5 28.5q51 17 107 48l-36 -248q-34 -14 -74 -29t-89 -29t-106 -23.5t-123 -9.5q-93 0 -166 21.5t-127.5 58t-93.5 85.5t-64.5 103.5t-40 114 t-18.5 114.5h-177z" />
<glyph unicode="&#x2122;" horiz-adv-x="2100" d="M322 1351l21 153h681l-20 -153h-246l-96 -687h-185l96 687h-251zM1015 664l116 840h290l72 -566h3l230 566h288l-118 -840h-184l92 650h-3l-271 -650h-153l-84 650h-4l-92 -650h-182z" />
<glyph unicode="&#x25cc;" horiz-adv-x="1339" d="M366 574l95 43q-6 -22 -9 -48q-2 -21 -2 -41zM428 328l47 95q20 -39 52 -64zM509 817l86 -30q-42 -25 -72 -61zM631 313q20 -4 43 -4q20 0 39 4l-53 -85zM698 826l58 89l32 -87q-19 3 -40 2q-24 1 -50 -4zM831 353q36 22 64 56l14 -81zM890 787l101 30l-46 -94 q-22 36 -55 64zM965 531q5 18 8 38q3 22 3 43l75 -43z" />
<glyph unicode="&#x25fc;" horiz-adv-x="1059" d="M0 0v1059h1059v-1059h-1059z" />
<glyph unicode="&#xf700;" horiz-adv-x="1171" d="M136 801l36 244q120 53 242.5 82t249.5 29h612l-31 -211h-236q20 -16 35 -40t25 -58.5t11 -82t-7 -107.5l-92 -657h-330l33 234q-10 61 -30 105.5t-46.5 72t-60 40t-69.5 12.5q-30 0 -54.5 -4t-46.5 -15l34 244q25 6 63 9t82 -6q70 -11 111 -38q42 -26 66 -73l22 154 q8 41 3 78.5t-27 65t-63 44.5t-105 17q-45 0 -98.5 -7t-109 -24t-111 -43t-108.5 -65z" />
<glyph unicode="&#xf701;" d="M-1266 1304l26 192h748l-26 -192h-748z" />
<glyph unicode="&#xf702;" d="M-1273 1304l26 192h430l27 197h319l-54 -389h-748z" />
<glyph unicode="&#xf703;" d="M-1304 1304l28 192h350v7v5.5t2 6.5q8 45 32.5 85t58.5 69.5t76.5 46t87.5 16.5q48 0 86 -18t64.5 -48.5t39 -72.5t5.5 -88q-6 -47 -29.5 -84t-53.5 -63t-62 -40t-57 -14h-628zM-769 1505q-2 -27 14 -48q18 -20 46 -20q14 0 26.5 5.5t23.5 14.5t18 21.5t10 26.5 q4 28 -13.5 48t-46.5 20q-14 0 -27 -5.5t-23.5 -14.5t-17.5 -21.5t-10 -26.5z" />
<glyph unicode="&#xf704;" d="M-1304 1304l27 192h218l26 196h218l-27 -196h126l27 196h218l-27 -196l-27 -192h-779z" />
<glyph unicode="&#xf705;" d="M-834 1304l54 389h305l-53 -389h-306z" />
<glyph unicode="&#xf706;" d="M-1091 1334l18 123q44 11 65 32q21 23 27 51q2 21 -6 34t-22 21.5t-31.5 11.5t-33.5 0l15 119q26 10 68.5 16.5t95.5 6.5q47 0 79.5 -14t53 -36.5t28.5 -48.5t6 -52q-3 -22 -11.5 -40.5t-19 -34t-21 -27t-18.5 -17.5q22 0 34.5 -0.5t29.5 0.5q31 1 65.5 4.5t72 10.5 t76.5 17t78 24l-24 -176q-48 -19 -118 -34q-69 -13 -158 -21q-64 -6 -113 -6.5t-90 3.5t-76 12.5t-70 20.5z" />
<glyph unicode="&#xf707;" d="M-1249 1478q-1 26 2 45q7 49 32 91.5t62.5 72.5t86.5 46t103 13q30 -3 63 -16t52 -31q11 8 26.5 16.5t33.5 14.5t35 10q16 3 33 6q56 3 99 -8.5t70.5 -36.5t40 -61t7.5 -82q-3 -18 -8.5 -34t-13 -29t-16.5 -22q-9 -11 -18 -13q17 2 38 8.5t39.5 14t34.5 17.5t27 18 l-22 -164q-29 -14 -56 -24t-58 -16t-68.5 -9.5t-87.5 -6.5q-16 0 -35.5 1.5t-37.5 3t-34 3.5q-15 1 -25 3l16 109q50 -7 82.5 16t40.5 78q6 42 -7.5 63.5t-33.5 21.5q-23 0 -43 -18.5t-26 -53.5h-123q3 33 -9 53q-9 20 -34 19q-20 0 -38 -21.5t-23 -63.5q-9 -58 17.5 -79 t76.5 -15l-14 -103q-15 -8 -41.5 -12.5t-50.5 -4.5q-45 0 -78 11t-55 29.5t-36 42t-19.5 48.5t-6.5 49z" />
<glyph unicode="&#xf708;" d="M-1062 1440l25 172h157l20 138h293l-20 -138h156l-24 -172h-157l-18 -136h-293l19 136h-158z" />
<glyph unicode="&#xf709;" d="M-867 1493q11 72 54 123.5t108.5 86.5t146 51.5t166.5 19.5l-22 -144q-102 -8 -156 -38q-53 -30 -61 -85q-3 -20 5.5 -33.5t23.5 -21.5t30.5 -11.5t28.5 -3.5l-21 -142q-77 -2 -136 7.5t-99.5 33t-58.5 63.5t-9 94z" />
<glyph unicode="&#xf70a;" d="M-325 1304l54 389h304l-52 -389h-306z" />
<glyph unicode="&#xf70b;" d="M-595 1337l20 131q47 11 70.5 34.5t29.5 54.5q2 22 -7 36.5t-23.5 23t-34 10.5t-35.5 2l13 127q30 9 76 16q47 7 102 7q50 0 85 -15t57 -38t30.5 -51.5t5.5 -53.5q-2 -24 -12 -45t-21 -37t-22 -28.5t-21 -20.5h20.5h17h16t17.5 1q33 3 70 6.5t76.5 10.5t81 17.5 t82.5 24.5l-27 -185q-50 -21 -123.5 -37t-169.5 -24q-67 -6 -119.5 -6t-96.5 4.5t-81.5 13.5t-76.5 21z" />
<glyph unicode="&#xf70c;" d="M-870 1486.5q0 25.5 3 48.5q7 51 32.5 95.5t66 77t91.5 49.5t108 14q17 -2 34.5 -6.5t33.5 -10t30 -15.5t23 -18q14 8 31 18t35 15.5t36 9.5t35 7q58 4 104 -9t76.5 -39.5t44.5 -64t8 -85.5q-3 -16 -8.5 -32t-11.5 -30.5t-14 -26t-16 -16.5q25 3 51.5 12.5t53 22.5 t50.5 29q23 16 43 30l-23 -172q-64 -38 -154 -62t-196 -30q-17 0 -37.5 1.5t-39.5 3t-35.5 4t-26.5 5.5l15 113q53 -9 88.5 15.5t43.5 85.5q6 42 -8 65.5t-36 23.5q-24 0 -45 -21q-22 -21 -27 -57h-131q3 36 -9 57q-11 21 -36 21q-22 -1 -41.5 -24t-24.5 -65 q-4 -30 0.5 -51.5t18.5 -33.5t35 -16t47 0l-15 -109q-17 -8 -44 -13q-28 -5 -53 -5q-49 0 -83 11t-57.5 30.5t-37.5 44.5t-21 51t-7 51.5z" />
<glyph unicode="&#xf70d;" d="M-452 1440l24 172h158l20 138h292l-20 -138h156l-24 -172h-157l-18 -136h-293l19 136h-157z" />
<glyph unicode="&#xf70e;" d="M-373 1493q12 72 55 123.5t108 86.5t146 51.5t167 19.5l-22 -144q-102 -8 -156 -38q-53 -30 -61 -85q-3 -20 5.5 -33.5t23.5 -21.5t31 -11.5t27 -3.5l-21 -142q-76 -2 -135 7.5t-99.5 33t-58.5 63.5t-10 94z" />
<glyph unicode="&#xf70f;" horiz-adv-x="2026" d="M103 0l164 1170l642 -2q108 0 185.5 -19t123.5 -60.5t61.5 -107.5t2.5 -161l-62 -434q-5 -41 3.5 -74t29 -55t50 -34t65.5 -12t70 12t60.5 34t44.5 55t24 74l107 762h330l-107 -757q-11 -81 -38.5 -142t-68 -106.5t-92 -76t-110 -48.5t-122 -26.5t-130.5 -8.5 q-66 0 -127.5 7t-115 24t-96.5 46t-71 73.5t-38 108.5t3 149l51 354q6 42 9 81t-7 67.5t-38 44.5t-85 16h-254l-103 -729h167l-31 -225h-497z" />
<glyph unicode="&#xf710;" d="M-906 1304l47 336h297l-19 -144h687l-27 -192h-985z" />
<glyph unicode="&#xf711;" d="M-929 1523q6 48 29.5 89t58.5 72t78.5 48.5t91 17.5t85.5 -17.5t64.5 -48.5t39 -72t5.5 -88.5t-30.5 -88.5t-58 -71.5t-78.5 -47.5q-43 -18 -90 -18t-86 17.5t-65.5 48t-38 71.5t-5.5 88zM-771 1523q-5 -27 13 -48q19 -20 46 -20q14 0 26.5 5t23.5 15t18 22.5t10 25.5 q3 28 -13.5 48.5t-46.5 20.5q-14 0 -27 -5t-24 -15t-17.5 -22.5t-8.5 -26.5z" />
<glyph unicode="&#xf712;" d="M-1300 1537q9 67 42 114.5t82 78t109.5 44.5t122.5 14h501l-24 -174h-467q-20 0 -38 -1t-34 -8.5t-27.5 -23.5t-14.5 -44q-3 -19 2 -31.5t14 -21t20 -12.5t22 -4q25 0 45.5 5.5t35 15t25.5 22t19 26.5h91q11 -25 25 -38.5t30 -20.5t34 -8.5t40 -1.5q17 0 35 1.5t39 6 t43 15t47 27.5l-25 -181q-19 -18 -40 -28.5t-42 -16t-39.5 -7.5t-34.5 -2q-36 0 -65 11t-50.5 29t-36 41t-23.5 45q-14 -22 -41.5 -44t-61.5 -40t-71 -30t-70 -12q-126 0 -181.5 67.5t-37.5 186.5z" />
<glyph unicode="&#xf713;" d="M-749 1831l51 361h298l-50 -361h-299z" />
<glyph unicode="&#xf714;" d="M-817 1865l15 114q42 10 63.5 31.5t24.5 49.5q2 19 -5 31.5t-20.5 21t-30.5 10.5q-17 1 -31 1l13 113q25 8 65 14q39 6 89 6q45 0 77 -13.5t51.5 -34.5t27.5 -46t5 -47q-2 -21 -10.5 -40t-18.5 -33t-21 -25t-18 -16h19h15h14h15q32 2 67.5 6.5t74.5 11.5t80.5 19.5 t83.5 34.5l-23 -164q-47 -25 -121 -46q-73 -21 -170 -29q-60 -6 -106.5 -6t-85.5 4.5t-73 11.5q-33 9 -66 20z" />
<glyph unicode="&#xf715;" d="M-962 1998q0 23 3 43q5 45 29 85t58.5 67.5t80.5 43t96 12.5q29 -3 59.5 -15.5t48.5 -28.5q23 16 56 28.5t64 15.5q50 3 91 -8t68 -35t39 -57t6 -75q-4 -29 -16.5 -55t-26.5 -37q22 4 50 14t57 24.5t58 32.5q27 18 52 40l-22 -164q-39 -27 -79.5 -45.5t-83 -29.5t-86 -16 t-88.5 -6h-38t-38 2t-34.5 4t-25.5 5l14 100q47 -7 78 14.5t39 74.5q5 39 -7.5 58.5t-31.5 19.5q-21 0 -39.5 -18t-24.5 -49h-117q4 31 -6 49t-33 18q-19 0 -35.5 -19.5t-22.5 -58.5q-8 -54 17 -75t72 -14l-13 -97q-14 -7 -38 -12t-46 -5q-43 0 -74.5 10.5t-52.5 28 t-33.5 39t-18 45t-5.5 46.5z" />
<glyph unicode="&#xf716;" d="M-874 1967l23 174h159l18 136h285l-18 -136h157l-25 -174h-156l-19 -136h-287l20 136h-157z" />
<glyph unicode="&#xf717;" d="M-781 1849q8 55 36 98t69.5 75t96 54.5t116 35.5t127 16.5t130.5 0.5l-19 -139q-72 0 -129 -6.5t-97.5 -22t-64.5 -39.5q-23 -26 -27 -59q-3 -20 6 -33t23 -21t30.5 -12t27.5 -4l-19 -142q-77 -2 -137.5 7.5t-100 34t-57.5 63.5q-20 40 -11 93z" />
<glyph unicode="&#xf718;" d="M-726 -701l28 191h426l-53 -377h-295l25 186h-131z" />
<glyph unicode="&#xf719;" d="M-1087 -702l26 190h353l-19 -114q-3 -13 -2 -26.5t8 -23t22 -16t40 -6.5q28 0 44 6.5t25 16t12.5 23t4.5 26.5l14 114h288l-21 -143q-8 -66 -32 -110.5t-64 -72t-97 -38.5t-129 -11h-139q-39 0 -79 10t-70.5 30t-48.5 51q-19 30 -16 72l4 22h-124z" />
<glyph unicode="&#xf71a;" d="M-632.5 -674q5.5 36 24.5 68.5t45 56.5t61 37.5t71 13.5t66.5 -13.5t51.5 -37.5t30 -56q11 -33 5 -69t-24 -69t-45.5 -56.5t-61.5 -37.5q-36 -14 -72 -14t-66 14t-51 37.5t-30.5 56.5t-4 69z" />
<glyph unicode="&#xf71d;" horiz-adv-x="1491" d="M131 1148h322l43 -689l239 319h160l147 -319l87 233q22 64 13 108.5t-37.5 74t-73 43t-93.5 13.5q-28 0 -53.5 -2.5t-57.5 -8.5l28 209q25 5 47 8t43.5 5.5t44.5 4t50 1.5h550l-30 -211h-171q44 -42 51 -126.5t-37 -204.5l-230 -606h-194l-206 478l-341 -478h-193z" />
<glyph d="M-865 1504q6 36 22 68t40.5 55.5t53.5 40.5t62 28q-36 47 -25 121q7 51 30 90t56.5 67.5t76.5 47.5t90.5 29t96 13.5t95.5 1.5l-19 -139q-39 0 -76.5 -4.5t-67 -17t-49.5 -36t-26 -62.5q-2 -18 5.5 -31t21.5 -23t33.5 -14t40.5 -7l-13 -115q-50 -5 -91.5 -10.5t-72.5 -15 t-49 -27.5t-23 -46q-3 -20 9.5 -32.5t30.5 -20.5t37 -12.5t30 -4.5l-21 -141q-67 -9 -124 1t-98.5 35.5t-62.5 66.5t-13 94z" />
<glyph horiz-adv-x="928" d="M-884 1523.5q6 47.5 29.5 88.5t59 72t79 48.5t91 17.5t86.5 -17.5t64.5 -48.5t37.5 -72t6.5 -88.5t-30 -88.5t-60 -71.5t-78.5 -48t-90.5 -17.5t-86.5 17.5t-65 48t-37.5 71.5t-5.5 88.5zM-726 1523q-2 -27 14.5 -47.5t44.5 -20.5q14 0 27 5t23.5 15t17.5 22.5t10 25.5 q4 28 -13.5 48.5t-45.5 20.5q-14 0 -27 -5t-23.5 -15t-17.5 -22.5t-10 -26.5zM100 851l31 223q19 12 59.5 27t96 29t125 23t144.5 9q165 -3 238 -76q73 -74 51 -226l-122 -860h-330l116 820q5 40 -3 66t-26.5 40t-43.5 18t-50 4q-22 0 -57.5 -7t-75 -19.5t-80 -30.5 t-73.5 -40z" />
<glyph horiz-adv-x="928" d="M-884 1523.5q6 47.5 29.5 88.5t59 72t79 48.5t91 17.5t86.5 -17.5t64.5 -48.5t37.5 -72t6.5 -88.5t-30 -88.5t-60 -71.5t-78.5 -48t-90.5 -17.5t-86.5 17.5t-65 48t-37.5 71.5t-5.5 88.5zM-726 1523q-2 -27 14.5 -47.5t44.5 -20.5q14 0 27 5t23.5 15t17.5 22.5t10 25.5 q4 28 -13.5 48.5t-45.5 20.5q-14 0 -27 -5t-23.5 -15t-17.5 -22.5t-10 -26.5zM100 851l31 223q19 12 59.5 27t96 29t125 23t144.5 9q165 -3 238 -76q73 -74 51 -226l-122 -860h-330l116 820q5 40 -3 66t-26.5 40t-43.5 18t-50 4q-22 0 -57.5 -7t-75 -19.5t-80 -30.5 t-73.5 -40z" />
<glyph horiz-adv-x="1199" d="M120.5 383.5q-7.5 86.5 7.5 191.5q17 120 51.5 211t82 157t104.5 111t117 72.5t122 38.5t118 11h3q55 0 114 -11t112 -38.5t97.5 -72.5t73 -111t38 -157t-6.5 -211q-16 -105 -47 -191.5t-75.5 -153t-99 -115t-115.5 -79t-127.5 -46t-132.5 -15.5t-128.5 15.5t-115 46 t-94 79t-66.5 115t-32.5 153zM437.5 446q1.5 -54 10 -91.5t25 -60.5t36 -36t42 -17.5t41.5 -4.5q21 0 44 4.5t46.5 17.5t46 36t42.5 60.5t36 91.5t27 129q10 71 9 123.5t-9 90t-23.5 62.5t-35 39t-42.5 18.5t-46 4.5q-35 0 -71 -13t-69 -49t-59.5 -103t-39.5 -173 q-12 -75 -10.5 -129z" />
<glyph horiz-adv-x="643" d="M122 0l162 1148h318l-161 -1148h-319z" />
<glyph horiz-adv-x="1198" d="M68 0l13 81q69 47 145.5 98.5t152.5 105.5t145.5 110.5t124 114t90 116t44.5 115.5q11 72 -30 113t-134 41q-46 0 -100.5 -12.5t-111.5 -35.5t-114 -55.5t-104 -74.5l42 300q64 38 123 63.5t119.5 42.5t123.5 24q62 7 134 7q53 0 106 -8.5t97.5 -25t81 -44t61 -65.5 t34.5 -87q9 -51 1 -112q-8 -67 -37.5 -126t-69.5 -111t-87.5 -96.5t-93.5 -81.5t-85 -65q-41 -29 -66 -47h439l-42 -285h-1002z" />
<glyph horiz-adv-x="1110" d="M33 -256l39 277q39 -31 76.5 -52.5t76.5 -35.5t81.5 -20t91.5 -6q47 0 93 14.5t83.5 41.5t62.5 67t32 88q11 72 -6.5 117.5t-53.5 69t-87.5 27.5t-111.5 -7l35 253q58 -5 106.5 2t85 27.5t58.5 59t31 95.5q4 29 -4 57.5t-31.5 52t-65 37.5t-105.5 14q-42 0 -79.5 -4 t-73.5 -12.5t-73.5 -21.5t-76.5 -32l35 253q37 16 85 27.5t98.5 19.5t102 12t96.5 4q119 0 202.5 -32t133.5 -84t69.5 -119t9.5 -136q-5 -45 -24 -93.5t-51.5 -92t-80.5 -79t-115 -58.5q50 -8 87 -27.5t64 -49.5t43 -65.5t25 -72t10 -72t-3 -66.5q-14 -103 -60.5 -187.5 t-123 -145.5t-183.5 -94.5t-244 -33.5q-45 0 -94.5 5.5t-97.5 16.5t-91 26.5t-77 34.5z" />
<glyph horiz-adv-x="1224" d="M57 0l32 231l862 932h200l-131 -927h118l-32 -236h-118l-46 -331h-316l45 331h-614zM361 236h342l61 434z" />
<glyph horiz-adv-x="1124" d="M40 -267l38 261q36 -23 70.5 -40.5t72.5 -29.5t79.5 -18t91.5 -6q47 0 93 12t86.5 39t68 71.5t37.5 112.5q11 72 -10 125.5t-78 83t-152 32.5q-95 5 -235 -23l112 795h791l-39 -278h-506l-36 -256q100 9 178.5 -3t137 -39t96.5 -68t59.5 -92t26 -110.5t-4.5 -123.5 q-11 -78 -40 -147t-72 -126.5t-98.5 -104t-119.5 -78.5t-133.5 -49.5t-143.5 -17.5q-58 0 -113 5.5t-104.5 17t-89 25t-63.5 30.5z" />
<glyph horiz-adv-x="1187" d="M83.5 326.5q-8.5 65.5 1.5 137.5q12 89 42.5 161.5t74 140.5t98.5 138q56 69 117 152l336 420h353l-443 -554q61 5 123.5 -0.5t119 -25.5t103.5 -55t79 -87.5t44.5 -123.5t-1.5 -163q-16 -113 -69.5 -203t-133.5 -153.5t-180 -98t-209 -34.5q-73 0 -138.5 15t-119 45 t-95 72.5t-68 96.5t-35 119.5zM403 459q-8 -50 6 -90.5t40 -67t61.5 -41t73.5 -14.5q36 0 76.5 14.5t73.5 41.5t58 68q25 39 32 91v-2q7 53 -2.5 94.5t-33.5 72t-61.5 46t-82.5 15.5q-39 0 -79 -15.5t-73 -44.5t-57 -72t-32 -96z" />
<glyph horiz-adv-x="1223" d="M145 -329l663 1199h-586l39 278h1004l-3 -17l-801 -1460h-316z" />
<glyph horiz-adv-x="1188" d="M72 425q9 67 36.5 125.5t69.5 104.5t93 79t110 53q-50 19 -85.5 51t-56.5 74t-27 89t1 100q14 100 61.5 175t119.5 125t164.5 75t194.5 25q103 0 188 -25t143.5 -75t84.5 -125t13 -175q-9 -53 -28.5 -100t-52 -89t-76.5 -74t-99 -51q51 -20 93.5 -52.5t70.5 -77.5 t40.5 -103.5t0.5 -128.5q-13 -103 -62 -185t-126.5 -139.5t-180 -88.5t-224.5 -31t-215.5 31.5t-154 90t-85.5 140.5t-11 182zM392 438q-8 -56 2 -101.5t34.5 -77.5t60.5 -49.5t81 -17.5q46 0 88.5 16.5t75.5 48.5t55.5 78t30.5 103q8 54 -3 97t-36 73.5t-61 47.5t-81 17 q-44 0 -84.5 -17t-73.5 -46.5t-57 -73.5t-32 -98zM524 995q7 -39 26.5 -65t49.5 -40q28 -14 67 -14t72.5 14t60.5 40t45 65t25 89q8 59 -1.5 98.5t-30.5 63.5t-50 34t-62 10q-34 0 -66 -10t-59.5 -34t-48 -63.5t-28.5 -98.5q-7 -50 0 -89z" />
<glyph horiz-adv-x="1241" d="M162.5 516.5q-12.5 70.5 0.5 161.5q11 75 38.5 140.5t69.5 120.5t96 97.5t116 71.5t131.5 44.5t140.5 15.5q111 0 202 -35t152 -98t89 -153t11 -201q-8 -58 -24 -109.5t-39 -99.5t-52 -93t-64 -91t-73 -94.5t-80 -104.5l-335 -420h-353l442 556q-61 -5 -123.5 0.5 t-119 25t-103 55t-78.5 88t-44.5 123zM470 684v3q-9 -53 2.5 -95t35 -71.5t60.5 -45.5q35 -16 83 -16q38 0 78.5 15t74 45t57 72.5t31.5 96.5q7 50 -6 89.5t-39.5 67t-62.5 42t-72 14.5t-76.5 -14.5t-74.5 -42t-58.5 -67.5t-32.5 -93z" />
<glyph d="M-692 1831l50 361h299l-52 -361h-297z" />
<glyph d="M-815 1967l25 174h156l20 136h286l-20 -136h158l-24 -174h-159l-18 -136h-285l19 136h-158z" />
<glyph d="M-916 1304l26 192h957l-28 -192h-955z" />
<glyph d="M-917 1304l27 192h626l28 197h331l-56 -389h-956z" />
<glyph d="M-916 1304l26 192h565q0 2 1 7q-1 5 2 12q8 45 32.5 85t58.5 69.5t77 46t87 16.5q48 0 86.5 -18t65 -48.5t37.5 -72.5t6 -88q-6 -47 -29.5 -84t-53.5 -63t-62.5 -40t-57.5 -14h-841zM-167 1505q-4 -27 13.5 -47.5t45.5 -20.5q13 0 27 5.5t24.5 14.5t18 21.5t9.5 26.5 q4 28 -13 48q-19 20 -47 20q-14 0 -26.5 -5.5t-23.5 -14.5t-18 -21.5t-10 -26.5z" />
<glyph d="M-915 1304l27 192h262l28 196h273l-28 -196h147l28 196h273l-56 -388h-954z" />
<glyph d="M-816 1537q8 67 41.5 114.5t82 78t109 44.5t123.5 14h499l-24 -174h-465q-20 0 -38 -1t-34 -8.5t-28 -23.5t-14 -44q-3 -19 2 -31.5t14 -21t20 -12.5t22 -4q25 0 45 5.5t35 15t26 22t19 26.5h90q12 -25 25.5 -38.5t29.5 -20.5t34.5 -8.5t40.5 -1.5q16 0 34.5 1.5t39 6 t43 15t47.5 27.5l-25 -181q-20 -18 -40.5 -28.5t-41.5 -16t-40 -7.5t-34 -2q-36 0 -65 11t-51 29t-36.5 41t-22.5 45q-14 -22 -42 -44t-62 -40t-70.5 -29.5t-70.5 -12.5q-125 0 -180.5 67.5t-37.5 186.5z" />
<glyph d="M-192 1733l53 388h299l-54 -388h-298z" />
<glyph d="M-379 1768l15 114q42 10 64 31.5t25 49.5q3 19 -5 31.5t-21 21t-30 10.5q-17 1 -33 1l14 112q25 9 65 15t90 6q45 0 77 -14t51.5 -34.5t26.5 -45.5t4 -48q-3 -21 -10.5 -39.5t-17.5 -32.5t-20.5 -25t-18.5 -17h34.5h28.5q30 3 66.5 7t74.5 11t79.5 19.5t84.5 35.5 l-23 -164q-47 -25 -121 -46t-170 -29q-59 -6 -106 -6t-85 4t-71 12q-34 9 -68 20z" />
<glyph d="M-553 1901q0 23 3 42q5 46 28.5 85.5t58.5 67.5t81 43t96 13q29 -3 59.5 -15.5t48.5 -29.5q22 17 55.5 29.5t64.5 15.5q50 2 90 -9t68 -34.5t39 -57t6 -74.5q-5 -30 -16.5 -55.5t-27.5 -36.5q23 4 51.5 13.5t57.5 24.5t58 33q27 18 52 40l-23 -164q-38 -28 -78.5 -46 t-83.5 -29t-86 -16t-88 -6h-37.5t-38.5 2t-35 4t-25 5l14 100q47 -7 77.5 14.5t39.5 74.5q5 39 -7.5 58.5t-31.5 19.5q-21 0 -40 -18t-24 -49h-117q3 31 -7 49t-32 18q-19 0 -36 -19.5t-22 -58.5q-9 -54 16 -75t74 -14l-14 -97q-14 -7 -38.5 -12t-46.5 -5q-43 0 -74 10.5 t-52 28t-33.5 39t-18 45t-5.5 46.5z" />
<glyph d="M-320 1870l25 173h157l20 137h285l-20 -137h157l-23 -173h-159l-18 -137h-285l20 137h-159z" />
<glyph d="M-655 1733l55 388h297l-53 -388h-299z" />
<glyph d="M-727 1768l15 114q42 10 64 31.5t25 49.5q3 19 -4.5 31.5t-21 21t-29.5 10.5q-17 1 -34 1l14 112q25 9 65.5 15t90.5 6q44 0 76 -14t51.5 -34.5t27.5 -45.5q6 -25 3 -48q-2 -21 -10 -39.5t-17.5 -32.5t-20 -25t-18.5 -17h34.5h27.5q31 3 67 7t75 11t80 19.5t85 35.5 l-23 -164q-48 -25 -122 -46t-170 -29q-60 -6 -106.5 -6t-85 4t-71.5 12q-33 9 -68 20z" />
<glyph d="M-858.5 1901q-0.5 23 2.5 42q5 46 29 85.5t59 67.5t80.5 43t95.5 13q29 -3 59.5 -15.5t48.5 -29.5q23 17 56 29.5t64 15.5q50 2 91.5 -9t68 -34.5t39 -57t7.5 -74.5q-5 -30 -17.5 -55.5t-27.5 -36.5q22 4 50 13.5t57 24.5t58.5 33t52.5 40l-22 -164q-39 -28 -80 -46 t-82.5 -29t-86 -16t-89.5 -6h-36.5t-39 2t-34.5 4q-18 2 -26 5l15 100q48 -7 78 15q29 21 38 74q5 39 -7.5 58.5t-31.5 19.5q-21 0 -39 -18t-24 -49h-117q3 31 -7.5 49t-32.5 18q-19 0 -35 -19.5t-22 -58.5q-8 -54 16 -75t75 -14l-14 -97q-14 -7 -39 -12t-48 -5 q-43 0 -73.5 10.5t-51 28t-33.5 39t-18.5 45t-6 46.5z" />
<glyph d="M-778 1870l25 173h157l19 137h285l-19 -137h158l-25 -173h-157l-18 -137h-286l19 137h-158z" />
<glyph d="M-1401 1304l28 192h1440l-28 -192h-1440z" />
<glyph d="M-1401 1304l28 192h1081l28 197h331l-56 -389h-1412z" />
<glyph d="M-1401 1304l28 192h1048q0 2 1 7q-1 5 2 12q8 45 32.5 85t58.5 69.5t77 46t87 16.5q48 0 86.5 -18t65 -48.5t37.5 -72.5t6 -88q-6 -47 -29.5 -84t-53.5 -63t-62.5 -40t-57.5 -14h-1326zM-167 1505q-4 -27 13.5 -47.5t45.5 -20.5q13 0 27 5.5t24.5 14.5t18 21.5t9.5 26.5 q4 28 -13 48q-19 20 -47 20q-14 0 -26.5 -5.5t-23.5 -14.5t-18 -21.5t-10 -26.5z" />
<glyph d="M-1401 1304l28 192h706l28 196h291l-27 -196h150l28 196h292l-56 -388h-1440z" />
<glyph d="M-1170 1537v9q11 72 45.5 119t88 74.5t122.5 38t147 10.5h592l-25 -174h-573q-19 0 -39.5 -2t-39 -9t-31 -22.5t-16.5 -40.5l-2 -7q-3 -21 5 -33.5t19.5 -19.5t23 -9.5t16.5 -2.5h36q50 0 83.5 21t51.5 48h91q11 -25 27 -38.5t37.5 -20.5t49 -8.5t63.5 -1.5h6q47 0 90 9 q43 8 88 38l-25 -181q-22 -16 -46 -26t-45.5 -15.5t-41.5 -7.5t-35 -2h-50q-34 0 -63 11t-52.5 29t-41 41t-24.5 45q-14 -23 -37 -45.5t-52 -40.5t-62.5 -29t-68.5 -11h-39q-158 0 -225 65q-65 64 -48 189z" />
<glyph d="M-1220 1304l47 336h299l-21 -144h639l-26 -192h-938z" />
<glyph d="M-1307 1304l27 192h1026l-27 -192h-1026z" />
<glyph d="M-1307 1304l27 192h707l28 197h318l-54 -389h-1026z" />
<glyph d="M-1337 1304l28 192h628v7t3 12q8 45 31.5 85t58.5 69.5t78 46t87 16.5q48 0 87 -18t65 -48.5t37.5 -72.5t5.5 -88q-6 -47 -29.5 -84t-54 -63t-62.5 -40t-57 -14h-906zM-523 1505q-4 -27 13.5 -47.5t45.5 -20.5q14 0 27 5.5t23.5 14.5t18.5 22q6 12 9 26q4 28 -13.5 48 t-45.5 20q-14 0 -27 -5.5t-23.5 -14.5t-17.5 -21.5t-10 -26.5z" />
<glyph d="M-1339 1304l27 192h496l28 196h218l-28 -196h125l28 196h218l-54 -388h-1058z" />
<glyph d="M-509 1831l50 361h299l-51 -361h-298z" />
<glyph d="M-645 1865l15 114q42 10 63.5 31.5t24.5 49.5q3 19 -4 31.5t-21 21t-31 10.5q-16 1 -32 1l14 113q25 8 66 14q38 6 89 6q44 0 76 -13.5t51.5 -34.5t28 -46t3.5 -47q-2 -21 -10 -40t-17.5 -33t-20.5 -25t-20 -16h19.5h15.5h14h14q32 2 68 6.5t75 11.5t80 19.5t84 34.5 l-22 -164q-48 -25 -122 -46q-73 -21 -170 -29q-60 -6 -106.5 -6t-85.5 4.5t-72 11.5q-34 9 -67 20z" />
<glyph d="M-846.5 1998q-1.5 23 1.5 43q5 45 29 85t60 67.5t80.5 43t95.5 12.5q30 -3 59.5 -15.5t47.5 -28.5q23 16 56 28.5t65 15.5q50 3 91 -8t68.5 -35t39 -57t6.5 -75q-5 -29 -16.5 -55t-28.5 -37q22 4 50.5 14t58 24.5t58 32.5t53.5 40l-24 -164q-39 -27 -80 -45.5 t-82.5 -29.5t-85.5 -16t-88 -6h-37t-39.5 2t-35 4t-24.5 5l13 100q48 -7 78 15q29 21 38 74q5 39 -7.5 58.5t-31.5 19.5q-21 0 -38.5 -18t-22.5 -49h-117q3 31 -8 49t-34 18q-19 0 -35 -19.5t-22 -58.5q-8 -54 17 -75q26 -21 74 -14l-14 -97q-14 -7 -38.5 -12t-46.5 -5 q-43 0 -73.5 10.5t-51.5 28t-33.5 39t-18 45t-7 46.5z" />
<glyph d="M-627 1967l24 174h158l20 136h285l-20 -136h157l-25 -174h-155l-20 -136h-286l19 136h-157z" />
<glyph d="M-484 1998q0 23 3 43q6 45 29.5 85t58 67.5t80.5 43t96 12.5q29 -3 60 -15.5t49 -28.5q22 16 55.5 28.5t63.5 15.5q50 3 91 -8t68 -35t38.5 -57t5.5 -75q-4 -29 -16 -55t-26 -37q23 4 50.5 14t57 24.5t57 32.5t52.5 40l-22 -164q-39 -27 -79.5 -45.5t-82.5 -29.5t-86 -16 t-88 -6h-38.5t-38.5 2t-34.5 4t-25.5 5l14 100q48 -7 78.5 14.5t38.5 74.5q6 39 -6.5 58.5t-32.5 19.5q-21 0 -39.5 -18t-24.5 -49h-117q5 31 -5.5 49t-33.5 18q-19 0 -35.5 -19.5t-22.5 -58.5q-8 -54 17 -75t72 -14l-12 -97q-14 -7 -38.5 -12t-46.5 -5q-43 0 -74.5 10.5 t-52.5 28t-33.5 39t-18 45t-5.5 46.5z" />
<glyph d="M-805 1304l27 192h796l-26 -192h-797z" />
<glyph d="M-812 1304l27 192h479l28 197h317l-56 -389h-795z" />
<glyph d="M-805 1304l27 192h405v7t3 12q9 45 32.5 85t58 69.5t77.5 45.5q44 17 88 17q47 0 84.5 -18t64 -48.5t39 -72.5t5.5 -88q-5 -47 -29 -84t-53.5 -63t-61.5 -40t-57 -14h-683zM-214 1505q-4 -27 12 -48q19 -20 46 -20q14 0 26.5 5.5t23.5 14.5t18 21.5t10 26.5q4 28 -13 48 t-45 20q-14 0 -28 -5.5t-23.5 -14.5t-16.5 -21.5t-10 -26.5z" />
<glyph d="M-812 1304l28 192h227l27 196h219l-28 -196h133l28 196h217l-56 -388h-795z" />
<glyph d="M-738 1537q8 67 41 114.5t78.5 78t104 44.5t118.5 14h477l-24 -174h-445q-18 0 -36 -1t-33.5 -8.5t-26.5 -23.5t-14 -44q-2 -19 2 -31.5t12.5 -21t19.5 -12.5t22 -4q25 0 43 5.5t33.5 15t25.5 22.5q9 12 18 26h86q11 -25 24 -38.5t28.5 -20.5t33 -8.5t36.5 -1.5 q17 0 35 1.5t37.5 6t40 15t45.5 27.5l-26 -181q-18 -18 -37.5 -28.5t-39.5 -16t-38 -7.5t-34 -2q-34 0 -61.5 11t-48 29t-34.5 41t-20 45q-14 -22 -41 -44t-59.5 -40t-68.5 -29.5t-67 -12.5q-120 0 -172.5 67.5t-34.5 186.5z" />
<glyph d="M-992 1304l27 192h1122l-26 -192h-1123z" />
<glyph d="M-992 1304l26 192h794l27 197h328l-54 -389h-1121z" />
<glyph d="M-992 1304l27 192h718v7t2 12q9 45 32.5 85t58 69.5t76.5 46t88 16.5q47 0 85 -18t64.5 -48.5t39 -72.5t5.5 -88q-5 -47 -28.5 -84t-53.5 -63t-63 -40t-58 -14h-993zM-89 1505q-4 -27 13 -48q18 -20 45 -20q14 0 26.5 5.5t24 14.5t18 21.5t9.5 26.5t-1 26.5t-12.5 21.5 t-19.5 14.5t-25 5.5t-28 -5.5t-23.5 -14.5t-16.5 -21.5t-10 -26.5z" />
<glyph d="M-992 1304l27 192h444l28 196h265l-28 -196h148l27 196h264l-54 -388h-1121z" />
<glyph d="M-97 1831l50 361h297l-50 -361h-297z" />
<glyph d="M-367 1865l15 114q42 10 63.5 31.5t24.5 49.5q3 19 -4 31.5t-21 21t-31 10.5q-16 1 -32 1l14 113q25 8 66 14q38 6 89 6q44 0 76 -13.5t51.5 -34.5t28 -46t3.5 -47q-2 -21 -10 -40t-17.5 -33t-20.5 -25t-20 -16q45 0 90.5 2.5t92.5 11t93.5 22.5t93.5 36l-24 -164 q-23 -13 -56.5 -24.5t-71.5 -21.5t-80 -18q-40 -8 -82 -11q-53 -4 -99 -4t-86 3.5t-76 10.5q-37 9 -70 20z" />
<glyph d="M-451 1998q-1 23 2 43q6 45 29.5 85t59 67.5t80.5 43.5q46 15 97 12q29 -3 58.5 -15.5t48.5 -28.5q22 16 54.5 28.5t64.5 15.5q50 3 91 -8t68 -35t39 -57t6 -75q-4 -29 -15.5 -55t-28.5 -37q22 4 50.5 14t58 24.5t58 32.5t53.5 40l-23 -164q-39 -27 -80.5 -45.5 t-83 -29.5t-85.5 -16t-88 -6h-37t-39.5 2t-35 4t-23.5 5l14 100q47 -7 77 15q28 21 37 74q5 39 -7.5 58.5t-32 19.5t-37.5 -18t-23 -49h-117q3 31 -7 49t-34 18q-19 0 -35 -19.5t-22 -58.5q-8 -54 17 -75t72 -14l-13 -97q-14 -7 -38 -12t-46 -5q-43 0 -74.5 10.5t-52 28 t-33 39t-18 45t-6.5 46.5z" />
<glyph d="M-217 1967l25 174h156l19 136h287l-20 -136h156l-24 -174h-157l-19 -136h-284l18 136h-157z" />
<glyph d="M-922 -332l27 190h425l-53 -375h-294l26 185h-131z" />
<glyph d="M-1091 -332l26 190h353l-18 -130q-3 -14 3.5 -24t16 -17t23.5 -11t28 -4t27 4t24.5 11t19 17t8.5 24l18 130h287l-20 -143q-8 -58 -36.5 -101.5t-75 -72.5t-107.5 -43.5t-134 -14.5h-83q-50 0 -94.5 9.5t-77 30t-51.5 51t-16 72.5l3 22h-124z" />
<glyph d="M-836.5 -292q5.5 36 23.5 69.5t45 57t61 37.5t70 14q37 0 67.5 -14t51 -37.5t30.5 -56.5q10 -34 4.5 -70t-23.5 -68t-46 -55.5t-61.5 -37.5t-70.5 -14q-36 0 -66 14t-51 37.5t-30.5 55.5t-4 68z" />
<glyph d="M-859 -332l28 190h425l-53 -375h-294l25 185h-131z" />
<glyph d="M-1216 -332l26 190h353l-18 -130q-3 -14 3.5 -24t16 -17t23.5 -11t28 -4t27 4t24.5 11t19 17t8.5 24l18 130h287l-20 -143q-8 -58 -36.5 -101.5t-75 -72.5t-108 -43.5t-133.5 -14.5h-83q-50 0 -94.5 9.5t-77.5 30t-51.5 51t-15.5 72.5l2 22h-123z" />
<glyph d="M-732.5 -292q5.5 36 23.5 69.5t45 57t61 37.5q36 14 72 14t66.5 -14t51.5 -37.5t30 -56.5q10 -34 4.5 -70t-24 -68t-45.5 -55.5t-62 -37.5t-71 -14t-66.5 14t-51.5 37.5t-30 55.5t-3.5 68z" />
<glyph d="M-762 -332l28 190h425l-52 -375h-295l25 185h-131z" />
<glyph d="M-1126 -332l28 190h353l-19 -130q-3 -14 2.5 -24t16.5 -17t25 -11t28 -4t26.5 4t23.5 11t18.5 17t9.5 24l16 130h289l-20 -143q-9 -58 -37.5 -101.5t-75 -72.5t-107.5 -43.5t-133 -14.5h-82q-51 0 -95.5 9.5t-77.5 30t-52 51t-16 72.5l3 22h-124z" />
<glyph d="M-635.5 -292q5.5 36 23.5 69.5t45.5 57t61.5 37.5q35 14 71 14t67 -14t51.5 -37.5t29.5 -56.5q11 -34 5.5 -70t-24.5 -68t-46 -55.5t-62 -37.5t-71 -14t-66.5 14t-51.5 37.5t-30 55.5t-3.5 68z" />
</font>
</defs>
</svg>
