<?xml version="1.0" standalone="no"?>
<!DOCTYPE svg PUBLIC "-//W3C//DTD SVG 1.1//EN" "http://www.w3.org/Graphics/SVG/1.1/DTD/svg11.dtd" >
<svg xmlns="http://www.w3.org/2000/svg">
<metadata></metadata>
<defs>
<font id="db_gill_siam_xregular" horiz-adv-x="0" >
<font-face units-per-em="2048" ascent="1638" descent="-410" />
<missing-glyph horiz-adv-x="645" />
<glyph unicode="&#x2b;&#x2d;" horiz-adv-x="1234" d="M129 0v174h978v-174h-978zM129 816v175h403v415h171v-415h404v-175h-404v-416h-171v416h-403z" />
<glyph unicode="&#x2e;&#x2e;&#x2e;" horiz-adv-x="2115" d="M221 134q0 33 11.5 61t32.5 49t49 32.5t61 11.5q32 0 59.5 -11.5t48.5 -32.5t33.5 -49t12.5 -61q0 -32 -12.5 -60t-33.5 -49t-49 -33t-59 -12q-32 0 -60.5 12t-49.5 33t-32.5 49t-11.5 60zM904 134q0 33 12 61t33 49t49 32.5t60 11.5q33 0 61 -11.5t49 -32.5t32.5 -49 t11.5 -61q0 -32 -11.5 -60t-32.5 -49t-49 -33t-61 -12q-32 0 -60 12t-49 33t-33 49t-12 60zM1588 134q0 33 11.5 61t32.5 49t49 32.5t61 11.5q32 0 60 -11.5t49 -32.5t33 -49t12 -61q0 -32 -12 -60t-33 -49t-49 -33t-60 -12q-33 0 -61 12t-49 33t-32.5 49t-11.5 60z" />
<glyph unicode="&#x3c;&#x3d;" horiz-adv-x="1230" d="M123 820v166l986 420v-199l-781 -303v-2l781 -303v-199zM129 0v174h978v-174h-978z" />
<glyph unicode="&#x3e;&#x3d;" horiz-adv-x="1230" d="M123 0v174h980v-174h-980zM123 400v199l781 303v2l-781 303v199l986 -420v-166z" />
<glyph unicode="&#xe4f;&#x22;" horiz-adv-x="1257" d="M32 571q0 83 22 159t60.5 142.5t93 121.5t121 93.5t142 60t159.5 21.5q83 0 159 -21.5t142 -60t120.5 -93.5t93.5 -121.5t60 -142t21 -159.5q0 -82 -21 -158.5t-60 -142.5t-93.5 -120.5t-120.5 -93.5t-143 -60t-158 -21q-83 0 -159 21t-142.5 60t-121 93.5t-93 120.5 t-60.5 142.5t-22 158.5zM188 571q0 -92 34 -172t94.5 -140t141 -95t172.5 -35t172 35t140 95t95 141q35 79 35 171q0 93 -35 173.5t-95 140.5t-140 94q-80 35 -172 35t-172.5 -34.5t-141 -94.5t-94.5 -140.5t-34 -173.5zM356 571q0 56 21.5 106.5t58.5 87.5t87 59 q51 22 107 22t105.5 -22t87 -59t58.5 -87q21 -51 21 -107t-21 -105.5t-58.5 -86.5t-87 -58t-105.5 -21t-106.5 21t-87.5 58t-58.5 86.5t-21.5 105.5zM356 1408v255h197v-255l-31 -156h-136zM501 571q0 -26 10.5 -49.5t28 -40t40 -26.5t50.5 -10q25 0 49 10t40.5 26.5 t26.5 40.5t10 49t-10 49t-26.5 41.5t-40.5 28t-49 10.5q-27 0 -50 -10.5t-40.5 -28t-28 -41.5t-10.5 -49zM714 1408v255h199v-255l-31 -156h-136z" />
<glyph unicode="&#xe0e;&#xe3a;" horiz-adv-x="1398" d="M42 0v171h174v574q0 91 20 159t55 116t83.5 79.5t103.5 50t116 25.5t123 7q61 0 123 -7t117 -25.5t103.5 -49t83.5 -79.5t54 -117q20 -67 20 -159v-1078h-263q-51 45 -114 68.5t-140 23.5q-33 0 -71.5 -7t-75.5 -19.5t-70 -28t-58 -32.5v168q22 16 51.5 32t64.5 27 t74 19.5t78 8.5q31 0 67 -2.5t73.5 -12.5t77 -28t78.5 -49v869q0 65 -12 112.5t-31.5 80.5t-47 53t-57.5 30.5t-62 15t-63 4.5t-62.5 -4.5t-61.5 -15t-57.5 -30.5t-47.5 -53t-31.5 -80t-11.5 -113v-704h-403zM944 -568q0 -31 11.5 -60t32 -50t48.5 -32.5t60 -11.5 q31 0 59.5 11.5t49.5 32.5t33 49q12 30 12 61q0 30 -12 58t-33 49t-49 33t-60 12q-31 0 -59.5 -12t-49 -33t-32 -49t-11.5 -58z" />
<glyph unicode="&#xe0f;&#xe3a;" horiz-adv-x="1398" d="M42 0v171h174v574q0 91 20 159t55 116t83.5 79.5t103.5 50t116 25.5t123 7q61 0 123 -7t117 -25.5t103.5 -49t83.5 -79.5t54 -117q20 -67 20 -159v-1080h-263q-35 45 -83.5 71t-104.5 26q-19 0 -46.5 -4t-56 -15.5t-57.5 -31t-53 -51.5l-324 96v180l317 -101 q42 45 101 68.5t119 23.5q20 0 48 -2.5t57.5 -12.5t60 -27t57.5 -43v862q0 65 -12 112.5t-31.5 80.5t-47 53t-57.5 30.5t-62 15t-63 4.5t-62.5 -4.5t-61.5 -15t-57.5 -30.5t-47.5 -53t-31.5 -80t-11.5 -113v-704h-403zM944 -568q0 -31 11.5 -60t32 -50t48.5 -32.5t60 -11.5 q31 0 59.5 11.5t49.5 32.5t33 49q12 30 12 61q0 30 -12 58t-33 49t-49 33t-60 12q-31 0 -59.5 -12t-49 -33t-32 -49t-11.5 -58z" />
<glyph unicode="&#xe0e;&#xe38;" horiz-adv-x="1398" d="M42 0v171h174v574q0 91 20 159t55 116t83.5 79.5t103.5 50t116 25.5t123 7q61 0 123 -7t117 -25.5t103.5 -49t83.5 -79.5t54 -117q20 -67 20 -159v-1078h-263q-51 45 -114 68.5t-140 23.5q-33 0 -71.5 -7t-75.5 -19.5t-70 -28t-58 -32.5v168q22 16 51.5 32t64.5 27 t74 19.5t78 8.5q31 0 67 -2.5t73.5 -12.5t77 -28t78.5 -49v869q0 65 -12 112.5t-31.5 80.5t-47 53t-57.5 30.5t-62 15t-63 4.5t-62.5 -4.5t-61.5 -15t-57.5 -30.5t-47.5 -53t-31.5 -80t-11.5 -113v-704h-403zM874 -442v-180h128v-201h216v381h-344z" />
<glyph unicode="&#xe0f;&#xe38;" horiz-adv-x="1398" d="M42 0v171h174v574q0 91 20 159t55 116t83.5 79.5t103.5 50t116 25.5t123 7q61 0 123 -7t117 -25.5t103.5 -49t83.5 -79.5t54 -117q20 -67 20 -159v-1080h-263q-35 45 -83.5 71t-104.5 26q-19 0 -46.5 -4t-56 -15.5t-57.5 -31t-53 -51.5l-324 96v180l317 -101 q42 45 101 68.5t119 23.5q20 0 48 -2.5t57.5 -12.5t60 -27t57.5 -43v862q0 65 -12 112.5t-31.5 80.5t-47 53t-57.5 30.5t-62 15t-63 4.5t-62.5 -4.5t-61.5 -15t-57.5 -30.5t-47.5 -53t-31.5 -80t-11.5 -113v-704h-403zM874 -442v-180h128v-201h216v381h-344z" />
<glyph unicode="&#xe0e;&#xe39;" horiz-adv-x="1401" d="M42 0v171h174v574q0 91 20 159t55 116t83.5 79.5t103.5 50t116 25.5t123 7q61 0 123 -7t117 -25.5t103.5 -49t83.5 -79.5t54 -117q20 -67 20 -159v-1078h-263q-51 45 -114 68.5t-140 23.5q-33 0 -71.5 -7t-75.5 -19.5t-70 -28t-58 -32.5v168q22 16 51.5 32t64.5 27 t74 19.5t78 8.5q31 0 67 -2.5t73.5 -12.5t77 -28t78.5 -49v869q0 65 -12 112.5t-31.5 80.5t-47 53t-57.5 30.5t-62 15t-63 4.5t-62.5 -4.5t-61.5 -15t-57.5 -30.5t-47.5 -53t-31.5 -80t-11.5 -113v-704h-403zM526 -440v-179h124l-2 -36q3 -42 26 -73t60 -52t84 -30.5 t96 -9.5h27q145 0 211 60t66 175v145h-213v-168q0 -28 -21 -44.5t-57 -16.5q-39 0 -61.5 16.5t-22.5 44.5v168h-317z" />
<glyph unicode="&#xe0f;&#xe39;" horiz-adv-x="1398" d="M42 0v171h174v574q0 91 20 159t55 116t83.5 79.5t103.5 50t116 25.5t123 7q61 0 123 -7t117 -25.5t103.5 -49t83.5 -79.5t54 -117q20 -67 20 -159v-1080h-263q-35 45 -83.5 71t-104.5 26q-19 0 -46.5 -4t-56 -15.5t-57.5 -31t-53 -51.5l-324 96v180l317 -101 q42 45 101 68.5t119 23.5q20 0 48 -2.5t57.5 -12.5t60 -27t57.5 -43v862q0 65 -12 112.5t-31.5 80.5t-47 53t-57.5 30.5t-62 15t-63 4.5t-62.5 -4.5t-61.5 -15t-57.5 -30.5t-47.5 -53t-31.5 -80t-11.5 -113v-704h-403zM526 -440v-179h124l-2 -36q3 -42 26 -73t60 -52 t84 -30.5t96 -9.5h27q145 0 211 60t66 175v145h-213v-168q0 -28 -21 -44.5t-57 -16.5q-39 0 -61.5 16.5t-22.5 44.5v168h-317z" />
<glyph unicode="&#xd;" horiz-adv-x="729" />
<glyph unicode=" "  horiz-adv-x="645" />
<glyph unicode="&#x09;" horiz-adv-x="645" />
<glyph unicode="&#xa0;" horiz-adv-x="645" />
<glyph unicode="!" horiz-adv-x="572" d="M140 137q0 32 12.5 60t33.5 49t49 33t59 12q32 0 61 -12t50 -33t32 -49t11 -60t-11 -60t-32 -49t-49 -33t-62 -12q-32 0 -59.5 12t-48.5 33t-33.5 49t-12.5 60zM172 1282q0 93 30 137.5t92 44.5t92 -44q30 -45 30 -138q0 -60 -4.5 -130t-10.5 -143.5t-14.5 -145 t-18.5 -135.5t-18 -116t-17 -86q-5 -23 -10 -36.5t-10 -20.5t-10.5 -8.5t-8.5 -1.5t-8.5 1.5t-10.5 8.5t-10 21t-10 36q-7 34 -16 86t-19 116t-18.5 135.5t-14.5 145t-10.5 144.5t-4.5 129z" />
<glyph unicode="&#x22;" horiz-adv-x="1013" d="M179 1260v255h230v-255l-46 -274h-139zM605 1260v255h229v-255l-44 -274h-140z" />
<glyph unicode="#" horiz-adv-x="1292" d="M67 358v154h184l74 356h-258v155h291l90 419h175l-88 -419h358l90 419h175l-88 -419h156v-155h-190l-76 -356h266v-154h-296l-90 -420h-176l89 420h-358l-90 -420h-176l89 420h-151zM426 512h359l75 356h-359z" />
<glyph unicode="$" horiz-adv-x="1146" d="M104 1014q0 78 28.5 142.5t81.5 112.5t129 78q77 28 169 36v135h115v-135q83 -5 166 -26t179 -63v-166q-90 45 -177.5 70.5t-167.5 29.5v-448q51 -21 100.5 -43.5t95.5 -50t86 -60t70 -72t47.5 -87.5t17.5 -107q0 -83 -31.5 -150t-86.5 -116t-132 -78.5t-167 -35.5v-203 h-115v202q-64 3 -117 15t-98.5 27t-84 33.5t-75.5 36.5v167q87 -51 184 -80q99 -30 191 -37v476q-8 3 -15 6.5t-15 6.5q-45 20 -90.5 39.5t-88.5 43t-79 52.5t-63 65.5t-42 82t-15 101.5zM305 1036q0 -42 14 -72t40.5 -53t64.5 -42t88 -40v392q-46 -7 -84.5 -22t-65 -38 t-42 -54.5t-15.5 -70.5zM627 143q95 14 147.5 67t52.5 134q0 51 -16 88t-44 63t-64.5 45t-75.5 34v-431z" />
<glyph unicode="%" horiz-adv-x="1520" d="M62 1131q0 69 26.5 130t71 105.5t105 70.5t128.5 26q69 0 129 -26t105 -70.5t71.5 -105t26.5 -130.5q0 -68 -26.5 -127.5t-71.5 -105t-105 -71.5t-129 -26q-68 0 -128.5 26t-105 71.5t-71 105t-26.5 127.5zM174 -17l1022 1479h145l-1016 -1479h-151zM207 1134 q0 -39 14 -72.5t39.5 -59t59.5 -40.5q33 -16 72 -16t72.5 15.5t59 41t41 59t15.5 72.5t-15.5 72.5t-41 59t-59 39.5t-72.5 14t-72.5 -14t-59 -39.5t-39.5 -59t-14 -72.5zM798 314q0 68 26 128.5t71.5 106t105.5 70.5t127 25q69 0 130 -25t105.5 -70.5t70.5 -106t26 -128.5 q0 -69 -26 -129t-70.5 -105.5t-105 -71t-130.5 -25.5q-68 0 -127.5 25.5t-105 71t-71.5 105.5t-26 129zM942 315q0 -39 15 -72.5t40 -59t58.5 -40t72.5 -14.5q40 0 73.5 14.5t58.5 40t40 59.5t15 72q0 39 -15 72.5t-40 59t-58.5 40t-73.5 14.5q-39 0 -72.5 -14.5t-58.5 -40 t-40 -59t-15 -72.5z" />
<glyph unicode="&#x26;" horiz-adv-x="1586" d="M127 318q-1 67 24 128t74 117t120.5 107.5t164.5 102.5q-31 39 -63.5 82.5t-57.5 87.5t-40.5 88t-15.5 86q0 76 29.5 139t82.5 109t126 72.5t161 26.5q84 0 153.5 -25t118.5 -68.5t77 -103.5t28 -130q0 -98 -81.5 -192.5t-243.5 -199.5l308 -353q25 25 53 55t57.5 67.5 t56.5 80.5q26 43 49 95l197 -1q-25 -53 -59.5 -109t-74.5 -109.5t-84 -102.5t-89 -88l258 -280h-277l-132 148q-70 -50 -129.5 -82t-117.5 -52t-119.5 -27t-134.5 -7q-90 0 -167 24t-133 69t-86.5 107t-32.5 138zM350 336q0 -18 5.5 -41t14.5 -43q16 -34 41.5 -55t56 -32.5 t65.5 -16.5t69 -5q41 0 86.5 8.5t91.5 24.5t88 39t76 52l-334 385q-25 -15 -53 -35.5t-57.5 -45t-56 -51.5t-47.5 -56.5t-33.5 -61.5t-12.5 -66zM532 1131q0 -31 12.5 -67t32 -72.5t46.5 -71.5q27 -32 52 -60l8 -9q67 42 113.5 80.5t76 74.5t43.5 68t14 63t-12 63t-36 56.5 t-61 39t-87 14.5q-47 0 -84 -12.5t-63.5 -36t-40.5 -57.5t-14 -73z" />
<glyph unicode="'" horiz-adv-x="506" d="M139 1260v255h229v-255l-46 -274h-137z" />
<glyph unicode="(" horiz-adv-x="802" d="M133 658q0 118 17.5 232t48.5 221t75 205t97 183.5t114 158t127 128.5h88q-90 -117 -156.5 -251.5t-111 -278.5t-66.5 -295.5t-22 -302.5q0 -153 22.5 -305.5t66.5 -298.5t110.5 -283.5t156.5 -257.5h-90q-68 56 -130.5 130t-115.5 162.5t-95 187.5t-73 207.5t-47 224 t-16 233.5z" />
<glyph unicode=")" horiz-adv-x="802" d="M102 -487q90 120 156.5 257.5t111 283.5t67 299.5t22.5 304.5t-22.5 302.5t-67 295.5t-111.5 278q-65 135 -154 252h86q66 -56 127 -128.5t114 -158t98 -183.5t76 -205t47.5 -221t16.5 -232t-16 -233.5t-46 -224t-73 -207.5t-96 -187.5t-115.5 -162.5t-129.5 -130h-91z " />
<glyph unicode="*" horiz-adv-x="991" d="M92 924q0 14 10 26q7 12 24 16l302 67v9v5q-72 17 -150 35q-79 17 -152 34q-17 5 -25.5 15.5t-8.5 27.5q0 9 3 18t9 19l40 82q9 18 19.5 29.5t22.5 11.5q11 0 26 -8.5t34 -28.5l196 -201q14 17 35 25l-88 286q-5 16 -5 25q0 19 15 29t45 10h101q30 0 47 -9q16 -11 16 -30 q0 -6 -2 -12q-1 -5 -4 -13l-88 -286q18 -8 35 -24l196 200q17 17 31 27t22 10q11 0 22.5 -12.5t22.5 -32.5l36 -64q20 -35 20 -58q0 -28 -35 -36l-301 -69v-15l301 -66q17 -4 24.5 -14.5t7.5 -24.5q0 -11 -5 -25q-3 -14 -12 -28l-35 -61q-14 -25 -25 -38q-13 -13 -24 -13 q-7 0 -15 4q-7 4 -18 15l-213 219q-14 -16 -35 -24l88 -284q6 -14 6 -26q0 -19 -15.5 -29.5t-40.5 -10.5h-108q-27 0 -43.5 7.5t-16.5 30.5q0 11 5 28l88 285q-21 9 -35 23l-196 -202q-15 -14 -29.5 -23t-26.5 -9t-22.5 9.5t-19.5 28.5l-42 75q-14 25 -14 45z" />
<glyph unicode="+" horiz-adv-x="1234" d="M129 636v175h403v414h171v-414h404v-175h-404v-416h-171v416h-403z" />
<glyph unicode="," horiz-adv-x="572" d="M141 98q0 25 10.5 49t27.5 42t41 29q24 12 52 12q36 0 67 -15.5t52.5 -43.5t33.5 -66t12 -84q0 -71 -22 -132t-59 -109.5t-87.5 -80.5t-108.5 -46v67q30 13 52 30.5t36.5 36t21.5 39t7 40.5q0 28 -7.5 54.5t-24.5 48.5q-22 6 -41 18t-33 28.5t-22 38.5t-8 44z" />
<glyph unicode="-" horiz-adv-x="854" d="M129 630v185h596v-185h-596z" />
<glyph unicode="." horiz-adv-x="572" d="M133 134q0 33 12 60t33 48t49 33.5t60 12.5t60 -12.5t49 -33.5t33 -49t12 -59q0 -32 -12 -60.5t-33 -49.5t-49 -32.5t-60 -11.5t-60 11.5t-49 32.5t-33 49.5t-12 60.5z" />
<glyph unicode="/" horiz-adv-x="595" d="M42 -20l372 1484h147l-372 -1484h-147z" />
<glyph unicode="0" horiz-adv-x="1197" d="M84 697q0 121 19.5 220t53 177.5t81.5 138t105 99t123 58t136 18.5q116 0 210.5 -51t162 -144t103 -223t35.5 -287t-33 -288.5t-98 -227t-159.5 -150t-216.5 -54.5q-120 0 -216.5 51t-164.5 144.5t-104.5 225t-36.5 293.5zM308 680q0 -128 21.5 -222.5t61.5 -157 t93.5 -92t117.5 -29.5q70 0 123 36.5t89.5 106.5t56 172t19.5 234q0 126 -21.5 217t-60 150.5t-91.5 88t-118 28.5q-73 0 -127.5 -36t-91 -105t-54.5 -167q-18 -100 -18 -224z" />
<glyph unicode="1" horiz-adv-x="1197" d="M487 0v1389h223v-1389h-223z" />
<glyph unicode="2" horiz-adv-x="1197" d="M158 0l2 36q106 115 211 235t203 247q59 74 100 139t68 123.5t39.5 109.5t12.5 97q0 63 -16 108t-48.5 74t-79.5 42.5t-107 13.5q-36 0 -81.5 -7.5t-95.5 -23t-100 -40.5q-50 -26 -95 -59v186q59 36 110.5 61.5t102 40t99.5 20t104 5.5q92 0 171 -24.5t136.5 -72.5 t89.5 -121t32 -167q0 -79 -23 -163t-77.5 -182t-145.5 -217t-227 -268h552v-193h-937z" />
<glyph unicode="3" horiz-adv-x="1197" d="M182 43v192q62 -36 146.5 -60t185.5 -24q66 0 118.5 18.5t89.5 50.5t56 78q20 46 20 100q0 64 -18 107.5t-54.5 70.5t-91.5 40q-54 14 -130 14v176q62 2 111 15t84 40t53 67.5t18 93.5q0 42 -11 80.5t-38 68t-71.5 47t-111.5 17.5q-26 0 -65 -3t-83 -8.5t-88 -16.5 t-81 -25v162q37 14 79 26.5t86.5 21t88 12.5t82.5 4q84 0 148 -13t112 -37t81.5 -56t54.5 -70.5t31 -80.5t13 -84q0 -59 -10 -108.5t-35 -91t-69 -73.5q-43 -32 -113 -55v-3q78 -12 129.5 -45t81.5 -78.5t42.5 -101t12.5 -112.5q0 -98 -35 -177t-101 -133t-162.5 -82.5 t-219.5 -28.5q-41 0 -85 4t-87.5 12.5t-85.5 21t-78 27.5z" />
<glyph unicode="4" horiz-adv-x="1197" d="M98 333v206l742 862h126v-886h139v-182h-139v-333h-220v333h-648zM305 515h441v515z" />
<glyph unicode="5" horiz-adv-x="1197" d="M199 45v185q67 -34 141 -51.5t164 -17.5q34 0 71.5 6.5t72.5 20.5t67.5 33.5t56 46t37.5 59.5q14 34 14 73q0 65 -18 112t-60 77.5t-111.5 45.5t-170.5 15q-82 0 -186 -17v756h720v-202h-532v-371q36 3 71 4.5t72 1.5q120 0 204 -30t136.5 -82.5t76.5 -124t24 -154.5 q0 -109 -40 -192.5t-108.5 -140t-161 -86t-196.5 -29.5q-50 0 -98.5 4.5t-94 12.5t-84 19.5t-67.5 25.5z" />
<glyph unicode="6" horiz-adv-x="1197" d="M134 440q0 67 17 134t48 138.5t74 148.5t94 161l227 367h238l-348 -562q56 19 98 23q40 4 65 4q52 0 103.5 -11t98.5 -33.5t87.5 -56t71.5 -80t47.5 -104t16.5 -127.5q0 -103 -36 -188t-99 -144.5t-150 -93t-188 -33.5q-103 0 -188.5 33.5t-147 93t-95.5 143.5 q-34 86 -34 187zM350 428q0 -54 19.5 -104t54 -86t81.5 -58t101 -22q53 0 100 21t82 58t54.5 86t19.5 105t-19.5 104t-53.5 81.5t-81 51.5t-103 18q-51 0 -97 -16.5t-81 -49.5t-56 -81q-21 -46 -21 -108z" />
<glyph unicode="7" horiz-adv-x="1197" d="M157 1187v202h949l-580 -1389h-239l510 1187h-640z" />
<glyph unicode="8" horiz-adv-x="1197" d="M133 381q0 59 17.5 115t53 103.5t88 83t122.5 53.5q-67 23 -113 58t-74 77t-41 89q-12 48 -12 96q0 81 32 146t89.5 111t140 70.5t183.5 24.5q98 0 179 -24.5t138.5 -70.5t89 -111t31.5 -146q0 -48 -12.5 -95.5t-41.5 -89.5t-75 -77t-113 -58q70 -18 123 -53.5t88 -83 t53.5 -103.5t18.5 -115q0 -90 -32.5 -164t-95.5 -126t-154 -80.5t-205.5 -28.5t-203 28.5t-150 80.5t-93 126t-31.5 164zM356 386q0 -56 20 -100.5t55 -76t82.5 -48.5t101.5 -17q58 0 106.5 17.5t82 48.5t52.5 75.5t19 100.5q0 61 -22.5 106.5t-59 77t-83 47.5t-94.5 16 q-49 0 -96 -16t-83.5 -47.5t-58.5 -77t-22 -106.5zM384 1042q0 -52 19.5 -93.5t51.5 -71t74 -45.5t87 -16t87 16t74 45.5t51 71.5t19 92.5t-19 88.5t-51 64.5t-74 39t-87 12.5t-87.5 -12t-74 -37t-51 -63.5t-19.5 -91.5z" />
<glyph unicode="9" horiz-adv-x="1197" d="M130 946q0 104 36 188t99.5 144t149.5 93t187 33q104 0 190.5 -33t148 -93t95.5 -144t34 -185q0 -67 -17.5 -135t-49 -139.5t-73.5 -147.5t-94 -160l-226 -368h-240l347 561q-56 -18 -96.5 -21.5t-66.5 -3.5q-51 0 -102.5 10.5t-99 33t-88 56.5t-70 79.5t-47 103.5 t-17.5 128zM339 960q0 -56 19.5 -103.5t54.5 -81t82.5 -51.5t103.5 -18q51 0 96.5 16.5t80.5 49t56 80t21 108.5q0 55 -20 104t-54 86t-81 58t-102 21q-53 0 -100 -21t-82 -57.5t-55 -85.5t-20 -105z" />
<glyph unicode=":" horiz-adv-x="572" d="M133 134q0 33 12 61t33 49t49 32.5t60 11.5t60 -11.5t49 -32.5t33 -49t12 -61q0 -32 -12 -60t-33 -49t-49 -33t-60 -12t-60 12t-49 33t-33 49t-12 60zM133 893q0 32 12 61t33 50t49 32t60 11t60 -11t49 -32t33 -49t12 -62q0 -32 -12 -59.5t-33 -48.5t-49 -33.5t-60 -12.5 t-60 12.5t-49 33.5t-33 48.5t-12 59.5z" />
<glyph unicode=";" horiz-adv-x="572" d="M133 893q0 32 12 61t33 50t49 32t60 11t60 -11t49 -32t33 -49t12 -62q0 -32 -12 -59.5t-33 -48.5t-49 -33.5t-60 -12.5t-60 12.5t-49 33.5t-33 48.5t-12 59.5zM141 118q0 25 10.5 49.5t27.5 43.5t41 30t52 11q36 0 67 -15.5t52.5 -43.5t33.5 -66.5t12 -84.5 q0 -71 -22 -132t-59 -108.5t-87 -80.5q-51 -35 -109 -49v68q30 12 52 29.5t36.5 37t21.5 40.5t7 40q0 28 -7.5 55t-24.5 48q-22 6 -41 18t-33 28.5t-22 37.5t-8 44z" />
<glyph unicode="&#x3c;" horiz-adv-x="1234" d="M106 624v213l1024 443v-206l-858 -343l858 -345v-205z" />
<glyph unicode="=" horiz-adv-x="1234" d="M120 456v174h994v-174h-994zM120 832v173h994v-173h-994z" />
<glyph unicode="&#x3e;" horiz-adv-x="1234" d="M106 181v205l857 345l-857 343v206l1024 -443v-213z" />
<glyph unicode="?" horiz-adv-x="793" d="M115 1226l31 177q29 11 57.5 21t61 17t67.5 11t77 4q63 0 117 -19.5t92.5 -56.5t59.5 -93q22 -55 19 -129q-1 -48 -16.5 -88t-37 -74t-48.5 -64t-49 -57t-42 -48t-34.5 -40.5t-28 -37.5t-24.5 -39q-12 -24 -18.5 -48t-10 -47.5t-4 -47.5t-0.5 -48q0 -8 1 -18.5t2 -20.5 t1.5 -18t-0.5 -11q-3 -9 -13.5 -16t-32.5 -7q-31 0 -37 9q-14 14 -22.5 42t-14 58.5t-7 60t0.5 46.5q3 38 9 74.5t17.5 69t24 60.5t24.5 51q20 31 43 61.5t42.5 63t32.5 66t13 72.5q0 38 -11.5 64t-29.5 41t-42 22t-49 7q-18 0 -45.5 -4t-57.5 -12.5t-61.5 -21t-56.5 -32.5z M207 137q0 32 12 59.5t33 48.5t49 33.5t60 12.5t60 -12.5t49 -33.5t33 -49t12 -59q0 -32 -12 -60.5t-33 -49.5t-49 -32.5t-60 -11.5t-60 11.5t-49 32.5t-33 49.5t-12 60.5z" />
<glyph unicode="@" horiz-adv-x="2070" d="M168 717q0 134 33.5 254.5t96 222.5t148.5 185t189.5 140t220.5 88q118 31 242 31q176 0 323 -45.5t252 -134.5t164 -220.5t59 -302.5q0 -89 -22.5 -174.5t-63 -161t-97.5 -138.5t-125 -108t-146 -70t-161 -25q-76 0 -117 28t-50 92q-30 -34 -61 -56t-62 -36t-63 -21 t-68 -7q-54 0 -97 17.5t-77 47.5t-59 70.5t-40.5 86.5t-22.5 98q-7 49 -7 100q2 74 19.5 146t46 138t70 122t91 96.5t107.5 63t123 22.5q33 0 65.5 -7t61.5 -22.5t53 -39.5t42 -57l23 103h172l-154 -738q-6 -30 -0.5 -48.5t18.5 -27.5t29.5 -10.5t35 1.5t33.5 7t24 7 q33 14 69 35t70 50.5t65 70t55 91t37 113.5t13 138q0 68 -13 133.5t-44 126t-79.5 113.5t-118.5 91t-163 60t-213 22q-98 0 -192 -26.5t-177 -74t-152.5 -116t-120 -152.5t-78.5 -182t-28 -207q0 -129 31.5 -230.5t85.5 -178.5t126 -131t151 -89t163 -50.5t160 -15.5 q108 0 199 15.5t170 47t147.5 78.5t130.5 108h221q-31 -53 -78.5 -103.5t-107.5 -97t-134.5 -86t-160 -68t-181.5 -45.5q-94 -17 -200 -17q-98 0 -204.5 21t-206 64.5t-189 111.5t-157 164t-106.5 220q-39 122 -39 279zM734 644q-3 -50 6.5 -91.5t29.5 -71.5t49 -47t69 -17 q53 0 95 25.5t73.5 66t53 91t35.5 100.5t21 95t10 73q6 56 -2.5 101t-28 76.5t-50.5 48t-70 16.5q-48 0 -88.5 -20t-74 -55t-58 -81.5t-40.5 -98t-24.5 -106.5t-5.5 -105z" />
<glyph unicode="A" horiz-adv-x="1612" d="M46 0l658 1443h203l658 -1443h-260q-20 45 -45 101q-20 47 -48 110t-58 136h-698q-30 -73 -58 -136t-48 -110q-24 -56 -43 -101h-261zM536 529h539l-246 569q-6 12 -10 27t-7 29t-5 23.5t-2 12.5q0 -3 -2 -13.5t-5 -23.5t-7 -28.5t-10 -26.5z" />
<glyph unicode="B" horiz-adv-x="1415" d="M203 0v1442h570q102 0 178.5 -28t127.5 -74t76 -106q25 -58 25 -122q0 -47 -12 -93.5t-38.5 -87.5t-69.5 -74q-41 -34 -102 -55v-4q61 -10 111 -31.5t87 -52.5t62 -67.5t42 -76t24 -80.5q7 -42 7 -78q0 -35 -8 -79.5t-27.5 -90t-52.5 -89.5t-83 -77.5t-120 -54.5 t-163 -21h-634zM434 182h297q94 0 153.5 21t94.5 55.5t47 77.5q13 42 13 87q0 64 -21 111.5t-60.5 79t-91 46.5t-113.5 15h-319v-493zM434 857h276q68 0 114.5 21t74.5 52.5t40 65.5t12 62q0 37 -10.5 72t-37.5 64.5t-70 48t-109 18.5h-290v-404z" />
<glyph unicode="C" horiz-adv-x="1484" d="M136 717q0 98 20 191.5t62 177.5t104 155.5t146 122.5t190 80t232 29q70 0 133 -10t118.5 -26t100.5 -38q46 -24 81 -49v-202q-28 20 -65 42t-87.5 40.5t-113.5 29.5t-141 11q-129 0 -230 -43.5t-171 -117t-106.5 -173.5t-36.5 -213q0 -118 36.5 -217.5t105 -172 t168 -114t227.5 -41.5q68 0 124 7t106.5 21t98.5 37q47 25 102 56v-188q-53 -34 -107 -59t-113 -42t-122 -25t-133 -8q-129 0 -234 30.5t-186 84t-139 124.5t-96 154t-56 171t-18 175z" />
<glyph unicode="D" horiz-adv-x="1639" d="M203 0v1442h573q123 0 225 -26.5t182.5 -75.5t141 -116.5t100 -148t59.5 -170.5t20 -185q0 -100 -20 -191.5t-60.5 -172t-102 -145.5t-147 -113t-194.5 -73t-244 -25h-533zM434 182h300q103 0 183 24t138.5 63.5t98 93t63 113.5t33.5 123q10 65 10 123q0 70 -12.5 136 t-38.5 126t-67.5 111.5t-100 88.5t-136.5 58t-176 21h-295v-1081z" />
<glyph unicode="E" horiz-adv-x="1289" d="M203 0v1443h917v-183h-686v-424h650v-182h-650v-472h700v-182h-931z" />
<glyph unicode="F" horiz-adv-x="1225" d="M203 0v1443h892v-183h-661v-424h619v-182h-619v-654h-231z" />
<glyph unicode="G" horiz-adv-x="1628" d="M136 720q0 170 55 309t159 238t248 152.5t323 53.5q76 0 148 -7t135.5 -22t119 -35t97.5 -45l1 -215q-72 40 -135 64.5t-122 37t-117 16.5t-121 4q-112 0 -196 -23.5t-144.5 -65.5t-99.5 -98t-61.5 -118.5t-31.5 -129t-9 -129.5q0 -111 35 -207.5t103 -168t167.5 -112 t227.5 -40.5q45 0 90 5t84 13.5t72.5 19t53.5 21.5v311h-190v182h422v-595q-99 -81 -233.5 -119.5t-303.5 -38.5q-116 0 -219 26.5t-190 74t-155 114.5t-115.5 150t-72.5 178t-25 199z" />
<glyph unicode="H" horiz-adv-x="1694" d="M203 0v1442h228v-612h830v612h230v-1442h-230v647h-830v-647h-228z" />
<glyph unicode="I" horiz-adv-x="663" d="M217 0v1443h231v-1443h-231z" />
<glyph unicode="J" horiz-adv-x="681" d="M-24 -196q74 1 124 23.5t80 64.5t42.5 101.5t12.5 133.5v1316h230v-1309q0 -61 -5.5 -118.5t-20.5 -108t-39 -93.5q-23 -44 -58 -77q-28 -28 -60.5 -49t-71.5 -35t-86.5 -21t-105.5 -7q-11 0 -22 -1q-10 1 -20 1v179z" />
<glyph unicode="K" horiz-adv-x="1481" d="M203 0v1445h230v-675l553 675h296l-592 -667l721 -778h-316l-662 770v-770h-230z" />
<glyph unicode="L" horiz-adv-x="1211" d="M203 0v1442h230v-1260h712v-182h-942z" />
<glyph unicode="M" horiz-adv-x="1819" d="M203 0v1443h217l490 -564l493 564h214v-1443h-228v1109h-14l-465 -522l-466 522h-13v-1109h-228z" />
<glyph unicode="N" horiz-adv-x="1726" d="M203 0v1442h232l852 -1084h7v1084h229v-1442h-204l-878 1114h-7v-1114h-231z" />
<glyph unicode="O" horiz-adv-x="1769" d="M136 722q0 87 20 176.5t61 172.5t103 154t145.5 125t188.5 85t232 31q128 0 233 -31t187.5 -85t144 -126t103 -155t61.5 -171.5t20 -175.5q0 -92 -22.5 -183t-64.5 -173.5t-105.5 -154t-147 -123.5t-185.5 -81t-224 -29q-123 0 -227.5 29t-187 81t-145.5 123.5t-105 154 t-63.5 173.5t-21.5 183zM372 722q0 -117 36.5 -215t104 -169.5t162.5 -110.5t211 -39t210.5 39t161 110.5t103 169.5t36.5 215t-36.5 214t-103 168.5t-161 112t-210.5 40.5q-117 0 -211.5 -40.5t-162 -112t-104 -169.5t-36.5 -213z" />
<glyph unicode="P" horiz-adv-x="1323" d="M203 0v1442h587q75 0 134.5 -18t105 -50.5t78 -74.5t52 -89.5t29 -98t9.5 -95.5q0 -47 -9.5 -98t-30.5 -98t-53.5 -89t-77 -73t-103.5 -49t-132 -18h-355v-591h-234zM433 774h254q66 0 112.5 10t78.5 27.5t49.5 40.5t26.5 49.5t12 55.5t3 57q0 33 -4.5 64t-17 59 t-35 50.5t-57.5 39t-86.5 26.5t-121.5 10h-214v-489z" />
<glyph unicode="Q" horiz-adv-x="1768" d="M136 722q0 87 20 176.5t61 172.5t103 154t145.5 125t188.5 85t232 31q128 0 233 -31t187.5 -85t144 -126t103 -155t61.5 -171.5t20 -175.5q0 -81 -16.5 -161.5t-50.5 -155.5t-82 -140.5t-112.5 -119.5t-143.5 -92.5t-174 -58.5h2q63 -42 129.5 -73.5t133 -52.5t129 -31.5 t117.5 -10.5h22q10 0 21 2l-178 -156q-85 9 -176 37t-182 70t-180 96.5t-169 116.5q-98 16 -179 55.5t-147 93.5t-115 121t-82 142t-49.5 156t-16.5 162zM372 722q0 -117 36.5 -215t104 -169.5t162.5 -110.5t211 -39t210.5 39t161 110.5t103 169.5t36.5 215t-36.5 214 t-103 168.5t-161 112t-210.5 40.5q-117 0 -211.5 -40.5t-162 -112t-104 -169.5t-36.5 -213z" />
<glyph unicode="R" horiz-adv-x="1395" d="M203 0v1443h584q95 0 170.5 -31.5t129 -85t81.5 -123.5q28 -72 28 -147q0 -63 -16.5 -122.5t-52 -113t-92.5 -96.5q-58 -41 -142 -69q42 -25 75.5 -51.5t60.5 -56t48.5 -61t42 -68.5t40 -80t41.5 -93q11 -22 22.5 -52.5t25.5 -62t28 -65t29 -65.5h-266q-10 20 -18 41 t-18.5 46t-23.5 58t-31 76q-33 81 -65.5 150t-70 119t-88 78t-120.5 28h-171v-596h-231zM434 764h237q58 0 110.5 19t92 53.5t61.5 81.5q23 48 23 104q0 50 -17 93.5t-52.5 76t-91 51t-133.5 18.5h-230v-497z" />
<glyph unicode="S" horiz-adv-x="1241" d="M134 1070q0 84 35 156t101 126t157 84.5t202 30.5q51 0 102.5 -5t104 -15.5t107 -25.5t111.5 -38v-176q-61 25 -116.5 42t-104.5 26.5t-92.5 14t-79.5 4.5q-62 0 -114.5 -14t-89.5 -38t-58 -57.5t-21 -75.5q0 -51 21.5 -87t60 -65.5t93.5 -57.5t119 -58 q57 -28 112.5 -52.5t106 -51t92.5 -57t72.5 -71.5t47.5 -92.5t17 -118.5q0 -94 -36.5 -172t-102 -134t-156 -86t-196.5 -30q-80 0 -144.5 9t-118.5 25.5t-101.5 37.5t-93.5 44v175q45 -25 95 -46.5t105 -37t112 -25.5t119 -10q67 0 119 15t88.5 41t54.5 60q18 33 18 75 q0 59 -24 101t-64.5 74t-93.5 57t-112 51q-48 21 -99.5 44t-102 50t-96.5 60t-80.5 76.5t-55 96.5t-20.5 121z" />
<glyph unicode="T" horiz-adv-x="1362" d="M56 1260v183h1252v-183h-511v-1260h-231v1260h-510z" />
<glyph unicode="U" horiz-adv-x="1695" d="M203 571v871h231v-893q0 -93 29.5 -164t83.5 -119.5t129 -73.5q74 -24 167 -24q84 0 159.5 21t133.5 68.5t92.5 125.5t34.5 191v868h229v-868q0 -112 -22 -200t-64 -155.5t-101 -113.5t-130.5 -75.5t-154 -43.5t-172.5 -14q-142 0 -261 35t-204.5 108t-132.5 186t-47 270 z" />
<glyph unicode="V" horiz-adv-x="1453" d="M59 1443h260l417 -1009h3l402 1009h256l-623 -1460h-63z" />
<glyph unicode="W" horiz-adv-x="2352" d="M57 1443h251l363 -953h9l420 953h149l424 -953h10l361 953h252l-571 -1449h-62l-483 1104h-8l-480 -1104h-62z" />
<glyph unicode="X" horiz-adv-x="1554" d="M53 0l598 748l-564 695h292l398 -537l399 537h291l-563 -695l598 -748h-294l-431 574l-430 -574h-294z" />
<glyph unicode="Y" horiz-adv-x="1355" d="M35 1443h281l362 -611l369 611h273l-525 -779l2 -665h-234v665z" />
<glyph unicode="Z" horiz-adv-x="1341" d="M31 0l871 1261h-779v182h1145l-856 -1261h812v-182h-1193z" />
<glyph unicode="[" horiz-adv-x="894" d="M235 -465v2239h577v-153h-392v-1932h392v-154h-577z" />
<glyph unicode="\" horiz-adv-x="595" d="M50 1464h149l372 -1484h-148z" />
<glyph unicode="]" horiz-adv-x="894" d="M84 -311h391v1932h-391v153h577v-2239h-577v154z" />
<glyph unicode="^" horiz-adv-x="1234" d="M174 661l375 782h173l367 -782h-196l-260 616l-263 -616h-196z" />
<glyph unicode="_" horiz-adv-x="1057" d="M-14 -218h1086v-108h-1086v108z" />
<glyph unicode="`" horiz-adv-x="704" d="M80 1431h259l145 -291h-107z" />
<glyph unicode="a" horiz-adv-x="1211" d="M161 239q0 56 17.5 100.5t47.5 79.5t70 60.5t83.5 46t89.5 37.5t90 33l200 66v35q0 51 -12 91.5t-37 70t-63.5 45.5t-92.5 16q-43 0 -90 -10.5t-94 -31.5t-91 -54.5t-83 -78.5v201q64 66 161 102t214 36q81 0 152.5 -21t126 -64t87 -109.5t32.5 -155.5v-546 q0 -31 11 -43.5t31 -12.5q17 0 46 15t63 43v-128q-36 -24 -63 -40t-49 -26t-43 -14t-47 -4q-70 0 -108.5 26.5t-52.5 82.5q-70 -55 -149 -82t-152 -27q-58 0 -111.5 17.5t-94 50t-65 81.5t-24.5 112zM392 253q0 -54 44 -83q43 -29 124 -29q50 0 103.5 23.5t95.5 65.5v295 q-45 -15 -90 -30.5t-85.5 -32.5t-75.5 -36.5t-61 -44.5t-40.5 -56.5t-14.5 -71.5z" />
<glyph unicode="b" horiz-adv-x="1248" d="M182 59v1517h210v-590q64 50 136 74q74 24 158 24q99 0 183 -40t145 -111t96 -168t35 -212q0 -134 -39 -241.5t-112 -181.5t-178 -113t-235 -39q-53 0 -108.5 5.5t-106.5 16.5t-98 25t-86 34zM392 182q31 -11 59 -18t53 -10.5t49 -4.5t48 -1q78 3 139.5 34t103 81.5 t64 117.5t22.5 143q0 84 -22 152.5t-60.5 116.5t-93 74t-121.5 26t-126 -25t-115 -83v-603z" />
<glyph unicode="c" horiz-adv-x="1093" d="M105 511q0 132 37 237.5t105 179.5t165.5 115t217.5 41q46 0 84.5 -4.5t75 -14t73 -26t75.5 -39.5v-202q-34 25 -67.5 44.5t-70 33t-74 20.5t-82.5 7q-73 0 -131 -28t-99.5 -77.5t-63.5 -118.5t-22 -150q0 -82 23.5 -150t70 -118t110.5 -77t147 -27q67 0 140.5 21 t140.5 71v-201q-71 -40 -151.5 -55t-164.5 -15q-119 0 -217.5 39t-170 110.5t-111.5 169.5t-40 214z" />
<glyph unicode="d" horiz-adv-x="1248" d="M105 553q0 115 34.5 212t96 168t145.5 111t183 40q84 0 156 -24t137 -74v590h210v-1517q-39 -20 -85.5 -34t-98 -25t-106.5 -16.5t-108 -5.5q-131 0 -236 39t-178 113t-111.5 181.5t-38.5 241.5zM321 524q0 -76 21.5 -143t63.5 -117.5t103 -81.5q62 -31 141 -34 q23 0 46.5 1t49 4.5t53 10.5t58.5 18v603q-56 56 -115 82t-126 26t-121 -26t-92.5 -74t-60 -116.5t-21.5 -152.5z" />
<glyph unicode="e" horiz-adv-x="1177" d="M105 543q0 121 36.5 221t101.5 170.5t157 109.5q93 40 202 40q106 0 191 -36.5t144.5 -109.5t92.5 -182t33 -258h-741q6 -86 31 -150.5t67 -108t99.5 -66t130.5 -22.5q33 0 79.5 5.5t99.5 24t108 49.5q54 30 107 84v-191q-56 -43 -105 -71t-99 -44t-105 -23t-122 -7 q-82 0 -152 22t-127 60t-99.5 91t-71.5 116t-43.5 133t-14.5 143zM328 638h526q-3 61 -21 110.5t-49.5 85t-76.5 55.5t-101 20q-60 0 -109 -20.5t-85.5 -55.5t-57.5 -85q-21 -51 -26 -110z" />
<glyph unicode="f" horiz-adv-x="670" d="M77 874v187h148v67q0 140 41.5 235.5t118.5 151.5q70 49 163 63q38 6 80 6q60 0 128 -12l-3 -172q-17 6 -40.5 10t-51.5 4q-65 0 -107.5 -18t-68.5 -52t-37 -83t-11 -110v-90h190v-187h-190v-874h-212v874h-148z" />
<glyph unicode="g" horiz-adv-x="1204" d="M106 -195q0 118 64.5 188.5t203.5 104.5q-28 17 -48.5 31.5t-33 28.5t-19 29t-6.5 33q0 25 12 46.5t34 38.5t53.5 30.5t67.5 21.5v4q-59 25 -102.5 59t-73.5 76q-56 84 -56 198q0 86 32 154t92 115.5t145.5 72.5t193.5 25h437v-162h-217q31 -31 52 -58.5t34 -54.5 t18.5 -56.5t5.5 -63t-8 -67t-22 -66t-32 -59.5q-17 -26 -37 -46q-36 -37 -81 -57.5t-92.5 -30.5t-94 -15.5t-82.5 -14t-58 -23.5t-22 -46q0 -23 20.5 -38t61 -29t102 -27t140.5 -29q84 -17 143.5 -46.5t95.5 -68t52.5 -84.5t16.5 -97q0 -78 -34 -141t-99 -107t-158 -66.5 t-211 -22.5q-107 0 -197.5 23.5t-155 65.5t-101 101.5t-36.5 129.5zM305 -185q0 -81 75.5 -121.5t220.5 -40.5q70 0 123.5 9.5t91.5 29.5t57.5 48.5t19.5 64.5q0 34 -16.5 60t-44 45t-63 32t-75 20t-77 10.5t-71.5 3.5q-53 0 -97 -12t-75.5 -33t-50 -50t-18.5 -66zM391 689 q0 -44 14.5 -79.5t42.5 -61.5t67 -40t87 -14q45 0 82.5 15t64.5 41.5t42 63t15 79.5q0 38 -16.5 71.5t-44.5 59.5t-65 40.5t-79 14.5q-44 0 -82.5 -15.5t-67 -41t-44.5 -60t-16 -73.5z" />
<glyph unicode="h" horiz-adv-x="1257" d="M182 0v1579h210v-656h6q30 39 66.5 68.5t77 49.5t84 31.5t88.5 11.5q78 0 144 -27t115 -81.5t75.5 -135.5t26.5 -190v-650h-210v658q0 59 -14 106.5t-41 81t-65.5 52t-86.5 18.5q-35 0 -66.5 -8.5t-63.5 -27t-65 -47.5q-35 -29 -71 -71v-762h-210z" />
<glyph unicode="i" horiz-adv-x="576" d="M162 1383q0 25 10.5 49t28 41t40 26.5t48 9.5t48.5 -9.5t40.5 -26.5t27 -41t9.5 -49t-9.5 -47.5t-27 -40t-40.5 -27t-48.5 -9.5t-48 9.5t-40 27t-28 40t-10.5 47.5zM182 0v1061h211v-1061h-211z" />
<glyph unicode="j" horiz-adv-x="600" d="M84 -375q39 28 63 56t36.5 58t16 60t3.5 61v1201h211v-1173q0 -85 -14 -148t-39.5 -110t-65.5 -82t-92 -63zM185 1383q0 25 9.5 49t26.5 41t39.5 26.5t48.5 9.5t49 -9.5t39.5 -26.5t26.5 -41t10 -49t-10 -47.5t-26.5 -40t-39 -27t-49.5 -9.5q-25 0 -48 9.5t-40 27 t-26.5 40t-9.5 47.5z" />
<glyph unicode="k" horiz-adv-x="1212" d="M185 0v1579h210v-1579h-210zM405 542l470 519h251l-454 -519l549 -542h-284z" />
<glyph unicode="l" horiz-adv-x="589" d="M189 0v1578h211v-1578h-211z" />
<glyph unicode="m" horiz-adv-x="1901" d="M182 0v1061h210v-138q83 81 159 121t152 40q101 0 182 -49t134 -143q34 39 73 73.5t82.5 61t92.5 42t106 15.5q82 0 147 -29.5t111 -84t70.5 -131.5t24.5 -173v-666h-211v658q0 60 -17 106.5t-47 78t-70 47.5t-85 16q-25 0 -55 -9t-61 -27.5t-62.5 -43.5t-59.5 -56v-770 h-210v661q0 64 -15 110.5t-41 76.5t-61 44q-34 14 -73 14t-74 -6.5t-66.5 -22.5t-61.5 -42t-64 -65v-770h-210z" />
<glyph unicode="n" horiz-adv-x="1250" d="M182 0v1061h210v-138h6q30 39 66.5 68.5t77 49.5t84 31.5t88.5 11.5q76 0 141.5 -27t114.5 -79.5t77 -133t28 -189.5v-655h-210v658q0 59 -14 106.5t-41 81t-65.5 52t-86.5 18.5q-35 0 -66.5 -8.5t-63.5 -27t-65 -47.5q-35 -29 -71 -71v-762h-210z" />
<glyph unicode="o" horiz-adv-x="1318" d="M92 542q0 75 20 145t55 130.5t86 109.5t113 84t135 54t151 19q126 0 231 -41t182 -113t120 -171.5t43 -216.5q0 -126 -42 -230.5t-118.5 -178t-181.5 -114.5t-234 -41q-123 0 -225 42t-177 117.5t-116.5 179t-41.5 225.5zM308 542q0 -84 25 -153.5t70 -118.5t108 -75.5 t139 -26.5q84 0 151 26t114 74t72 117t25 155q0 77 -27 141.5t-75 111.5t-115 73.5t-145 26.5q-76 0 -137.5 -26.5t-108 -72.5t-71.5 -110.5t-25 -141.5z" />
<glyph unicode="p" horiz-adv-x="1248" d="M182 -508v1519q39 19 86 33t98 24.5t105.5 16.5t109.5 6q132 0 236 -39.5t177 -113.5t112 -181t39 -242q0 -115 -35 -211.5t-96 -168t-145.5 -110.5t-182.5 -39q-84 0 -157 22.5t-137 74.5v-591h-210zM392 283q56 -56 116 -82q58 -26 125 -26t121.5 26t93 75t60.5 117.5 t22 152.5q0 76 -22.5 143t-64 117.5t-102.5 80.5t-140 33q-24 0 -48 -1t-49 -3.5t-53 -9.5t-59 -18v-605z" />
<glyph unicode="q" horiz-adv-x="1248" d="M105 515q0 135 38.5 242t111.5 181t178 113.5t236 39.5q53 0 108 -6t106.5 -16.5t97.5 -24.5q47 -14 86 -33v-1519h-210v591q-65 -51 -136 -74t-157 -23q-99 0 -183 39t-145.5 110.5t-96 168t-34.5 211.5zM321 546q0 -84 21.5 -152.5t60 -117.5t92.5 -75t121 -26t126 26 t115 82v605q-31 11 -58.5 18t-53 9.5t-49.5 4.5h-28h-18q-79 -3 -140.5 -33t-103.5 -80.5t-63.5 -117.5t-21.5 -143z" />
<glyph unicode="r" horiz-adv-x="979" d="M182 0v1061h210v-243h6q39 70 78 120t77.5 82.5t76.5 47.5q39 16 76 16q64 0 125 -31t127 -93l-111 -182q-25 23 -51 42.5t-52.5 33.5t-50.5 21t-42 7q-55 0 -101.5 -25t-81.5 -69.5t-55.5 -104t-20.5 -127.5v-556h-210z" />
<glyph unicode="s" horiz-adv-x="947" d="M132 76v226q103 -71 194 -105q88 -35 153 -35q32 3 60.5 11.5t49.5 24t34 36.5t13 50q0 28 -21 52.5t-56 48.5t-80 49t-92 53t-91 59t-79 68.5t-57 81.5q-21 46 -21 99q0 67 24.5 120.5t70.5 91t110.5 57.5t144.5 20q75 0 151.5 -22t160.5 -67v-208q-90 59 -169 85.5 t-138 26.5q-32 0 -58 -7t-44 -19.5t-28 -31t-10 -39.5q0 -18 14 -37.5t45 -45.5t80 -57.5t119 -73.5q66 -43 112 -79.5t74 -71t40.5 -70t12.5 -76.5q0 -70 -26.5 -127.5t-72.5 -99.5t-110.5 -64t-140.5 -22q-49 0 -93 5.5t-89 16.5t-90 30q-47 19 -97 46z" />
<glyph unicode="t" horiz-adv-x="898" d="M25 874v22l389 498h26v-333h336v-187h-336v-546q0 -48 14.5 -78t37.5 -49t49 -26q27 -7 50 -7q57 0 115 19.5t123 58.5v-196q-28 -15 -61.5 -28.5t-68 -23t-67.5 -15t-58 -5.5q-87 0 -151.5 25t-107.5 70t-65 106.5t-22 132.5v562h-203z" />
<glyph unicode="u" horiz-adv-x="1255" d="M182 402v659h210v-673q0 -112 54.5 -173t163.5 -61q73 0 137.5 38t114.5 110v759h212v-1061h-212v134q-33 -35 -71 -63.5t-78.5 -49.5t-82.5 -32t-81 -11q-81 0 -148.5 28.5t-116.5 82.5t-75.5 133t-26.5 180z" />
<glyph unicode="v" horiz-adv-x="1132" d="M56 1061h230l287 -652l278 652h226l-469 -1083h-70z" />
<glyph unicode="w" horiz-adv-x="1724" d="M11 1061h226l278 -642l270 642h156l271 -642l276 642h226l-469 -1083h-66l-315 743l-312 -743h-68z" />
<glyph unicode="x" horiz-adv-x="1226" d="M34 0l448 540l-448 521h266l313 -364l303 364h270l-438 -521l469 -540h-271l-333 381l-313 -381h-266z" />
<glyph unicode="y" horiz-adv-x="1132" d="M49 1061h239l286 -598l274 598h237l-738 -1571h-234l348 737z" />
<glyph unicode="z" horiz-adv-x="1135" d="M98 0l577 888h-552v173h907l-576 -879h579v-182h-935z" />
<glyph unicode="{" horiz-adv-x="814" d="M112 585v136q70 8 112 37t64.5 76.5t30 112t7.5 142.5v324q0 105 26 175t74.5 110.5t116.5 57.5q70 16 154 16h39v-151h-30q-45 0 -76 -4t-52.5 -15.5t-34 -32.5t-19 -53t-9.5 -77t-3 -108v-245q0 -84 -9.5 -151.5t-32.5 -120t-63 -92t-99 -67.5v-5q59 -28 99 -66.5 t63 -91t32.5 -120t9.5 -152.5v-245q0 -62 3 -108t9.5 -78.5t19 -52.5t34 -31.5t52.5 -15.5t76 -4l30 1v-152h-39q-84 0 -153 16.5t-117.5 58t-74.5 111t-26 174.5v323q0 80 -7.5 144.5t-30 111t-65.5 75.5q-41 29 -111 37z" />
<glyph unicode="|" horiz-adv-x="595" d="M218 -463v2235h160v-2235h-160z" />
<glyph unicode="}" horiz-adv-x="814" d="M78 -314l31 -1q44 0 75.5 4t53 15.5t34 31.5t19 52.5t9 78.5t2.5 108v245q0 84 10 152t33 120.5t63 91t99 66.5v5q-59 28 -99 67.5t-63 92t-33 120t-10 151.5v245q0 62 -2.5 107.5t-9 77.5t-19 53t-34 32.5t-52.5 15.5t-76 4h-31v151h40q84 0 153 -16.5t117.5 -57 t74.5 -110.5t26 -175v-324q0 -80 7.5 -143.5t30 -111t65.5 -76.5q41 -29 111 -37v-136q-70 -8 -112 -37t-64.5 -75.5t-30 -111t-7.5 -144.5v-323q0 -105 -26 -174.5t-74.5 -111t-116.5 -57.5q-70 -17 -154 -17h-40v152z" />
<glyph unicode="~" horiz-adv-x="1234" d="M64 456v181q38 34 77.5 57t76.5 35.5t69 18t55 5.5q39 0 78 -7t75 -18t70 -25t65 -28q36 -17 71 -34t71 -29.5t73.5 -21t81.5 -8.5q64 0 121.5 24t121.5 66v-176q-25 -23 -53 -41t-60 -30.5t-68.5 -19.5t-78.5 -7q-64 0 -133 18t-150 57q-42 20 -79.5 37.5t-71.5 29.5 t-67.5 19t-66.5 7q-27 0 -60 -6t-69.5 -19t-74 -34t-74.5 -51z" />
<glyph unicode="&#xa2;" horiz-adv-x="1057" d="M102 701q0 118 32.5 218t92 174.5t144.5 120.5t190 57v172h122v-172q32 -3 62.5 -7.5t58.5 -14t56 -23.5q30 -14 61 -32v-175q-56 39 -113.5 60t-124.5 27v-774q31 0 64.5 3.5t66.5 12.5t66 23.5t64 35.5v-175q-59 -30 -125 -45q-66 -16 -136 -19v-168h-122v174 q-100 14 -185 58.5t-146 114.5t-94.5 161t-33.5 193zM302 720q0 -70 18.5 -130.5t52 -109.5t81 -82.5t107.5 -50.5v751q-58 -14 -106 -49t-81.5 -85t-52.5 -112t-19 -132z" />
<glyph unicode="&#xa3;" horiz-adv-x="1101" d="M154 -6q6 37 15.5 88t21 110.5t24 122.5t25.5 124.5t26.5 117.5t24.5 101h-129v151h167q27 91 51 167q26 77 57 147q26 59 57.5 111.5t65.5 88.5q28 28 61.5 52.5t70.5 41.5t77 26.5t82 9.5h11l48 -120q-78 0 -144 -42t-108 -118q-18 -33 -33.5 -68t-31.5 -78.5 t-32 -96.5q-15 -54 -35 -121h147v-151h-190q-11 -34 -21 -73t-19 -81t-19 -83q-10 -40 -17 -79q-18 -90 -35 -182q37 11 76 18t70 7q14 0 32 -1.5t39 -5t42 -8.5t40 -8q19 -4 42 -9t48.5 -8.5t48.5 -5.5q24 -2 44 -2q43 0 72 5.5t48 14.5l16 -146q-25 -11 -60 -19 q-34 -9 -76 -9q-14 0 -29.5 1.5t-32 4.5t-37.5 7t-48 10q-59 11 -129.5 20.5t-140.5 9.5q-80 0 -148 -12.5t-135 -29.5z" />
<glyph unicode="&#xa5;" horiz-adv-x="1167" d="M62 1443h218l300 -575l310 575h216l-346 -592h315v-157h-395v-165h395v-159h-395v-370h-198v370h-390v159h390v165h-390v157h308q-42 70 -84 145.5t-85 151.5t-85 150t-84 145z" />
<glyph unicode="&#xa9;" horiz-adv-x="1565" d="M25 720q0 103 27.5 201t77 182t118 152.5t152.5 118.5t182 77t202 27t200.5 -27t180.5 -77t154 -118.5t119 -152.5t75 -181q27 -99 27 -202q0 -104 -26.5 -200.5t-75.5 -180.5t-119 -154t-154 -119t-180.5 -75.5t-200.5 -26.5t-202 26.5t-182 75.5t-152.5 119t-118 154 t-77 180.5t-27.5 200.5zM162 720q0 -86 22.5 -165t63 -147.5t97.5 -125.5t125.5 -97.5t147.5 -62t166 -21.5q85 0 164.5 21.5t148 62t125 97.5t97 125.5t62.5 148.5t22 164q0 85 -22 165t-62.5 148.5t-97 125t-125 97t-148.5 63t-164 22.5q-85 0 -165 -22.5t-148.5 -63 t-125.5 -97t-97.5 -125t-63 -148.5t-22.5 -165zM417 714q0 98 26.5 176.5t75.5 133t119 84t157 29.5q65 0 118.5 -18.5t95 -53.5t68.5 -84q26 -49 35 -113h-131q-5 31 -21 59t-40.5 48t-58.5 32t-76 12q-51 0 -92 -20t-69 -58.5t-43 -94t-15 -125.5t15 -125.5t44.5 -94.5 t72.5 -60t97 -21q34 0 64.5 11t56.5 31t43.5 48t23.5 63h134q-5 -63 -34.5 -112t-74.5 -83.5t-100 -52.5q-54 -18 -113 -18q-87 0 -157 28.5t-119 81.5t-75.5 129t-26.5 168z" />
<glyph unicode="&#xab;" horiz-adv-x="1255" d="M126 484l340 462h233l-366 -462l366 -462h-233zM573 484l340 462h232l-364 -462l364 -462h-232z" />
<glyph unicode="&#xad;" horiz-adv-x="854" d="M129 630v185h596v-185h-596z" />
<glyph unicode="&#xae;" horiz-adv-x="1565" d="M25 720q0 103 27.5 201t77 182t118 152.5t152.5 118.5t182 77t202 27t200.5 -27t180.5 -77t154 -118.5t119 -152.5t75 -181q27 -99 27 -202q0 -104 -26.5 -200.5t-75.5 -180.5t-119 -154t-154 -119t-180.5 -75.5t-200.5 -26.5t-202 26.5t-182 75.5t-152.5 119t-118 154 t-77 180.5t-27.5 200.5zM162 720q0 -86 22.5 -165t63 -147.5t97.5 -125.5t125.5 -97.5t147.5 -62t166 -21.5q85 0 164.5 21.5t148 62t125 97.5t97 125.5t62.5 148.5t22 164q0 85 -22 165t-62.5 148.5t-97 125t-125 97t-148.5 63t-164 22.5q-85 0 -165 -22.5t-148.5 -63 t-125.5 -97t-97.5 -125t-63 -148.5t-22.5 -165zM501 344v765h378q59 0 104 -16t73.5 -44t43 -65.5t14.5 -81.5q0 -42 -14 -80.5t-41 -69t-68.5 -50t-97.5 -24.5v-6q27 -10 48 -22t41 -33t41 -53t49 -81q20 -35 40 -69q22 -35 42 -70h-166l-61 122q-23 42 -46.5 79t-47.5 63 q-27 25 -60.5 40.5t-72.5 15.5h-67v-320h-132zM633 759h180q45 0 75 12t50 30.5t27.5 42.5t7.5 46q0 59 -45.5 91.5t-132.5 32.5h-162v-255z" />
<glyph unicode="&#xbb;" horiz-adv-x="1255" d="M126 22l364 462l-364 462h232l341 -462l-341 -462h-232zM573 22l365 462l-365 462h232l340 -462l-340 -462h-232z" />
<glyph unicode="&#xbc;" horiz-adv-x="1895" d="M267 633v759h171v-759h-171zM319 -57l983 1493h143l-986 -1493h-140zM1051 185v106l394 471h101v-481h72v-96h-72v-185h-166v185h-329zM1166 281h214v259z" />
<glyph unicode="&#xbd;" horiz-adv-x="1895" d="M267 633v759h171v-759h-171zM291 -57l983 1493h143l-986 -1493h-140zM1148 0v8q90 96 153.5 173t105 141t59.5 114.5t18 91.5q0 53 -29 85q-30 32 -86 32q-17 0 -42 -4t-53.5 -13t-57.5 -23t-51 -34v112q52 34 112.5 55t130.5 21q54 0 98.5 -14t76 -40.5t49.5 -66.5 q17 -39 17 -92q0 -84 -63 -187.5t-192 -238.5h300v-120h-546z" />
<glyph unicode="&#xbe;" horiz-adv-x="1895" d="M175 675v109q39 -25 89 -37.5t94 -12.5q31 0 56.5 8t42 24.5t25.5 38t9 46.5t-7.5 50.5t-24.5 45t-42 32t-59 12.5v77q35 6 57.5 18t36 27t19 35t5.5 42t-6.5 42t-21 35t-37.5 25q-22 10 -55 10q-20 0 -43 -5.5t-45 -12.5t-40 -15.5t-32 -14.5v98q14 6 35 14.5t47 14 t56 9.5t61 4q50 0 94 -12.5t76.5 -36t50.5 -57.5t18 -77q0 -25 -6 -51.5t-21.5 -50t-41 -41.5t-60.5 -26l2 -6q36 -6 65.5 -21t49 -39t31 -55t11.5 -64q0 -48 -20.5 -90t-57.5 -72.5t-87.5 -49t-112.5 -18.5q-30 0 -55.5 3.5t-50.5 10t-50.5 15t-54.5 19.5zM459 -57 l983 1493h140l-983 -1493h-140zM1155 185v106l393 471h101v-481h73v-96h-73v-185h-165v185h-329zM1270 281h214v259z" />
<glyph unicode="&#xd7;" horiz-adv-x="1234" d="M182 407l316 315l-316 317l120 120l317 -316l315 316l122 -120l-317 -317l317 -315l-122 -121l-315 316l-317 -316z" />
<glyph unicode="&#xf7;" horiz-adv-x="1234" d="M120 636v175h994v-175h-994zM498 286q0 25 9.5 46t25.5 37t37 25t46 9t47 -9t38 -25t26 -38q9 -20 9 -45q0 -26 -9.5 -47.5t-25.5 -37.5t-38 -26t-47 -10t-46 10t-37 26t-25.5 37.5t-9.5 47.5zM498 1162q0 25 9.5 47t25.5 38t37 26q21 9 46 9t47 -9.5t38 -25.5t25.5 -38 t9.5 -47t-9.5 -46t-25.5 -37t-38 -25.5t-47 -9.5t-46 9.5t-37 25.5t-25.5 37t-9.5 46z" />
<glyph unicode="&#xe00;" />
<glyph unicode="&#xe01;" horiz-adv-x="1388" d="M181 0v762q0 91 21 157.5t57 112.5t86 75.5t106.5 46t119 22.5t123.5 6q62 0 124.5 -6t119.5 -22.5t107 -45.5t86.5 -75.5t57.5 -114t21 -156.5v-762h-230v707q0 64 -12.5 112t-34.5 80.5t-50.5 52.5t-60 30.5t-64.5 14t-64 3.5q-30 0 -62.5 -3.5t-64.5 -14t-60 -30.5 t-50.5 -52.5t-35 -79.5t-12.5 -113v-707h-228z" />
<glyph unicode="&#xe02;" horiz-adv-x="1240" d="M62 1156h252l306 -817l308 817h251q-122 -287 -243 -577.5t-242 -578.5h-144z" />
<glyph unicode="&#xe03;" horiz-adv-x="1320" d="M83 988v189l217 -145l182 124h219v-282q0 -40 -7 -72t-25 -62t-49.5 -61.5t-80.5 -70.5q-25 -21 -48 -37.5t-40 -34.5t-26 -43t-9 -65v-21q0 -53 9 -98.5t36.5 -79t75.5 -53t124 -19.5q66 0 114 14t77.5 42t44 70t14.5 95v778h229v-736q0 -224 -121.5 -330.5 t-364.5 -106.5q-132 0 -221 31t-144 85.5t-79.5 130t-24.5 165.5v21q0 50 14.5 88.5t37.5 68t50 52t53 39.5q87 58 128.5 106t41.5 98v113l-212 -134z" />
<glyph unicode="&#xe04;" horiz-adv-x="1415" d="M181 0v748q0 89 21.5 156.5t58.5 115.5t87.5 79.5t109.5 50t122.5 25.5t127.5 7q65 0 128 -7t121.5 -25.5t109 -49t88.5 -79.5t59 -116.5t21 -156.5v-748h-227v714q0 62 -14 107.5t-36.5 77t-52.5 51t-63 30.5t-68 15.5t-66 4.5q-32 0 -66 -4.5t-68 -15.5t-64 -30.5 t-53 -52t-35.5 -77t-12.5 -106.5v-157q28 39 63 63t68 35t60 14t44 3q14 0 33.5 -2t40.5 -7t40.5 -12t32.5 -18l-46 -179q-25 11 -50 16q-26 6 -54 9q-33 0 -68 -8.5t-67.5 -29.5t-58.5 -55q-27 -33 -38 -81v-305h-228z" />
<glyph unicode="&#xe05;" horiz-adv-x="1458" d="M181 0v1156h233l314 -240l319 240h231v-1156h-228v941l-321 -241h-1l-319 241v-524q33 49 73 76.5t76 40t66 14.5q28 2 45 2q30 0 62.5 -7.5t58.5 -27.5l-47 -179q-25 11 -44 17q-21 5 -49 5q-27 0 -62.5 -12.5t-72 -37.5t-66 -63t-40.5 -87v-158h-228z" />
<glyph unicode="&#xe06;" horiz-adv-x="1397" d="M78 988v189l216 -145l183 124h220v-282q0 -40 -7 -72t-25 -62t-49.5 -61.5t-80.5 -70.5q-25 -21 -48.5 -37.5t-40 -34.5t-26.5 -43t-10 -65v-50q11 -45 47 -84t85.5 -70t107.5 -47.5t117 -16.5q45 0 85 7.5t70 33.5t48 75.5t18 132.5v747h230v-753q0 -106 -26.5 -186 t-75 -131.5t-117.5 -77t-156 -25.5h-43.5t-60 5t-73.5 15.5t-83 30t-87.5 50.5t-86.5 76v-160h-227v416q0 50 14 88.5t36.5 68t50.5 52t53 39.5q87 58 128 106t41 98v113l-211 -134z" />
<glyph unicode="&#xe07;" horiz-adv-x="1078" d="M118 95v188q30 -18 69.5 -40t87 -41.5t105 -32t123.5 -12.5q33 0 63 7t53.5 25t36.5 51.5t13 87.5v658h-193v170h423v-847q0 -92 -29.5 -154.5t-80 -100t-119 -54.5t-149.5 -17q-70 0 -134 13.5t-116.5 31.5t-91.5 37t-61 30z" />
<glyph unicode="&#xe08;" horiz-adv-x="1146" d="M81 885v176q59 28 116.5 50.5t116 38t120.5 24t126 8.5q112 0 189 -18.5t125.5 -57.5t70 -102t21.5 -151v-853h-228v305q-11 49 -37 82t-58.5 54t-68.5 29.5t-69 8.5q-28 -2 -52.5 -8t-49.5 -17l-47 179q14 11 33.5 18t39.5 12t40 7q21 2 35 2q15 0 44.5 -4t64 -17 t68 -35t57.5 -59v199q0 50 -3.5 95.5t-24.5 80t-64.5 55.5t-124.5 21q-39 0 -85.5 -4t-102.5 -17t-119 -38t-133 -64z" />
<glyph unicode="&#xe09;" horiz-adv-x="1367" d="M181 882v171q58 28 120.5 51.5t129.5 40.5t136 27t136 10q112 0 201.5 -20t152.5 -60.5t96.5 -103.5t33.5 -152v-846h-227v158q-46 -46 -90.5 -77t-86.5 -50.5t-80 -29t-70 -14t-56.5 -4.5h-41.5q-79 0 -143 22t-111 66t-73 112.5t-26 160.5v317h230v-294 q0 -65 15 -105.5t43 -63.5t67.5 -31.5t86.5 -8.5q37 0 73.5 9t71.5 24t67 36t57 45.5t42 51t24 54.5v378q0 34 -2 64.5t-12 58.5t-29 52t-51.5 41.5t-82.5 26.5t-120 9q-42 0 -101.5 -8.5t-124 -24.5t-131.5 -39t-124 -54z" />
<glyph unicode="&#xe0a;" horiz-adv-x="1351" d="M113 986v170h489v-378q-50 -22 -92 -48.5t-70 -65t-43.5 -92t-15.5 -128.5q0 -79 26 -132.5t67 -88t93 -50t104 -15.5q51 0 103 17.5t94 55.5t68 96.5t26 142.5q0 82 -15 149t-44 121.5t-74 98t-104 79.5v238h524v-170h-335q77 -51 129 -110.5t83.5 -126t44.5 -139 t13 -151.5q0 -106 -35 -193.5t-102 -150t-162 -97.5t-214 -35t-214.5 31.5t-161 89.5t-101.5 142q-36 82 -36 185q0 93 24.5 163.5t62.5 123t84 87t88 53.5v128h-304z" />
<glyph unicode="&#xe0b;" horiz-adv-x="1386" d="M22 988v189l216 -145l182 124h221l-1 -386q-44 -18 -83 -42t-70 -61t-49 -91.5t-18 -131.5q0 -79 25 -132.5t67 -88t94 -50t102 -15.5q52 0 104.5 17.5t94.5 55.5t67.5 96.5t25.5 142.5q0 82 -14 149t-43.5 121.5t-74.5 98t-105 79.5v238h525v-170h-336 q77 -51 129.5 -110.5t83.5 -126t45 -139t14 -151.5q0 -106 -36 -193.5t-102.5 -150t-161.5 -97.5t-216 -35q-119 0 -213.5 31.5t-161 89.5t-101.5 142q-36 82 -36 185q0 62 12.5 113t33.5 92.5t47.5 75t54.5 58.5t55 43.5t49 32.5v135l-210 -134z" />
<glyph unicode="&#xe0c;" horiz-adv-x="2063" d="M181 0v745q0 91 20 159t56.5 116t84 79.5t103 50t115 25.5t118.5 7q58 0 118.5 -7t115.5 -25.5t103.5 -49t85 -79.5t55.5 -117q20 -67 20 -159v-366q3 -19 18.5 -43.5t38.5 -50t53 -47.5t65 -40.5t73 -28.5q38 -11 77 -11q47 0 77.5 10.5t48 34.5t23 60.5t5.5 90.5v802 h229v-812q0 -92 -25.5 -160.5t-71 -112.5t-107.5 -66t-134 -22q-51 0 -103.5 14t-101.5 38t-91.5 56t-72.5 69v-160h-228v703q0 68 -14 118t-35 82t-49.5 51.5t-58.5 29.5t-59.5 13t-53.5 3q-25 0 -54 -3t-59.5 -13t-58.5 -29.5t-50 -51.5t-35 -81t-13 -119v-532h176v-171 h-404z" />
<glyph unicode="&#xe0d;" horiz-adv-x="1993" d="M181 0v748q0 91 20 158.5t55 115.5t82.5 78.5t102.5 49t113.5 25.5t117.5 7t117.5 -7t114 -24.5t103 -49t82.5 -79.5t55 -116q21 -66 21 -158v-264q0 -42 6 -79t26.5 -65.5t59.5 -44.5t104 -16q47 0 83 11.5t60.5 32.5t40.5 47t25 54t12 55.5t3 49.5v627h228v-1092 q0 -89 -30 -163.5t-92.5 -126t-157 -80.5t-221.5 -29q-51 0 -99 5t-95.5 16.5t-92.5 31t-90 47.5v176q37 -22 77.5 -40.5t86.5 -32.5t98 -21.5t112 -7.5q74 0 126.5 14.5t85.5 45.5t48.5 77t15.5 109v119q-28 -30 -63 -50t-70 -31t-68.5 -15t-59.5 -4q-100 0 -173 24.5 t-120.5 70t-70.5 112t-23 150.5v242q0 68 -13.5 118t-36 82t-50.5 51.5t-57.5 29.5t-57.5 13t-50 3t-50 -3t-57.5 -12t-57.5 -28t-50 -51t-35 -82q-13 -51 -13 -121v-532h176v-171h-404z" />
<glyph unicode="&#xe0e;" horiz-adv-x="1398" d="M42 0v171h174v574q0 91 20 159t55 116t83.5 79.5t103.5 50t116 25.5t123 7q61 0 123 -7t117 -25.5t103.5 -49t83.5 -79.5t54 -117q20 -67 20 -159v-1180h-263q-51 44 -114 68.5t-140 24.5q-33 0 -71.5 -7.5t-75.5 -19.5t-70 -27.5t-58 -31.5v168q22 15 51.5 30.5 t64.5 27.5t74 19.5t78 7.5q31 0 67 -2t73.5 -12t77 -28t78.5 -49v970q0 65 -12 112.5t-31.5 80.5t-47 53t-57.5 30.5t-62 15t-63 4.5t-62.5 -4.5t-61.5 -15t-57.5 -30.5t-47.5 -53t-31.5 -80t-11.5 -113v-704h-403z" />
<glyph unicode="&#xe0f;" horiz-adv-x="1398" d="M42 0v171h174v574q0 91 20 159t55 116t83.5 79.5t103.5 50t116 25.5t123 7q61 0 123 -7t117 -25.5t103.5 -49t83.5 -79.5t54 -117q20 -67 20 -159v-1180h-263q-35 44 -83.5 70t-104.5 26q-19 0 -46.5 -4t-56 -15.5t-57.5 -31t-53 -51.5l-324 97v179l317 -101 q42 45 101 68.5t119 23.5q20 0 48 -2.5t57.5 -12.5t60 -26.5t57.5 -43.5v963q0 65 -12 112.5t-31.5 80.5t-47 53t-57.5 30.5t-62 15t-63 4.5t-62.5 -4.5t-61.5 -15t-57.5 -30.5t-47.5 -53t-31.5 -80t-11.5 -113v-704h-403z" />
<glyph unicode="&#xe10;" horiz-adv-x="1146" d="M81 860v176q59 28 116.5 50.5t116 38t120.5 23.5t126 8h543v-159h-227q12 -10 27 -27.5t29 -46t24 -69.5q10 -39 10 -95v-759h-228v305q-11 49 -37 82t-58.5 54t-68.5 29.5t-69 8.5q-28 -2 -52.5 -8t-49.5 -17l-47 179q14 11 33.5 18t39.5 12t40 7q21 2 35 2 q15 0 42.5 -3t59.5 -15.5t67 -36t65 -65.5v179q0 50 -3.5 95.5t-24.5 80t-64.5 55.5t-124.5 21q-39 0 -85.5 -4.5t-102.5 -17t-119 -37.5t-133 -64zM203 -172l158 -74q9 8 24 21.5t39 26t53.5 21.5t64.5 9q22 0 47.5 -3t51 -11t51 -25t47.5 -42v120h227v-271h-263 q-13 14 -28.5 28t-35 25t-42.5 18t-54 7q-7 0 -26.5 -2t-44.5 -11t-52 -26q-28 -17 -48 -48l-169 87v150z" />
<glyph unicode="&#xe11;" horiz-adv-x="1422" d="M22 988v189l216 -145l182 124h221v-154l17 17q53 51 95 81t81.5 46t78.5 21.5t85 5.5q67 0 114 -19.5t76.5 -62t42.5 -110.5q12 -65 12 -161v-820h-229v795q0 53 -5 87t-17 53.5t-30 27t-45 7.5q-20 0 -50 -16t-67.5 -43.5t-78.5 -64.5t-81.5 -80.5t-77 -91t-63 -94.5 t-43.5 -91q-16 -44 -16 -83v-406h-230v406q0 53 9 93.5t28 76.5t47 70t67 76l87 96v163l-210 -134z" />
<glyph unicode="&#xe12;" horiz-adv-x="2151" d="M181 0v1156h233l314 -240l319 240h233v-777q0 -11 12.5 -31t33.5 -44t50.5 -50.5t63 -47.5t70 -33.5t73.5 -12.5q45 0 76 9.5t50 33.5t27 60.5t8 90.5v802h227v-812q0 -92 -21.5 -160.5t-62 -112.5t-99 -66t-130.5 -22q-97 0 -192 43q-94 44 -186 134v-160h-229l-1 941 l-321 -241h-1l-319 241v-795q63 33 108.5 71t76 73t44.5 67t17 55q0 21 -7 32.5t-18 17.5t-24 6h-26l30 133q37 2 72 3t66 -8q50 -14 78 -54.5t25 -96.5q-1 -45 -21.5 -91t-52.5 -89.5t-72.5 -83.5t-82.5 -74t-84 -62t-76 -45h-281z" />
<glyph unicode="&#xe13;" horiz-adv-x="2018" d="M181 0v745q0 91 20 159t56.5 116t84 79.5t103.5 50t115 25.5t118 7q58 0 118.5 -7t116.5 -25.5t104 -49t84 -79.5t57 -117q21 -67 21 -159v-391q0 -53 7 -91t23.5 -61t44.5 -34t73 -11q37 0 72 14t67 35t58 47t45 50.5t30 45.5t11 30v777h228v-1156h-228v160 q-42 -47 -82.5 -80.5t-82.5 -55t-85.5 -31.5t-91.5 -10q-82 0 -142.5 22t-99 66t-58 112.5t-19.5 160.5v359q0 68 -13 118t-35 82t-50 51.5t-58.5 29.5t-60 13t-53.5 3q-25 0 -54 -3t-59 -13t-58.5 -29.5t-49.5 -51.5t-35 -81t-14 -119v-532h176v-171h-404z" />
<glyph unicode="&#xe14;" horiz-adv-x="1454" d="M181 0v745q0 89 21.5 156.5t60.5 116.5t91 80.5t113 50.5t127.5 26t133.5 7t133 -7t127 -26t113.5 -50.5t91 -80.5t60 -116.5t21.5 -156.5v-745h-228v704q0 65 -13.5 112.5t-37 80.5t-55 53t-67.5 30.5t-73 15t-72 4.5q-36 0 -73.5 -4.5t-73 -15t-66.5 -30.5t-54.5 -53 t-37.5 -80t-14 -113v-508q64 46 109 86t71.5 73.5t39.5 62.5q15 29 18 55q3 20 -3 31t-15.5 17.5t-21 8.5t-22.5 2h-13.5h-18.5l29 154q16 3 36 5t41 2.5t41 0.5t34 -2q28 -6 51 -20t39.5 -35t26 -49.5t9.5 -66.5q0 -62 -35 -129t-94 -134.5t-135.5 -133t-160.5 -124.5h-254 z" />
<glyph unicode="&#xe15;" horiz-adv-x="1460" d="M181 0v1156h233l314 -240l319 240h233v-1156h-229l-1 941l-321 -241h-1l-319 241v-795q52 25 94.5 53.5t74 58t49.5 58.5q20 28 23 56q2 20 -5 31t-16.5 17t-21 8.5t-22.5 2.5h-13.5t-18.5 -1l29 148q16 3 36 5t41 3t41 0t34 -4q28 -5 51 -17.5t39.5 -32.5t26 -45 t9.5 -57q0 -42 -17 -83.5t-46.5 -80.5t-69.5 -76t-84 -71.5t-91 -64t-90 -54.5h-281z" />
<glyph unicode="&#xe16;" horiz-adv-x="1390" d="M181 0v1152q36 0 72.5 1t75 1.5t79 1t88 1.5t103.5 1.5t123 3.5q59 0 119.5 -7.5t114 -26.5t100 -50t80.5 -79t54 -114.5t20 -155.5v-729h-229v689q0 64 -13 111.5t-35 80t-50.5 52t-60.5 30.5t-66 14t-64 2l-283 -10v-798h175v-171h-403z" />
<glyph unicode="&#xe17;" horiz-adv-x="1405" d="M181 0v1156h228v-851l585 851h232v-1156h-229v860l-595 -860h-221z" />
<glyph unicode="&#xe18;" horiz-adv-x="1269" d="M129 882q0 76 32 132t93.5 93t151.5 54.5t206 17.5q78 0 144.5 -10t122 -24.5t99 -30.5t75.5 -29v-193q-56 22 -108 41.5t-103.5 34.5t-107.5 23.5t-122 9.5q-46 0 -94 -3.5t-86.5 -14t-63 -30t-24.5 -50.5t18.5 -54.5t54 -43.5t88 -37.5t122.5 -35.5q11 -3 23 -5.5 t31 -7.5t45.5 -12t68.5 -17q86 -22 152.5 -48.5t111 -66t68.5 -94.5t24 -137q0 -67 -18.5 -118.5t-52 -92.5t-78 -69t-98 -46t-111 -26.5t-115.5 -8.5q-98 0 -181 8.5t-150 21t-115.5 26.5t-77.5 25v457h228v-326q79 -23 142.5 -31.5t108.5 -8.5q64 0 116.5 9.5t89 30.5 t56 54.5t19.5 81t-24.5 79.5t-71.5 54.5t-113.5 41t-150.5 40.5q-54 14 -106.5 29.5t-100 36.5t-87 46t-69 58t-46 74.5t-16.5 91.5z" />
<glyph unicode="&#xe19;" horiz-adv-x="1404" d="M181 398v758h228v-754q0 -73 15.5 -120t43.5 -74t70 -37.5t95 -10.5q50 0 107.5 15t109.5 44.5t91 69.5q39 41 54 89v778h229v-1156h-227v165q-65 -64 -124.5 -100.5t-114.5 -54.5t-105.5 -22.5t-95.5 -4.5q-81 0 -151 24.5t-119.5 75.5t-77.5 129q-28 79 -28 186z" />
<glyph unicode="&#xe1a;" horiz-adv-x="1390" d="M181 417v739h228v-711q0 -64 12.5 -111.5t33.5 -80t49 -50.5t60 -28.5t66 -14t64.5 -3.5t65.5 3.5t66.5 14t60.5 28.5t50 50.5t33 78.5q13 49 13 113v711h227v-739q0 -92 -21 -159.5t-57.5 -115.5t-86.5 -79t-106.5 -48.5t-119.5 -24.5t-124.5 -7t-124 7t-119 24.5 t-106.5 49t-86 79t-57 115.5q-21 67 -21 159z" />
<glyph unicode="&#xe1b;" horiz-adv-x="1390" d="M181 417v739h228v-711q0 -64 12.5 -111.5t33.5 -80t49 -50.5t60 -28.5t66 -14t64.5 -3.5t65.5 3.5t66.5 14t60.5 28.5t50 50.5t33 78.5q13 49 13 113v1208h227v-1236q0 -92 -21 -159.5t-57.5 -115.5t-86.5 -79t-106.5 -48.5t-119.5 -24.5t-124.5 -7t-124 7t-119 24.5 t-106.5 49t-86 79t-57 115.5q-21 67 -21 159z" />
<glyph unicode="&#xe1c;" horiz-adv-x="1458" d="M181 0v1156h403v-170h-175v-679l308 410h17l316 -405v844h228v-1156h-217l-336 441l-326 -441h-218z" />
<glyph unicode="&#xe1d;" horiz-adv-x="1458" d="M181 0v1156h403v-170h-175v-679l308 410h17l316 -405v1340h228v-1652h-217l-336 441l-326 -441h-218z" />
<glyph unicode="&#xe1e;" horiz-adv-x="1741" d="M53 1156h244l222 -772l282 772h143l280 -772l224 772h242l-357 -1156h-167l-294 804l-295 -804h-165z" />
<glyph unicode="&#xe1f;" horiz-adv-x="1674" d="M53 1156h244l222 -772l282 772h143l278 -761l248 1197h221l-358 -1592h-167l-294 804l-295 -804h-165z" />
<glyph unicode="&#xe20;" horiz-adv-x="1398" d="M42 0v171h174v574q0 91 20 159t55 116t83.5 79.5t103.5 50t116 25.5t123 7q61 0 123 -7t117 -25.5t103.5 -49t83.5 -79.5t54 -117q20 -67 20 -159v-745h-228v704q0 65 -12 112.5t-31.5 80.5t-47 53t-57.5 30.5t-62 15t-63 4.5t-62.5 -4.5t-61.5 -15t-57.5 -30.5 t-47.5 -53t-32 -80t-12 -113v-704h-402z" />
<glyph unicode="&#xe21;" horiz-adv-x="1404" d="M181 0v1156h228v-778q15 -48 55 -88.5t91 -70t109 -44.5t109 -15q53 0 93.5 10.5t70 37.5t44 74t14.5 120v754h229v-758q0 -107 -28 -185.5t-78.5 -129.5t-119 -75.5t-151.5 -24.5q-45 0 -95.5 4.5t-105.5 22.5t-115.5 54.5t-123.5 100.5v-165h-226z" />
<glyph unicode="&#xe22;" horiz-adv-x="1328" d="M120 358q0 59 18.5 106.5t48 84t64.5 59.5t68 33v3q-43 11 -80 35.5t-63 58t-41 75t-15 89.5q0 67 23.5 117.5t64.5 85.5t97 53t123 18q42 0 88.5 -9t102.5 -30v-154q-31 14 -64.5 21t-58.5 7q-40 0 -66.5 -10.5t-43 -29.5t-25 -44t-8.5 -53t11 -56t39 -50t73 -36.5 t112 -17.5h14h17v-154q-52 0 -100.5 -10.5t-86 -33.5t-60 -59.5t-22.5 -86.5q0 -65 26 -107t66.5 -65.5t91.5 -32t100 -8.5q31 0 64 2t65 11t60 26.5t50 47.5t34.5 75t12.5 109v728h228v-744q0 -93 -21 -161.5t-57.5 -116t-85.5 -77t-106.5 -46.5t-120.5 -22.5t-124 -5.5 q-112 0 -206 20.5t-162.5 65t-106.5 116.5q-38 73 -38 173z" />
<glyph unicode="&#xe23;" horiz-adv-x="1047" d="M120 876q0 76 31.5 132t88.5 94t135.5 57.5t171.5 19.5q91 0 169 -18q76 -19 152 -52v-188q-55 25 -98 40.5t-79.5 23.5t-66.5 11.5t-57 3.5h-37t-47.5 -3t-50 -9.5t-45.5 -17.5t-32.5 -28.5t-12.5 -41.5q0 -31 19.5 -55.5t49.5 -45.5t66.5 -39t71.5 -35 q105 -54 177 -101t117 -96t64.5 -106.5t19.5 -135.5q0 -73 -29 -129t-82.5 -95.5t-131.5 -60.5q-79 -21 -177 -21q-109 0 -200 23.5t-161 58.5v187q81 -43 163 -63q83 -21 167 -24q53 -2 95 6t72 23.5t46.5 39.5t16.5 55q0 30 -15.5 59.5t-49 59t-85.5 61.5t-126 69 q-70 36 -127 70.5t-97.5 73t-63 86t-22.5 111.5z" />
<glyph unicode="&#xe24;" horiz-adv-x="1390" d="M181 0v1152q36 0 72.5 1t75 1.5t79 1t88 1.5t103.5 1.5t123 3.5q59 0 119.5 -7.5t114 -26.5t100 -50t80.5 -79t54 -114.5t20 -155.5v-1190h-229v1150q0 64 -13 111.5t-35 80t-50.5 52t-60.5 30.5t-66 14t-64 2l-283 -10v-798h175v-171h-403z" />
<glyph unicode="&#xe25;" horiz-adv-x="1279" d="M95 244q0 99 55.5 176.5t156 138t244 106.5t320.5 80v23v23q0 45 -9 85t-38 69t-80.5 46.5t-135.5 17.5q-47 0 -103.5 -8t-116.5 -25.5t-120.5 -43t-112.5 -60.5v189q70 34 132.5 56.5t122 36.5t120.5 19.5t127 5.5q100 0 182 -18.5t140 -57.5t90 -101q31 -61 31 -151 v-851h-229l1 571q-70 -14 -136.5 -32t-126.5 -39t-111 -47t-88.5 -55.5t-58.5 -62.5t-21 -69q0 -20 6 -41.5t23.5 -38.5t50 -26t87.5 -3q28 3 48.5 5.5t36.5 5.5v-139q-47 -25 -107.5 -34.5t-123.5 -9.5q-61 0 -108.5 21.5t-80.5 58t-50 82.5t-17 97z" />
<glyph unicode="&#xe26;" horiz-adv-x="1398" d="M42 0v171h174v574q0 91 20 159t55 117t83.5 79.5t103.5 49t116 25.5t123 7q61 0 123 -7t117 -25.5t103.5 -49t83.5 -79.5t54 -117q20 -67 20 -159v-1206h-228v1167q0 64 -12 111.5t-31.5 80.5t-47 53.5t-57.5 31t-62 14t-63 3.5t-62.5 -3.5t-61.5 -14t-57.5 -31 t-47.5 -53.5t-32 -80q-12 -48 -12 -112v-706h-402z" />
<glyph unicode="&#xe27;" horiz-adv-x="1065" d="M104 935v179q36 17 76 29.5t80 21t77.5 11.5t68.5 3q134 0 240.5 -40.5t181 -117.5t113.5 -186.5t39 -246.5q0 -84 -17 -162.5t-50.5 -145.5t-81 -121.5t-109 -94t-137 -60.5t-161.5 -21q-186 0 -304 62v176q56 -31 120.5 -45t148.5 -14q88 3 156 34.5t114.5 87 t69.5 131.5q24 78 24 170q0 98 -26.5 173.5t-76 128t-122 80t-163.5 27.5q-28 0 -60.5 -3t-67.5 -10t-69 -18t-64 -28z" />
<glyph unicode="&#xe28;" horiz-adv-x="1415" d="M181 0v722q0 90 21.5 157t58.5 115t87.5 79.5t109.5 49.5t122.5 25t127.5 7l658 1v-159h-270q24 -17 48.5 -45t45 -66t33 -85.5t12.5 -106.5v-694h-227v690q0 62 -14 107.5t-36.5 76t-52.5 51t-63 31.5t-68 14.5t-66 3.5q-32 0 -66 -4t-68 -15t-64 -31t-53 -51.5 t-35.5 -77t-12.5 -106.5v-137q28 39 63 62.5t68 36.5t60 17t44 4q14 0 33.5 -2t40.5 -7t40.5 -12t32.5 -18l-46 -179q-25 11 -50 16q-26 6 -54 9q-33 0 -68 -8.5t-67.5 -29.5t-58.5 -55q-27 -33 -38 -81v-305h-228z" />
<glyph unicode="&#xe29;" horiz-adv-x="1388" d="M181 412v744h228v-719q0 -65 13 -111t35 -77t50 -49t60 -28t65 -12q32 -3 62 -3q31 0 64 2.5t64.5 12.5t60 28t50.5 49t34.5 77t12.5 111v193h-204v32l372 503h63v-367h130v-168h-131v-218q0 -93 -21 -160t-57.5 -114.5t-86.5 -78t-107 -47t-119.5 -23t-124.5 -6.5 q-61 0 -123.5 6.5t-119 24t-106.5 47t-86 77t-57 114.5t-21 160z" />
<glyph unicode="&#xe2a;" horiz-adv-x="1279" d="M95 244q0 99 55.5 174.5t156 133.5t244 101.5t320.5 77.5v36q0 45 -9 85.5t-38 70t-80.5 46.5t-135.5 17q-47 0 -103.5 -8.5t-116.5 -25.5t-121 -43q-60 -27 -112 -61v189q70 34 132 56.5t121.5 36.5t119.5 20t127 6h574v-159h-241q17 -11 36.5 -32t36.5 -53.5t28 -74.5 t11 -96v-741h-229l1 557q-70 -14 -136.5 -30.5t-126.5 -36.5t-111 -44.5t-88.5 -51.5t-58.5 -59.5t-21 -68.5q0 -20 6 -41.5t23.5 -38.5t50 -26t87.5 -3q28 3 48.5 5.5t36.5 5.5v-139q-47 -25 -107.5 -34.5t-123.5 -9.5q-61 0 -108.5 21.5t-80.5 58t-50 82.5t-17 97z" />
<glyph unicode="&#xe2b;" horiz-adv-x="1372" d="M181 0v1156h228v-887q0 3 5 15.5t13 31.5t19.5 43.5t24 49.5t25.5 49q14 26 28 46l448 652h273l-269 -371q53 -19 94.5 -52t68 -84t39.5 -122t13 -166l2 -361h-227v395q0 54 -8.5 92.5t-24 64.5t-34.5 42q-20 14 -45 22l-445 -616h-228z" />
<glyph unicode="&#xe2c;" horiz-adv-x="1576" d="M78 1156h238l140 -792l241 428h121l233 -428l72 405q10 56 -5 98.5t-48.5 73.5t-82.5 46t-105 15q-17 0 -42 -1t-50 -4v148q9 3 25.5 5t36 4t37.5 2h32h518v-154h-189q25 -11 45.5 -37.5t33 -61.5t16.5 -76q2 -40 -7 -81l-159 -746h-137l-289 539l-302 -539h-137z" />
<glyph unicode="&#xe2d;" horiz-adv-x="1339" d="M171 927v169q45 17 98 32.5t111 26.5t119 17.5t118 6.5q147 0 259 -46.5t188 -127.5t115 -191.5t39 -242.5q0 -129 -39 -236.5t-113.5 -185.5t-185 -122t-256.5 -44q-124 0 -241 33.5t-209 102.5v514h393v-163h-167v-266q13 -5 34.5 -13.5t51 -15.5t65.5 -13q34 -5 76 -5 q90 0 158.5 32t113.5 86.5t67 128.5q22 72 22 156q0 36 -4 83t-18.5 96t-41.5 96t-71.5 84t-109.5 60t-156 23q-52 0 -106.5 -5.5t-109.5 -15t-105 -23.5t-95 -31z" />
<glyph unicode="&#xe2e;" horiz-adv-x="1332" d="M171 904v170q39 15 85 30.5t96.5 26.5t102.5 18t105 7h687v-159h-222q47 -34 83.5 -81t60.5 -103.5t36.5 -121t12.5 -131.5q0 -129 -39 -234t-113.5 -182t-185 -119t-256.5 -42q-61 0 -125 10t-123.5 27.5t-111 42.5t-90.5 56v514h393v-163h-167v-263q14 -8 36.5 -17 t52 -17t64.5 -12t74 -4q90 0 158.5 30.5t113.5 83t67 125t22 154.5q0 37 -4 82.5t-18.5 93t-41.5 93.5t-71.5 81t-109.5 57.5t-156 22.5q-52 0 -106.5 -5.5t-109.5 -15.5t-105 -24t-95 -31z" />
<glyph unicode="&#xe2f;" horiz-adv-x="1310" d="M101 815q0 78 21.5 143t63 112t101.5 73.5t139 26.5h37.5t32.5 -2.5t31.5 -7t35.5 -9.5v-157q-28 6 -50 7t-40 1q-33 0 -59 -12.5t-44.5 -36t-29 -57.5t-10.5 -76q0 -22 4.5 -47t14 -50.5t28 -49t48.5 -42t72.5 -29.5t104.5 -11q67 0 116 11t85.5 29.5t60.5 40t38 41.5 v443h229v-1156h-229v504q-40 -31 -84.5 -49t-89.5 -26.5t-88.5 -10.5t-79.5 -2q-112 0 -197.5 28.5t-144 82t-88.5 126.5q-29 72 -29 162z" />
<glyph unicode="&#xe30;" horiz-adv-x="726" d="M132 154v294h236v-115h321v-179h-557zM132 763v295h236v-114h321v-181h-557z" />
<glyph unicode="&#xe31;" d="M-868 1383v339h244v-160h610v-179h-854z" />
<glyph unicode="&#xe32;" horiz-adv-x="894" d="M50 944v156q26 13 63 26.5t83 25t99 19.5q52 8 111 8q70 0 127.5 -17.5t98 -52t61.5 -87.5t21 -123v-899h-230v843q0 53 -15 85t-42 49t-62 22.5t-72 5.5q-20 0 -50 -4t-65 -12.5t-68.5 -19.5t-59.5 -25z" />
<glyph unicode="&#xe33;" horiz-adv-x="894" d="M-522 1548.5q0 47.5 17.5 89t48 73t72.5 49t90 17.5t88.5 -17.5t72 -49t49 -73t17.5 -89t-17.5 -89t-49 -72t-72.5 -48.5q-40 -17 -88 -17t-90 17.5t-72.5 48t-48 72t-17.5 89zM-384 1548q0 -18 7 -34t20 -28.5t28 -19.5t35 -7q18 0 34 7t27.5 19.5t18.5 28t7 34.5t-7 35 t-18.5 27t-28 18t-33.5 7q-18 0 -34 -7t-29 -18t-20 -27t-7 -35zM50 944v156q26 13 63 26.5t83 25t99 19.5q52 8 111 8q70 0 127.5 -17.5t98 -52t61.5 -87.5t21 -123v-899h-230v843q0 53 -15 85t-42 49t-62 22.5t-72 5.5q-20 0 -50 -4t-65 -12.5t-68.5 -19.5t-59.5 -25z" />
<glyph unicode="&#xe34;" d="M-1210 1383v179h1029v-179h-1029z" />
<glyph unicode="&#xe35;" d="M-1210 1383v179h801v198h228v-377h-1029z" />
<glyph unicode="&#xe36;" d="M-1210 1383v179h622q-1 10 -2.5 19t-1.5 19q0 45 17.5 85t47 69.5t68.5 46t84 16.5t85.5 -16.5t70 -46t46 -69.5t16.5 -85t-16.5 -84.5t-46 -69t-70 -46.5t-85.5 -17h-835zM-448 1600q0 -15 5.5 -28.5t15.5 -24t24 -16t28 -5.5q15 0 28.5 5.5t23 16t16 24t6.5 28.5 q0 16 -6.5 29t-16 23t-22 16t-29.5 6q-16 0 -29 -6t-23 -16t-15.5 -23t-5.5 -29z" />
<glyph unicode="&#xe37;" d="M-1210 1383v179h440v198h216v-198h159v198h216v-377h-1031z" />
<glyph unicode="&#xe38;" d="M-525 -143h344v-379h-214v201h-130v178z" />
<glyph unicode="&#xe39;" d="M-871 -143h317l-2 -165q0 -28 23 -46t63 -18q36 0 57 17q21 19 21 47v165h213v-144q0 -115 -66.5 -174.5t-212.5 -59.5h-26q-51 0 -97 10t-82.5 30t-59.5 51q-25 31 -27 73l1 36h-122v178z" />
<glyph unicode="&#xe3a;" d="M-454 -283q0 31 13 59.5t33 49t48 33.5q30 12 60 12q31 0 59 -12.5t49 -33t34 -48.5q12 -29 12 -60t-12.5 -59t-33.5 -49t-49 -33.5t-59 -12.5q-30 0 -59 12.5t-49 33.5t-33 49t-13 59z" />
<glyph unicode="&#xe3d;" />
<glyph unicode="&#xe3e;" />
<glyph unicode="&#xe3f;" horiz-adv-x="1400" d="M223 -1v1373h404v146h115v-146h39q97 0 166 -26.5t114.5 -70t67.5 -100.5q22 -58 22 -117q0 -51 -12 -96.5t-38 -85t-68 -67.5t-101 -45v-5q59 -9 106 -31t82.5 -51.5t61.5 -66t42 -74.5t24 -75q8 -35 8 -69q0 -31 -7 -71.5t-24.5 -84t-47 -87t-75.5 -77t-108.5 -53.5 t-146.5 -20h-105v-223h-115v223h-404zM440 182h187v455h-187v-455zM440 818h187v373h-187v-373zM742 182q84 3 137 19.5t84 45.5t43 66t12 79q0 62 -20.5 108t-57.5 77t-86.5 45.5t-108.5 14.5h-3v-455zM742 820q53 6 89.5 27t59 49t32 57.5t9.5 51.5q0 31 -8 63t-30.5 58 t-59 43.5t-92.5 20.5v-370z" />
<glyph unicode="&#xe40;" horiz-adv-x="621" d="M196 0v1156h230v-1156h-230z" />
<glyph unicode="&#xe41;" horiz-adv-x="1106" d="M196 0v1156h230v-1156h-230zM680 0v1156h230v-1156h-230z" />
<glyph unicode="&#xe42;" horiz-adv-x="688" d="M-42 1476q15 93 51.5 155.5t88.5 99t116 51.5q63 13 136 13q45 0 96.5 -8.5t100.5 -21t90 -28t63 -32.5l-62 -145q-36 22 -78 36t-82.5 22.5t-75.5 11.5q-35 2 -55 2q-15 0 -37 -4t-44 -15t-41 -30q-18 -18 -29 -49q25 -9 53 -28t56 -47t53.5 -68.5t44 -93t30 -119 t11.5 -148.5v-858h169v-172h-390v1029q0 84 -12 147.5t-33 110t-47.5 79.5t-56 54.5t-59.5 34t-57 21.5z" />
<glyph unicode="&#xe43;" horiz-adv-x="688" d="M-42 1512q6 78 38 131.5t81 87t109 47.5q58 14 119 14q94 0 158.5 -25t104.5 -68.5t58 -100.5t24 -120q-42 -30 -74.5 -57t-55.5 -59t-37.5 -72.5t-24 -98t-13 -134.5t-3.5 -183v-702h170v-172h-391v868q0 95 4.5 169.5t14 134.5t25.5 106t40.5 85.5t59.5 73t80 69.5 q-5 31 -19 53.5t-34.5 38t-45 22.5t-49.5 7q-17 0 -43.5 -3.5t-51 -15.5t-43.5 -34.5t-25 -61.5h-176z" />
<glyph unicode="&#xe44;" horiz-adv-x="688" d="M-80 1579l69 161q45 -25 89.5 -39.5t82.5 -21t64.5 -7t34.5 -0.5h42.5t75.5 5.5t99.5 20t111.5 42.5l86 -183q-38 -28 -69.5 -53.5t-58 -56t-46 -71t-33 -101t-20 -144.5t-6.5 -201v-758h168v-172h-389v924q0 78 1 142t5.5 116.5t16.5 96t32.5 84t51.5 78.5q33 39 78 81 l-3 4q-18 -6 -39.5 -10t-42.5 -7t-38 -3.5t-25 -0.5q-12 0 -31.5 -0.5t-44.5 0.5t-56 5.5t-64.5 13t-69.5 21.5q-37 15 -72 34z" />
<glyph unicode="&#xe45;" horiz-adv-x="894" d="M50 944v156q26 13 63 26.5t83 25t99 19.5q52 8 111 8q70 0 127.5 -17.5t98 -52t61.5 -87.5t21 -123v-1361h-230v1305q0 53 -15 85t-42 49t-62 22.5t-72 5.5q-20 0 -50 -4t-65 -12.5t-68.5 -19.5t-59.5 -25z" />
<glyph unicode="&#xe46;" horiz-adv-x="1260" d="M154 493v663h216l247 -226l248 226h216v-1234q0 -75 -24.5 -135.5t-66 -108.5t-99 -83.5t-121.5 -60.5l-83 179q37 17 68.5 36.5t55 46t37.5 61t14 79.5v959l-238 -203h-14l-239 203v-402h-217z" />
<glyph unicode="&#xe47;" d="M-1128 1610q0 63 22 109t64 76.5t103 44.5q63 15 138 15h548v-144h-535q-38 0 -67.5 -5.5t-49.5 -17t-30.5 -30.5t-10.5 -47q0 -32 12.5 -53t33.5 -32t45 -15q26 -5 49 -5q42 0 67 11.5t39 28t19.5 35t11.5 32.5h87q4 -14 9 -32.5t20 -35t45.5 -28t83.5 -11.5 q39 0 66.5 7t47 18.5t33.5 24t24 25.5v-157q-6 -6 -18 -16.5t-31.5 -20t-49 -17.5t-71.5 -8q-31 0 -59.5 5t-53.5 15.5t-47 28.5q-22 17 -39 45q-19 -28 -41.5 -45.5t-49 -28t-57.5 -15.5t-67 -5q-76 0 -130.5 20.5t-90 54t-53 78.5t-17.5 95z" />
<glyph unicode="&#xe48;" d="M-409 1910v329h228v-329h-228z" />
<glyph unicode="&#xe49;" d="M-630 2195v107q24 7 59.5 11.5t80.5 4.5q84 0 125.5 -35t41.5 -88q0 -14 -5 -32t-15 -34t-23 -31t-30 -23q22 -4 52 -6.5t58 -2.5q34 0 72 6t74 15.5t69 22t57 29.5v-148q-62 -39 -144.5 -60t-174.5 -21q-79 0 -146 9.5t-129 29.5v110q44 14 64 35q20 20 20 48 q0 22 -11 34t-27 17t-34 5q-20 0 -34 -3z" />
<glyph unicode="&#xe4a;" d="M-798 2106q0 42 15.5 79t42 64t65.5 42.5t87 15.5q17 0 35 -2.5t35 -9.5t32 -17q13 -10 24 -24h1q28 28 66.5 41.5t75.5 13.5q47 0 83.5 -13.5t60.5 -36t36 -53.5q10 -30 10 -67q0 -28 -10 -54q-9 -27 -32 -41q67 8 119 28q49 20 91 56v-137q-17 -16 -45 -30.5t-64 -25.5 t-79.5 -18t-88.5 -7h-34.5t-41.5 1t-39.5 3.5t-30.5 3.5v95q20 0 38 7t31.5 19.5t21 29.5t7.5 39.5t-5.5 35.5t-14.5 20t-21 9.5t-23 2.5q-24 0 -43 -18.5t-24 -49.5h-93q-2 34 -17.5 51t-45.5 17q-25 0 -42.5 -15.5t-17.5 -52.5q0 -25 8 -43t21 -29.5t30 -17t35 -5.5h15 v-94q-7 -2 -16 -4.5t-20 -3.5t-21 -2.5t-18 -1.5q-62 0 -99.5 21t-60 51.5t-31 64.5t-8.5 62z" />
<glyph unicode="&#xe4b;" d="M-557 2043v149h171v132h207v-132h169v-149h-169v-133h-207v133h-171z" />
<glyph unicode="&#xe4c;" d="M-505 1882q0 67 32.5 116t88.5 79.5t130.5 44.5t155.5 14l-1 -109q-103 -10 -156.5 -42.5t-53.5 -94.5q0 -21 11 -36.5t27 -25t34.5 -14.5t32.5 -8v-118h-13h-13q-64 0 -115 13t-87 37.5t-54.5 60t-18.5 83.5z" />
<glyph unicode="&#xe4d;" d="M-522 1548.5q0 47.5 17.5 89t48 73t72.5 49t90 17.5t88.5 -17.5t72 -49t49 -73t17.5 -89t-17.5 -89t-49 -72t-72.5 -48.5q-40 -17 -88 -17t-90 17.5t-72.5 48t-48 72t-17.5 89zM-384 1548q0 -18 7 -34t20 -28.5t28 -19.5t35 -7q18 0 34 7t27.5 19.5t18.5 28t7 34.5t-7 35 t-18.5 27t-28 18t-33.5 7q-18 0 -34 -7t-29 -18t-20 -27t-7 -35z" />
<glyph unicode="&#xe4e;" d="M-602 1578q0 54 28 93.5t70 58.5q-42 26 -63 59.5t-21 86.5q0 64 32 111t86 78t126 45.5t154 16.5v-111q-51 0 -91.5 -8.5t-68.5 -26t-43.5 -42t-15.5 -55.5q0 -18 5.5 -34t17.5 -27t30.5 -17t43.5 -6l15 -89q-25 -9 -44.5 -18.5t-33.5 -23.5t-21 -32q-7 -16 -7 -41 q0 -22 12.5 -39.5t28.5 -29t35 -17.5t33 -9v-116h-13.5h-11.5q-62 0 -113.5 12.5t-89.5 37t-59 60t-21 83.5z" />
<glyph unicode="&#xe4f;" horiz-adv-x="1346" d="M77 571q0 83 21.5 159t60 142.5t93.5 121.5t121.5 93.5t142 60t159.5 21.5q82 0 158.5 -21.5t142.5 -60t120.5 -93.5t93.5 -121.5t60 -142t21 -159.5q0 -82 -21 -158.5t-60 -142.5t-93.5 -120.5t-120.5 -93.5t-143 -60t-158 -21q-83 0 -159 21t-142.5 60t-121.5 93.5 t-93.5 120.5t-60 142.5t-21.5 158.5zM232 571q0 -92 34.5 -172t94.5 -140t140.5 -95t173.5 -35q92 0 172 35t140 95t95 141q35 79 35 171q0 93 -35 173.5t-95 140.5t-141 94q-79 35 -171 35q-93 0 -173.5 -34.5t-140.5 -94.5t-94.5 -140.5t-34.5 -173.5zM400 571 q0 56 22 106.5t59 87.5t87 59q51 22 107 22t105.5 -22t86.5 -59t58 -87q21 -51 21 -107t-21 -105.5t-58 -86.5t-86.5 -58t-105.5 -21t-106.5 21t-87.5 58t-59 86.5t-22 105.5zM546 571q0 -26 10.5 -49.5t28 -40t40 -26.5t50.5 -10q25 0 49 10t40.5 26.5t26.5 40.5t10 49 t-10 49t-26.5 41.5t-40.5 28t-49 10.5q-27 0 -50 -10.5t-40.5 -28t-28 -41.5t-10.5 -49z" />
<glyph unicode="&#xe50;" horiz-adv-x="1628" d="M164 535q0 89 24.5 165t68.5 137.5t105 108.5t133.5 78.5t154 48t168.5 16.5q84 0 165 -16.5t153 -48t133 -78.5t104.5 -108.5t68 -137.5t24.5 -165q0 -84 -22.5 -157.5t-64 -136t-100 -111.5t-131.5 -82.5t-157.5 -51.5t-178.5 -18q-139 0 -257 40.5t-205 113 t-136.5 175t-49.5 228.5zM389 535q0 -79 18.5 -136t50.5 -99t74 -69.5t89.5 -43.5t97.5 -23t96 -7t95.5 7t97.5 23t90 43.5t74 69.5t50 100.5t18 134.5q0 67 -16.5 121t-46.5 95t-71.5 71.5t-89 49t-99.5 28.5t-105 10q-50 0 -102 -10t-99 -28.5t-87.5 -49t-70.5 -71.5 t-47 -95t-17 -121z" />
<glyph unicode="&#xe51;" horiz-adv-x="1628" d="M190 53v185q129 -41 255 -64t258 -23q98 0 175.5 18.5t135 50t97.5 72.5t65 85t36.5 89.5t11.5 85.5q0 67 -22.5 131.5t-74.5 113.5t-134 78t-202 29q-43 0 -88 -4t-84 -11.5t-72 -17t-53 -16.5v-210h142v-165h-370v503q57 22 121 41t133 33t144 22q74 10 152 10 q160 3 279.5 -39.5t198 -117t117.5 -175.5q39 -102 39 -217q0 -78 -23.5 -151t-67 -136t-108 -116t-145.5 -89.5t-179 -57.5t-207 -21q-68 0 -140 7t-142 18.5t-133.5 26.5t-114.5 32z" />
<glyph unicode="&#xe52;" horiz-adv-x="1628" d="M144 427v932h228v-903q0 -58 21 -103t57.5 -77t83 -54t95.5 -34.5t98 -17.5t91 -5t91 5t98 17.5t93.5 34.5t79.5 54t56 77t21 103v353l-329 -263l-382 286v246l382 -287l340 276h216v-640q0 -81 -28 -146t-77.5 -115t-116 -85.5t-140 -58t-152 -33.5t-152.5 -11 q-75 0 -154 11t-153 33.5t-141.5 58t-117.5 85.5t-79 115t-29 146z" />
<glyph unicode="&#xe53;" horiz-adv-x="1628" d="M190 304v763h205l420 -314l420 314h204v-1067h-227v792l-397 -282l-398 282v-476q0 -42 11.5 -67t33.5 -37.5t55 -16.5q32 -5 74 -5v-190q-95 0 -169.5 11t-126 43.5t-78.5 92.5t-27 157z" />
<glyph unicode="&#xe54;" horiz-adv-x="1628" d="M151 529q0 121 49 224.5t144.5 179.5t232.5 119t313 43q79 0 157.5 -7t151 -18.5t136.5 -26.5q62 -15 113 -32v-192q-129 42 -258 66.5t-265 24.5q-106 0 -186.5 -16t-139.5 -44t-99.5 -64.5t-64 -76.5t-33.5 -82t-10 -78q0 -70 25 -136t80 -118.5t140 -88t209 -45.5 q-26 20 -48 44.5t-39 53.5t-26 64q-11 35 -11 76q0 42 17 82t50 70.5t82.5 49.5t115.5 19q48 0 82 -6t62 -16v-130q-11 4 -33.5 6t-41.5 2q-28 0 -53.5 -4t-43.5 -15.5t-29.5 -32.5t-11.5 -54q0 -27 13 -57t37.5 -58t60.5 -52t84 -39q48 4 90.5 9.5t83 13.5t81 17t82.5 19 v-171q-117 -38 -267.5 -55t-331.5 -19q-168 5 -298 50t-219.5 119t-136 172t-46.5 210z" />
<glyph unicode="&#xe55;" horiz-adv-x="1628" d="M165 529q0 105 37 197t109.5 164.5t176.5 121.5q106 49 240 70q-11 34 -11 70q0 48 18 89t49 72.5t73 50t89 18.5q48 0 90 -18.5t73 -50t49 -72.5t18 -89q0 -19 -3.5 -38t-9.5 -36q87 -11 164 -29q76 -19 135 -38v-192q-129 42 -258 66.5t-265 24.5q-106 0 -186.5 -16 t-139.5 -44t-99.5 -64.5t-64 -76.5t-33.5 -82t-10 -78q0 -70 25 -136t80 -118.5t140 -88t209 -45.5q-26 20 -48 44.5t-39 53.5t-26 64q-11 35 -11 76q0 42 17 82t50 70.5t82.5 49.5t115.5 19q48 0 82 -6t62 -16v-130q-11 4 -33.5 6t-41.5 2q-28 0 -53.5 -4t-43.5 -15.5 t-29.5 -32.5t-11.5 -54q0 -27 13 -57t37.5 -58t60.5 -52t84 -39q48 4 90.5 9.5t83 13.5t81 17t82.5 19v-171q-117 -38 -267.5 -55t-331.5 -19q-168 5 -298 50t-219.5 119t-136 172t-46.5 210zM868 1152q0 -17 5.5 -31t17 -24.5t25.5 -17.5t30 -7q17 0 31 7t25.5 17.5 t17 25.5t5.5 30q0 17 -5.5 31t-17 24.5t-25.5 17.5t-31 7q-16 0 -30 -7t-25.5 -17.5t-17 -24.5t-5.5 -31z" />
<glyph unicode="&#xe56;" horiz-adv-x="1628" d="M246 843v515h230v-300q22 6 53.5 10t69 8.5t78 6.5t78.5 2q159 0 279.5 -40t201 -111.5t121.5 -171.5q40 -101 40 -222q0 -127 -50.5 -231.5t-144 -180t-230 -117.5t-308.5 -42q-70 0 -130.5 10t-111 24.5t-93.5 34.5q-43 18 -80 40v177q101 -56 204.5 -81.5t212.5 -25.5 q59 0 119.5 10.5t115.5 32.5t103.5 52.5t84 72.5t56 95.5t20.5 114.5q0 86 -26.5 155t-84 118t-148.5 76t-219 27q-50 0 -104.5 -4.5t-111.5 -11.5t-113 -18t-112 -25z" />
<glyph unicode="&#xe57;" horiz-adv-x="1628" d="M48 0v1067h204l322 -314l323 314h189v-884q76 0 130.5 13.5t89.5 38.5t52 61.5t17 85.5v976h207v-960q0 -72 -17 -128.5t-47 -101.5t-70 -76.5t-86.5 -51.5t-98 -30t-101.5 -10h-290v781l-298 -285l-300 285v-781h-226z" />
<glyph unicode="&#xe58;" horiz-adv-x="1628" d="M165 501q0 123 49 230.5t141.5 186.5t228.5 124q136 46 312 46q84 0 164.5 -6.5t153.5 -18.5t136 -26q61 -15 112 -32v-193q-65 21 -129.5 38.5t-133 29.5t-140 18t-149.5 4q-102 -3 -180 -20t-134.5 -45.5t-95 -65.5t-61 -79t-32 -85t-9.5 -83q0 -34 4.5 -72t18.5 -75.5 t41.5 -76t72.5 -75.5l276 245h7l278 -247q39 0 68 9.5t47 27t28 40.5q10 22 10 50q0 45 -12.5 71.5t-33.5 40.5t-49 17t-59 -2v163q3 0 14 0.5t23.5 0.5h22.5h13q64 3 117 -13t89.5 -52t56 -93t19.5 -139q0 -53 -16.5 -109.5t-57 -107t-109.5 -89t-172 -55.5l-279 252 l-274 -252q-59 11 -110 39t-93 68t-74.5 90t-54.5 103t-33.5 109t-11.5 109z" />
<glyph unicode="&#xe59;" horiz-adv-x="1608" d="M134 540q0 104 24.5 198t81.5 166t148 117q91 46 225 54q56 3 106.5 3t106.5 -6l129 -249q22 77 56.5 127.5t77 79t91.5 41.5t101 13q28 0 56 -1.5t55.5 -7t54 -14t48.5 -18.5v-175q-42 20 -75.5 31t-61.5 14t-51 1q-22 -3 -41 -8q-38 -11 -66 -33t-47.5 -51.5t-31.5 -63 t-17.5 -68.5t-7 -68.5t-0.5 -61.5l293 -560h-210l-476 886q-25 6 -57.5 6.5t-64.5 -5t-64.5 -18t-60.5 -32.5q-33 -28 -52.5 -65.5t-29.5 -77.5t-13 -80t-3 -74q0 -42 3 -89.5t14 -95t31 -89.5t53 -73q28 -25 64.5 -35t75.5 -11t77 2.5t66 7.5v-157q-80 -17 -159 -19.5 t-162 19.5q-70 20 -123.5 64.5t-90 113t-55 159.5t-18.5 203z" />
<glyph unicode="&#xe5a;" horiz-adv-x="1764" d="M101 815q0 78 21.5 143t63 112t101.5 73.5t139 26.5h37.5t32.5 -2.5t31.5 -7t35.5 -9.5v-157q-28 6 -50 7t-40 1q-33 0 -59 -12.5t-44.5 -36t-29 -57.5t-10.5 -76q0 -22 4.5 -47t14 -50.5t28 -49t48.5 -42t72.5 -29.5t104.5 -11q67 0 116 11t85.5 29.5t60.5 40t38 41.5 v443h229v-1156h-229v504q-40 -31 -84.5 -49t-89.5 -26.5t-88.5 -10.5t-79.5 -2q-112 0 -197.5 28.5t-144 82t-88.5 126.5q-29 72 -29 162zM1355 0v1156h228v-1156h-228z" />
<glyph unicode="&#xe5b;" horiz-adv-x="2315" d="M122 549q0 117 30.5 216.5t91.5 171t152 112t212 40.5q103 0 177.5 -32t120.5 -86t67 -124.5t21 -149.5q0 -64 -24 -120t-66 -98t-98 -68t-121 -30v157q21 2 46 13.5t46 32.5t35 49.5t14 66.5q0 55 -15.5 96t-43.5 70t-68.5 43.5t-88.5 14.5q-53 0 -104.5 -24t-91 -69.5 t-64.5 -113t-25 -157.5q0 -84 25 -158t72.5 -129t117.5 -87t163 -32q98 0 183.5 35t149 102t100.5 169.5t37 238.5q0 44 -1.5 92.5t-6.5 97.5h162q56 -70 99.5 -139.5t75.5 -139.5q11 23 25 48t29 50.5t30.5 50.5t26.5 47h70q25 -44 53 -92t55 -92q19 26 31 43.5t21 28 t15.5 17.5t13.5 14q10 10 18 17.5t19.5 12t25.5 6.5t36 2h277v-141h-252q-14 0 -26.5 -4.5t-23.5 -18.5q-31 -33 -66 -81.5t-77 -125.5h-47q-26 55 -52.5 109.5t-57.5 104.5q-30 -50 -55.5 -108t-53.5 -123l-68 2q-12 28 -26.5 60t-31.5 64t-35 63.5t-36 57.5q0 -12 0.5 -20 t0.5 -18t-1.5 -21t-2.5 -25q-11 -96 -43.5 -174t-79 -140t-107 -108t-129 -77t-144 -46t-151.5 -15q-94 0 -171.5 23.5t-140.5 65t-109 96.5t-77 118t-47 132t-16 136z" />
<glyph unicode="&#xe74;" />
<glyph unicode="&#x2000;" horiz-adv-x="1162" />
<glyph unicode="&#x2001;" horiz-adv-x="2324" />
<glyph unicode="&#x2002;" horiz-adv-x="1162" />
<glyph unicode="&#x2003;" horiz-adv-x="2324" />
<glyph unicode="&#x2004;" horiz-adv-x="774" />
<glyph unicode="&#x2005;" horiz-adv-x="581" />
<glyph unicode="&#x2006;" horiz-adv-x="387" />
<glyph unicode="&#x2007;" horiz-adv-x="387" />
<glyph unicode="&#x2008;" horiz-adv-x="290" />
<glyph unicode="&#x2009;" horiz-adv-x="464" />
<glyph unicode="&#x200a;" horiz-adv-x="129" />
<glyph unicode="&#x200b;" />
<glyph unicode="&#x2010;" horiz-adv-x="854" d="M129 630v185h596v-185h-596z" />
<glyph unicode="&#x2011;" horiz-adv-x="854" d="M129 630v185h596v-185h-596z" />
<glyph unicode="&#x2012;" horiz-adv-x="854" d="M129 630v185h596v-185h-596z" />
<glyph unicode="&#x2013;" horiz-adv-x="1057" d="M-14 636v173h1086v-173h-1086z" />
<glyph unicode="&#x2014;" horiz-adv-x="2115" d="M-14 636v173h2145v-173h-2145z" />
<glyph unicode="&#x2018;" horiz-adv-x="572" d="M139 1088q0 71 21.5 132t58.5 109.5t88 80.5q49 32 107 46v-67q-30 -13 -51 -30.5t-35 -36.5t-21 -39t-7 -40q0 -28 7 -54.5t23 -48.5q23 -6 42 -18t33 -28.5t21.5 -38.5t7.5 -44q0 -25 -10 -49t-28 -42t-42 -29.5t-52 -11.5q-36 0 -66 15.5t-52 43.5t-33.5 66t-11.5 84z " />
<glyph unicode="&#x2019;" horiz-adv-x="572" d="M139 1326q0 25 10.5 49.5t27 42.5t41.5 30q23 11 51 11q36 0 67 -15.5t52.5 -43.5t33.5 -66t12 -85q0 -72 -21.5 -132.5t-59 -108.5t-87.5 -80t-109 -47v67q31 12 52.5 29.5t36 36.5t21.5 40t7 41q0 28 -7.5 54.5t-24.5 48.5q-22 6 -41 17t-33 28t-21.5 38.5t-7.5 44.5z " />
<glyph unicode="&#x201c;" horiz-adv-x="1191" d="M234 1086q0 72 21.5 133t58.5 109t88 81q49 33 108 47v-67q-31 -13 -52 -30.5t-35 -37t-21 -39.5q-7 -19 -7 -39q0 -28 7 -55q7 -26 24 -48q22 -6 41 -18.5t33 -29.5t21.5 -38t7.5 -43q0 -25 -9.5 -49t-28 -43t-42 -30t-51.5 -11q-37 0 -67 15.5t-51.5 43.5t-33.5 66.5 t-12 82.5zM661 1086q0 72 21.5 133t58.5 109t87.5 81t109.5 47v-67q-31 -13 -52.5 -30.5t-36.5 -37t-22 -39.5q-7 -19 -7 -39q0 -28 8 -55q8 -26 25 -48q22 -6 41 -18.5t33 -29.5t21.5 -38t7.5 -43q0 -25 -10.5 -49t-27 -43t-41.5 -30q-23 -11 -51 -11q-36 0 -67 15.5 t-52.5 43.5t-33.5 66.5t-12 82.5z" />
<glyph unicode="&#x201d;" horiz-adv-x="1191" d="M232 1326q0 25 10.5 49.5t28 42.5t41.5 29.5t52 11.5q36 0 67 -15.5t52 -43.5t33.5 -66t12.5 -85q0 -72 -22.5 -132.5t-58.5 -108.5t-87.5 -80t-108.5 -47v67q31 12 52 29.5t35.5 36.5t21.5 40t7 41q0 28 -7.5 54.5t-24.5 48.5q-22 6 -40.5 17t-32.5 28t-22.5 38.5 t-8.5 44.5zM661 1326q0 25 9.5 49.5t28 42.5t42 29.5t51.5 11.5q37 0 67 -15.5t51.5 -43.5t33.5 -66t12 -85q0 -72 -21.5 -132.5t-58.5 -108.5t-88.5 -80t-107.5 -47v67q31 12 52 29.5t35 36.5t21 40t7 41q0 28 -7 54.5t-24 48.5q-22 6 -41 17t-33 28t-21.5 38.5t-7.5 44.5z " />
<glyph unicode="&#x2022;" horiz-adv-x="1127" d="M241 620q0 67 25 126t68.5 103t102.5 69.5t126 25.5t126 -25.5t103 -69.5t70 -103t26 -126t-26 -126t-70 -103t-103 -69t-126 -25t-126 25t-102.5 69t-68.5 103t-25 126z" />
<glyph unicode="&#x202f;" horiz-adv-x="464" />
<glyph unicode="&#x205f;" horiz-adv-x="581" />
<glyph unicode="&#x20ac;" horiz-adv-x="1325" d="M70 497l28 139h132q0 8 -1 17t-1.5 18t-0.5 17.5v12.5q0 26 2 55q1 31 3 59h-162l28 137h155q14 48 36.5 105t57.5 113t83.5 109.5t113.5 94t148.5 65.5t186.5 25q46 0 86 -4t78 -11t73.5 -18t73.5 -25l-39 -181q-32 13 -61 22.5t-57 17.5t-58.5 11.5t-68.5 3.5 q-81 0 -148.5 -27t-120 -71.5t-90 -104t-57.5 -125.5h608l-24 -137h-604q-2 -30 -2 -51.5v-38.5v-13t1 -18.5t2.5 -24.5t4.5 -33h570l-24 -139h-524q20 -84 56.5 -145t84 -101.5t101.5 -61.5q52 -21 106 -24q30 -3 65 -2t75 8.5t86.5 23t99.5 44.5v-177q-25 -14 -55.5 -29 t-69.5 -27t-89.5 -19t-120.5 -7q-89 0 -163.5 22t-135.5 59.5t-108.5 88t-83 108t-61 118.5t-39.5 121h-176z" />
<glyph unicode="&#x2122;" horiz-adv-x="2115" d="M221 1397v118h664v-118h-261v-708h-137v708h-266zM1029 689v826h237l179 -626h7l180 626h236v-826h-135v718h-8l-221 -718h-112l-220 718h-7v-718h-136z" />
<glyph unicode="&#x25cc;" horiz-adv-x="1349" d="M328 578l91 44q-5 -23 -5 -49q0 -21 5 -41zM426 330l33 96q25 -40 62 -65zM438 823l91 -31q-39 -25 -64 -61zM627 832l46 89l44 -87q-21 3 -41 2q-24 1 -49 -4zM633 315q19 -4 43 -4q20 0 38 4l-41 -85zM826 792l98 31l-34 -95q-25 36 -64 64zM829 356q33 22 56 56 l25 -82zM937 535q2 18 2 38q0 22 -2 43l82 -43z" />
<glyph unicode="&#x25fc;" horiz-adv-x="1059" d="M0 0v1061h1061v-1061h-1061z" />
<glyph unicode="&#xf700;" horiz-adv-x="1146" d="M81 860v176q59 28 116.5 50.5t116 38t120.5 23.5t126 8h543v-159h-227q12 -10 27 -27.5t29 -46t24 -69.5q10 -39 10 -95v-759h-228v305q-11 49 -37 82t-58.5 54t-68.5 29.5t-69 8.5q-28 -2 -52.5 -8t-49.5 -17l-47 179q14 11 33.5 18t39.5 12t40 7q21 2 35 2 q15 0 42.5 -3t59.5 -15.5t67 -36t65 -65.5v179q0 50 -3.5 95.5t-24.5 80t-64.5 55.5t-124.5 21q-39 0 -85.5 -4.5t-102.5 -17t-119 -37.5t-133 -64z" />
<glyph unicode="&#xf701;" d="M-1358 1383v179h784v-179h-784z" />
<glyph unicode="&#xf702;" d="M-1358 1383v179h554v198h230v-377h-784z" />
<glyph unicode="&#xf703;" d="M-1359 1383v178h404q-1 10 -2.5 19t-1.5 19q0 45 17.5 85.5t47 70t68.5 46t84 16.5t85.5 -16.5t70 -46t46 -70t16.5 -85.5t-16.5 -84t-46.5 -68.5t-70 -46.5t-85 -17h-617zM-815 1599q0 -16 5.5 -29t15.5 -23t24 -15.5t28 -5.5q15 0 28.5 5.5t23.5 15.5t16 24t6 28 q0 15 -6 28.5t-16 23t-22.5 16t-29.5 6.5q-15 0 -28.5 -6.5t-23.5 -16t-15.5 -23t-5.5 -28.5z" />
<glyph unicode="&#xf704;" d="M-1358 1383v179h242v198h195v-198h151v198h196v-377h-784z" />
<glyph unicode="&#xf705;" d="M-795 1383v375h227v-375h-227z" />
<glyph unicode="&#xf706;" d="M-1193 1679v110q25 7 63 12t83 5q42 0 75.5 -10t55 -26.5t32 -40.5t10.5 -52q0 -17 -4.5 -34.5t-14.5 -35t-24 -31.5q-15 -14 -32 -25q22 -4 54.5 -6t61.5 -1q35 0 74 5.5t77 15t73 23.5t60 30v-154q-64 -42 -151 -64t-182 -22q-81 0 -153 10q-71 9 -134 32v114 q45 16 66.5 37.5t21.5 51.5q0 22 -12 34.5t-29.5 17.5t-35.5 5q-21 0 -35 -1z" />
<glyph unicode="&#xf707;" d="M-1361 1588q0 44 15.5 83.5t45 67.5t70 44.5t90.5 16.5q20 0 38 -2.5t36.5 -9.5t34 -18.5t26.5 -26.5q29 31 69.5 45t80.5 14q50 0 88.5 -13.5t63.5 -37t38 -57.5t13 -71q0 -14 -4.5 -30.5t-11.5 -30.5t-16.5 -25.5t-21.5 -18.5q129 19 196 65l2 -138q-23 -13 -51 -25 t-60 -21t-67.5 -14.5t-75.5 -5.5q-15 0 -37.5 0.5t-45.5 2t-44 3t-34 4.5v101q23 0 42 7t32 20t21 31.5t8 40.5q0 24 -6 38t-15.5 21.5t-21.5 9.5q-11 2 -25 2q-25 0 -45 -18.5t-26 -52.5h-97q-2 36 -20 55q-16 16 -47 16q-25 0 -44.5 -16t-19.5 -55q0 -27 8.5 -46.5 t21.5 -30.5t31.5 -16.5t37.5 -5.5h17v-101q-8 -3 -18 -5t-20.5 -3.5t-21.5 -2t-20 -0.5q-43 0 -76 9.5t-55.5 26.5t-38 39.5t-25 45.5t-12.5 46t-3 43z" />
<glyph unicode="&#xf708;" d="M-1092 1523v150h171v139h225v-139h170v-150h-170v-140h-225v140h-171z" />
<glyph unicode="&#xf709;" d="M-941 1590q0 72 33.5 122.5t92.5 82t136 45.5q77 16 164 16v-117q-108 -10 -165.5 -44.5t-57.5 -101.5q0 -22 12 -37.5t29 -25.5t36 -16q20 -5 35 -8v-123h-14h-12q-69 0 -123 13.5t-90.5 40t-56 65t-19.5 88.5z" />
<glyph unicode="&#xf70a;" d="M-409 1383v375h228v-375h-228z" />
<glyph unicode="&#xf70b;" d="M-650 1679v110q26 7 63 12t83 5q42 0 75 -10t54.5 -26.5t33 -40.5t11.5 -52q0 -17 -6 -34.5t-15.5 -35t-23.5 -31.5t-31 -25q22 -4 54 -6q30 -2 61 -1q35 0 75 5.5t77.5 15t72 23.5t59.5 30v-154q-64 -42 -150.5 -64t-182.5 -22q-81 0 -152 10q-71 9 -135 32v114 q45 16 66.5 37.5t21.5 51.5q0 22 -12 34.5t-28.5 17.5t-36.5 5t-34 -1z" />
<glyph unicode="&#xf70c;" d="M-977 1585q0 45 15.5 82.5t44 66.5t68.5 45t90 16q20 0 38 -3t36.5 -10t33.5 -18t25 -25h2q29 31 69 44t78 13q50 0 88 -13t63 -37t37 -56t12 -70q0 -30 -11.5 -58t-33.5 -42q70 9 123 29t98 58v-143q-17 -16 -47.5 -31t-68.5 -27t-82.5 -19.5t-92.5 -7.5q-15 0 -36 0.5 t-43 2t-41.5 3t-30.5 4.5v98q22 0 39.5 8.5t31 21t22 30.5t8.5 39q0 24 -6 38t-15.5 21t-21.5 10q-11 3 -25 3q-25 0 -44.5 -19t-25.5 -53h-95q-3 35 -20.5 53.5t-46.5 18.5q-25 0 -44 -17t-19 -55q0 -26 7.5 -44.5t21.5 -31t31.5 -18t37.5 -5.5h17v-98q-9 -3 -18 -5 t-20 -3.5t-22.5 -2t-19.5 -0.5q-64 0 -104 21t-63 53t-32 68q-8 37 -8 65z" />
<glyph unicode="&#xf70d;" d="M-574 1523v150h171v139h224v-139h169v-150h-169v-140h-224v140h-171z" />
<glyph unicode="&#xf70e;" d="M-529 1590q0 72 33.5 121.5t91.5 82t134.5 46.5t163.5 14v-115q-108 -10 -165.5 -45.5t-57.5 -100.5q0 -22 12 -38t28.5 -26.5t36.5 -16.5t35 -8v-124h-14h-13q-68 0 -121.5 14t-89.5 41.5t-55 66t-19 88.5z" />
<glyph unicode="&#xf70f;" horiz-adv-x="1993" d="M181 0v748q0 91 20 158.5t55 115.5t82.5 78.5t102.5 49t113.5 25.5t117.5 7t117.5 -7t114 -24.5t103 -49t82.5 -79.5t55 -116q21 -66 21 -158v-356q0 -28 2.5 -56t10.5 -53t22.5 -47t37.5 -38t57.5 -24.5t80.5 -8.5t80 8.5t57.5 24.5t37.5 38t21 47t10 53t3 56v764h228 v-795q0 -84 -23 -154t-75 -119.5t-134.5 -77t-200.5 -27.5q-121 0 -206 27.5t-137.5 77t-76 119.5t-23.5 154v342q0 68 -13.5 118t-36 82t-50.5 51.5t-57.5 29.5t-57.5 13t-50 3t-50 -3t-57.5 -12t-57.5 -28t-50 -51t-35 -82q-13 -51 -13 -121v-532h176v-171h-404z" />
<glyph unicode="&#xf710;" d="M-886 1383v339h238v-160h651v-179h-889z" />
<glyph unicode="&#xf711;" d="M-990 1562.5q0 47.5 17.5 89t48.5 73t73 49t89.5 17.5t88 -17.5t72 -49t49 -73t17.5 -89t-17.5 -89t-49 -72t-72.5 -48.5q-40 -17 -87.5 -17t-89.5 17.5t-73 48t-48.5 72t-17.5 89zM-851 1562q0 -18 7 -34t19.5 -28.5t28 -19.5t34.5 -7t35 7t27 19.5t18 28t7 34.5t-7 35 t-18 27t-28 18t-34 7q-18 0 -34 -7t-28.5 -18t-19.5 -27t-7 -35z" />
<glyph unicode="&#xf712;" d="M-1357 1610q0 55 22 100.5t62.5 77.5t96.5 49.5t125 17.5h505v-144h-493q-75 0 -109.5 -26t-34.5 -74q0 -32 9 -53t26 -32t38 -15.5t46 -4.5q48 0 71.5 11.5t36 28t15.5 35t7 32.5h88q5 -14 9.5 -32.5t18.5 -35t41 -28t74 -11.5q39 0 64.5 7t43.5 18.5t29.5 24t19.5 25.5 v-161q0 -3 -10 -11.5t-29.5 -19t-49 -19t-65.5 -8.5q-66 0 -114 22t-71 72q-14 -28 -34 -45.5t-46 -28t-58.5 -15.5t-69.5 -5q-82 0 -133 22.5t-80.5 58t-40 80t-10.5 87.5z" />
<glyph unicode="&#xf713;" d="M-802 1910v329h228v-329h-228z" />
<glyph unicode="&#xf714;" d="M-980 2188v105q24 7 59.5 12t79.5 5q84 0 125 -34.5t41 -88.5q0 -14 -5.5 -31.5t-14.5 -33.5t-23 -31q-13 -16 -30 -25q23 -4 52.5 -6t58.5 -1q34 0 71.5 5t74 15t69.5 23q33 12 57 29v-147q-62 -39 -145 -61q-81 -22 -173 -22q-79 0 -147.5 10t-127.5 31v110 q44 14 63.5 35t19.5 48q0 22 -11 34t-27.5 16.5t-34.5 4.5t-32 -2z" />
<glyph unicode="&#xf715;" d="M-1106 2100q0 42 14 79t42 64.5t66 43t85 15.5q17 0 36.5 -3t36.5 -10t31 -17t25 -24q28 28 66 41.5t75 13.5q48 0 84.5 -13.5t61 -35.5t35.5 -53t11 -67q0 -28 -11 -55t-34 -41q68 9 119.5 28.5t93.5 55.5v-137q-17 -15 -45.5 -30t-65.5 -26t-79 -18t-87 -7h-35t-42 1.5 t-39 3.5t-30 3v96q20 0 38 7t31 19.5t20 29t7 39t-6 36t-14 20.5t-19.5 9t-25.5 2q-24 0 -42.5 -18t-23.5 -49h-91q-2 33 -19 50t-45 17q-25 0 -42.5 -15.5t-17.5 -51.5q0 -25 7.5 -43.5t20 -29.5t29.5 -16.5t37 -5.5h16v-94q-7 -3 -17.5 -5t-20 -3.5t-20 -3t-19.5 -1.5 q-61 0 -99.5 21t-60.5 52t-29.5 64.5t-7.5 61.5z" />
<glyph unicode="&#xf716;" d="M-938 2044v148h171v132h199v-132h170v-148h-170v-134h-199v134h-171z" />
<glyph unicode="&#xf717;" d="M-874 1912q0 68 34 117t90.5 79.5t131.5 44.5t156 14l-1 -109q-103 -10 -156.5 -43t-53.5 -94q0 -21 11 -36.5t27 -25.5t34.5 -14.5t32.5 -7.5v-118h-13h-13q-64 0 -116 12.5t-88 37t-56 60.5t-20 83z" />
<glyph unicode="&#xf718;" d="M-525 -539h344v-379h-214v201h-130v178z" />
<glyph unicode="&#xf719;" d="M-871 -539h317l-2 -167q0 -28 23 -45.5t63 -17.5q36 0 57 17.5t21 45.5v167h213v-144q0 -115 -66.5 -175t-212.5 -60h-26q-51 0 -97 9.5t-82.5 30.5t-59.5 52q-25 31 -27 73l1 36h-122v178z" />
<glyph unicode="&#xf71a;" d="M-454 -673q0 30 13 59t33 49t48 32q30 12 60 12q31 0 59 -12t49 -32t33.5 -48t12.5 -60q0 -31 -12.5 -60t-33.5 -50t-49 -32.5t-59 -11.5q-30 0 -59 11.5t-49 32.5t-33 50t-13 60z" />
<glyph unicode="&#xf71d;" horiz-adv-x="1468" d="M78 1156h238l140 -792l241 428h121l233 -428l72 405q10 56 -5 98.5t-48.5 73.5t-82.5 46t-105 15q-17 0 -42 -1t-50 -4v148q9 3 25.5 5t36 4t37.5 2h32h518v-154h-189q25 -11 45.5 -37.5t33 -61.5t16.5 -76q2 -40 -7 -81l-159 -746h-137l-289 539l-302 -539h-137z" />
<glyph d="M-868 1576q0 55 28 93.5t70 58.5q-42 25 -63.5 58.5t-21.5 86.5q0 65 31.5 112.5t86 78t127.5 45.5q72 16 154 16l-2 -110q-50 0 -90 -9.5t-68.5 -26t-43.5 -42t-15 -55.5q0 -19 5.5 -34t17 -26.5t29.5 -17.5t43 -6l16 -89q-25 -8 -44 -18.5t-33 -24t-22 -30.5 q-6 -18 -6 -43q0 -22 11 -39t28 -28t35 -18t32 -9v-116h-12h-13q-62 0 -112 12.5t-88 36.5t-59 60.5t-21 83.5z" />
<glyph horiz-adv-x="894" d="M-990 1548.5q0 47.5 17.5 89t48.5 73t73 49t89.5 17.5t88 -17.5t72 -49t49 -73t17.5 -89t-17.5 -89t-49 -72t-72.5 -48.5q-40 -17 -87.5 -17t-89.5 17.5t-73 48t-48.5 72t-17.5 89zM-851 1548q0 -18 7 -34t19.5 -28.5t28 -19.5t34.5 -7t35 7t27 19.5t18 28t7 34.5t-7 35 t-18 27t-28 18t-34 7q-18 0 -34 -7t-28.5 -18t-19.5 -27t-7 -35zM50 944v156q26 13 63 26.5t83 25t99 19.5q52 8 111 8q70 0 127.5 -17.5t98 -52t61.5 -87.5t21 -123v-899h-230v843q0 53 -15 85t-42 49t-62 22.5t-72 5.5q-20 0 -50 -4t-65 -12.5t-68.5 -19.5t-59.5 -25z" />
<glyph horiz-adv-x="894" d="M-990 1548.5q0 47.5 17.5 89t48.5 73t73 49t89.5 17.5t88 -17.5t72 -49t49 -73t17.5 -89t-17.5 -89t-49 -72t-72.5 -48.5q-40 -17 -87.5 -17t-89.5 17.5t-73 48t-48.5 72t-17.5 89zM-851 1548q0 -18 7 -34t19.5 -28.5t28 -19.5t34.5 -7t35 7t27 19.5t18 28t7 34.5t-7 35 t-18 27t-28 18t-34 7q-18 0 -34 -7t-28.5 -18t-19.5 -27t-7 -35zM50 944v156q26 13 63 26.5t83 25t99 19.5q52 8 111 8q70 0 127.5 -17.5t98 -52t61.5 -87.5t21 -123v-899h-230v843q0 53 -15 85t-42 49t-62 22.5t-72 5.5q-20 0 -50 -4t-65 -12.5t-68.5 -19.5t-59.5 -25z" />
<glyph horiz-adv-x="1208" d="M120 574q0 118 21 207.5t57.5 155t84 110.5t101 71.5t109.5 38.5t109 12h4q53 0 110 -12t110 -38.5t100.5 -71.5t83.5 -110.5t57 -156.5q21 -88 21 -206q0 -104 -18.5 -189t-51 -151.5t-77.5 -115t-98 -79.5t-113.5 -46t-123.5 -15q-95 0 -182.5 34t-154.5 106 t-108 185.5t-41 270.5zM336 573q0 -89 12.5 -154.5t33.5 -112t47.5 -76.5t56 -47.5t59.5 -23.5t58 -6t58.5 6t60.5 23.5t57 47.5t48 76.5t33 112t12 154.5q0 84 -11 147.5t-30.5 109.5t-45.5 78.5t-56 50.5t-61.5 26.5t-64.5 8.5q-30 0 -61.5 -8.5t-62 -26.5t-56 -50.5 t-45.5 -78.5t-31 -109.5t-11 -147.5z" />
<glyph horiz-adv-x="648" d="M213 0v1145h222v-1145h-222z" />
<glyph horiz-adv-x="1206" d="M143 0v45q18 11 34 22t34 25h2q67 48 136.5 100.5t134.5 109t122.5 117t100 119t67 117.5t24.5 114q0 47 -12.5 87t-40.5 68t-71 43q-41 16 -100 16q-45 0 -96 -12.5t-103.5 -32.5t-102.5 -44q-51 -23 -94 -48v179q56 33 108.5 57t106.5 41t112 24t125 7q74 0 145 -21 t126 -63t88.5 -106.5t33.5 -151.5t-30 -165.5t-84.5 -152.5t-131.5 -148t-169 -153h492v-193h-957z" />
<glyph horiz-adv-x="1118" d="M140 -101q36 -19 78 -33t83 -22.5t80 -13t73 -4.5q61 0 117 18.5t98 52t67 83.5q26 51 26 112q0 75 -22 124.5t-60.5 80.5t-89 44t-108.5 13q-9 0 -16 1t-14 -1v184q65 0 115 11.5t86 39t54 72.5t18 109q0 36 -11 74t-42 69t-82.5 50.5t-131.5 19.5q-31 0 -68 -3 t-75.5 -8t-75.5 -12.5t-70 -18.5v165q37 13 81 23.5t91 17.5t93 11t85 4q112 0 191.5 -30t131 -80t76.5 -113q24 -63 24 -130q0 -28 -2 -60t-9 -64.5t-19.5 -64.5t-33.5 -60t-52 -52t-76 -40v-3q56 -11 95.5 -36.5t66.5 -57t43.5 -68t24.5 -73.5t11 -72t3 -61 q0 -100 -32 -182.5t-97.5 -142t-162.5 -92.5t-226 -33q-41 0 -85 5.5t-87.5 15.5t-85.5 23q-42 12 -78 29v179z" />
<glyph horiz-adv-x="1233" d="M133 0v185l743 971h125v-974h139v-182h-139v-344h-220v344h-648zM336 182h445v568z" />
<glyph horiz-adv-x="1132" d="M141 -129q65 -28 135 -40t154 -12q59 0 118.5 17t106 52.5t76 91.5t29.5 136q0 67 -19 121t-61.5 90.5t-110.5 56t-166 19.5q-47 0 -95 -5.5t-88 -13.5v760h721v-200h-520v-374q14 1 31.5 2.5t34.5 3t32.5 1.5h22.5q81 0 146 -15.5t114 -43.5t85.5 -67t59.5 -85.5 t33.5 -100.5t10.5 -111q0 -76 -18 -143t-51 -123.5t-79 -102t-103 -78t-120 -49.5q-63 -18 -133 -18q-50 0 -99 5t-94 13.5t-84 19.5t-69 24v169z" />
<glyph horiz-adv-x="1195" d="M104 456q0 66 18 134.5t47.5 136.5t66.5 133t76 127l326 503h245l-397 -594q11 6 30 10t41.5 7t44.5 4t42 0q87 -3 166.5 -32.5t142.5 -86t101 -142t38 -197.5q0 -73 -17.5 -136t-49.5 -116t-77.5 -95t-100.5 -71.5t-118 -45t-130 -15.5q-105 0 -195 34.5t-157.5 97 t-105 150.5t-37.5 194zM322 449q0 -64 25 -116.5t66 -90.5t91 -58t101 -20q47 0 97 20t90 58t65 91t26 118q0 71 -21 125t-58 90.5t-88.5 56t-113.5 19.5q-53 0 -103.5 -18t-89.5 -54.5t-63 -91t-24 -129.5z" />
<glyph horiz-adv-x="1103" d="M101 944v198h929l-606 -1486h-228l532 1288h-627z" />
<glyph horiz-adv-x="1197" d="M97 414q0 65 16.5 125t52.5 109t90.5 87.5t129.5 61.5q-64 23 -110 59t-75.5 80t-42 94.5t-12.5 103.5q0 92 34 163.5t95 119t143.5 73t180.5 25.5q97 0 180 -26t143.5 -74.5t95.5 -119.5t35 -161q0 -55 -12.5 -105t-42 -94.5t-76 -79.5t-110.5 -58q76 -23 130.5 -61.5 t89.5 -87.5t51.5 -109t16.5 -125q0 -95 -35 -174.5t-99 -137t-158 -90t-212 -32.5q-114 0 -206.5 32.5t-158.5 90t-100 137t-34 174.5zM319 428q0 -63 21 -111t59 -81.5t89 -50.5t110 -17q60 0 112 17t89 50.5t58.5 81.5t21.5 111q0 68 -25 117.5t-64.5 81.5t-89 47.5 t-99.5 15.5q-52 0 -102.5 -15.5t-90.5 -47.5t-64.5 -81.5t-24.5 -117.5zM361 1110q0 -64 21 -108t56 -71t78 -38t85 -11t83 11t75.5 38t56 71t21.5 108q0 48 -11 83.5t-29.5 61t-43 42t-50 26.5t-52.5 14t-50 4q-26 0 -52.5 -4t-53 -14t-51 -26.5t-42.5 -42t-29.5 -62 t-11.5 -82.5z" />
<glyph horiz-adv-x="1250" d="M132 683q0 73 18 136.5t50 117t77 95.5t99.5 70.5t117.5 44t132 15.5q105 0 195 -33.5t156.5 -96.5t104.5 -151.5t38 -194.5q0 -67 -18 -134.5t-47.5 -135t-66.5 -132.5q-36 -66 -75 -127l-326 -503h-245l397 592q-11 -5 -30.5 -8.5t-42 -6.5t-44.5 -4h-41 q-87 3 -167.5 32t-143.5 86t-100.5 141.5t-37.5 196.5zM342 693q0 -71 21 -126t58 -91t88 -55t113 -19q53 0 103.5 17.5t89.5 54t63 91t24 129.5q0 65 -25.5 116.5t-66 89.5t-91 59t-100.5 21q-48 0 -97 -21t-89.5 -59t-65.5 -90.5t-25 -116.5z" />
<glyph d="M-874 1910v327h230v-327h-230z" />
<glyph d="M-1008 2044v148h171v132h199v-132h170v-148h-170v-134h-199v134h-171z" />
<glyph d="M-1070 1383v179h889v-179h-889z" />
<glyph d="M-1070 1383v179h660v198h228v-377h-888z" />
<glyph d="M-1070 1383v179h481q-2 10 -3.5 19t-1.5 19q0 45 17.5 85t47 69.5t69.5 46t85 16.5t84.5 -16.5t69 -46t47 -69.5t17.5 -85t-17.5 -84.5t-47.5 -69t-69 -46.5t-86 -17h-693zM-448 1600q0 -15 5.5 -28.5t15.5 -24t23 -16t29 -5.5q15 0 28.5 5.5t23 16t15.5 24t6 28.5 q0 16 -6 29t-15.5 23t-23 16t-28.5 6q-16 0 -29 -6t-23 -16t-15.5 -23t-5.5 -29z" />
<glyph d="M-1071 1383v179h350v198h195v-198h151v198h196v-377h-892z" />
<glyph d="M-1064 1610q0 55 22.5 100.5t62.5 77.5t96.5 49.5t123.5 17.5h507v-144h-493q-75 0 -110 -26t-35 -74q0 -32 9.5 -53t25.5 -32t38 -15.5t47 -4.5q48 0 71.5 11.5t35.5 28t15.5 35t6.5 32.5h88q4 -14 9.5 -32.5t19.5 -35t41 -28t74 -11.5q39 0 64.5 7t43 18.5t28.5 24 t21 25.5v-161q0 -3 -10.5 -11.5t-29.5 -19t-48.5 -19t-66.5 -8.5q-66 0 -113.5 22t-71.5 72q-14 -28 -34.5 -45.5t-45.5 -28t-57.5 -15.5t-71.5 -5q-81 0 -131.5 22.5t-80 58t-40.5 80t-11 87.5z" />
<glyph d="M-409 1812v375h228v-375h-228z" />
<glyph d="M-630 2106v105q24 7 59.5 11.5t80.5 4.5q84 0 125.5 -34t41.5 -90q0 -14 -5 -31t-15 -33.5t-23 -30.5t-30 -24q22 -4 52 -6q30 -1 58 -1q34 0 72 5t74 14t69 23t57 29v-147q-62 -39 -144.5 -61.5t-174.5 -22.5q-79 0 -146 10t-129 32v109q44 14 64 35t20 49q0 23 -11 34 t-27 15.5t-34 4.5h-34z" />
<glyph d="M-798 2015q0 42 15.5 79t42 64t65.5 43.5t87 16.5q17 0 35 -3.5t35 -10t32 -17.5q13 -11 24 -25h1q28 28 66.5 42t75.5 14q47 0 83.5 -13t60.5 -35t36 -54q10 -31 10 -68q0 -28 -10 -54q-9 -26 -32 -40q67 9 119 27q49 18 91 55v-135q-17 -15 -45 -30t-64 -26.5 t-79.5 -18.5t-88.5 -7q-14 0 -34.5 0.5t-41.5 2t-39.5 3t-30.5 2.5v95q20 0 38 8t31.5 19.5t21 29t7.5 37.5q0 22 -5.5 36t-14.5 21t-21 9.5t-23 2.5q-24 0 -43 -19t-24 -50h-93q-2 34 -17.5 52t-45.5 17q-25 0 -42 -16q-18 -17 -18 -53q0 -25 8 -42.5t21 -29.5t30 -17 t35 -5h15v-94q-7 -2 -16 -4.5t-20 -4.5t-21 -2h-18q-62 0 -99.5 20.5t-60 50.5t-31 65t-8.5 62z" />
<glyph d="M-557 1952v149h171v131h207v-131h169v-149h-169v-133h-207v133h-171z" />
<glyph d="M-804 1819v376h227v-376h-227z" />
<glyph d="M-980 2104v105q24 7 59.5 12t79.5 5q84 0 125 -34.5t41 -88.5q0 -14 -5.5 -31.5t-14.5 -33.5t-23 -31q-13 -16 -30 -25q23 -4 52.5 -6t58.5 -1q34 0 71.5 5t74 15t69.5 23q33 12 57 29v-147q-62 -39 -145 -61q-81 -22 -173 -22q-79 0 -147.5 10t-127.5 31v110 q44 14 63.5 35t19.5 48q0 22 -11 34t-27.5 16.5t-34.5 4.5t-32 -2z" />
<glyph d="M-1106 2009q0 42 14 79t42 64.5t66 43.5t85 16q17 0 36.5 -3.5t36.5 -10t31 -17.5t25 -25q28 28 66 42t75 14q48 0 84.5 -12.5t61 -35t35.5 -54t11 -67.5q0 -28 -11 -55q-11 -25 -34 -39q68 8 119.5 26.5t93.5 54.5v-134q-17 -16 -45.5 -30.5t-65.5 -26.5t-79 -19t-87 -7 q-14 0 -35 0.5t-42 2t-39 3l-30 2.5v96q20 0 38 7.5t31 19.5t20 29.5t7 36.5q0 23 -6 37t-14 21t-19.5 9t-25.5 2q-24 0 -43 -18q-18 -20 -23 -51h-91q-2 34 -19 52t-45 17q-25 0 -43 -15q-17 -17 -17 -54q0 -25 7.5 -42.5t20 -29.5t29.5 -16.5t37 -4.5h16v-94 q-7 -3 -17.5 -5t-20 -4t-20 -2h-19.5q-61 0 -99.5 20t-60.5 50t-29.5 65t-7.5 62z" />
<glyph d="M-938 1952v151h171v130h199v-130h170v-151h-170v-132h-199v132h-171z" />
<glyph d="M-1537 1383v179h1356v-179h-1356z" />
<glyph d="M-1532 1383v179h1123v198h228v-377h-1351z" />
<glyph d="M-1537 1383v179h949q-1 10 -2.5 19t-1.5 19q0 45 17.5 85t47 69.5t68.5 46t84 16.5t85.5 -16.5t70 -46t46 -69.5t16.5 -85t-16.5 -84.5t-46 -69t-70 -46.5t-85.5 -17h-1162zM-448 1600q0 -15 5.5 -28.5t15.5 -24t24 -16t28 -5.5q15 0 28.5 5.5t23 16t16 24t6.5 28.5 q0 16 -6.5 29t-16 23t-22 16t-29.5 6q-16 0 -29 -6t-23 -16t-15.5 -23t-5.5 -29z" />
<glyph d="M-1539 1383v179h769v198h216v-198h159v198h216v-377h-1360z" />
<glyph d="M-1352 1610q0 63 22 109t64 76.5t103 44.5q63 15 138 15h548v-144h-535q-38 0 -67.5 -5.5t-49.5 -17t-30.5 -30.5t-10.5 -47q0 -32 12.5 -53t33.5 -32t45 -15q26 -5 49 -5q42 0 67 11.5t39 28t19.5 35t11.5 32.5h87q4 -14 9 -32.5t20 -35t45.5 -28t83.5 -11.5 q39 0 66.5 7t47 18.5t33.5 24t24 25.5v-157q-6 -6 -18 -16.5t-31.5 -20t-49 -17.5t-71.5 -8q-31 0 -59.5 5t-53.5 15.5t-47 28.5q-22 17 -39 45q-19 -28 -41.5 -45.5t-49 -28t-57.5 -15.5t-67 -5q-76 0 -130.5 20.5t-90 54t-53 78.5t-17.5 95z" />
<glyph d="M-1376 1383v339h238v-160h651v-179h-889z" />
<glyph d="M-1498 1383v179h994v-179h-994z" />
<glyph d="M-1498 1383v179h764v198h230v-377h-994z" />
<glyph d="M-1499 1383v178h614q-1 10 -2.5 19t-1.5 19q0 45 17.5 85.5t47 70t68.5 46t84 16.5t85.5 -16.5t70 -46t46 -70t16.5 -85.5t-16.5 -84t-46.5 -68.5t-70 -46.5t-85 -17h-827zM-745 1599q0 -16 5.5 -29t15.5 -23t24 -15.5t28 -5.5q15 0 28.5 5.5t23.5 15.5t16 24t6 28 q0 15 -6 28.5t-16 23t-22.5 16t-29.5 6.5q-15 0 -28.5 -6.5t-23.5 -16t-15.5 -23t-5.5 -28.5z" />
<glyph d="M-1498 1383v179h452v198h195v-198h151v198h196v-377h-994z" />
<glyph d="M-734 1910v329h230v-329h-230z" />
<glyph d="M-980 2188v105q24 7 59.5 12t79.5 5q84 0 125 -34.5t41 -88.5q0 -14 -5.5 -31.5t-14.5 -33.5t-23 -31q-13 -16 -30 -25q23 -4 52.5 -6t58.5 -1q34 0 71.5 5t74 15t69.5 23q33 12 57 29v-147q-62 -39 -145 -61q-81 -22 -173 -22q-79 0 -147.5 10t-127.5 31v110 q44 14 63.5 35t19.5 48q0 22 -11 34t-27.5 16.5t-34.5 4.5t-32 -2z" />
<glyph d="M-1106 2100q0 42 14 79t42 64.5t66 43t85 15.5q17 0 36.5 -3t36.5 -10t31 -17t25 -24q28 28 66 41.5t75 13.5q48 0 84.5 -13.5t61 -35.5t35.5 -53t11 -67q0 -28 -11 -55t-34 -41q68 9 119.5 28.5t93.5 55.5v-137q-17 -15 -45.5 -30t-65.5 -26t-79 -18t-87 -7h-35t-42 1.5 t-39 3.5t-30 3v96q20 0 38 7t31 19.5t20 29t7 39t-6 36t-14 20.5t-19.5 9t-25.5 2q-24 0 -42.5 -18t-23.5 -49h-91q-2 33 -19 50t-45 17q-25 0 -42.5 -15.5t-17.5 -51.5q0 -25 7.5 -43.5t20 -29.5t29.5 -16.5t37 -5.5h16v-94q-7 -3 -17.5 -5t-20 -3.5t-20 -3t-19.5 -1.5 q-61 0 -99.5 21t-60.5 52t-29.5 64.5t-7.5 61.5z" />
<glyph d="M-868 2044v148h171v132h199v-132h170v-148h-170v-134h-199v134h-171z" />
<glyph d="M-658 2106q0 42 15.5 79t42 64t65.5 42.5t87 15.5q17 0 35 -2.5t35 -9.5t32 -17q13 -10 24 -24h1q28 28 66.5 41.5t75.5 13.5q47 0 83.5 -13.5t60.5 -36t36 -53.5q10 -30 10 -67q0 -28 -10 -54q-9 -27 -32 -41q67 8 119 28q49 20 91 56v-137q-17 -16 -45 -30.5t-64 -25.5 t-79.5 -18t-88.5 -7h-34.5t-41.5 1t-39.5 3.5t-30.5 3.5v95q20 0 38 7t31.5 19.5t21 29.5t7.5 39.5t-5.5 35.5t-14.5 20t-21 9.5t-23 2.5q-24 0 -43 -18.5t-24 -49.5h-93q-2 34 -17.5 51t-45.5 17q-25 0 -42.5 -15.5t-17.5 -52.5q0 -25 8 -43t21 -29.5t30 -17t35 -5.5h15 v-94q-7 -2 -16 -4.5t-20 -3.5t-21 -2.5t-18 -1.5q-62 0 -99.5 21t-60 51.5t-31 64.5t-8.5 62z" />
<glyph d="M-952 1383v179h771v-179h-771z" />
<glyph d="M-952 1383v179h542v198h228v-377h-770z" />
<glyph d="M-952 1383v179h363q-2 10 -3.5 19t-1.5 19q0 45 17.5 85t47 69.5t69.5 46t85 16.5t84.5 -16.5t69 -46t47 -69.5t17.5 -85t-17.5 -84.5t-47.5 -69t-69 -46.5t-86 -17h-575zM-448 1600q0 -15 5.5 -28.5t15.5 -24t23 -16t29 -5.5q15 0 28.5 5.5t23 16t15.5 24t6 28.5 q0 16 -6 29t-15.5 23t-23 16t-28.5 6q-16 0 -29 -6t-23 -16t-15.5 -23t-5.5 -29z" />
<glyph d="M-952 1383v179h242v198h186v-198h152v198h193v-377h-773z" />
<glyph d="M-960 1610q0 55 21 100.5t58.5 77.5t91.5 50q55 17 120 17h480v-144h-469q-71 0 -102.5 -26.5t-31.5 -73.5q0 -32 8 -53t23.5 -32t35 -15.5t43.5 -4.5q45 0 68 11.5t34.5 28t14.5 35.5q5 18 8 32h82q3 -14 8.5 -32.5t19 -35t38.5 -28t70 -11.5q37 0 62 7t41 18.5t26.5 24 t20.5 25.5v-161q0 -3 -10 -11.5t-28.5 -19t-45.5 -19t-63 -8.5q-31 0 -59 5t-50.5 16t-39 29.5t-27.5 43.5q-14 -28 -32.5 -45.5t-43.5 -28t-54.5 -15.5t-67.5 -5q-77 0 -125 22.5t-76 58t-38.5 80t-10.5 87.5z" />
<glyph d="M-1140 1383v179h1029v-179h-1029z" />
<glyph d="M-1140 1383v179h800v198h228v-377h-1028z" />
<glyph d="M-1140 1383v179h621q-2 10 -3.5 19t-1.5 19q0 45 17.5 85t47 69.5t69.5 46t85 16.5t84.5 -16.5t69 -46t47 -69.5t17.5 -85t-17.5 -84.5t-47.5 -69t-69 -46.5t-86 -17h-833zM-378 1600q0 -15 5.5 -28.5t15.5 -24t23 -16t29 -5.5q15 0 28.5 5.5t23 16t15.5 24t6 28.5 q0 16 -6 29t-15.5 23t-23 16t-28.5 6q-16 0 -29 -6t-23 -16t-15.5 -23t-5.5 -29z" />
<glyph d="M-1141 1383v179h490v198h195v-198h151v198h196v-377h-1032z" />
<glyph d="M-339 1910v329h228v-329h-228z" />
<glyph d="M-630 2195v107q24 7 59.5 11.5t80.5 4.5q84 0 125.5 -35t41.5 -88q0 -14 -5 -32t-15 -34t-23 -31t-30 -23q22 -4 52 -6.5t58 -2.5q34 0 72 6t74 15.5t69 22t57 29.5v-148q-62 -39 -144.5 -60t-174.5 -21q-79 0 -146 9.5t-129 29.5v110q44 14 64 35q20 20 20 48 q0 22 -11 34t-27 17t-34 5q-20 0 -34 -3z" />
<glyph d="M-728 2106q0 42 15.5 79t42 64t65.5 42.5t87 15.5q17 0 35 -2.5t35 -9.5t32 -17q13 -10 24 -24h1q28 28 66.5 41.5t75.5 13.5q47 0 83.5 -13.5t60.5 -36t36 -53.5q10 -30 10 -67q0 -28 -10 -54q-9 -27 -32 -41q67 8 119 28q49 20 91 56v-137q-17 -16 -45 -30.5t-64 -25.5 t-79.5 -18t-88.5 -7h-34.5t-41.5 1t-39.5 3.5t-30.5 3.5v95q20 0 38 7t31.5 19.5t21 29.5t7.5 39.5t-5.5 35.5t-14.5 20t-21 9.5t-23 2.5q-24 0 -43 -18.5t-24 -49.5h-93q-2 34 -17.5 51t-45.5 17q-25 0 -42.5 -15.5t-17.5 -52.5q0 -25 8 -43t21 -29.5t30 -17t35 -5.5h15 v-94q-7 -2 -16 -4.5t-20 -3.5t-21 -2.5t-18 -1.5q-62 0 -99.5 21t-60 51.5t-31 64.5t-8.5 62z" />
<glyph d="M-487 2043v149h171v132h207v-132h169v-149h-169v-133h-207v133h-171z" />
<glyph d="M-805 -143h344v-379h-214v201h-130v178z" />
<glyph d="M-1011 -143h317l-2 -165q0 -28 23 -46t63 -18q36 0 57 17q21 19 21 47v165h213v-144q0 -115 -66.5 -174.5t-212.5 -59.5h-26q-51 0 -97 10t-82.5 30t-59.5 51q-25 31 -27 73l1 36h-122v178z" />
<glyph d="M-783 -283q0 31 12 59.5t33 49t49 33t59 12.5t59.5 -12.5t49.5 -33t33 -48.5q12 -29 12 -60t-12 -59t-33 -49t-49 -33q-29 -13 -60 -13t-59 12.5t-49 33.5t-33 49t-12 59z" />
<glyph d="M-742 -143h344v-379h-215v201h-129v178z" />
<glyph d="M-1093 -143h316l-1 -165q0 -28 23 -46t62 -18q36 0 58 17q22 19 22 47l-2 165h213v-144q0 -115 -66.5 -174.5t-211.5 -59.5h-26q-50 0 -96 10t-82.5 30t-60.5 51t-27 73v36h-121v178z" />
<glyph d="M-657 -283q0 31 12 59.5t33 49t49 33t59 12.5t59.5 -12.5t49.5 -33t33 -48.5q12 -29 12 -60t-12 -59t-33 -49t-49 -33q-29 -13 -60 -13t-59 12.5t-49 33.5t-33 49t-12 59z" />
<glyph d="M-679 -143h344v-379h-214v201h-130v178z" />
<glyph d="M-1033 -143h316v-165q0 -28 22.5 -46t61.5 -18q37 0 58 17q22 19 22 47l-1 165h212v-144q0 -115 -65.5 -174.5t-211.5 -59.5h-25q-50 0 -96.5 10t-83.5 30t-60 51t-26 73v36h-123v178z" />
<glyph d="M-566 -283q0 31 13 59.5t33 49t48 33.5q30 12 60 12q31 0 59 -12.5t49 -33t34 -48.5q12 -29 12 -60t-12.5 -59t-33.5 -49t-49 -33.5t-59 -12.5q-30 0 -59 12.5t-49 33.5t-33 49t-13 59z" />
</font>
</defs>
</svg>
