<?xml version="1.0" standalone="no"?>
<!DOCTYPE svg PUBLIC "-//W3C//DTD SVG 1.1//EN" "http://www.w3.org/Graphics/SVG/1.1/DTD/svg11.dtd" >
<svg xmlns="http://www.w3.org/2000/svg">
<metadata></metadata>
<defs>
<font id="db_gill_siam_xlight" horiz-adv-x="0" >
<font-face units-per-em="2048" ascent="1638" descent="-410" />
<missing-glyph horiz-adv-x="645" />
<glyph unicode="&#x2b;&#x2d;" horiz-adv-x="1234" d="M129 0v108h978v-108h-978zM129 851v108h432v448h114v-448h432v-108h-432v-449h-114v449h-432z" />
<glyph unicode="&#x2e;&#x2e;&#x2e;" horiz-adv-x="1587" d="M182 94q0 22 8.5 41t22.5 33t33.5 22.5t40.5 8.5q22 0 41 -8.5t33 -22.5t22.5 -33.5t8.5 -40.5q0 -23 -8.5 -41.5t-22.5 -32.5t-33.5 -22.5t-40.5 -8.5q-22 0 -41 8.5t-33 22.5t-22.5 32.5t-8.5 41.5zM689 94q0 22 8.5 41t22.5 33t33.5 22.5t41.5 8.5q23 0 41 -8.5 t32.5 -22.5t23 -33.5t8.5 -40.5q0 -23 -8.5 -41.5t-23 -32.5t-33.5 -23q-17 -8 -40 -8q-22 0 -41.5 8.5t-33.5 22.5t-22.5 32.5t-8.5 41.5zM1196 94q0 22 8 41t22 33t34 22.5t41 8.5q22 0 41 -8.5t33 -22.5t22.5 -33.5t8.5 -40.5q0 -23 -8.5 -41.5t-22.5 -32.5t-33.5 -22.5 t-40.5 -8.5q-23 0 -42 8.5t-33 22.5t-22 32.5t-8 41.5z" />
<glyph unicode="&#x3c;&#x3d;" horiz-adv-x="1230" d="M123 708v121l986 441v-126l-868 -375l868 -374v-126zM129 0v108h978v-108h-978z" />
<glyph unicode="&#x3e;&#x3d;" horiz-adv-x="1230" d="M123 0v108h980v-108h-980zM123 269v126l868 374l-868 375v126l986 -441v-121z" />
<glyph unicode="&#xe4f;&#x22;" horiz-adv-x="1257" d="M31 571q0 83 21.5 159t60 142.5t93 121.5t121 93.5t143 60t159.5 21.5q82 0 158.5 -21.5t143 -60t121 -93.5t93 -121.5t60 -142t21.5 -159.5q0 -82 -21.5 -158.5t-60 -142.5t-93 -120.5t-121 -93.5t-143 -60t-158.5 -21q-83 0 -159.5 21t-143 60t-121 93.5t-93 120.5 t-60 142.5t-21.5 158.5zM140 571q0 -67 18 -129.5t49 -116t76 -98.5t99.5 -76.5t116 -49t128.5 -17.5t130 17.5t116.5 49t98 76.5t77 98.5t49 116t16.5 129.5t-16.5 129.5t-49 116.5t-77 98.5t-98 76t-116.5 49t-130 17.5t-128.5 -17.5t-116 -49t-99.5 -76t-76 -98.5 t-49 -116.5t-18 -129.5zM356 571q0 56 21 106.5t58.5 87.5t86.5 59t107 22q56 0 105.5 -22t87.5 -59t59 -87q21 -51 21 -107t-21 -105.5t-59 -86.5t-87 -58t-106 -21q-56 0 -106 21t-87.5 58t-58.5 86.5t-21 105.5zM405 1408v255h127v-255l-24 -156h-80zM462 571 q0 -35 12.5 -65t35 -52.5t53.5 -35.5t66 -13q33 0 64.5 13t54 35.5t35 53.5t12.5 64.5t-12.5 65t-35 54t-53 35.5t-65.5 13t-66 -13t-53.5 -35.5t-35 -54t-12.5 -65.5zM725 1408v255h128v-255l-24 -156h-79z" />
<glyph unicode="&#xe0e;&#xe3a;" horiz-adv-x="1398" d="M101 0v104h173v669q0 81 17.5 142.5t49 105t73.5 73t91 46t104 23.5t108 7q54 0 108 -7t103 -23.5t92 -45.5t74.5 -73t48 -105.5t16.5 -142.5v-1109h-176q-48 52 -101 73t-115 21q-45 0 -80.5 -6.5t-68.5 -18.5t-65 -29.5t-70 -39.5v111q17 11 44 26.5t63.5 28.5t81.5 23 t95 10q28 0 61 -4.5t68.5 -17t73.5 -35t77 -55.5v981q0 79 -15.5 135t-42 93t-60 58t-70 32t-73.5 14q-38 3 -69 3t-68 -3t-74 -14t-71 -32t-60.5 -58t-42 -92.5t-15.5 -135.5v-732h-285zM988 -512q0 -20 8 -38t21 -32t31.5 -21t39.5 -7t39 7t32 21t22 32t8 38q0 21 -8 39.5 t-22 32t-32 21t-39 7.5q-20 0 -39 -7.5t-32 -21t-21 -32t-8 -39.5z" />
<glyph unicode="&#xe0f;&#xe3a;" horiz-adv-x="1398" d="M101 0v104h173v669q0 81 17.5 142.5t49 105t73.5 73t91 46t104 23.5t108 7q54 0 108 -7t103 -23.5t92 -45.5t74.5 -73t48 -105.5t16.5 -142.5v-1106h-165q-34 46 -74.5 70.5t-104.5 24.5q-51 0 -104 -21.5t-98 -75.5l-290 90v105l282 -84q28 29 58 46.5t58 26t52.5 11.5 t41.5 3q19 0 45 -2t56 -12.5t64 -33t67 -61.5v978q0 79 -15.5 135t-42 93t-60 58t-70 32t-73.5 14q-38 3 -69 3t-68 -3t-74 -14t-71 -32t-60.5 -58t-42 -92.5t-15.5 -135.5v-732h-285zM988 -512q0 -20 8 -38t21 -32t31.5 -21t39.5 -7t39 7t32 21t22 32t8 38q0 21 -8 39.5 t-22 32t-32 21t-39 7.5q-20 0 -39 -7.5t-32 -21t-21 -32t-8 -39.5z" />
<glyph unicode="&#xe0e;&#xe38;" horiz-adv-x="1398" d="M101 0v104h173v669q0 81 17.5 142.5t49 105t73.5 73t91 46t104 23.5t108 7q54 0 108 -7t103 -23.5t92 -45.5t74.5 -73t48 -105.5t16.5 -142.5v-1109h-176q-48 52 -101 73t-115 21q-45 0 -80.5 -6.5t-68.5 -18.5t-65 -29.5t-70 -39.5v111q17 11 44 26.5t63.5 28.5t81.5 23 t95 10q28 0 61 -4.5t68.5 -17t73.5 -35t77 -55.5v981q0 79 -15.5 135t-42 93t-60 58t-70 32t-73.5 14q-38 3 -69 3t-68 -3t-74 -14t-71 -32t-60.5 -58t-42 -92.5t-15.5 -135.5v-732h-285zM904 -454v-98h152v-235h105v333h-257z" />
<glyph unicode="&#xe0f;&#xe38;" horiz-adv-x="1398" d="M101 0v104h173v669q0 81 17.5 142.5t49 105t73.5 73t91 46t104 23.5t108 7q54 0 108 -7t103 -23.5t92 -45.5t74.5 -73t48 -105.5t16.5 -142.5v-1106h-165q-34 46 -74.5 70.5t-104.5 24.5q-51 0 -104 -21.5t-98 -75.5l-290 90v105l282 -84q28 29 58 46.5t58 26t52.5 11.5 t41.5 3q19 0 45 -2t56 -12.5t64 -33t67 -61.5v978q0 79 -15.5 135t-42 93t-60 58t-70 32t-73.5 14q-38 3 -69 3t-68 -3t-74 -14t-71 -32t-60.5 -58t-42 -92.5t-15.5 -135.5v-732h-285zM904 -454v-98h152v-235h105v333h-257z" />
<glyph unicode="&#xe0e;&#xe39;" horiz-adv-x="1401" d="M101 0v104h173v669q0 81 17.5 142.5t49 105t73.5 73t91 46t104 23.5t108 7q54 0 108 -7t103 -23.5t92 -45.5t74.5 -73t48 -105.5t16.5 -142.5v-1109h-176q-48 52 -101 73t-115 21q-45 0 -80.5 -6.5t-68.5 -18.5t-65 -29.5t-70 -39.5v111q17 11 44 26.5t63.5 28.5t81.5 23 t95 10q28 0 61 -4.5t68.5 -17t73.5 -35t77 -55.5v981q0 79 -15.5 135t-42 93t-60 58t-70 32t-73.5 14q-38 3 -69 3t-68 -3t-74 -14t-71 -32t-60.5 -58t-42 -92.5t-15.5 -135.5v-732h-285zM636 -454v-98h95v-50q0 -18 1.5 -38.5t9 -40.5t22 -39t38.5 -34.5t60.5 -24t87 -8.5 t85.5 8.5t58.5 24t37 34.5t19.5 39t8.5 41t2.5 38v148h-105v-169q0 -36 -29.5 -54.5t-77.5 -18.5q-25 0 -46 5t-35.5 13.5t-23 22.5t-8.5 32v169h-200z" />
<glyph unicode="&#xe0f;&#xe39;" horiz-adv-x="1398" d="M101 0v104h173v669q0 81 17.5 142.5t49 105t73.5 73t91 46t104 23.5t108 7q54 0 108 -7t103 -23.5t92 -45.5t74.5 -73t48 -105.5t16.5 -142.5v-1106h-165q-34 46 -74.5 70.5t-104.5 24.5q-51 0 -104 -21.5t-98 -75.5l-290 90v105l282 -84q28 29 58 46.5t58 26t52.5 11.5 t41.5 3q19 0 45 -2t56 -12.5t64 -33t67 -61.5v978q0 79 -15.5 135t-42 93t-60 58t-70 32t-73.5 14q-38 3 -69 3t-68 -3t-74 -14t-71 -32t-60.5 -58t-42 -92.5t-15.5 -135.5v-732h-285zM636 -454v-98h95v-50q0 -18 1.5 -38.5t9 -40.5t22 -39t38.5 -34.5t60.5 -24t87 -8.5 t85.5 8.5t58.5 24t37 34.5t19.5 39t8.5 41t2.5 38v148h-105v-169q0 -36 -29.5 -54.5t-77.5 -18.5q-25 0 -46 5t-35.5 13.5t-23 22.5t-8.5 32v169h-200z" />
<glyph unicode="&#xd;" horiz-adv-x="729" />
<glyph unicode=" "  horiz-adv-x="645" />
<glyph unicode="&#x09;" horiz-adv-x="645" />
<glyph unicode="&#xa0;" horiz-adv-x="645" />
<glyph unicode="!" horiz-adv-x="572" d="M182 94q0 -23 8.5 -41.5t22.5 -32.5t33.5 -22.5t40.5 -8.5q22 0 41 8.5t33 22.5t22.5 33.5t8.5 40.5q0 22 -8.5 41t-22.5 33t-33.5 22.5t-40.5 8.5q-22 0 -41 -8.5t-33 -22.5t-22.5 -33t-8.5 -41zM223 1277q0 73 15 111.5t48 38.5q32 0 48 -38.5t16 -111.5 q0 -88 -2 -178.5t-5.5 -177.5t-9 -170t-11.5 -157.5t-13 -138t-12 -112.5q0 -6 -3.5 -8t-7 -2t-6.5 3t-3 7q-7 49 -14 112.5t-13 138t-11 157.5t-8.5 170t-5.5 176.5t-2 179.5z" />
<glyph unicode="&#x22;" horiz-adv-x="1013" d="M304 1263v215h113v-215l-39 -238h-34zM596 1263v215h114v-215l-41 -238h-33z" />
<glyph unicode="#" horiz-adv-x="1292" d="M67 403v102h230l82 388h-312v102h333l96 447h103l-95 -447h435l96 447h102l-95 -447h184v-102h-205l-83 -388h288v-102h-309l-98 -465h-102l98 465h-437l-98 -465h-102l98 465h-209zM400 505h436l82 388h-436z" />
<glyph unicode="$" horiz-adv-x="1146" d="M140 1058q0 73 28 132t79 101t122 65.5t156 29.5v132h88v-132q93 -4 170 -24.5t147 -53.5v-100q-90 42 -167 62.5t-150 23.5v-555q45 -17 92 -36.5t89.5 -43t79 -53t64.5 -67.5t43.5 -87t15.5 -108q0 -78 -28 -141.5t-78.5 -110.5t-120.5 -76.5t-157 -36.5v-203h-88v202 q-70 2 -126.5 12t-101.5 25.5t-78 33.5t-57 35v129q37 -34 83 -60.5t95 -43.5t96.5 -26.5t88.5 -9.5v593q-10 3 -20 7q-9 5 -21 7q-74 26 -137 58t-109 77t-72 103.5t-26 139.5zM255 1067q0 -45 9.5 -80t28 -63t41 -49t47.5 -36.5t51.5 -27.5t49.5 -21q11 -6 21.5 -10 t21.5 -9v520q-64 -6 -114 -22.5t-85 -45.5t-53 -67.5t-18 -88.5zM613 76q65 8 116 32t85 57.5t52.5 75.5t18.5 87q0 47 -11.5 88.5t-42 77t-84 69t-134.5 68.5v-555z" />
<glyph unicode="%" horiz-adv-x="1520" d="M115 1172q0 59 22.5 111.5t61.5 91t91 60.5t110 22q59 0 111 -22t91 -60.5t61.5 -90.5t22.5 -112q0 -59 -22.5 -111.5t-61.5 -91t-91 -61t-111 -22.5q-58 0 -110 22.5t-91 61t-61.5 91t-22.5 111.5zM202 -17l1022 1479h120l-1016 -1479h-126zM204 1170q0 -39 15.5 -74 t42 -61.5t61.5 -42t75 -15.5t76 15.5t62.5 42t41 61.5t14.5 74q0 40 -14.5 76t-41 62t-61.5 41.5t-77 15.5q-40 0 -75 -15.5t-61.5 -41.5t-42 -62t-15.5 -76zM843 267q0 59 22.5 111.5t61 91t89.5 61.5q54 22 112 22q59 0 111 -22.5t91 -61t61.5 -90t22.5 -112.5 q0 -58 -22.5 -110.5t-61.5 -91t-91 -61t-111 -22.5q-58 0 -110.5 22.5t-91 61t-61 91t-22.5 110.5zM932 266q0 -39 15.5 -74t41.5 -61.5t61.5 -42t75.5 -15.5t76 15.5t61.5 42t40.5 61.5t15 74t-15 75.5t-40.5 62.5t-61.5 41.5t-76 15.5t-75.5 -15.5t-61.5 -41.5 t-41.5 -62.5t-15.5 -75.5z" />
<glyph unicode="&#x26;" horiz-adv-x="1586" d="M179 305q0 81 28 143.5t80 116.5t122 104.5t154 103.5q-31 42 -63 88t-56 93.5t-39.5 99t-15.5 104.5q0 67 24 122.5t67.5 94.5t105.5 61.5t139 22.5q90 0 153 -24t102 -61.5t57.5 -84t18.5 -91.5q0 -23 -1.5 -49t-11.5 -55.5t-30 -64.5t-58.5 -77t-97.5 -92 q-59 -51 -143 -110q77 -95 174.5 -210.5t211.5 -245.5q28 28 59 65t59.5 79t53 87.5t38.5 93.5h121q-17 -42 -42 -92t-57.5 -102.5t-73 -104t-92.5 -100.5q48 -53 99 -108.5t104 -111.5h-155l-132 148q-77 -58 -148.5 -90.5t-139 -48t-133 -19t-128.5 -3.5q-78 0 -144 26 t-112.5 71t-72.5 102q-25 58 -25 119zM291 311q0 -63 26.5 -106.5t69.5 -71t95.5 -39t102.5 -11.5q42 0 89.5 4.5t101 19.5t113.5 43.5t127 74.5q-47 56 -94.5 111t-95.5 111.5t-97.5 116.5t-102.5 128q-62 -42 -123 -83t-107 -87t-75.5 -98t-29.5 -113zM496 1159 q0 -42 11 -81t30.5 -78.5t48.5 -81.5q27 -42 64 -88q100 67 162 119.5t94 94.5t42 76.5t10 66.5q0 35 -14 68t-42 58t-71.5 40t-102.5 15q-50 0 -93 -15t-73.5 -41.5t-48 -65.5t-17.5 -87z" />
<glyph unicode="'" horiz-adv-x="506" d="M196 1263v215h115v-215l-41 -238h-33z" />
<glyph unicode="(" horiz-adv-x="726" d="M168 658q0 167 26.5 323t78.5 297.5t125 265.5q75 125 168 228h86q-100 -123 -170 -254.5t-115 -271.5t-66 -287t-21 -301q0 -150 21.5 -298.5t67 -292t117 -279t172.5 -258.5h-88q-93 103 -167.5 229t-126.5 269t-80 301t-28 329z" />
<glyph unicode=")" horiz-adv-x="726" d="M69 -470q100 123 171 258.5t117 279t67 293t21 297.5q0 153 -20 300.5t-65 287.5t-115.5 271.5t-171.5 254.5h89q93 -103 167 -227.5t124.5 -266t78 -297.5t27.5 -323q0 -171 -28 -329t-80 -301t-127 -268q-75 -127 -167 -230h-88z" />
<glyph unicode="*" horiz-adv-x="991" d="M132 972q0 11 7 19.5t18 12.5l284 63v25l-284 63q-25 7 -25 32q0 9 2 17q3 8 6 15l36 77q7 16 16.5 25t17.5 9h7.5t6.5 -1.5t8 -4.5q3 -2 12 -11l201 -204q9 8 19 15q9 6 23 11l-84 269q-3 6 -4 12t-1 11q0 29 50 29h92q51 0 52 -28q0 -3 -1.5 -10t-2.5 -14l-84 -269 q13 -5 23.5 -11.5t18.5 -14.5l202 206q7 5 11 8.5t6 5t5 1.5h6q8 0 12 -5.5t14 -22.5l48 -84q4 -8 7 -12.5t3.5 -8.5t0.5 -7v-8q0 -10 -7.5 -16.5t-19.5 -10.5l-282 -63v-25l282 -63q12 -3 18 -11q6 -7 6 -19q0 -9 -4 -22q-6 -14 -11 -25l-31 -53q-11 -21 -21 -33t-18 -12 q-11 0 -28 17l-199 204q-8 -8 -18 -15t-24 -12l84 -268q4 -13 4 -21q0 -16 -12 -23.5t-33 -7.5h-99q-22 0 -36 5.5t-14 22.5q0 5 1 11t4 13l84 270q-28 11 -42 26l-196 -201q-12 -11 -19 -15q-6 -3 -14 -3q-10 0 -18 8t-17 24l-38 70q-11 21 -11 38z" />
<glyph unicode="+" horiz-adv-x="1234" d="M129 669v108h432v448h114v-448h432v-108h-432v-449h-114v449h-432z" />
<glyph unicode="," horiz-adv-x="572" d="M179 76q0 22 8.5 40t22.5 31.5t31.5 20.5t37.5 7q25 0 46.5 -10.5t36.5 -30t23 -46t8 -60.5q0 -50 -14.5 -92t-41 -76t-61.5 -56t-77 -34v48q42 17 60 43.5t18 51.5q0 20 -4 38t-14 29q-15 5 -29 12.5t-25.5 19.5t-18.5 28t-7 36z" />
<glyph unicode="-" horiz-adv-x="882" d="M129 666v115h626v-115h-626z" />
<glyph unicode="." horiz-adv-x="572" d="M182 94q0 22 8.5 41t22.5 33t33.5 22.5t40.5 8.5q22 0 41 -8.5t33 -22.5t22.5 -33.5t8.5 -40.5q0 -23 -8.5 -41.5t-22.5 -32.5t-33.5 -22.5t-40.5 -8.5q-22 0 -41 8.5t-33 22.5t-22.5 32.5t-8.5 41.5z" />
<glyph unicode="/" horiz-adv-x="595" d="M59 -20l372 1484h105l-372 -1484h-105z" />
<glyph unicode="0" horiz-adv-x="1197" d="M115 699q0 175 38.5 307t105 221t153.5 134q89 45 187 45t186.5 -45t153.5 -134t103.5 -221t38.5 -307q0 -157 -33.5 -288t-95.5 -226t-151.5 -147t-201.5 -52t-202 52t-152.5 147t-96 225t-33.5 289zM230 703q0 -149 29 -263.5t78 -194.5t117 -120.5t145 -40.5 q76 0 143 40.5t117.5 120.5t79 194.5t28.5 263.5q0 84 -11 161t-32.5 144t-52.5 121.5t-72.5 94t-91.5 60.5q-49 21 -108 21t-109 -21t-91 -60.5t-73 -94t-53 -121.5t-32 -144t-11 -161z" />
<glyph unicode="1" horiz-adv-x="1197" d="M545 0v1389h107v-1389h-107z" />
<glyph unicode="2" horiz-adv-x="1197" d="M197 0l2 34q46 50 97 103t103 108t100 109q48 55 88 105q64 84 109.5 149t77.5 117.5t50.5 93.5t28 75t13 63t3.5 57q0 74 -23 129t-63.5 91.5t-96.5 55t-123 18.5q-38 0 -80.5 -7t-86 -21t-86.5 -35t-80 -51v108q50 31 95 52t88 32t85 16.5t89 5.5q81 0 153 -26.5 t125 -75.5t85.5 -120.5t32.5 -163.5q0 -42 -5.5 -83.5t-21 -89.5t-45.5 -105.5t-80 -129.5t-122 -162q-71 -91 -171 -206q-30 -33 -61.5 -68t-64.5 -73h624v-105h-839z" />
<glyph unicode="3" horiz-adv-x="1197" d="M234 55v117q26 -15 60 -30.5t73 -27.5t81.5 -19.5t86.5 -7.5q78 0 140.5 22.5t105 61.5t65.5 93.5t23 116.5q0 71 -23.5 125t-67.5 90.5t-106 54.5t-139 18v98q68 0 125 24t98.5 64.5t64 95t22.5 113.5q0 50 -15 94.5t-47.5 78t-84.5 53.5t-126 20q-59 0 -135.5 -15 t-162.5 -55v101q22 11 57 22.5t77.5 21t88 16t87.5 6.5q101 0 169 -26.5t110.5 -72t62.5 -106.5t22 -130q2 -35 -4.5 -81.5t-29 -94.5t-63 -92t-107.5 -73v-3q67 -14 113.5 -50.5t75.5 -84t42 -103.5t13 -106q0 -90 -29.5 -163t-87 -125.5t-142.5 -80.5q-86 -29 -195 -29 q-34 0 -71 4t-77 12.5t-77.5 21t-72.5 31.5z" />
<glyph unicode="4" horiz-adv-x="1197" d="M141 375v125l730 889h39v-916h137v-98h-137v-375h-106v375h-663zM249 473h555v675z" />
<glyph unicode="5" horiz-adv-x="1197" d="M249 31v103q37 -12 69 -21t67 -15t71.5 -8t78.5 -2q31 0 67 7t74 22t73.5 39.5t63 58.5t44.5 80.5t17 102.5q0 42 -8.5 83t-27 77t-47.5 65t-74 50t-104 32.5t-136 8.5q-39 -1 -76 -4.5t-73 -8.5v688h603v-105h-501v-486q39 6 81 8q41 3 85 0q107 -5 181 -40t120.5 -90.5 t67.5 -126t21 -149.5q0 -92 -35 -168.5t-96 -131t-143 -84.5t-177 -30q-79 0 -153 11t-133 34z" />
<glyph unicode="6" horiz-adv-x="1197" d="M179 406q0 78 16 147t45 136t69 134t86 143l260 423h129l-402 -643q45 38 106 59.5t125 21.5q98 0 176 -32t131 -88.5t81 -133.5t28 -167t-33 -167t-89.5 -133t-134.5 -88t-169 -32q-89 0 -167 32t-135 88t-89.5 133t-32.5 167zM288 403q0 -68 24 -126.5t66 -101 t99.5 -67t124.5 -24.5t124.5 24.5t99.5 67t66 101.5t24 126t-20 127.5t-59.5 104t-98.5 68t-136 24.5q-67 0 -124.5 -24t-99.5 -66.5t-66 -103t-24 -130.5z" />
<glyph unicode="7" horiz-adv-x="1197" d="M223 1285v104h828l-614 -1389h-123l571 1285h-662z" />
<glyph unicode="8" horiz-adv-x="1197" d="M168 364q0 53 14.5 109t47.5 106.5t87 91.5q53 40 131 60q-73 22 -117.5 61.5t-70.5 85t-35 93.5t-9 93q0 73 27 135t77.5 109t120.5 73.5t157 26.5t157.5 -26.5t121 -73.5t77.5 -110q27 -61 27 -134q0 -43 -9 -92t-35.5 -94.5t-71.5 -85t-117 -61.5q78 -20 131 -60.5 t87 -91t48.5 -106.5t14.5 -109q0 -78 -28 -147t-82 -120.5t-135 -81t-185 -29.5q-105 0 -185.5 29.5t-135 81t-82.5 120.5t-28 147zM280 370q0 -76 28 -129t73 -88t102 -52t116 -17t115.5 17t101 52t72.5 88t28 129q0 72 -27 128t-71.5 94.5t-102 57.5t-116.5 19 q-60 0 -117.5 -19t-101.5 -57.5t-72 -94.5t-28 -128zM326 1050q0 -62 22 -112t58 -85t86.5 -55t106.5 -20t105 20t86 55t59 85t22 112q0 64 -22 112.5t-59 81.5t-86 49.5t-105 16.5t-106.5 -16.5t-86.5 -49.5t-58 -81.5t-22 -112.5z" />
<glyph unicode="9" horiz-adv-x="1197" d="M179 983q0 89 32.5 166t89.5 133t135 89q79 32 169 32q89 0 167 -32.5t134.5 -88.5t89.5 -133t33 -166q0 -79 -16 -147.5t-45.5 -135.5t-68.5 -134.5t-87 -142.5l-260 -423h-128l402 643q-45 -38 -106 -60q-62 -22 -126 -22q-98 0 -175 32.5t-130.5 89t-81.5 133.5 t-28 167zM291 986q0 -69 20.5 -128.5t60.5 -103t98.5 -68t134.5 -24.5q67 0 124.5 24t99.5 66.5t66.5 103t24.5 130.5q0 67 -24.5 125.5t-66.5 101.5t-99.5 67.5t-124.5 24.5t-124.5 -24.5t-99.5 -67.5t-66 -101.5t-24 -125.5z" />
<glyph unicode=":" horiz-adv-x="572" d="M182 94q0 22 8.5 41t22.5 33t33.5 22.5t40.5 8.5q22 0 41 -8.5t33 -22.5t22.5 -33.5t8.5 -40.5q0 -23 -8.5 -41.5t-22.5 -32.5t-33.5 -22.5t-40.5 -8.5q-22 0 -41 8.5t-33 22.5t-22.5 32.5t-8.5 41.5zM182 942q0 23 8.5 41.5t22.5 32.5t33.5 22.5t40.5 8.5q22 0 41 -8.5 t33 -22.5t22.5 -33.5t8.5 -40.5q0 -22 -8.5 -41t-22.5 -33t-33.5 -22.5t-40.5 -8.5q-22 0 -41 8.5t-33 22.5t-22.5 33t-8.5 41z" />
<glyph unicode=";" horiz-adv-x="572" d="M179 90q0 22 8.5 40t22.5 31.5t31.5 20.5t37.5 7q25 0 46.5 -10.5t36.5 -30t23 -46t8 -60.5q0 -50 -14.5 -92t-41 -76t-61.5 -56t-77 -34v48q42 17 60 43.5t18 51.5q0 20 -4 38t-14 29q-15 5 -29 12.5t-25.5 19.5t-18.5 28t-7 36zM182 942q0 23 8.5 41.5t22.5 32.5 t33.5 22.5t40.5 8.5q22 0 41 -8.5t33 -22.5t22.5 -33.5t8.5 -40.5q0 -22 -8.5 -41t-22.5 -33t-33.5 -22.5t-40.5 -8.5q-22 0 -41 8.5t-33 22.5t-22.5 33t-8.5 41z" />
<glyph unicode="&#x3c;" horiz-adv-x="1234" d="M126 672v120l987 440v-126l-868 -375l868 -374v-126z" />
<glyph unicode="=" horiz-adv-x="1234" d="M129 501v107h980v-107h-980zM129 851v107h980v-107h-980z" />
<glyph unicode="&#x3e;" horiz-adv-x="1234" d="M123 231v126l868 374l-868 375v126l986 -440v-120z" />
<glyph unicode="?" horiz-adv-x="793" d="M148 1270v103q30 14 59.5 26t61 22t66.5 15.5t74 5.5q59 0 110.5 -17t88 -50.5t56.5 -81.5q22 -48 19 -111q-1 -40 -14.5 -80.5t-34.5 -78t-47.5 -74t-57.5 -68.5q-22 -26 -42.5 -49t-38 -44t-31.5 -42t-25 -45q-22 -44 -26.5 -89t-4.5 -83q0 -18 4.5 -48t8.5 -61 q-2 -6 -9 -14t-23 -8q-14 0 -20 8t-7 14q-6 14 -12 32t-11 38t-8.5 42t-3.5 45q0 36 3 64t10.5 54.5t19.5 52t30 57.5q34 53 72.5 102t70.5 95.5t53 92t21 89.5q0 38 -14 67t-38 48.5t-54.5 29t-62.5 9.5q-59 0 -118.5 -16.5t-124.5 -51.5zM255 94q0 -23 8.5 -41.5 t22.5 -32.5t33.5 -22.5t40.5 -8.5q22 0 41 8.5t33 22.5t22.5 33.5t8.5 40.5q0 22 -8.5 41t-22.5 33t-33.5 22.5t-40.5 8.5q-23 0 -41.5 -8.5t-32.5 -22.5t-22.5 -33t-8.5 -41z" />
<glyph unicode="@" horiz-adv-x="2070" d="M202 745q0 129 32 246.5t89.5 219.5t138.5 185.5t180.5 143t214.5 91.5t241 32q175 0 315.5 -49.5t240 -140.5t153.5 -220.5t54 -289.5q0 -89 -19 -172t-54 -154t-85.5 -129.5t-110.5 -99.5t-131.5 -63.5t-147.5 -22.5q-29 0 -54.5 5.5t-45 22.5t-32.5 45t-20 70 q-37 -41 -74 -68t-73.5 -44t-71.5 -24t-67 -7q-64 0 -114 18t-85.5 52t-58.5 79.5t-34.5 98t-10 109.5t11.5 116q19 104 58.5 190t97 147t132 94.5t165.5 33.5q14 0 33 -3t40 -8.5t43.5 -17.5t43.5 -30t37 -45q16 -25 26 -61l27 141h117l-138 -662q-12 -52 -7.5 -85 t21 -50.5t41 -22t53.5 1t59.5 16.5t57.5 28q50 28 98 73t83.5 108t58 142t22.5 175q0 72 -15.5 144t-47.5 139t-84 124.5t-125 101t-168.5 67.5t-217.5 24q-101 0 -197 -28t-182 -81.5t-159 -127t-126 -163.5t-82.5 -194.5t-29.5 -217.5q0 -140 33.5 -249.5t91 -192 t133 -140t158.5 -94t168 -53t161 -16.5q109 0 205.5 19t179.5 53t150 83t116 111h150q-53 -74 -131 -141.5t-179.5 -118.5t-223 -80.5t-261.5 -29.5q-76 0 -153 12t-152.5 36.5t-146.5 62.5t-133 89t-114 116t-89.5 146t-58.5 176.5t-21 207.5zM690.5 709.5 q-3.5 -43.5 1.5 -85.5t19 -79.5t40.5 -65.5t65 -45t92.5 -14q54 4 94.5 25t70 51t49 68t33.5 77t24 77t17 69q21 81 17 151t-28 122t-64 81t-90 29q-69 0 -122 -29t-92.5 -79.5t-67.5 -119.5q-28 -68 -47 -150q-9 -39 -12.5 -82.5z" />
<glyph unicode="A" horiz-adv-x="1541" d="M62 0l649 1443h121l649 -1443h-134l-153 344h-845l-153 -344h-134zM391 440h760l-380 859z" />
<glyph unicode="B" horiz-adv-x="1313" d="M202 0v1443h478q104 0 177 -28.5t119 -77.5t67 -112t21 -133q0 -39 -9 -82t-32 -84t-63 -78q-39 -36 -100 -64v-1q85 -19 146 -58t98.5 -91t56.5 -112q18 -63 18 -124q0 -35 -7 -78t-25.5 -87t-49 -86t-78 -75t-113.5 -52.5t-153 -19.5h-551zM316 95h336q79 0 139 12 t104 33.5t73 51t46.5 64t24.5 71.5t7 73q0 82 -28 142.5t-78 100.5t-117 59.5t-145 19.5h-362v-627zM316 818h315q62 0 109 12.5t82.5 33.5t60 48t40 56t22.5 56q7 26 7 48q0 51 -14.5 101.5t-49.5 89.5t-94 63q-58 24 -147 24h-331v-532z" />
<glyph unicode="C" horiz-adv-x="1425" d="M132 714q0 98 21 192t61.5 178t102 154.5t144 121.5t186 80.5t227.5 29.5q112 0 210.5 -18t181.5 -58v-117q-79 42 -174 63t-204 21q-107 0 -195 -22.5t-157.5 -64.5t-122 -101t-86 -130t-51 -152.5t-17.5 -169.5q0 -90 17.5 -171.5t52.5 -153t87 -130.5t120.5 -99.5 t152.5 -63.5t185 -23q58 0 117 9t111.5 24.5t98.5 34.5t83 38v-119q-98 -50 -205 -71t-233 -21t-227.5 30.5t-181 84t-136.5 125.5t-95 154t-56 170t-18 175z" />
<glyph unicode="D" horiz-adv-x="1584" d="M204 0v1442h541q119 0 217.5 -27.5t177 -76.5t137.5 -116.5t97.5 -148t57 -171t18.5 -184.5q0 -98 -18 -189.5t-58 -171.5t-101 -145.5t-143.5 -113.5t-189 -73t-237.5 -25h-499zM316 95h384q123 0 217.5 26.5t164 74.5t115.5 109.5t74 131.5t39.5 142.5t11.5 140.5 q0 79 -14 157t-45 148t-80 128.5t-118.5 102t-161 68t-207.5 24.5h-380v-1253z" />
<glyph unicode="E" horiz-adv-x="1178" d="M204 0v1443h840v-95h-726v-564h693v-94h-693v-596h742v-94h-856z" />
<glyph unicode="F" horiz-adv-x="1127" d="M204 0v1443h790v-95h-676v-564h634v-94h-634v-690h-114z" />
<glyph unicode="G" horiz-adv-x="1533" d="M136 703q0 112 23.5 212t69 185.5t112 153.5t151.5 116t188.5 74t221.5 26q64 0 128.5 -7t126 -19.5t114.5 -30t95 -38.5v-114q-112 56 -225 78t-232 22t-214.5 -28t-167 -75.5t-123 -112t-84 -139.5t-47 -155.5t-14.5 -161.5q0 -87 20.5 -165.5t59 -146.5t93.5 -123 t126.5 -93.5t157.5 -59.5t184 -21q73 0 132.5 7t107 19t84 28t61.5 34v403h-288v95h400v-557q-57 -36 -114 -61.5t-117.5 -41.5t-127 -23t-145.5 -7q-113 0 -213 24.5t-184 69.5t-151.5 110t-113.5 145.5t-70.5 175.5t-24.5 202z" />
<glyph unicode="H" horiz-adv-x="1642" d="M204 0v1443h112v-653h1008v653h114v-1443h-114v694h-1008v-694h-112z" />
<glyph unicode="I" horiz-adv-x="607" d="M246 0v1443h115v-1443h-115z" />
<glyph unicode="J" horiz-adv-x="625" d="M7 -311q84 6 137 34.5t83.5 78.5t42 118.5t11.5 155.5v1369h114v-1362q0 -63 -5.5 -120t-18.5 -106t-35 -89.5t-53 -71.5q-25 -25 -53 -44t-62 -31.5t-73 -20t-88 -9.5v98z" />
<glyph unicode="K" horiz-adv-x="1359" d="M204 0v1443h112v-701l696 701h167l-706 -698l830 -745h-177l-810 742v-742h-112z" />
<glyph unicode="L" horiz-adv-x="1139" d="M203 0v1443h113v-1348h754v-95h-867z" />
<glyph unicode="M" horiz-adv-x="1773" d="M203 0v1443h129l554 -624l556 624h129v-1443h-115v1288h-8l-562 -624l-561 624h-9v-1288h-113z" />
<glyph unicode="N" horiz-adv-x="1673" d="M203 0v1443h144l1003 -1295h7v1295h113v-1443h-143l-1002 1296h-9v-1296h-113z" />
<glyph unicode="O" horiz-adv-x="1694" d="M112 722q0 90 21 181t61.5 173.5t102 154t143.5 124.5t184.5 83.5t223.5 30.5q122 0 223.5 -30.5t183.5 -83.5t143 -124.5t102 -154.5t61.5 -173.5t20.5 -180.5q0 -95 -21.5 -187.5t-64.5 -175t-106 -153t-144 -121.5t-181 -80t-217 -29t-218 29t-183.5 80.5t-145 121.5 t-104.5 152.5t-63.5 175t-21.5 187.5zM232 722q0 -92 21 -176t59 -155.5t92.5 -129t123 -98t150 -61.5t171 -21t170 21t148.5 61.5t122.5 98t93 129t59 155.5t20.5 176.5t-20.5 176.5t-59 155.5t-93 128.5t-122.5 98t-148.5 62t-170 21t-171 -21t-150 -62t-123 -98 t-92.5 -128.5t-59 -155.5t-21 -177z" />
<glyph unicode="P" horiz-adv-x="1260" d="M204 0v1443h488q82 0 147 -15t113 -42.5t81.5 -64t54.5 -80t30 -89.5t9 -94q0 -42 -9 -86.5t-28.5 -87.5t-50.5 -81.5t-75 -66.5t-103 -44.5t-133 -16.5h-410v-675h-114zM318 770h333q76 0 131 12t95.5 32t67.5 49t42 60.5t21 66.5t6 67q0 34 -4.5 69.5t-18.5 67.5 t-39 60t-66.5 49t-101 33t-140.5 12h-326v-578z" />
<glyph unicode="Q" horiz-adv-x="1695" d="M112 722q0 90 21 181t61.5 173.5t102 154t143.5 124.5t184.5 83.5t223.5 30.5q122 0 223.5 -30.5t183.5 -83.5t143 -124.5t102 -154.5t61.5 -173.5t20.5 -180.5q0 -89 -19.5 -176t-57.5 -166.5t-94 -148.5t-128 -120.5t-161 -86t-192 -44.5q63 -44 135 -85t147.5 -73 t152.5 -52.5t150 -24.5l-90 -87q-81 12 -167 41t-173.5 72t-174.5 97t-167 115q-102 13 -188.5 48t-156.5 87.5t-123.5 121t-90 147t-54.5 164t-18 171.5zM232 722q0 -92 21 -176t59 -155.5t92.5 -129t123 -98t150 -61.5t171 -21t170 21t148.5 61.5t122.5 98t93 129 t59 155.5t20.5 176.5t-20.5 176.5t-59 155.5t-93 128.5t-122.5 98t-148.5 62t-170 21t-171 -21t-150 -62t-123 -98t-92.5 -128.5t-59 -155.5t-21 -177z" />
<glyph unicode="R" horiz-adv-x="1351" d="M204 0v1443h488q82 0 147 -15t113 -42.5t81.5 -64t54.5 -80t30 -89.5t9 -94q0 -39 -7.5 -81t-24.5 -82.5t-45 -77.5t-66 -66.5t-89.5 -49t-116.5 -25.5q48 -17 90 -48.5t77.5 -73.5t64.5 -88t53 -91l194 -375h-131l-171 336q-11 21 -30 54.5t-46.5 70.5t-65 75t-86.5 69 t-108.5 50.5t-132.5 19.5h-168v-675h-114zM318 770h333q76 0 131 12t95.5 32t67.5 49t42 60.5t21 66.5t6 67q0 34 -4.5 69.5t-18.5 67.5t-39 60t-66.5 49t-101 33t-140.5 12h-326v-578z" />
<glyph unicode="S" horiz-adv-x="1174" d="M137 1112q0 81 33.5 145.5t94 109t143 67.5t180.5 23q112 0 207 -20t171 -62v-98q-48 22 -96 39t-95 26.5t-93 15.5t-86 6q-72 0 -133 -17t-105 -48t-68 -75.5t-24 -102.5q0 -65 20.5 -111.5t53 -78.5t72.5 -53q39 -21 77 -35q58 -23 122.5 -44.5t125.5 -47.5 t115.5 -59.5t95 -79.5t64.5 -107q24 -63 24 -144q0 -88 -33.5 -158.5t-95 -121t-147 -78t-189.5 -27.5q-80 0 -144 10.5t-114 27.5t-88 37q-37 19 -63 39v114q49 -36 99 -62t100.5 -41.5t100.5 -21.5t98 -6q87 0 152.5 22.5t110 60t67.5 86.5t23 102q0 37 -5.5 70.5 t-19.5 64.5t-41 59t-69 56.5t-103.5 56t-143.5 56.5q-83 28 -154.5 63.5t-124.5 83.5t-84 111t-31 147z" />
<glyph unicode="T" horiz-adv-x="1334" d="M70 1348v95h1196v-95h-541v-1348h-115v1348h-540z" />
<glyph unicode="U" horiz-adv-x="1646" d="M204 557v886h114v-883q0 -127 34 -219t100 -150.5t160 -86.5t211 -28q119 0 213.5 28t159.5 86.5t99.5 149.5t34.5 220v883h115v-886q0 -161 -45.5 -272t-127.5 -181t-196 -101.5t-251 -31.5q-93 0 -174 13t-150.5 42.5t-124 75.5t-93 112t-58.5 151q-21 86 -21 192z" />
<glyph unicode="V" horiz-adv-x="1352" d="M57 1443h131l495 -1204h9l477 1204h126l-591 -1457h-26z" />
<glyph unicode="W" horiz-adv-x="2310" d="M57 1443h131l434 -1205l492 1205h79l501 -1204l430 1204h130l-539 -1453h-34l-527 1269l-523 -1269h-35z" />
<glyph unicode="X" horiz-adv-x="1381" d="M35 0l585 753l-530 690h151l451 -616l449 616h150l-529 -690l585 -753h-160l-495 672l-499 -672h-158z" />
<glyph unicode="Y" horiz-adv-x="1233" d="M35 1445h144l438 -695l447 695h134l-523 -791v-654h-114v654z" />
<glyph unicode="Z" horiz-adv-x="1281" d="M55 0l975 1348h-900v94h1102l-969 -1347h930v-95h-1138z" />
<glyph unicode="[" horiz-adv-x="894" d="M269 -465v2239h543v-111h-434v-2016h434v-112h-543z" />
<glyph unicode="\" horiz-adv-x="595" d="M59 1464h106l373 -1484h-107z" />
<glyph unicode="]" horiz-adv-x="894" d="M84 -353h433v2016h-433v111h542v-2239h-542v112z" />
<glyph unicode="^" horiz-adv-x="1234" d="M202 661l382 782h96l383 -782h-133l-297 638l-297 -638h-134z" />
<glyph unicode="_" horiz-adv-x="1057" d="M-14 -232h1086v-80h-1086v80z" />
<glyph unicode="`" horiz-adv-x="635" d="M109 1431h189l147 -291h-81z" />
<glyph unicode="a" horiz-adv-x="1127" d="M188 246q0 73 28 127t74 95.5t103.5 69.5t116.5 49q11 4 29 9.5t40.5 12.5t47 14.5t48.5 14.5q56 17 120 35v52q0 59 -15.5 106.5t-47.5 81t-81 52t-116 18.5q-74 0 -150 -30q-74 -29 -153 -82v98q28 21 63 40t76.5 34t87 23.5t93.5 8.5q70 0 133 -19t110.5 -57.5 t75.5 -97t28 -139.5v-605q0 -37 5.5 -55t14 -26.5t19.5 -8.5h20q5 0 16.5 1.5t24 5.5t26.5 8.5t25 11.5v-63q-48 -28 -80 -36.5t-54 -8.5q-49 0 -79.5 25t-35.5 72q-48 -37 -98.5 -56.5t-92.5 -28.5t-70 -10.5t-33 -1.5q-81 0 -141.5 21t-99.5 57.5t-58.5 82.5t-19.5 99z M301 255q0 -90 57.5 -133.5t162.5 -43.5q31 0 67 7t72.5 21t71.5 34t63 48v386q-21 -6 -45 -11q-19 -6 -43.5 -13t-48.5 -15q-36 -13 -76 -26t-80 -30t-76.5 -38t-64.5 -48.5t-44 -61.5t-16 -76z" />
<glyph unicode="b" horiz-adv-x="1163" d="M196 49v1520h104v-581q50 34 99 52t92.5 26t75.5 8.5t49 0.5q98 0 180.5 -36.5t143 -105t94 -165t33.5 -215.5q0 -127 -33 -232t-96.5 -179.5t-157 -115t-214.5 -40.5q-48 0 -98.5 4t-98 11t-92.5 20t-81 28zM300 123q32 -11 63.5 -19.5t63.5 -14t65.5 -8.5t70.5 -3 q95 3 168 39.5t123 98t77 147t27 190.5q0 102 -25.5 182t-71.5 135t-110.5 84t-141.5 29q-98 0 -173 -29.5t-136 -86.5v-744z" />
<glyph unicode="c" horiz-adv-x="1034" d="M137 511q0 129 36.5 233t101 178.5t151.5 113.5q86 39 190 39q45 0 82.5 -5t71.5 -14t62 -21.5t53 -26.5v-104q-20 12 -46 26t-58.5 25.5t-73.5 19.5t-91 8q-55 0 -103 -16t-88.5 -45.5t-74.5 -71t-56 -92t-35 -108.5q-13 -59 -13 -121q0 -92 28 -174t80 -143.5 t126 -97.5t164 -36q39 0 73.5 5t66 14t62 22t63.5 29v-98q-28 -16 -57 -27.5t-61 -20t-71.5 -12.5t-89.5 -4q-112 0 -203 42t-155.5 113.5t-99.5 166.5t-35 203z" />
<glyph unicode="d" horiz-adv-x="1162" d="M97 553q0 120 32.5 216t93 164.5t143 105t180.5 36.5q17 0 50 -0.5t75.5 -8.5t92.5 -26q48 -18 98 -52v581h104v-1520q-36 -17 -80.5 -29t-92.5 -19t-98.5 -11t-98.5 -4q-121 0 -214.5 40.5t-156.5 115t-95.5 179.5t-32.5 232zM206 553q0 -104 26 -190t76 -147.5 t123.5 -98t169.5 -39.5q36 0 69 3t65 8.5t64 14.5q30 8 63 19v744q-30 28 -64 49.5t-71.5 37t-81 22.5t-91.5 7q-78 0 -142.5 -29t-110 -84t-70.5 -135t-25 -182z" />
<glyph unicode="e" horiz-adv-x="1108" d="M126 549q0 116 33.5 212.5t94.5 166.5t145.5 108.5t185.5 38.5q104 0 179 -38.5t124 -110.5t72 -174t23 -228h-746q0 -110 31.5 -192.5t83 -138.5t117.5 -85.5t137 -29.5q48 0 92 6t89 20t88 37t91 59v-96q-42 -30 -82.5 -52.5t-84.5 -37t-93 -21.5q-48 -7 -107 -7 q-80 0 -146.5 21.5t-119 60t-91.5 92t-65 115.5t-38.5 131.5t-12.5 142.5zM238 613h636q0 45 -7 90t-22.5 85.5t-38 77t-54.5 62t-74 40.5t-92.5 15t-96 -15t-84 -40.5t-70 -62t-53.5 -77t-34 -85.5q-10 -45 -10 -90z" />
<glyph unicode="f" horiz-adv-x="670" d="M130 969v92h149v79q0 61 3.5 111.5t13 91t25 73t40.5 60.5q80 89 233 89h23.5t27 -0.5t29.5 -2.5t29 -5v-94q-20 4 -48 7t-53 3q-70 0 -113.5 -22.5t-67 -62.5t-31.5 -97.5t-8 -127.5v-102h192v-92h-192v-969h-103v969h-149z" />
<glyph unicode="g" horiz-adv-x="1145" d="M126 -195q0 45 15.5 89t52.5 81.5t97 64.5t150 38v6q-50 14 -81.5 32t-50 38.5t-25.5 42t-7 41.5q0 15 7 37t26.5 44.5t53.5 42.5t87 33v1q-48 11 -95.5 40t-84 70t-59.5 93.5t-23 111.5q0 80 33 145t87 110.5t121 70t136 24.5h480v-92h-254q42 -23 71.5 -54.5t48 -66.5 t25.5 -69t7 -61q0 -70 -22.5 -127.5t-65.5 -101.5t-104 -75q-60 -33 -136 -53q-31 -8 -71.5 -16.5t-75 -22t-58 -31t-23.5 -45.5q0 -33 26 -57t70.5 -42t103.5 -32t123 -27q87 -17 146 -41.5t94 -58t51 -75.5t16 -91q0 -70 -31 -125t-89 -94.5t-142 -59.5t-188 -20 q-110 0 -193.5 21t-138 58.5t-82.5 89.5t-28 113zM235 -185q0 -98 82.5 -149t252.5 -51q81 0 144.5 14t107 39t66 60t22.5 77q0 45 -15.5 76.5t-41.5 54t-60 36.5t-72 21t-78 10q-41 3 -77 3q-72 0 -133 -14t-104 -38.5t-68.5 -59.5t-25.5 -79zM298 711q0 -53 21 -99 t57.5 -81t85.5 -55q48 -20 104 -20t105 20t85 55t56.5 81t20.5 99t-20.5 101t-56.5 83t-85 55t-105 20t-105 -20t-85.5 -55t-57 -83t-20.5 -101z" />
<glyph unicode="h" horiz-adv-x="1178" d="M196 0v1569h104v-667h2q51 50 99 83.5t95 54t93 28.5q44 7 91 7q77 0 134 -26t94.5 -75.5t56 -121t18.5 -163.5v-689h-104v676q0 67 -9.5 123t-35 97.5t-69 64t-108.5 22.5q-90 0 -180.5 -45t-176.5 -143v-795h-104z" />
<glyph unicode="i" horiz-adv-x="576" d="M210 1383q0 17 6.5 31t17 25t24.5 17t30 6q17 0 31 -6t25.5 -17t17.5 -25t6 -31t-6 -31t-17.5 -25t-25.5 -16.5t-31 -5.5q-16 0 -30 5.5t-24.5 16.5t-17 25t-6.5 31zM235 0v1061h104v-1061h-104z" />
<glyph unicode="j" horiz-adv-x="600" d="M143 -384q31 20 53 45t35.5 56t20 66.5t6.5 75.5v1202h103v-1173q0 -70 -9.5 -124.5t-28.5 -96.5t-46.5 -73t-63.5 -56zM230 1383q0 17 6 31t16.5 25t25.5 17q13 6 30 6t31 -6t25 -17t17.5 -25t6.5 -31t-6.5 -31t-17.5 -25t-25 -16.5t-31 -5.5t-31 5.5t-24.5 16.5 t-16.5 25t-6 31z" />
<glyph unicode="k" horiz-adv-x="1117" d="M196 0v1568h104v-1568h-104zM304 543l544 518h154l-554 -519l627 -542h-165z" />
<glyph unicode="l" horiz-adv-x="589" d="M244 0v1568h103v-1568h-103z" />
<glyph unicode="m" horiz-adv-x="1829" d="M196 0v1063h104v-161q53 57 101 91.5t91.5 52.5t80.5 23.5t68 5.5q51 0 95.5 -9.5t84 -32t70 -57.5t54.5 -86q55 61 102.5 97t92 56t89 26t90.5 6q75 0 134 -26.5t99.5 -76t61 -119t20.5 -156.5v-697h-104v689q0 66 -14 119.5t-44 93t-76 60.5t-112 21q-48 0 -90.5 -12.5 t-81 -36.5t-74.5 -56t-72 -72v-806h-104v692q0 75 -16.5 129.5t-48 91t-75.5 53.5t-98 17q-84 0 -167 -43.5t-157 -133.5v-806h-104z" />
<glyph unicode="n" horiz-adv-x="1178" d="M196 0v1063h104v-159h2q42 45 84 77.5t86.5 53.5t91 30.5t97.5 9.5q74 0 133.5 -20t101.5 -65.5t64.5 -117t22.5 -172.5v-700h-104v689q0 64 -12.5 118t-41 93t-73 61t-105.5 22q-42 0 -85.5 -9t-87 -30t-87 -55.5t-87.5 -82.5v-806h-104z" />
<glyph unicode="o" horiz-adv-x="1276" d="M101 532q0 76 19.5 146t54.5 130t84 109.5t109 85.5t129 55.5t141.5 19.5t142 -19.5t129 -55.5t108.5 -85.5t84 -109.5t54.5 -130t19.5 -146t-19.5 -146t-54.5 -130t-84 -110.5t-108.5 -85.5t-128.5 -54q-70 -20 -143 -20q-74 0 -142 19.5t-128 54.5t-109 85.5t-84 110.5 t-54.5 130t-19.5 146zM210 532q0 -94 33.5 -176.5t91 -144t136 -97.5t166.5 -36q90 0 167.5 36t135 97.5t91 143.5t33.5 177q0 94 -33.5 176t-91 143.5t-136 96.5t-166.5 35t-166.5 -35t-136 -96.5t-91 -143.5t-33.5 -176z" />
<glyph unicode="p" horiz-adv-x="1191" d="M196 -507v1521q36 16 81 27.5t92.5 19t98 11t98.5 3.5q121 0 214.5 -40.5t157 -114.5t96.5 -179t33 -231q0 -121 -33.5 -217.5t-94 -165t-143 -105t-180.5 -36.5q-17 0 -49 0.5t-75.5 8.5t-92.5 26t-99 52v-580h-104zM300 196q61 -56 135.5 -87t173.5 -31q78 0 142 29.5 t110 84t71.5 134.5t25.5 183.5t-27 189t-77 148t-123 98t-168 38.5q-37 0 -70.5 -3t-65.5 -8t-64 -13q-31 -10 -63 -21v-742z" />
<glyph unicode="q" horiz-adv-x="1191" d="M126 510q0 127 32 231.5t96.5 178.5t157 114.5t215.5 40.5q48 0 97.5 -3.5t98 -11t92.5 -19.5q45 -11 82 -27v-1521h-104v580q-50 -34 -99 -52t-92.5 -26t-76.5 -8q-31 -1 -48 -1q-98 0 -181.5 36.5t-143 105t-93 165t-33.5 217.5zM235 510q0 -103 25.5 -183.5t71.5 -135 t110 -83.5q62 -30 140 -30q49 0 92.5 8t81.5 22.5t72 36.5q34 23 65 51v742q-64 24 -127 34.5t-136 10.5q-95 -3 -168.5 -38.5t-124 -98t-76.5 -148t-26 -188.5z" />
<glyph unicode="r" horiz-adv-x="911" d="M196 0v1061h104v-193q47 74 95.5 116t92.5 62.5t79 24.5t57.5 4t47.5 -2.5t53 -14t59.5 -34t66.5 -58.5l-59 -88q-50 53 -97 79t-87 26q-62 0 -118 -31t-98 -78.5t-67 -107t-25 -116.5v-650h-104z" />
<glyph unicode="s" horiz-adv-x="890" d="M132 823q0 67 29 115t78 78.5t112 44.5t131 14q39 0 74 -4t67 -12.5t63 -21t63 -29.5v-109q-32 22 -67 38t-68.5 26.5t-66 15t-60.5 4.5q-45 0 -88 -8.5t-78 -27.5t-58 -50q-22 -29 -22 -74q0 -43 15.5 -74.5t49 -58t86.5 -54.5t129 -65q87 -43 140.5 -81.5t82.5 -77 t38.5 -78.5t9.5 -85q0 -70 -28 -120.5t-75.5 -82t-110.5 -46t-131 -14.5q-37 0 -77 5.5t-80.5 18t-78 29.5t-71.5 39v115q28 -22 61 -41.5t71.5 -36.5t82 -27t89.5 -10q50 0 95 10t79 31t54 53t20 77q0 38 -12 68t-39.5 58t-73.5 57.5t-112 64.5q-62 32 -120 62t-103.5 66 t-72.5 83.5t-27 114.5z" />
<glyph unicode="t" horiz-adv-x="851" d="M62 972v89h235v275l103 75v-350h336v-89h-336v-675q0 -59 13 -99.5t37.5 -67t60 -39.5t80.5 -13q24 0 52 4.5t55 12t51 17.5q24 8 43 20v-93q-25 -12 -54.5 -22.5t-58.5 -17t-56 -10t-48 -3.5q-72 0 -124.5 22.5t-87 61.5t-50.5 93.5t-16 117.5v691h-235z" />
<glyph unicode="u" horiz-adv-x="1177" d="M196 364v697h104v-711q0 -62 15 -112t46 -85t80 -55t116 -20q48 0 94 13t89 36.5t78.5 58.5t59.5 80v795h103v-1061h-103v140q-48 -53 -97.5 -84.5t-94.5 -46.5t-82.5 -19t-60.5 -4q-82 0 -147.5 24.5t-109.5 72t-67 118.5t-23 163z" />
<glyph unicode="v" horiz-adv-x="1076" d="M87 1064h117l342 -832l330 832h115l-439 -1064h-14z" />
<glyph unicode="w" horiz-adv-x="1716" d="M87 1061h120l304 -815l309 815h77l310 -815l302 815h121l-416 -1061h-16l-338 890l-339 -890h-14z" />
<glyph unicode="x" horiz-adv-x="1134" d="M70 0l423 540l-420 521h140l343 -442l339 442h140l-413 -522l442 -539h-146l-364 461l-343 -461h-141z" />
<glyph unicode="y" horiz-adv-x="1037" d="M53 1061h121l341 -759l349 759h117l-721 -1559h-114l316 686z" />
<glyph unicode="z" horiz-adv-x="995" d="M59 0l659 969h-603v92h789l-652 -969h623v-92h-816z" />
<glyph unicode="{" horiz-adv-x="814" d="M118 594v120q70 8 112 32t65 64.5t30.5 99.5t7.5 137v366q0 105 16 175t52 110.5t94.5 57t142.5 16.5h98v-102h-100q-58 0 -95 -11t-59.5 -44t-31 -90.5t-8.5 -151.5v-329q0 -56 -2.5 -101.5t-11 -82.5t-22 -67t-35 -54.5t-51 -45t-68.5 -38.5v-3q39 -18 68.5 -38 t51 -45.5t35 -55t22 -67t11 -82.5t2.5 -102v-329q0 -93 8.5 -151t31 -91t59 -44t95.5 -11h100v-101h-98q-84 0 -142.5 17t-94.5 57.5t-52 110.5t-16 174v365q0 80 -7.5 138.5t-30.5 99.5t-65 64.5t-112 32.5z" />
<glyph unicode="|" horiz-adv-x="595" d="M248 -463v2235h99v-2235h-99z" />
<glyph unicode="}" horiz-adv-x="814" d="M78 -364h101q58 0 95 11t59.5 44t30.5 91t8 151v329q0 56 3 101.5t11.5 83t21.5 67t35 55t51.5 45t68.5 38.5v3q-39 18 -68.5 38.5t-51.5 45t-35 54.5t-21.5 67t-11.5 82.5t-3 101.5v329q0 93 -8 151t-30.5 91t-59 44t-95.5 11h-101v102h98q84 0 143 -16.5t94.5 -57 t52 -110.5t16.5 -175v-366q0 -80 7.5 -138t30.5 -98.5t65 -64.5t112 -32v-120q-70 -9 -112 -32.5t-65 -64.5t-30.5 -99.5t-7.5 -138.5v-365q0 -105 -16.5 -174.5t-52 -110t-94.5 -57.5t-143 -17h-98v101z" />
<glyph unicode="~" horiz-adv-x="1234" d="M64 603v111q31 31 70.5 52t78 33.5t72.5 18t57 5.5q39 0 78 -7.5t75 -19.5t70 -26t65 -28q36 -17 71 -32.5t71 -28t73.5 -21t81.5 -8.5q31 0 61.5 7t60 20t60.5 31t61 39v-108q-25 -22 -55.5 -39t-64.5 -29.5t-67.5 -19.5t-65.5 -7q-24 0 -57 4t-71.5 14t-80.5 24t-81 34 q-42 19 -79.5 36t-71.5 29.5t-67.5 19.5t-66.5 7q-27 0 -60 -7t-69.5 -19.5t-74 -33.5t-74.5 -51z" />
<glyph unicode="&#xa2;" horiz-adv-x="1057" d="M179 711q0 121 32.5 221t89.5 172.5t135.5 116t172.5 53.5v244h88v-243q73 -4 129 -22t101 -45v-102q-17 11 -40 21.5t-52 20.5t-62.5 17.5t-75.5 9.5v-889q38 0 71 4t63 12.5t59.5 19.5t60.5 28v-98q-27 -14 -53.5 -26.5t-56 -20.5t-65 -12.5t-79.5 -4.5v-412h-88v414 q-66 9 -123.5 31.5t-105 58.5t-85 82.5t-63.5 102.5t-40 118q-13 61 -13 128zM288 731q0 -83 22.5 -156.5t64.5 -131t101 -96.5t133 -53v879q-71 -11 -130 -49t-101.5 -96.5t-66 -134t-23.5 -162.5z" />
<glyph unicode="&#xa3;" horiz-adv-x="1079" d="M179 -10q7 41 17.5 95.5t24.5 116t28 127.5t29.5 130.5t29.5 124.5t28 108h-137v81h157q14 50 29 103.5t30.5 101.5t31 91t28.5 76q28 70 63.5 125.5t79 94t96.5 61t118 26.5l33 -83q-57 -3 -102.5 -24.5t-80.5 -56t-60.5 -79t-41.5 -90.5q-31 -79 -57.5 -163.5 t-54.5 -182.5h156v-81h-176q-11 -38 -22.5 -83.5t-22 -94t-21 -98t-21.5 -94.5q-22 -109 -45 -221q65 19 108.5 23.5t76.5 4.5q31 0 70 -8.5t84 -16.5q42 -9 82.5 -15t85.5 -6q21 0 45.5 3.5t44.5 8.5l8 -95q-15 -3 -42.5 -6.5t-66.5 -3.5q-28 0 -56 3q-24 1 -50 4t-48 9 q-43 8 -72.5 15t-54 10t-48.5 4t-55 1q-25 0 -57 -4t-65.5 -11t-66.5 -15.5t-60 -15.5z" />
<glyph unicode="&#xa5;" horiz-adv-x="1167" d="M115 444v105h413v182h-413v106h353l-350 605h140l326 -602l337 602h132l-350 -605h350v-106h-412v-182h412v-105h-412v-444h-113v444h-413z" />
<glyph unicode="&#xa9;" horiz-adv-x="1565" d="M42 722q0 103 26.5 197.5t74 176t116.5 149.5t150.5 115.5t176 74.5t197.5 27q102 0 196.5 -27t176.5 -74.5t150.5 -115.5t116 -149.5t74 -177t26.5 -196.5q0 -102 -26.5 -196.5t-74 -177t-116 -150.5t-150.5 -116t-176.5 -75t-196.5 -27q-103 0 -197.5 27t-176 75 t-150.5 116t-116.5 150.5t-74 177t-26.5 196.5zM147 720q0 -87 23 -168.5t63.5 -152.5t99.5 -128.5t129 -99.5t151 -64.5t170 -22.5q86 0 168 22.5t152 64.5t129 99.5t99.5 128.5t63.5 152.5t23 168.5q0 86 -23 167.5t-63.5 153t-99.5 128.5t-129 99t-151 64.5t-169 22.5 q-87 0 -169 -22.5t-152 -64.5t-129 -99t-99.5 -128.5t-63.5 -153t-23 -167.5zM434 714q0 92 25 169t72 130.5t113.5 83t150.5 29.5q58 0 107.5 -17t87.5 -48t64.5 -75.5t36.5 -100.5h-103q-21 78 -70.5 111.5t-132.5 33.5q-51 0 -94.5 -21t-76 -60t-49 -96.5t-16.5 -131.5 t18 -131.5t51 -98t78.5 -61t98.5 -20.5q34 0 66 9t60 28t47.5 46.5t28.5 60.5h101q-9 -54 -38.5 -98t-70.5 -75t-92 -48q-49 -17 -102 -17q-81 0 -148 29t-114 80.5t-73 125t-26 163.5z" />
<glyph unicode="&#xab;" horiz-adv-x="1121" d="M126 484l340 462h142l-350 -462l350 -462h-142zM510 484l341 462h142l-349 -462l349 -462h-142z" />
<glyph unicode="&#xad;" horiz-adv-x="882" d="M129 666v115h626v-115h-626z" />
<glyph unicode="&#xae;" horiz-adv-x="1565" d="M42 722q0 103 26.5 197.5t74 176t116.5 149.5t150.5 115.5t176 74.5t197.5 27q102 0 196.5 -27t176.5 -74.5t150.5 -115.5t116 -149.5t74 -177t26.5 -196.5q0 -102 -26.5 -196.5t-74 -177t-116 -150.5t-150.5 -116t-176.5 -75t-196.5 -27q-103 0 -197.5 27t-176 75 t-150.5 116t-116.5 150.5t-74 177t-26.5 196.5zM147 720q0 -87 23 -168.5t63.5 -152.5t99.5 -128.5t129 -99.5t151 -64.5t170 -22.5q86 0 168 22.5t152 64.5t129 99.5t99.5 128.5t63.5 152.5t23 168.5q0 86 -23 167.5t-63.5 153t-99.5 128.5t-129 99t-151 64.5t-169 22.5 q-87 0 -169 -22.5t-152 -64.5t-129 -99t-99.5 -128.5t-63.5 -153t-23 -167.5zM518 350v755h361q56 0 96.5 -17t67.5 -45t40 -65t13 -76.5t-10.5 -77t-35.5 -67t-65.5 -47t-101.5 -17.5v-3q28 -10 49 -28t40 -44.5t39.5 -62.5t45.5 -80q10 -17 17.5 -32.5t15.5 -30t15 -30 t16 -32.5h-121l-62 127q-22 42 -44.5 79.5t-47.5 63.5q-31 28 -67.5 37t-78.5 9h-84v-316h-98zM616 749h207q48 0 80 12t52.5 31.5t29.5 45.5q9 24 9 52q0 42 -12 69t-36.5 41t-62 18.5t-88.5 4.5h-179v-274z" />
<glyph unicode="&#xbb;" horiz-adv-x="1121" d="M129 22l350 462l-350 462h141l340 -462l-340 -462h-141zM514 22l348 462l-348 462h141l342 -462l-342 -462h-141z" />
<glyph unicode="&#xbc;" horiz-adv-x="1895" d="M295 624v768h108v-768h-108zM330 -60l978 1477h109l-977 -1477h-110zM1023 185v99l430 483h72v-507h107v-75h-107v-185h-107l-1 185h-394zM1116 260h301v336z" />
<glyph unicode="&#xbd;" horiz-adv-x="1895" d="M295 624v768h108v-768h-108zM311 -60l974 1477h109l-977 -1477h-106zM1148 0v22q81 94 148.5 173t115.5 145.5t75.5 120.5t27.5 98q0 36 -12 60t-31 37t-42 17q-22 5 -44 5q-14 0 -38 -3t-50.5 -10t-56 -19.5t-54.5 -32.5v90q48 31 102 46q52 15 117 15q47 0 87.5 -11 t70 -35t46.5 -59t17 -82q0 -32 -6.5 -63.5t-19.5 -65.5t-37 -71.5t-59 -82.5t-82 -98q-48 -53 -110 -118h356v-78h-521z" />
<glyph unicode="&#xbe;" horiz-adv-x="1895" d="M199 673l1 84q38 -16 78.5 -26.5t81.5 -10.5q36 0 65.5 8t50 25t30 41t9.5 50q0 39 -11 66t-29.5 43t-42 23.5t-50.5 9.5v86q37 10 60 24t35.5 31t16.5 36t4 40t-7 40.5t-23.5 35t-43 25t-66.5 9.5q-33 0 -70 -11t-67 -22v86q28 12 77 23t111 11q43 0 80 -14t64 -39 t42 -58q15 -35 15 -71q0 -14 -1 -38t-12.5 -50.5t-34.5 -51.5q-22 -25 -66 -43v-2q30 -4 57 -19.5t45.5 -40t30 -58t11.5 -71.5q0 -47 -19 -85.5t-52.5 -66.5t-80 -43t-102.5 -15q-26 0 -49 2t-45 8t-44 13q-24 7 -49 16zM395 -60l974 1477h109l-977 -1477h-106zM1086 185 v99l432 483h70v-507h109v-75h-109v-185h-107v185h-395zM1179 260h302v336z" />
<glyph unicode="&#xd7;" horiz-adv-x="1234" d="M227 414l311 311l-311 308l81 81l311 -310l308 310l81 -81l-311 -308l311 -311l-81 -79l-308 309l-311 -311z" />
<glyph unicode="&#xf7;" horiz-adv-x="1178" d="M129 666v115h922v-115h-922zM490 344q0 21 8.5 39.5t21.5 31.5t32 22q19 8 39 8q21 0 38.5 -8.5t31.5 -21.5t22.5 -31.5t8.5 -39.5q0 -19 -8.5 -37.5t-22.5 -32.5t-32.5 -21.5t-38 -7.5t-38.5 7.5t-32 21.5t-21.5 32.5t-8.5 37.5zM490 1099q0 21 8.5 39t21.5 32t32 22 t39 8q21 0 38.5 -8t31.5 -22t22.5 -32t8.5 -39q0 -20 -8.5 -38.5t-22.5 -32t-32.5 -21t-38 -7.5t-38.5 7.5t-32 21t-21.5 32t-8.5 38.5z" />
<glyph unicode="&#xe00;" />
<glyph unicode="&#xe01;" horiz-adv-x="1390" d="M238 0v773q0 84 19 145.5t51 106.5t76 73t94.5 43t105 22t110.5 7q55 0 110.5 -6t106.5 -22t95 -44t76 -73t51 -106.5t19 -145.5v-773h-112v745q0 74 -14.5 126.5t-40.5 88t-60.5 56t-72 31.5t-78 14t-80.5 3q-39 0 -78 -3t-78.5 -14t-73 -31.5t-58.5 -56t-40.5 -87.5 t-15.5 -127v-745h-112z" />
<glyph unicode="&#xe02;" horiz-adv-x="1240" d="M129 1156h131l363 -947l363 947h131l-465 -1156h-58z" />
<glyph unicode="&#xe03;" horiz-adv-x="1320" d="M137 1054v125l227 -160l190 137h118v-226q0 -27 -1.5 -48t-5.5 -40t-14.5 -37t-28 -39t-45 -47t-66.5 -61q-36 -34 -65 -59t-48.5 -49.5t-29.5 -49t-10 -52.5v-99q0 -70 20 -121.5t57.5 -83.5t95 -47.5t133.5 -15.5q75 0 132 15.5t95.5 47.5t58 82.5t19.5 122.5v807h112 v-798q0 -86 -24 -155.5t-75.5 -118t-130 -73.5t-187.5 -25q-110 0 -189.5 25t-130.5 73.5t-75.5 118t-24.5 155.5v90q0 45 14 79t39.5 65t60 61t73.5 65q48 42 74 68.5t37.5 48.5t13 43t1.5 53v105l-193 -137z" />
<glyph unicode="&#xe04;" horiz-adv-x="1415" d="M238 0v776q0 81 19.5 142.5t52.5 105t78.5 73t97.5 46t108 23.5q58 6 114 6t113 -6.5t109.5 -23t97 -45.5t78.5 -73t52.5 -105.5t18.5 -142.5v-776h-112v742q0 70 -16 122t-42.5 87.5t-63 58t-75.5 35t-80.5 17.5t-79.5 5q-39 0 -79.5 -5t-81 -18.5t-76.5 -35.5t-63 -58 t-42.5 -87t-15.5 -121v-199q25 37 54.5 60.5t59 39.5t56.5 24t50.5 12t41 4h25.5q6 0 19 -1.5t28.5 -2.5t29.5 -4.5t22 -8.5l-29 -103q-3 0 -10.5 2t-16.5 3.5t-18.5 2t-17.5 0.5q-42 2 -87.5 -8.5t-87 -34.5t-72.5 -65q-33 -40 -47 -99v-364h-112z" />
<glyph unicode="&#xe05;" horiz-adv-x="1458" d="M238 0v1156h151l339 -259l344 259h149v-1156h-112v1044l-380 -285l-379 285v-568q24 36 52.5 60t58 40t57.5 24.5t52 12t41.5 4t25.5 0.5q6 0 19 -0.5t28.5 -3.5t29.5 -5.5t22 -6.5l-29 -104q-3 0 -10.5 2t-16.5 3t-18.5 1.5t-17.5 1.5q-45 3 -90.5 -7.5t-86 -35.5 t-71.5 -66q-32 -40 -46 -99v-297h-112z" />
<glyph unicode="&#xe06;" horiz-adv-x="1397" d="M137 1053v126l221 -160l194 137h114v-226q0 -27 -0.5 -48t-5.5 -40t-14.5 -37t-28 -39t-45 -47t-65.5 -61q-37 -34 -66 -59t-49 -49.5t-30.5 -49t-10.5 -52.5v-98q28 -56 71 -103.5t97.5 -82.5t117.5 -54.5t132 -19.5q30 0 63 4t64 15t58 31t47.5 50.5t33 75.5t12.5 104 v786h112v-791q0 -98 -26 -168.5t-75.5 -118t-122.5 -70t-166 -22.5q-56 0 -108.5 10t-103 33.5t-101 64t-105.5 102.5v-196h-112v448q0 45 15 79t40 65t60 61t74 65q48 42 73 68.5t36.5 48.5t14 43t2.5 53v105l-196 -137z" />
<glyph unicode="&#xe07;" horiz-adv-x="1036" d="M133 112v120q55 -42 104.5 -70.5t95 -46t84.5 -26t76 -8.5q40 0 74.5 7t61 27.5t42 56t15.5 94.5v785h-196v105h308v-910q0 -134 -80 -197t-228 -63q-56 0 -108 11t-96.5 29.5t-83 41t-69.5 44.5z" />
<glyph unicode="&#xe08;" horiz-adv-x="1146" d="M139 962v108q103 47 206 73.5t215 26.5q92 0 158 -16t108 -50t61.5 -89.5t19.5 -133.5v-881h-112v364q-14 59 -46 99.5t-72.5 64.5t-86 35t-87.5 8q-9 0 -18 -0.5t-18 -2t-17 -2.5q-8 -3 -10 -3l-28 103q8 5 22 8.5t28.5 4.5t28 2.5t19.5 1.5h25t40.5 -4t51.5 -12t57 -24 t57.5 -39.5t53.5 -60.5v241q0 39 -1.5 77t-8.5 68.5t-22 56t-41 43.5t-66 28t-96 10q-36 0 -83 -4.5t-101 -16t-114 -32t-123 -52.5z" />
<glyph unicode="&#xe09;" horiz-adv-x="1367" d="M238 952v109q53 24 110.5 44.5t116.5 35t119 22t119 7.5q98 0 177 -16.5t134.5 -53t84.5 -92.5t29 -134v-874h-112v196q-56 -64 -108.5 -105t-102 -64.5t-97 -32t-89.5 -8.5q-185 0 -281.5 92.5t-96.5 286.5v317h112v-312q0 -59 11 -102.5t31.5 -75t46.5 -52t56 -31.5 t60.5 -15t60.5 -4q70 0 134.5 23t117 60t91 83t54.5 94v434q0 38 -1 73.5t-11 67t-30.5 57.5t-57.5 44t-94.5 29.5t-138.5 11.5q-45 0 -99.5 -8.5t-114 -22.5t-119 -35t-112.5 -49z" />
<glyph unicode="&#xe0a;" horiz-adv-x="1351" d="M171 1050v106h413v-310q-60 -35 -109 -73.5t-84 -86.5t-55 -107.5t-20 -134.5q0 -94 29.5 -160.5t79.5 -109t113.5 -63t130.5 -20.5q66 0 129.5 22.5t114 69.5t82 117.5t31.5 167.5q0 88 -16.5 168.5t-52.5 153t-92 137t-131 117.5v112h456v-106h-305q31 -24 56 -48.5 t53 -60.5q31 -42 57.5 -94t46 -109.5t31 -121.5t11.5 -132q0 -106 -33 -197t-94 -158t-149 -105t-194.5 -38t-192 33t-147 93t-95 145t-33.5 187q0 84 22 153t60 124t87 98t101 77v154h-301z" />
<glyph unicode="&#xe0b;" horiz-adv-x="1386" d="M73 1054v125l227 -160l190 137h118v-310q-61 -35 -110.5 -73.5t-84.5 -86.5t-54.5 -107.5t-19.5 -134.5q0 -94 30 -160.5t79.5 -109t112.5 -63t132 -20.5q66 0 129.5 20.5t114 64.5t82 116t31.5 176q0 88 -17 168.5t-53 153t-91.5 137t-132.5 117.5v112h456v-106h-305 q31 -24 56 -48.5t53 -60.5q40 -53 68 -110t45.5 -116.5t25.5 -121t8 -120.5q0 -109 -32 -198.5t-93 -154t-147.5 -99.5t-197.5 -35q-106 0 -192.5 33t-148 93t-95 145t-33.5 187q0 84 23 153t60 124t86 98t101 77l-1 140l-193 -137z" />
<glyph unicode="&#xe0c;" horiz-adv-x="2063" d="M238 0v773q0 84 18 145.5t50.5 105.5t74.5 73t91 45.5t101.5 22t104.5 5.5q51 0 104.5 -5.5t101.5 -22t91.5 -44.5t75 -73t50 -106.5t18.5 -145.5l1 -423q14 -43 43.5 -88.5t74 -83t103.5 -62t128 -26.5q56 0 100.5 14t77 44.5t50 79.5t17.5 122v806h112v-823 q0 -73 -15 -126t-40 -92t-59.5 -63.5t-74.5 -39.5t-82.5 -20.5t-85.5 -5.5q-47 0 -93.5 12.5t-92 38t-87.5 65.5q-40 41 -76 97v-199h-113v753q0 79 -20 132t-50 88t-67.5 53t-74 28t-68 11.5t-48.5 1.5q-11 0 -31.5 -1.5t-45.5 -5t-54 -11t-57 -23t-53 -38t-44.5 -54.5 t-31.5 -77t-12 -104v-649h176v-104h-288z" />
<glyph unicode="&#xe0d;" horiz-adv-x="1993" d="M238 0v776q0 84 18 145.5t49 105t73 71.5t89.5 44.5t100 22t104.5 5.5t104.5 -5.5t100.5 -22t90 -44.5t73 -73t48.5 -106.5t17.5 -145.5v-261q0 -33 3.5 -63t13.5 -57t27.5 -48.5t45.5 -37t68.5 -24t96.5 -8.5q61 0 106 13.5t76 35t50.5 49t30.5 55.5t15.5 54t4.5 44v631 h112v-1015q0 -85 -26 -152t-78.5 -113.5t-135 -70t-196.5 -23.5q-45 0 -87 4t-81.5 14t-79 24t-78.5 33v109q42 -19 80 -34.5t77 -25.5t80.5 -15.5t88.5 -5.5q90 0 152 16t100 50.5t55 86.5t17 124v121q-23 -30 -52.5 -49.5t-60 -32t-61.5 -19t-59 -9t-50.5 -2.5h-36.5 q-85 0 -147.5 21t-103 62t-60 100.5t-19.5 134.5v264q0 79 -18 132t-49 88t-67.5 53t-72 28t-66.5 11.5t-48 1.5q-11 0 -31 -1.5t-45.5 -5t-53.5 -11t-54.5 -23t-51.5 -38t-45 -54.5t-31 -77t-11 -104v-649h176v-104h-288z" />
<glyph unicode="&#xe0e;" horiz-adv-x="1398" d="M101 0v104h173v669q0 81 17.5 142.5t49 105t73.5 73t91 46t104 23.5t108 7q54 0 108 -7t103 -23.5t92 -45.5t74.5 -73t48 -105.5t16.5 -142.5v-1151h-176q-48 52 -101 72t-115 20q-45 0 -80.5 -6t-68.5 -18t-65 -29.5t-70 -39.5v110q17 11 44 26.5t63.5 29t81.5 22.5 t95 9q28 0 61 -4t68.5 -16t73.5 -34t77 -58v1026q0 79 -15.5 135t-42 93t-60 58t-70 32t-73.5 14q-38 3 -69 3t-68 -3t-74 -14t-71 -32t-60.5 -58t-42 -92.5t-15.5 -135.5v-732h-285z" />
<glyph unicode="&#xe0f;" horiz-adv-x="1398" d="M101 0v104h173v669q0 81 17.5 142.5t49 105t73.5 73t91 46t104 23.5t108 7q54 0 108 -7t103 -23.5t92 -45.5t74.5 -73t48 -105.5t16.5 -142.5v-1151h-165q-34 46 -74.5 70.5t-104.5 24.5q-51 0 -104 -21.5t-98 -74.5l-290 96v101l282 -87q28 30 58 47.5t58 25.5t52.5 11 t41.5 3q19 0 45 -2t56 -12.5t64 -33t67 -61.5v1023q0 79 -15.5 135t-42 93t-60 58t-70 32t-73.5 14q-38 3 -69 3t-68 -3t-74 -14t-71 -32t-60.5 -58t-42 -92.5t-15.5 -135.5v-732h-285z" />
<glyph unicode="&#xe10;" horiz-adv-x="1146" d="M139 946v110q103 47 206 73.5t215 26.5h17h481v-106h-232q17 -17 32.5 -36t26.5 -47t17 -67q5 -38 5 -94v-806h-112v364q-14 59 -46 99.5t-72.5 64.5t-86 35t-87.5 8q-9 0 -18 -0.5t-18 -2t-17 -2.5q-8 -3 -10 -3l-28 103q8 5 22 8.5t28.5 4.5t28 2.5t19.5 1.5h25 t40.5 -4t51.5 -12t57 -24t57.5 -39.5t53.5 -60.5v227q0 39 -1.5 75.5t-8.5 68t-22 56.5t-41 42.5t-66 27.5t-96 10q-36 0 -83 -4t-101 -15.5t-114 -31.5t-123 -53zM260 -165l188 -76q24 25 50 40.5t51 24t47.5 10.5t39.5 2q15 0 33 -2t38.5 -9t43 -19.5t46.5 -35.5v98h110 v-229h-110q-10 14 -24 30.5t-33.5 32t-45 24.5t-58.5 9q-48 0 -91.5 -22t-88.5 -74l-196 81v115z" />
<glyph unicode="&#xe11;" horiz-adv-x="1390" d="M104 1056v123l224 -160l190 137h109v-210l126 122q39 39 73 59.5t62.5 29.5t51.5 10t41 1q52 0 85.5 -15.5t52 -49t26 -87t7.5 -128.5v-888h-113v840v96.5t-7 67t-25.5 40.5t-51.5 14q-17 0 -35 -5.5t-35.5 -15t-34 -21.5t-27.5 -25l-375 -367q-31 -30 -50.5 -51 t-30.5 -41t-14 -42t-3 -56v-434h-115v434q0 50 5.5 82.5t22 60.5t44.5 56.5t72 72.5l114 112q11 14 16.5 25.5t8.5 25t3 28v34.5v105l-193 -137z" />
<glyph unicode="&#xe12;" horiz-adv-x="2151" d="M238 0v1156h151l339 -259l343 259h147v-806q11 -41 40.5 -85t73.5 -83t102 -64q56 -26 126 -28q56 0 100.5 14t76 44.5t48.5 79.5t17 122v806h112v-823q0 -73 -15 -126t-39.5 -92t-58.5 -63.5t-73.5 -39.5t-81.5 -20q-44 -6 -86 -6q-47 0 -92.5 12t-88.5 38t-84 66 q-41 41 -77 97v-199h-112v1044l-378 -285l-378 285v-932q56 32 108.5 73.5t94 86t67 88t31.5 78.5q6 37 -4.5 54.5t-27.5 25t-36.5 7t-35.5 -0.5l30 95q22 3 43 3t42 -3q55 -7 79.5 -43t24.5 -96q0 -42 -16 -86.5t-45.5 -89t-69 -87.5t-85 -82.5t-95 -73t-99.5 -61.5h-118z " />
<glyph unicode="&#xe13;" horiz-adv-x="2018" d="M238 0v773q0 84 18 145.5t50.5 105.5t74.5 73t91 45.5t101.5 22t104.5 5.5q51 0 104.5 -5.5t102.5 -22t91.5 -44.5t74 -73t50 -106.5t18.5 -145.5v-423q0 -134 56.5 -196t165.5 -64q62 1 116.5 26t96.5 62.5t71.5 83.5t41.5 88v806h114v-1156h-114v199q-32 -53 -70.5 -93 t-80.5 -66.5t-86 -40t-89 -13.5q-42 0 -83 6.5t-78.5 22.5t-69.5 41t-54.5 64.5t-35.5 91t-13 121.5v420q0 79 -20 132t-50 88t-67.5 53t-74 28t-68 11.5t-48.5 1.5q-11 0 -31.5 -1.5t-45.5 -5t-54 -11t-57 -23t-53 -38t-44.5 -54.5t-31.5 -77t-12 -104v-649h176v-104h-288z " />
<glyph unicode="&#xe14;" horiz-adv-x="1454" d="M238 0v773q0 81 19.5 142.5t54.5 106.5t81.5 73t101 45.5t113.5 23.5q61 6 120 6t118.5 -6t113.5 -23.5t101.5 -45.5t81.5 -73t54 -106.5t20 -142.5v-773h-114v732q0 73 -15.5 127t-43.5 91t-65.5 60t-79 35.5t-85.5 17t-86 4.5t-86 -4.5t-86 -17t-79 -35.5t-65 -60 t-44.5 -90.5t-16.5 -127.5v-620q56 32 108.5 73.5t93.5 86t67.5 88t31.5 78.5q6 37 -4.5 54.5t-28 25t-37 7t-33.5 -0.5l28 95q22 3 44 3q23 0 43 -3q54 -7 78.5 -43t24.5 -96q0 -42 -16.5 -86.5t-46 -89t-69 -87.5t-84 -82.5t-95 -73t-100.5 -61.5h-118z" />
<glyph unicode="&#xe15;" horiz-adv-x="1457" d="M238 0v1156h151l339 -259l343 259h147v-1156h-112v1044l-378 -285l-378 285v-932q56 32 108.5 73.5t94 86t67 88t31.5 78.5q6 37 -4.5 54.5t-27.5 25t-36.5 7t-35.5 -0.5l30 95q22 3 43 3t42 -3q55 -7 79.5 -43t24.5 -96q0 -42 -16 -86.5t-45.5 -89t-69 -87.5t-85 -82.5 t-95 -73t-99.5 -61.5h-118z" />
<glyph unicode="&#xe16;" horiz-adv-x="1390" d="M238 0v1163q53 0 102 1t103.5 2.5t122 2.5t159.5 3q53 0 104.5 -6.5t99 -24t88 -46t70.5 -72t47 -103.5t17 -142v-778h-112v738q0 73 -14 125.5t-38.5 88.5t-57.5 59.5t-72 36t-81 16t-86 3.5l-340 -11v-952h176v-104h-288z" />
<glyph unicode="&#xe17;" horiz-adv-x="1405" d="M238 0v1156h112v-1008q15 28 32 55q14 24 30 50.5t30 47.5l594 855h132v-1156h-112v1004q-17 -28 -33 -53q-14 -23 -28.5 -47.5t-27.5 -41.5l-609 -862h-120z" />
<glyph unicode="&#xe18;" horiz-adv-x="1239" d="M188 882q0 67 28 120.5t81 91t133 57t182 19.5q63 0 119 -7t103.5 -18t88 -24.5t71.5 -25.5v-112q-45 17 -87.5 31.5t-88 25t-96 17.5t-109.5 10h-25q-55 0 -104.5 -11.5t-88.5 -32.5t-62.5 -51.5t-23.5 -68.5q0 -42 16.5 -72t52.5 -52.5t92 -40.5t135 -41l173 -47 q68 -19 125 -42t99 -58t66.5 -85.5t24.5 -120.5q0 -58 -16 -108t-45.5 -90t-69 -70t-86 -50t-96.5 -30q-52 -10 -102 -10q-82 0 -152 6.5t-128.5 15.5t-105.5 21q-46 12 -79 23v431h112v-343q106 -31 181.5 -40.5t126.5 -9.5q78 0 141 16t107 46t67.5 75t23.5 103 q0 59 -28 97t-80 66t-126 49.5t-170 45.5q-72 20 -141 42t-122 56t-85 81.5t-32 114.5z" />
<glyph unicode="&#xe19;" horiz-adv-x="1404" d="M238 365v791h112v-786q0 -61 12.5 -105t33.5 -74.5t48.5 -50.5t58 -31t63.5 -15t64 -4q67 0 131.5 19.5t120.5 54.5t100 82q43 48 71 104v806h112v-1156h-112v196q-58 -64 -109.5 -105t-102.5 -64.5t-103 -32t-108 -8.5q-94 0 -166.5 22.5t-122.5 70t-76.5 119 t-26.5 167.5z" />
<glyph unicode="&#xe1a;" horiz-adv-x="1390" d="M238 382v774h112v-746q0 -74 15.5 -126.5t40.5 -88t58.5 -56t73 -31t79.5 -14.5q38 -3 77 -3q40 0 80.5 3.5t78 14t72 31t60.5 56t40.5 88t14.5 126.5v746h112v-774q0 -84 -19 -145.5t-51 -105.5t-76 -72t-95 -45t-106.5 -22.5t-110.5 -5.5q-56 0 -110.5 6.5t-105 22.5 t-94.5 44t-76 72t-51 106.5t-19 144.5z" />
<glyph unicode="&#xe1b;" horiz-adv-x="1390" d="M238 382v774h112v-746q0 -74 15.5 -126.5t40.5 -88t58.5 -56t73 -31t79.5 -14.5q38 -3 77 -3q40 0 80.5 3.5t78 14t72 31t60.5 56t40.5 88t14.5 126.5v1206h112v-1234q0 -84 -19 -145.5t-51 -105.5t-76 -72t-95 -45t-106.5 -22.5t-110.5 -5.5q-56 0 -110.5 6.5t-105 22.5 t-94.5 44t-76 72t-51 106.5t-19 144.5z" />
<glyph unicode="&#xe1c;" horiz-adv-x="1457" d="M238 0v1156h288v-106h-179v-519v-169t-1 -116q-2 -53 -2 -86q34 47 62 88q11 17 23.5 34.5t22.5 32t18.5 25t11.5 16.5l246 322l248 -322q3 -6 11 -16.5t18.5 -25t22.5 -31.5q14 -17 25 -35q28 -41 61 -88q-2 33 -2 86q-2 45 -2 115v170v625h109v-1156h-105l-383 512 l-387 -512h-106z" />
<glyph unicode="&#xe1d;" horiz-adv-x="1457" d="M238 0v1156h288v-106h-179v-519v-169t-1 -116q-2 -53 -2 -86q34 47 62 88q11 17 23.5 34.5t22.5 32t18.5 25t11.5 16.5l246 322l248 -322q3 -6 11 -16.5t18.5 -25t22.5 -31.5q14 -17 25 -35q28 -41 61 -88q-2 33 -2 86q-2 45 -2 115v170v1085h109v-1616h-105l-383 512 l-387 -512h-106z" />
<glyph unicode="&#xe1e;" horiz-adv-x="1741" d="M123 1156h123l216 -770q7 -25 14.5 -57t13.5 -63q8 -35 17 -71q11 35 21 68q8 30 18.5 61.5t19.5 54.5l271 777h67l272 -777q8 -23 18 -54.5t18 -61.5q12 -33 23 -68q8 35 17 71q7 31 14 64q8 31 14 56l215 770h123l-333 -1156h-81l-307 862q-5 13 -9 31q-6 20 -9 37 q-3 19 -8 42q-6 -23 -9 -42q-2 -17 -8 -36.5t-10 -31.5l-306 -862h-82z" />
<glyph unicode="&#xe1f;" horiz-adv-x="1649" d="M123 1156h123l182 -770q3 -12 6 -27t7 -30t8.5 -32t6.5 -31q9 -35 17 -71q11 35 23 68q9 30 19.5 61.5t19.5 54.5l281 777h67l282 -777q8 -23 18 -51t20 -54q11 -28 21 -58q11 64 21 123l8 50t8.5 47.5t7.5 42.5q2 19 5 32l210 1046h116l-322 -1557h-80l-322 865 q-5 13 -9.5 35.5t-6.5 44.5l-10 55l-10 -55q-3 -22 -8 -44t-9 -36l-320 -865h-80z" />
<glyph unicode="&#xe20;" horiz-adv-x="1398" d="M101 0v104h173v669q0 81 17.5 142.5t49 105t73.5 73t91 46t104 23.5t108 7q54 0 108 -7t103 -23.5t92 -45.5t74.5 -73t48 -105.5t16.5 -142.5v-773h-112v732q0 79 -15.5 135t-42 93t-60 58t-70 32t-73.5 14q-38 3 -69 3t-68 -3t-74 -14t-71 -32t-60.5 -58t-42 -92.5 t-15.5 -135.5v-732h-285z" />
<glyph unicode="&#xe21;" horiz-adv-x="1404" d="M238 0v1156h112v-806q28 -56 72 -103.5t99.5 -82.5t120.5 -55q66 -19 134 -19q30 0 62.5 4t63 15t58.5 31t48.5 50.5t32.5 75.5t12 104v786h112v-791q0 -98 -25.5 -168.5t-75.5 -118t-123 -70t-165 -22.5q-56 0 -109.5 8.5t-104 32t-102 64.5t-110.5 105v-196h-112z" />
<glyph unicode="&#xe22;" horiz-adv-x="1328" d="M179 332q0 52 11.5 98t35 84t61.5 67t91 49v4q-62 23 -101 54.5t-61.5 70t-29.5 79.5t-7 83q0 52 18.5 97.5t52 79t79.5 53t104 19.5q19 0 42 -2.5t45.5 -8t43.5 -14t38 -17.5v-103q-53 25 -93.5 32t-71.5 7q-38 0 -65.5 -12.5t-44 -36.5t-24.5 -54.5t-8 -67.5 q0 -38 17.5 -75t50.5 -66.5t81.5 -47t108.5 -17.5h14h10.5t10.5 1t14 1v-107q-6 0 -17.5 1t-23.5 -1q-61 -5 -111 -22.5t-85 -47t-53.5 -72t-18.5 -97.5q0 -50 14 -88.5t38.5 -66.5t58 -46.5t71 -29.5t78.5 -16t81 -5q37 0 76.5 3t79 13.5t73 30.5t59.5 54.5t40.5 85.5 t14.5 124v754h112v-770q0 -84 -18 -147t-50.5 -107.5t-76.5 -72.5t-95 -45t-105.5 -22.5t-110.5 -5.5q-101 0 -183.5 19.5t-143 61.5t-94 108t-33.5 157z" />
<glyph unicode="&#xe23;" horiz-adv-x="1014" d="M165 907q0 62 27.5 111t75.5 83t116 51.5t149 17.5q37 0 72.5 -4t70.5 -11.5t66 -18t55 -22.5v-109q-31 14 -61 24.5t-62.5 19t-66 13.5t-74.5 5q-25 0 -53 -3t-56 -10t-54 -18t-45.5 -28.5t-30.5 -42t-11 -58.5q0 -39 16.5 -70.5t49.5 -59.5t81.5 -55.5t109.5 -59.5 q94 -47 155 -88.5t96 -83t49 -88t14 -105.5q0 -63 -24 -120t-68.5 -99t-112 -67t-156.5 -25q-87 0 -160 15.5t-143 48.5v126q37 -22 72 -37.5t72 -26.5t76 -16q38 -5 83 -5q61 0 106 17.5t74.5 47t43.5 66t14 75.5q0 24 -3 45t-12.5 42t-28 41t-47 42.5t-70 47.5t-100.5 55 q-64 32 -118.5 64t-96.5 70.5t-66 87t-24 115.5z" />
<glyph unicode="&#xe24;" horiz-adv-x="1390" d="M238 0v1163q53 0 102 1t103.5 2.5t122 2.5t159.5 3q53 0 104.5 -6.5t99 -24t88 -46t70.5 -72t47 -103.5t17 -142v-1201h-112v1161q0 73 -14 125.5t-38.5 88.5t-57.5 59.5t-72 36t-81 16t-86 3.5l-340 -11v-952h176v-104h-288z" />
<glyph unicode="&#xe25;" horiz-adv-x="1279" d="M154 204q0 93 54.5 172t157 145t245 117t319.5 84v76q0 39 -1.5 75t-11.5 66t-29.5 53.5t-55 40t-90.5 25.5q-56 9 -134 9q-41 0 -88.5 -7t-98.5 -20.5t-104.5 -32.5t-103.5 -41v106q61 28 117 47t108.5 31t106.5 16t112 4q88 0 159.5 -15t121 -50t77 -90t27.5 -133v-882 h-112v620q-89 -15 -172 -39t-156 -54.5t-134.5 -67t-105 -76t-68 -80.5t-24.5 -83q0 -14 1.5 -30t8 -31.5t18 -29.5t32.5 -24t52.5 -12.5t76.5 1.5q11 1 26 3q13 2 39 7v-93q-40 -15 -76 -20t-67 -5q-59 0 -101.5 18t-70 49t-41.5 70t-14 81z" />
<glyph unicode="&#xe26;" horiz-adv-x="1398" d="M101 0v104h173v669q0 81 17.5 142.5t49 105t73.5 73t91 46t104 23.5t108 7q54 0 108 -7t103 -23.5t92 -45.5t74.5 -73t48 -105.5t16.5 -142.5v-1196h-112v1155q0 79 -15.5 135t-42 93t-60 58t-70 32t-73.5 14q-38 3 -69 3t-68 -3t-74 -14t-71 -32t-60.5 -58t-42 -92.5 t-15.5 -135.5v-732h-285z" />
<glyph unicode="&#xe27;" horiz-adv-x="1083" d="M162 1022v104q23 9 53.5 17.5t67 15t73 10t70.5 3.5q126 0 219 -44t155 -122.5t92.5 -185t30.5 -232.5q0 -78 -13.5 -154t-41.5 -143t-68.5 -123t-96.5 -96.5t-125.5 -63t-153.5 -22.5q-143 0 -245 45v99q20 -5 43.5 -13t54 -13.5t67.5 -9.5t80 -4q66 0 120.5 21t98 56 t75 82.5t52.5 102.5t31.5 114.5t10.5 118.5q0 101 -25 188.5t-73.5 152.5t-121.5 102t-168 37q-71 0 -138 -11q-68 -10 -124 -32z" />
<glyph unicode="&#xe28;" horiz-adv-x="1415" d="M238 0v760q0 81 19.5 143t52.5 106t78.5 72t97.5 44.5t108 23.5q58 7 114 7h600v-106h-280q28 -15 56 -39.5t48 -60.5t32.5 -83t12.5 -105v-762h-112v728q0 70 -16 121t-42.5 87t-63 58t-75.5 35t-80.5 17t-79.5 4q-39 0 -79.5 -4t-81 -17t-76.5 -35t-63 -58.5t-42.5 -87 t-15.5 -120.5v-185q25 37 54.5 60.5t59 39.5t56.5 24t50.5 12t41 4h25.5q6 0 19 -1.5t28.5 -2.5t29.5 -4.5t22 -8.5l-29 -103q-3 0 -10.5 2t-16.5 3.5t-18.5 2t-17.5 0.5q-42 2 -87.5 -8.5t-87 -34.5t-72.5 -65q-33 -40 -47 -99v-364h-112z" />
<glyph unicode="&#xe29;" horiz-adv-x="1388" d="M238 382v774h112v-746q0 -74 15.5 -126.5t40.5 -88t58.5 -56t73 -31t79.5 -14.5q38 -3 77 -3q40 0 80.5 3.5t78 14t72 31t60.5 56t40.5 88t14.5 126.5v221h-343v195h112v-101h231v431h112v-431h181v-94h-181v-249q0 -84 -19 -145.5t-51 -105.5t-76 -72t-95 -45 t-106.5 -22.5t-110.5 -5.5q-56 0 -110.5 6.5t-105 22.5t-94.5 44t-76 72t-51 106.5t-19 144.5z" />
<glyph unicode="&#xe2a;" horiz-adv-x="1279" d="M154 204q0 93 54.5 170t157 140t245 112t319.5 82l-3 54q0 39 -1.5 75.5t-10 69t-28 59.5t-55 45.5t-90.5 30.5q-56 11 -134 11q-41 0 -88.5 -7t-98.5 -20.5t-104.5 -32.5t-103.5 -41v106q61 28 117 46.5t108.5 30.5t106.5 16.5t112 4.5h536v-105h-261q24 -14 43.5 -37 t33.5 -52.5t22 -63.5t8 -72l3 -826h-112v605q-89 -16 -172 -38t-156 -51t-134.5 -63t-105 -72.5t-68 -79.5t-24.5 -81q0 -14 1.5 -30t8 -31.5t18 -29.5t32.5 -24t52.5 -12.5t76.5 1.5q11 1 26 3q13 2 39 7v-93q-40 -15 -76 -20t-67 -5q-59 0 -101.5 18t-70 49t-41.5 70 t-14 81z" />
<glyph unicode="&#xe2b;" horiz-adv-x="1372" d="M238 0v1156h112v-996q10 16 21 35l22 33q10 18 24 38l634 890h129l-276 -389q121 -19 175 -112q55 -92 55 -260v-395h-111v395q0 80 -14 132.5t-38.5 83t-58 44.5t-73.5 20l-479 -675h-122z" />
<glyph unicode="&#xe2c;" horiz-adv-x="1671" d="M123 1156h121l218 -771q7 -25 14.5 -59.5t13.5 -65.5q8 -36 17 -75q11 36 21 73q8 30 18.5 62.5t19.5 57.5l243 627h67l244 -627q8 -24 18 -57t18 -63q12 -37 23 -73q8 39 15 75q7 31 15 66q6 35 15 59l119 413q19 70 3 120.5t-55 82.5t-98 47q-59 16 -126 13 q-7 0 -19 -0.5t-27 -2.5v96q18 1 34.5 1h33.5h465v-94h-197q26 -8 45.5 -27t32.5 -43t20 -51t9 -53.5t0 -51t-8 -43.5l-227 -792h-81l-279 739q-5 13 -9 32q-6 19 -9 35q-4 20 -8 44q-6 -24 -9 -44q-2 -16 -8 -34.5t-10 -32.5l-278 -739h-82z" />
<glyph unicode="&#xe2d;" horiz-adv-x="1339" d="M230 1005v101q85 28 182.5 47t204.5 19q101 0 180 -22t139.5 -61t102.5 -95t68.5 -122t39 -143t12.5 -158q0 -123 -35 -230t-102 -186t-167 -124t-231 -45q-106 0 -207 28t-186 84v497h279v-105h-167v-330q17 -10 45.5 -22t66.5 -22.5t81.5 -18t90.5 -7.5q105 0 184 37.5 t131 102.5t79 152q26 86 26 184q0 44 -7 100t-25 111t-49 107.5t-78.5 92t-113.5 65.5q-68 25 -158 25q-59 0 -110.5 -5t-98 -12.5t-90.5 -19.5q-44 -11 -87 -25z" />
<glyph unicode="&#xe2e;" horiz-adv-x="1332" d="M230 988v104q85 28 182.5 46t204.5 18h583v-106h-256q12 -7 29.5 -20.5t36 -30t36.5 -37.5t31 -41q44 -73 63 -162.5t19 -191.5q0 -122 -35 -227.5t-102 -184.5t-167 -124t-231 -45q-106 0 -207 28t-186 84v497h279v-105h-167v-330q17 -10 45.5 -22t66.5 -22.5t81.5 -18 t90.5 -7.5q105 0 184 38.5t131 103.5t78.5 150.5t26.5 180.5q0 45 -7 98.5t-25 108.5t-49 105t-78.5 89.5t-113.5 62.5q-68 23 -158 23q-59 0 -110.5 -4t-98 -12.5t-90.5 -20t-87 -25.5z" />
<glyph unicode="&#xe2f;" horiz-adv-x="1363" d="M148 832q0 74 23.5 136t66 107t102 70t132.5 25h29.5t37.5 -2v-104q-10 1 -22.5 2t-20.5 1q-54 0 -97 -15.5t-74 -45t-48 -73t-17 -96.5q0 -28 7 -60t22 -65.5t41 -64t66.5 -53.5t95.5 -37t130 -14q84 0 149.5 19.5t114.5 48.5t80.5 60.5t47.5 55.5v429h112v-1156h-112 v608q-55 -56 -114 -90t-112.5 -51.5t-97 -23.5t-68.5 -6q-115 0 -203.5 29.5t-148.5 82.5t-91 125q-31 71 -31 158z" />
<glyph unicode="&#xe30;" horiz-adv-x="726" d="M134 171v246h112v-140h409v-106h-521zM134 825v245h112v-139h409v-106h-521z" />
<glyph unicode="&#xe31;" d="M-812 1422v275h112v-168h626v-107h-738z" />
<glyph unicode="&#xe32;" horiz-adv-x="868" d="M70 997v96q71 40 146 58.5t154 18.5q61 0 109.5 -14t82 -44.5t51 -75.5t17.5 -106v-930h-112v874q0 63 -11 101.5t-30 58.5t-46.5 26.5t-60.5 6.5q-14 0 -43.5 -1.5t-69 -9t-87.5 -21.5q-47 -16 -100 -38z" />
<glyph unicode="&#xe33;" horiz-adv-x="868" d="M-507 1529q0 43 17 81.5t45 66.5t67 45t81 17q44 0 82.5 -17t67 -45t44.5 -66.5t16 -81.5q0 -44 -16 -82.5t-44.5 -66.5t-66.5 -44.5t-83 -16.5q-43 0 -81.5 16.5t-66.5 44.5t-45 66.5t-17 82.5zM-406 1529q0 -23 9 -42.5t24 -35t34.5 -23.5t41.5 -8q23 0 43 8t35 23.5 t23 35t8 42.5q0 22 -8 41.5t-23 35t-35 24t-43 8.5q-22 0 -41.5 -8.5t-34.5 -24t-24 -35t-9 -41.5zM70 997v96q71 40 146 58.5t154 18.5q61 0 109.5 -14t82 -44.5t51 -75.5t17.5 -106v-930h-112v874q0 63 -11 101.5t-30 58.5t-46.5 26.5t-60.5 6.5q-14 0 -43.5 -1.5t-69 -9 t-87.5 -21.5q-47 -16 -100 -38z" />
<glyph unicode="&#xe34;" d="M-1166 1422v107h928v-107h-928z" />
<glyph unicode="&#xe35;" d="M-1165 1424v106h815v209h112v-315h-927z" />
<glyph unicode="&#xe36;" d="M-1166 1424v106h623q-25 44 -25 94q0 42 16 78.5t43 63.5t63.5 43.5t78.5 16.5t78.5 -16.5t63 -43.5t42.5 -63.5t16 -78.5t-16 -78.5t-42.5 -63t-63 -42.5t-78.5 -16h-799zM-470 1624q0 -22 7.5 -40.5t22 -32.5t33 -22.5t40.5 -8.5q23 0 41 8.5t32 22.5t22.5 32.5 t8.5 40.5t-8.5 40.5t-22.5 33t-32 22.5t-41 8q-22 0 -40.5 -8t-33 -22.5t-22 -33t-7.5 -40.5z" />
<glyph unicode="&#xe37;" d="M-1165 1424v106h549v209h112v-209h154v209h112v-315h-927z" />
<glyph unicode="&#xe38;" d="M-496 -143h258v-333h-106v235h-152v98z" />
<glyph unicode="&#xe39;" d="M-764 -143h200v-168q0 -18 8.5 -32t23 -23t35.5 -13.5t46 -4.5q48 0 77.5 18.5t29.5 54.5v168h105v-147q0 -18 -2.5 -39t-8.5 -40.5t-19.5 -39t-37 -34.5t-59.5 -24q-34 -9 -84.5 -9t-87 9t-60.5 24t-38.5 34.5t-22 39t-9 40.5t-1.5 39v51h-95v96z" />
<glyph unicode="&#xe3a;" d="M-395 -225q0 21 8 39t21 32t31.5 21.5t39.5 7.5t39 -7.5t32 -21.5t21.5 -32t7.5 -39q0 -20 -7.5 -39t-21.5 -32t-32 -21t-39 -8q-20 0 -39 8t-32 21t-21 32t-8 39z" />
<glyph unicode="&#xe3d;" />
<glyph unicode="&#xe3e;" />
<glyph unicode="&#xe3f;" horiz-adv-x="1400" d="M280 0v1372h322v146h87v-146h33q96 0 166 -25t117.5 -70t70.5 -107.5t23 -136.5q0 -32 -7.5 -73.5t-31.5 -82.5t-65.5 -78t-108.5 -60v-1q90 -14 148 -50.5t93 -86t49 -108.5t14 -115q0 -42 -8.5 -85.5t-28 -85.5t-50.5 -79.5t-77 -65.5t-107.5 -45t-140.5 -17h-89v-224 h-87v224h-322zM382 106h220v569h-220v-569zM382 781h220v486h-220v-486zM689 106h61q75 0 127.5 13.5t88.5 36t58.5 52t34 61t14 63.5t2.5 60q0 64 -23.5 116t-69 90t-111 57.5t-146.5 19.5h-36v-569zM689 781h15q55 0 97 11.5t74 31t54.5 45.5t36 54.5t19.5 56.5t6 53 q0 42 -12.5 84t-44 75.5t-85.5 54t-136 20.5h-24v-486z" />
<glyph unicode="&#xe40;" horiz-adv-x="621" d="M255 0v1156h112v-1156h-112z" />
<glyph unicode="&#xe41;" horiz-adv-x="1064" d="M255 0v1156h112v-1156h-112zM697 0v1156h112v-1156h-112z" />
<glyph unicode="&#xe42;" horiz-adv-x="688" d="M25 1508q3 63 31 112.5t71.5 84t96.5 52.5t109 18q84 0 154 -22.5t128 -55.5l-27 -90q-45 20 -76.5 32.5t-57.5 19.5t-51 10t-59 3q-16 0 -43 -4.5t-55 -17.5t-51 -37q-24 -23 -35 -62q67 -39 111.5 -88t71.5 -110t38 -136t11 -167v-946h162v-104h-274v1050q0 80 -10 141 t-28 107.5t-42.5 79.5t-53 57.5t-59.5 41.5t-62 31z" />
<glyph unicode="&#xe43;" horiz-adv-x="688" d="M43 1568q12 55 40.5 94.5t67.5 65t84 36.5t88 11q61 0 111 -16.5t87.5 -49t60.5 -79.5q23 -48 28 -107q-35 -19 -63.5 -39.5t-53.5 -46.5t-43.5 -61t-31 -81t-19.5 -106.5t-7 -138.5v-946h162v-104h-274v1050q0 97 12.5 173t38 136.5t64.5 107t92 84.5q-11 56 -53 88.5 t-116 32.5q-10 0 -32.5 -3t-48.5 -14t-49 -31t-33 -56h-112z" />
<glyph unicode="&#xe44;" horiz-adv-x="688" d="M-6 1683l31 91q39 -17 77 -27t73 -14.5t63 -6t45 -1.5t45 1.5t63.5 7t78 16.5t87.5 28l65 -134q-55 -42 -100.5 -92t-76.5 -120q-17 -36 -26.5 -76t-15 -85t-8.5 -96.5t-3 -113.5v-957h162v-104h-274v1022q0 73 3 135t9 116t18 100.5t33 88.5q11 25 25 47.5t31.5 44.5 t40 45.5t51.5 49.5l-4 6q-31 -13 -64.5 -20.5t-62 -11t-50.5 -4.5t-29 -1q-16 0 -47.5 1.5t-71 7t-83.5 19.5q-43 14 -85 37z" />
<glyph unicode="&#xe45;" horiz-adv-x="868" d="M69 997v96q71 40 146.5 58.5t152.5 18.5q62 0 110 -14t82 -44.5t52 -75.5t17 -106v-1353h-112v1297q0 63 -10.5 101.5t-30.5 58.5t-47 26.5t-61 6.5q-14 0 -42.5 -1.5t-68.5 -9t-88 -21.5q-49 -16 -100 -38z" />
<glyph unicode="&#xe46;" horiz-adv-x="1260" d="M211 531v625h91l315 -243l314 243h91v-1248q0 -65 -16 -116t-45 -91t-69.5 -69.5t-87.5 -52.5l-48 99q50 25 81 50.5t48.5 53.5t24 58.5t4.5 65.5v1113q-4 -5 -9.5 -11t-12.5 -11.5t-16 -12.5l-260 -200l-259 199q-8 7 -16 13t-12 12t-10 11v-487z" />
<glyph unicode="&#xe47;" d="M-1100 1613q0 59 20 99.5t57 65.5t89 36.5t115 11.5h545v-104h-544q-30 0 -60.5 -2t-55 -12.5t-39 -33t-14.5 -61.5q0 -34 15.5 -56.5t38 -34t47 -16t43.5 -4.5q45 0 74.5 10.5t47.5 26t26 35t12 39.5h87q4 -20 11 -39.5t23 -35t44 -26t73 -10.5q17 0 39 2t46 9t46 21 q23 14 40 34v-120q-12 -10 -30 -18t-39.5 -13.5t-47.5 -9.5t-51 -4q-17 0 -42.5 1.5t-52.5 9.5t-54.5 26.5t-48.5 50.5q-21 -31 -47.5 -49t-55 -27t-54.5 -10.5t-46 -1.5q-70 0 -119 16.5t-79.5 46t-44.5 67.5t-14 80z" />
<glyph unicode="&#xe48;" d="M-353 1907v273h112v-273h-112z" />
<glyph unicode="&#xe49;" d="M-602 2170v84q13 3 22.5 3.5t18.5 1.5t21 2t29 1q32 0 56.5 -8t40.5 -25t24.5 -41t8.5 -49q0 -10 -1.5 -24.5t-8.5 -32t-18.5 -35t-32.5 -31.5q42 -7 78 -9t67 -2q27 0 56.5 3.5t58.5 9.5t58 15.5t54 20.5v-91q-20 -14 -51.5 -24t-68.5 -17t-77.5 -11t-78.5 -4 q-59 0 -120 8q-60 9 -114 24v74q42 17 67.5 43.5t25.5 57.5q0 20 -5.5 32.5t-18.5 19.5t-35 7t-56 -3z" />
<glyph unicode="&#xe4a;" d="M-708 2065q0 34 12.5 64.5t35 53t53 36t67.5 13.5q28 0 47.5 -7t33.5 -15.5t22.5 -19t12.5 -17.5q3 7 12 17.5t22 19t33 15.5t46 7q37 0 67.5 -9.5t51.5 -27t33 -42.5t12 -59q0 -28 -10.5 -56.5t-39.5 -50.5q25 2 51 10t49.5 16.5t42.5 18t32 16.5v-84 q-68 -36 -129.5 -48t-120.5 -12h-16.5t-24 0.5t-23 1.5t-15.5 2v74q18 0 37 6t33.5 17t24.5 28t10 39q0 18 -6.5 31.5t-16.5 22.5t-21.5 13t-23.5 4q-16 0 -29.5 -6t-22.5 -16t-14.5 -22.5t-7.5 -26.5h-74q-1 14 -6 26.5t-15 22.5t-22.5 16t-29.5 6q-11 0 -23.5 -4.5 t-23 -14.5t-17 -25.5t-6.5 -37.5q0 -28 10.5 -44t26.5 -24t34.5 -8.5t35.5 3.5v-80q-12 -3 -26 -3.5t-23 -0.5q-51 0 -82.5 17t-48 42t-23.5 52.5t-7 49.5z" />
<glyph unicode="&#xe4b;" d="M-511 2044v101h167v137h103v-137h165v-101h-165v-137h-103v137h-167z" />
<glyph unicode="&#xe4c;" d="M-463 1887q0 39 14.5 71.5t38.5 57.5t56.5 43.5t69 29.5t74.5 17q36 5 73 5v-84q-39 0 -77 -8.5t-68 -25t-48 -41.5q-20 -26 -20 -61q0 -29 11 -47t28 -27.5t36.5 -13t36.5 -3.5v-89q-109 0 -167 45q-58 47 -58 131z" />
<glyph unicode="&#xe4d;" d="M-507 1529q0 43 17 81.5t45 66.5t67 45t81 17q44 0 82.5 -17t67 -45t44.5 -66.5t16 -81.5q0 -44 -16 -82.5t-44.5 -66.5t-66.5 -44.5t-83 -16.5q-43 0 -81.5 16.5t-66.5 44.5t-45 66.5t-17 82.5zM-406 1529q0 -23 9 -42.5t24 -35t34.5 -23.5t41.5 -8q23 0 43 8t35 23.5 t23 35t8 42.5q0 22 -8 41.5t-23 35t-35 24t-43 8.5q-22 0 -41.5 -8.5t-34.5 -24t-24 -35t-9 -41.5z" />
<glyph unicode="&#xe4e;" d="M-532 1593q0 62 32 105q32 41 83 69q-45 45 -45 120q0 39 14 71.5t39 57.5t57.5 43.5t69 29.5t74 16.5t74.5 5.5v-84q-40 0 -79 -8.5t-70.5 -24.5t-51.5 -42q-21 -26 -21 -65q0 -42 17 -64.5t44 -26.5v-77q-56 -7 -90 -40t-34 -80q0 -30 11.5 -48t28 -27t35.5 -12.5 t36 -3.5v-91q-109 0 -166.5 46t-57.5 130z" />
<glyph unicode="&#xe4f;" horiz-adv-x="1346" d="M77 571q0 83 21.5 159t60 142.5t93.5 121.5t121.5 93.5t142 60t159.5 21.5q82 0 158.5 -21.5t142.5 -60t120.5 -93.5t93.5 -121.5t60 -142t21 -159.5q0 -82 -21 -158.5t-60 -142.5t-93.5 -120.5t-120.5 -93.5t-143 -60t-158 -21q-83 0 -159 21t-142.5 60t-121.5 93.5 t-93.5 120.5t-60 142.5t-21.5 158.5zM186 571q0 -67 17.5 -129.5t49 -116t76.5 -98.5t99 -76.5t116 -49t129 -17.5q68 0 130 17.5t116 49t99 76.5t76.5 98.5t49 116t17.5 129.5t-17.5 129.5t-49 116.5t-76.5 98.5t-99 76t-116 49t-130 17.5q-67 0 -129 -17.5t-116 -49 t-99 -76t-76.5 -98.5t-49 -116.5t-17.5 -129.5zM400 571q0 56 22 106.5t59 87.5t87 59q51 22 107 22t105.5 -22t86.5 -59t58 -87q21 -51 21 -107t-21 -105.5t-58 -86.5t-86.5 -58t-105.5 -21t-106.5 21t-87.5 58t-59 86.5t-22 105.5zM507 571q0 -35 13 -65t35.5 -52.5 t52.5 -35.5t67 -13q33 0 64 13t53.5 35.5t35.5 53.5t13 64.5t-13 65t-35.5 54t-53.5 35.5t-64 13q-35 0 -66 -13t-53.5 -35.5t-35.5 -54t-13 -65.5z" />
<glyph unicode="&#xe50;" horiz-adv-x="1615" d="M216 512q0 83 22 154.5t63 131t95.5 105.5t121 77t141.5 47.5t153 16.5q77 0 150.5 -16.5t139.5 -47.5t120.5 -77t94.5 -105.5t62 -131.5t22 -154q0 -114 -45.5 -212t-125 -168t-188.5 -110q-107 -39 -236 -39q-84 0 -161 17.5t-142.5 50.5t-118 80.5t-90.5 106.5 t-58 127.5t-20 146.5zM328 512q0 -78 21 -141t57 -110.5t84 -81t101 -54.5t109 -31t109 -10t108.5 10t108.5 31t101.5 54.5t83.5 81t56 110.5t21 141q0 70 -19 130.5t-52.5 108t-79.5 84t-100 60t-113 35.5t-117.5 12t-117 -12t-111.5 -35.5t-98.5 -60t-79 -84t-53 -108 t-19.5 -130.5z" />
<glyph unicode="&#xe51;" horiz-adv-x="1615" d="M232 66v102q112 -36 224 -58t231 -22q110 0 196 22t149.5 57t107.5 82.5t72 98.5t40 103.5t12 100t-10.5 95t-35 91t-63 81.5t-92.5 66t-126 44t-161 16q-48 0 -100 -6.5t-100 -16t-89.5 -21t-66.5 -20.5v-257h143v-102h-255v436q106 37 231 61.5t262 27.5q145 3 253 -35 t179.5 -105.5t107 -161t35.5 -205.5q0 -114 -47.5 -215t-135.5 -176.5t-212 -119t-278 -43.5q-58 0 -120 6.5t-123.5 17t-119 25.5t-108.5 31z" />
<glyph unicode="&#xe52;" horiz-adv-x="1615" d="M196 386v931h112v-900q0 -67 24 -119t64.5 -89t93 -61.5t108.5 -39t111 -21t103 -6.5t102.5 6.5t110.5 21t106.5 39t90 61.5t62.5 89q24 52 24 119v479l-388 -307l-405 304v143l409 -305l364 294h132v-639q0 -74 -26 -132t-71.5 -103.5t-106 -77.5t-127.5 -52.5 t-138.5 -30.5t-138.5 -10t-140 10t-141.5 30.5t-128.5 52.5t-106.5 77.5t-73 104.5t-26.5 131z" />
<glyph unicode="&#xe53;" horiz-adv-x="1615" d="M235 213v812h104l470 -342l471 342h100v-1025h-110v882l-461 -344l-462 344v-664q0 -42 19 -65.5t47.5 -35.5t63.5 -15.5t66 -3.5v-101h-15q-52 0 -104 7t-94 29.5t-68.5 66t-26.5 113.5z" />
<glyph unicode="&#xe54;" horiz-adv-x="1615" d="M193 514q0 112 47.5 209t136 167t214.5 110t284 40q69 0 137.5 -5t132 -13t122.5 -21q57 -13 108 -27v-105q-114 34 -228 51.5t-237 17.5q-118 0 -207.5 -19t-156.5 -52t-113.5 -75.5t-74.5 -89.5t-39.5 -96t-11.5 -94q0 -86 35 -162.5t108.5 -134.5t188 -92.5 t274.5 -34.5q-35 13 -70 35.5t-64 53t-46.5 71t-17.5 91.5q0 56 19 98t51.5 70t75.5 40.5t94 12.5h19.5t22.5 -1.5l22 -3t23 -3.5v-89q-20 3 -38 5t-35 2q-25 0 -50.5 -5.5t-45 -21t-33 -42t-13.5 -65.5q0 -45 20.5 -81.5t55.5 -65.5t82.5 -53t103.5 -44q79 6 147.5 17 t141.5 25v-92q-33 -8 -74 -15t-86 -14t-94 -11.5t-98 -7t-95 -4t-88 -1.5q-160 3 -281 45t-203 113t-124 165t-42 202z" />
<glyph unicode="&#xe55;" horiz-adv-x="1615" d="M202 514q2 101 45 189.5t118.5 157.5t182 113.5t237.5 58.5q-25 17 -41 50q-16 31 -16 67.5t15.5 70t40.5 57.5t60 38t74 14q42 0 78 -14.5t60.5 -39t38.5 -55.5t14 -63q0 -45 -15.5 -76.5t-43.5 -48.5q43 -4 88.5 -10.5t89 -14t83 -16.5t72.5 -18v-105 q-113 34 -227 51.5t-238 17.5q-117 0 -207.5 -19t-157 -52t-112.5 -75.5t-74 -89.5t-40.5 -96t-12.5 -94q0 -86 35 -162.5t110.5 -134.5t191.5 -93t280 -35q-35 12 -72 34.5t-67 54t-50 72t-20 91.5q0 56 19 98t52 70t76.5 40.5t93.5 12.5h19.5t22 -1.5l23 -3t21.5 -3.5v-89 q-20 3 -37.5 5t-35.5 2q-25 0 -49.5 -5.5t-45 -21t-33.5 -41.5q-14 -27 -14 -66q0 -45 20.5 -81.5t55.5 -65.5t83.5 -53t104.5 -44q78 6 146.5 17t140.5 25v-92q-33 -8 -73.5 -15t-86 -14t-94.5 -11.5t-97 -7t-95 -4t-88 -1.5q-159 3 -281 45t-203 113t-123 165t-42 202z M829 1140q0 -19 7 -35t19.5 -28.5t28.5 -19.5t34 -7q19 0 35 7t28.5 19.5t19.5 29.5t7 34q0 18 -7 34.5t-19.5 28.5t-28.5 19t-35 7q-18 0 -34 -7t-28.5 -19t-19.5 -28.5t-7 -34.5z" />
<glyph unicode="&#xe56;" horiz-adv-x="1615" d="M305 70v112q84 -45 179.5 -71.5t209.5 -26.5q62 0 125 12.5t122.5 38t112 61.5t91 85t61 109.5t22.5 131.5q0 95 -31 173t-96 132.5t-168 85.5t-246 31q-44 0 -91 -6t-95.5 -14t-98 -18t-97.5 -21v432h112v-315q80 19 166 30.5t172 11.5q138 0 247.5 -37t183.5 -104 t114 -161.5t40 -208.5q0 -78 -19 -148.5t-57 -131t-92.5 -109.5t-126.5 -84.5t-160 -55.5q-87 -19 -191 -21q-71 0 -132 8t-110 20.5t-85.5 28.5t-61.5 30z" />
<glyph unicode="&#xe57;" horiz-adv-x="1614" d="M106 0v1025h118l350 -342l353 342h115v-924q109 0 179 16.5t109 47.5t54.5 75t15.5 100v976h109v-976q0 -67 -16.5 -118t-46 -89t-69 -63t-82.5 -40.5t-90 -22.5q-46 -7 -91 -7h-182v876l-358 -340l-357 340v-876h-111z" />
<glyph unicode="&#xe58;" horiz-adv-x="1615" d="M227 479q0 117 40 220t121.5 178.5t205 119t291.5 43.5q73 0 146.5 -5.5t141 -14.5t128 -21.5t105.5 -26.5v-107q-52 14 -115 26.5t-132.5 23t-140 17t-136.5 6.5q-106 0 -187.5 -20.5t-141.5 -54.5t-100.5 -79.5t-66 -96t-36 -103.5t-10.5 -101q0 -22 1.5 -49.5 t6.5 -59.5t16 -66t29.5 -68t45.5 -67t66 -61l315 276l317 -277q81 33 116 83t35 122q0 93 -32 143.5t-100 51.5v97h8h6q52 0 93.5 -20.5t71 -58.5t44.5 -93t15 -125q0 -45 -14 -95.5t-46 -96.5t-85 -82.5t-132 -53.5l-297 272l-296 -269q-86 38 -142.5 92t-91.5 118t-49 136 q-14 71 -14 147z" />
<glyph unicode="&#xe59;" horiz-adv-x="1615" d="M154 529q0 121 29.5 214.5t87 158t144 98t201.5 33.5h47.5t43 -1.5t41.5 -3.5q22 -3 44 -5l149 -287q-2 62 11.5 108t34.5 80t46 55t49 32q37 19 82.5 25t88.5 3.5t80 -10.5q36 -7 56 -18v-100q-31 10 -63 20t-67 13.5t-69.5 -2t-68.5 -26.5q-25 -17 -44.5 -43.5 t-33 -67.5t-19 -97t-3.5 -126l306 -582h-117l-485 924q-26 3 -54 5.5t-55 2.5q-92 0 -158 -28t-108 -80.5t-63 -127t-21 -167.5q0 -59 7 -116t22.5 -109t40.5 -95.5t63 -71.5q34 -25 73 -36t76 -12.5t70.5 3.5t59.5 12v-101q-23 -6 -53.5 -10t-64.5 -4t-67.5 4t-62.5 11 q-59 17 -110 58.5t-87.5 107t-57.5 156.5t-21 203z" />
<glyph unicode="&#xe5a;" horiz-adv-x="1705" d="M148 832q0 74 23.5 136t66 107t102 70t132.5 25h29.5t37.5 -2v-104q-10 1 -22.5 2t-20.5 1q-54 0 -97 -15.5t-74 -45t-48 -73t-17 -96.5q0 -28 7 -60t22 -65.5t41 -64t66.5 -53.5t95.5 -37t130 -14q84 0 149.5 19.5t114.5 48.5t80.5 60.5t47.5 55.5v429h112v-1156h-112 v608q-55 -56 -114 -90t-112.5 -51.5t-97 -23.5t-68.5 -6q-115 0 -203.5 29.5t-148.5 82.5t-91 125q-31 71 -31 158zM1355 0v1156h112v-1156h-112z" />
<glyph unicode="&#xe5b;" horiz-adv-x="2315" d="M169 535q0 106 29 197t85 159.5t138 107.5q83 38 187 38q96 0 164 -27t110.5 -72t63 -102.5t20.5 -118.5q0 -73 -20.5 -124t-53 -86t-76.5 -55q-43 -18 -91 -26v116q23 0 45 10.5t41 31.5t31 54.5t12 78.5q0 40 -17 79.5t-47.5 70t-74.5 49.5t-102 19q-64 0 -123.5 -23.5 t-106 -71.5t-74.5 -121q-28 -75 -28 -173q0 -62 15 -119t43 -107.5t67 -92.5t88 -73t106.5 -47.5t121.5 -16.5q104 0 192 42t154 119.5t102.5 187.5t36.5 247q0 36 -1 74t-3 77h99q31 -38 54 -68.5t44.5 -62t44 -65t49.5 -77.5q39 73 74 134.5t64 112.5q37 -51 74.5 -107.5 t74.5 -114.5q26 34 52 64t40 46q6 5 8.5 8.5t8.5 6.5t14 4.5t22 1.5h275v-101h-247q-11 0 -18 -3t-18 -14q-8 -8 -25 -28.5t-36 -46.5t-39 -53t-37 -53q-42 68 -76.5 120.5t-66.5 94.5q-34 -58 -70 -123t-74 -141q-23 45 -48.5 88.5t-51.5 83.5t-50.5 75.5t-42.5 62.5 q2 -63 -4 -122.5t-17 -107.5q-13 -53 -36 -107t-58 -105.5t-80 -98t-103 -80t-128 -53.5q-69 -19 -153 -19q-95 0 -173.5 22.5t-140 63t-106 93.5t-74 114.5t-44.5 126t-15 126.5z" />
<glyph unicode="&#xe74;" />
<glyph unicode="&#x2000;" horiz-adv-x="1141" />
<glyph unicode="&#x2001;" horiz-adv-x="2282" />
<glyph unicode="&#x2002;" horiz-adv-x="1141" />
<glyph unicode="&#x2003;" horiz-adv-x="2282" />
<glyph unicode="&#x2004;" horiz-adv-x="760" />
<glyph unicode="&#x2005;" horiz-adv-x="570" />
<glyph unicode="&#x2006;" horiz-adv-x="380" />
<glyph unicode="&#x2007;" horiz-adv-x="380" />
<glyph unicode="&#x2008;" horiz-adv-x="285" />
<glyph unicode="&#x2009;" horiz-adv-x="456" />
<glyph unicode="&#x200a;" horiz-adv-x="126" />
<glyph unicode="&#x200b;" />
<glyph unicode="&#x2010;" horiz-adv-x="882" d="M129 666v115h626v-115h-626z" />
<glyph unicode="&#x2011;" horiz-adv-x="882" d="M129 666v115h626v-115h-626z" />
<glyph unicode="&#x2012;" horiz-adv-x="882" d="M129 666v115h626v-115h-626z" />
<glyph unicode="&#x2013;" horiz-adv-x="1057" d="M-14 666v115h1085v-115h-1085z" />
<glyph unicode="&#x2014;" horiz-adv-x="2115" d="M-14 666v115h2143v-115h-2143z" />
<glyph unicode="&#x2018;" horiz-adv-x="572" d="M179 1201q0 51 15.5 93.5t42 75.5t61.5 56q35 22 76 33v-46q-42 -17 -60.5 -43t-18.5 -53q0 -19 5 -36.5t14 -30.5q15 -4 29.5 -12.5t26 -19.5t17.5 -26.5t6 -35.5q0 -22 -7.5 -41t-21.5 -32t-32 -20t-38 -7q-25 0 -46 11t-36.5 30t-24 46t-8.5 58z" />
<glyph unicode="&#x2019;" horiz-adv-x="572" d="M179 1359q0 23 8.5 42t22.5 31.5t31.5 19.5t37.5 7q25 0 46.5 -10.5t36.5 -30t23 -46.5t8 -59q0 -50 -14.5 -92t-41 -75.5t-61.5 -56t-77 -33.5v47q42 17 60 43q18 27 18 52q0 20 -4 38t-14 30q-15 4 -29 11.5t-25.5 19t-18.5 27.5t-7 35z" />
<glyph unicode="&#x201c;" horiz-adv-x="1078" d="M255 1201q0 51 15.5 93.5t42 75.5t61.5 56q35 22 75 33v-46q-42 -17 -60 -43t-18 -53q0 -19 5 -36.5t13 -30.5q16 -4 30.5 -12.5t25.5 -19.5t17.5 -26.5t6.5 -35.5q0 -22 -7.5 -41t-21.5 -32t-32.5 -20t-37.5 -7q-26 0 -47 11t-36 30t-23.5 46t-8.5 58zM609 1201 q0 51 14.5 93.5t41.5 75.5t62 56q35 22 77 33v-46q-42 -17 -60.5 -43t-18.5 -53q0 -19 4.5 -36.5t13.5 -30.5q16 -4 30 -12.5t25 -19.5t18 -26.5t7 -35.5q0 -22 -8.5 -41t-22.5 -32t-31.5 -20t-36.5 -7q-25 0 -47 11t-36.5 30t-23 46t-8.5 58z" />
<glyph unicode="&#x201d;" horiz-adv-x="1078" d="M255 1359q0 23 8.5 42t22.5 31.5t31.5 19.5t36.5 7q25 0 47 -10.5t36.5 -30t23 -46.5t8.5 -59q0 -50 -14.5 -92t-41.5 -75.5t-62 -56t-77 -33.5v47q42 17 61 43q18 27 18 52q0 20 -4 38q-5 18 -14 30q-16 4 -30 11.5t-25 19t-18 27.5t-7 35zM609 1359q0 23 7.5 42 t21.5 31.5t32.5 19.5t37.5 7q26 0 47 -10.5t36 -30t23.5 -46.5t8.5 -59q0 -50 -15.5 -92t-42 -75.5t-61.5 -56t-75 -33.5v47q42 17 60 43q18 27 18 52q0 20 -5 38t-13 30q-16 4 -30.5 11.5t-25.5 19t-17.5 27.5t-6.5 35z" />
<glyph unicode="&#x2022;" horiz-adv-x="985" d="M249 624q0 51 19.5 95t52 77t77 52.5t95.5 19.5q50 0 95 -19.5t77 -52.5t51.5 -77t19.5 -95q0 -50 -19.5 -95t-51.5 -77.5t-77 -51.5t-95 -19q-51 0 -95.5 19t-77 51.5t-52 77.5t-19.5 95z" />
<glyph unicode="&#x202f;" horiz-adv-x="456" />
<glyph unicode="&#x205f;" horiz-adv-x="570" />
<glyph unicode="&#x20ac;" horiz-adv-x="1247" d="M73 521l24 99h161q-2 20 -2 41q-1 22 -1 42q0 45 3 92h-185l24 101h176q14 67 37 134.5t58 129.5t81.5 116t107 94.5t135.5 63t166 22.5q83 0 151.5 -10t127.5 -38l-25 -100q-55 21 -111.5 30t-126.5 9q-104 0 -184.5 -35t-138.5 -96.5t-96 -143.5t-56 -176h643l-26 -101 h-630q-5 -47 -5 -94q0 -21 1.5 -40.5t2.5 -40.5h657l-26 -99h-617q20 -97 59.5 -177.5t97 -138t130.5 -89.5t157 -32q56 0 91.5 4t64.5 12.5t57 20t67 27.5v-100q-24 -14 -50 -26t-61 -22t-79.5 -16t-106.5 -6q-81 0 -149.5 21t-126 58.5t-103 88.5t-80 111.5t-58 127 t-37.5 136.5h-199z" />
<glyph unicode="&#x2122;" horiz-adv-x="1941" d="M193 1411v90h636v-90h-261v-708h-109v708h-266zM980 703v798h190l191 -646h7l192 646h190v-798h-108v718h-11l-223 -718h-89l-221 718h-12v-718h-106z" />
<glyph unicode="&#x25cc;" horiz-adv-x="1349" d="M328 578l91 44q-5 -23 -5 -49q0 -21 5 -41zM426 330l33 96q25 -40 62 -65zM438 823l91 -31q-39 -25 -64 -61zM627 832l46 89l44 -87q-21 3 -41 2q-24 1 -49 -4zM633 315q19 -4 43 -4q20 0 38 4l-41 -85zM826 792l98 31l-34 -95q-25 36 -64 64zM829 356q33 22 56 56 l25 -82zM937 535q2 18 2 38q0 22 -2 43l82 -43z" />
<glyph unicode="&#x25fc;" horiz-adv-x="1059" d="M0 0v1061h1061v-1061h-1061z" />
<glyph unicode="&#xf700;" horiz-adv-x="1146" d="M139 946v110q103 47 206 73.5t215 26.5h17h481v-106h-232q17 -17 32.5 -36t26.5 -47t17 -67q5 -38 5 -94v-806h-112v364q-14 59 -46 99.5t-72.5 64.5t-86 35t-87.5 8q-9 0 -18 -0.5t-18 -2t-17 -2.5q-8 -3 -10 -3l-28 103q8 5 22 8.5t28.5 4.5t28 2.5t19.5 1.5h25 t40.5 -4t51.5 -12t57 -24t57.5 -39.5t53.5 -60.5v227q0 39 -1.5 75.5t-8.5 68t-22 56.5t-41 42.5t-66 27.5t-96 10q-36 0 -83 -4t-101 -15.5t-114 -31.5t-123 -53z" />
<glyph unicode="&#xf701;" d="M-1352 1422v107h810v-107h-810z" />
<glyph unicode="&#xf702;" d="M-1352 1424v106h698v209h112v-315h-810z" />
<glyph unicode="&#xf703;" d="M-1352 1422v107h504q-26 45 -26 95q0 42 16.5 78.5t43.5 63t63.5 42.5t78.5 16t78.5 -16t63 -42.5t42.5 -63t16 -78.5t-16 -78.5t-42.5 -63.5t-63 -43.5t-78.5 -16.5h-680zM-776 1624q0 -22 8 -41t22.5 -33t33 -22t40.5 -8t40.5 8t32.5 22t22.5 33t8.5 41t-8.5 40.5 t-22.5 32.5t-32.5 22.5t-40.5 8.5t-40.5 -8.5t-33 -22.5t-22.5 -32.5t-8 -40.5z" />
<glyph unicode="&#xf704;" d="M-1352 1424v106h448v209h112v-209h140v209h112v-315h-812z" />
<glyph unicode="&#xf705;" d="M-655 1424v320h112v-320h-112z" />
<glyph unicode="&#xf706;" d="M-1044 1700v89q12 3 22 3.5t20.5 1.5t22.5 2q13 2 30 2q33 1 58.5 -8t43.5 -27.5t27 -42.5q8 -23 8 -51q0 -10 -2 -26t-9 -34.5t-20.5 -36.5t-34.5 -33q45 -9 83 -10.5t71 -1.5q28 0 59.5 3.5t62.5 10.5t60 17q30 10 56 21v-95q-21 -14 -54 -25t-71.5 -19.5t-81.5 -12 t-83 -3.5q-61 0 -127 7.5t-119 24.5v81q45 17 71 45q24 28 24 59q0 19 -5 33t-18 21t-36 9q-22 1 -58 -4z" />
<glyph unicode="&#xf707;" d="M-1232 1602q0 37 14 70t38 58.5t58 39.5t75 14q29 0 51 -7t37 -17.5t24.5 -21t13.5 -19.5q4 7 13 18.5t24.5 22t36.5 17.5t52 7q40 0 73 -10t56 -29t36 -46t13 -64q0 -17 -2.5 -32t-8.5 -30.5t-16.5 -30.5t-27.5 -27q28 4 55.5 11.5t52 16t44.5 18.5t34 18v-95 q-66 -35 -134.5 -47t-132.5 -12h-18.5h-26t-25 1.5t-18.5 1.5v83q19 0 40 6t37 18.5t27.5 31t11.5 43.5q0 20 -7 34.5t-18.5 23.5t-24 13.5t-26.5 4.5q-18 0 -32 -6t-24.5 -17t-16 -25t-7.5 -28h-82q-2 14 -7.5 28t-16 25t-24.5 17t-32 6q-13 0 -27 -4.5t-25 -15.5t-18 -28 t-7 -42q0 -31 12 -48.5t29.5 -26t38.5 -9t38 3.5v-88q-13 -3 -27.5 -3h-27.5q-55 0 -88.5 18.5t-53 45t-26.5 57t-7 56.5z" />
<glyph unicode="&#xf708;" d="M-963 1574v100h182v152h112v-152h183v-100h-183v-150h-112v150h-182z" />
<glyph unicode="&#xf709;" d="M-750 1600q0 41 14 74t39 58.5t58 44.5t69.5 31t73.5 18q37 7 73 7v-93q-35 2 -72 -5t-68 -24t-51 -43q-22 -27 -22 -61q0 -29 11.5 -46.5t28 -27.5t36.5 -12.5t36 -2.5v-94q-109 0 -167.5 45.5t-58.5 130.5z" />
<glyph unicode="&#xf70a;" d="M-350 1424v320h112v-320h-112z" />
<glyph unicode="&#xf70b;" d="M-647 1700v89q13 3 23.5 3.5t20 1.5t22.5 2.5t29 1.5q34 1 60 -8t43.5 -27.5t25.5 -42.5q9 -23 9 -51q0 -10 -1.5 -26t-8.5 -34.5t-20 -36.5q-12 -18 -35 -33q45 -9 83 -10.5t71 -1.5q28 0 59 3.5t61.5 10.5t60.5 17q29 10 57 21v-95q-21 -14 -54 -25t-72 -19.5 t-81.5 -12t-83.5 -3.5q-62 0 -127 7.5t-119 24.5v81q44 17 71 45t25 59q0 19 -5 33t-19 21t-36 8.5t-59 -3.5z" />
<glyph unicode="&#xf70c;" d="M-913 1602q0 37 13.5 70t38 58.5t58 39.5t75.5 14q29 0 51 -7t37.5 -17.5t23.5 -21t14 -19.5q4 7 13 18.5t24 22t36.5 17.5t51.5 7q40 0 73 -10t56 -29t35.5 -46t12.5 -64q0 -17 -1 -32t-8 -30.5t-17.5 -30.5t-27.5 -27q28 4 56.5 11.5t54 17.5t46.5 20t35 18v-92 q-37 -20 -72 -32.5t-68.5 -19.5t-67 -10t-65.5 -3h-18h-26t-26 2q-13 1 -19 1v83q20 0 41 6t38 18.5t27.5 31t10.5 43.5q0 20 -6.5 34.5t-17.5 23.5t-24.5 13.5t-26.5 4.5q-18 0 -32.5 -6t-24.5 -17t-15.5 -25t-8.5 -28h-81q-1 14 -7.5 28t-16.5 25t-24 17t-33 6 q-13 0 -26 -4.5t-24.5 -15.5t-18.5 -28t-7 -42q0 -31 11.5 -48.5t29.5 -26t38.5 -9t38.5 3.5v-88q-13 -3 -28 -3h-28q-55 0 -88.5 18.5t-52.5 45t-26 57t-7 56.5z" />
<glyph unicode="&#xf70d;" d="M-535 1574v100h182v152h112v-152h185v-100h-185v-150h-112v150h-182z" />
<glyph unicode="&#xf70e;" d="M-465 1600q0 41 14 74t39.5 58.5t58 44.5t69 31t74.5 18q36 7 73 7v-93q-35 2 -72 -5t-68 -24t-51 -43q-22 -27 -22 -61q0 -29 11 -46.5t28 -27.5t36.5 -12.5t36.5 -2.5v-94q-109 0 -168 45.5t-59 130.5z" />
<glyph unicode="&#xf70f;" horiz-adv-x="1993" d="M238 0v776q0 84 18 145.5t49 105t73 71.5t89.5 44.5t100 22t104.5 5.5t104.5 -5.5t100.5 -22t90 -44.5t73 -73t48.5 -106.5t17.5 -145.5v-398q0 -33 3 -67t11 -66t25.5 -60t47 -49t73.5 -33t109 -12q61 0 106 12t74.5 33t47 49t26.5 60t12 66t3 67v781h112v-803 q-2 -87 -24.5 -155t-68.5 -115t-118 -72t-173 -25t-171.5 25t-116 72t-68 115t-22.5 153v402q0 79 -18 132t-49 88t-67.5 53t-72 28t-66.5 11.5t-48 1.5q-11 0 -31 -1.5t-45.5 -5t-53.5 -11t-54.5 -23t-51.5 -38t-45 -54.5t-31 -77t-11 -104v-649h176v-104h-288z" />
<glyph unicode="&#xf710;" d="M-812 1422v275h112v-168h626v-107h-738z" />
<glyph unicode="&#xf711;" d="M-944 1529q0 43 17 81.5t45 66.5t67 45t81 17q44 0 82.5 -17t67 -45t44.5 -66.5t16 -81.5q0 -44 -16 -82.5t-44.5 -66.5t-66.5 -44.5t-83 -16.5q-43 0 -81.5 16.5t-66.5 44.5t-45 66.5t-17 82.5zM-843 1529q0 -23 9 -42.5t24 -35t34.5 -23.5t41.5 -8q23 0 43 8t35 23.5 t23.5 35t8.5 42.5q0 22 -8.5 41.5t-23.5 35t-35 24t-43 8.5q-22 0 -41.5 -8.5t-34.5 -24t-24 -35t-9 -41.5z" />
<glyph unicode="&#xf712;" d="M-1273 1613q0 57 20.5 97t54 66t77.5 38t93 12h545v-104h-515q-31 0 -59.5 -3t-51 -14t-36.5 -33.5t-14 -58.5q0 -35 14.5 -57t36.5 -34.5t47 -16.5t45 -4q42 0 67.5 11t40.5 28t22 36.5t10 36.5h86q3 -17 10 -36.5t22.5 -36.5t42 -28t70.5 -11q16 0 37 1.5t43 7t43 16.5 t39 28v-109q-34 -23 -76.5 -32t-81.5 -10q-20 0 -44.5 1.5t-50.5 9.5t-51 26.5t-47 50.5q-21 -31 -47 -49t-52 -27t-50 -10.5t-40 -1.5q-68 0 -114.5 16.5t-77 46t-44.5 67.5t-14 80z" />
<glyph unicode="&#xf713;" d="M-652 1907v273h112v-273h-112z" />
<glyph unicode="&#xf714;" d="M-818 2170v84q13 3 22 3.5t19 1.5t21 2t28 1q32 0 56.5 -8t41.5 -25t25.5 -41t8.5 -49q0 -10 -2.5 -24.5t-8.5 -32t-18.5 -35t-32.5 -31.5q42 -7 78.5 -9t67.5 -2q26 0 55 3.5t58 9.5t58 15.5t54 20.5v-91q-20 -14 -51.5 -24t-67.5 -17t-77 -11t-80 -4q-59 0 -120.5 8.5 t-113.5 23.5v74q42 17 68 43.5t25 57.5q0 20 -5 32.5t-17.5 19.5t-35 7t-56.5 -3z" />
<glyph unicode="&#xf715;" d="M-986 2065q0 34 13 64.5t35 53t53 36t67 13.5q28 0 48 -7t34 -15.5t22 -19t13 -17.5q2 7 11.5 17.5t22.5 19t32.5 15.5t46.5 7q36 0 67 -9.5t52 -27t33 -42.5t12 -59q0 -28 -10.5 -56.5t-40.5 -50.5q26 2 51.5 10t49.5 16.5t43 18t31 16.5v-84q-67 -36 -128.5 -48 t-120.5 -12h-16.5t-24 0.5t-23 1.5t-16.5 2v74q19 0 37.5 6t33.5 17t24.5 28t9.5 39q0 18 -6 31.5t-16 22.5t-22 13t-23 4q-17 0 -30 -6t-22 -16t-15 -22.5t-7 -26.5h-74q-2 14 -6.5 26.5t-14.5 22.5t-22.5 16t-29.5 6q-11 0 -23.5 -4.5t-23 -14.5t-17 -25.5t-6.5 -37.5 q0 -28 10.5 -44t26.5 -24t34.5 -8.5t34.5 3.5v-80q-11 -3 -25 -3.5t-24 -0.5q-50 0 -81.5 17t-48.5 42t-24 52.5t-7 49.5z" />
<glyph unicode="&#xf716;" d="M-812 2044v101h165v137h107v-137h165v-101h-165v-137h-107v137h-165z" />
<glyph unicode="&#xf717;" d="M-792 1887q0 39 14 71.5t38.5 57.5t57 43.5t69 29.5t74.5 16.5t73 5.5v-84q-39 0 -77.5 -8.5t-68 -25t-48 -42t-19.5 -60.5q0 -29 10.5 -47t27.5 -27.5t36.5 -13t36.5 -3.5v-89q-110 0 -167 45q-57 47 -57 131z" />
<glyph unicode="&#xf718;" d="M-496 -459h258v-333h-106v235h-152v98z" />
<glyph unicode="&#xf719;" d="M-764 -458h200v-169q0 -18 8.5 -31.5t23 -23.5t35.5 -14t46 -4q48 0 77.5 18t29.5 55v169h105v-147q0 -18 -2.5 -39t-8.5 -41.5t-19.5 -40t-37 -33.5t-59.5 -23q-34 -9 -84.5 -9t-87 9t-60.5 23t-38.5 33.5t-22 40t-9 41t-1.5 39.5v51h-95v96z" />
<glyph unicode="&#xf71a;" d="M-395 -540q0 21 7 39t21 31.5t32.5 21.5t37.5 8q21 0 40 -8t32.5 -21.5t21 -31.5t7.5 -39q0 -20 -7.5 -38t-21 -32t-31.5 -22t-41 -8q-19 0 -37.5 8t-32.5 22t-21 32t-7 38z" />
<glyph unicode="&#xf71d;" horiz-adv-x="1475" d="M123 1156h121l169 -938l287 558h52l287 -558l108 581q14 70 -3.5 121.5t-55.5 83.5t-94 46t-123 11h-19t-27 -1v94q18 1 34.5 1.5t33.5 0.5h465v-95h-192q38 -19 59 -53t31 -72.5t10 -77t-6 -66.5l-151 -792h-76l-308 610l-305 -610h-76z" />
<glyph d="M-745 1593q0 62 32 105q33 41 83 69q-45 45 -45 120q0 39 14 71.5t39.5 57.5t57.5 43.5t68.5 29.5t74 16.5t74.5 5.5v-84q-39 0 -78.5 -8.5t-71 -24.5t-50.5 -42q-21 -26 -21 -65q0 -42 16.5 -64.5t43.5 -26.5v-77q-56 -7 -89.5 -40t-33.5 -80q0 -30 11 -48t28 -27 t35.5 -12.5t35.5 -3.5v-91q-109 0 -166.5 46t-57.5 130z" />
<glyph horiz-adv-x="868" d="M-944 1529q0 43 17 81.5t45 66.5t67 45t81 17q44 0 82.5 -17t67 -45t44.5 -66.5t16 -81.5q0 -44 -16 -82.5t-44.5 -66.5t-66.5 -44.5t-83 -16.5q-43 0 -81.5 16.5t-66.5 44.5t-45 66.5t-17 82.5zM-843 1529q0 -23 9 -42.5t24 -35t34.5 -23.5t41.5 -8q23 0 43 8t35 23.5 t23.5 35t8.5 42.5q0 22 -8.5 41.5t-23.5 35t-35 24t-43 8.5q-22 0 -41.5 -8.5t-34.5 -24t-24 -35t-9 -41.5zM70 997v96q71 40 146 58.5t154 18.5q61 0 109.5 -14t82 -44.5t51 -75.5t17.5 -106v-930h-112v874q0 63 -11 101.5t-30 58.5t-46.5 26.5t-60.5 6.5q-14 0 -43.5 -1.5 t-69 -9t-87.5 -21.5q-47 -16 -100 -38z" />
<glyph horiz-adv-x="868" d="M-944 1529q0 43 17 81.5t45 66.5t67 45t81 17q44 0 82.5 -17t67 -45t44.5 -66.5t16 -81.5q0 -44 -16 -82.5t-44.5 -66.5t-66.5 -44.5t-83 -16.5q-43 0 -81.5 16.5t-66.5 44.5t-45 66.5t-17 82.5zM-843 1529q0 -23 9 -42.5t24 -35t34.5 -23.5t41.5 -8q23 0 43 8t35 23.5 t23.5 35t8.5 42.5q0 22 -8.5 41.5t-23.5 35t-35 24t-43 8.5q-22 0 -41.5 -8.5t-34.5 -24t-24 -35t-9 -41.5zM70 997v96q71 40 146 58.5t154 18.5q61 0 109.5 -14t82 -44.5t51 -75.5t17.5 -106v-930h-112v874q0 63 -11 101.5t-30 58.5t-46.5 26.5t-60.5 6.5q-14 0 -43.5 -1.5 t-69 -9t-87.5 -21.5q-47 -16 -100 -38z" />
<glyph horiz-adv-x="1208" d="M122 574q0 143 37 253.5t103 185.5t154 113.5t189 38.5t189 -38.5t154 -113.5t103 -185.5t37 -253.5q0 -126 -32.5 -234.5t-94 -187.5t-151.5 -124.5t-205 -45.5q-77 0 -142 20t-119 58t-95.5 91t-69.5 119t-42.5 143t-14.5 161zM237 577q0 -118 28 -209.5t77.5 -155.5 t116.5 -97.5t146 -33.5q78 0 146.5 33.5t117.5 97.5t77 155.5t28 209.5q0 95 -23.5 182.5t-70 155.5t-115.5 109q-71 41 -160 41q-90 0 -158.5 -41t-115.5 -109t-70.5 -155.5t-23.5 -182.5z" />
<glyph horiz-adv-x="648" d="M270 0v1145h108v-1145h-108z" />
<glyph horiz-adv-x="1206" d="M197 0l2 48q45 36 84 68t78 67t84 74.5t100 91.5q71 65 132.5 124t106.5 115t70 113q25 58 25 119q0 66 -24.5 111.5t-67 75t-100 43t-124.5 13.5q-38 0 -80.5 -7t-86 -21t-86.5 -36t-80 -50v109q50 31 95 50.5t88 32.5t85 17t89 4q86 0 160.5 -19.5t128.5 -61.5t83 -108 t29 -158q0 -73 -23.5 -136.5t-65.5 -123t-97 -115.5q-54 -54 -119 -110q-87 -77 -148.5 -132t-103.5 -93h605v-105h-839z" />
<glyph horiz-adv-x="1118" d="M182 -148q64 -45 141 -69t174 -24q78 0 142 24.5t109.5 67.5t70 99t24.5 117q0 74 -29.5 133t-81.5 99.5t-122 62.5t-149 22v98q44 0 87.5 11t82 32t70 50.5t54.5 64.5t36 75.5t13 82.5q0 50 -14 98t-46.5 84t-87 59.5t-135.5 23.5q-42 0 -77 -3.5t-68.5 -12t-70 -22.5 t-85.5 -35v99q28 14 63.5 28t76 24t87 15.5t96.5 5.5q104 0 175.5 -31t114.5 -82.5t63 -117.5t20 -133q0 -39 -8.5 -86.5t-34 -95.5t-73 -92.5t-125.5 -78.5v-3q52 -14 93 -37.5t72 -53.5t52.5 -65t35 -71.5t20.5 -73.5t7 -71q0 -90 -30 -167t-88.5 -133t-142.5 -88 q-86 -32 -196 -32q-37 0 -79 5.5t-84 16t-82 26.5q-39 16 -71 36v118z" />
<glyph horiz-adv-x="1233" d="M134 29v125l779 991h39v-1016h160v-100h-160v-375h-106v375h-712zM249 129h597v761z" />
<glyph horiz-adv-x="1132" d="M249 -202q39 -14 71.5 -22t64.5 -14t64.5 -8t72.5 -2q39 0 81 9t83 27.5t78 46.5t64 65.5t43.5 87.5t16.5 110q0 42 -5 84t-20.5 80.5t-43.5 73t-73.5 59.5t-111.5 39t-157 14q-44 0 -79 -4q-34 -2 -70 -7v708h603v-106h-501v-496q31 3 72 4.5t86 -1.5q76 -6 136 -25.5 t105.5 -50t77.5 -72t52.5 -89t29.5 -100.5q9 -52 9 -108q0 -65 -16 -123t-45.5 -107.5t-71.5 -90t-93.5 -70t-113.5 -45t-132 -15.5q-72 0 -146 11q-72 11 -131 34v103z" />
<glyph horiz-adv-x="1195" d="M154 427q0 84 17 157t45 142t68.5 137.5t85.5 144.5l308 482h127l-447 -702q23 20 52.5 34.5t63 25t68.5 16t68 5.5q98 0 178 -33.5t136.5 -93t87 -140t30.5 -175.5q0 -90 -33 -170.5t-92 -140.5t-140 -95q-83 -35 -178 -35t-176 35t-141.5 95t-94 140.5t-33.5 170.5z M263 426q0 -69 25.5 -131.5t70 -108.5t106 -74t134.5 -28t133 27.5t105 73.5t70 108.5t25 132.5q0 72 -23.5 135t-67 109.5t-106.5 72.5t-144 26q-67 0 -126 -25.5t-104 -71t-71.5 -108.5t-26.5 -138z" />
<glyph horiz-adv-x="1079" d="M139 1040v105h828l-662 -1491h-126l623 1385z" />
<glyph horiz-adv-x="1197" d="M154 393q0 55 15.5 115t49.5 115t91 97.5t139 63.5q-50 15 -87 39t-65 52.5t-46.5 61t-29.5 66t-15 67t-4 64.5q0 76 29 143t82.5 119t126 82.5t159.5 30.5t159 -30.5t124.5 -82.5t83.5 -119t31 -143q0 -31 -5 -64.5t-15.5 -67t-28.5 -66t-46 -61t-66 -52.5t-88 -39 q82 -21 139 -63.5t92 -97.5t50 -115t15 -115q0 -81 -30.5 -153.5t-87.5 -128t-139.5 -88.5t-187.5 -33t-187.5 33t-140 88.5t-87.5 128t-30 153.5zM265 399q0 -78 30 -136.5t78 -97t107.5 -58t118.5 -19.5t118.5 19.5t108 58t78.5 97.5t30 136q0 50 -13.5 94.5t-37 80 t-56.5 63.5t-70 47t-78 28.5t-80 9.5q-60 0 -119.5 -21.5t-107 -63t-77.5 -101.5t-30 -137zM314 1121q0 -64 23.5 -118t63 -91.5t91 -58.5t107.5 -21t108 21t91 58.5t63 91.5t24 118q0 66 -24 120t-63 92t-91 58t-108 20t-107.5 -20t-91.5 -58t-63 -92t-23 -120z" />
<glyph horiz-adv-x="1250" d="M175 715q0 90 33 170.5t91.5 140.5t140 95t177.5 35q65 0 122.5 -15t107 -44.5t89.5 -70t68.5 -89.5t44 -106t15.5 -116q0 -84 -17 -156.5t-45.5 -142t-68.5 -138t-86 -144.5l-307 -481h-128l448 701q-23 -19 -53 -34t-63.5 -25.5t-68.5 -16t-67 -5.5q-98 0 -178 33.5 t-137.5 93t-87.5 140t-30 175.5zM286 717q0 -76 23.5 -139t67 -108.5t106.5 -71.5t143 -26q67 0 126.5 25.5t104.5 71.5t71.5 109t26.5 139q0 67 -25.5 130t-70 109t-106 74t-134.5 28t-134 -27t-105 -73.5t-69 -108.5t-25 -132z" />
<glyph d="M-1008 1422v107h769v-107h-769z" />
<glyph d="M-1008 1424v106h658v209h112v-315h-770z" />
<glyph d="M-1005 1422v107h462q-25 45 -25 95q0 42 16 78.5t43 63t63.5 42.5t78.5 16t78.5 -16t63 -42.5t42.5 -63t16 -78.5t-16 -78.5t-42.5 -63.5t-63 -43.5t-78.5 -16.5h-638zM-470 1624q0 -22 7.5 -41t22 -33t33 -22t40.5 -8q23 0 41 8t32 22t22.5 33t8.5 41t-8.5 40.5 t-22.5 32.5t-32 22.5t-41 8.5q-22 0 -40.5 -8.5t-33 -22.5t-22 -32.5t-7.5 -40.5z" />
<glyph d="M-1009 1424v106h407v209h112v-209h139v209h112v-315h-770z" />
<glyph d="M-1000 1613q0 57 20 97t52.5 66t76.5 38q45 12 92 12h532v-104h-504q-29 0 -58 -3t-51 -14t-35.5 -33.5t-13.5 -58.5q0 -35 14.5 -57t35.5 -34.5t45.5 -16.5t44.5 -4q42 0 67 11t40 28t21 36q5 20 8 37h87q2 -17 9 -36.5t22.5 -36.5t41.5 -28t68 -11q17 0 37 1.5t41 7 t42 16.5t38 28v-109q-33 -23 -74 -32t-80 -10q-19 0 -43 1.5t-50 9.5t-50.5 26.5t-45.5 50.5q-19 -31 -45 -49t-51.5 -27t-49 -10.5t-40.5 -1.5q-64 0 -110.5 16.5t-76 46t-43.5 67.5t-14 80z" />
<glyph d="M-353 1823v322h112v-322h-112z" />
<glyph d="M-602 2086v84q13 3 22.5 3.5t18.5 1.5t21 2t29 1q32 0 56.5 -8t40.5 -25t24.5 -41t8.5 -49q0 -10 -1.5 -24.5t-8.5 -32t-18.5 -35t-32.5 -31.5q42 -7 78 -9t67 -2q27 0 56.5 3.5t58.5 9.5t58 15.5t54 20.5v-91q-20 -14 -51.5 -24t-68.5 -17t-77.5 -11t-78.5 -4 q-59 0 -120 8q-60 9 -114 24v74q42 17 67.5 43.5t25.5 57.5q0 20 -5.5 32.5t-18.5 19.5t-35 7t-56 -3z" />
<glyph d="M-708 1981q0 34 12.5 64.5t35 53t53 36t67.5 13.5q28 0 47.5 -7t33.5 -15.5t22.5 -19t12.5 -17.5q3 7 12 17.5t22 19t33 15.5t46 7q37 0 67.5 -9.5t51.5 -27t33 -42.5t12 -59q0 -28 -10.5 -56.5t-39.5 -50.5q25 2 51 10t49.5 16.5t42.5 18t32 16.5v-84 q-68 -36 -129.5 -48t-120.5 -12h-16.5t-24 0.5t-23 1.5t-15.5 2v74q18 0 37 6t33.5 17t24.5 28t10 39q0 18 -6.5 31.5t-16.5 22.5t-21.5 13t-23.5 4q-16 0 -29.5 -6t-22.5 -16t-14.5 -22.5t-7.5 -26.5h-74q-1 14 -6 26.5t-15 22.5t-22.5 16t-29.5 6q-11 0 -23.5 -4.5 t-23 -14.5t-17 -25.5t-6.5 -37.5q0 -28 10.5 -44t26.5 -24t34.5 -8.5t35.5 3.5v-80q-12 -3 -26 -3.5t-23 -0.5q-51 0 -82.5 17t-48 42t-23.5 52.5t-7 49.5z" />
<glyph d="M-511 1960v101h167v137h103v-137h165v-101h-165v-137h-103v137h-167z" />
<glyph d="M-652 1823v322h112v-322h-112z" />
<glyph d="M-818 2086v84q13 3 22 3.5t19 1.5t21 2t28 1q32 0 56.5 -8t41.5 -25t25.5 -41t8.5 -49q0 -10 -2.5 -24.5t-8.5 -32t-18.5 -35t-32.5 -31.5q42 -7 78.5 -9t67.5 -2q26 0 55 3.5t58 9.5t58 15.5t54 20.5v-91q-20 -14 -51.5 -24t-67.5 -17t-77 -11t-80 -4q-59 0 -120.5 8.5 t-113.5 23.5v74q42 17 68 43.5t25 57.5q0 20 -5 32.5t-17.5 19.5t-35 7t-56.5 -3z" />
<glyph d="M-986 1981q0 34 13 64.5t35 53t53 36t67 13.5q28 0 48 -7t34 -15.5t22 -19t13 -17.5q2 7 11.5 17.5t22.5 19t32.5 15.5t46.5 7q36 0 67 -9.5t52 -27t33 -42.5t12 -59q0 -28 -10.5 -56.5t-40.5 -50.5q26 2 51.5 10t49.5 16.5t43 18t31 16.5v-84q-67 -36 -128.5 -48 t-120.5 -12h-16.5t-24 0.5t-23 1.5t-16.5 2v74q19 0 37.5 6t33.5 17t24.5 28t9.5 39q0 18 -6 31.5t-16 22.5t-22 13t-23 4q-17 0 -30 -6t-22 -16t-15 -22.5t-7 -26.5h-74q-2 14 -6.5 26.5t-14.5 22.5t-22.5 16t-29.5 6q-11 0 -23.5 -4.5t-23 -14.5t-17 -25.5t-6.5 -37.5 q0 -28 10.5 -44t26.5 -24t34.5 -8.5t34.5 3.5v-80q-11 -3 -25 -3.5t-24 -0.5q-50 0 -81.5 17t-48.5 42t-24 52.5t-7 49.5z" />
<glyph d="M-812 1960v101h165v137h107v-137h165v-101h-165v-137h-107v137h-165z" />
<glyph d="M-787 1907v273h112v-273h-112z" />
<glyph d="M-945 2044v101h167v137h103v-137h165v-101h-165v-137h-103v137h-167z" />
<glyph d="M-1516 1422v107h1278v-107h-1278z" />
<glyph d="M-1515 1424v106h1165v209h112v-315h-1277z" />
<glyph d="M-1516 1424v106h973q-25 44 -25 94q0 42 16 78.5t43 63.5t63.5 43.5t78.5 16.5t78.5 -16.5t63 -43.5t42.5 -63.5t16 -78.5t-16 -78.5t-42.5 -63t-63 -42.5t-78.5 -16h-1149zM-470 1624q0 -22 7.5 -40.5t22 -32.5t33 -22.5t40.5 -8.5q23 0 41 8.5t32 22.5t22.5 32.5 t8.5 40.5t-8.5 40.5t-22.5 33t-32 22.5t-41 8q-22 0 -40.5 -8t-33 -22.5t-22 -33t-7.5 -40.5z" />
<glyph d="M-1515 1424v106h899v209h112v-209h154v209h112v-315h-1277z" />
<glyph d="M-1310 1613q0 59 20 99.5t57 65.5t89 36.5t115 11.5h545v-104h-544q-30 0 -60.5 -2t-55 -12.5t-39 -33t-14.5 -61.5q0 -34 15.5 -56.5t38 -34t47 -16t43.5 -4.5q45 0 74.5 10.5t47.5 26t26 35t12 39.5h87q4 -20 11 -39.5t23 -35t44 -26t73 -10.5q17 0 39 2t46 9t46 21 q23 14 40 34v-120q-12 -10 -30 -18t-39.5 -13.5t-47.5 -9.5t-51 -4q-17 0 -42.5 1.5t-52.5 9.5t-54.5 26.5t-48.5 50.5q-21 -31 -47.5 -49t-55 -27t-54.5 -10.5t-46 -1.5q-70 0 -119 16.5t-79.5 46t-44.5 67.5t-14 80z" />
<glyph d="M-1232 1422v275h112v-168h696v-107h-808z" />
<glyph d="M-1492 1422v107h1020v-107h-1020z" />
<glyph d="M-1492 1424v106h908v209h112v-315h-1020z" />
<glyph d="M-1492 1422v107h714q-26 45 -26 95q0 42 16.5 78.5t43.5 63t63.5 42.5t78.5 16t78.5 -16t63 -42.5t42.5 -63t16 -78.5t-16 -78.5t-42.5 -63.5t-63 -43.5t-78.5 -16.5h-890zM-706 1624q0 -22 8 -41t22.5 -33t33 -22t40.5 -8t40.5 8t32.5 22t22.5 33t8.5 41t-8.5 40.5 t-22.5 32.5t-32.5 22.5t-40.5 8.5t-40.5 -8.5t-33 -22.5t-22.5 -32.5t-8 -40.5z" />
<glyph d="M-1492 1424v106h658v209h112v-209h140v209h112v-315h-1022z" />
<glyph d="M-582 1907v273h112v-273h-112z" />
<glyph d="M-748 2170v84q13 3 22 3.5t19 1.5t21 2t28 1q32 0 56.5 -8t41.5 -25t25.5 -41t8.5 -49q0 -10 -2.5 -24.5t-8.5 -32t-18.5 -35t-32.5 -31.5q42 -7 78.5 -9t67.5 -2q26 0 55 3.5t58 9.5t58 15.5t54 20.5v-91q-20 -14 -51.5 -24t-67.5 -17t-77 -11t-80 -4q-59 0 -120.5 8.5 t-113.5 23.5v74q42 17 68 43.5t25 57.5q0 20 -5 32.5t-17.5 19.5t-35 7t-56.5 -3z" />
<glyph d="M-916 2065q0 34 13 64.5t35 53t53 36t67 13.5q28 0 48 -7t34 -15.5t22 -19t13 -17.5q2 7 11.5 17.5t22.5 19t32.5 15.5t46.5 7q36 0 67 -9.5t52 -27t33 -42.5t12 -59q0 -28 -10.5 -56.5t-40.5 -50.5q26 2 51.5 10t49.5 16.5t43 18t31 16.5v-84q-67 -36 -128.5 -48 t-120.5 -12h-16.5t-24 0.5t-23 1.5t-16.5 2v74q19 0 37.5 6t33.5 17t24.5 28t9.5 39q0 18 -6 31.5t-16 22.5t-22 13t-23 4q-17 0 -30 -6t-22 -16t-15 -22.5t-7 -26.5h-74q-2 14 -6.5 26.5t-14.5 22.5t-22.5 16t-29.5 6q-11 0 -23.5 -4.5t-23 -14.5t-17 -25.5t-6.5 -37.5 q0 -28 10.5 -44t26.5 -24t34.5 -8.5t34.5 3.5v-80q-11 -3 -25 -3.5t-24 -0.5q-50 0 -81.5 17t-48.5 42t-24 52.5t-7 49.5z" />
<glyph d="M-742 2044v101h165v137h107v-137h165v-101h-165v-137h-107v137h-165z" />
<glyph d="M-588 2065q0 34 12 64.5t34.5 53t52.5 35.5q33 14 69 14q28 0 47.5 -7t33.5 -15.5t22 -19t12 -17.5q3 7 11 17.5t22 19t34 15.5t46 7q37 0 67.5 -9.5t52.5 -27t33 -42.5t11 -59q0 -28 -10 -56.5t-40 -50.5q25 2 51 10t49 16.5t42.5 18t32.5 16.5v-84q-68 -36 -129 -48 q-63 -12 -122 -12h-16.5t-22 0.5t-23 1.5t-16.5 2v74q18 0 37 6t34 17t24.5 28t9.5 39q0 18 -6.5 31.5t-16.5 22.5t-22 13q-13 4 -24 4q-17 0 -29.5 -6t-21.5 -16t-14.5 -22.5t-7.5 -26.5h-74q-1 14 -7 26.5t-15 22.5t-22 16t-30 6q-11 0 -24 -4.5t-22.5 -14.5t-16 -25.5 t-6.5 -37.5q0 -28 10.5 -44t26 -24t35 -8.5t36.5 3.5v-80q-11 -3 -26 -3.5t-24 -0.5q-51 0 -81.5 17t-49 42t-24 52.5t-5.5 49.5z" />
<glyph d="M-886 1424v105h648v-105h-648z" />
<glyph d="M-885 1424v106h535v209h112v-315h-647z" />
<glyph d="M-886 1424v106h343q-25 44 -25 94q0 42 16 78.5t43 63.5t63.5 43.5t78.5 16.5t78.5 -16.5t63 -43.5t42.5 -63.5t16 -78.5t-16 -78.5t-42.5 -63t-63 -42.5t-78.5 -16h-519zM-470 1624q0 -22 7.5 -40.5t22 -32.5t33 -22.5t40.5 -8.5q23 0 41 8.5t32 22.5t22.5 32.5 t8.5 40.5t-8.5 40.5t-22.5 33t-32 22.5t-41 8q-22 0 -40.5 -8t-33 -22.5t-22 -33t-7.5 -40.5z" />
<glyph d="M-885 1424v106h269v209h112v-209h154v209h112v-315h-647z" />
<glyph d="M-918 1606q0 57 18 97.5t49 67.5t71.5 38t85.5 11h495v-104h-467q-28 0 -54 -2.5t-46.5 -14t-32.5 -33.5t-12 -60q0 -35 13.5 -56t32.5 -31t40.5 -13.5t41.5 -3.5q39 0 62 10.5t36.5 27.5t19 36.5t8.5 36.5h80q2 -17 8.5 -36.5t20.5 -36.5t38.5 -28t63.5 -11q16 0 34.5 2 t39 7.5t39.5 16.5q17 10 34 27v-109q-31 -23 -68.5 -32t-74.5 -10q-16 0 -39.5 1.5t-47 9.5t-46.5 26.5t-43 50.5q-20 -31 -42 -49t-46.5 -27t-46.5 -10.5t-36 -1.5q-61 0 -104.5 16t-71.5 43.5t-40.5 65t-12.5 78.5z" />
<glyph d="M-1078 1422v107h909v-107h-909z" />
<glyph d="M-1078 1424v106h798v209h112v-315h-910z" />
<glyph d="M-1075 1422v107h602q-25 45 -25 95q0 42 16 78.5t43 63t63.5 42.5t78.5 16t78.5 -16t63 -42.5t42.5 -63t16 -78.5t-16 -78.5t-42.5 -63.5t-63 -43.5t-78.5 -16.5h-778zM-400 1624q0 -22 7.5 -41t22 -33t33 -22t40.5 -8q23 0 41 8t32 22t22.5 33t8.5 41t-8.5 40.5 t-22.5 32.5t-32 22.5t-41 8.5q-22 0 -40.5 -8.5t-33 -22.5t-22 -32.5t-7.5 -40.5z" />
<glyph d="M-1079 1424v106h547v209h112v-209h139v209h112v-315h-910z" />
<glyph d="M-283 1907v273h112v-273h-112z" />
<glyph d="M-532 2170v84q13 3 22.5 3.5t18.5 1.5t21 2t29 1q32 0 56.5 -8t40.5 -25t24.5 -41t8.5 -49q0 -10 -1.5 -24.5t-8.5 -32t-18.5 -35t-32.5 -31.5q42 -7 78 -9t67 -2q27 0 56.5 3.5t58.5 9.5t58 15.5t54 20.5v-91q-20 -14 -51.5 -24t-68.5 -17t-77.5 -11t-78.5 -4 q-59 0 -120 8q-60 9 -114 24v74q42 17 67.5 43.5t25.5 57.5q0 20 -5.5 32.5t-18.5 19.5t-35 7t-56 -3z" />
<glyph d="M-638 2065q0 34 12.5 64.5t35 53t53 36t67.5 13.5q28 0 47.5 -7t33.5 -15.5t22.5 -19t12.5 -17.5q3 7 12 17.5t22 19t33 15.5t46 7q37 0 67.5 -9.5t51.5 -27t33 -42.5t12 -59q0 -28 -10.5 -56.5t-39.5 -50.5q25 2 51 10t49.5 16.5t42.5 18t32 16.5v-84 q-68 -36 -129.5 -48t-120.5 -12h-16.5t-24 0.5t-23 1.5t-15.5 2v74q18 0 37 6t33.5 17t24.5 28t10 39q0 18 -6.5 31.5t-16.5 22.5t-21.5 13t-23.5 4q-16 0 -29.5 -6t-22.5 -16t-14.5 -22.5t-7.5 -26.5h-74q-1 14 -6 26.5t-15 22.5t-22.5 16t-29.5 6q-11 0 -23.5 -4.5 t-23 -14.5t-17 -25.5t-6.5 -37.5q0 -28 10.5 -44t26.5 -24t34.5 -8.5t35.5 3.5v-80q-12 -3 -26 -3.5t-23 -0.5q-51 0 -82.5 17t-48 42t-23.5 52.5t-7 49.5z" />
<glyph d="M-441 2044v101h167v137h103v-137h165v-101h-165v-137h-103v137h-167z" />
<glyph d="M-776 -143h258v-333h-106v235h-152v98z" />
<glyph d="M-932 -143h200v-168q0 -18 8.5 -32t23 -23t35.5 -13.5t46 -4.5q48 0 77.5 18.5t29.5 54.5v168h105v-147q0 -18 -2.5 -39t-8.5 -40.5t-19.5 -39t-37 -34.5t-59.5 -24q-34 -9 -84.5 -9t-87 9t-60.5 24t-38.5 34.5t-22 39t-9 40.5t-1.5 39v51h-95v96z" />
<glyph d="M-731 -225q0 21 8 39t21 32t31.5 21.5t39.5 7.5t39 -7.5t32 -21.5t21.5 -32t7.5 -39q0 -20 -7.5 -39t-21.5 -32t-32 -21t-39 -8q-20 0 -39 8t-32 21t-21 32t-8 39z" />
<glyph d="M-706 -143h258v-333h-106v235h-152v98z" />
<glyph d="M-967 -143h200v-168q0 -18 8.5 -32t23.5 -23t36 -13q19 -5 44 -5q47 0 77.5 18.5t30.5 54.5v168h105v-147q0 -18 -1.5 -39t-8.5 -40.5t-21 -39t-38 -34.5t-59 -24t-85.5 -9t-86 9t-60 24t-38.5 34.5t-21 39t-9 40.5t-2 39v51h-95v96z" />
<glyph d="M-612 -225q0 21 8 39t22 32t32 21.5t38 7.5q21 0 39 -7.5t31.5 -21.5t21.5 -32t8 -39q0 -20 -8 -39t-21.5 -32t-31.5 -21t-39 -8q-20 0 -38 8t-32 21t-22 32t-8 39z" />
<glyph d="M-613 -143h255v-333h-104v235h-151v98z" />
<glyph d="M-883 -143h200v-168q0 -18 8.5 -32t23.5 -23t36 -13q19 -5 44 -5q47 0 77.5 18.5t30.5 54.5v168h105v-147q0 -18 -1.5 -39t-8.5 -40.5t-21 -39t-38 -34.5t-59 -24t-85.5 -9t-86 9t-60 24t-38.5 34.5t-21 39t-9 40.5t-2 39v51h-95v96z" />
<glyph d="M-528 -225q0 21 8 39t22 32t32 21.5t38 7.5q21 0 39 -7.5t31.5 -21.5t21.5 -32t8 -39q0 -20 -8 -39t-21.5 -32t-31.5 -21t-39 -8q-20 0 -38 8t-32 21t-22 32t-8 39z" />
</font>
</defs>
</svg>
