<?xml version="1.0" standalone="no"?>
<!DOCTYPE svg PUBLIC "-//W3C//DTD SVG 1.1//EN" "http://www.w3.org/Graphics/SVG/1.1/DTD/svg11.dtd" >
<svg xmlns="http://www.w3.org/2000/svg">
<metadata></metadata>
<defs>
<font id="db_helvethaica_x46_liit" horiz-adv-x="0" >
<font-face units-per-em="2048" ascent="1638" descent="-410" />
<missing-glyph horiz-adv-x="508" />
<glyph unicode="&#x2b;&#x2d;" horiz-adv-x="1224" d="M93 0l24 120h1039l-23 -120h-1040zM210 548l27 122h457l77 364h120l-78 -364h460l-26 -122h-462l-75 -366h-120l76 366h-456z" />
<glyph unicode="&#x2e;&#x2e;&#x2e;" horiz-adv-x="2042" d="M248 0l48 228h186l-48 -228h-186zM930 0l48 228h181l-46 -228h-183zM1609 0l47 228h187l-49 -228h-185z" />
<glyph unicode="&#x3c;&#x3d;" horiz-adv-x="1224" d="M91 20l23 117h1048l-23 -117h-1048zM245 748l24 122l1152 476l-28 -125l-987 -411l815 -413l-28 -123z" />
<glyph unicode="&#x3e;&#x3d;" horiz-adv-x="1227" d="M93 20l24 117h1048l-23 -117h-1049zM146 274l28 123l988 413l-815 411l27 125l947 -476l-23 -122z" />
<glyph unicode="&#xe4f;&#x22;" horiz-adv-x="1480" d="M211 444q-5 82 14 169q19 88 59 169.5t97 153t128 130t151 99.5t167 64.5t175 23.5q87 0 164.5 -23.5t139 -64.5t108 -99.5t73 -130t31.5 -153t-14 -169.5q-19 -87 -59 -169t-96.5 -153.5t-127.5 -130t-151 -100t-166 -64t-174 -22.5t-165 22.5t-140 64t-109 100t-73 130 t-32 153.5zM359.5 417q20.5 -91 73.5 -159t135.5 -107.5t187.5 -39.5q70 0 138 17.5t131 50.5t118.5 79t100 101.5t76.5 119.5t47 134q23 105 2.5 196.5t-74 159.5t-136.5 107q-82 39 -187 39q-70 0 -138.5 -17.5t-131.5 -50t-118 -78.5t-99 -101.5t-76 -120t-47 -134.5 q-23 -105 -2.5 -196zM505 613q16 73 58.5 139t101.5 114t130.5 77t146 29t133.5 -29t97 -77t52 -114t-1 -139q-10 -49 -32.5 -94.5t-54.5 -86.5t-71.5 -73t-84 -55.5t-93.5 -36.5t-99 -13q-73 0 -132.5 28.5t-97.5 77.5t-52.5 114t-0.5 139zM629.5 522q9.5 -43 34.5 -74.5 t63 -49.5t86 -18t95 18t85.5 49.5t65.5 74.5t39 91q10 48 0.5 90.5t-34 74t-62.5 50.5t-88 19q-48 0 -94 -19t-85.5 -50.5t-66.5 -74t-37 -90.5q-11 -48 -1.5 -91zM861 1441l41 302h135l-85 -302h-91zM1139 1441l39 302h137l-83 -302h-93z" />
<glyph unicode="&#xe0e;&#xe3a;" horiz-adv-x="1281" d="M57 57l20 109h130l104 488q6 32 11 65t0.5 62t-18 53t-44.5 42q32 70 86 138t131.5 121t179.5 85.5t228 32.5q105 0 181 -20t127 -55t80 -82.5t41 -105t7.5 -121t-17.5 -130.5l-215 -1016h-165q-13 29 -40 52.5t-64 41t-84.5 27.5t-101.5 10q-56 0 -113 -14.5t-108 -36.5 t-90.5 -48.5t-62.5 -50.5l32 147q16 12 53.5 31.5t87 38.5t108 33t116.5 14q61 0 109.5 -9.5t86.5 -25t66 -34.5q30 -19 50 -39l190 905q9 44 12 88.5t-5 84.5t-28 76t-56.5 61.5t-92 41.5t-131.5 16q-99 0 -175 -26.5t-130.5 -65.5t-89 -83t-51.5 -79q44 -29 54 -87.5 t-5 -140.5l-125 -594h-279zM818 -566.5q-5 21.5 1 46.5q4 25 19 47t35.5 38.5t43.5 27t50 10.5q24 0 44 -10.5t32.5 -27t17.5 -39t0 -46.5q-5 -25 -19 -46.5t-34.5 -38.5t-44 -25.5t-49.5 -8.5q-25 0 -44.5 8.5t-33 25.5t-18.5 38.5z" />
<glyph unicode="&#xe0f;&#xe3a;" horiz-adv-x="1281" d="M35 -286q19 61 51 108t72.5 79t87.5 49q49 18 99 18q33 0 64.5 -7.5t57.5 -25t46.5 -46.5t29.5 -71q29 43 61.5 73t66.5 46t67 23.5t61 7.5q61 0 102 -25q42 -25 68 -77l190 899q9 44 12 88.5t-5 84.5t-28 76t-56.5 61.5t-92 41.5t-131.5 16q-99 0 -175 -26.5 t-130.5 -65.5t-89 -83t-51.5 -79q44 -29 54 -87.5t-5 -140.5l-125 -594h-279l20 109h130l104 488q6 32 11 65t0.5 62t-18 53t-44.5 42q32 70 86 138t131.5 121t179.5 85.5t228 32.5q105 0 181 -20t127 -55t80 -82.5t41 -105t7.5 -121t-17.5 -130.5l-218 -1025h-156 q-6 29 -17 55.5t-28.5 45.5t-43.5 30.5t-67 11.5q-38 0 -67.5 -13t-52 -33.5t-39.5 -46.5q-16 -24 -25 -50h-139q-3 26 -8 51.5t-19 47t-36.5 34.5t-57.5 13q-29 0 -54 -13t-47 -33.5t-38 -47t-25 -52.5h-131zM818 -566.5q-5 21.5 1 46.5q4 25 19 47t35.5 38.5t43.5 27 t50 10.5q24 0 44 -10.5t32.5 -27t17.5 -39t0 -46.5q-5 -25 -19 -46.5t-34.5 -38.5t-44 -25.5t-49.5 -8.5q-25 0 -44.5 8.5t-33 25.5t-18.5 38.5z" />
<glyph unicode="&#xe0e;&#xe38;" horiz-adv-x="1281" d="M105 57l21 109h128l105 488q9 47 12 82.5t-2 62.5t-20.5 47t-40.5 33q29 70 83 137t131 119.5t174.5 85t214.5 32.5q99 0 171.5 -20t121.5 -55t76.5 -82.5t38 -105t6 -121t-17.5 -130.5l-215 -1016h-165q-13 29 -40 52.5t-64.5 41t-84.5 27.5t-101 10q-56 0 -113 -14.5 t-108 -36.5t-90.5 -48.5t-62.5 -50.5l33 147q15 12 52 31.5t87 38.5t108.5 33t116.5 14q61 0 109.5 -9.5t86.5 -25t66 -34.5q30 -19 50 -39l190 905q9 44 12 87.5t-5 84.5t-28 76t-53.5 61.5t-83 42.5t-119.5 16q-88 0 -158.5 -22t-124 -57.5t-90 -81.5t-54.5 -93 q21 -13 34 -33t20.5 -47.5t6.5 -64t-11 -83.5l-125 -594h-278zM791 -514l22 99h248l-86 -401h-140l64 302h-108z" />
<glyph unicode="&#xe0f;&#xe38;" horiz-adv-x="1281" d="M35 -286q19 61 51 108t72.5 79t87.5 49q49 18 99 18q33 0 64.5 -7.5t57.5 -25t46.5 -46.5t29.5 -71q29 43 61.5 73t66.5 46t67 23.5t61 7.5q61 0 102 -25q42 -25 68 -77l190 899q9 44 12 88.5t-5 84.5t-28 76t-56.5 61.5t-92 41.5t-131.5 16q-99 0 -175 -26.5 t-130.5 -65.5t-89 -83t-51.5 -79q44 -29 54 -87.5t-5 -140.5l-125 -594h-279l20 109h130l104 488q6 32 11 65t0.5 62t-18 53t-44.5 42q32 70 86 138t131.5 121t179.5 85.5t228 32.5q105 0 181 -20t127 -55t80 -82.5t41 -105t7.5 -121t-17.5 -130.5l-218 -1025h-156 q-6 29 -17 55.5t-28.5 45.5t-43.5 30.5t-67 11.5q-38 0 -67.5 -13t-52 -33.5t-39.5 -46.5q-16 -24 -25 -50h-139q-3 26 -8 51.5t-19 47t-36.5 34.5t-57.5 13q-29 0 -54 -13t-47 -33.5t-38 -47t-25 -52.5h-131zM791 -514l22 99h248l-86 -401h-140l64 302h-108z" />
<glyph unicode="&#xe0e;&#xe39;" horiz-adv-x="1281" d="M57 57l20 109h130l104 488q6 32 11 65t0.5 62t-18 53t-44.5 42q32 70 86 138t131.5 121t179.5 85.5t228 32.5q105 0 181 -20t127 -55t80 -82.5t41 -105t7.5 -121t-17.5 -130.5l-215 -1016h-165q-13 29 -40 52.5t-64 41t-84.5 27.5t-101.5 10q-56 0 -113 -14.5t-108 -36.5 t-90.5 -48.5t-62.5 -50.5l32 147q16 12 53.5 31.5t87 38.5t108 33t116.5 14q61 0 109.5 -9.5t86.5 -25t66 -34.5q30 -19 50 -39l190 905q9 44 12 88.5t-5 84.5t-28 76t-56.5 61.5t-92 41.5t-131.5 16q-99 0 -175 -26.5t-130.5 -65.5t-89 -83t-51.5 -79q44 -29 54 -87.5 t-5 -140.5l-125 -594h-279zM320 -514l22 99h254l-28 -125q-18 -91 10.5 -136t112.5 -45q81 0 128.5 45t65.5 136l26 125h145l-28 -125q-12 -56 -38 -107t-70 -88t-105.5 -59t-144.5 -22q-82 0 -135 19t-81 56t-32 94t12 133h-114z" />
<glyph unicode="&#xe0f;&#xe39;" horiz-adv-x="1281" d="M35 -286q19 61 51 108t72.5 79t87.5 49q49 18 99 18q33 0 64.5 -7.5t57.5 -25t46.5 -46.5t29.5 -71q29 43 61.5 73t66.5 46t67 23.5t61 7.5q61 0 102 -25q42 -25 68 -77l190 899q9 44 12 88.5t-5 84.5t-28 76t-56.5 61.5t-92 41.5t-131.5 16q-99 0 -175 -26.5 t-130.5 -65.5t-89 -83t-51.5 -79q44 -29 54 -87.5t-5 -140.5l-125 -594h-279l20 109h130l104 488q6 32 11 65t0.5 62t-18 53t-44.5 42q32 70 86 138t131.5 121t179.5 85.5t228 32.5q105 0 181 -20t127 -55t80 -82.5t41 -105t7.5 -121t-17.5 -130.5l-218 -1025h-156 q-6 29 -17 55.5t-28.5 45.5t-43.5 30.5t-67 11.5q-38 0 -67.5 -13t-52 -33.5t-39.5 -46.5q-16 -24 -25 -50h-139q-3 26 -8 51.5t-19 47t-36.5 34.5t-57.5 13q-29 0 -54 -13t-47 -33.5t-38 -47t-25 -52.5h-131zM323 -514l22 99h254l-28 -125q-18 -91 10.5 -136t112.5 -45 q81 0 128.5 45t65.5 136l26 125h144l-27 -125q-12 -56 -38 -107t-70 -88t-105.5 -59t-144.5 -22q-82 0 -135 19t-81 56t-32.5 94t12.5 133h-114z" />
<glyph unicode="&#xd;" horiz-adv-x="576" />
<glyph unicode=" "  horiz-adv-x="508" />
<glyph unicode="&#x09;" horiz-adv-x="508" />
<glyph unicode="&#xa0;" horiz-adv-x="508" />
<glyph unicode="!" horiz-adv-x="613" d="M216 0l47 228h182l-48 -228h-181zM339 359l106 663l92 438h154l-92 -438l-171 -663h-89z" />
<glyph unicode="&#x22;" horiz-adv-x="756" d="M377 958l105 502h134l-105 -502h-134zM648 958l105 502h135l-105 -502h-135z" />
<glyph unicode="#" horiz-adv-x="1135" d="M161 451l21 105h236l111 308h-224l21 103h236l159 451h117l-162 -451h279l158 451h113l-159 -451h215l-21 -103h-227l-110 -308h212l-21 -105h-224l-161 -451h-114l158 451h-275l-157 -451h-114l157 451h-224zM531 556h279l111 308h-279z" />
<glyph unicode="$" horiz-adv-x="1135" d="M147 273q-13 89 5 203h140q-15 -83 -4 -149.5t44 -114.5t85.5 -80.5t119.5 -43.5l126 591q-56 12 -107 28t-94.5 38.5t-76.5 51.5t-53 71t-24 96.5t12 124.5q19 91 68.5 164t119.5 125.5t155 81.5t175 32l32 158h91l-34 -158q85 -4 157 -38.5t119 -94.5t64.5 -141.5 t-6.5 -180.5h-140q15 73 4.5 133.5t-40 104t-77 69t-109.5 28.5l-122 -573q55 -12 109 -29t101 -39.5t86.5 -54t62.5 -73.5t30.5 -97.5t-7.5 -125.5q-13 -66 -43 -122.5t-72 -101.5t-95 -79.5t-110.5 -58.5t-118 -37t-118.5 -13l-37 -175h-89l35 175q-108 14 -185.5 53 t-122 101.5t-56.5 150.5zM452 995.5q4 -33.5 18.5 -59t38.5 -44.5t54 -33t63.5 -24t67.5 -19l116 556q-55 -3 -111.5 -21.5t-104.5 -55t-84.5 -92t-51.5 -130.5q-10 -44 -6 -77.5zM619 82q64 3 130 20.5t122 54t97.5 92t56.5 131.5q9 43 3 79.5t-25.5 65t-49 51.5 t-63.5 40.5t-72 30.5t-73 23z" />
<glyph unicode="%" horiz-adv-x="1814" d="M342 893.5q-3 71.5 14.5 156t51 155.5t85.5 123.5t120.5 82.5t157.5 30q87 0 144 -30t85 -82.5t31 -124t-15 -154.5q-17 -85 -51 -156.5t-85 -124t-119.5 -82.5t-156.5 -30q-87 0 -144 30t-86 82.5t-32 124zM362 -72l1256 1555h114l-1253 -1555h-117zM465 947.5 q-1 -51.5 13.5 -92t50.5 -67t99 -26.5q61 0 107 26.5t79 67t53.5 92t28.5 99.5q6 32 10.5 66.5t1.5 66.5t-12.5 61t-27.5 49.5t-47.5 33.5t-70 13t-76 -13t-63.5 -33.5t-51 -49.5t-39 -61t-27.5 -66t-17.5 -67q-10 -48 -11 -99.5zM1092 205.5q-3 71.5 14.5 156.5t51 156.5 t85 124t120 81.5t158.5 29q88 0 145 -29t84.5 -81.5t30.5 -124t-14.5 -156.5t-51 -156.5t-84.5 -124t-120 -81.5t-156 -29q-91 0 -148 29t-84.5 81.5t-30.5 124zM1216 228q3 -32 13.5 -60.5t29.5 -50t48.5 -33.5t70.5 -12q62 0 108.5 27t78.5 68.5t52.5 92.5t29.5 99 q6 32 10 67t1.5 67.5t-12 60t-28 49.5t-47.5 33.5t-70 11.5t-76 -11.5t-63.5 -33.5t-51 -49.5t-38.5 -60t-28 -67.5t-17.5 -67t-9.5 -65.5t-1 -65.5z" />
<glyph unicode="&#x26;" horiz-adv-x="1246" d="M151 205q-17 77 4 178q17 78 64 142.5t108 115.5t132 92q72 41 137 74l-22 43q-19 33 -37.5 67.5t-31 73t-16 80.5t6.5 88q15 69 52 125t90.5 95.5t118 61.5t131.5 22t123 -22t92.5 -61.5t50.5 -95t-1 -125.5q-14 -68 -49 -123t-85 -100t-108 -83t-120 -73 q59 -94 116 -181.5t115 -180.5q18 26 31 51.5t22.5 52.5t17.5 60q8 31 17 75h140q-6 -29 -19 -70t-33.5 -87.5t-48.5 -95.5t-60 -96l193 -308h-181l-114 182q-50 -46 -107 -85t-116.5 -66.5t-124 -43.5t-128.5 -16q-96 0 -172 26t-123.5 78.5t-64.5 129.5zM292 371 q-13 -61 2.5 -113t50.5 -89.5t86 -57.5t112 -20q48 0 98.5 16t99.5 43.5t93 64.5q45 36 83 77l-266 426q-55 -27 -112 -61.5t-107.5 -77t-87.5 -94t-52 -114.5zM637 1159q-6 -33 0.5 -67.5t20.5 -68t32 -65.5q20 -32 34 -62l12 -20q41 23 86 52.5t84.5 64.5t68.5 76t38 90 q9 43 1 77t-29 56.5t-52 35t-69 12.5t-75 -12.5t-67.5 -35t-53.5 -56t-31 -77.5z" />
<glyph unicode="'" horiz-adv-x="567" d="M418 958l105 502h140l-104 -502h-141z" />
<glyph unicode="(" horiz-adv-x="493" d="M176.5 287.5q7.5 121.5 36.5 255.5q28 132 74.5 259t108.5 245t139 229t164 213h120q-93 -111 -169 -230.5t-135 -245t-101.5 -255.5t-68.5 -262q-24 -111 -29.5 -227t4.5 -229.5t36.5 -222.5t65.5 -205h-120q-45 111 -75.5 220.5t-44 221.5t-6 233.5z" />
<glyph unicode=")" horiz-adv-x="493" d="M-96 -388q93 111 169 229t134.5 242t101.5 254t71 265q23 110 29 225.5t-6 231t-38 224t-66 206.5h119q43 -112 75.5 -221t45.5 -222t7 -233.5t-35 -256.5q-28 -131 -75.5 -257.5t-110 -244.5t-139.5 -229q-78 -111 -166 -213h-116z" />
<glyph unicode="*" horiz-adv-x="716" d="M302 1203l48 88l218 -82l54 251h90l-55 -251l254 82l13 -88l-254 -79l110 -194l-92 -60l-107 197l-193 -197l-62 60l191 200z" />
<glyph unicode="+" horiz-adv-x="1224" d="M188 458l28 120h460l95 456h120l-95 -456h460l-27 -120h-461l-95 -458h-120l95 458h-460z" />
<glyph unicode="," horiz-adv-x="567" d="M126 -280l20 100q23 9 43.5 29t37.5 44.5t30 53.5q12 28 20 53h-86l48 228h186l-48 -225q-12 -45 -34 -89.5t-54 -84t-73 -69t-90 -40.5z" />
<glyph unicode="-" horiz-adv-x="858" d="M188 458l28 120h672l-27 -120h-673z" />
<glyph unicode="." horiz-adv-x="567" d="M191 0l48 228h186l-48 -228h-186z" />
<glyph unicode="/" horiz-adv-x="678" d="M-32 -29l934 1518h117l-931 -1518h-120z" />
<glyph unicode="0" horiz-adv-x="1135" d="M177.5 369.5q-3.5 83.5 6.5 170.5q12 88 29.5 172.5t43.5 172t65.5 169.5t90.5 155t120 127t153.5 86t189.5 32t176.5 -32t117 -86t66 -127t23 -155t-7.5 -169.5t-28 -172.5q-17 -84 -45 -171.5t-65.5 -171t-90.5 -155.5t-120 -127t-152.5 -85.5t-190.5 -30.5t-177 30.5 t-116 85.5t-64.5 127t-24 155.5zM319.5 441.5q-1.5 -69.5 10.5 -133t42.5 -111.5t81.5 -77t133 -29q79 0 143 29t115 77t89 111.5t66 133t47 139.5t33 131q14 62 24 132t10.5 138.5t-11 132t-40.5 112.5t-81 78t-132 29q-81 0 -145 -29t-114.5 -78t-89 -112.5t-67 -132 t-49 -138.5t-32 -131.5t-22 -131.5t-12 -139.5z" />
<glyph unicode="1" horiz-adv-x="1135" d="M406 1016l28 126q77 4 145 15t125.5 40t105.5 82q46 53 84 145h119l-301 -1424h-141l233 1107q-39 -27 -83 -43t-93.5 -26t-105 -14.5t-116.5 -7.5z" />
<glyph unicode="2" horiz-adv-x="1135" d="M69 0q17 76 47.5 139.5t72.5 117t91.5 98.5t106.5 85t117 77q60 38 121 73q47 26 96.5 54t97.5 60t93.5 68.5t82 78t62.5 90.5t38 106q15 67 0 121t-50 90.5t-88 56.5q-52 19 -116 19q-86 0 -154 -33.5t-117.5 -87.5t-81.5 -126t-49 -151h-140q21 112 69 207t120.5 163.5 t168.5 108t216 39.5q95 0 171.5 -26t126.5 -77.5t67.5 -128t-3.5 -175.5q-19 -91 -63.5 -166t-106 -138t-136.5 -116q-76 -55 -155 -98q-94 -53 -177 -99.5t-148.5 -94t-114 -97.5t-71.5 -107h784l-28 -131h-950z" />
<glyph unicode="3" horiz-adv-x="1135" d="M140 253q-14 94 18 211h141q-20 -84 -13 -154.5t42.5 -120t96 -75.5t146.5 -26q70 0 139.5 20t127.5 59.5t101 97.5q42 56 57 132q14 73 0.5 129.5t-51 93.5t-95.5 55q-56 19 -126 19h-117l24 119h117q48 -1 101 13.5t101.5 46.5t85 80.5t50.5 113.5q15 70 2 120t-49 82 t-89.5 47.5t-114.5 15.5q-79 0 -146 -27t-118 -75.5t-84.5 -115t-49.5 -145.5h-141q24 103 75.5 191t124.5 153t165 101.5t197 36.5q87 0 163.5 -22t129.5 -67t76 -115t2 -164q-11 -55 -37.5 -105.5t-64.5 -92t-86 -74.5t-102 -52q64 -13 108.5 -43.5t69.5 -76.5t30 -104.5 t-11 -128.5q-15 -70 -45.5 -130t-74.5 -108t-97 -86t-113.5 -63t-126.5 -38t-131 -13q-113 0 -200 33.5t-140 96.5t-68 155z" />
<glyph unicode="4" horiz-adv-x="1135" d="M126 339l26 134l870 951h126l-206 -966h211l-23 -119h-213l-70 -339h-132l70 339h-659zM283 458h527l162 754z" />
<glyph unicode="5" horiz-adv-x="1135" d="M153 227q-19 83 2 188h141q-14 -76 0 -136t50.5 -104t93 -67t128.5 -23q82 0 154 30.5t129 83t97 121.5q39 71 56 147q18 79 5 146t-51 116t-98 77.5t-139 28.5q-46 0 -94.5 -11.5t-93.5 -33.5t-87 -54t-75 -73h-120l299 761h726l-29 -133h-625l-180 -456q34 29 72.5 51 t79.5 37.5t82.5 23.5t82.5 8q111 0 193 -38t132 -103.5t65.5 -157.5t-7.5 -200q-15 -71 -46.5 -135.5t-76 -119.5t-100 -99t-118 -74.5t-130 -46.5t-137.5 -16q-100 0 -180 30.5t-131 89t-70 142.5z" />
<glyph unicode="6" horiz-adv-x="1135" d="M186 391q1 133 36 303q9 37 22 91.5t35 115t51 126t68.5 127.5t90 117.5t112.5 97t136.5 66.5t161.5 25q95 0 167.5 -24t120 -71.5t67 -120.5t10.5 -171h-140q3 60 -10 109t-43.5 84t-76 54.5t-106.5 19.5q-78 0 -142 -27.5t-116 -73t-93.5 -106.5t-72 -128.5t-52.5 -136 t-35 -132.5q38 48 86 86.5t103.5 66.5t114 43.5t115.5 15.5q108 0 189 -36t130 -100t64 -152t-7 -193q-23 -105 -78.5 -195.5t-135 -156t-177.5 -102t-203 -36.5q-136 0 -222.5 48t-127.5 140t-42 226zM329 371q-1 -44 8.5 -84t31 -75t55 -60.5t81 -40.5t108.5 -15 q76 0 143 29.5t122.5 79t93.5 115t53 138.5q17 78 8.5 145t-40.5 117.5t-90 79.5t-138 29q-83 0 -154 -29t-126.5 -79.5t-92.5 -118.5q-36 -68 -53 -144q-9 -43 -10 -87z" />
<glyph unicode="7" horiz-adv-x="1135" d="M299 0q35 123 78 235t98 219t123 209t151 205t182.5 207.5t218.5 215.5h-779l29 133h932l-28 -126q-54 -47 -125.5 -114t-152 -155.5t-164.5 -196.5t-160.5 -237t-142.5 -278t-108 -317h-152z" />
<glyph unicode="8" horiz-adv-x="1135" d="M151 210q-23 82 1 190q17 69 49.5 129.5t77 108.5t100.5 81.5t123 48.5q-95 38 -133.5 119.5t-12.5 198.5q12 62 40.5 113t68 90.5t88.5 70t101.5 49.5t108 28.5t107.5 9.5q54 0 106 -9.5t97 -28.5t81 -49.5t58.5 -70t30 -90.5t-4.5 -113q-12 -57 -36.5 -107t-61 -91 t-83.5 -72t-102 -51q61 -16 104 -48t68 -79t30 -107q5 -61 -9 -131q-24 -108 -81 -190t-135.5 -136.5t-175 -81.5t-197.5 -27q-102 0 -187.5 27t-141.5 81.5t-79 136.5zM290.5 261q16.5 -60 56.5 -99t101.5 -58t135.5 -19q73 0 142.5 19t126.5 58t97 99q40 57 57 139 q16 76 -0.5 134.5t-57.5 96.5t-101 57t-130 19q-73 0 -142 -18.5t-127 -57t-98.5 -95.5t-58.5 -136t-1.5 -139zM496 1086q-14 -71 0.5 -121.5t51 -82t87.5 -45.5t107 -12q57 -2 114.5 13t105.5 47t84.5 81.5t51.5 119.5q12 59 -1.5 104t-47.5 75.5t-86 47t-113 16.5 q-59 0 -117 -16.5t-106.5 -47t-83.5 -75.5t-47 -104z" />
<glyph unicode="9" horiz-adv-x="1135" d="M169 350h142q-4 -58 9 -107.5t43 -84.5t76 -54t109 -19q78 0 143 26t117.5 73t93.5 107.5t71.5 127.5t52 137t35.5 135q-39 -49 -87 -88t-103.5 -67.5t-114 -44t-117.5 -15.5q-108 0 -188 35t-128.5 99.5t-63.5 153.5q-17 89 7 194q20 105 75.5 194t134.5 154.5 t177.5 103t204.5 37.5q132 0 218 -43t128.5 -135t42.5 -238t-44 -349q-6 -32 -20 -79.5t-34 -104.5t-48.5 -118.5t-68 -120.5t-88.5 -112.5t-110.5 -94t-135.5 -64.5q-76 -23 -164 -23q-96 0 -167.5 23.5t-118.5 71.5t-67 119.5t-12 170.5zM397.5 821q9.5 -68 43 -118 t90.5 -78.5t139 -28.5q83 0 154 28.5t125.5 78.5t92.5 117.5t56 146.5q15 67 7.5 131t-39.5 115t-92 83.5t-152 32.5q-76 0 -144 -29.5t-123.5 -79t-93.5 -115.5q-41 -65 -55 -138q-18 -78 -8.5 -146z" />
<glyph unicode=":" horiz-adv-x="567" d="M191 0l48 228h186l-48 -228h-186zM359 788l47 228h187l-50 -228h-184z" />
<glyph unicode=";" horiz-adv-x="567" d="M126 -280l20 100q23 9 43.5 29t37.5 44.5t30 53.5q12 28 20 53h-86l48 228h186l-48 -225q-12 -45 -34 -89.5t-54 -84t-73 -69t-90 -40.5zM359 788l47 228h187l-50 -228h-184z" />
<glyph unicode="&#x3c;" horiz-adv-x="1224" d="M182 456l28 122l1148 475l-26 -126l-987 -410l811 -412l-26 -123z" />
<glyph unicode="=" horiz-adv-x="1224" d="M146 254l23 123h1043l-25 -123h-1041zM231 657l26 120h1041l-28 -120h-1039z" />
<glyph unicode="&#x3e;" horiz-adv-x="1224" d="M82 -15l26 123l993 412l-818 410l28 126l948 -475l-27 -123z" />
<glyph unicode="?" horiz-adv-x="1096" d="M317 1002q25 111 75 202t123 156t168 100q94 35 208 35q87 0 158.5 -26.5t118.5 -74.5t65 -119.5t-1 -161.5q-11 -57 -37 -106t-60 -93t-75 -82t-85 -76l-73 -57q-35 -29 -59.5 -49.5t-42 -40t-30 -40t-23.5 -48.5t-21.5 -65.5t-21.5 -93.5h-142q18 94 47.5 161t72 121 t96.5 102t121 101q30 25 60.5 54.5t56.5 64t46 70.5q21 36 27 71q12 58 -1 107.5t-45.5 84.5t-80 55.5t-104.5 20.5q-81 0 -148.5 -28.5t-118.5 -78.5t-84.5 -119t-48.5 -147h-141zM467 0l47 228h182l-48 -228h-181z" />
<glyph unicode="@" horiz-adv-x="1632" d="M88 736q0 108 26 206t74.5 182.5t117 153t153 116.5t181 74.5t204.5 26.5q150 0 277 -46.5t220 -131.5t145.5 -203t52.5 -261q0 -82 -19 -159.5t-54 -144t-80.5 -121t-99.5 -93.5t-111 -60t-114 -21q-27 0 -52 7.5t-44 22t-32 38.5t-19 58q-23 -25 -51 -47.5t-60 -39 t-67 -26.5t-76 -10q-64 0 -115.5 23.5t-86.5 64t-54 96t-19 118.5q0 70 16.5 141.5t45.5 138t73 125t98 101t119.5 67t138.5 24.5q32 0 65 -10t61.5 -30t51.5 -49.5t38 -70.5l44 122h120l-195 -595q-11 -32 -17.5 -61.5t-6 -53t11.5 -36.5t34 -13q44 0 85 21.5t79 57.5 t70 85t54.5 105.5t36 115.5t13.5 117q0 123 -46 221t-125 166.5t-184 105t-219 36.5q-94 0 -178.5 -23.5t-156 -67t-128 -105t-96.5 -136t-60 -159.5q-21 -84 -21 -178q0 -90 22 -175t63 -158t99.5 -132.5t130 -102t153.5 -65.5q84 -22 175 -22q73 0 146.5 19t142 54.5 t128.5 85t105 114.5h123q-48 -88 -118 -156.5t-154 -117.5t-180 -74q-94 -26 -193 -26q-111 0 -210.5 26.5t-184 76t-153 119.5t-116 155.5t-73 184.5t-25.5 209zM526 571q0 -44 13 -79.5t35 -61.5t52 -39.5t65 -13.5q45 0 87.5 22.5t79.5 60.5t67 87t52 102t33 106 q12 54 12 98q0 33 -13 66t-35 58t-50 41t-57 16q-51 0 -95.5 -20.5t-82.5 -56.5t-68.5 -82.5t-51 -98.5t-32 -104.5t-11.5 -100.5z" />
<glyph unicode="A" horiz-adv-x="1284" d="M-18 0l894 1460h168l260 -1460h-165l-81 456h-640l-272 -456h-164zM491 584h543l-117 707z" />
<glyph unicode="B" horiz-adv-x="1363" d="M146 0l310 1460h608q62 0 119.5 -8t107 -25t88.5 -44.5t63 -67.5t30 -94q3 -19 3 -41q0 -38 -9 -82q-12 -56 -39.5 -107t-67 -93t-89 -76t-108.5 -51q61 -13 108 -44.5t74.5 -77.5t35.5 -105q2 -20 2 -40q0 -41 -10 -86q-7 -35 -22.5 -80.5t-43 -91.5t-73 -90.5t-111 -79 t-156 -55.5t-210.5 -21h-610zM326 131h457h10q69 0 137 13q72 14 131.5 46.5t102 89t59.5 142.5q8 34 8 64q1 29 -7 55q-14 52 -55.5 85.5t-108.5 50.5t-158 17h-457zM473 825h457q83 0 148 18t112 50.5t75.5 76t38.5 94.5q9 40 9 73q0 192 -276 192h-456z" />
<glyph unicode="C" horiz-adv-x="1438" d="M208 534q2 97 23 196q22 99 60.5 194t94 179.5t127.5 155.5t159 122t189.5 79.5t218.5 28.5q70 0 134.5 -14t120.5 -41t102 -67.5t77 -94.5t44 -122q8 -44 8 -92q0 -26 -2 -54h-151q-1 85 -28 151t-74.5 111t-113 68.5t-144.5 23.5q-97 0 -178.5 -25t-151 -68.5 t-125 -103.5t-98.5 -129.5t-73 -146t-47 -155.5q-18 -79 -20 -157v-21q0 -67 11 -127q13 -70 43.5 -130t81 -103t122.5 -68q71 -25 167 -25q100 0 188 36.5t159.5 100t125 149t85.5 183.5h149q-44 -137 -116 -247.5t-166.5 -188t-209.5 -119.5t-244 -42q-117 0 -206 27.5 t-154.5 78.5t-108 122t-61.5 155q-18 80 -18 170v10z" />
<glyph unicode="D" horiz-adv-x="1398" d="M146 0l310 1460h505q165 -4 280 -51.5t180 -138t78 -225.5q4 -36 4 -76q0 -107 -28 -239q-76 -361 -283.5 -542.5t-540.5 -187.5h-505zM326 131h284h9q149 0 265 32q118 33 204 104.5t143 185t90 277.5q28 130 28 228q1 24 -1 46q-8 114 -64 187t-160.5 105.5 t-259.5 32.5h-283z" />
<glyph unicode="E" horiz-adv-x="1210" d="M146 0l310 1460h1007l-28 -131h-854l-108 -510h797l-29 -131h-799l-116 -557h864l-28 -131h-1016z" />
<glyph unicode="F" horiz-adv-x="1096" d="M146 0l310 1460h925l-26 -131h-774l-108 -510h683l-29 -131h-685l-143 -688h-153z" />
<glyph unicode="G" horiz-adv-x="1512" d="M208 534q2 97 23 196q22 99 60.5 194t94 179.5t127.5 155.5t159 122t189.5 79.5t219 28.5t211.5 -31.5t162 -93.5t102 -155q31 -82 31 -186q0 -15 -1 -30h-154q2 16 2 33q0 25 -4 52q-8 43 -27 84t-50.5 76t-75 62t-100 42.5t-124.5 15.5q-97 0 -178.5 -25t-151 -68.5 t-125 -103.5t-98.5 -129.5t-73 -146t-47 -155.5q-18 -79 -20 -157v-21q0 -66 11 -127q13 -70 43.5 -130t81 -103t122.5 -68q71 -25 167 -25q120 0 221 38t178 106.5t129 163.5q51 95 74 209h-491l31 132h625l-159 -748h-114l31 245q-54 -71 -118.5 -123t-136 -85.5 t-147.5 -49.5t-152 -16q-117 0 -206 27.5t-154.5 78.5t-108 122t-61.5 155q-18 80 -18 170v10z" />
<glyph unicode="H" horiz-adv-x="1438" d="M146 0l310 1460h151l-131 -628h839l132 628h153l-309 -1460h-152l146 699h-840l-146 -699h-153z" />
<glyph unicode="I" horiz-adv-x="454" d="M152 0l309 1460h149l-308 -1460h-150z" />
<glyph unicode="J" horiz-adv-x="1019" d="M119 232q-2 24 -2 49q0 34 4 71q7 63 22 127h153l-7 -28q-6 -32 -11.5 -70t-7.5 -77v-12q0 -32 7 -64q8 -38 31 -66t65 -45.5t109 -17.5q79 0 134.5 20.5t94 66t64.5 115.5q25 73 47 172l209 987h150l-220 -1048q-24 -111 -64 -194.5t-102 -139t-149.5 -81.5t-206.5 -26 q-84 0 -143 19t-97 54t-56.5 83t-23.5 105z" />
<glyph unicode="K" horiz-adv-x="1324" d="M146 0l310 1460h151l-165 -775l993 775h200l-785 -604l508 -856h-196l-444 753l-315 -254l-104 -499h-153z" />
<glyph unicode="L" horiz-adv-x="1090" d="M146 0l310 1460h151l-281 -1329h792l-26 -131h-946z" />
<glyph unicode="M" horiz-adv-x="1700" d="M143 0l308 1460h231l212 -1256l738 1256h234l-308 -1460h-151l273 1285l-763 -1285h-132l-220 1285l-273 -1285h-149z" />
<glyph unicode="N" horiz-adv-x="1438" d="M143 0l308 1460h186l547 -1260l267 1260h149l-309 -1460h-173l-556 1270l-270 -1270h-149z" />
<glyph unicode="O" horiz-adv-x="1512" d="M200 534q1 96 22 196q22 99 60.5 194t95 179.5t128.5 155.5t159 122t188.5 79.5t216.5 28.5q116 0 205.5 -28.5t155 -79.5t108 -122t62.5 -155q19 -79 19 -167v-13q-2 -95 -22.5 -194t-60 -195.5t-95.5 -180.5t-128.5 -155t-160 -122t-189 -78.5t-216.5 -27.5 q-116 0 -205.5 27.5t-155.5 78.5t-107.5 122t-61.5 155q-19 80 -18 171v9zM353 573q-1 -14 0 -28q1 -63 11 -120q14 -70 44 -130t80.5 -103t121.5 -68q70 -25 167 -25q96 0 178 25t150.5 68t124 103t97.5 130t72 147q29 79 45 158q17 80 21 156q1 17 1 34q0 58 -10 112 q-14 70 -43 129.5t-80 103t-122.5 68.5t-166.5 25q-96 0 -178 -25t-151.5 -68.5t-125 -103.5t-97.5 -129.5t-71.5 -146t-46.5 -155.5q-18 -79 -21 -157z" />
<glyph unicode="P" horiz-adv-x="1284" d="M146 0l310 1460h642q99 0 173.5 -29t120 -84t59.5 -134q6 -32 6 -68q0 -52 -13 -111q-20 -100 -68.5 -178t-117 -132t-155.5 -82.5t-186 -28.5h-489l-129 -613h-153zM456 745h455q72 0 135.5 17.5t113 53t84.5 90.5t51 128q9 43 9 79q0 27 -5 51q-11 56 -45.5 92 t-89 54.5t-127.5 18.5h-456z" />
<glyph unicode="Q" horiz-adv-x="1512" d="M199 534q2 97 23 196q22 99 60.5 194t95 179.5t128.5 155.5t159 122t188.5 79.5t216.5 28.5q116 0 205.5 -28.5t155 -79.5t108 -122t62.5 -155q19 -79 19 -167v-13q-2 -95 -23 -194q-17 -85 -48 -166t-74 -154.5t-97.5 -139.5t-118.5 -118l170 -155l-95 -93l-189 168 q-88 -47 -186 -74t-211 -27q-116 0 -205.5 27.5t-155.5 78.5t-107.5 122t-61 155t-19.5 180zM353 573q-1 -14 -1 -28q0 -63 12 -120q13 -70 43.5 -130t81 -103t121.5 -68q70 -25 167 -25q76 0 143 14.5t127 44.5l-168 150l102 98l184 -169q56 46 101 102.5t80 120t59 132 t39 138.5q17 79 21 156q1 17 1 34q0 58 -10 112q-14 69 -43 129t-80 103.5t-122.5 68.5t-166.5 25q-96 0 -178 -25t-151.5 -68.5t-125 -103.5t-97.5 -129.5t-71.5 -146t-46.5 -155.5q-18 -79 -21 -157z" />
<glyph unicode="R" horiz-adv-x="1363" d="M146 0l310 1460h662q62 0 116 -10t100 -30.5t80 -53t55.5 -74.5t26.5 -98q1 -14 1 -29q-1 -43 -11 -92q-14 -66 -44 -125t-73 -108t-100 -84.5t-124 -56.5q61 -13 97.5 -42t54 -70t19.5 -93v-14q0 -47 -9 -100q0 -9 -2 -22q-3 -11 -4 -22q-6 -40 -13 -88q-6 -48 -8 -94 q-1 -13 -1 -26q0 -32 4 -61q5 -41 21 -67h-171q-9 20 -10.5 47t0 55.5t6 56.5t7.5 51q9 56 16 110t7 102t-10 89t-34 69.5t-66 43.5q-37 13 -92 13h-15h-508l-135 -637h-153zM461 765h500q62 0 121.5 19t109 55.5t86 87.5t51.5 117q8 40 8 75q0 23 -3 43q-8 54 -39 90 t-85 56.5t-130 20.5h-499z" />
<glyph unicode="S" horiz-adv-x="1284" d="M164 258q-7 35 -8 75q0 72 24 160h150q-16 -66 -16 -119v-14q2 -58 22 -102.5t56.5 -75t85 -49t106.5 -26.5t126 -8q38 0 81 6.5t87.5 22t86.5 38t78 55t61.5 74t37.5 93.5q5 24 5 45q-1 13 -3 27q-6 32 -21.5 59t-40.5 47.5t-54 36t-61 26.5q-33 10 -62 19l-301 67 q-61 18 -116.5 43t-93.5 66.5t-52 101.5q-6 25 -7 56q0 41 12 91q8 35 25.5 80.5t48 91.5t76.5 89.5t109 78.5t144.5 55.5t185.5 20.5q73 0 139.5 -13t120.5 -39.5t95.5 -65.5t66.5 -90.5t30 -116.5q2 -18 2 -37q0 -50 -12 -105h-152q7 38 7 71q0 43 -11 77 q-19 62 -63 104.5t-107 62.5q-65 21 -141 21q-70 0 -137 -14.5t-122.5 -48.5t-95 -88t-57.5 -134q-6 -27 -6 -49q1 -20 5 -36q10 -36 33.5 -61.5t60 -42.5t78.5 -26l323 -78q49 -15 94.5 -31t83.5 -39.5t67 -52.5t46.5 -68.5t20.5 -87.5q1 -9 1 -18q0 -41 -11 -92 q-6 -25 -20 -65t-41.5 -87.5t-74 -95t-117 -86t-168 -62.5t-229.5 -24q-130 0 -232 30t-165.5 94.5t-83.5 162.5z" />
<glyph unicode="T" horiz-adv-x="1135" d="M292 1329l28 131h1115l-28 -131h-483l-282 -1329h-149l281 1329h-482z" />
<glyph unicode="U" horiz-adv-x="1398" d="M242 531l197 929h154l-193 -898q-22 -94 -22 -167q0 -25 3 -47q10 -88 52.5 -143.5t114.5 -80.5q74 -25 173 -25q100 0 182.5 25t147 80.5t110 143t71.5 214.5l192 898h148l-197 -929q-16 -75 -44.5 -147t-70 -134t-97.5 -113.5t-127 -88t-157 -57t-188 -20.5 q-103 0 -180 20.5t-132 57t-89 88t-50 113.5q-15 60 -15 130q0 74 17 151z" />
<glyph unicode="V" horiz-adv-x="1264" d="M320 1460h165l188 -1283l723 1283h162l-840 -1460h-175z" />
<glyph unicode="W" horiz-adv-x="1868" d="M326 1460h165l65 -1247l600 1247h187l81 -1247l588 1247h153l-711 -1460h-159l-86 1273l-619 -1273h-165z" />
<glyph unicode="X" horiz-adv-x="1219" d="M-3 0l673 750l-334 710h178l271 -602l536 602h171l-636 -712l359 -748h-184l-295 631l-570 -631h-169z" />
<glyph unicode="Y" horiz-adv-x="1318" d="M320 1460h179l311 -730l619 730h180l-751 -861l-125 -599h-152l126 599z" />
<glyph unicode="Z" horiz-adv-x="1172" d="M15 0l26 131l1185 1198h-864l26 131h1038l-27 -131l-1183 -1198h929l-27 -131h-1103z" />
<glyph unicode="[" horiz-adv-x="493" d="M66 -391l401 1883h340l-27 -120h-199l-350 -1644h200l-25 -119h-340z" />
<glyph unicode="\" horiz-adv-x="678" d="M286 1489h117l293 -1518h-122z" />
<glyph unicode="]" horiz-adv-x="493" d="M-77 -391l23 119h197l350 1644h-201l28 120h340l-400 -1883h-337z" />
<glyph unicode="^" horiz-adv-x="1224" d="M180 482l678 936h109l283 -936h-129l-242 788l-568 -788h-131z" />
<glyph unicode="_" horiz-adv-x="1019" d="M-54 -254l28 114h1016l-26 -114h-1018z" />
<glyph unicode="`" horiz-adv-x="376" d="M245 1492h170l156 -293h-113z" />
<glyph unicode="a" horiz-adv-x="1058" d="M123 144q-7 26 -7 57q0 37 10 82q14 70 43.5 120t71.5 85t93 58t111 37t124.5 23t129.5 16q62 6 105 14.5t71.5 23.5t44.5 39.5t25 65.5q7 33 7 60q0 25 -6 44q-12 41 -42.5 64t-77 32.5t-99.5 9.5q-55 0 -108 -14.5t-95 -43.5t-73 -74.5t-45 -109.5h-140 q25 95 73.5 164.5t114.5 113t147 65.5q79 22 170 22q45 0 91 -6t85.5 -20.5t71 -39.5t51.5 -63t24 -92q1 -12 1 -26q0 -45 -12 -101l-119 -559q-6 -33 7 -52t48 -19q3 0 9.5 1.5t14 3t14 3.5t10.5 3l-27 -122q-21 -5 -39 -7q-17 -2 -49 -2q-47 0 -75.5 12.5t-42 34.5 t-15.5 52v12q0 25 3 55q-42 -48 -85 -84.5t-92 -61t-106 -37t-130 -12.5q-72 0 -131.5 18t-100 57t-54.5 98zM266 292q-5 -22 -5 -42q1 -23 7 -43q12 -38 37 -64t61.5 -39t78.5 -13q70 0 140.5 21.5t128.5 64t100 102.5t56 136l29 150q-11 -9 -26 -14t-39.5 -11.5t-62.5 -13 t-92 -15.5q-48 -6 -95 -13t-89 -17.5t-80 -25t-68 -36.5t-51.5 -52.5t-29.5 -74.5z" />
<glyph unicode="b" horiz-adv-x="1181" d="M126 0l311 1472h144l-123 -581q35 51 82 89.5t99.5 65t108 39.5t110.5 13q120 0 199 -46t121 -124t48 -180l2 -40q0 -84 -19 -176q-23 -114 -74.5 -215.5t-127.5 -178.5t-173.5 -122t-217.5 -45q-58 0 -110 14t-93.5 41t-72 64.5t-48.5 86.5l-35 -177h-131zM362 424 q-1 -15 -1 -30q-1 -36 5 -72q8 -50 27 -92.5t52.5 -73t82.5 -48.5q47 -17 114 -17q59 0 110.5 17.5t95 48t79 73t63.5 92t47 102.5t31 107q10 55 14 109q1 19 2 37q0 33 -4 65q-6 48 -24 91t-48 74.5t-73.5 49.5t-102.5 18q-67 0 -123 -18t-103 -49.5t-84 -74t-65 -91 t-48.5 -102t-31.5 -109.5q-12 -54 -15 -107z" />
<glyph unicode="c" horiz-adv-x="1093" d="M176 382q2 72 18 147t46 147t71.5 134.5t94 115t117 90t136.5 58.5t154 21q85 0 153 -23.5t114 -71t68 -117.5q15 -52 15 -120q0 -20 -1 -42h-140q-1 59 -13.5 105t-41 78.5t-72.5 50.5q-45 17 -107 17q-92 0 -167 -38t-133.5 -100.5t-96.5 -141.5t-55 -163 q-14 -67 -14 -131v-32q4 -78 35 -140t91 -100t154 -38q58 0 113.5 21.5t103 61t83 95t56.5 119.5h140q-32 -96 -85.5 -173.5t-121.5 -131.5t-148 -83t-169 -29q-82 0 -146 20.5t-111.5 57t-78.5 88.5q-32 52 -48 114q-14 57 -14 121v13z" />
<glyph unicode="d" horiz-adv-x="1181" d="M176 382q2 70 18 147q25 113 74.5 215.5t125 180.5t174 124t217.5 46q57 0 109 -13t93 -39.5t71.5 -64.5t45.5 -90l122 581h141l-314 -1472h-132l37 177q-35 -47 -82.5 -85.5t-102.5 -65t-112.5 -41t-112.5 -14.5q-82 0 -144 20.5t-106 57.5t-72 89q-28 53 -40 115 q-11 54 -10 113v19zM320 421q-1 -19 0 -37q0 -34 4 -66q6 -50 23.5 -92t47.5 -72.5t74.5 -48t104.5 -17.5q67 0 123 17.5t103 48t83.5 73t64 92t46.5 103.5t31 107q11 54 15 108q1 19 2 37q0 34 -4 66q-6 48 -25.5 90.5t-52.5 74t-82 49.5t-116 18q-61 0 -112 -18t-95 -49.5 t-80 -74t-63 -91t-46 -102.5t-30.5 -108.5t-15.5 -107.5z" />
<glyph unicode="e" horiz-adv-x="1118" d="M174 302q-1 20 -1 41q0 80 18 171q15 70 42 141t66.5 136t90.5 120.5t112.5 97t134.5 65.5t154 24q85 0 148 -24t106.5 -65.5t68.5 -99.5q24 -59 34 -125q6 -41 6 -84q0 -28 -2 -56q-6 -74 -25 -151h-797q-10 -47 -12 -95q-1 -12 -1 -22q0 -36 6 -70q8 -44 26.5 -84 t49 -69t75.5 -46q46 -16 104 -16q67 0 123.5 18.5t103 54.5t84 85.5t66.5 109.5h140q-41 -93 -93.5 -165.5t-120.5 -122t-150.5 -75t-180.5 -25.5q-125 0 -204.5 42t-122 116t-49.5 173zM353 613h657q9 45 9 87q0 25 -3 50q-9 65 -39.5 115t-83 80t-128.5 30t-141 -30.5 t-118 -80t-92 -115.5q-37 -66 -61 -136z" />
<glyph unicode="f" horiz-adv-x="553" d="M191 0l200 945h-178l24 119h178l22 92q14 69 37.5 126.5t62 100t94 66t134.5 23.5q32 0 57 -3t54 -6l-23 -123q-27 5 -50 7t-53 2q-49 0 -80 -16t-48.5 -42.5t-27.5 -61.5q-10 -38 -20 -79l-18 -86h209l-23 -119h-211l-198 -945h-142z" />
<glyph unicode="g" horiz-adv-x="1153" d="M102 -91h140v-5q0 -55 20 -92q21 -40 56 -64.5t80.5 -35.5t94.5 -11q87 0 154.5 25.5t118 75t85 122.5t54.5 169l16 98q-32 -38 -73.5 -70t-89.5 -56t-99.5 -38.5t-99.5 -14.5q-83 0 -146 19.5t-108 55.5t-73 85.5t-41 111.5q-11 49 -11 104q0 13 1 26q3 69 19 145 q15 73 44.5 141t70.5 128t92 109.5t112.5 85t130 55.5t141.5 20q53 0 99 -14.5t83 -39.5t63.5 -58.5t43.5 -74.5l33 153h140l-206 -971q-26 -119 -71 -214t-115 -162t-166 -103t-225 -36q-52 0 -102 8t-93 25.5t-78.5 45.5t-59 64.5t-33.5 82.5q-6 26 -6 54q0 24 4 51z M326 390q4 -73 34 -131t86 -93t141 -35q82 0 149.5 35t121 93t90.5 132q36 73 54 152q11 51 14 103q1 17 1 34q0 34 -4 66q-6 48 -23.5 89.5t-48 72.5t-73.5 49q-45 18 -103 18t-109.5 -17.5t-95 -46.5t-80 -70t-64.5 -89t-47 -101q-19 -52 -30 -108q-14 -63 -14 -123 q0 -15 1 -30z" />
<glyph unicode="h" horiz-adv-x="1106" d="M126 0l311 1472h141l-111 -555q29 42 70 76.5t89.5 57t99.5 35.5q54 12 103 12q111 0 178.5 -29t100.5 -83q32 -54 34 -130q0 -8 1 -16q0 -70 -19 -155l-143 -685h-140l140 663q14 63 14 117v7q-1 57 -20.5 99.5t-63.5 65.5t-120 23q-73 0 -136.5 -27t-115 -74.5 t-88 -111.5t-54.5 -140l-131 -622h-140z" />
<glyph unicode="i" horiz-adv-x="427" d="M143 0l225 1064h140l-225 -1064h-140zM409 1253l47 219h140l-46 -219h-141z" />
<glyph unicode="j" horiz-adv-x="427" d="M-123 -385l24 116h25h51q33 0 56.5 10.5t40.5 31t27 46.5t16 58l251 1187h140l-245 -1157q-12 -59 -34 -113t-55.5 -94t-83 -64t-116.5 -24zM409 1253l47 219h140l-46 -219h-141z" />
<glyph unicode="k" horiz-adv-x="1055" d="M126 0l311 1472h141l-195 -913l673 505h191l-543 -398l343 -666h-177l-296 571l-224 -168l-84 -403h-140z" />
<glyph unicode="l" horiz-adv-x="427" d="M143 0l313 1472h140l-313 -1472h-140z" />
<glyph unicode="m" horiz-adv-x="1689" d="M126 0l224 1064h132l-24 -143q71 83 162.5 130t201.5 47q50 0 94.5 -11.5t78 -35t55.5 -59.5q22 -37 27 -87q36 50 79 86.5t91.5 60t99 35t100.5 11.5q171 0 240 -95q45 -60 45 -157q0 -56 -15 -125l-153 -721h-140l148 715q13 57 13 101v12q-2 48 -22.5 80t-62.5 50 q-43 17 -107 17q-79 0 -139 -31.5t-102 -83t-70 -118.5t-45 -140l-126 -602h-140l153 721q11 49 11 92v7q-1 46 -18.5 80t-54 54.5t-94.5 20.5q-79 0 -141 -29t-108 -80t-78 -121q-32 -68 -50 -149l-125 -596h-140z" />
<glyph unicode="n" horiz-adv-x="1118" d="M126 0l224 1064h141l-24 -143q41 50 83.5 84.5t88.5 54.5t95 29t101 9q114 0 182 -29t101 -83q34 -54 36 -130v-14q0 -71 -18 -157l-143 -685h-140l140 663q13 67 13 124t-21 99.5t-65.5 65.5t-120.5 23t-141 -27t-117 -74.5t-89 -111.5t-55 -140l-131 -622h-140z" />
<glyph unicode="o" horiz-adv-x="1135" d="M163 378q1 72 17 148q17 76 47 147.5t71.5 134t95 115t117 90t135.5 58.5t153 21q119 0 203 -45t131 -122.5t58 -180.5q4 -34 3 -69q0 -73 -16 -149q-17 -76 -47 -147.5t-71.5 -134t-95 -114t-117 -88t-136 -57t-152.5 -20.5q-79 0 -143 20.5t-111.5 57t-79.5 87.5 q-31 52 -47 114q-15 59 -15 126v8zM307 364q5 -78 36.5 -140.5t90.5 -100.5t150 -38t165 38t131 100t96.5 141.5t57.5 161.5q13 66 13 129q-1 17 -1 33q-4 80 -36 143t-90.5 100.5t-148.5 37.5q-91 0 -165.5 -37.5t-132 -100.5t-96 -142t-57.5 -163q-14 -66 -14 -128 q0 -17 1 -34z" />
<glyph unicode="p" horiz-adv-x="1181" d="M41 -388l309 1452h132l-34 -176q35 49 81 88.5t99.5 66t112 41t117.5 14.5q120 0 198 -46t120.5 -124t49.5 -180q1 -23 1 -46q0 -82 -18 -170q-23 -114 -74.5 -215.5t-127.5 -178.5t-173.5 -122t-217.5 -45q-55 0 -105.5 11.5t-92 37t-71.5 64.5t-45 90l-120 -562h-141z M362 424q-1 -15 -1 -30q0 -37 5 -72q8 -50 27 -92.5t52.5 -73t82.5 -48.5q47 -17 114 -17q59 0 110.5 17.5t95 48t79 73t63.5 92t47 102.5t30.5 107t14.5 109q2 19 2 37q0 34 -4 65q-7 49 -24.5 91.5t-47.5 74t-73.5 49.5t-102.5 18q-102 0 -179.5 -36.5t-131.5 -97 t-90 -140.5q-35 -82 -54 -170q-12 -54 -15 -107z" />
<glyph unicode="q" horiz-adv-x="1181" d="M179 317q-2 26 -2 53q0 77 17 161q25 114 76 216.5t127 180.5t175 124q97 46 216 46q56 0 108.5 -11t95 -35t73.5 -63q31 -40 48 -95l35 170h131l-307 -1452h-140l113 552q-35 -50 -81 -86.5t-98 -60.5t-108 -35t-110 -11q-120 0 -198 45t-120.5 122t-50.5 179zM321 424 q-1 -17 -1 -33q0 -36 4 -69q7 -50 24.5 -92.5t47.5 -73t74 -48t104 -17.5q67 0 123 17.5t103 48t83.5 73t64 92t46.5 103.5t31 106q12 54 16 109q1 19 1 38q0 34 -4 64q-7 49 -26 91.5t-52.5 74t-82 49.5t-115.5 18q-58 0 -109 -18t-95 -49.5t-80 -74t-63.5 -91t-47.5 -103 t-31 -108.5q-12 -54 -15 -107z" />
<glyph unicode="r" horiz-adv-x="662" d="M126 0l224 1064h132l-43 -217q38 57 85.5 101.5t103.5 75.5q54 30 118 44q53 12 110 13q12 0 23 -1l-29 -141q-11 1 -22 1q-74 0 -142 -24q-78 -27 -138 -77.5t-102.5 -120.5t-60.5 -150l-119 -568h-140z" />
<glyph unicode="s" horiz-adv-x="984" d="M137 353h140q-4 -27 -4 -51q0 -34 8 -62q14 -50 47.5 -83.5t82.5 -49.5q47 -16 109 -16q41 0 92 10t96 32.5t81 59.5q37 38 49 90q4 18 4 34q0 23 -8 42q-13 32 -39.5 52.5t-64.5 33.5t-79 25l-149 35q-58 15 -108.5 36t-83.5 54t-46 83q-6 23 -6 50q0 31 8 68 q11 52 37.5 96t63 77.5t80.5 57.5t92 40t96 23.5t95 7.5q77 0 140.5 -22t105.5 -66q42 -43 60 -109q9 -33 9 -73q0 -39 -8 -83h-141q6 30 6 55q0 27 -6 49q-12 43 -42.5 71.5t-74 41.5t-94.5 13q-40 0 -83.5 -9.5t-83 -29t-70 -53t-42.5 -81.5q-3 -16 -3 -30q0 -24 10 -42 q16 -28 44 -49t63 -32.5t67 -20.5l149 -38q61 -15 112 -38t85 -58.5t47 -85.5q6 -23 6 -49q0 -31 -8 -67q-11 -58 -39 -104t-66 -82t-84.5 -62t-98 -42.5t-103 -23.5t-99.5 -7q-91 0 -162.5 22t-117.5 68.5t-65 118.5q-11 44 -11 97q0 36 5 76z" />
<glyph unicode="t" horiz-adv-x="573" d="M204 945l24 119h181l70 317h140l-69 -317h215l-23 -119h-216l-149 -703q-6 -30 -8.5 -54t4.5 -41t24 -27q18 -9 48 -12q32 0 61.5 1.5t58.5 4.5l-28 -123l-61 -3h-58q-68 0 -110 12t-64 39.5t-24 74.5v9q0 45 14 108l151 714h-181z" />
<glyph unicode="u" horiz-adv-x="1106" d="M189 208q-1 15 -1 31q0 63 16 138l146 687h141l-146 -690q-10 -56 -10 -102q0 -11 1 -22q3 -54 27.5 -89t71.5 -52.5t121 -17.5q79 0 144 35t114 93t82 132.5t49 153.5l119 559h142l-225 -1064h-128l23 149q-41 -54 -84.5 -88.5t-92 -55t-101 -27.5t-110.5 -7 q-100 0 -163.5 27.5t-97 81.5t-38.5 128z" />
<glyph unicode="v" horiz-adv-x="944" d="M225 1064h158l131 -909l505 909h150l-616 -1064h-150z" />
<glyph unicode="w" horiz-adv-x="1503" d="M231 1064h152l81 -879l432 879h157l65 -882l449 882h153l-567 -1064h-151l-72 867l-431 -867h-152z" />
<glyph unicode="x" horiz-adv-x="984" d="M3 0l520 553q-66 129 -134.5 256t-134.5 255h168l212 -398l376 398h165l-484 -508l293 -556h-171l-232 442l-417 -442h-161z" />
<glyph unicode="y" horiz-adv-x="944" d="M20 -380l24 120q44 -9 93 -9q40 0 70 12t54 34t45 51t44 64l68 117l-193 1055h152l146 -882l502 882h144l-713 -1222q-44 -67 -79 -112t-70 -71.5t-79 -36.5t-105 -10q-41 0 -64.5 1.5t-38.5 6.5z" />
<glyph unicode="z" horiz-adv-x="950" d="M35 0l25 114l842 831h-619l25 119h805l-21 -97l-858 -847h699l-25 -120h-873z" />
<glyph unicode="{" horiz-adv-x="678" d="M266 488l26 119q44 0 78 28t60.5 73t45.5 103.5t32 118.5l63 302q12 59 34.5 107t53 81.5t68.5 51t83 17.5h107l-23 -120h-47q-29 0 -52.5 -17.5t-42.5 -45t-33 -64t-23 -77.5l-59 -283q-14 -72 -41 -128t-57.5 -97t-59.5 -68t-48 -41q11 -11 29.5 -35t31.5 -64 t17.5 -98.5t-13.5 -134.5l-59 -285q-9 -39 -12 -75.5t3.5 -64.5t22.5 -44t45 -16h47l-23 -119h-108q-91 0 -123 67.5t-9 189.5l65 297q13 59 18.5 117.5t-1.5 103.5t-29.5 73t-66.5 28z" />
<glyph unicode="|" horiz-adv-x="454" d="M158 -29l324 1518h120l-325 -1518h-119z" />
<glyph unicode="}" horiz-adv-x="678" d="M-6 -388l21 119h48q29 0 53 16t43 44t33.5 64.5t23.5 75.5l58 285q15 76 41.5 133t56.5 98.5t58 67t46 35.5q-12 11 -29.5 35t-30.5 64t-15 98q-4 57 14 135l61 283q9 39 11 76.5t-4.5 65t-24 45t-46.5 17.5h-47l23 120h108q47 0 77.5 -17.5t48 -51t19 -81.5t-9.5 -107 l-63 -302q-13 -61 -19.5 -118t0 -101.5t30 -72.5t66.5 -28l-26 -119q-45 0 -79.5 -28t-59 -73t-43.5 -102t-31 -119l-64 -300q-12 -62 -35.5 -109.5t-54 -80t-69.5 -50.5q-37 -17 -84 -17h-105z" />
<glyph unicode="~" horiz-adv-x="1224" d="M231 456q23 33 53.5 66t68.5 59t83 42q43 16 95 16q28 0 56.5 -5.5t57 -14.5t55.5 -20q27 -9 53 -21q51 -28 99.5 -49t86.5 -21q29 0 56.5 12.5t53.5 33t50.5 47.5t48.5 53l70 -83q-31 -34 -64 -66.5t-70 -58.5t-80 -42t-96 -16q-29 0 -57 6t-54 15t-50 21q-24 14 -48 26 q-24 11 -49 23t-50 21.5t-51 14.5t-56 5q-33 0 -61.5 -12.5t-53.5 -33.5t-46 -48q-22 -26 -40 -52z" />
<glyph unicode="&#xa2;" horiz-adv-x="1135" d="M207 330q-11 93 9 196q15 68 42.5 133t66.5 123.5t87.5 108t105.5 89t121.5 66t131.5 37.5l39 181h92l-35 -175q79 -4 142.5 -31t106.5 -74t63 -114t11 -155h-140q0 54 -14 98t-40.5 77t-65.5 52t-89 25l-187 -879q53 5 105.5 29.5t97 63.5t79.5 91t54 113h140 q-32 -93 -83 -169t-116 -130t-142 -84.5t-161 -33.5l-44 -207h-93l43 207q-93 17 -163 68.5t-111 126t-53 167.5zM347.5 385.5q5.5 -70.5 30.5 -130t71.5 -103.5t112.5 -61l186 873q-73 -18 -137.5 -62t-117 -103.5t-87.5 -130.5q-35 -72 -50 -142q-14 -70 -8.5 -140.5z" />
<glyph unicode="&#xa3;" horiz-adv-x="1135" d="M93 88q56 38 107 78t93.5 86.5t71.5 99.5q29 54 41 112q4 21 6.5 47t1 54t-5.5 55q-5 25 -11 46h-169l14 79h123q-13 38 -24 75.5t-17 75.5t-6 79t12 86q16 75 46 136.5t72.5 108t95 81.5t109.5 57.5t117 33.5q59 11 121 11q113 0 196.5 -35t131.5 -99t61 -156 q11 -92 -16 -206h-140q18 82 11.5 150.5t-38 119.5t-89.5 78.5t-141 27.5q-63 0 -126.5 -18.5t-119 -58t-96 -99.5t-58.5 -140q-6 -32 -7.5 -58t1 -48.5t8.5 -42.5q7 -19 13 -40q9 -24 15.5 -42t11.5 -31.5t8 -24t3 -21.5h327l-15 -79h-282q6 -18 8.5 -42t2.5 -50t-2.5 -52 t-5.5 -43q-11 -54 -36.5 -101.5t-59.5 -90.5t-74.5 -81t-83.5 -72q43 18 79.5 29t79.5 11q30 0 56 -3t51 -9t49.5 -15.5t51.5 -20.5q36 -15 73.5 -25t85.5 -10q29 0 63.5 8.5t68 25.5t66.5 38q34 21 60 47l56 -111q-44 -32 -83.5 -56t-80.5 -40t-84.5 -24t-91.5 -8 q-66 0 -115.5 10t-90.5 28q-18 9 -40 16t-47.5 14.5t-54 11t-57.5 3.5q-26 0 -52.5 -5t-49.5 -14t-46 -20q-21 -11 -42 -21l-52 -29z" />
<glyph unicode="&#xa5;" horiz-adv-x="1135" d="M292 353l22 105h276l29 144l-9 14h-263l24 102h213l-276 742h159l251 -736l564 736h156l-588 -742h217l-23 -102h-276q-2 -1 -2.5 -3.5t-3.5 -5.5t-3 -5l-29 -144h280l-20 -105h-280l-76 -353h-141l75 353h-276z" />
<glyph unicode="&#xa9;" horiz-adv-x="1632" d="M187 522.5q-6 99.5 17.5 207.5t71 206.5t114 184t151 154t179.5 118t200 76t213 26.5q109 0 202 -26.5t168 -76t129 -118t84 -154t36 -184t-17.5 -206.5t-70 -207.5t-113 -184t-150.5 -154t-179 -118t-200 -75t-215 -26.5q-108 0 -201.5 26.5t-167.5 75t-129 118 t-85.5 154t-36.5 184zM320.5 556.5q3.5 -82.5 29 -154.5t70 -130.5t106 -100t139 -64t167.5 -22.5q91 0 177.5 22.5t166.5 64t150 100t126 130.5t95.5 154.5t58.5 173.5q19 89 15.5 171.5t-30 154t-71 130t-106.5 101t-139.5 65.5t-167.5 23q-91 0 -178 -23t-166.5 -65.5 t-148.5 -101t-124.5 -130t-96 -154.5t-57.5 -171q-19 -91 -15.5 -173.5zM572 539q-8 86 12 179q19 94 62 178.5t109 147.5t149 100q86 37 185 37q70 0 125.5 -19t93 -57.5t55.5 -96.5t12 -135h-114q-1 48 -12 87t-34.5 65t-60 40.5t-87.5 14.5q-76 0 -137 -31t-108 -81.5 t-78.5 -116.5t-44.5 -133q-14 -68 -10.5 -133t28.5 -116t74 -82q47 -31 123 -31q48 0 94 17.5t84 50.5t67 77.5t47 100.5h115q-26 -79 -69 -143.5t-98.5 -109.5t-121 -68.5t-138.5 -23.5q-100 0 -168.5 36.5t-106.5 99.5t-47 146z" />
<glyph unicode="&#xab;" horiz-adv-x="870" d="M222 493l26 138l342 263l-34 -158l-223 -174q38 -41 75 -87q39 -46 74 -87l-34 -160zM550 493l28 138l339 263l-32 -158l-225 -174q38 -41 76 -87t74 -87l-33 -160z" />
<glyph unicode="&#xad;" horiz-adv-x="858" d="M188 458l28 120h672l-27 -120h-673z" />
<glyph unicode="&#xae;" horiz-adv-x="1632" d="M187 522.5q-6 99.5 17.5 207.5t71 206.5t114 184t151 154t179.5 118t200 76t213 26.5q109 0 202 -26.5t168 -76t129 -118t84 -154t36 -184t-17.5 -206.5t-70 -207.5t-113 -184t-150.5 -154t-179 -118t-200 -75t-215 -26.5q-108 0 -201.5 26.5t-167.5 75t-129 118 t-85.5 154t-36.5 184zM320.5 556.5q3.5 -82.5 29 -154.5t70 -130.5t106 -100t139 -64t167.5 -22.5q91 0 177.5 22.5t166.5 64t150 100t126 130.5t95.5 154.5t58.5 173.5q19 89 15.5 171.5t-30 154t-71 130t-106.5 101t-139.5 65.5t-167.5 23q-91 0 -178 -23t-166.5 -65.5 t-148.5 -101t-124.5 -130t-96 -154.5t-57.5 -171q-19 -91 -15.5 -173.5zM596 283l187 892h344q152 0 207.5 -63.5t29.5 -187.5q-12 -58 -38.5 -101t-61.5 -74t-78 -50q-41 -19 -88 -26l178 -390h-143l-166 390h-171l-81 -390h-119zM819 777h139q48 0 94 3.5t85.5 17.5t67 44 t39.5 82q9 44 -2 72.5t-36 44.5t-60 22.5t-73 6.5h-191z" />
<glyph unicode="&#xbb;" horiz-adv-x="870" d="M188 228l34 160l220 174l-146 174l34 158l226 -263l-27 -138zM517 228l33 160l221 174l-146 174l32 158l228 -263l-27 -138z" />
<glyph unicode="&#xbc;" horiz-adv-x="1703" d="M299 0l1176 1460h119l-1172 -1460h-123zM326 1121l24 105q54 3 98.5 10.5t81 28t67.5 57.5t54 102h102l-188 -884h-117l139 647q-53 -35 -118.5 -49t-142.5 -17zM914 204l22 95l562 583h105l-123 -580h138l-21 -98h-137l-42 -204h-117l42 204h-429zM1058 302h306l87 408z " />
<glyph unicode="&#xbd;" horiz-adv-x="1703" d="M299 0l1179 1460h119l-1175 -1460h-123zM326 1121l24 105q54 3 98.5 10.5t81 28t67.5 57.5t54 102h102l-188 -884h-117l139 647q-53 -35 -118.5 -49t-142.5 -17zM972 0q18 73 53 128.5t83 98t106 77.5q59 35 118 67q26 14 56.5 30.5t62 35.5t61.5 40.5t54.5 47t42 55.5 t23.5 62q9 38 -2 67.5t-34.5 50t-57.5 31.5t-72 11q-53 0 -93.5 -20t-71.5 -51.5t-50 -73t-28 -86.5h-113q14 73 45 133.5t79 104.5t112 67t146 23q67 0 121 -16t87.5 -48t47 -81.5t-1.5 -116.5q-12 -56 -41 -101t-68.5 -81.5t-85.5 -67.5q-44 -31 -91 -54 q-131 -63 -214.5 -119t-121.5 -115h502l-20 -99h-634z" />
<glyph unicode="&#xbe;" horiz-adv-x="1703" d="M271.5 745.5q-8.5 57.5 11.5 130.5h111q-11 -47 -5.5 -86.5t27.5 -67t58 -43.5t85 -16q41 0 82 11.5t76.5 33t61 52.5t34.5 72q9 40 -2 69t-36 48.5t-60.5 30t-77.5 10.5h-78l22 96h76q31 0 63.5 8t62 25t51.5 43t27 61q8 36 -1.5 63t-31 45t-52.5 27t-66 9 q-47 0 -86.5 -15.5t-70 -43.5t-51.5 -66q-20 -39 -29 -83h-111q15 64 47 119.5t78.5 96t106.5 63t133 22.5q58 0 109.5 -13t86.5 -41t49.5 -71.5t2.5 -105.5q-6 -29 -20.5 -58t-35 -54t-47.5 -45q-28 -21 -62 -32q73 -21 101.5 -73.5t12.5 -128.5q-14 -67 -51.5 -117.5 t-89.5 -84.5t-115.5 -51t-130.5 -17q-76 0 -133 20.5t-90.5 60t-42 97zM451 0l1178 1460h120l-1175 -1460h-123zM1002 204l20 95l564 583h103l-122 -580h138l-22 -98h-137l-42 -204h-117l42 204h-427zM1145 302h306l85 408z" />
<glyph unicode="&#xd7;" horiz-adv-x="1013" d="M48 96l483 418l-303 419l102 83l301 -417l484 417l66 -83l-487 -419l308 -418l-100 -81l-306 416l-479 -416z" />
<glyph unicode="&#xf7;" horiz-adv-x="1224" d="M194 456l25 118h1028l-24 -118h-1029zM512.5 61q-4.5 22 1.5 47q6 26 20 48t33.5 37.5t43.5 24.5q23 10 49 10q25 0 44.5 -9.5t32.5 -25t17.5 -37.5t-1.5 -48q-4 -23 -18 -45t-33 -38t-42 -26.5t-47 -10.5q-26 0 -48 9.5t-35 25.5t-17.5 38zM686.5 871q-4.5 21 1.5 46 q6 26 19.5 49.5t32.5 39.5t42.5 25t49.5 9q25 0 44.5 -9t33 -26t17.5 -39.5t0 -48.5q-6 -23 -19.5 -44.5t-34 -38t-44 -26t-46.5 -9.5q-27 0 -47.5 9.5t-32.5 25.5t-16.5 37z" />
<glyph unicode="&#xe01;" horiz-adv-x="1258" d="M149 0l137 654q6 32 11 65t1.5 62t-18 53t-43.5 42q32 70 86 138t131 121t178.5 85.5t228.5 32.5q106 0 181.5 -20t127 -55t80.5 -82.5t40.5 -105t7.5 -121t-19 -130.5l-155 -739h-149l161 765q9 44 11.5 88.5t-5.5 84.5t-27.5 76t-56 61.5t-92 41.5t-131.5 16 q-99 0 -175 -26.5t-131.5 -65.5t-90 -83t-50.5 -79q44 -29 54.5 -87.5t-5.5 -140.5l-138 -651h-150z" />
<glyph unicode="&#xe02;" horiz-adv-x="1024" d="M257 1124l23 102h291l-6 -1112h3l466 1112h162l-542 -1226h-226l-13 1124h-158z" />
<glyph unicode="&#xe03;" horiz-adv-x="1124" d="M236.5 202.5q-17.5 74.5 2.5 171.5l12 51q10 49 21 88t24.5 68t29.5 54t37 47t49 44q29 22 64 48t71 54t65.5 57t51.5 62.5t30 71.5l13 64q-9 -14 -25 -31t-41 -31t-60 -22.5t-82 -8.5q-32 0 -70 10t-68 36.5t-46 72.5q-17 47 -10 117h132q-2 -26 4.5 -51t20.5 -43.5 t37.5 -29t53.5 -10.5q32 0 60 9.5t52 27t42 42.5q17 26 29 55h137l-48 -224q-6 -30 -24 -58.5t-46 -57.5t-66 -60.5t-82 -66.5q-41 -35 -73 -66.5t-54.5 -62.5t-38 -65.5t-26.5 -76.5l-15 -73q-15 -76 -7.5 -134.5t35.5 -99.5t73 -61.5t103 -20.5q57 0 107 14t91.5 48.5 t72.5 91.5q30 57 49 144l177 829h149l-183 -852q-20 -102 -67.5 -179t-113 -126.5t-145.5 -73.5t-167 -24q-86 0 -157 27t-117 78.5t-63.5 126z" />
<glyph unicode="&#xe04;" horiz-adv-x="1287" d="M134 0l152 730q15 66 38 130t58.5 122t83.5 107.5t113 86t147.5 57t184.5 20.5t175 -20.5t121.5 -57t75.5 -86t37 -107.5t5 -123t-18 -129l-154 -730h-149l158 759q9 44 12 88.5t-4.5 86t-26.5 78t-54 63t-84.5 42.5t-119.5 16t-128 -16t-104 -42.5t-81 -63t-60.5 -78 t-42 -86t-27.5 -88.5l-59 -292l-3 -3q52 76 109 123t118.5 73t124 36.5t124.5 10.5l-27 -120q-108 0 -195.5 -35t-152.5 -98.5t-109 -153.5t-67 -201l-22 -99h-149z" />
<glyph unicode="&#xe05;" horiz-adv-x="1303" d="M134 0l165 777q18 84 49.5 161.5t82.5 139.5t126 105t182 61l140 -174l201 174q101 -15 160 -58.5t85.5 -106.5t26.5 -140.5t-18 -161.5l-165 -777h-150l165 777q9 42 14 90t-2.5 92.5t-33.5 84t-76 66.5l-239 -196q-9 -6 -9 0l-162 196q-58 -24 -97.5 -63.5t-65 -84.5 t-41 -93t-24.5 -92l-65 -310l-3 -3q54 67 107 112.5t110 74.5t120 42.5t139 13.5l-27 -120q-102 0 -188 -35t-153.5 -98.5t-113.5 -153.5t-69 -201l-22 -99h-149z" />
<glyph unicode="&#xe06;" horiz-adv-x="1249" d="M143 0l91 425q8 47 16 81t17.5 62t23 49.5t32.5 42t48 43.5t68 50q53 38 93 67.5t68 60.5t45.5 67t24.5 86l6 33q-12 -14 -32.5 -29t-44.5 -25.5t-52.5 -16.5t-55.5 -6q-24 0 -48.5 4.5t-49.5 14.5t-46 27.5t-36.5 44t-22.5 61.5q-8 38 -2 84h132q-2 -26 4.5 -51 t21 -43.5t37.5 -29.5q21 -10 53 -10q65 0 113 36.5t71 97.5h138l-49 -224q-11 -41 -30 -74.5t-46 -64.5t-62 -61.5t-76 -65.5q-29 -24 -53.5 -41.5t-43.5 -35t-34 -35t-27 -39t-22 -49.5t-19 -66q-16 -71 -3.5 -139t52 -120.5t104.5 -83.5q66 -31 157 -31q71 0 128 20.5 t100 58.5t71.5 93.5t43.5 122.5l179 835h149l-172 -811q-20 -98 -59 -180t-99.5 -141t-143.5 -92.5t-194 -33.5q-65 0 -124.5 12.5t-110 39.5t-88.5 69t-58 102v3q-9 -49 -23 -96.5t-23 -97.5h-137z" />
<glyph unicode="&#xe07;" horiz-adv-x="902" d="M185 704h157l67 -524q3 -24 13 -40.5t24.5 -28.5t32 -17.5t35.5 -5.5q29 0 55.5 10t46 27.5t32 41t18.5 49.5l192 905h-182l23 105h329l-206 -969q-18 -79 -49 -133t-75 -89t-98 -49.5t-115 -14.5q-60 0 -101 14.5t-68 43t-41.5 68.5t-20.5 91z" />
<glyph unicode="&#xe08;" horiz-adv-x="1081" d="M254 908q26 76 73 139.5t117 108t162 69.5t207 25q123 0 201 -33.5t116 -92t43 -134.5q4 -76 -17 -161q-11 -46 -35.5 -106t-58.5 -128.5t-77 -142.5t-90.5 -150.5t-97 -152.5t-98.5 -149h-197l-87 596h-158l20 103h273l78 -585q38 61 79 125.5t78.5 130t73 128.5 t64.5 122.5t50 112t31 96.5q17 63 14.5 118t-28.5 95.5t-79 64t-137 23.5q-143 0 -232 -57t-124 -165h-164z" />
<glyph unicode="&#xe09;" horiz-adv-x="1276" d="M201 234q0 81 21 181l50 236h150l-57 -260q-13 -67 -5 -121t38 -93.5t79 -60t119 -20.5q106 0 191 31t148.5 88t105.5 135.5t63 175.5l46 233q9 44 12 88.5t-4.5 85.5t-27.5 76.5t-55 62t-88 41t-126 14.5q-93 0 -161 -20.5t-115.5 -52.5t-76.5 -70t-44 -73h-162 q26 67 73.5 128.5t118.5 107.5t168 73t223 27q105 0 181 -20t125.5 -55t77 -82.5t39.5 -105t7.5 -121t-17.5 -130.5l-156 -733h-138l33 194q-49 -61 -107 -104t-123 -71t-134 -39.5t-136 -11.5q-121 0 -193 33t-106.5 92t-36.5 141z" />
<glyph unicode="&#xe0a;" horiz-adv-x="1081" d="M191 380l31 137q10 47 19.5 82t20.5 61t24 47.5t30.5 41t40.5 41.5t52 51q29 26 51 45t39.5 36.5t30 35t20.5 41.5q30 73 4.5 106.5t-96.5 33.5q-46 0 -86 -11q-39 -10 -76 -24l21 95q23 8 51.5 16t56.5 15t52.5 10.5t39.5 3.5q117 0 163.5 -58.5t18.5 -169.5 q-5 -20 -13.5 -36t-20 -32.5t-27 -33t-36.5 -37.5t-50 -50.5t-67 -67.5q-31 -33 -48 -58.5t-27 -50t-16 -50t-14 -60.5l-27 -118q-14 -76 -5.5 -135t38 -100t76 -61.5t106.5 -20.5q58 0 111.5 15.5t97.5 51t76 92.5t49 139l22 99q15 64 16.5 109.5t-8 75.5t-28.5 46.5 t-47 24.5t-63 10.5t-76 2.5h-39l25 114h38q81 3 142 27.5t105.5 70t73.5 106.5t47 137h149q-12 -39 -26 -80.5t-33.5 -81t-46 -76t-63 -65.5t-83.5 -52q-46 -21 -108 -33q57 -7 94.5 -28.5t58 -50t29 -62.5t8.5 -68.5t-5 -67t-11 -59.5l-26 -122q-21 -103 -72 -179.5 t-119.5 -126t-149.5 -73.5t-165.5 -24t-156.5 26t-121.5 76.5t-70.5 125.5t-1 175z" />
<glyph unicode="&#xe0b;" horiz-adv-x="1090" d="M200 380l13 45q10 49 21 86.5t24.5 67.5t29.5 53.5t37.5 46t48.5 44.5q28 22 63 51t66 56.5t57.5 56t44 61.5t26.5 71l11 64q-4 -8 -18.5 -23.5t-38.5 -31t-57 -26.5q-32 -12 -72 -12q-22 0 -45.5 4.5t-44.5 14.5t-40 27.5t-31 44t-17 61.5q-6 38 -1 84h132q-2 -26 2 -51 t15.5 -43.5t30.5 -29t51 -10.5q63 0 103 36.5t62 97.5h137l-48 -224q-6 -30 -20.5 -57.5t-38 -56t-57 -60t-78.5 -69.5q-41 -35 -72.5 -66.5t-54.5 -62.5t-39.5 -65.5t-24.5 -76.5l-15 -66q-16 -76 -6.5 -135t38.5 -100t76 -61.5t108 -20.5q59 0 111.5 15.5t96 51t76 92.5 t49.5 139l22 99q15 64 17 109.5t-7.5 75.5t-28.5 46.5t-46.5 24.5t-63.5 10.5t-77 2.5l23 114q82 3 142.5 27.5t105 70t74 106.5t46.5 137h149q-11 -39 -24.5 -80.5t-34 -81t-46.5 -76t-62.5 -65.5t-83.5 -52q-47 -21 -108 -33q57 -7 94.5 -28.5t57.5 -50t29 -62.5 t9.5 -68.5t-4.5 -67t-11 -59.5l-27 -122q-21 -103 -72 -179.5t-119.5 -126t-149.5 -73.5t-165 -24t-156.5 26t-122 76.5t-70 125.5t-1.5 175z" />
<glyph unicode="&#xe0c;" horiz-adv-x="1940" d="M149 0l137 648q6 32 11 63t1.5 58.5t-18 54t-43.5 52.5q33 70 86.5 138t129.5 121t173.5 87t220.5 34q99 0 170 -20t120 -55t76.5 -82.5t38.5 -105t7.5 -121t-18.5 -130.5l-51 -240q-18 -84 -11 -157t37.5 -127t87.5 -85t140 -31q61 0 110 22t86.5 61.5t62 93.5t37.5 118 l177 829h149l-174 -804q-19 -92 -52 -174t-86 -143t-128 -96t-179 -35q-57 0 -107.5 10t-92 36.5t-75 68t-54.5 102.5l-45 -191h-137l162 768q9 44 12 88.5t-4.5 84.5t-27.5 76t-54 61.5t-84.5 41.5t-120.5 16q-90 1 -162.5 -23t-126 -62.5t-89 -85.5t-53.5 -89 q27 -15 40 -38t17.5 -53t0.5 -64.5t-12 -75.5l-114 -534h138l-21 -111h-288z" />
<glyph unicode="&#xe0d;" horiz-adv-x="1940" d="M149 0l137 648q6 32 11 63t1.5 58.5t-18 54t-43.5 52.5q33 70 86.5 138t129.5 121t173.5 87t220.5 34q99 0 170 -20t120 -55t76.5 -82.5t38.5 -105t7.5 -121t-18.5 -130.5l-51 -240q-13 -64 -11.5 -118t22 -93.5t59.5 -61.5t101 -22q83 0 152.5 31t124 85t92 127 t54.5 157l133 619h149l-197 -921q-18 -87 -40 -154.5t-46.5 -118.5t-49.5 -88t-50 -64q-46 -52 -96.5 -85.5t-104.5 -55t-112.5 -30t-116.5 -8.5q-76 0 -142 18t-114.5 56t-75.5 93.5t-27 131.5h159q4 -99 62.5 -145t157.5 -46q64 0 119 15t99.5 41.5t79 63t60 77.5t41.5 86 q19 45 27 90l27 114q-48 -61 -98.5 -103.5t-103 -68t-108 -36.5t-112.5 -11q-69 0 -118.5 16.5t-83 46t-51 70.5t-23.5 90.5t0 106.5t19 119l51 242q9 44 12 88.5t-4.5 84.5t-27.5 76t-54 61.5t-84.5 41.5t-120.5 16q-90 1 -162.5 -23t-126 -62.5t-89 -85.5t-53.5 -89 q27 -15 40 -38t17.5 -53t0.5 -64.5t-12 -75.5l-114 -534h138l-21 -111h-288z" />
<glyph unicode="&#xe0e;" horiz-adv-x="1281" d="M44 0l22 111h128l117 543q6 32 11 65t0.5 62t-18 53t-44.5 42q32 70 86 138t131.5 121t179.5 85.5t228 32.5q105 0 181 -20t127 -55t80 -82.5t41 -105t7.5 -121t-17.5 -130.5l-243 -1136h-165q-11 29 -37.5 52.5t-63.5 41t-84.5 27.5t-100.5 10q-55 0 -113 -14.5 t-109 -36.5t-91 -48t-60 -50l29 146q17 12 54.5 31.5t87 38.5t108.5 33t118 14q61 0 109 -9.5t85.5 -24.5t66 -34t47.5 -40l217 1025q9 44 12 88.5t-5 84.5t-28 76t-56.5 61.5t-92 41.5t-131.5 16q-99 0 -175 -26.5t-130.5 -65.5t-89 -83t-51.5 -79q44 -29 54 -87.5 t-5 -140.5l-138 -651h-279z" />
<glyph unicode="&#xe0f;" horiz-adv-x="1281" d="M12 -397q19 61 50 108t72 79t88 49.5t98 17.5q33 0 65.5 -7.5t58.5 -25t46.5 -46.5t29.5 -70q28 44 60.5 73t66 45t66.5 24q32 7 61 7q61 0 102 -25t69 -77l214 1010q9 44 12 88.5t-5 84.5t-28 76t-56.5 61.5t-92 41.5t-131.5 16q-99 0 -175 -26.5t-130.5 -65.5t-89 -83 t-51.5 -79q44 -29 54 -87.5t-5 -140.5l-138 -651h-279l22 111h128l117 543q6 32 11 65t0.5 62t-18 53t-44.5 42q32 70 86 138t131.5 121t179.5 85.5t228 32.5q105 0 181 -20t127 -55t80 -82.5t41 -105t7.5 -121t-17.5 -130.5l-243 -1136h-156q-6 31 -16 56.5t-27.5 45 t-44.5 30.5t-67 11q-38 0 -67 -13t-52.5 -33.5t-39.5 -46.5q-16 -24 -26 -50h-137q-3 26 -8 51.5t-19 47t-36.5 34.5t-59.5 13q-29 0 -53 -12.5t-45.5 -33t-37.5 -46.5q-17 -25 -26 -54h-131z" />
<glyph unicode="&#xe10;" horiz-adv-x="1096" d="M-44 -385q12 57 38 101.5t62.5 75.5t80.5 48t91 17q23 0 48 -5t48 -18.5t39.5 -36t21.5 -60.5q21 38 50 61.5t58.5 36.5t55.5 17.5t44 4.5q23 -2 43.5 -8.5t39.5 -18t33 -29.5q15 -17 21 -40l29 134h140l-58 -280h-147q-6 27 -12.5 51t-20 43t-35.5 29.5t-55 10.5 q-26 0 -49.5 -10.5t-42.5 -29.5t-33 -43t-18 -51h-142q6 26 5.5 50.5t-9.5 43.5t-27 31t-44.5 12t-50 -13t-39.5 -33.5t-27.5 -44t-16.5 -46.5h-121zM254 908q26 76 73 139.5t117 108t162 69.5t207 25q50 0 93.5 -6t80.5 -18q41 3 74.5 15.5t61 31t46 41.5t27.5 50h165 q-9 -27 -29.5 -54.5t-54 -54t-79.5 -48.5q-45 -23 -106 -38q32 -29 51 -66t26.5 -81t3.5 -93q-5 -50 -17 -100q-11 -46 -35.5 -106t-58.5 -128.5t-77 -142.5t-90.5 -150.5t-97 -152.5t-98.5 -149h-197l-87 596h-158l20 103h273l78 -585q38 61 79 125.5t78.5 130t73 128.5 t64.5 122.5t50 112t31 96.5q17 63 14.5 118t-28.5 95.5t-79 64t-137 23.5q-143 0 -232 -57t-124 -165h-164z" />
<glyph unicode="&#xe11;" horiz-adv-x="1258" d="M158 0l79 371q8 45 17 80t19 63.5t22.5 53.5t32 49.5t47 51t64.5 61.5q40 35 72 62t57 51t44.5 46t35 49t27 60t21.5 75q-20 -26 -45.5 -41.5t-53.5 -24t-55.5 -11.5t-48.5 -3q-19 0 -41.5 4.5t-45.5 14.5t-43.5 27t-36 42.5t-22.5 60.5q-6 38 -2 84h137q-2 -26 3 -51 t18 -43.5t35 -29t55 -10.5q30 0 58.5 9.5t51.5 27t41 42.5q17 26 29 55h137l-38 -176q79 58 140.5 95.5t107.5 59t80 30.5t61 9q46 0 75.5 -14.5t44 -44t13 -74.5t-13.5 -107l-213 -1004h-149l212 1004q6 30 9.5 48t3.5 30t-6.5 17t-21.5 5q-23 0 -60 -16t-84 -44 t-99.5 -64.5t-107.5 -79t-109.5 -89t-104.5 -90.5q-38 -35 -65.5 -61t-49.5 -49.5t-36.5 -45.5t-27 -48t-22 -58.5t-18.5 -75.5l-80 -383h-150z" />
<glyph unicode="&#xe12;" horiz-adv-x="2014" d="M134 0l158 753q18 84 50.5 163.5t86 146t131 114.5t185.5 67l131 -174l194 174q67 -12 115.5 -37.5t79.5 -61t48 -81t22 -95t0 -105t-17 -111.5l-54 -251q-17 -84 -10.5 -157t38 -127t88.5 -85t138 -31q62 0 111.5 22t86 61.5t61.5 93.5t38 118l176 829h149l-172 -804 q-19 -92 -52.5 -174t-87 -143t-128.5 -96q-76 -35 -179 -35q-57 0 -107 10t-92.5 36.5t-74.5 68t-54 102.5l-45 -191h-138l165 777q12 57 14 108t-9.5 92.5t-38.5 73.5t-71 53l-223 -190q-5 -3 -1 -2q4 -1 4 2l-168 190q-50 -22 -88.5 -55t-66.5 -74t-47 -90.5t-32 -107.5 l-128 -597l425 413h-135l21 103h302l-22 -97l-612 -599h-165z" />
<glyph unicode="&#xe13;" horiz-adv-x="1940" d="M149 0l137 648q6 32 11 63t1.5 58.5t-18 54t-43.5 52.5q33 70 86.5 138t129.5 121t173.5 87t220.5 34q99 0 170 -20t120 -55t76.5 -82.5t38.5 -105t7.5 -121t-18.5 -130.5l-72 -345q-14 -64 -12 -118t22.5 -93.5t60 -61.5t100.5 -22q84 0 153 31t123 85t90.5 127 t54.5 157l156 724h149l-260 -1226h-137l33 191q-48 -61 -98.5 -102.5t-103 -68t-106.5 -36.5t-112 -10q-69 0 -118 16t-82.5 45t-51 70t-24 91.5t-1.5 107.5t17 118l76 346q9 44 12 88.5t-4.5 84.5t-27.5 76t-54 61.5t-84.5 41.5t-120.5 16q-90 1 -162.5 -23t-126 -62.5 t-89 -85.5t-53.5 -89q27 -15 40 -38t17.5 -53t0.5 -64.5t-12 -75.5l-114 -534h138l-21 -111h-288z" />
<glyph unicode="&#xe14;" horiz-adv-x="1297" d="M134 0l152 727q15 70 39.5 136t60.5 123.5t85 106.5t113 84t146 54t181 19q101 0 174.5 -19t123.5 -54t79 -84t39 -106.5t7 -124.5q-4 -65 -19 -135l-153 -727h-149l159 748q9 46 12.5 93.5t-3.5 90.5t-26 79t-54 63t-87.5 41.5t-125.5 14.5q-111 0 -188.5 -33t-130 -86 t-82.5 -122.5t-45 -140.5l-122 -568l433 419h-140l21 97h302l-22 -97l-618 -599h-162z" />
<glyph unicode="&#xe15;" horiz-adv-x="1318" d="M134 0l158 753q18 84 50.5 163.5t86 146t131 114.5t185.5 67l143 -174l207 174q67 -12 115.5 -37.5t79 -61t48 -81t22 -95t0 -105t-16.5 -111.5l-159 -753h-150l165 777q11 57 13.5 108t-9.5 92.5t-38 73.5t-70 53l-237 -190q-8 -6 -8 0l-168 190q-50 -22 -88.5 -55 t-66.5 -74t-47 -90.5t-32 -107.5l-128 -597l439 419h-137l20 97h303l-21 -97l-625 -599h-165z" />
<glyph unicode="&#xe16;" horiz-adv-x="1255" d="M158 0l138 654q6 32 10.5 65t1 62t-18.5 53t-44 42q32 70 86 138t131.5 121t177 85.5t224.5 32.5q104 0 179 -20t125.5 -55t79 -82.5t40 -105t7.5 -121t-19 -130.5l-155 -739h-149l161 765q9 44 12 88.5t-4.5 84.5t-28 76t-56 61.5t-89.5 41.5q-53 16 -129 16 q-96 0 -171.5 -26.5t-130 -65.5t-89.5 -83t-50 -79q44 -29 54 -87.5t-6 -140.5l-115 -543h137l-22 -108h-287z" />
<glyph unicode="&#xe17;" horiz-adv-x="1270" d="M134 0l260 1226h149l-44 -201q59 70 118 114.5t119.5 68.5t122 33t128.5 9q111 0 182.5 -32t109.5 -90.5t44 -141t-16 -182.5l-171 -804h-149l169 804q32 155 -22 236t-201 81q-107 0 -191.5 -33.5t-147.5 -90.5t-103.5 -135.5t-59.5 -167.5l-148 -694h-149z" />
<glyph unicode="&#xe18;" horiz-adv-x="1156" d="M188 345l49 226h148l-46 -226q-15 -72 2 -121t55.5 -78t92.5 -41t113 -12q52 0 109 10.5t109.5 38t93.5 76t58 127.5q9 40 11.5 69.5t-5 53t-27.5 43t-56.5 38.5t-93 40t-138.5 48q-83 26 -152.5 56t-117.5 68.5t-68.5 88t-4.5 117.5q11 52 38 92t65 71.5t83.5 54 t95 37.5t100.5 21.5t100 6.5q99 0 180 -18.5t136.5 -58.5t80 -103t13.5 -153h-159q5 61 -11 102t-50 67.5t-84 37t-112 12.5q-60 1 -114 -10t-96.5 -32t-70.5 -52q-27 -32 -36 -70q-7 -33 5 -61.5t37 -52t58.5 -41t68.5 -32t67.5 -25.5t55.5 -18q76 -24 136.5 -45t105 -43.5 t73.5 -49t43 -63t15 -84.5t-14 -112q-20 -100 -74 -169t-128.5 -113t-165 -63.5t-184.5 -19.5q-96 0 -176.5 20t-135 64t-77.5 112.5t-1 168.5z" />
<glyph unicode="&#xe19;" horiz-adv-x="1270" d="M207 239.5q-6 81.5 15 182.5l172 804h149l-172 -804q-32 -155 22 -236t203 -81q106 0 190 33t147 90.5t104 135.5q40 77 61 167l149 695h149l-260 -1226h-149l41 200q-59 -70 -117 -114.5t-119 -68.5t-123 -32t-129 -8q-111 0 -182.5 32t-108 90.5t-42.5 140z" />
<glyph unicode="&#xe1a;" horiz-adv-x="1270" d="M220 365q5 64 19 131l155 730h149l-160 -756q-9 -44 -13 -90t3 -87.5t26 -78.5t52.5 -65t83 -43t119.5 -15t126.5 15t101 43t78 65t58 78.5t41.5 87.5q18 46 27 90l161 756h149l-155 -730q-15 -67 -36.5 -131t-56 -122.5t-82 -108t-110 -84.5t-143 -55.5t-182.5 -20.5 t-175 20.5t-121.5 55.5t-74.5 84.5t-35.5 108t-4.5 122.5z" />
<glyph unicode="&#xe1b;" horiz-adv-x="1276" d="M220.5 365q4.5 64 18.5 131l155 730h149l-160 -756q-9 -44 -12 -90t3.5 -87.5t25.5 -78.5t53.5 -65t84 -43t119.5 -15t127 15t101.5 43t79 65t59 78.5t41.5 87.5q18 46 27 90l275 1294h148l-268 -1268q-15 -67 -37.5 -131t-57 -122.5t-81 -108t-111 -84.5t-144.5 -55.5 t-182.5 -20.5t-176 20.5t-122.5 55.5t-75 84.5t-35 108t-4.5 122.5z" />
<glyph unicode="&#xe1c;" horiz-adv-x="1357" d="M191 174q-7 68 13 159l190 893h318l-24 -105h-168l-161 -765q-17 -76 -17 -127t13 -81.5t40.5 -42.5t65.5 -12q50 0 86 23.5t63 64.5t45 99.5t33 125.5l42 190h149l-41 -190q-15 -69 -19 -126.5t6 -98.5t38 -64.5t79 -23.5q38 0 68 12t54.5 42.5t45.5 81.5q20 51 38 127 l186 870h149l-192 -893q-19 -91 -53 -158t-78.5 -111t-98.5 -64t-109 -20q-38 0 -76.5 5t-71.5 24t-58 56t-36 99q-33 -62 -69.5 -98.5t-75.5 -55.5t-80 -24.5t-82 -5.5q-58 0 -104 20t-73 64t-35 110z" />
<glyph unicode="&#xe1d;" horiz-adv-x="1357" d="M191 174q-7 68 13 159l190 893h318l-24 -105h-168l-161 -765q-17 -76 -17 -127t13 -81.5t40.5 -42.5t65.5 -12q50 0 86 23.5t63 64.5t45 99.5t33 125.5l42 190h149l-41 -190q-15 -69 -19 -126.5t6 -98.5t38 -64.5t79 -23.5q38 0 68 12t54.5 42.5t45.5 81.5q20 51 38 127 l299 1408h150l-306 -1431q-19 -91 -53 -158t-78.5 -111t-98.5 -64t-109 -20q-38 0 -76.5 5t-71.5 24t-58 56t-36 99q-33 -62 -69.5 -98.5t-75.5 -55.5t-80 -24.5t-82 -5.5q-58 0 -104 20t-73 64t-35 110z" />
<glyph unicode="&#xe1e;" horiz-adv-x="1530" d="M320 1226h162l-21 -1057l469 1057h183l14 -1057l443 1057h162l-545 -1226h-183l-17 1053l-470 -1053h-181z" />
<glyph unicode="&#xe1f;" horiz-adv-x="1530" d="M320 1226h162l-21 -1057l469 1057h183l14 -1057l679 1595h162l-781 -1764h-183l-17 1053l-470 -1053h-181z" />
<glyph unicode="&#xe20;" horiz-adv-x="1281" d="M44 0l22 111h128l117 543q6 32 11 65t0.5 62t-18 53t-44.5 42q32 70 86 138t131.5 121t179.5 85.5t228 32.5q105 0 181 -20t127 -55t80 -82.5t41 -105t7.5 -121t-17.5 -130.5l-156 -739h-149l160 765q9 44 12 88.5t-5 84.5t-28 76t-56.5 61.5t-92 41.5t-131.5 16 q-99 0 -175 -26.5t-130.5 -65.5t-89 -83t-51.5 -79q44 -29 54 -87.5t-5 -140.5l-138 -651h-279z" />
<glyph unicode="&#xe21;" horiz-adv-x="1270" d="M134 0l260 1226h149l-149 -695q-19 -90 -11 -167.5t47.5 -135t109.5 -90.5t178 -33q148 0 236 81t119 236l174 804h149l-173 -804q-20 -99 -59.5 -181.5t-102 -141t-147.5 -90.5t-196 -32q-67 0 -125.5 8t-108.5 32t-90.5 67.5t-67.5 115.5l-43 -200h-149z" />
<glyph unicode="&#xe22;" horiz-adv-x="1222" d="M169 246q-8 56 8 125q10 49 28 95t49.5 85.5t77 71t110.5 50.5q-43 15 -71.5 36t-46 44.5t-25 49t-8 51t3 51.5t7.5 50q12 55 34.5 96t53 71t66.5 49.5t73 31.5t75 17.5t72 5.5h137l-25 -113h-81q-18 0 -40 -1t-46.5 -6t-49.5 -15.5t-47 -28.5t-39.5 -46.5t-26.5 -70.5 q-11 -54 -4 -92t32 -64.5t63.5 -39.5t87.5 -16h73l-28 -117h-72q-49 -3 -94.5 -18t-81 -45t-61.5 -73t-37 -100q-16 -73 0.5 -128.5t56 -90.5t98 -52.5t125.5 -17.5q76 0 143 18.5t122 63.5t95 116q40 73 61 175l166 762h146l-174 -804q-23 -111 -78 -195t-133.5 -140 t-173.5 -84.5t-197 -28.5q-64 0 -124 10t-111 31t-91.5 54t-65 77t-32.5 100z" />
<glyph unicode="&#xe23;" horiz-adv-x="1030" d="M128 347h158q-6 -61 6 -107.5t43 -79t83 -48.5t125 -16q44 0 96 10.5t99 36.5t83.5 71.5t51.5 115.5q9 44 -1.5 76t-41.5 60.5t-82 54.5q-52 28 -123 60q-53 23 -99.5 44.5t-86.5 44t-71.5 49t-51.5 58.5t-26.5 71.5t2.5 90.5q12 55 37.5 99t61 78t78.5 60t90.5 42t96 24 t94.5 8q94 0 165.5 -19t118 -58.5t68.5 -103.5q22 -65 16 -152h-149q3 58 -11.5 100.5t-43.5 70t-70.5 41t-95.5 13.5q-44 0 -91.5 -10.5t-90 -34.5t-74 -62.5t-44.5 -92.5q-10 -50 4.5 -84.5t49.5 -60.5t89 -49.5t121 -51.5q106 -42 173 -81.5t103.5 -81.5t45.5 -91 q8 -48 -6 -109q-21 -94 -69 -161t-118 -109.5t-154.5 -61.5t-178.5 -19q-90 0 -166 22t-128.5 67.5t-76 114t-9.5 161.5z" />
<glyph unicode="&#xe24;" horiz-adv-x="1246" d="M149 0l137 654q6 32 11 65t1.5 62t-18 53t-43.5 42q32 70 86 138t131 121t176.5 85.5t225.5 32.5q103 0 178.5 -20t125.5 -55t78.5 -82.5t40.5 -105t7.5 -121t-19.5 -130.5l-242 -1136h-149l248 1162q9 44 12 88.5t-5 84.5t-28 76t-56.5 61.5t-89.5 41.5q-52 16 -128 16 q-96 0 -172 -26.5t-130 -65.5t-88.5 -83t-50.5 -79q44 -29 54.5 -87.5t-5.5 -140.5l-117 -543h138l-21 -108h-288z" />
<glyph unicode="&#xe25;" horiz-adv-x="1216" d="M133.5 147.5q-18.5 62.5 0.5 151.5q13 66 40 116.5t65 88.5t83.5 65t95 44.5t101.5 29t103 17.5q120 16 207.5 30t147.5 37t95 59.5t46 98.5q12 55 8.5 96t-19.5 68.5t-41.5 45.5t-58.5 26.5t-70.5 11.5t-75.5 3q-73 0 -136.5 -11.5t-114.5 -39.5t-89 -77 q-36 -49 -60 -123h-153q32 102 91 172t136.5 113t171 61.5t192.5 18.5q53 0 105.5 -6t99 -22t84.5 -41t61.5 -63.5t31 -90.5t-7.5 -122l-190 -905h-150l140 670q-23 -23 -62 -39t-84 -28.5t-92 -20.5t-85 -14q-43 -6 -90 -12.5t-93.5 -16.5t-90.5 -26.5t-80.5 -42.5 t-62.5 -63.5t-37 -89.5q-14 -69 1 -114t50.5 -72t85 -38t101.5 -11q21 0 48.5 1.5t51.5 4.5l-21 -100q-41 -8 -76 -12.5t-76 -4.5q-81 0 -149 17.5t-114 57t-64.5 102z" />
<glyph unicode="&#xe26;" horiz-adv-x="1281" d="M44 0l22 111h128l117 543q6 32 11 65t0.5 62t-18 53t-44.5 42q32 70 86 138t131.5 121t179.5 85.5t228 32.5q105 0 181 -20t127 -55t80 -82.5t41 -105t7.5 -121t-17.5 -130.5l-243 -1136h-150l248 1162q9 44 12 88.5t-5 84.5t-28 76t-56.5 61.5t-92 41.5t-131.5 16 q-99 0 -175 -26.5t-130.5 -65.5t-89 -83t-51.5 -79q44 -29 54 -87.5t-5 -140.5l-138 -651h-279z" />
<glyph unicode="&#xe27;" horiz-adv-x="1067" d="M140 383h156q-5 -73 10 -128.5t46.5 -92t76 -55.5t97.5 -19q73 0 140 30.5t123 96t100.5 166.5t74.5 238t28 235t-31.5 160.5t-83.5 92t-129 29.5q-56 0 -108.5 -19t-99.5 -55.5t-84.5 -90.5t-64.5 -127h-154q27 90 79 165.5t123 129.5t156 84t179 30q122 0 204 -44 t124.5 -126.5t46.5 -200t-28 -263.5q-30 -146 -85 -265t-132.5 -203.5t-178 -130.5t-223.5 -46q-93 0 -166 29t-121.5 83t-67.5 129.5t-7 167.5z" />
<glyph unicode="&#xe28;" horiz-adv-x="1287" d="M134 0l152 730q15 66 38 130t58.5 122t83.5 107.5t113 86t147.5 57t184.5 20.5q56 0 101 -6t86 -18q38 0 71 12t60 31t47 43t31 49h165q-11 -27 -31 -54.5t-51.5 -54t-75.5 -47.5t-102 -36q47 -38 73 -86.5t35.5 -106.5t5 -121.5t-18.5 -127.5l-154 -730h-149l158 759 q10 44 12.5 88.5t-5 86t-26.5 78t-54 63t-84.5 42.5t-119.5 16t-128 -16t-104 -42.5t-81 -63t-60.5 -78t-42 -86t-27.5 -88.5l-62 -295q52 76 109 123t118.5 73t124 36.5t124.5 10.5l-27 -120q-108 0 -195.5 -35t-152.5 -98.5t-109 -153.5t-67 -201l-22 -99h-149z" />
<glyph unicode="&#xe29;" horiz-adv-x="1281" d="M220 366.5q5 64.5 19 129.5l155 730h146l-160 -756q-9 -44 -13.5 -89t1.5 -87.5t25 -79t52.5 -63.5t86.5 -42q52 -16 128 -16q74 0 133.5 15.5t104.5 42.5t78.5 63.5t57 79t38.5 86.5q17 46 26 90l32 161h-377l46 201h146l-21 -96h229l106 490h148l-103 -490h117 l-25 -105h-117l-26 -135q-15 -65 -37 -129.5t-55.5 -122t-80 -107t-111 -85.5t-146 -55.5t-187 -19.5t-179.5 19.5t-123 55.5t-74.5 85.5t-35 107t-4.5 122z" />
<glyph unicode="&#xe2a;" horiz-adv-x="1216" d="M133.5 147.5q-18.5 62.5 0.5 151.5q13 66 40 116.5t65 88.5t83.5 65t95 44.5t101.5 29t103 17.5q120 16 207.5 30t147.5 37t95 59.5t46 98.5q12 55 8.5 96t-19.5 68.5t-41.5 45.5t-58.5 26.5t-70.5 11.5t-75.5 3q-73 0 -136.5 -11.5t-114.5 -39.5t-89 -77 q-36 -49 -60 -123h-153q32 102 91 172t136.5 113t171 61.5t192.5 18.5q47 0 94 -4.5t90 -16.5q38 0 71 12t60 31t47 43q18 24 30 49h166q-10 -27 -30.5 -54.5t-52 -54t-75 -47.5t-100.5 -36q24 -19 43 -45t29.5 -59t12 -73t-10.5 -90l-190 -905h-150l140 670 q-23 -23 -62 -39t-84 -28.5t-92 -20.5t-85 -14q-43 -6 -90 -12.5t-93.5 -16.5t-90.5 -26.5t-80.5 -42.5t-62.5 -63.5t-37 -89.5q-14 -69 1 -114t50.5 -72t85 -38t101.5 -11q21 0 48.5 1.5t51.5 4.5l-21 -100q-41 -8 -76 -12.5t-76 -4.5q-81 0 -149 17.5t-114 57t-64.5 102z " />
<glyph unicode="&#xe2b;" horiz-adv-x="1235" d="M134 0l260 1226h149l-115 -547l747 547h206l-331 -233q79 -26 121 -70t57.5 -100.5t9.5 -125.5t-20 -147l-117 -550h-149l121 578q12 59 14 113t-14 97.5t-52.5 73t-99.5 37.5l-533 -394l-105 -505h-149z" />
<glyph unicode="&#xe2c;" horiz-adv-x="1515" d="M320 1226h162l-9 -995l457 830h123l83 -830l269 594q14 35 30 70.5t25 70t10.5 66t-12 56.5t-42.5 42.5t-79 22.5l15 79q58 5 108.5 17t90.5 35.5t71 60t50 87.5h182q-23 -52 -58 -96t-78 -77t-92 -53t-99 -25q47 -19 67.5 -55.5t22 -80t-12.5 -91t-34 -90.5l-417 -864 h-122l-89 844l-469 -844h-123z" />
<glyph unicode="&#xe2d;" horiz-adv-x="1213" d="M186 447q7 82 24 169l9 41h493l-21 -104h-341q-23 -105 -13.5 -190.5t46 -146.5t97 -94.5t142.5 -33.5q86 0 162.5 35t139.5 102.5t109.5 166.5t73.5 224q111 517 -266 517q-64 0 -127 -17.5t-117 -50.5t-96.5 -79t-69.5 -101h-154q41 82 99.5 149t132.5 116.5 t163.5 77.5t194.5 28q146 0 236.5 -48.5t134.5 -134t47 -203t-26 -254.5q-18 -86 -48 -167t-71.5 -152.5t-97 -131.5t-122.5 -103.5t-149 -67t-175 -23.5q-97 0 -167.5 23.5t-119.5 66.5t-77.5 102t-39.5 131t-6 153z" />
<glyph unicode="&#xe2e;" horiz-adv-x="1232" d="M186 447q7 82 24 169l9 41h493l-21 -104h-341q-23 -105 -13.5 -190.5t46 -146.5t97 -94.5t142.5 -33.5q86 0 162.5 35t139.5 102.5t109.5 166.5t73.5 224q111 517 -266 517q-64 0 -127 -17.5t-117 -50.5t-96.5 -79t-69.5 -101h-154q41 82 99.5 149t132.5 116.5 t163.5 77.5t194.5 28q56 0 104 -8q48 -7 90 -22q35 3 66 15.5t55 31t41 41t27 47.5h171q-12 -27 -32 -54.5t-50.5 -52.5t-73.5 -48q-44 -23 -103 -41q48 -41 76.5 -98t39 -127.5t5.5 -151.5t-24 -172q-18 -86 -48 -167t-71.5 -152.5t-97 -131.5t-122.5 -103.5t-149 -67 t-175 -23.5q-97 0 -167.5 23.5t-119.5 66.5t-77.5 102t-39.5 131t-6 153z" />
<glyph unicode="&#xe2f;" horiz-adv-x="1222" d="M265.5 737.5q-14.5 71.5 3.5 158.5q13 62 40 110t63.5 84.5t79.5 63t89 42.5t92.5 23t90.5 7h146l-23 -113h-148q-116 0 -182.5 -53t-91.5 -166q-7 -34 -8.5 -67t5.5 -63.5t24.5 -56t49 -44.5t76 -30t107.5 -11q96 0 173 19t135 57t94.5 99t54.5 145l63 284h150 l-260 -1226h-150l144 679q-43 -48 -94.5 -81t-105.5 -52.5t-109.5 -28.5t-107.5 -9q-120 0 -203 28t-133 79t-64.5 122.5z" />
<glyph unicode="&#xe30;" horiz-adv-x="662" d="M161 216l43 193h138l-22 -89h311l-21 -104h-449zM299 858l43 198h137l-21 -89h310l-20 -109h-449z" />
<glyph unicode="&#xe31;" d="M-428 1451l45 213h138l-24 -106h622l-20 -107h-761z" />
<glyph unicode="&#xe32;" horiz-adv-x="1016" d="M237 908q20 85 71 149t119.5 106.5t147.5 63t158 20.5q88 0 158.5 -23.5t115 -73t60.5 -124t-6 -176.5l-179 -850h-149l169 807q18 85 14 147t-28.5 101.5t-69.5 58.5q-44 19 -108 19q-111 0 -193 -57t-120 -168h-160z" />
<glyph unicode="&#xe33;" horiz-adv-x="1016" d="M-159.5 1561.5q-6.5 34.5 1.5 73.5q9 41 31 77.5t52.5 62t68 41t75.5 15.5q41 0 73.5 -15.5t53 -41t27.5 -61.5q8 -37 -1 -78q-9 -39 -32.5 -73.5t-54 -60t-68.5 -40t-79 -14.5q-39 0 -70.5 14.5t-51 40t-26 60zM-58 1602q3 -16 13 -28t23 -18.5t31 -6.5q20 0 37.5 6.5 t32 18.5t25.5 28t16 33q8 41 -13.5 67.5t-62.5 26.5q-18 0 -33 -7.5t-29 -19t-24.5 -29t-14.5 -38.5q-4 -17 -1 -33zM237 908q20 85 71 149t119.5 106.5t147.5 63t158 20.5q88 0 158.5 -23.5t115 -73t60.5 -124t-6 -176.5l-179 -850h-149l169 807q18 85 14 147t-28.5 101.5 t-69.5 58.5q-44 19 -108 19q-111 0 -193 -57t-120 -168h-160z" />
<glyph unicode="&#xe34;" d="M-816 1451l74 107h936l-20 -107h-990z" />
<glyph unicode="&#xe35;" d="M-816 1451l74 107h799l42 191h138l-63 -298h-990z" />
<glyph unicode="&#xe36;" d="M-832 1451l76 107h601q-4 16 -6 39q-3 21 3 44q9 41 31.5 76t54 61.5t69 42.5t75.5 16q40 0 73 -16t53.5 -42.5t28 -61.5t-1.5 -76t-31 -75t-52.5 -60t-68.5 -40.5t-79 -14.5h-826zM-60 1641q-3 -19 1 -36t14 -29t24.5 -19.5t32.5 -7.5q19 0 37 7.5t34 19.5t26.5 30 t13.5 35q4 19 0.5 36t-14 30t-25 20t-33.5 7t-37 -7t-33.5 -20t-25.5 -30t-15 -36z" />
<glyph unicode="&#xe37;" d="M-816 1451l74 107h491l41 191h136l-43 -191h177l42 191h135l-63 -298h-990z" />
<glyph unicode="&#xe38;" d="M-437 -257l22 99h249l-85 -401h-140l61 302h-107z" />
<glyph unicode="&#xe39;" d="M-902 -257l20 99h254l-26 -125q-18 -91 11.5 -136t113.5 -45q82 0 127.5 45t62.5 136l28 125h145l-28 -125q-12 -56 -37.5 -107t-69.5 -88t-105 -59t-144 -22q-82 0 -135.5 19t-82 57t-33.5 94t13 132h-114z" />
<glyph unicode="&#xe3a;" d="M-413.5 -309.5q-4.5 21.5 1.5 46.5q5 25 18.5 47t35 38.5t46 27t49.5 10.5t44 -10.5t31.5 -27t17 -38.5t1.5 -47q-6 -25 -20.5 -46.5t-35 -38t-44 -26t-48.5 -9.5t-45.5 9.5t-33.5 26t-17.5 38z" />
<glyph unicode="&#xe3e;" />
<glyph unicode="&#xe3f;" horiz-adv-x="1389" d="M146 0l310 1460h426l26 126h136l-28 -126h48q62 0 119.5 -8t107 -25t88.5 -44.5t63 -67.5t30 -94q8 -53 -6 -123q-12 -56 -39.5 -107t-67 -93t-89 -76t-108.5 -51q61 -13 108 -44.5t74.5 -77.5t35 -105t-7.5 -126q-7 -35 -22.5 -80.5t-43 -91.5t-73 -90.5t-111 -79 t-156 -55.5t-210.5 -21h-46l-31 -137h-136l31 137h-428zM326 131h276l119 563h-276zM473 825h275l108 504h-275zM736 131h47q75 -1 147.5 13t131.5 46.5t101.5 89t59.5 142.5q15 67 0.5 119t-55.5 85.5t-108 50.5t-158 17h-46zM882 825h48q83 0 148 18t112 50.5t75.5 76 t38.5 94.5q57 265 -267 265h-47z" />
<glyph unicode="&#xe40;" horiz-adv-x="499" d="M177 0l260 1226h147l-261 -1226h-146z" />
<glyph unicode="&#xe41;" horiz-adv-x="785" d="M134 0l260 1226h146l-260 -1226h-146zM505 0l260 1226h146l-260 -1226h-146z" />
<glyph unicode="&#xe42;" horiz-adv-x="565" d="M210 0l298 1407q12 53 6 94.5t-24 70t-48 46t-68 23.5l54 108h550l32 -105h-457q34 -16 57.5 -41t36.5 -56.5t15 -64.5q1 -34 -5 -69l-277 -1308h134l-21 -105h-283z" />
<glyph unicode="&#xe43;" horiz-adv-x="565" d="M210 0l238 1133q12 48 27.5 88t35.5 74t46.5 63.5t61.5 59.5q20 20 42 38.5t39.5 37.5t31 39t18.5 44q5 20 3.5 41.5t-14.5 38t-41 27.5t-76 11q-41 0 -74.5 -14t-61.5 -38.5t-48 -60.5t-35 -78h-137q20 77 59 132t89 89t109 50q58 16 119 16q59 0 108.5 -11.5t81.5 -37 t45.5 -66.5t1.5 -99q-6 -24 -16 -41.5t-26 -35.5t-38 -39q-21 -21 -49 -48q-48 -46 -73.5 -78.5t-40 -61.5t-22 -61t-15.5 -79l-219 -1028h134l-21 -105h-283z" />
<glyph unicode="&#xe44;" horiz-adv-x="565" d="M210 0l301 1424q15 62 65 121q52 58 131 99h-459l82 105h549l9 -108q-40 -6 -76.5 -22t-67 -43.5t-53 -67t-34.5 -90.5l-277 -1313h131l-20 -105h-281z" />
<glyph unicode="&#xe45;" horiz-adv-x="986" d="M222 908q20 85 71.5 149t119 106.5t147 63t158.5 20.5q88 0 158 -23.5t115.5 -73t61.5 -124t-6 -176.5l-267 -1247h-149l257 1204q17 85 13.5 147t-29 101.5t-70 58.5t-108.5 19q-111 0 -192.5 -57t-118.5 -168h-161z" />
<glyph unicode="&#xe46;" horiz-adv-x="1141" d="M242 788q12 82 40 156t77.5 134.5t123.5 102.5q72 42 177 60l128 -152l181 152q73 -6 120 -28.5t74.5 -56t39.5 -77.5t12 -94.5t-10 -104.5q-9 -57 -21 -112l-248 -1165h-151l255 1193q5 26 11 58t9 65t0 63.5t-14 55.5t-32 42.5t-56 23.5l-193 -156q-3 -3 -7.5 -2.5 t-7.5 2.5l-134 159q-54 -21 -92.5 -51t-65 -68.5t-42.5 -84t-25 -96.5v3q-6 -39 -0.5 -77t23 -68t47.5 -48t73 -18h97l-24 -114h-96q-70 0 -122.5 19t-87.5 57t-49.5 94.5t-9.5 132.5z" />
<glyph unicode="&#xe47;" d="M-662.5 1588.5q-6.5 40.5 5.5 86.5q13 64 50.5 108.5t88.5 73.5t109.5 42.5t116.5 13.5h648l-23 -107h-625q-55 0 -95.5 -11.5t-66 -30t-39.5 -42.5t-18 -47q-4 -21 -2 -42t13 -37t33.5 -27t60.5 -11q23 0 48 8t47 23.5t38 36.5t25 49h99q-4 -25 -0.5 -46.5t16.5 -36.5 t33.5 -24.5t48.5 -9.5q29 0 54 11t44.5 27t31.5 37t14 42h132q-6 -50 -28 -93t-58.5 -74.5t-84.5 -49t-105 -17.5q-41 0 -72.5 11.5t-54 30t-35 42.5t-12.5 47q-9 -23 -30.5 -47t-54 -43t-70.5 -31q-40 -11 -81 -10q-63 3 -104.5 22.5t-66 52t-31 73z" />
<glyph unicode="&#xe48;" d="M131 1907l66 312h139l-67 -312h-138z" />
<glyph unicode="&#xe49;" d="M-219 2097l22 97h220l-35 -182q84 0 143 16.5t101 42.5t70 58.5t45 64.5h146q-8 -26 -29.5 -57.5t-52.5 -63.5t-73.5 -61t-95 -52.5t-115.5 -38t-136 -14.5h-146l41 190h-105z" />
<glyph unicode="&#xe4a;" d="M-286 1907q7 61 30.5 108t55 78t68 46.5t66.5 15.5q32 0 55 -8t37.5 -23.5t21.5 -35t9 -43.5q9 24 25.5 43.5t39.5 35t48.5 23.5t51.5 8q29 0 52.5 -9t40 -26.5t24.5 -46.5t6 -70q24 3 51 17.5t52 39.5t44 58.5t28 75.5h137q-9 -40 -28 -77t-45 -68t-57.5 -57.5 t-63.5 -44.5t-64 -29q-31 -11 -57 -11h-114q3 25 4.5 49.5t-3 44.5t-15 32t-32.5 12q-18 0 -34.5 -12t-29.5 -31t-22 -44q-8 -25 -14 -51h-105q5 26 5 51.5t-4 45.5t-15 30.5t-29 10.5q-20 0 -37 -12t-29.5 -32t-20.5 -44t-11 -50h-122z" />
<glyph unicode="&#xe4b;" d="M-18 2069l18 99h182l34 159h143l-33 -159h188l-21 -99h-188l-36 -162h-143l35 162h-179z" />
<glyph unicode="&#xe4c;" d="M-35 1772q44 139 156.5 207.5t284.5 77.5l-21 -95q-105 -6 -178 -54t-102 -136h-140z" />
<glyph unicode="&#xe4d;" d="M-156.5 1552.5q-7.5 34.5 1.5 73.5q9 41 31 77t52.5 62t68 41t75.5 15q40 0 73 -15t53.5 -41t28 -62t-1.5 -77q-9 -39 -31 -73.5t-52.5 -60t-68.5 -40t-79 -14.5q-39 0 -70.5 14.5t-52 40t-28 60zM-54 1626q-3 -17 0.5 -33t12.5 -28t22 -19t31 -7q20 0 39 7t33.5 19 t25 28t13.5 33q8 41 -12 67.5t-60 26.5q-17 0 -34 -7.5t-31.5 -20t-25 -29t-14.5 -37.5z" />
<glyph unicode="&#xe4e;" d="M-137 1451q11 50 31 92.5t51.5 76t76.5 58t106 39.5q15 41 40.5 74.5t63 58.5t88.5 41t117 22l-22 -98q-47 -3 -80 -14t-57 -33t-39 -55q-14 -34 -23 -78q-3 -3 -3 -1h1q1 1 1.5 1t0.5 -3h-16q-53 0 -87 -13t-57.5 -37t-36.5 -58q-13 -32 -22 -73h-134z" />
<glyph unicode="&#xe4f;" horiz-adv-x="1470" d="M211 444q-5 82 14 169q19 88 59 169.5t97 153t128 130t151 99.5t167 64.5t175 23.5q87 0 164.5 -23.5t139 -64.5t108 -99.5t73 -130t31.5 -153t-14 -169.5q-19 -87 -59 -169t-96.5 -153.5t-127.5 -130t-151 -100t-166 -64t-174 -22.5t-165 22.5t-140 64t-109 100t-73 130 t-32 153.5zM359.5 417q20.5 -91 73.5 -159t135.5 -107.5t187.5 -39.5q70 0 138 17.5t131 50.5t118.5 79t100 101.5t76.5 119.5t47 134q23 105 2.5 196.5t-74 159.5t-136.5 107q-82 39 -187 39q-70 0 -138.5 -17.5t-131.5 -50t-118 -78.5t-99 -101.5t-76 -120t-47 -134.5 q-23 -105 -2.5 -196zM505 613q16 73 58.5 139t101.5 114t130.5 77t146 29t133.5 -29t97 -77t52 -114t-1 -139q-10 -49 -32.5 -94.5t-54.5 -86.5t-71.5 -73t-84 -55.5t-93.5 -36.5t-99 -13q-73 0 -132.5 28.5t-97.5 77.5t-52.5 114t-0.5 139zM629.5 522q9.5 -43 34.5 -74.5 t63 -49.5t86 -18t95 18t85.5 49.5t65.5 74.5t39 91q10 48 0.5 90.5t-34 74t-62.5 50.5t-88 19q-48 0 -94 -19t-85.5 -50.5t-66.5 -74t-37 -90.5q-11 -48 -1.5 -91z" />
<glyph unicode="&#xe50;" horiz-adv-x="1295" d="M187 370q0 87 23 198q25 115 82.5 210t144 162t197.5 103.5t242 36.5q130 0 225.5 -36.5t154 -103.5t76.5 -162t-6 -210q-24 -112 -63.5 -199t-89.5 -153t-110.5 -111t-128.5 -73.5t-142 -40t-150 -11.5q-77 0 -145 12t-125 40.5t-97.5 74t-63.5 111t-24 152.5z M334 347.5q13 -78.5 55.5 -135.5t112.5 -89t164 -32q93 0 178 32t151 89t113 135.5t67 175.5q27 121 10 206.5t-63 138t-117 77t-152 24.5q-84 0 -165 -24.5t-149.5 -77t-120.5 -137.5q-50 -85 -76 -207q-21 -97 -8 -175.5z" />
<glyph unicode="&#xe51;" horiz-adv-x="1335" d="M96 105l123 108q39 -31 80 -53.5t88.5 -36t103 -20.5t122.5 -7q108 0 203 29.5t170 88.5t128.5 147.5t78.5 206.5q19 92 11.5 166.5t-45.5 126t-108 80t-175 28.5q-85 0 -158 -21t-130 -56.5t-93.5 -82.5t-46.5 -99q-6 -33 -5 -63.5t10.5 -59t29 -52t53 -38.5t79.5 -21 q48 -6 109 0l-17 -88q-35 -5 -60 -6.5t-48 -1.5q-79 0 -145 21.5t-108 62.5t-59.5 98t-3.5 129q15 70 48.5 126t79.5 100t103 75t119.5 51t129 30t131.5 10q78 0 148.5 -12.5t128 -38t100.5 -66t68 -97.5t30 -132q6 -74 -14 -166q-28 -132 -93 -240.5t-162.5 -186 t-224.5 -120t-279 -42.5h-74t-84 4t-89 11t-89.5 21t-86.5 34.5t-77 52.5z" />
<glyph unicode="&#xe52;" horiz-adv-x="1497" d="M227.5 271q-20.5 91 3.5 202l89 423q11 53 15 94t-2 68t-22 42t-45 21l48 117q50 -3 86.5 -23.5t57.5 -58.5t25.5 -92t-10.5 -125l-102 -488q-18 -76 -0.5 -141t72.5 -112.5t146 -74.5t221 -27q123 0 215.5 26.5t157 70.5t100.5 100q37 54 51 116l68 330q11 49 5.5 87 t-24 64.5t-47.5 43.5q-31 18 -66 27l-190 -151l-128 135q-29 0 -60.5 -12.5t-60 -36t-51 -60t-32.5 -86.5l-21 -99q-6 -32 -13 -61t-9.5 -57t1.5 -51.5t14.5 -39.5t32.5 -26t57 -10h48l-17 -95h-70q-61 0 -100.5 17t-63 44.5t-33 63.5t-10 73t3.5 73q4 34 10 63l18 85 q13 63 48 119t87 102t117.5 77.5t141.5 44.5l117 -121l160 125q73 -5 133 -31.5t98 -67.5t52.5 -95t1.5 -118l-69 -317q-17 -82 -50.5 -148t-80.5 -118t-104.5 -90.5t-122.5 -63.5t-135 -36.5t-140 -11.5h-111q-146 0 -253.5 35t-172.5 100t-85.5 156z" />
<glyph unicode="&#xe53;" horiz-adv-x="1366" d="M179.5 283q4.5 51 13.5 102q11 50 20 94l18 92q26 123 71 212.5t109.5 151t144.5 96.5q81 35 174 46l134 -153l216 156q97 -8 161 -43t99 -88.5t43 -121.5t-8 -142l-143 -685h-146l143 685q12 54 5.5 101.5t-27.5 82.5t-57 55.5t-83 20.5l-235 -160l-150 160 q-31 0 -73.5 -18.5t-86 -61t-83 -114t-62.5 -177.5l-18 -92q-10 -44 -19.5 -88.5t-12.5 -86t0 -78t19 -63.5t45 -42.5t79 -15.5h48.5t71.5 6l-25 -114q-19 -3 -44 -6t-51 -4.5t-49.5 -1.5t-40.5 3q-68 9 -108.5 36.5t-62.5 67t-28 88.5t-1.5 100z" />
<glyph unicode="&#xe54;" horiz-adv-x="1353" d="M194 357q2 55 13 104l27 129q26 121 84.5 209.5t144.5 146.5t195.5 86.5t237.5 28.5h219q56 0 97 12.5t68.5 36t43.5 55.5t28 73h152q-12 -55 -38 -108.5t-73 -94.5t-118.5 -65.5t-173.5 -24.5h-251q-91 0 -168.5 -21.5t-137 -62t-100 -100.5t-56.5 -136l-32 -155 q-17 -76 -10 -141.5t40.5 -113t96.5 -74.5t156 -27h144q-28 17 -50.5 42t-37.5 56.5t-18.5 69.5t5.5 83q3 15 9.5 36t19.5 45t35 49t57 45.5t83 33.5t116 16l-21 -111q-55 -3 -87.5 -18.5t-49 -36.5t-22.5 -43t-9 -36q-7 -34 -2 -64t18 -56t33 -46.5t40.5 -35.5t41.5 -22 q23 -7 37 -7h286l-23 -114h-657q-94 0 -162.5 20.5t-113.5 55t-71.5 80t-36.5 97t-9 104.5z" />
<glyph unicode="&#xe55;" horiz-adv-x="1353" d="M194 357q2 55 13 104l30 132q23 109 69.5 191t113 138t150.5 87.5t180 40.5q-2 4 -5 13t-5.5 20.5t-3 25.5t2.5 27q9 39 30.5 73.5t54 60.5t69 41t76.5 15t70.5 -15t50.5 -41t27 -60.5t-2 -73.5q-8 -45 -38 -80q72 2 120 14.5t79.5 36t49 57t26.5 74.5h152 q-12 -55 -38 -109t-74.5 -95t-120 -66.5t-173.5 -25.5h-237q-83 0 -160.5 -17t-141 -55t-108.5 -98.5t-63 -146.5l-32 -155q-14 -76 -8.5 -140t39 -111.5t96.5 -74.5t156 -27h144q-21 14 -43 36t-38 52t-23 70t3 90q3 15 9.5 36.5t19.5 45t35.5 48.5t57 45.5t84 35 t116.5 17.5l-23 -111q-55 -3 -87.5 -19t-49 -38t-22.5 -44t-9 -36q-6 -30 -0.5 -59t18.5 -54t32 -46.5t40 -36.5t41 -23.5t37 -8.5h286l-23 -117h-657q-94 0 -162.5 20.5t-113.5 55t-71.5 80t-36.5 97t-9 104.5zM828.5 1097.5q3.5 -17.5 14 -30.5t26.5 -21.5t36 -8.5 q21 0 40.5 8.5t36.5 21.5t28.5 30.5t14.5 38.5q4 20 0.5 37.5t-13.5 31.5t-27 22t-37.5 8t-40 -8t-35.5 -22t-27 -31.5t-15.5 -38t-1 -38z" />
<glyph unicode="&#xe56;" horiz-adv-x="1350" d="M289 326q15 70 50 121.5t86 84t115 48.5t142 16h51l-21 -94h-42q-61 0 -102.5 -14t-68.5 -38t-43.5 -59t-24.5 -74q-11 -47 5.5 -86.5t54.5 -69.5t95 -47q59 -18 132 -18q79 -1 158.5 23t147.5 73.5t118 122.5q49 73 70 167l14 80q24 102 13.5 178t-48.5 125t-102 72 q-64 24 -153 21q-69 -2 -134 -13.5t-128.5 -32.5t-127.5 -52t-131 -72l-116 310l113 64l84 -204q34 14 84.5 33t111.5 37.5t128 31.5q68 15 132 17q104 3 179.5 -15t128.5 -52.5t83.5 -82.5t43 -105.5t9.5 -122.5t-18 -131l-17 -80q-21 -68 -53.5 -132t-77 -121t-102.5 -105 t-127.5 -81.5t-149.5 -51t-172 -15.5q-102 3 -181.5 29.5t-131 72.5t-72 107.5t-5.5 134.5z" />
<glyph unicode="&#xe57;" horiz-adv-x="1566" d="M186 282q1 48 8 95q7 49 16 90l21 101q25 117 69.5 206.5t108.5 152.5t144 101q81 38 174 52l105 -150l172 147q103 -14 165.5 -55t92 -105t28.5 -151q-2 -86 -23 -188l-23 -105q-9 -45 -23 -92.5t-35 -94.5t-52 -94q-32 -46 -76 -93q97 29 162 71.5t106.5 97.5t64.5 117 q22 62 35 129l89 425q15 71 44 125t65.5 92t81.5 58.5t94 23.5v-117q-30 -6 -53.5 -21t-41 -42t-30.5 -67q-14 -42 -25 -95l-73 -359q-26 -117 -69.5 -211t-111 -163.5t-164 -114.5t-228.5 -66l-102 95q51 47 83.5 91.5t52.5 91.5t33 97q12 52 27 110l23 111q18 88 15 153 t-20.5 109.5t-49 70.5t-70.5 34l-197 -162l-117 162q-38 -3 -82.5 -26t-87.5 -68t-79 -114.5t-56 -165.5l-21 -98q-6 -31 -14 -69.5t-11 -79.5t1 -79t20 -68t45 -48t79 -18h13.5h21.5t24.5 0.5t20.5 2.5l-22 -114q-14 -3 -33 -6t-39.5 -4.5t-41 -1.5t-37.5 3q-59 15 -97 44 t-60.5 68.5t-31.5 85t-8 93.5z" />
<glyph unicode="&#xe58;" horiz-adv-x="1321" d="M184 239.5q-9 67.5 7 143.5l46 210q23 108 72.5 195t127 147.5t179.5 93t231 32.5h286q55 0 94.5 12.5t68 34.5t46 54t27.5 73h149q-11 -55 -37.5 -109t-73 -96.5t-118 -68t-174.5 -25.5h-319q-91 0 -160.5 -26.5t-120.5 -69.5t-83 -100t-44 -115l-49 -242 q-12 -53 -3 -99t32 -82t58 -57.5t76 -24.5l219 157l164 -157q44 0 84 12.5t74 40.5t60.5 75.5t41.5 119.5q5 32 8 68.5t-5.5 65.5t-32 49t-68.5 20h-40l21 95h39q62 0 103.5 -12t67.5 -33.5t39.5 -51t17.5 -63t1 -68.5q-5 -35 -11 -70q-21 -92 -56 -163t-89.5 -119 t-128.5 -73t-170 -28l-150 152l-206 -152q-92 9 -155.5 44t-100 89t-45.5 121.5z" />
<glyph unicode="&#xe59;" horiz-adv-x="1335" d="M181.5 268.5q0.5 49.5 9.5 101.5q8 53 19 100l21 95q26 126 64.5 221.5t96.5 161t136.5 99t186.5 33.5q21 0 43 -1.5t43.5 -4t42 -8.5t38.5 -16q13 -9 25.5 -18.5t22.5 -22.5t20.5 -30.5t21.5 -42.5l161 131q6 3 11.5 8t11.5 5h76q56 0 93 9t61 28t38 49.5t23 71.5h147 q-14 -54 -39 -103.5t-68 -88.5t-109.5 -60.5t-165.5 -21.5h-19q-21 0 -35.5 -9t-30.5 -22l-111 -95l222 -838h-152l-195 762q-15 48 -29 85.5t-36.5 63.5t-56 39.5t-84.5 13.5q-48 0 -93.5 -19t-85 -63t-72 -120t-57.5 -188l-24 -123q-6 -35 -11.5 -73.5t-4 -76.5t8.5 -72.5 t24.5 -60.5t48.5 -41.5t74 -15.5q14 0 29 0.5t37 5.5l-6 -117q-35 -4 -76 -7q-42 -3 -77 1q-66 9 -108 34t-67 61.5t-34.5 83t-9 96z" />
<glyph unicode="&#xe5a;" horiz-adv-x="1533" d="M250.5 737.5q-15.5 71.5 3.5 158.5q13 62 40 110t63.5 84.5t79 63t89 42.5t93.5 23t91 7h146l-24 -113h-147q-117 0 -183.5 -53t-92.5 -166q-7 -34 -8 -67t6.5 -63.5t25 -56t48 -44.5t76 -30t106.5 -11q96 0 173.5 19t136 57t95 99t53.5 145l63 284h150l-261 -1226h-149 l143 679q-44 -48 -94 -81t-105 -52.5t-109.5 -28.5t-107.5 -9q-120 0 -203 28t-132.5 79t-65 122.5zM1267 0h146l262 1226h-148z" />
<glyph unicode="&#xe5b;" horiz-adv-x="2591" d="M183 466.5q-2 75.5 14 149.5q18 80 49 157t75 144t101 123t123.5 96.5t143 63.5t161.5 23q77 0 136 -16t102.5 -45t70.5 -68.5t40 -87.5t12 -102t-12 -113h-143q13 67 6.5 121.5t-33.5 92t-73 58.5q-45 20 -112 20q-92 0 -171 -35t-141 -98.5t-105.5 -151.5t-67.5 -196 q-19 -92 -5 -174.5t59 -144t121 -98t181 -36.5q100 0 183 27.5t152.5 79t125.5 121.5t102 154.5t81 182.5t62 200q17 9 31 16t27 14.5t27.5 15t32.5 15.5q23 -35 46.5 -78.5t44 -90.5t39.5 -93.5t33 -87.5q76 95 143.5 173t119.5 135q12 -26 26 -62.5t27.5 -77t28.5 -81 t29 -78.5q18 17 39 40.5t45 49.5t47.5 52.5t43.5 45.5h371q16 -35 30 -71t27 -72h-431q-54 -59 -108.5 -123t-110.5 -134q-20 73 -48 149.5t-61 152.5q-31 -32 -64.5 -70.5t-70 -83t-71.5 -95t-70 -107.5q-12 51 -26.5 106t-33.5 108t-39.5 103.5t-43.5 94.5 q-32 -119 -80.5 -221.5t-111 -189t-135.5 -155t-153.5 -115t-168 -71.5t-176.5 -25q-98 0 -176 25t-136.5 68t-97 102t-60 126t-23.5 142.5z" />
<glyph unicode="&#x2000;" horiz-adv-x="1163" />
<glyph unicode="&#x2001;" horiz-adv-x="2327" />
<glyph unicode="&#x2002;" horiz-adv-x="1163" />
<glyph unicode="&#x2003;" horiz-adv-x="2327" />
<glyph unicode="&#x2004;" horiz-adv-x="775" />
<glyph unicode="&#x2005;" horiz-adv-x="581" />
<glyph unicode="&#x2006;" horiz-adv-x="387" />
<glyph unicode="&#x2007;" horiz-adv-x="387" />
<glyph unicode="&#x2008;" horiz-adv-x="290" />
<glyph unicode="&#x2009;" horiz-adv-x="465" />
<glyph unicode="&#x200a;" horiz-adv-x="129" />
<glyph unicode="&#x200b;" />
<glyph unicode="&#x2010;" horiz-adv-x="858" d="M188 458l28 120h672l-27 -120h-673z" />
<glyph unicode="&#x2011;" horiz-adv-x="858" d="M188 458l28 120h672l-27 -120h-673z" />
<glyph unicode="&#x2012;" horiz-adv-x="858" d="M188 458l28 120h672l-27 -120h-673z" />
<glyph unicode="&#x2013;" horiz-adv-x="1019" d="M105 499l26 132h1019l-26 -132h-1019z" />
<glyph unicode="&#x2014;" horiz-adv-x="2042" d="M105 499l26 132h2043l-28 -132h-2041z" />
<glyph unicode="&#x2018;" horiz-adv-x="567" d="M391 958l46 223q11 44 32.5 89t54 84t75 68t95.5 44l-24 -102q-23 -9 -44.5 -28t-39 -45.5t-29.5 -53.5q-14 -28 -20 -53h85l-48 -226h-183z" />
<glyph unicode="&#x2019;" horiz-adv-x="567" d="M385 952l21 98q23 6 45 25.5t39.5 46t30.5 54t19 53.5h-82l47 231h183l-49 -225q-10 -45 -30.5 -89.5t-51.5 -84t-74.5 -68.5t-97.5 -41z" />
<glyph unicode="&#x201c;" horiz-adv-x="756" d="M330 958l44 223q10 47 31 91.5t54 83t74.5 67t94.5 43.5l-24 -102q-23 -9 -45 -28t-38 -45.5t-29 -54t-19 -52.5h86l-48 -226h-181zM642 958l46 223q11 44 32.5 89t54 84t75 68t95.5 44l-24 -102q-23 -9 -44 -28t-38.5 -45.5t-30.5 -53.5q-14 -28 -20 -53h85l-48 -226 h-183z" />
<glyph unicode="&#x201d;" horiz-adv-x="756" d="M323 952l22 98q24 7 45.5 26.5t38 45.5t29 53.5t21.5 53.5h-88l48 231h186l-47 -225q-10 -45 -31 -89.5t-53.5 -84t-74.5 -68.5t-96 -41zM637 952l20 98q23 6 45 25.5t39.5 46t30.5 54t19 53.5h-81l46 231h183l-48 -225q-11 -45 -31 -89.5t-51.5 -84t-74.5 -68.5t-97 -41 z" />
<glyph unicode="&#x2022;" horiz-adv-x="705" d="M214.5 498q-10.5 48 1.5 103.5t42.5 103t74.5 83t96 56.5q50 20 105 20q56 0 99.5 -20.5t71.5 -56t38 -83.5q10 -47 -1.5 -102.5t-42 -103.5t-73 -83t-95 -55.5t-106.5 -20.5q-56 0 -99 20.5t-72 55.5t-39.5 83z" />
<glyph unicode="&#x202f;" horiz-adv-x="465" />
<glyph unicode="&#x205f;" horiz-adv-x="581" />
<glyph unicode="&#x20ac;" horiz-adv-x="1521" d="M164 568l18 89h120q3 18 6.5 36.5t5.5 36.5q4 18 8.5 37.5t13.5 39.5h-120l21 95h131q32 82 76 157t99.5 140t121.5 119t144.5 92t166.5 59q87 20 186 20q70 0 136 -13t123 -38.5t103 -64.5t77 -91.5t44.5 -118t4.5 -144.5h-149q-2 85 -29 148.5t-75.5 105.5t-115 63.5 t-145.5 21.5q-117 0 -213.5 -36.5t-173.5 -99.5t-135.5 -144.5t-96.5 -175.5h523l-21 -95h-534q-8 -20 -13 -39.5t-8 -37.5l-6 -36q-4 -19 -7 -37h536l-18 -89h-524q-3 -96 18.5 -181t72.5 -149t132.5 -101.5t201.5 -37.5q99 0 187 33.5t158.5 95t124 145t84.5 180.5h148 q-43 -137 -114.5 -245t-166 -183t-208.5 -114.5t-242 -39.5q-150 0 -257.5 46.5t-174 127t-95 190t-22.5 233.5h-128z" />
<glyph unicode="&#x2122;" horiz-adv-x="2020" d="M451 1361l22 99h660l-20 -99h-272l-159 -745h-114l159 745h-276zM1098 616l178 844h181l129 -672l400 672h179l-179 -844h-114l152 724l-447 -724h-70l-140 724l-155 -724h-114z" />
<glyph unicode="&#x25cc;" horiz-adv-x="1363" d="M431 593l147 67q-12 -32 -20 -65.5t-8 -71.5zM473 330l89 140q12 -29 30 -54t45 -45zM610 856l129 -49q-38 -16 -68 -38q-30 -21 -55 -54zM688 345q29 -9 58 -9t70 11l-89 -134zM783 825l102 142l39 -132q-32 6 -69 4t-72 -14zM879 368q35 20 62 43q27 24 52 50l11 -135z M969 810l170 46l-92 -144q-12 33 -34 55q-20 23 -44 43zM1031 526q20 33 28 66t8 65l114 -67z" />
<glyph unicode="&#x25fc;" horiz-adv-x="1065" d="M0 0v1066h1066v-1066h-1066z" />
<glyph unicode="&#xf700;" horiz-adv-x="1096" d="M254 908q26 76 73 139.5t117 108t162 69.5t207 25q50 0 93.5 -6t80.5 -18q41 3 74.5 15.5t61 31t46 41.5t27.5 50h165q-9 -27 -29.5 -54.5t-54 -54t-79.5 -48.5q-45 -23 -106 -38q32 -29 51 -66t26.5 -81t3.5 -93q-5 -50 -17 -100q-11 -46 -35.5 -106t-58.5 -128.5 t-77 -142.5t-90.5 -150.5t-97 -152.5t-98.5 -149h-197l-87 596h-158l20 103h273l78 -585q38 61 79 125.5t78.5 130t73 128.5t64.5 122.5t50 112t31 96.5q17 63 14.5 118t-28.5 95.5t-79 64t-137 23.5q-143 0 -232 -57t-124 -165h-164z" />
<glyph unicode="&#xf701;" d="M-984 1451l76 107h794l-20 -107h-850z" />
<glyph unicode="&#xf702;" d="M-984 1451l76 107h657l41 191h138l-62 -298h-850z" />
<glyph unicode="&#xf703;" d="M-984 1451l76 107h452q-4 16 -5 39q0 21 3 44q8 41 31.5 76t55.5 61.5t70 42.5t76 16q41 0 74 -16t53.5 -42.5t27.5 -61.5t-1.5 -76t-30 -75t-53.5 -60t-70 -40.5t-80 -14.5h-679zM-359 1641q-3 -19 1.5 -36t14.5 -29t24.5 -19.5t35.5 -7.5q19 0 37 7.5t32.5 19.5t25 30 t14.5 35q5 19 2 36t-13.5 30t-25.5 20t-34 7t-37.5 -7t-34.5 -20t-27 -30t-15 -36z" />
<glyph unicode="&#xf704;" d="M-999 1451l75 107h368l42 191h134l-42 -191h174l41 191h135l-62 -298h-865z" />
<glyph unicode="&#xf705;" d="M-333 1451l73 340h137l-71 -340h-139z" />
<glyph unicode="&#xf706;" d="M-724 1638l20 99h225l-38 -182q85 0 145 16.5t103 42.5t70 58.5t44 64.5h146q-9 -26 -29 -57.5t-51 -63.5t-73 -62t-95 -53t-117 -36.5t-137 -13.5h-146l38 187h-105z" />
<glyph unicode="&#xf707;" d="M-905 1451q6 62 29 108.5t54 77t67.5 46.5t66.5 16q32 0 56.5 -8.5t39.5 -23t22.5 -35t7.5 -44.5q10 24 27.5 44.5t39.5 35t47 23t51 8.5q29 0 52.5 -8.5t40 -27.5t24.5 -48t6 -69q24 3 51 17.5t52 38.5t45 58q18 34 27 77h134q-9 -40 -27 -76.5t-43.5 -69t-56.5 -57 t-62 -43.5t-62.5 -29.5t-57.5 -10.5h-114q3 25 3 49t-4.5 44t-15 32t-32.5 12q-19 0 -35 -11.5t-29 -31t-22 -44.5q-8 -23 -11 -50h-108q5 27 5 51.5t-5.5 43.5t-16.5 30.5t-29 11.5q-20 0 -37 -12t-28.5 -32t-19.5 -45q-7 -24 -10 -48h-122z" />
<glyph unicode="&#xf708;" d="M-565 1612l22 99h181l32 158h145l-34 -158h190l-22 -99h-188l-33 -161h-143l32 161h-182z" />
<glyph unicode="&#xf709;" d="M-493 1451q23 70 63 121.5t96.5 85.5t128 53t157.5 23l-21 -96q-106 -7 -179 -54.5t-102 -132.5h-143z" />
<glyph unicode="&#xf70a;" d="M35 1451l73 340h137l-71 -340h-139z" />
<glyph unicode="&#xf70b;" d="M-302 1638l22 99h223l-39 -182q83 0 143.5 16.5t103 42.5t68.5 58.5t44 64.5h146q-9 -26 -28.5 -57.5t-51 -63.5t-73 -62t-94 -53t-116.5 -36.5t-137 -13.5h-146l40 187h-105z" />
<glyph unicode="&#xf70c;" d="M-488 1451q6 62 29.5 108.5t55.5 77t67 46.5t67 16t55.5 -8.5t39.5 -23t23.5 -35t7.5 -44.5q10 24 27 44.5t39 35t46.5 23t48.5 8.5q29 0 53.5 -8.5t40.5 -27.5t23.5 -48t4.5 -69q25 3 53.5 17.5t53.5 38.5t44 58t26 77h139q-9 -40 -28 -76.5t-45.5 -69t-57 -57 t-62.5 -43.5t-64 -30q-33 -10 -59 -10h-114q3 25 4 49t-3 44t-14 32t-31 12q-18 0 -35 -11.5t-28.5 -31t-21.5 -44.5q-9 -23 -14 -50h-108q6 27 6.5 51.5t-4.5 43.5t-16.5 30.5t-29.5 11.5q-20 0 -37 -12t-29 -32t-19.5 -44.5t-10.5 -48.5h-123z" />
<glyph unicode="&#xf70d;" d="M-117 1612l21 99h181l32 158h143l-32 -158h187l-21 -99h-187l-33 -161h-145l34 161h-180z" />
<glyph unicode="&#xf70e;" d="M-105 1451q47 139 158 207q113 68 286 76l-22 -96q-105 -7 -179 -54.5t-103 -132.5h-140z" />
<glyph unicode="&#xf70f;" horiz-adv-x="1940" d="M149 0l137 648q6 32 11 63t1.5 58.5t-18 54t-43.5 52.5q33 70 86.5 138t129.5 121t173.5 87t220.5 34q99 0 170 -20t120 -55t76.5 -82.5t38.5 -105t7.5 -121t-18.5 -130.5l-72 -345q-17 -77 -7.5 -133.5t40 -92t79 -52.5t109.5 -17t118 17t102.5 52.5t79 92.5t50.5 133 l177 829h149l-174 -804q-20 -102 -64 -184.5t-111 -142t-155.5 -90.5t-197.5 -31q-111 0 -185.5 31t-117 90.5t-51 142t11.5 184.5l76 346q9 44 12 88.5t-4.5 84.5t-27.5 76t-54 61.5t-84.5 41.5t-120.5 16q-90 1 -162.5 -23t-126 -62.5t-89 -85.5t-53.5 -89q27 -15 40 -38 t17.5 -53t0.5 -64.5t-12 -75.5l-114 -534h138l-21 -111h-288z" />
<glyph unicode="&#xf710;" d="M-565 1451l45 213h137l-23 -106h843l-22 -107h-980z" />
<glyph unicode="&#xf711;" d="M-461.5 1552.5q-8.5 34.5 0.5 73.5q8 41 31.5 77t54 62t68.5 41t76 15q41 0 74 -15t53.5 -41t27.5 -62t-1 -77q-9 -39 -30 -73.5t-53.5 -60t-70.5 -40t-80 -14.5q-39 0 -70 14.5t-51.5 40t-29 60zM-359 1593q3 -16 13 -28t24 -19q15 -7 33 -7q20 0 37.5 7t33 19t25 28 t13.5 33q9 41 -10.5 67.5t-60.5 26.5q-18 0 -35.5 -7.5t-32 -20t-25.5 -29t-15 -37.5q-3 -17 0 -33z" />
<glyph unicode="&#xf712;" d="M-861 1602q-3 39 5 73q14 64 48 108.5t80 73.5t101 42.5t113 13.5h540l-23 -107h-517q-55 0 -92.5 -15.5t-59.5 -37t-31.5 -43.5t-12.5 -35q-2 -12 -3.5 -31.5t5.5 -38.5t24.5 -33t55.5 -14q47 0 82.5 31.5t52.5 85.5h99q-5 -25 -4 -46.5t8 -36.5t25 -24.5t45 -9.5 q29 0 51 11t37.5 27t24 37t10.5 42h131q-6 -50 -24 -93t-50 -74.5t-76.5 -49t-103.5 -17.5q-41 0 -69.5 11.5t-46 30t-26 42.5t-8.5 47q-9 -23 -28 -47t-45 -43t-61 -30.5t-78 -10.5q-63 3 -101 27t-56.5 59t-21.5 75z" />
<glyph unicode="&#xf713;" d="M-177 1907l66 312h134l-61 -312h-139z" />
<glyph unicode="&#xf714;" d="M-531 2097l20 97h225l-40 -182q85 0 145 16.5t101.5 42.5t68.5 58q26 33 43 65h148q-9 -26 -30.5 -57.5t-52 -63.5t-73 -61t-95 -52.5t-115 -38t-137.5 -14.5h-147l42 190h-103z" />
<glyph unicode="&#xf715;" d="M-625 1907q9 61 32.5 108t55.5 78t67 46.5t67 15.5t55.5 -8t38 -23.5t22 -35t10.5 -43.5q8 24 25 43.5t39.5 35t47.5 23.5t51 8q29 0 52.5 -9t39.5 -26.5t23.5 -46.5t4.5 -70q25 3 52 17.5t51.5 39.5t44.5 58.5t28 75.5h138q-9 -40 -28.5 -77t-46 -68t-57 -57.5 t-63 -44.5t-64.5 -29t-58 -11h-111q3 25 4.5 49.5t-2.5 44.5t-14.5 32t-31.5 12q-19 0 -35.5 -12t-30 -31t-22 -44t-14.5 -51h-108q6 26 7.5 51.5t-4 45.5t-16 30.5t-28.5 10.5q-20 0 -37.5 -12t-29.5 -32t-20.5 -44t-11.5 -50h-123z" />
<glyph unicode="&#xf716;" d="M-330 2069l22 99h182l33 159h141l-33 -159h189l-22 -99h-185l-35 -162h-144l36 162h-184z" />
<glyph unicode="&#xf717;" d="M-210 1772q46 139 158.5 207.5t285.5 77.5l-21 -95q-106 -6 -177.5 -54t-101.5 -136h-144z" />
<glyph unicode="&#xf718;" d="M-508 -596l20 100h249l-84 -400h-141l64 300h-108z" />
<glyph unicode="&#xf719;" d="M-975 -596l20 100h256l-28 -126q-18 -90 12 -135q29 -45 113 -45q82 0 128 45q48 45 65 135l26 126h144l-27 -126q-11 -55 -37.5 -105.5t-69 -88t-104.5 -59t-145 -21.5q-82 0 -136 19t-81.5 56.5t-32.5 94.5q-4 54 11 130h-114z" />
<glyph unicode="&#xf71a;" d="M-488 -610q6 25 20.5 47.5t35 38.5t45.5 26t48 10q25 0 45 -10t33 -26t17.5 -38.5t-1.5 -47.5t-19 -46t-33 -37.5t-43.5 -26.5t-47.5 -10q-25 0 -46.5 10t-34.5 26.5t-18.5 37.5t-0.5 46z" />
<glyph unicode="&#xf71d;" horiz-adv-x="1515" d="M320 1226h162l-9 -995l457 830h123l83 -830l269 594q14 35 30 70.5t25 70t10.5 66t-12 56.5t-42.5 42.5t-79 22.5l15 79q58 5 108.5 17t90.5 35.5t71 60t50 87.5h182q-23 -52 -58 -96t-78 -77t-92 -53t-99 -25q47 -19 67.5 -55.5t22 -80t-12.5 -91t-34 -90.5l-417 -864 h-122l-89 844l-469 -844h-123z" />
<glyph unicode="&#xf881;" horiz-adv-x="1900" d="M149 0l137 654q6 32 11 65t1.5 62t-18 53t-43.5 42q32 70 86 138t131 121t176.5 85.5t225.5 32.5q75 0 134.5 -10.5t105.5 -31t79.5 -48t56.5 -59.5q38 35 83.5 62t95.5 45t102 27t105 9q87 0 158 -23.5t115.5 -73t60.5 -124t-6 -176.5l-266 -1250h-150l257 1207 q18 85 15 147t-28.5 101.5t-70 58.5t-109.5 19q-54 0 -101.5 -14t-86.5 -41t-70 -68t-51 -93q3 -42 -3 -87t-15 -91l-242 -1136h-149l248 1162q9 44 12 88.5t-5 84.5t-28 76t-56.5 61.5t-89.5 41.5q-52 16 -128 16q-96 0 -172 -26.5t-130 -65.5t-88.5 -83t-50.5 -79 q44 -29 54.5 -87.5t-5.5 -140.5l-117 -543h138l-21 -108h-288z" />
<glyph unicode="&#xf882;" horiz-adv-x="1937" d="M44 0l22 111h128l117 543q6 32 11 65t0.5 62t-18 53t-44.5 42q32 70 86 138t131.5 121t179.5 85.5t228 32.5q79 0 141 -12t109.5 -32.5t81 -49.5t53.5 -64q38 38 82.5 65.5t93.5 47.5t101.5 29.5t105.5 9.5q87 0 158.5 -23.5t116 -73t60 -124t-4.5 -176.5l-266 -1247 h-150l258 1204q18 85 13.5 147t-29.5 101.5t-70 58.5t-110 19q-111 0 -189.5 -55.5t-118.5 -163.5q3 -42 -2.5 -86t-14.5 -89l-243 -1136h-150l248 1162q9 44 12 88.5t-5 84.5t-28 76t-56.5 61.5t-92 41.5t-131.5 16q-99 0 -175 -26.5t-130.5 -65.5t-89 -83t-51.5 -79 q44 -29 54 -87.5t-5 -140.5l-138 -651h-279z" />
<glyph d="M-568 1451q23 100 94 164q71 67 197 93q32 82 111 132q78 49 204 61l-20 -98q-54 -3 -90 -14t-58.5 -32t-36.5 -54t-24 -77v-2h-16q-53 0 -90 -12t-64 -34.5t-45 -54.5q-17 -31 -28 -72h-134z" />
<glyph horiz-adv-x="1001" d="M-446 1552.5q-8 34.5 1 73.5q8 41 31 77t53.5 62t68.5 41t76 15q41 0 74.5 -15t54 -41t27 -62t-2.5 -77q-9 -39 -30 -73.5t-53 -60t-70 -40t-80 -14.5q-40 0 -70.5 14.5t-51 40t-28.5 60zM-345 1626q-2 -17 1.5 -33t13 -28t24 -19t32.5 -7q20 0 38 7t33 19t25 28 q12 16 14 33q9 41 -11.5 67.5t-61.5 26.5q-17 0 -34.5 -7.5t-32 -20t-25.5 -29t-16 -37.5zM222 908q20 85 71.5 149t119 106.5t147 63t158.5 20.5q88 0 158 -23.5t115.5 -73t61.5 -124t-6 -176.5l-180 -850h-149l170 807q17 85 13.5 147t-29 101.5t-70 58.5t-108.5 19 q-111 0 -192.5 -57t-118.5 -168h-161z" />
<glyph horiz-adv-x="1001" d="M-446 1552.5q-8 34.5 1 73.5q8 41 31 77t53.5 62t68.5 41t76 15q41 0 74.5 -15t54 -41t27 -62t-2.5 -77q-9 -39 -30 -73.5t-53 -60t-70 -40t-80 -14.5q-40 0 -70.5 14.5t-51 40t-28.5 60zM-345 1626q-2 -17 1.5 -33t13 -28t24 -19t32.5 -7q20 0 38 7t33 19t25 28 q12 16 14 33q9 41 -11.5 67.5t-61.5 26.5q-17 0 -34.5 -7.5t-32 -20t-25.5 -29t-16 -37.5zM222 908q20 85 71.5 149t119 106.5t147 63t158.5 20.5q88 0 158 -23.5t115.5 -73t61.5 -124t-6 -176.5l-180 -850h-149l170 807q17 85 13.5 147t-29 101.5t-70 58.5t-108.5 19 q-111 0 -192.5 -57t-118.5 -168h-161z" />
<glyph d="M-634 1451l75 107h753l-20 -107h-808z" />
<glyph d="M-634 1451l75 107h616l42 191h138l-63 -298h-808z" />
<glyph d="M-634 1451l75 107h404q-4 16 -6 39q-3 21 3 44q9 41 31.5 76t54 61.5t69 42.5t75.5 16q40 0 73 -16t53.5 -42.5t28 -61.5t-1.5 -76t-31 -75t-52.5 -60t-68.5 -40.5t-79 -14.5h-628zM-60 1641q-3 -19 1 -36t14 -29t24.5 -19.5t32.5 -7.5q19 0 37 7.5t34 19.5t26.5 30 t13.5 35q4 19 0.5 36t-14 30t-25 20t-33.5 7t-37 -7t-33.5 -20t-25.5 -30t-15 -36z" />
<glyph d="M-634 1451l75 107h308l41 191h136l-43 -191h177l42 191h135l-63 -298h-808z" />
<glyph d="M-1162 1451l73 107h1035l-20 -107h-1088z" />
<glyph d="M-1162 1451l73 107h898l42 191h137l-62 -298h-1088z" />
<glyph d="M-1162 1451l73 107h753q-4 16 -5 39q-1 21 2 44q9 41 32.5 76t55.5 61.5t70 42.5t76 16q41 0 73 -16t51.5 -42.5t26.5 -61.5t-2 -76t-29.5 -75t-51 -60t-68.5 -40.5t-80 -14.5h-977zM-239 1641q-3 -19 1 -36t14.5 -29t25 -19.5t34.5 -7.5q19 0 37.5 7.5t33 19.5t25 30 t14.5 35q4 19 1.5 36t-13 30t-26 20t-34.5 7t-37 -7t-34 -20t-27 -30t-15 -36z" />
<glyph d="M-1162 1451l73 107h593l40 191h136l-42 -191h174l42 191h134l-62 -298h-1088z" />
<glyph d="M-117 1907l66 312h136l-67 -312h-135z" />
<glyph d="M-428 2097l22 97h224l-40 -182q83 0 143 16.5t101.5 42.5t69.5 58.5t45 64.5h146q-9 -26 -29 -57.5t-52.5 -63.5t-74 -61t-94 -52.5t-116 -38t-136.5 -14.5h-146l42 190h-105z" />
<glyph d="M-628 1907q9 61 32.5 108t55.5 78t67 46.5t67 15.5t55.5 -8t38 -23.5t22 -35t10.5 -43.5q8 24 25 43.5t39.5 35t47.5 23.5t51 8q29 0 52.5 -9t39.5 -26.5t23.5 -46.5t4.5 -70q25 3 52 17.5t51.5 39.5t44.5 58.5t29 75.5h137q-9 -40 -28.5 -77t-46 -68t-57 -57.5 t-62.5 -44.5t-65 -29q-32 -11 -58 -11h-111q3 25 4.5 49.5t-2 44.5t-14.5 32t-32 12q-19 0 -35.5 -12t-30 -31t-22 -44t-14.5 -51h-108q6 26 6.5 51.5t-4.5 45.5t-15 30.5t-28 10.5q-20 0 -37.5 -12t-29.5 -32t-20.5 -44t-11.5 -50h-123z" />
<glyph d="M-269 2069l21 99h188l34 159h134l-34 -159h189l-21 -99h-188l-36 -162h-135l35 162h-187z" />
<glyph d="M-1086 1451l74 107h1206l-20 -107h-1260z" />
<glyph d="M-1086 1451l74 107h1069l42 191h138l-63 -298h-1260z" />
<glyph d="M-1086 1451l74 107h857q-4 16 -6 39q-3 21 3 44q9 41 31.5 76t54 61.5t69 42.5t75.5 16q40 0 73 -16t53.5 -42.5t28 -61.5t-1.5 -76t-31 -75t-52.5 -60t-68.5 -40.5t-79 -14.5h-1080zM-60 1641q-3 -19 1 -36t14 -29t24.5 -19.5t32.5 -7.5q19 0 37 7.5t34 19.5t26.5 30 t13.5 35q4 19 0.5 36t-14 30t-25 20t-33.5 7t-37 -7t-33.5 -20t-25.5 -30t-15 -36z" />
<glyph d="M-1086 1451l74 107h761l41 191h136l-43 -191h177l42 191h135l-63 -298h-1260z" />
<glyph d="M105 1772l64 313h139l-66 -313h-137z" />
<glyph d="M-219 1962l22 98h220l-35 -182q84 0 143.5 16t102 42t69.5 58t44 66h146q-8 -26 -28.5 -57.5t-51 -63.5t-73 -61.5t-95 -52.5t-115.5 -38t-136 -15h-146l38 190h-105z" />
<glyph d="M-403 1772q6 62 29.5 108.5t54.5 78t67 47t67 15.5q32 0 56 -8t39.5 -23.5t22.5 -36t7 -43.5q10 23 27 43.5t38 36t46 23.5t51 8q29 0 52.5 -9t40.5 -27t25 -46.5t5 -69.5q25 3 52 17.5t51.5 38.5t44.5 58q18 35 27 77h137q-8 -41 -27 -77.5t-45.5 -68t-57 -57.5 t-62 -44.5t-62.5 -28.5q-32 -12 -58 -12h-114q3 25 3 50t-4.5 44.5t-14.5 31.5t-32 12q-19 0 -35 -12t-28 -31t-20.5 -43.5t-11.5 -51.5h-108q6 27 6 52.5t-5.5 44.5t-16 30t-29.5 11q-21 0 -37.5 -12t-28.5 -31.5t-20 -43.5q-6 -24 -9 -51h-123z" />
<glyph d="M-48 1934l22 98h178l33 159h145l-34 -159h189l-21 -98h-190l-32 -162h-143l32 162h-179z" />
<glyph d="M-204 1772l67 313h137l-66 -313h-138z" />
<glyph d="M-574 1962l21 98h223l-38 -182q85 0 144.5 16t103 42t70.5 58t44 66h143q-9 -26 -29 -57.5t-51 -63.5t-71.5 -61.5t-93.5 -52.5t-117 -38t-137 -15h-146l38 190h-104z" />
<glyph d="M-771 1772q6 62 29.5 108.5t54.5 78t67 47t67 15.5q32 0 56 -8t39.5 -23.5t22.5 -36t7 -43.5q10 23 27.5 43.5t39.5 36t47 23.5t51 8q29 0 53.5 -9t41 -27t24 -46.5t4.5 -69.5q25 3 52 17.5t51.5 38.5t43.5 58q16 35 25 77h137q-8 -41 -27 -77.5t-44 -68t-55.5 -57.5 t-63 -44.5t-62.5 -28.5q-31 -12 -57 -12h-114q3 25 3 50t-4.5 44.5t-14.5 31.5t-32 12q-19 0 -35 -12t-28.5 -31t-22 -43.5t-12.5 -51.5h-108q6 27 6 52.5t-5 44.5t-16 30t-30 11q-21 0 -37.5 -12t-28.5 -31.5t-20 -43.5q-6 -24 -9 -51h-123z" />
<glyph d="M-359 1934l20 98h184l32 159h141l-30 -159h186l-22 -98h-184l-34 -162h-144l33 162h-182z" />
<glyph d="M-663 -257l21 99h248l-85 -401h-140l63 302h-107z" />
<glyph d="M-952 -257l22 99h254l-28 -125q-17 -91 13.5 -136t112.5 -45t128.5 45t64.5 136l26 125h143l-26 -125q-12 -56 -37.5 -107t-68.5 -88t-104.5 -59t-146.5 -22q-81 0 -134.5 19t-82 57t-33 94t10.5 132h-114z" />
<glyph d="M-643.5 -309.5q-4.5 21.5 1.5 46.5q4 25 18.5 47t36 38.5t45.5 27t49 10.5q24 0 44 -10.5t31.5 -27t16 -38.5t1.5 -47q-6 -25 -20.5 -46.5t-34 -38t-44 -26t-49.5 -9.5q-24 0 -44.5 9.5t-33.5 26t-17.5 38z" />
<glyph d="M-602 -257l21 99h248l-82 -401h-141l63 302h-109z" />
<glyph d="M-1083 -257l22 99h254l-28 -125q-18 -91 13 -136t112.5 -45t128.5 45t64 136l26 125h144l-27 -125q-11 -56 -37 -107t-69 -88t-104 -59t-146 -22q-82 0 -135 19t-81.5 57t-33 94t10.5 132h-114z" />
<glyph d="M-599 -263q5 25 20 47t35.5 38.5t45.5 27t50 10.5t44 -10.5t31 -27t17.5 -38.5t-0.5 -47t-20 -46.5t-33.5 -38t-43.5 -26t-49 -9.5t-44.5 9.5t-33 26t-19 38t-0.5 46.5z" />
<glyph d="M-565 1451l45 213h137l-23 -106h962l-22 -107h-1099z" />
<glyph d="M-177 1907l66 312h134l-61 -312h-139z" />
<glyph d="M-434 2097l22 97h224l-40 -182q85 0 145 16.5t101.5 42.5t68.5 58.5t44 64.5h146q-8 -26 -28.5 -57.5t-52.5 -63.5t-74 -61t-94.5 -52.5t-116 -38t-136.5 -14.5h-146l41 190h-104z" />
<glyph d="M-505 1907q7 61 31 108t55.5 78t67.5 46.5t68 15.5t55.5 -8t38 -23.5t21.5 -35t10 -43.5q9 24 26 43.5t38.5 35t46.5 23.5t50 8q29 0 53 -9t41 -26.5t24 -46.5t5 -70q24 3 51 17.5t52 39.5t44.5 58.5t28.5 75.5h137q-8 -40 -28 -77t-46 -68t-57 -57.5t-63 -44.5t-64 -29 t-58 -11h-114q3 25 4.5 49.5t-1.5 44.5t-13.5 32t-30.5 12q-19 0 -36 -12t-30 -31t-21.5 -44t-14.5 -51h-108q5 26 6 51.5t-4 45.5t-15.5 30.5t-27.5 10.5q-21 0 -38.5 -12t-29 -32t-20.5 -44t-12 -50h-122z" />
<glyph d="M-330 2069l22 99h182l33 159h141l-33 -159h189l-22 -99h-185l-35 -162h-144l36 162h-184z" />
<glyph d="M-257 1907l66 312h136l-65 -312h-137z" />
<glyph d="M-409 2069l21 99h182l34 159h140l-34 -159h189l-21 -99h-185l-37 -162h-143l35 162h-181z" />
</font>
</defs>
</svg>
