<?xml version="1.0" standalone="no"?>
<!DOCTYPE svg PUBLIC "-//W3C//DTD SVG 1.1//EN" "http://www.w3.org/Graphics/SVG/1.1/DTD/svg11.dtd" >
<svg xmlns="http://www.w3.org/2000/svg">
<metadata>
Created by FontPrep 20130207 at Sat Sep 13 20:51:57 2014
 By UntinosZ
Copyright (c) Phanlop Thongsuk, 1999-2001. All rights reserved.
</metadata>
<defs>
<font id="7b0cf6aba0deaa9b557a931966e329ea" horiz-adv-x='1024' >
  <font-face 
    font-family="KittithadaLight45P"
    font-weight="300"
    font-stretch="normal"
    units-per-em="2048"
    panose-1="2 2 6 3 5 4 5 2 3 4"
    ascent="1638"
    descent="-410"
    x-height="698"
    cap-height="965"
    bbox="-838 -606 1556 1599"
    underline-thickness="30"
    underline-position="-76"
    unicode-range="U+0020-F71D"
  />
<missing-glyph horiz-adv-x="1599" 
d="M1401 100v1399h-1200v-1399h1200zM100 0v1599h1399v-1599h-1399z" />
    <glyph glyph-name=".notdef" horiz-adv-x="1599" 
d="M1401 100v1399h-1200v-1399h1200zM100 0v1599h1399v-1599h-1399z" />
    <glyph glyph-name="glyph1" 
 />
    <glyph glyph-name="nonmarkingreturn" horiz-adv-x="512" 
 />
    <glyph glyph-name="space" unicode=" " horiz-adv-x="512" 
 />
    <glyph glyph-name="space" unicode="&#xa0;" horiz-adv-x="512" 
 />
    <glyph glyph-name="exclam" unicode="!" horiz-adv-x="325" 
d="M221 0h-115v143h115v-143zM117 965h92v-287l-21 -438h-51l-20 438v287z" />
    <glyph glyph-name="quotedbl" unicode="&#x22;" horiz-adv-x="499" 
d="M203 637h-86v328h86v-328zM383 637h-86v328h86v-328z" />
    <glyph glyph-name="numbersign" unicode="#" horiz-adv-x="751" 
d="M492 573h-191l-29 -211h191zM709 573h-150l-29 -211h142v-61h-150l-43 -301h-67l43 301h-191l-43 -301h-67l43 301h-150v61h158l28 211h-147v62h156l43 299h67l-43 -299h191l43 299h67l-43 -299h142v-62z" />
    <glyph glyph-name="dollar" unicode="$" horiz-adv-x="751" 
d="M399 51q98 -1 163 49t65 142t-74 141q-45 33 -154 57v-389zM348 913q-86 0 -142 -50t-56 -134t36.5 -122.5t161.5 -69.5v376zM713 240q0 -114 -97 -191q-90 -61 -217 -61v-115h-51v117q-160 10 -234.5 87t-74.5 230h86q0 -231 223 -256v400q-178 41 -231 103t-53 145
q-1 141 79 213.5t205 72.5v107h51v-107q121 0 204 -81t83 -212h-84q0 104 -55 162.5t-148 58.5v-389q188 -39 256 -112q58 -58 58 -172z" />
    <glyph glyph-name="percent" unicode="%" horiz-adv-x="1202" 
d="M451 697q0 77 -33 137t-111 59.5t-109.5 -58t-31.5 -139.5t27 -127q37 -66 114.5 -65.5t110.5 58.5t33 135zM1044 234q0 76 -32 136t-107 60q-74 0 -110.5 -55t-36.5 -136q0 -79 32 -139t110.5 -59.5t115.5 63.5q28 54 28 130zM522 697q0 -119 -52 -187t-162.5 -68
t-162 70t-51.5 186.5t51.5 186t162 69.5t162.5 -69.5t52 -187.5zM932 979l-610 -1016h-66l612 1016h64zM1116 236q0 -249 -215 -248.5t-215 182.5t52.5 252t163 70t162.5 -69.5t52 -186.5z" />
    <glyph glyph-name="ampersand" unicode="&#x26;" horiz-adv-x="825" 
d="M137 237q0 -78 63 -132t140 -54q137 0 235 137l-239 293q-100 -57 -133 -94q-66 -72 -66 -150zM512 767q0 60 -37 93t-92 33t-91 -32t-36 -90t40 -110.5t69 -87.5q147 95 147 194zM733 428q0 -129 -57 -231l162 -197h-107l-102 125q-113 -137 -285 -137q-129 0 -210 66.5
t-81 195.5q0 166 236 287q-37 47 -56.5 74.5t-23.5 31.5q-39 63 -39 138t60.5 129.5t152.5 54.5t153.5 -54.5t61.5 -135.5q0 -112 -72.5 -170t-117.5 -87l210 -254q29 60 29 164h86z" />
    <glyph glyph-name="quotesingle" unicode="'" horiz-adv-x="374" 
d="M231 637h-86v328h86v-328z" />
    <glyph glyph-name="parenleft" unicode="(" horiz-adv-x="325" 
d="M154 328q0 -292 174 -578h-68q-100 164 -145 301t-45 309q0 328 190 625h68q-174 -277 -174 -657z" />
    <glyph glyph-name="parenright" unicode=")" horiz-adv-x="325" 
d="M172 399q0 296 -172 586h66q100 -163 145 -306.5t45 -313.5q0 -316 -190 -615h-66q172 274 172 649z" />
    <glyph glyph-name="asterisk" unicode="*" horiz-adv-x="475" 
d="M211 965h53v-166l156 55l18 -49l-157 -53l96 -134l-43 -30l-98 135l-99 -135l-43 30l99 134l-156 53l18 49l156 -55v166z" />
    <glyph glyph-name="plus" unicode="+" horiz-adv-x="811" 
d="M745 303h-303v-303h-71v303h-305v72h305v305h71v-305h303v-72z" />
    <glyph glyph-name="comma" unicode="," horiz-adv-x="374" 
d="M244 0q0 -57 -30 -108.5t-89 -67.5v57q33 12 48 48t15 71h-57v143h113v-143z" />
    <glyph glyph-name="hyphen" unicode="-" horiz-adv-x="499" 
d="M420 332h-338v80h338v-80z" />
    <glyph glyph-name="period" unicode="." horiz-adv-x="374" 
d="M244 0h-113v143h113v-143z" />
    <glyph glyph-name="slash" unicode="/" horiz-adv-x="450" 
d="M467 985l-412 -997h-65l409 997h68z" />
    <glyph glyph-name="zero" unicode="0" horiz-adv-x="751" 
d="M131 467q0 -156 41 -268q57 -147 202.5 -147.5t205.5 145.5q41 110 41 270q0 414 -246 416q-244 0 -244 -416zM707 467q0 -481 -332 -479q-184 0 -269 151q-61 119 -61 326q0 491 330 489q184 0 268 -159q64 -119 64 -328z" />
    <glyph glyph-name="one" unicode="1" horiz-adv-x="751" 
d="M467 0h-86v702h-250v62q131 0 178 24q70 37 88 158h70v-946z" />
    <glyph glyph-name="two" unicode="2" horiz-adv-x="751" 
d="M672 0h-623q0 170 166 299q72 53 144.5 105.5t144.5 105.5q78 82 78 175t-60 145.5t-160 52.5t-152 -75t-52 -190h-86q0 154 74 245t216 91t224 -68t82 -186t-72 -208q-51 -70 -166 -140q-41 -29 -84 -56.5t-84 -55.5q-102 -80 -117 -162h527v-78z" />
    <glyph glyph-name="three" unicode="3" horiz-adv-x="751" 
d="M694 280q0 -146 -90 -219t-238 -73q-147 0 -234 79.5t-87 233.5h84q0 -113 62.5 -181.5t168.5 -68.5t177 55.5t71 153.5t-63.5 149.5t-163.5 51.5h-72v71h72q70 0 131 43t61 131t-57 132.5t-155 44.5t-153.5 -64.5t-55.5 -175.5h-86q0 137 81 224t213 87t207 -57
q90 -66 90 -184q0 -78 -42 -134.5t-115 -74.5q92 -16 143 -79t51 -145z" />
    <glyph glyph-name="four" unicode="4" horiz-adv-x="751" 
d="M477 307v514l-360 -514h360zM698 236h-143v-236h-78v236h-436v81l438 629h76v-639h143v-71z" />
    <glyph glyph-name="five" unicode="5" horiz-adv-x="751" 
d="M383 627q135 0 220 -89.5t85 -232.5t-96 -233q-96 -84 -231.5 -84t-223.5 73.5t-88 208.5h84q0 -94 66.5 -156.5t168.5 -62.5t168 75.5t66 180.5t-67.5 176.5t-174.5 71.5q-63 0 -119.5 -28.5t-90.5 -84.5h-72l90 492h473v-78h-412l-61 -313q80 84 215 84z" />
    <glyph glyph-name="six" unicode="6" horiz-adv-x="751" 
d="M389 545q-109 0 -170 -69.5t-61 -180.5t58 -177.5t167 -66.5t173.5 70.5t64.5 175.5q0 104 -61.5 176t-170.5 72zM707 301q1 -141 -91 -227t-231 -86q-178 0 -255 112.5t-77 382.5q0 172 51 277q86 195 287 194q260 0 291 -247h-84q-12 80 -64.5 128t-134.5 48
q-147 0 -211 -148q-49 -111 -49 -276q37 72 105.5 114.5t143.5 42.5q145 0 232 -87t87 -228z" />
    <glyph glyph-name="seven" unicode="7" horiz-adv-x="751" 
d="M295 0h-92q0 219 96 436q84 182 293 420h-522v78h608v-78q-383 -393 -383 -856z" />
    <glyph glyph-name="eight" unicode="8" horiz-adv-x="751" 
d="M374 50.5q106 -0.5 174 55.5t68 157t-68.5 154.5t-173 53.5t-172 -53.5t-67.5 -155.5t66.5 -156.5t172.5 -55zM578 712q0 83 -55.5 127t-144.5 44t-147.5 -44t-58.5 -128t64 -129q51 -39 138 -39t145.5 43t58.5 126zM702 264q0 -139 -93 -207.5t-234.5 -68.5t-229.5 61
q-96 78 -96 215q0 94 50.5 159.5t142.5 82.5q-154 51 -154 211q0 115 90 180q76 57 196 57t195 -57q92 -66 93 -180q0 -76 -41 -131.5t-113 -77.5v-2q92 -16 143 -80t51 -162z" />
    <glyph glyph-name="nine" unicode="9" horiz-adv-x="751" 
d="M594 636q0 108 -58 178q-58 69 -168 69t-173.5 -71t-63.5 -175t61.5 -176t169.5 -72t170 69.5t62 177.5zM698 434q0 -154 -51 -260q-86 -186 -287 -186q-260 0 -290 239h84q10 -80 63 -128t135 -48q145 0 211 148q49 111 49 276q-37 -72 -105.5 -115t-144.5 -43
q-141 0 -229 86.5t-88 227.5t91 232t231 91q176 0 253.5 -116t77.5 -404z" />
    <glyph glyph-name="colon" unicode=":" horiz-adv-x="374" 
d="M244 0h-113v143h113v-143zM244 532h-113v144h113v-144z" />
    <glyph glyph-name="semicolon" unicode=";" horiz-adv-x="374" 
d="M244 0q0 -57 -30 -108.5t-89 -67.5v57q33 12 48 48t15 71h-57v143h113v-143zM244 532h-113v144h113v-144z" />
    <glyph glyph-name="less" unicode="&#x3c;" horiz-adv-x="811" 
d="M750 -2l-689 307v74l689 315v-73l-605 -279l605 -279v-65z" />
    <glyph glyph-name="equal" unicode="=" horiz-adv-x="811" 
d="M745 172h-679v72h679v-72zM745 438h-679v72h679v-72z" />
    <glyph glyph-name="greater" unicode="&#x3e;" horiz-adv-x="811" 
d="M750 305l-689 -307v65l605 279l-605 279v73l689 -315v-74z" />
    <glyph glyph-name="question" unicode="?" horiz-adv-x="724" 
d="M426 0h-115v143h115v-143zM653 735q0 -72 -27.5 -122t-98.5 -118t-78 -79q-37 -47 -37 -174h-86q0 115 28 168t97 118q69 66 93.5 110t24.5 108t-56 115.5t-149 51.5t-149.5 -67.5t-56.5 -177.5h-84q0 147 78 232t212 85t211.5 -66.5t77.5 -183.5z" />
    <glyph glyph-name="at" unicode="@" horiz-adv-x="1081" 
d="M682 563q0 49 -33 88t-74 39q-97 0 -163 -103t-66 -210q0 -61 31 -96t82 -35q87 0 155 108t68 209zM440 174q-84 0 -132 55.5t-48 141.5q0 151 91 271t231 120q96 0 143 -115l33 88h71l-129 -389q-14 -35 -14 -74t31 -39q86 0 157.5 109t71.5 227q0 162 -110 258
q-115 97 -289 97t-293 -127t-119 -317t124 -314q124 -125 306 -125q104 0 197.5 47t150.5 133h70q-61 -111 -175 -172t-243 -61q-217 0 -360 137q-141 143 -141 358t143 358.5t349 143.5t331 -119q131 -117 131 -289q0 -173 -97 -289t-216 -116q-39 0 -65 23.5t-26 68.5
q-90 -90 -174 -90z" />
    <glyph glyph-name="A" unicode="A" horiz-adv-x="851" 
d="M614 379l-186 493l-195 -493h381zM860 0h-98l-117 301h-440l-115 -301h-92l381 965h104z" />
    <glyph glyph-name="B" unicode="B" horiz-adv-x="901" 
d="M506 78q254 0 254 198q0 92 -65.5 139.5t-188.5 47.5h-318v-385h318zM723 707q0 180 -217 180h-318v-344h318q106 0 161.5 45t55.5 119zM852 271q0 -101 -55 -169q-84 -102 -291 -102h-408v965h408q137 0 215 -50q94 -57 94 -186q0 -80 -45 -140.5t-123 -76.5
q94 -14 149.5 -77t55.5 -164z" />
    <glyph glyph-name="C" unicode="C" horiz-adv-x="952" 
d="M506 -12q-217 0 -340 143q-115 145 -115 354t113 346q125 154 342 154q143 0 257 -83t132 -228h-92q-25 111 -106 172t-191 61q-178 0 -270 -125t-93 -300q0 -175 92 -300t271 -125q131 0 214 87t97 225h92q-20 -180 -124.5 -280.5t-278.5 -100.5z" />
    <glyph glyph-name="D" unicode="D" horiz-adv-x="925" 
d="M782 483q0 215 -94 309.5t-303 94.5h-197v-809h197q207 0 302 95t95 310zM874 483q0 -242 -112.5 -362.5t-329.5 -120.5h-334v965h334q442 -1 442 -482z" />
    <glyph glyph-name="E" unicode="E" horiz-adv-x="800" 
d="M770 0h-672v965h666v-78h-576v-348h539v-80h-539v-381h582v-78z" />
    <glyph glyph-name="F" unicode="F" horiz-adv-x="724" 
d="M709 887h-521v-348h463v-80h-463v-459h-90v965h611v-78z" />
    <glyph glyph-name="G" unicode="G" horiz-adv-x="1001" 
d="M922 0h-66l-12 176q-47 -98 -137.5 -143t-200.5 -45q-217 0 -340 143q-115 145 -115 354t113 346q125 154 342 154q160 0 269.5 -83t133.5 -236h-92q-10 92 -95 166t-216 75q-178 0 -270 -125t-93 -300q0 -175 92 -300q91 -125 261 -125t258 97.5t88 257.5h-330v80h410
v-492z" />
    <glyph glyph-name="H" unicode="H" horiz-adv-x="952" 
d="M854 0h-92v467h-574v-467h-90v965h90v-418h574v418h92v-965z" />
    <glyph glyph-name="I" unicode="I" horiz-adv-x="301" 
d="M197 0h-93v965h93v-965z" />
    <glyph glyph-name="J" unicode="J" horiz-adv-x="675" 
d="M578 268q0 -150 -63.5 -215t-217.5 -65t-211 84t-57 237h92q0 -117 20 -155q41 -96 154 -96t152.5 52t39.5 197v658h91v-697z" />
    <glyph glyph-name="K" unicode="K" horiz-adv-x="876" 
d="M188 0h-90v965h90v-519l562 519h124l-432 -398l453 -567h-119l-401 504l-187 -172v-332z" />
    <glyph glyph-name="L" unicode="L" horiz-adv-x="724" 
d="M729 0h-631v965h90v-887h541v-78z" />
    <glyph glyph-name="M" unicode="M" horiz-adv-x="1126" 
d="M1032 0h-92v834l-334 -834h-86l-332 834l-2 -834h-92v965h135l334 -846l334 846h135v-965z" />
    <glyph glyph-name="N" unicode="N" horiz-adv-x="952" 
d="M856 0h-102l-564 817l-2 -817h-92v965h103l563 -815l2 815h92v-965z" />
    <glyph glyph-name="O" unicode="O" horiz-adv-x="1001" 
d="M864 482q0 175 -92 300t-271 125t-271 -125t-93 -300q0 -175 92 -300q91 -125 271 -125t272 125t92 300zM956 482q0 -212 -112 -349q-127 -145 -343 -145t-341 143q-115 139 -115 351t113 349q125 154 341 154t343 -151q114 -140 114 -352z" />
    <glyph glyph-name="P" unicode="P" horiz-adv-x="851" 
d="M721 690q0 98 -58.5 147.5t-156.5 49.5h-318v-395h318q98 0 156.5 50t58.5 148zM813 689q0 -130 -75.5 -202.5t-211.5 -72.5h-338v-414h-90v965h428q129 0 208 -73t79 -203z" />
    <glyph glyph-name="Q" unicode="Q" horiz-adv-x="1001" 
d="M864 483q0 174 -92 299t-271 125t-271 -125t-93 -300q0 -175 92 -300t273 -125q100 0 178 47l-127 97l47 59l141 -106q59 57 91 144t32 185zM956 466q0 -228 -147 -366l139 -100l-47 -53l-149 104q-100 -63 -250 -63q-217 0 -342 143q-115 139 -115 351t113 349
q125 154 341 154t343 -151q114 -140 114 -368z" />
    <glyph glyph-name="R" unicode="R" horiz-adv-x="901" 
d="M741 694q0 193 -209 193h-344v-381h344q92 0 150.5 50t58.5 138zM645 467q168 -22 168 -216q0 -89 8 -152.5t37 -98.5h-100q-27 42 -27 137q0 170 -48 230.5t-144 60.5h-351v-428h-90v965h441q129 0 211 -64t84 -173q0 -109 -48.5 -176t-140.5 -85z" />
    <glyph glyph-name="S" unicode="S" horiz-adv-x="851" 
d="M803 262q0 -274 -369 -274q-176 0 -278 71q-106 86 -107 258h92q0 -258 314 -260q96 0 166 45q90 54 90 140q0 139 -199 186l-215 53q-102 27 -160 78t-57.5 153.5t63.5 172.5q87 100 253 100t270 -79t104 -220h-92q0 106 -77 163.5t-183 57.5t-176 -45t-70 -147
q0 -112 145 -148l236 -57q121 -35 176 -80q74 -66 74 -168z" />
    <glyph glyph-name="T" unicode="T" horiz-adv-x="751" 
d="M758 887h-336v-887h-92v887h-330v78h758v-78z" />
    <glyph glyph-name="U" unicode="U" horiz-adv-x="925" 
d="M838 348q0 -164 -86 -258q-98 -102 -290 -102t-283 97t-91 263v617h92v-596q0 -166 71 -239t212 -73t211.5 73t70.5 239v596h93v-617z" />
    <glyph glyph-name="V" unicode="V" horiz-adv-x="800" 
d="M813 965l-358 -965h-107l-350 965h92l313 -865l314 865h96z" />
    <glyph glyph-name="W" unicode="W" horiz-adv-x="1226" 
d="M1223 965l-267 -965h-98l-244 864l-245 -864h-101l-268 965h98l219 -844l238 844h115l237 -844l223 844h93z" />
    <glyph glyph-name="X" unicode="X" horiz-adv-x="776" 
d="M788 0h-110l-293 426l-297 -426h-96l340 498l-328 467h109l272 -404l283 404h102l-330 -469z" />
    <glyph glyph-name="Y" unicode="Y" horiz-adv-x="825" 
d="M459 0h-92v397l-373 568h102l318 -490l315 490h111l-381 -568v-397z" />
    <glyph glyph-name="Z" unicode="Z" horiz-adv-x="776" 
d="M758 0h-752v82l635 805h-592v78h696v-80l-636 -807h649v-78z" />
    <glyph glyph-name="bracketleft" unicode="[" horiz-adv-x="325" 
d="M319 -250h-217v1235h217v-72h-131v-1091h131v-72z" />
    <glyph glyph-name="backslash" unicode="\" horiz-adv-x="450" 
d="M467 -12h-72l-405 997h61z" />
    <glyph glyph-name="bracketright" unicode="]" horiz-adv-x="325" 
d="M223 -250h-217v72h131v1091h-131v72h217v-1235z" />
    <glyph glyph-name="asciicircum" unicode="^" horiz-adv-x="811" 
d="M752 322h-78l-271 526l-266 -526h-78l312 612h69z" />
    <glyph glyph-name="underscore" unicode="_" horiz-adv-x="675" 
d="M676 -160h-676v68h676v-68z" />
    <glyph glyph-name="grave" unicode="`" horiz-adv-x="249" 
d="M205 795h-68l-170 190h96z" />
    <glyph glyph-name="a" unicode="a" horiz-adv-x="702" 
d="M526 270v111q-8 -14 -33 -20.5t-59 -13.5t-89.5 -16t-108.5 -20q-106 -33 -107 -123q0 -61 46 -99t110 -38q104 0 172.5 59.5t68.5 159.5zM356 717q256 0 256 -223v-371q0 -51 50 -51l28 6v-72l-55 -6q-59 0 -79.5 30.5t-20.5 90.5q-53 -76 -101 -105q-60 -28 -158 -28
t-163 41q-70 55 -70 155q0 129 117 176q62 26 184 40t154 28q28 22 28 88q-1 128 -184.5 128.5t-183.5 -161.5h-84q0 119 76.5 176.5t205.5 57.5z" />
    <glyph glyph-name="b" unicode="b" horiz-adv-x="776" 
d="M406 645q-120 0 -180 -87t-60 -211t58 -210t180 -86t178 89q57 89 57 212t-51 199q-61 94 -182 94zM412 717q152 1 232 -105t81 -267q0 -161 -80 -259t-233 -98q-86 0 -154 36.5t-96 108.5l-2 -133h-78v965h84v-400q27 72 95.5 112t150.5 40z" />
    <glyph glyph-name="c" unicode="c" horiz-adv-x="702" 
d="M358 -12q-136 0 -224.5 99t-88.5 259t87 265t243 106q117 0 192.5 -59.5t89.5 -178.5h-84q-16 78 -66 122t-132 44q-117 0 -180.5 -88t-63.5 -209t63.5 -209t180.5 -88q80 0 137 55.5t66 143.5h86q-32 -262 -306 -262z" />
    <glyph glyph-name="d" unicode="d" horiz-adv-x="776" 
d="M370 51q122 0 181 87t59 211t-58 210t-179 86t-179 -89t-57 -212q0 -123 51 -199q60 -94 182 -94zM694 0h-78v133q-29 -68 -101.5 -106.5t-149.5 -38.5q-152 0 -234 98q-80 106 -80 266t76 254q82 111 238 111q86 0 150.5 -39t90.5 -113l4 400h84v-965z" />
    <glyph glyph-name="e" unicode="e" horiz-adv-x="702" 
d="M582 397q0 106 -60.5 177t-160.5 71q-99 0 -158 -72t-72 -176h451zM360 51q177 0 220 178h86q-29 -123 -103.5 -182t-218.5 -59t-221.5 99t-77.5 256t79 265t236.5 108.5t237.5 -120.5q70 -100 70 -270h-537q0 -106 57 -190t172 -85z" />
    <glyph glyph-name="f" unicode="f" horiz-adv-x="350" 
d="M213 758v-60h137v-71h-137v-627h-86v627h-119v71h119v64q0 100 33 145q39 57 137 58l72 -4v-74l-64 6q-63 0 -82 -39q-10 -35 -10 -96z" />
    <glyph glyph-name="g" unicode="g" horiz-adv-x="751" 
d="M535 553q-59 92 -171 92t-172.5 -82t-60.5 -202q0 -121 59 -201t167 -80t168.5 80t60.5 199q0 118 -51 194zM586 57v95q-33 -68 -91.5 -106t-134.5 -38q-160 0 -238 100t-77 257q0 158 86 255t194.5 97t169 -39t87.5 -100l4 120h84v-641q0 -155 -73 -241t-237 -86
q-116 0 -202 53t-86 158h86q23 -140 202 -140q117 0 171.5 63.5t54.5 192.5z" />
    <glyph glyph-name="h" unicode="h" horiz-adv-x="724" 
d="M645 0h-84v436q0 96 -40 152t-139 57q-99 0 -157.5 -66.5t-58.5 -170.5v-408h-86v965h86v-387q25 61 88 100t137 39q137 0 195 -69t59 -199v-449z" />
    <glyph glyph-name="i" unicode="i" horiz-adv-x="249" 
d="M168 0h-86v698h86v-698zM168 829h-86v136h86v-136z" />
    <glyph glyph-name="j" unicode="j" horiz-adv-x="249" 
d="M82 -78v776h86v-755q0 -89 -33 -141t-117 -52l-51 2v72q33 -4 39 -2q43 0 59.5 25.5t16.5 74.5zM168 829h-86v136h86v-136z" />
    <glyph glyph-name="k" unicode="k" horiz-adv-x="675" 
d="M166 0h-84v965h84v-605l387 338h113l-297 -260l317 -438h-106l-277 379l-137 -115v-264z" />
    <glyph glyph-name="l" unicode="l" horiz-adv-x="249" 
d="M168 0h-86v965h86v-965z" />
    <glyph glyph-name="m" unicode="m" horiz-adv-x="1126" 
d="M391 717q72 0 127 -35t74 -100q31 68 90 101.5t131 33.5q231 0 231 -244v-473h-83v469q0 92 -37 134t-129 42q-189 0 -189 -250v-395h-86v473q0 172 -145 172q-104 0 -156.5 -69.5t-52.5 -186.5v-389h-84v698h78v-118q79 137 231 137z" />
    <glyph glyph-name="n" unicode="n" horiz-adv-x="724" 
d="M645 0h-84v436q0 96 -40 152t-139 57q-99 0 -157.5 -66.5t-58.5 -170.5v-408h-86v698h86v-120q25 61 88 100t137 39q137 0 195 -69t59 -199v-449z" />
    <glyph glyph-name="o" unicode="o" horiz-adv-x="751" 
d="M375 51q117 0 181 87t65 209q0 122 -65 210t-181.5 88t-180 -88t-63.5 -209t63.5 -209t180.5 -88zM45 346q0 160 87 265t242 105t244 -104q89 -106 89 -263t-84 -259q-92 -102 -247 -102t-243 99t-88 259z" />
    <glyph glyph-name="p" unicode="p" horiz-adv-x="776" 
d="M404 645q-122 0 -180 -83t-58 -211t58 -214t180 -86t178 89q57 89 57 212t-51 199q-61 94 -184 94zM412 717q152 1 232 -105t81 -267q0 -161 -80 -259t-233 -98q-82 0 -149.5 35.5t-94.5 109.5l-2 -383h-84v948h78v-133q31 70 98.5 111t153.5 41z" />
    <glyph glyph-name="q" unicode="q" horiz-adv-x="776" 
d="M370 51q122 0 181 87t59 211t-58 210t-179 86t-179 -89t-57 -212q0 -123 51 -199q60 -94 182 -94zM694 -250h-84v383q-29 -74 -96.5 -109.5t-148.5 -35.5q-152 0 -234 98q-80 106 -80 266t76 254q82 111 238 111q80 0 150.5 -42t98.5 -110l2 133h78v-948z" />
    <glyph glyph-name="r" unicode="r" horiz-adv-x="425" 
d="M426 623q-176 0 -218 -98.5t-42 -153.5v-371h-84v698h78v-163q70 172 266 172v-84z" />
    <glyph glyph-name="s" unicode="s" horiz-adv-x="649" 
d="M608 179q0 -97 -90 -152q-76 -39 -198 -39t-195.5 54t-83.5 183h86q0 -82 58.5 -128t138.5 -46t140 33t58 92q-1 102 -151 135l-111 25q-90 23 -139 59q-55 45 -55 133t76 138.5t187 50.5q112 0 183.5 -56.5t71.5 -166.5h-84q0 74 -52.5 112.5t-126.5 38.5
q-169 0 -169 -119q0 -51 49 -82q29 -18 96 -36l113 -25q82 -11 140 -59t58 -145z" />
    <glyph glyph-name="t" unicode="t" horiz-adv-x="399" 
d="M358 0h-75q-88 0 -120 29.5t-32 120.5v477h-121v71h121v209h86v-209h141v-71h-141v-471q0 -49 12.5 -71t55.5 -22l73 5v-68z" />
    <glyph glyph-name="u" unicode="u" horiz-adv-x="724" 
d="M324 -12q-244 0 -244 256v454h86v-454q0 -98 43 -145.5t143 -47.5t154.5 79.5t54.5 201.5v366h84v-698h-78v125q-35 -68 -100.5 -102.5t-142.5 -34.5z" />
    <glyph glyph-name="v" unicode="v" horiz-adv-x="626" 
d="M623 698l-261 -698h-90l-270 698h96l217 -612l220 612h88z" />
    <glyph glyph-name="w" unicode="w" horiz-adv-x="1001" 
d="M991 698l-225 -698h-92l-172 586l-174 -586h-92l-226 698h90l181 -598l172 598h96l170 -598l182 598h90z" />
    <glyph glyph-name="x" unicode="x" horiz-adv-x="649" 
d="M649 0h-108l-219 293l-216 -293h-104l270 362l-249 336h106l199 -266l194 266h107l-252 -333z" />
    <glyph glyph-name="y" unicode="y" horiz-adv-x="626" 
d="M154 -250q-62 0 -82 6v72l57 -6q49 0 73 26t50 82l29 72l-279 696h92l230 -596l215 596h84l-304 -796q-37 -96 -71 -124q-32 -28 -94 -28z" />
    <glyph glyph-name="z" unicode="z" horiz-adv-x="626" 
d="M602 0h-582v70l455 557h-424v71h533v-61l-461 -565h479v-72z" />
    <glyph glyph-name="braceleft" unicode="{" horiz-adv-x="450" 
d="M295 -39q0 -139 74 -139h26v-72h-67q-55 0 -87 44t-32 124v193q0 217 -96 217v71q55 0 75.5 58.5t20.5 156.5v203q0 78 30.5 123t88.5 45h67v-72h-26q-74 0 -74 -139v-190q0 -76 -25.5 -134.5t-68.5 -84.5q94 -72 94 -222v-182z" />
    <glyph glyph-name="bar" unicode="|" horiz-adv-x="301" 
d="M186 -12h-71v997h71v-997z" />
    <glyph glyph-name="braceright" unicode="}" horiz-adv-x="450" 
d="M240 616q0 -217 98 -217v-71q-98 0 -98 -215v-195q0 -78 -31 -123t-88 -45h-68v72h29q74 0 74 139v182q0 76 25.5 134.5t68.5 84.5q-94 72 -94 222v190q0 139 -74 139h-29v72h68q55 0 87 -44t32 -124v-201z" />
    <glyph glyph-name="asciitilde" unicode="~" horiz-adv-x="811" 
d="M262 420q65 0 139 -35t88 -39q27 -14 69 -14t69.5 37t42.5 57l47 -49q-49 -72 -86 -94.5t-83 -22.5t-149 45q-84 43 -132 43t-74 -23t-52 -69l-47 47q60 117 168 117z" />
    <glyph glyph-name="currency" unicode="&#xa4;" horiz-adv-x="839" 
d="M424 825q117 0 186 -59l150 145l71 -71l-145 -150q59 -78 59 -190t-59 -191l145 -145l-71 -76l-150 148q-31 -25 -83 -43.5t-105 -18.5q-111 0 -193 62l-145 -148l-76 76l148 145q-62 82 -62 195t62 186l-148 150l76 71l145 -145q78 59 195 59zM418 270q96 0 160 66
t65 163q0 98 -64 164t-158 66q-95 1 -160 -69t-65 -161t64 -160q62 -69 158 -69z" />
    <glyph glyph-name="copyright" unicode="&#xa9;" horiz-adv-x="1081" 
d="M553 172q-135 0 -214 87t-79 224.5t78 223.5t215 86q98 0 166.5 -53.5t83.5 -151.5h-70q-12 63 -58 103t-135 40t-148.5 -68.5t-59.5 -179t56 -180.5t167 -70q72 0 119 40t59 104h70q-14 -98 -83 -151.5t-167 -53.5zM541 51q184 0 304 126t120 305t-120 305t-302 126
t-305 -125q-121 -127 -121 -306t120 -305t304 -126zM1044 482q0 -212 -145 -357q-143 -137 -358 -137t-359 137q-145 145 -145 357t145.5 357.5t358.5 145.5t358 -145.5t145 -357.5z" />
    <glyph glyph-name="guillemotleft" unicode="&#xab;" horiz-adv-x="575" 
d="M260 162l-178 168v84l178 168v-90l-127 -121l127 -119v-90zM479 162l-180 168v84l180 168v-90l-127 -121l127 -119v-90z" />
    <glyph glyph-name="logicalnot" unicode="&#xac;" horiz-adv-x="811" 
d="M733 131h-84v186h-571v82h655v-268z" />
    <glyph glyph-name="minus" unicode="&#xad;" horiz-adv-x="811" 
d="M733 328h-655v61h655v-61z" />
    <glyph glyph-name="registered" unicode="&#xae;" horiz-adv-x="1081" 
d="M698 612q0 101 -137 101h-131v-203h94q94 0 121 14q53 22 53 88zM430 451v-258h-72v581h224q188 0 188 -162q0 -72 -40 -111.5t-105 -49.5l172 -258h-84l-162 258h-121zM541 51q184 0 304 126t120 305t-120 305t-302 126t-305 -125q-121 -127 -121 -306t120 -305
t304 -126zM1044 482q0 -212 -145 -357q-143 -137 -358 -137t-359 137q-145 145 -145 357t145.5 357.5t358.5 145.5t358 -145.5t145 -357.5z" />
    <glyph glyph-name="degree" unicode="&#xb0;" horiz-adv-x="540" 
d="M266.5 858q-61.5 0 -103.5 -42t-42 -102t43 -104.5t103 -44.5q61 0 105 44t44 103.5t-44 102.5t-105.5 43zM291.5 915q107.5 0 143.5 -79.5t36 -143t-59.5 -123t-142.5 -59.5t-143 58.5t-60 143.5t59 144t166.5 59z" />
    <glyph glyph-name="paragraph" unicode="&#xb6;" horiz-adv-x="727" 
d="M0 858q0 295 342 295h389v-41h-102v-1358h-62v1358h-145v-1358h-55v807q-168 0 -263 62q-104 74 -104 235z" />
    <glyph glyph-name="periodcentered" unicode="&#xb7;" horiz-adv-x="337" 
d="M169 520q32 0 52.5 -21t20.5 -51t-21.5 -51.5t-52.5 -21.5t-51.5 20.5t-20.5 52.5t20.5 52t52.5 20z" />
    <glyph glyph-name="periodcentered" unicode="&#x2219;" horiz-adv-x="337" 
d="M169 520q32 0 52.5 -21t20.5 -51t-21.5 -51.5t-52.5 -21.5t-51.5 20.5t-20.5 52.5t20.5 52t52.5 20z" />
    <glyph glyph-name="guillemotright" unicode="&#xbb;" horiz-adv-x="575" 
d="M276 330l-178 -168v90l127 119l-127 121v90l178 -168v-84zM496 330l-181 -168v90l127 119l-127 121v90l181 -168v-84z" />
    <glyph glyph-name="multiply" unicode="&#xd7;" horiz-adv-x="811" 
d="M711 84l-49 -51l-256 256l-256 -256l-50 51l254 256l-254 254l50 51l256 -256l256 256l49 -51l-256 -254z" />
    <glyph glyph-name="divide" unicode="&#xf7;" horiz-adv-x="811" 
d="M481 70q0 -29 -22.5 -49.5t-52.5 -20.5t-53 17.5t-23 49.5t22.5 54t53 22t53 -22t22.5 -51zM745 303h-679v72h679v-72zM481 613q0 -30 -21.5 -53t-52 -23t-54 21.5t-23.5 53.5t22.5 54t53 22t53 -22.5t22.5 -52.5z" />
    <glyph glyph-name="0e00;" unicode="&#xe00;" horiz-adv-x="204" 
 />
    <glyph glyph-name="afii59681" unicode="&#xe01;" horiz-adv-x="811" 
d="M729 0h-88v549q0 98 -65.5 149.5t-169.5 51.5q-162 0 -236 -111v-639h-88v664q115 170 324 170q138 0 230.5 -71.5t92.5 -199.5v-563z" />
    <glyph glyph-name="afii59682;" unicode="&#xe02;" horiz-adv-x="737" 
d="M655 272q0 -123 -82 -204q-83 -74 -215 -74t-221 88q-88 94 -88 237t67.5 222.5t108.5 111.5l-96 129l74 49l135 -184q-101 -81 -151 -158t-50 -177t63.5 -171t159.5 -71t151.5 58t55.5 144v547h88v-547z" />
    <glyph glyph-name="afii59683;" unicode="&#xe03;" horiz-adv-x="747" 
d="M344 819v-227q-84 -39 -138 -112q-54 -72 -54 -174t61 -169t157 -67t152 59t56 145v545h88v-545q0 -129 -79 -204.5t-208 -75.5q-214 0 -262.5 123t-48.5 198q0 192 190 314v76l-72 -66q-76 89 -157 127l51 63q47 -23 72.5 -46t42.5 -33l69 69h80z" />
    <glyph glyph-name="afii59684;" unicode="&#xe04;" horiz-adv-x="811" 
d="M729 0h-88v559q0 83 -68 134.5t-167.5 51.5t-167.5 -51.5t-68 -134.5v-100h252v-86h-252v-373h-88v559q0 119 96 197t227.5 78t227.5 -78t96 -197v-559z" />
    <glyph glyph-name="afii59685;" unicode="&#xe05;" horiz-adv-x="851" 
d="M770 0h-88v571q0 68 -34 118t-89 61l-133 -162l-133 162q-53 -8 -88 -61.5t-35 -117.5v-112h272v-86h-272v-373h-88v571q0 109 65.5 186t174.5 77l104 -121l104 121q109 0 174.5 -77t65.5 -186v-571z" />
    <glyph glyph-name="afii59686;" unicode="&#xe06;" horiz-adv-x="821" 
d="M309 819v-160q0 -37 -63 -81q-61 -47 -62 -93v-200q0 -84 78 -156q80 -68 178 -68t154.5 50.5t56.5 154.5v553h88v-561q0 -129 -76.5 -196.5t-182.5 -67.5q-208 0 -296 117v-111h-88v498q0 49 84 114q41 31 41 62v35l-82 -62q-51 71 -129 121l60 61q40 -29 55.5 -47
t24.5 -26l81 63h78z" />
    <glyph glyph-name="afii59687;" unicode="&#xe07;" horiz-adv-x="768" 
d="M719 410q0 -199 -115 -304.5t-319 -105.5h-76l-201 801l90 20l183 -741q162 0 256 85t94 242t-80 241.5t-242 84.5h-33q-20 0 -22 -2v88q465 1 465 -409z" />
    <glyph glyph-name="afii59688;" unicode="&#xe08;" horiz-adv-x="782" 
d="M356 834q170 0 274 -115t103 -301q0 -186 -129 -302t-344 -116l-98 420h-82v86h156l94 -426q135 0 225 100t90 243t-81 232.5t-212 89.5q-86 0 -150.5 -29.5t-127.5 -92.5l-70 59q144 152 352 152z" />
    <glyph glyph-name="afii59689;" unicode="&#xe09;" horiz-adv-x="788" 
d="M168 244q0 -183 198 -183q94 0 174 67t78 155v276q0 127 -93 159t-137 32q-87 0 -163.5 -42.5t-91.5 -113.5h-90q25 108 125 174t223 66t219.5 -78t96.5 -197v-504l26 -55h-115v111q-103 -117 -274 -117q-123 0 -192.5 59.5t-69.5 182.5v151h-59v88h145v-231z" />
    <glyph glyph-name="afii59690;" unicode="&#xe0a;" horiz-adv-x="745" 
d="M696 322q0 -147 -97 -236.5t-256 -89.5t-261 37v786h88v-723q70 -24 179 -24q110 0 184.5 66.5t74.5 240.5t-289 235l228 215l65 -53l-141 -131q225 -95 225 -323z" />
    <glyph glyph-name="afii59691;" unicode="&#xe0b;" horiz-adv-x="765" 
d="M629 379q0 174 -289 235l229 215l64 -53l-137 -131q111 -49 166 -126.5t55 -210.5t-96.5 -222.5t-251.5 -89.5t-198.5 14.5t-66.5 22.5v459q0 53 72 120q35 35 35 62v35l-82 -62q-51 71 -129 121l57 61q35 -26 82 -73l80 63h80v-153q0 -25 -72 -109q-35 -41 -34 -80v-383
q81 -22 159 -22q129 0 203 66.5t74 240.5z" />
    <glyph glyph-name="afii59692;" unicode="&#xe0c;" horiz-adv-x="1341" 
d="M1260 248q0 -123 -75 -188.5t-173 -65.5q-194 0 -283 117v-111h-88v549q0 98 -65.5 149.5t-169.5 51.5q-162 0 -236 -111v-561h143v-78h-231v664q115 170 324 170q138 0 230.5 -71.5t92.5 -199.5v-278q0 -86 76 -155t167 -69t145 50.5t54 144.5v563h89v-571z" />
    <glyph glyph-name="afii59693;" unicode="&#xe0d;" horiz-adv-x="1341" 
d="M936 166q-129 0 -212 66.5t-83 189.5v127q0 98 -65.5 149.5t-169.5 51.5q-162 0 -236 -111v-561h143v-78h-231v664q115 170 324 170q138 0 230.5 -71.5t92.5 -199.5v-139q0 -88 60.5 -134t155.5 -46t160.5 55t65.5 141v379h89v-559q0 -121 -92 -194t-230 -72
q-205 0 -301 123l68 57q75 -108 231 -108q98 0 166.5 51t68.5 143q-28 -28 -93 -61t-142 -33z" />
    <glyph glyph-name="afii59694;" unicode="&#xe0e;" horiz-adv-x="821" 
d="M739 -299h-80l-174 133l-178 -133h-303v86h285l198 150l164 -130v742q0 98 -65.5 149.5t-169.5 51.5q-162 0 -236 -111v-639h-176v78h88v586q115 170 324 170q138 0 230.5 -71.5t92.5 -199.5v-862z" />
    <glyph glyph-name="afii59695;" unicode="&#xe0f;" horiz-adv-x="821" 
d="M739 -299h-82l-112 113l-111 -131l-110 131l-115 -113h-205v86h178l144 137l108 -125l111 125l106 -100v725q0 98 -65.5 149.5t-169.5 51.5q-162 0 -236 -111v-639h-176v78h88v586q115 170 324 170q138 0 230.5 -71.5t92.5 -199.5v-862z" />
    <glyph glyph-name="afii59696;" unicode="&#xe10;" horiz-adv-x="782" 
d="M735 -291h-80l-114 113l-109 -131l-108 131l-115 -113h-199v86h174l142 137l106 -125l109 125l106 -100v80l-41 68h129v-271zM356 829q106 0 185 -43l80 95l65 -52l-76 -92q123 -113 123 -309t-128 -312t-345 -116l-100 426h-80v78h156l94 -428q135 0 225 100t90 243
t-81 232.5t-212 89.5q-86 0 -150.5 -29.5t-127.5 -90.5l-70 57q143 151 352 151z" />
    <glyph glyph-name="afii59697;" unicode="&#xe11;" horiz-adv-x="821" 
d="M309 819v-160q0 -37 -63 -81q-61 -47 -62 -93v-297l330 635q104 0 164.5 -61.5t60.5 -165.5v-596h-88v598q0 55 -26.5 95t-67.5 44l-379 -737h-82v498q0 49 84 114q41 31 41 62v35l-82 -62q-51 71 -129 121l60 61q40 -29 55.5 -47t24.5 -26l81 63h78z" />
    <glyph glyph-name="afii59698;" unicode="&#xe12;" horiz-adv-x="1398" 
d="M49 382q0 179 89 306t204 146l111 -123l100 116q111 0 172 -74.5t61 -185.5v-282q0 -86 76 -155t167 -69t145.5 50.5t54.5 144.5v563h88v-571q0 -123 -75 -188.5t-173 -65.5q-194 0 -283 117v-111h-88v567q0 63 -31.5 114.5t-80.5 61.5l-133 -157l-140 155
q-59 -29 -116 -127t-57 -192q-1 -165 52.5 -255.5t155.5 -90.5q71 0 121 69l74 -53q-65 -94 -203 -94q-139 0 -215 102.5t-76 281.5z" />
    <glyph glyph-name="afii59699;" unicode="&#xe13;" horiz-adv-x="1341" 
d="M1171 111q-87 -117 -283 -117q-100 0 -173.5 62.5t-73.5 191.5v301q0 98 -65.5 149.5t-169.5 51.5q-162 0 -236 -111v-561h143v-78h-231v664q115 170 324 170q138 0 230.5 -71.5t92.5 -199.5v-307q0 -94 54.5 -144.5t144.5 -50.5t168 68q76 68 75 156v534h89v-819h-89
v111z" />
    <glyph glyph-name="afii59700;" unicode="&#xe14;" horiz-adv-x="821" 
d="M739 0h-88v541q0 88 -62.5 147.5t-174.5 59.5t-194 -108q-83 -108 -83 -248t49.5 -228t153.5 -88q68 0 117 65l67 -49q-63 -94 -194 -94t-206 104.5t-75 284.5t108.5 313.5t256.5 133.5t236.5 -82t88.5 -209v-543z" />
    <glyph glyph-name="afii59701;" unicode="&#xe15;" horiz-adv-x="856" 
d="M332 -2q-132 0 -207.5 102.5t-75.5 281.5t86 306q90 127 201 146l108 -123l101 116q111 0 170 -73.5t59 -186.5v-567h-88v567q0 63 -29.5 114.5t-81.5 61.5l-131 -157l-135 155q-59 -29 -115 -128t-56 -229t50 -219t154 -89q70 0 117 69l71 -53q-66 -94 -198 -94z" />
    <glyph glyph-name="afii59702;" unicode="&#xe16;" horiz-adv-x="811" 
d="M729 0h-88v549q0 98 -65.5 149.5t-169.5 51.5q-162 0 -236 -111v-561h139v-78h-227v664q115 170 324 170q138 0 230.5 -71.5t92.5 -199.5v-563z" />
    <glyph glyph-name="afii59703;" unicode="&#xe17;" horiz-adv-x="811" 
d="M729 0h-88v553q0 104 -58.5 154.5t-158.5 50.5t-177 -69t-77 -154v-535h-88v819h88v-110q41 53 115.5 89t160.5 36q129 0 206 -72t77 -201v-561z" />
    <glyph glyph-name="afii59704;" unicode="&#xe18;" horiz-adv-x="743" 
d="M604 251q0 87 -76 138q-69 42 -153 56q-177 31 -221 55q-98 43 -98 128t91 144q96 59 216 59t210 -56t123 -181h-94q-29 74 -97.5 111.5t-132.5 37.5q-100 0 -161 -32t-61 -77q0 -46 77 -71q42 -14 170 -36q127 -22 199 -72q98 -72 98 -201t-108 -201q-94 -57 -229 -57
t-186 9t-99 26v399l86 29v-359q69 -26 175 -26q107 0 189 45t82 132z" />
    <glyph glyph-name="afii59705;" unicode="&#xe19;" horiz-adv-x="811" 
d="M729 0h-88v111q-41 -53 -115.5 -85t-160.5 -32q-129 0 -206 67.5t-77 196.5v561h88v-553q0 -104 58.5 -154.5t156.5 -50.5t177 69t79 155v534h88v-819z" />
    <glyph glyph-name="afii59706;" unicode="&#xe1a;" horiz-adv-x="811" 
d="M729 260q0 -119 -96 -197q-94 -70 -227.5 -69.5t-227.5 69.5q-96 78 -96 197v559h88v-559q0 -85 69.5 -137.5t166 -52.5t166 52.5t69.5 137.5v559h88v-559z" />
    <glyph glyph-name="afii59707;" unicode="&#xe1b;" horiz-adv-x="811" 
d="M729 260q0 -119 -96 -197q-94 -70 -227.5 -69.5t-227.5 69.5q-96 78 -96 197v559h88v-559q0 -85 69.5 -137.5t166 -52.5t166 52.5t69.5 137.5v805h88v-805z" />
    <glyph glyph-name="afii59708;" unicode="&#xe1c;" horiz-adv-x="1019" 
d="M238 819v-86h-117l145 -567l205 653h74l209 -653l168 653h88l-213 -819h-76l-213 659l-209 -659h-74l-217 819h230z" />
    <glyph glyph-name="afii59709;" unicode="&#xe1d;" horiz-adv-x="1019" 
d="M238 819v-86h-117l147 -565l203 651h76l207 -651l231 897h88l-274 -1065h-76l-215 664l-209 -664h-74l-217 819h230z" />
    <glyph glyph-name="afii59710;" unicode="&#xe1e;" horiz-adv-x="1019" 
d="M1010 819l-213 -819h-76l-213 659l-209 -659h-74l-217 819h88l170 -653l205 653h74l209 -653l168 653h88z" />
    <glyph glyph-name="afii59711;" unicode="&#xe1f;" horiz-adv-x="1019" 
d="M1073 1065l-274 -1065h-76l-215 664l-209 -664h-74l-217 819h88l172 -651l203 651h76l207 -651l231 897h88z" />
    <glyph glyph-name="afii59712;" unicode="&#xe20;" horiz-adv-x="821" 
d="M739 0h-88v549q0 98 -65.5 149.5t-169.5 51.5q-162 0 -236 -111v-639h-176v78h88v586q115 170 324 170q138 0 230.5 -71.5t92.5 -199.5v-563z" />
    <glyph glyph-name="afii59713;" unicode="&#xe21;" horiz-adv-x="811" 
d="M729 258q0 -129 -78.5 -196.5t-184.5 -67.5q-207 0 -296 117v-111h-88v819h88v-534q0 -84 78 -156q80 -68 178 -68t156.5 50.5t58.5 154.5v553h88v-561z" />
    <glyph glyph-name="afii59714;" unicode="&#xe22;" horiz-adv-x="808" 
d="M190 479q-120 35 -120 171q0 72 68.5 125.5t148.5 53.5t133 -18v-88q-53 18 -115 18t-103.5 -26.5t-41.5 -78.5t51 -79t121 -27h88v-88h-70q-80 0 -144 -52t-65 -134q0 -82 72 -133t203 -51t223 80v667h88v-700q-49 -51 -76 -66q-101 -57 -259 -57t-250.5 71.5
t-92.5 201.5q0 129 141 210z" />
    <glyph glyph-name="afii59715;" unicode="&#xe23;" horiz-adv-x="755" 
d="M707 248q0 -119 -101 -195q-96 -61 -232 -61t-224 61q-100 76 -101 215h88q0 -98 71 -148t171 -50t170 48q69 48 69 129q-1 113 -89.5 133.5t-141.5 29.5q-188 20 -253 67t-64 121q0 98 87 165t211 67t216 -60q92 -59 114 -176h-90q-25 76 -92 113.5t-147 37.5
q-81 1 -145 -39t-64 -98t80 -84q37 -12 162 -30t210 -66q95 -61 95 -180z" />
    <glyph glyph-name="afii59716;" unicode="&#xe24;" horiz-adv-x="811" 
d="M729 -299h-88v846q0 98 -67.5 150.5t-167.5 52.5q-162 0 -236 -113v-559h139v-78h-227v662q113 172 327 172t267 -105.5t53 -169.5v-858z" />
    <glyph glyph-name="afii59717;" unicode="&#xe25;" horiz-adv-x="829" 
d="M397 565q160 0 262 -94v88q-1 84 -73 137q-72 54 -160 54t-155.5 -43t-94.5 -113h-92q27 108 125.5 174t221.5 66q124 0 220.5 -78t96.5 -197v-559h-89v332q-31 63 -103 105t-178 42t-173.5 -66.5t-67.5 -150.5t41 -134t107 -50q27 0 47 3t59 30l53 -70
q-43 -31 -76.5 -37t-82.5 -6q-102 0 -170 70q-66 78 -66 192t92 209q96 96 256 96z" />
    <glyph glyph-name="afii59718;" unicode="&#xe26;" horiz-adv-x="821" 
d="M739 -299h-88v848q0 98 -65.5 149.5t-169.5 51.5q-162 0 -236 -111v-639h-176v78h88v586q115 170 324 170q138 0 230.5 -71.5t92.5 -199.5v-862z" />
    <glyph glyph-name="afii59719;" unicode="&#xe27;" horiz-adv-x="751" 
d="M702 413q0 -181 -88 -300q-94 -119 -256 -119q-107 0 -196.5 63t-116.5 176h90q29 -76 89.5 -118.5t133.5 -42.5q120 0 188 99t68 238.5t-68 238.5t-188 100q-72 0 -133 -44.5t-88 -117.5h-92q28 109 116.5 178.5t196.5 69.5q160 0 256 -127q88 -113 88 -294z" />
    <glyph glyph-name="afii59720;" unicode="&#xe28;" horiz-adv-x="811" 
d="M729 555v-555h-88v561q0 85 -69 137t-166.5 52t-166.5 -52t-69 -137v-104h252v-86h-252v-371h-88v555q0 119 96 196.5t228 77.5q80 0 147 -30l70 82l71 -52l-63 -73q98 -85 98 -201z" />
    <glyph glyph-name="afii59721;" unicode="&#xe29;" horiz-adv-x="821" 
d="M813 389h-80v-129q0 -119 -96 -197q-94 -70 -229.5 -69.5t-229.5 69.5q-96 78 -96 197v559h88v-563q0 -86 67 -136t169 -50t169.5 50t67.5 136v133h-231v129l65 -41h166v342h90v-342h80v-88z" />
    <glyph glyph-name="afii59722;" unicode="&#xe2a;" horiz-adv-x="829" 
d="M748 559v-559h-89v330q-31 63 -103 105t-178 42t-173.5 -66.5t-67.5 -149.5t42.5 -134t100.5 -51t111 35l53 -70q-78 -43 -170 -43t-159 70q-66 78 -66 190t92 209q96 96 256 96t262 -94v90q0 84 -69.5 137.5t-161.5 53.5t-158.5 -42t-93.5 -112h-92q29 110 128 174
q100 64 196 64t163 -31l72 82l70 -51l-64 -74q99 -86 99 -201z" />
    <glyph glyph-name="afii59723;" unicode="&#xe2b;" horiz-adv-x="821" 
d="M750 0h-88v401q0 77 -67.5 128t-154.5 51q-29 0 -30 -2l-240 -148v-430h-88v819h88v-291l483 301l74 -51l-201 -131q100 -18 162 -81.5t62 -162.5v-403z" />
    <glyph glyph-name="afii59724;" unicode="&#xe2c;" horiz-adv-x="1019" 
d="M958 653v-18q-2 -8 -3 -18.5t-5 -20.5l-153 -596h-76l-213 664l-209 -664h-74l-217 819h88l170 -651l205 651h74l209 -651l112 432q6 20 6 54t-32.5 60.5t-81.5 26.5h-86v78h94q88 0 128 17.5t54 72.5l31 115h92l-37 -135q-28 -98 -123 -127q47 -43 47 -109z" />
    <glyph glyph-name="afii59725;" unicode="&#xe2d;" horiz-adv-x="884" 
d="M49 410q0 24 8 84h285v-86h-205q0 -145 86 -239.5t219 -94.5t219.5 94t86.5 243t-85 243t-221 94q-98 0 -169.5 -50.5t-110.5 -142.5h-90q43 131 139 205t231 74q178 0 286 -120t108 -304.5t-108 -300.5q-108 -115 -286 -115t-284 110q-109 121 -109 306z" />
    <glyph glyph-name="afii59726;" unicode="&#xe2e;" horiz-adv-x="884" 
d="M49 410q0 24 8 84h285v-86h-205q0 -145 86 -239.5t219 -94.5t219.5 94t86.5 243t-85 243t-221 94q-98 0 -169.5 -50.5t-110.5 -142.5h-90q43 131 139 205t231 74q80 0 168 -35l70 82l65 -47l-65 -78q156 -117 156 -346q0 -184 -108 -300t-286 -116t-284 110
q-109 121 -109 306z" />
    <glyph glyph-name="afii59727;" unicode="&#xe2f;" horiz-adv-x="802" 
d="M265 829q81 0 134 -18v-88q-47 20 -111 20t-107.5 -25.5t-43.5 -75.5t53.5 -80t153.5 -30t178 48t111 98v141h88v-819h-88v559q-112 -108 -316 -108q-125 0 -196.5 55t-71.5 136t67.5 134t148.5 53z" />
    <glyph glyph-name="afii59729;" unicode="&#xe30;" horiz-adv-x="282" 
d="M272 102h-221v142h88v-56h133v-86zM272 575h-221v142h88v-55h133v-87z" />
    <glyph glyph-name="afii59728;" unicode="&#xe31;" 
d="M180 922h-555v163h86v-81h469v-82z" />
    <glyph glyph-name="afii59730;" unicode="&#xe32;" horiz-adv-x="565" 
d="M199 834q139 0 213 -81t73 -210v-543h-86v528q0 106 -51 166t-144 60t-175 -60v92q80 48 170 48z" />
    <glyph glyph-name="afii59731;" unicode="&#xe33;" horiz-adv-x="565" 
d="M-76 1015.5q0 18.5 -12 31t-30.5 12.5t-31 -12.5t-12.5 -31t12.5 -30.5t31 -12t30.5 12t12 30.5zM199 834q139 0 213 -81t73 -210v-543h-86v528q0 106 -51 166t-144 60t-175 -60v92q80 48 170 48zM-18 1016q0 -41 -29 -69.5t-70 -28.5t-71.5 28.5t-30.5 69.5t29.5 70.5
t70.5 29.5t71 -29.5t30 -70.5z" />
    <glyph glyph-name="afii59732;" unicode="&#xe34;" 
d="M-74 922h-635v82h635v-82z" />
    <glyph glyph-name="afii59733;" unicode="&#xe35;" 
d="M-74 922h-635v82h547v102h88v-184z" />
    <glyph glyph-name="afii59734;" unicode="&#xe36;" 
d="M-84 1022q0 37 -37 37t-37 -37t37 -37t37 37zM-20 1019q0 -40 -29 -68.5t-70 -28.5h-590v82h494l-2 14q0 41 28.5 69.5t69.5 28.5t70 -28.5t29 -68.5z" />
    <glyph glyph-name="afii59735;" unicode="&#xe37;" 
d="M-74 922h-635v82h398v102h88v-102h61v102h88v-184z" />
    <glyph glyph-name="afii59736;" unicode="&#xe38;" 
d="M-74 -309h-88v153h-82v82h170v-235z" />
    <glyph glyph-name="afii59737;" unicode="&#xe39;" 
d="M-162 -186v112h88v-110q0 -59 -48 -97t-102 -38q-115 0 -167 71v92h-64v82h152v-145q19 -27 60 -27q81 0 81 60z" />
    <glyph glyph-name="afii59738;" unicode="&#xe3a;" 
d="M-53 -139.5q0 -65.5 -65.5 -65.5t-65.5 65.5t65.5 65.5t65.5 -65.5z" />
    <glyph glyph-name="afii59743;" unicode="&#xe3f;" horiz-adv-x="901" 
d="M422 78v385h-234v-385h234zM506 78q254 0 254 198q0 92 -65.5 139.5t-188.5 47.5h-33v-385h33zM422 543v344h-234v-344h234zM723 707q0 180 -217 180h-33v-344h33q106 0 161.5 45t55.5 119zM852 271q0 -101 -55 -169q-84 -102 -291 -102h-33v-127h-51v127h-324v965h324
v127h51v-127h33q137 0 215 -50q94 -57 94 -186q0 -80 -45 -140.5t-123 -76.5q94 -14 149.5 -77t55.5 -164z" />
    <glyph glyph-name="afii59744;" unicode="&#xe40;" horiz-adv-x="290" 
d="M188 0h-86v819h86v-819z" />
    <glyph glyph-name="afii59745;" unicode="&#xe41;" horiz-adv-x="505" 
d="M188 0h-86v819h86v-819zM403 0h-86v819h86v-819z" />
    <glyph glyph-name="afii59746;" unicode="&#xe42;" horiz-adv-x="331" 
d="M387 1186h-266q-59 0 -60 -37q0 -23 74 -75t74 -136v-938h-86v940q0 59 -72 109q-65 53 -65 105t40 84t107 32h254v-84z" />
    <glyph glyph-name="afii59747;" unicode="&#xe43;" horiz-adv-x="331" 
d="M307 1122q0 -62 -49 -110.5t-49 -100.5v-911h-86v922q0 61 49 107t49 82t-29.5 63.5t-80.5 27.5t-81 -30.5t-30 -84.5h-82q0 82 54.5 137.5t138.5 55.5t140 -48t56 -110z" />
    <glyph glyph-name="afii59748;" unicode="&#xe44;" horiz-adv-x="331" 
d="M209 936v-936h-86v924q0 99 96 186l-43 43l-100 -94l-174 158l53 57l125 -115l108 98l127 -137q-106 -92 -106 -184z" />
    <glyph glyph-name="afii59749;" unicode="&#xe45;" horiz-adv-x="565" 
d="M199 834q139 0 213 -81t73 -210v-842h-86v827q0 106 -51 166t-144 60t-175 -60v92q80 48 170 48z" />
    <glyph glyph-name="afii59750;" unicode="&#xe46;" horiz-adv-x="808" 
d="M727 -299h-88v885q0 135 -117 162l-133 -142l-135 142q-117 -25 -117 -162v-43h166v-86h-254v129q0 111 64.5 177t175.5 66l100 -104l100 104q111 0 174.5 -66.5t63.5 -176.5v-885z" />
    <glyph glyph-name="afii59751;" unicode="&#xe47;" 
d="M-55 1090h-387q-53 0 -84 -25t-31 -68l78 2l117 70l110 -70h129v-77h-143l-96 63l-101 -63h-178v67q0 76 47 123q59 53 158 53h381v-75z" />
    <glyph glyph-name="afii59752;" unicode="&#xe48;" 
d="M-74 1167h-88v144h88v-144z" />
    <glyph glyph-name="afii59753;" unicode="&#xe49;" 
d="M53 1167h-303v43q0 31 -26 31h-29v74h41q88 0 88 -70l229 -4v-74z" />
    <glyph glyph-name="afii59754;" unicode="&#xe4a;" 
d="M201 1167h-195v62q0 53 -43 53l-96 -70l-94 70q-55 0 -56 -53l74 2v-64h-145v74q0 51 37.5 83t93.5 32h8l82 -60l78 60h14q47 0 84 -31t37 -84h121v-74z" />
    <glyph glyph-name="afii59755;" unicode="&#xe4b;" 
d="M4 1255h-84v-88h-74v88h-92v62h92v88h74v-88h84v-62z" />
    <glyph glyph-name="afii59756;" unicode="&#xe4c;" 
d="M-18 1155h-68q-49 0 -49 -35v-35h-80v43q0 49 29.5 73t72.5 24h95v-70z" />
    <glyph glyph-name="afii59757;" unicode="&#xe4d;" 
d="M-76 1015.5q0 18.5 -12 31t-30.5 12.5t-31 -12.5t-12.5 -31t12.5 -30.5t31 -12t30.5 12t12 30.5zM-18 1016q0 -41 -29 -69.5t-70 -28.5t-71.5 28.5t-30.5 69.5t29.5 70.5t70.5 29.5t71 -29.5t30 -70.5z" />
    <glyph glyph-name="afii59758;" unicode="&#xe4e;" 
d="M-313 1342q0 43 33.5 81.5t97.5 64.5t229 25h21v-73q-10 2 -33 2h-27q-155 0 -195 -36t-40 -64q0 -50 121 -50v-69q-104 0 -179 -27q-82 -25 -73 -76q4 -28 62 -28t112 28l37 -61q-84 -39 -154 -39q-6 2 -42 5t-67.5 30.5t-31.5 64.5t32 81.5t134 66.5q-37 31 -37 74z
" />
    <glyph glyph-name="afii59759;" unicode="&#xe4f;" horiz-adv-x="983" 
d="M748 409.5q0 -106.5 -75 -181.5t-181.5 -74.5t-182.5 73.5q-74 76 -73.5 182.5t74.5 181.5t181 75t182 -75t75 -181.5zM850 409q0 147 -106 253t-253 106t-252 -105t-105.5 -253t104.5 -254q106 -104 253 -105t253 105t106 253zM911 410q0 -174 -123 -297
q-127 -115 -296.5 -115t-296.5 115q-123 123 -123 297t122.5 296.5t297 122.5t297 -122.5t122.5 -296.5z" />
    <glyph glyph-name="afii59760;" unicode="&#xe50;" horiz-adv-x="751" 
d="M616 309q0 98 -70 167t-172 69q-101 0 -172 -71t-71 -169t71 -166.5t172 -68.5q102 0 172 70t70 169zM702 309q0 -131 -96 -227q-96 -86 -232 -86t-231 86q-94 92 -94 223t95 226q96 95 232 95t230 -94q96 -92 96 -223z" />
    <glyph glyph-name="afii59761;" unicode="&#xe51;" horiz-adv-x="800" 
d="M459 274q0 68 -68 68q-29 0 -49 -18.5t-20 -47.5t20 -47t49 -18q68 0 68 63zM752 306q0 -148 -131 -263q-119 -98 -271 -119l-37 70q141 10 248 104t107 208t-78.5 178.5t-190.5 64.5q-111 0 -188.5 -61t-77.5 -160q0 -68 46 -118t120 -50l14 2q-65 35 -65 103t42 108.5
t101.5 40.5t100 -39t40.5 -91q0 -94 -70.5 -150t-172.5 -56t-171 72.5t-69 190.5t103 202q109 84 250 84t245.5 -86.5t104.5 -234.5z" />
    <glyph glyph-name="afii59762;" unicode="&#xe52;" horiz-adv-x="1126" 
d="M500 279q0 29 -20.5 47t-50.5 18t-50.5 -18.5t-20.5 -47t20.5 -47t49.5 -18.5q72 0 72 66zM842 629q84 0 143 -51.5t59 -133.5v-444h-882q0 162 -22 259t-75 264q-52 166 -188 298l64 56q153 -165 214 -350t85 -443h718v350q0 53 -32.5 82t-79.5 29q-74 0 -117 -66v-329
h-86v331q-49 63 -119 63t-112.5 -35.5t-42.5 -92.5q4 2 18 2h41q59 0 102 -41t43 -99t-40.5 -99.5t-102.5 -41.5t-103.5 41t-41.5 101v137q0 92 65.5 152.5t164.5 60.5t169 -70q74 70 158 70z" />
    <glyph glyph-name="afii59763;" unicode="&#xe53;" horiz-adv-x="958" 
d="M295 126q0 30 -20.5 50.5t-49.5 20.5t-49 -20.5t-20 -49.5t19 -48.5t49 -19.5t50.5 18.5t20.5 48.5zM457 477q-43 66 -148 66q-49 0 -96 -37t-47 -92v-154q14 8 65 8t94.5 -41t43.5 -99t-42.5 -94t-102.5 -36t-101 35t-41 94v287q0 90 71 150t176 60t173 -67
q63 68 157 68t156 -53t62 -132v-440h-84v430q0 53 -36 83t-87 30q-86 0 -127 -68v-475h-86v477z" />
    <glyph glyph-name="afii59764;" unicode="&#xe54;" horiz-adv-x="864" 
d="M662 266.5q0 28.5 -20.5 47t-49.5 18.5t-49.5 -18.5t-20.5 -47.5q0 -66 70 -65q29 0 49.5 18.5t20.5 47zM670 623q102 0 102 237h84q0 -321 -186 -321h-279q-109 0 -183.5 -68.5t-74.5 -174.5q0 -108 71 -166t152 -58t179 28q-91 68 -91 160q0 59 43 102.5t103 43.5
t102.5 -41t42.5 -95t-28.5 -90.5t-75.5 -48.5q14 -10 38.5 -13t79 -12.5t99.5 -48.5l-49 -59q-85 33 -143 33t-138 -19q-78 -12 -151 -12q-135 0 -220 66q-98 82 -98 225t100.5 237.5t241.5 94.5h279z" />
    <glyph glyph-name="afii59765;" unicode="&#xe55;" horiz-adv-x="864" 
d="M662 266.5q0 28.5 -20.5 47t-49.5 18.5t-49.5 -18.5t-20.5 -47.5q0 -66 70 -65q29 0 49.5 18.5t20.5 47zM508 686q0 31 -20.5 51.5t-51.5 20.5t-53.5 -20.5t-22.5 -51.5t23 -51.5t51.5 -20.5t51 20.5t22.5 51.5zM772 860h84q0 -321 -186 -321h-279q-109 0 -183.5 -68.5
t-74.5 -174.5q0 -108 71 -166t152 -58t179 28q-91 63 -91 160q0 59 43 102.5t103 43.5t102.5 -41t42.5 -99q0 -104 -100 -137q6 -4 30.5 -8t82 -15.5t100.5 -48.5l-49 -59q-85 33 -143 33t-138 -19q-78 -12 -151 -12q-135 0 -220 66q-98 82 -98 214t70.5 219t183.5 113
q-18 27 -18 80t45 96t105 43t106.5 -41.5t46.5 -105.5q0 -10 -17 -59l99 -2q102 0 102 237z" />
    <glyph glyph-name="afii59766;" unicode="&#xe56;" horiz-adv-x="811" 
d="M293 233.5q0 28.5 -19.5 48t-49.5 19.5t-49 -19.5t-19 -48t19 -48t49 -19.5t49.5 19.5t19.5 48zM421 629q135 1 237 -89t102 -229t-104 -228t-248 -89q-146 0 -236 65q-90 74 -90 172q0 61 41 102.5t101 41.5t101.5 -40.5t41.5 -94.5t-27 -90.5t-70 -51.5q43 -30 146 -30
q104 0 182 70t78 172q0 103 -78 170t-182 67q-139 0 -244 -103l-74 21q-35 188 -168 326l66 51q137 -129 178 -295q111 82 247 82z" />
    <glyph glyph-name="afii59767;" unicode="&#xe57;" horiz-adv-x="1155" 
d="M295 127q0 31 -21.5 50.5t-50 19.5t-48 -19.5t-19.5 -49.5t19 -49.5t49 -19.5t50.5 18.5t20.5 49.5zM457 479q-43 66 -148 66q-49 0 -96 -37t-47 -92v-158q35 10 57 10q59 0 102.5 -41t43.5 -99t-42.5 -94t-102.5 -36t-101 35t-41 94v289q0 90 71 150t176 60t173 -67
q64 68 156 68t155.5 -51.5t63.5 -131.5v-370q104 13 104 108v447q0 131 113 215l69 -49q-41 -27 -67.5 -74t-26.5 -100v-431q0 -190 -276 -190v434q0 51 -36 81t-79 30q-94 0 -135 -68v-477h-86v479z" />
    <glyph glyph-name="afii59768;" unicode="&#xe58;" horiz-adv-x="890" 
d="M712 197q52 0 52 52t-52 52t-53 -51q1 -53 53 -53zM453 547q-129 0 -225 -69t-95 -159q0 -90 49 -153q41 -57 105 -78l143 170l178 -168q29 12 56 39q-84 31 -84 121q0 51 39 88t91 37t91 -39.5t39 -101.5t-74 -132q-53 -53 -176 -106l-156 141l-121 -139
q-117 18 -191 104t-73 214q0 128 119 220.5t297 92.5q123 0 221 -25q67 108 80 238l84 -6q-8 -102 -38 -169q-29 -67 -91 -161q-139 41 -268 41z" />
    <glyph glyph-name="afii59769;" unicode="&#xe59;" horiz-adv-x="956" 
d="M469 158q0 29 -18.5 49t-48.5 20t-50 -20.5t-20 -48.5t20.5 -48t48.5 -20q68 0 68 68zM981 807v-39q0 -194 -121 -309q-12 41 -38.5 66.5t-58.5 25.5t-59.5 -32t-31.5 -68q119 -179 145 -447l-86 -4q-69 551 -360 551q-99 0 -167.5 -67t-68.5 -162t42 -160.5t102 -83.5
q-25 27 -25 84t43 98t104.5 41t102.5 -41t41 -91q0 -84 -60 -128.5t-143 -44.5q-141 0 -217 90t-76 227t93 229q92 92 230 91q138 0 236 -98q20 39 60 69.5t98 30.5t98 -41q31 63 31 174v53q-4 20 -4 27h86q4 -20 4 -41z" />
    <glyph glyph-name="afii59770;" unicode="&#xe5a;" horiz-adv-x="993" 
d="M265 829q81 0 134 -18v-88q-53 20 -114 20t-104.5 -25.5t-43.5 -75.5t53.5 -80t153.5 -30t178 48t111 98v141h88v-819h-88v559q-112 -108 -316 -108q-125 0 -196.5 55t-71.5 136t67.5 134t148.5 53zM911 0h-88v819h88v-819z" />
    <glyph glyph-name="afii59771;" unicode="&#xe5b;" horiz-adv-x="1392" 
d="M428 451q0 66 -49 65q-18 0 -33.5 -19.5t-15.5 -46t14 -45t34.5 -18.5t35 18.5t14.5 45.5zM1102 506q16 0 35 -27q8 -16 30 -55q12 45 47 45l111 -14q43 -5 43 -22t-45 -23l-111 -11l-16 -39q-8 -20 -24 -20t-35 31l-31 61q-16 -70 -28.5 -93.5t-30.5 -23.5t-78 131
q-23 -151 -60 -151q-18 0 -47 75t-37 91q-14 -125 -40.5 -159t-39.5 -34q-29 0 -37 46q-19 100 -38 149q-31 -180 -119 -275q-100 -112 -222 -112t-195 92t-73 242t68 247q70 99 166 99t154.5 -70t58.5 -164t-35 -146t-87 -52t-85 36t-33 88t33 91t78 39l39 -7
q-29 111 -113 111q-70 0 -118 -76t-48 -198t55.5 -191.5t148.5 -69.5t169 98.5t98 272.5q6 43 15.5 58.5t29.5 15.5q25 0 53.5 -57.5t49.5 -139.5q4 31 9 60.5t12 73.5t29 44t51.5 -47t49.5 -114q15 123 41 123q45 0 99 -136q18 68 18 70q14 37 35 37z" />
    <glyph glyph-name="endash" unicode="&#x2013;" horiz-adv-x="811" 
d="M745 303h-679v72h679v-72z" />
    <glyph glyph-name="emdash" unicode="&#x2014;" horiz-adv-x="1622" 
d="M1556 303h-1490v72h1490v-72z" />
    <glyph glyph-name="quoteleft" unicode="&#x2018;" horiz-adv-x="374" 
d="M184 780h58v-143h-113v143q0 63 30.5 115.5t88.5 69.5v-58q-64 -23 -64 -127z" />
    <glyph glyph-name="quoteright" unicode="&#x2019;" horiz-adv-x="374" 
d="M248 821q0 -63 -31 -115.5t-90 -68.5v57q63 23 63 127h-57v144h115v-144z" />
    <glyph glyph-name="quotedblleft" unicode="&#x201c;" horiz-adv-x="499" 
d="M143 780h58v-143h-115v143q0 63 30.5 115.5t90.5 69.5v-58q-64 -23 -64 -127zM408 780v-143h-113v143q0 63 30.5 115.5t90.5 69.5v-58q-33 -12 -50.5 -50t-13.5 -77h56z" />
    <glyph glyph-name="quotedblright" unicode="&#x201d;" horiz-adv-x="499" 
d="M205 821q0 -63 -31 -115.5t-88 -68.5v57q64 23 64 127h-58v144h113v-144zM414 821q0 -63 -31 -115.5t-90 -68.5v57q33 12 50 50t13 77h-55v144h113v-144z" />
    <glyph glyph-name="bullet" unicode="&#x2022;" horiz-adv-x="757" 
d="M686 410q0 -127 -90 -217.5t-217 -90.5t-217 90.5t-90 217.5t90 217t217 90t217 -90t90 -217z" />
    <glyph glyph-name="ellipsis" unicode="&#x2026;" horiz-adv-x="1351" 
d="M283 0h-115v143h115v-143zM733 0h-115v143h115v-143zM1182 0h-115v143h115v-143z" />
    <glyph glyph-name="f700;" unicode="&#xf700;" horiz-adv-x="782" 
d="M356 829q106 0 185 -43l80 95l65 -52l-76 -92q123 -113 123 -309t-128 -312t-345 -116l-100 426h-80v78h156l94 -428q135 0 225 100t90 243t-81 232.5t-212 89.5q-86 0 -150.5 -29.5t-127.5 -90.5l-70 57q143 151 352 151z" />
    <glyph glyph-name="f701;" unicode="&#xf701;" 
d="M-244 922h-594v82h594v-82z" />
    <glyph glyph-name="f702;" unicode="&#xf702;" 
d="M-244 922h-594v82h506v102h88v-184z" />
    <glyph glyph-name="f703;" unicode="&#xf703;" 
d="M-252 1022q0 37 -37 37t-37 -37t37 -37t37 37zM-188 1019q0 -40 -29 -68.5t-70 -28.5h-549v82h453l-2 14q0 41 28.5 69.5t69.5 28.5t70 -28.5t29 -68.5z" />
    <glyph glyph-name="f704;" unicode="&#xf704;" 
d="M-244 922h-594v82h357v102h88v-102h61v102h88v-184z" />
    <glyph glyph-name="f705;" unicode="&#xf705;" 
d="M-279 922h-88v204h88v-204z" />
    <glyph glyph-name="f706;" unicode="&#xf706;" 
d="M6 922h-340v49q0 33 -28 33h-33v81h47q98 0 98 -75l256 -6v-82z" />
    <glyph glyph-name="f707;" unicode="&#xf707;" 
d="M2 922h-321v69q0 57 -58 58l-100 -68l-98 68q-61 0 -62 -58l84 2v-71h-168v82q0 59 42 92.5t108 33.5h10l84 -59l82 59h12q63 0 105 -33.5t42 -92.5h238v-82z" />
    <glyph glyph-name="f708;" unicode="&#xf708;" 
d="M-227 1018h-103v-96h-82v96h-102v69h102v97h82v-97h103v-69z" />
    <glyph glyph-name="f709;" unicode="&#xf709;" 
d="M-340 1096q0 102 109 102h100v-74h-72q-53 0 -53 -34v-39h-84v45z" />
    <glyph glyph-name="f70a;" unicode="&#xf70a;" 
d="M-74 922h-88v204h88v-204z" />
    <glyph glyph-name="f70b;" unicode="&#xf70b;" 
d="M53 922h-340v49q0 33 -28 33h-33v81h47q98 0 98 -75l256 -6v-82z" />
    <glyph glyph-name="f70c;" unicode="&#xf70c;" 
d="M0 922h-215v69q0 57 -57 58l-111 -76l-109 76q-61 0 -61 -58l84 2v-71h-168v82q0 59 42 92.5t108 33.5h10l94 -65l92 65h12q63 0 105.5 -33.5t42.5 -92.5h131v-82z" />
    <glyph glyph-name="f70d;" unicode="&#xf70d;" 
d="M-74 1018h-102v-96h-82v96h-102v69h102v97h82v-97h102v-69z" />
    <glyph glyph-name="f70e;" unicode="&#xf70e;" 
d="M-10 995h-72q-53 0 -53 -34v-39h-84v45q0 53 30.5 77.5t77.5 24.5h101v-74z" />
    <glyph glyph-name="f70f;" unicode="&#xf70f;" horiz-adv-x="1341" 
d="M1260 260q0 -129 -83 -197.5t-225 -68.5t-226.5 67.5t-84.5 198.5v289q0 98 -65.5 149.5t-169.5 51.5q-162 0 -236 -111v-561h143v-78h-231v664q115 170 324 170q138 0 230.5 -71.5t92.5 -199.5v-303q0 -88 61.5 -143.5t160.5 -55.5t159.5 53.5t60.5 145.5v559h89v-559z
" />
    <glyph glyph-name="f710;" unicode="&#xf710;" 
d="M23 922h-555v163h86v-81h469v-82z" />
    <glyph glyph-name="f711;" unicode="&#xf711;" 
d="M-266 1015.5q0 18.5 -12.5 31t-31 12.5t-30.5 -12.5t-12 -31t12 -30.5t30.5 -12t31 12t12.5 30.5zM-209 1016q0 -41 -28.5 -69.5t-69.5 -28.5t-72 28.5t-31 69.5t30 70.5t71 29.5t70.5 -29.5t29.5 -70.5z" />
    <glyph glyph-name="f712;" unicode="&#xf712;" 
d="M-135 1090h-387q-53 0 -84 -25t-31 -68l78 2l117 70l110 -70h129v-77h-143l-96 63l-101 -63h-178v67q0 76 47 123q59 53 158 53h381v-75z" />
    <glyph glyph-name="f713;" unicode="&#xf713;" 
d="M-244 1167h-88v144h88v-144z" />
    <glyph glyph-name="f714;" unicode="&#xf714;" 
d="M-109 1167h-311v43q0 31 -26 31h-29v74h41q88 0 88 -70l237 -4v-74z" />
    <glyph glyph-name="f715;" unicode="&#xf715;" 
d="M31 1167h-187v62q0 53 -51 53l-96 -70l-94 70q-55 0 -56 -53l74 2v-64h-145v74q0 51 37.5 83t93.5 32h8l82 -60l78 60h14q55 0 92 -31t37 -84h113v-74z" />
    <glyph glyph-name="f716;" unicode="&#xf716;" 
d="M-158 1255h-92v-88h-74v88h-92v62h92v88h74v-88h92v-62z" />
    <glyph glyph-name="f717;" unicode="&#xf717;" 
d="M-188 1155h-68q-49 0 -49 -35v-35h-80v43q0 49 29.5 73t72.5 24h95v-70z" />
    <glyph glyph-name="f718;" unicode="&#xf718;" 
d="M-74 -596h-88v154h-82v82h170v-236z" />
    <glyph glyph-name="f719;" unicode="&#xf719;" 
d="M-162 -473v113h88v-111q0 -59 -48 -97t-102 -38q-113 0 -167 71v93h-64v82h152v-146q19 -26 70 -26q71 0 71 59z" />
    <glyph glyph-name="f71a;" unicode="&#xf71a;" 
d="M-74 -426q0 -66 -65.5 -66t-65.5 66t65.5 66t65.5 -66z" />
    <glyph glyph-name="DEL" unicode="&#xf71b;" 
d="M0 0h-473v1208h473v-1208z" />
    <glyph glyph-name="f71c;" unicode="&#xf71c;" horiz-adv-x="512" 
 />
    <glyph glyph-name="f71d;" unicode="&#xf71d;" horiz-adv-x="512" 
d="M471 -186h-35v67q-33 27 -86 27h-200q-39 0 -74 -23v-71h-35v186h430v-186z" />
    <glyph glyph-name=".null" 
 />
  </font>
</defs>
</svg>
