<?xml version="1.0" standalone="no"?>
<!DOCTYPE svg PUBLIC "-//W3C//DTD SVG 1.1//EN" "http://www.w3.org/Graphics/SVG/1.1/DTD/svg11.dtd" >
<svg xmlns="http://www.w3.org/2000/svg">
<metadata>
Created by FontPrep 20130207 at Sat Sep 13 20:51:58 2014
 By UntinosZ
Copyright (c) Phanlop Thongsuk, 1999-2001. All rights reserved.
</metadata>
<defs>
<font id="a977a63e5d9b19ae654ca09db5519e79" horiz-adv-x='1024' >
  <font-face 
    font-family="KittithadaMedium65P"
    font-weight="500"
    font-stretch="normal"
    units-per-em="2048"
    panose-1="2 2 6 3 5 4 5 2 3 4"
    ascent="1638"
    descent="-410"
    x-height="698"
    cap-height="965"
    bbox="-930 -621 1556 1599"
    underline-thickness="30"
    underline-position="-76"
    unicode-range="U+0020-F71D"
  />
<missing-glyph horiz-adv-x="1599" 
d="M1401 100v1399h-1200v-1399h1200zM100 0v1599h1399v-1599h-1399z" />
    <glyph glyph-name=".notdef" horiz-adv-x="1599" 
d="M1401 100v1399h-1200v-1399h1200zM100 0v1599h1399v-1599h-1399z" />
    <glyph glyph-name="glyph1" 
 />
    <glyph glyph-name="nonmarkingreturn" horiz-adv-x="512" 
 />
    <glyph glyph-name="space" unicode=" " horiz-adv-x="512" 
 />
    <glyph glyph-name="space" unicode="&#xa0;" horiz-adv-x="512" 
 />
    <glyph glyph-name="exclam" unicode="!" horiz-adv-x="374" 
d="M279 0h-181v168h181v-168zM104 965h168v-279l-43 -418h-79l-46 418v279z" />
    <glyph glyph-name="quotedbl" unicode="&#x22;" horiz-adv-x="600" 
d="M250 584h-137v381h137v-381zM487 584h-137v381h137v-381z" />
    <glyph glyph-name="numbersign" unicode="#" horiz-adv-x="751" 
d="M471 561h-152l-22 -176h149zM709 561h-131l-23 -176h115v-100h-129l-41 -285h-109l41 285h-149l-41 -285h-109l39 285h-127v100h143l25 176h-127v101h139l39 284h111l-41 -284h149l39 284h111l-41 -284h117v-101z" />
    <glyph glyph-name="dollar" unicode="$" horiz-adv-x="751" 
d="M573 254q0 74 -51 113q-33 27 -114 47v-316q76 0 120.5 41t44.5 115zM350 866q-153 0 -153 -122q-1 -60 31 -92t122 -56v270zM729 274q0 -140 -89 -214t-232 -74v-107h-58v107q-150 0 -238.5 78.5t-88.5 228.5h153q0 -195 174 -195v328q-182 51 -246 121q-61 70 -61 184
t88.5 185t218.5 71v107h58v-107q129 0 213 -66.5t84 -195.5h-154q0 141 -143 141v-284q150 -41 221 -93q100 -75 100 -215z" />
    <glyph glyph-name="percent" unicode="%" horiz-adv-x="1351" 
d="M336.5 514q103.5 0 103.5 182q0 84 -20 123q-27 57 -107 57.5t-80 -180.5q0 -182 103.5 -182zM1014 432q-103 0 -103 -181t103.5 -181t103.5 180q0 80 -22.5 131t-81.5 51zM337 965q114 0 170 -76t56 -194q0 -119 -55 -193t-172 -74t-171 72.5t-54 192.5t56 196t170 76z
M979 979l-522 -1004h-105l525 1004h102zM1241 250q0 -262 -225 -260q-117 0 -172.5 70.5t-55.5 188.5t55.5 193.5t170.5 75.5t171 -76t56 -192z" />
    <glyph glyph-name="ampersand" unicode="&#x26;" horiz-adv-x="876" 
d="M197 265q0 -75 44.5 -119t116.5 -44t117 39q22 22 60 70l-189 235q-47 -29 -72 -44l-24 -15q-53 -47 -53 -122zM506 761q0 50 -26.5 80.5t-70.5 30.5t-74 -29.5t-30 -83.5t39 -96t49 -57q68 49 78 64q35 41 35 91zM348 -10q-137 0 -221 71.5t-84 206.5q0 166 221 279
q-96 121 -96 218t67.5 159.5t169.5 62.5t171 -58.5t69 -170.5q0 -150 -174 -246l150 -180q24 76 28 129h135q-11 -141 -75 -236l186 -225h-188l-89 109q-100 -119 -270 -119z" />
    <glyph glyph-name="quotesingle" unicode="'" horiz-adv-x="374" 
d="M256 584h-137v381h137v-381z" />
    <glyph glyph-name="parenleft" unicode="(" horiz-adv-x="374" 
d="M66 365q0 327 194 622h127q-166 -295 -166 -622q0 -174 39 -321t127 -294h-127q-92 146 -143 284t-51 331z" />
    <glyph glyph-name="parenright" unicode=")" horiz-adv-x="374" 
d="M156 382q0 319 -158 605h117q92 -148 143 -290t51 -332q0 -310 -194 -615h-117q158 313 158 632z" />
    <glyph glyph-name="asterisk" unicode="*" horiz-adv-x="499" 
d="M205 965h92v-162l145 57l33 -86l-153 -53l94 -127l-72 -51l-96 131l-90 -131l-76 51l94 127l-149 53l28 86l150 -57v162z" />
    <glyph glyph-name="plus" unicode="+" horiz-adv-x="811" 
d="M745 272h-270v-272h-139v272h-270v140h270v272h139v-272h270v-140z" />
    <glyph glyph-name="comma" unicode="," horiz-adv-x="374" 
d="M281 0q0 -72 -51.5 -130t-131.5 -75v82q41 10 64.5 48t23.5 75h-92v182h187v-182z" />
    <glyph glyph-name="hyphen" unicode="-" horiz-adv-x="526" 
d="M459 295h-393v145h393v-145z" />
    <glyph glyph-name="period" unicode="." horiz-adv-x="374" 
d="M281 0h-187v182h187v-182z" />
    <glyph glyph-name="slash" unicode="/" horiz-adv-x="475" 
d="M506 987l-389 -1001h-140l381 1001h148z" />
    <glyph glyph-name="zero" unicode="0" horiz-adv-x="751" 
d="M376 838q-173 0 -173 -365t173 -364.5t173 365.5q0 364 -173 364zM702 474q0 -204 -61 -327q-84 -158 -266 -157.5t-264 155.5q-61 123 -61 325t61 329q82 166 264 166t266 -164q61 -123 61 -327z" />
    <glyph glyph-name="one" unicode="1" horiz-adv-x="751" 
d="M473 0h-170v668h-231v120q96 0 178 35q80 39 98 123h125v-946z" />
    <glyph glyph-name="two" unicode="2" horiz-adv-x="751" 
d="M225 600h-155q0 159 86 262t241 103q154 0 238 -99q65 -84 65 -190t-58 -181t-149 -136t-165 -114q-74 -54 -90 -108h460v-137h-645q0 221 203 356q49 35 97 68t96 68q98 82 98 178q0 61 -36 114t-124 54q-162 0 -162 -238z" />
    <glyph glyph-name="three" unicode="3" horiz-adv-x="751" 
d="M672 713q0 -153 -133 -203q78 -18 124 -83t46 -157q0 -129 -97 -209q-96 -71 -248 -71t-237.5 84t-85.5 237h156q0 -92 45 -147t130 -55t134 44t49 124t-45 116q-51 45 -203 45v117q213 0 211 147q0 61 -41 98.5t-111 37.5t-111.5 -56.5t-41.5 -138.5h-154
q0 140 85.5 231t217.5 91t221 -66t89 -186z" />
    <glyph glyph-name="four" unicode="4" horiz-adv-x="751" 
d="M438 346v416l-286 -416h286zM707 225h-123v-225h-146v225h-405v152l405 569h146v-600h123v-121z" />
    <glyph glyph-name="five" unicode="5" horiz-adv-x="751" 
d="M371 514q-119 0 -152 -86h-153l100 518h489v-137h-374l-48 -242q70 70 194 70t202 -88.5t78 -224.5t-76 -230q-89 -104 -243 -104t-243 63q-98 76 -98 215h154q8 -74 54 -116.5t128 -42.5t125 56t43 146q0 91 -46 147t-134 56z" />
    <glyph glyph-name="six" unicode="6" horiz-adv-x="751" 
d="M551 304q0 83 -43 139.5t-123 56.5t-125 -55.5t-45 -137.5t45 -140t125 -58t123 56t43 139zM707 303q0 -141 -87.5 -227t-228.5 -86q-195 0 -271 127t-75 341q0 214 78 347q94 160 280 160q115 0 200 -73t85 -185h-153q-6 59 -44 95t-109 36t-120 -70q-61 -90 -61 -256
q31 51 87 81t120 30q137 0 218 -89.5t81 -230.5z" />
    <glyph glyph-name="seven" unicode="7" horiz-adv-x="751" 
d="M342 0h-170q0 397 367 809h-492v137h647v-129q-170 -193 -250 -362q-102 -227 -102 -455z" />
    <glyph glyph-name="eight" unicode="8" horiz-adv-x="751" 
d="M555 275q0 82 -50 125.5t-129 43.5t-129 -44t-50 -124t49 -127t129 -47t130 45.5t50 127.5zM524 702q0 66 -42 104t-106 38t-106.5 -38t-42.5 -106t41 -104.5t106.5 -36.5t107.5 38.5t42 104.5zM709 279q0 -135 -93.5 -212t-241 -77t-240.5 75.5t-93 213.5q0 86 47 148
t127 83q-133 52 -133 186t75.5 201.5t217 67.5t218.5 -68.5t77 -200.5t-133 -186q80 -20 126 -79.5t46 -151.5z" />
    <glyph glyph-name="nine" unicode="9" horiz-adv-x="751" 
d="M537 641q0 84 -45.5 140.5t-125.5 56.5t-122.5 -56.5t-42.5 -140.5t42 -140.5t123 -56.5t126 56.5t45 140.5zM371 965q336 0 336 -478q0 -213 -78 -346q-96 -152 -281 -151q-111 0 -201 65q-84 72 -84 185h154q6 -59 44.5 -95t108.5 -36q70 1 125 79t56 246
q-68 -110 -205 -110t-219 85t-82 229t89 235.5t237 91.5z" />
    <glyph glyph-name="colon" unicode=":" horiz-adv-x="374" 
d="M281 0h-187v182h187v-182zM281 502h-187v182h187v-182z" />
    <glyph glyph-name="semicolon" unicode=";" horiz-adv-x="374" 
d="M281 0q0 -72 -51.5 -130t-131.5 -75v82q41 10 64.5 48t23.5 75h-92v182h187v-182zM281 502h-187v182h187v-182z" />
    <glyph glyph-name="less" unicode="&#x3c;" horiz-adv-x="811" 
d="M750 -2l-689 295v98l689 303v-137l-506 -215l506 -215v-129z" />
    <glyph glyph-name="equal" unicode="=" horiz-adv-x="811" 
d="M745 137h-679v137h679v-137zM745 410h-679v137h679v-137z" />
    <glyph glyph-name="greater" unicode="&#x3e;" horiz-adv-x="811" 
d="M750 293l-689 -295v129l506 215l-506 215v137l689 -303v-98z" />
    <glyph glyph-name="question" unicode="?" horiz-adv-x="751" 
d="M463 0h-182v168h182v-168zM383 860q-162 0 -162 -203h-155q0 150 88 240t227 90t222 -71.5t83 -200.5q0 -86 -37 -142q-14 -21 -86.5 -88.5t-81.5 -81.5q-35 -59 -35 -141h-145q0 104 23 164t84 113q52 41 80 73t28 102t-44 108t-89 38z" />
    <glyph glyph-name="at" unicode="@" horiz-adv-x="1081" 
d="M487 293q75 1 131 79t56 144t-31 100.5t-76 34.5q-80 0 -135 -76q-53 -78 -53 -146t29.5 -102t78.5 -34zM458 190q-80 0 -137 60.5t-57 152.5q0 133 84 242t213 109q102 0 152 -99l24 78h94l-98 -356q-12 -41 -12 -60q0 -33 27 -32q63 0 118 86q58 81 58 215t-105 225
q-109 90 -267 90t-268 -116t-110 -299t112.5 -301.5t293.5 -118.5t299 133h94q-63 -104 -172 -158.5t-232 -54.5q-213 0 -358 139q-145 152 -145 365t144 355t342 142q198 1 332 -111q132 -112 132 -290t-110 -288t-210 -110q-35 0 -57.5 20.5t-22.5 59.5q-78 -78 -158 -78z
" />
    <glyph glyph-name="A" unicode="A" horiz-adv-x="901" 
d="M596 383l-145 416h-5l-145 -416h295zM911 0h-180l-90 256h-385l-90 -256h-168l362 965h181z" />
    <glyph glyph-name="B" unicode="B" horiz-adv-x="952" 
d="M733 291q0 147 -162 147h-299v-301h299q78 0 120 40t42 114zM690 694q0 133 -143 133h-275v-266h275q143 0 143 133zM571 965q287 0 287 -240q0 -143 -137 -205q180 -45 180 -252q0 -120 -89 -194t-265 -74h-445v965h469z" />
    <glyph glyph-name="C" unicode="C" horiz-adv-x="976" 
d="M514 850q-147 0 -223 -113q-70 -100 -70 -255t68 -253q78 -115 225 -114q111 0 172.5 70.5t73.5 183.5h164q0 -175 -116 -279t-310 -104t-324 141q-123 141 -123 356t126 359t337 145q170 0 284 -90t126 -240h-170q-48 193 -240 193z" />
    <glyph glyph-name="D" unicode="D" horiz-adv-x="976" 
d="M760 480q0 163 -69 255t-253 92h-166v-690h166q184 0 260 101q62 79 62 242zM928 483q0 -217 -101 -342q-111 -141 -323 -141h-402v965h402q213 0 323 -140q101 -125 101 -342z" />
    <glyph glyph-name="E" unicode="E" horiz-adv-x="851" 
d="M807 0h-705v965h695v-146h-525v-252h486v-139h-486v-283h535v-145z" />
    <glyph glyph-name="F" unicode="F" horiz-adv-x="800" 
d="M770 819h-498v-252h437v-139h-437v-428h-170v965h668v-146z" />
    <glyph glyph-name="G" unicode="G" horiz-adv-x="1026" 
d="M944 0h-106l-27 113q-66 -76 -132.5 -101.5t-158.5 -25.5q-209 0 -340 141q-123 141 -123 356t126 359t337 145q166 0 280.5 -85t133.5 -245h-164q-12 92 -84 142.5t-166 50.5q-147 0 -223 -113q-70 -100 -70 -255t68 -253q78 -115 216 -115t209 71t71 194h-256v129h409
v-508z" />
    <glyph glyph-name="H" unicode="H" horiz-adv-x="976" 
d="M877 0h-170v436h-439v-436h-170v965h170v-383h439v383h170v-965z" />
    <glyph glyph-name="I" unicode="I" horiz-adv-x="374" 
d="M272 0h-170v965h170v-965z" />
    <glyph glyph-name="J" unicode="J" horiz-adv-x="724" 
d="M623 311q0 -152 -54 -229q-79 -96 -245 -96t-236 79.5t-70 221.5v51h168v-49q0 -92 29 -133t105 -41t105.5 44t29.5 142v664h168v-654z" />
    <glyph glyph-name="K" unicode="K" horiz-adv-x="925" 
d="M272 0h-170v965h170v-439l430 439h207l-385 -385l412 -580h-211l-315 461l-138 -137v-324z" />
    <glyph glyph-name="L" unicode="L" horiz-adv-x="776" 
d="M762 0h-660v965h170v-820h490v-145z" />
    <glyph glyph-name="M" unicode="M" horiz-adv-x="1202" 
d="M1102 0h-162v745l-270 -745h-140l-266 745l-4 -745h-160v965h238l266 -756l262 756h236v-965z" />
    <glyph glyph-name="N" unicode="N" horiz-adv-x="976" 
d="M879 0h-179l-440 709l-4 -709h-160v965h178l441 -711l2 711h162v-965z" />
    <glyph glyph-name="O" unicode="O" horiz-adv-x="1028" 
d="M807 483.5q0 153.5 -68 251.5q-78 115 -225 115t-223 -113q-70 -100 -70 -255t68 -253q78 -115 223 -115t220 108t75 261.5zM514 986q211 0 337 -144t126 -358t-127 -359q-127 -139 -336 -139t-340 141q-123 141 -123 356t126 359t337 144z" />
    <glyph glyph-name="P" unicode="P" horiz-adv-x="901" 
d="M518 508q68 0 119 38t51 124t-45 121.5t-121 35.5h-250v-319h246zM856 668q0 -115 -59 -193q-84 -104 -269 -104h-256v-371h-170v965h426q182 0 267 -105q61 -77 61 -192z" />
    <glyph glyph-name="Q" unicode="Q" horiz-adv-x="1028" 
d="M807 474q0 163 -68 261q-78 115 -225 115t-223 -113q-70 -100 -70 -255t68 -253q78 -115 225 -114q63 0 109 22l-99 86l82 92l117 -102q84 98 84 261zM51 483q0 215 126 359t337 144t337 -144t126 -372t-137 -357l125 -109l-84 -84l-140 115q-83 -49 -227 -49
q-209 0 -340 141q-123 141 -123 356z" />
    <glyph glyph-name="R" unicode="R" horiz-adv-x="952" 
d="M713 680q0 86 -45 116.5t-121 30.5h-275v-301h277q164 0 164 154zM713 162q0 120 -40 178t-153 57h-248v-397h-170v965h461q319 0 320 -260q0 -94 -42 -157t-118 -87q55 -10 99 -55t44 -152q0 -196 54 -254h-183q-24 42 -24 162z" />
    <glyph glyph-name="S" unicode="S" horiz-adv-x="876" 
d="M831 281q0 -154 -118 -234q-103 -61 -273 -61t-276 73q-119 88 -119 263h168q0 -106 69 -156t175 -51q106 0 155.5 42t49.5 98q0 96 -74 123q-66 24 -293 81q-213 57 -213 246q0 135 111 213q95 70 247 70t258 -82q106 -81 107 -226h-170q0 88 -56.5 129t-140.5 41
q-188 0 -188 -125q0 -95 115 -125l278 -74q90 -27 139 -97t49 -148z" />
    <glyph glyph-name="T" unicode="T" horiz-adv-x="800" 
d="M793 819h-308v-819h-170v819h-305v146h783v-146z" />
    <glyph glyph-name="U" unicode="U" horiz-adv-x="976" 
d="M885 348q0 -186 -105.5 -274t-292 -88t-291 88t-104.5 274v617h168v-562q0 -131 31 -188q49 -92 195 -92t196 90q33 57 33 190v562h170v-617z" />
    <glyph glyph-name="V" unicode="V" horiz-adv-x="825" 
d="M834 965l-330 -965h-189l-315 965h168l244 -764l250 764h172z" />
    <glyph glyph-name="W" unicode="W" horiz-adv-x="1275" 
d="M1268 965l-267 -965h-172l-192 737l-201 -737h-174l-254 965h172l174 -738l197 738h174l188 -738l183 738h172z" />
    <glyph glyph-name="X" unicode="X" horiz-adv-x="876" 
d="M881 0h-207l-240 369l-246 -369h-188l338 500l-320 465h203l217 -340l230 340h188l-317 -465z" />
    <glyph glyph-name="Y" unicode="Y" horiz-adv-x="876" 
d="M522 0h-168v379l-354 586h188l254 -433l252 433h191l-363 -586v-379z" />
    <glyph glyph-name="Z" unicode="Z" horiz-adv-x="851" 
d="M821 0h-790v137l563 682h-520v146h735v-127l-563 -693h575v-145z" />
    <glyph glyph-name="bracketleft" unicode="[" horiz-adv-x="399" 
d="M399 -250h-301v1237h301v-121h-155v-995h155v-121z" />
    <glyph glyph-name="backslash" unicode="\" horiz-adv-x="475" 
d="M506 -14h-148l-381 1001h140z" />
    <glyph glyph-name="bracketright" unicode="]" horiz-adv-x="399" 
d="M303 -250h-301v121h156v995h-156v121h301v-1237z" />
    <glyph glyph-name="asciicircum" unicode="^" horiz-adv-x="811" 
d="M698 453h-139l-153 333l-154 -333h-139l243 493h99z" />
    <glyph glyph-name="underscore" unicode="_" horiz-adv-x="675" 
d="M676 -160h-676v68h676v-68z" />
    <glyph glyph-name="grave" unicode="`" horiz-adv-x="325" 
d="M264 795h-110l-185 192h172z" />
    <glyph glyph-name="a" unicode="a" horiz-adv-x="751" 
d="M512 236v114q-29 -23 -83 -29t-107.5 -15t-91 -32.5t-35.5 -75.5t47 -74t103 -22q59 0 113 33t54 101zM635 -10q-43 0 -73 14t-38 62q-80 -76 -241 -76q-100 0 -166 41q-74 55 -74 163t86 160q45 33 156 45q51 8 94 14.5t80 12.5q63 14 63 76q0 94 -145 94
q-68 0 -111 -27.5t-43 -83.5h-153q0 125 100 183q82 49 210 49t198 -45q88 -51 88 -158v-358q0 -53 36 -54l39 2v-104q-63 -10 -106 -10z" />
    <glyph glyph-name="b" unicode="b" horiz-adv-x="825" 
d="M432 102q94 0 142 71t49 173t-49 176t-146 74t-145.5 -65t-49.5 -177t52.5 -182t146.5 -70zM451 717q153 -1 239 -105t86 -260t-71 -258q-84 -104 -230 -104q-82 0 -145.5 20.5t-96.5 85.5l-2 -96h-145v965h154v-357q33 51 91 80t120 29z" />
    <glyph glyph-name="c" unicode="c" horiz-adv-x="751" 
d="M136.5 86q-89.5 96 -89.5 260t90.5 267.5t253.5 103.5q215 0 265.5 -95.5t50.5 -156.5h-154q-18 131 -160 131q-72 0 -125 -47q-68 -66 -67 -207q0 -98 45 -169t127 -71q159 0 180 160h154q-41 -272 -333 -272q-148 0 -237.5 96z" />
    <glyph glyph-name="d" unicode="d" horiz-adv-x="825" 
d="M393 102q97 0 147 75t50 183t-50.5 172t-146.5 64t-144 -75t-48 -179t48 -172t144 -68zM350 717q168 0 232 -109l4 357h153v-965h-145v94q-57 -104 -218 -104t-245 99t-84 272t94 268q82 88 209 88z" />
    <glyph glyph-name="e" unicode="e" horiz-adv-x="751" 
d="M561 412q0 76 -50 130t-127 54t-130 -53.5t-53 -130.5h360zM715 309h-514q0 -88 48 -147.5t140 -59.5q129 0 170 117h148q-27 -113 -111 -171t-207 -58q-162 0 -252 96t-90 255t94 267t244 108t242 -104t92 -250v-26q-4 -20 -4 -27z" />
    <glyph glyph-name="f" unicode="f" horiz-adv-x="425" 
d="M356 844q-75 0 -75 -74v-72h131v-114h-131v-584h-154v584h-115v114h115v60q0 121 52 164t140 43h56q35 0 53 -9v-120q-16 8 -72 8z" />
    <glyph glyph-name="g" unicode="g" horiz-adv-x="800" 
d="M387 121q94 0 140 70t46 172q0 101 -46 167t-141 66t-140 -72t-45 -169t46 -165.5t140 -68.5zM727 698v-661q0 -305 -344 -305q-119 0 -210 52t-101 165h153q11 -59 55 -81t113 -22q180 0 180 170v107q-73 -123 -221 -123t-231 109q-74 95 -74 249t86 256q90 102 235 102
t203 -114l2 96h154z" />
    <glyph glyph-name="h" unicode="h" horiz-adv-x="776" 
d="M435 717q259 0 259 -238v-479h-153v438q0 158 -138 158q-76 0 -121.5 -52t-45.5 -132v-412h-154v965h154v-359q71 111 199 111z" />
    <glyph glyph-name="i" unicode="i" horiz-adv-x="325" 
d="M240 0h-154v698h154v-698zM240 819h-154v146h154v-146z" />
    <glyph glyph-name="j" unicode="j" horiz-adv-x="325" 
d="M240 -51q0 -106 -47.5 -161.5t-153.5 -55.5l-62 4v123l46 -6q41 0 52 22.5t11 79.5v743h154v-749zM240 819h-154v146h154v-146z" />
    <glyph glyph-name="k" unicode="k" horiz-adv-x="724" 
d="M240 0h-154v965h154v-549l278 282h189l-269 -256l295 -442h-188l-213 340l-92 -90v-250z" />
    <glyph glyph-name="l" unicode="l" horiz-adv-x="325" 
d="M240 0h-154v965h154v-965z" />
    <glyph glyph-name="m" unicode="m" horiz-adv-x="1175" 
d="M446 717q151 0 195 -115q43 57 94 86t147 29t155 -54.5t59 -179.5v-483h-156v408q0 90 -16 135q-29 53 -111 53q-147 0 -147 -186v-410h-156v449q0 78 -27 112.5t-93 34.5t-110 -47t-44 -133v-416h-154v698h145v-96q43 55 90 85t129 30z" />
    <glyph glyph-name="n" unicode="n" horiz-adv-x="776" 
d="M694 0h-153v438q0 158 -138 158q-76 0 -121.5 -52t-45.5 -132v-412h-154v698h145v-102q37 55 94.5 88t124.5 33q117 0 182.5 -60.5t65.5 -177.5v-479z" />
    <glyph glyph-name="o" unicode="o" horiz-adv-x="800" 
d="M600 374q0 72 -51 147t-144 75t-147.5 -71.5t-54.5 -174.5q0 -168 74.5 -208t124 -40t86 20.5t61 54.5t38 79.5t13.5 117.5zM402 -10q-167 0 -260 97t-93 264t94.5 266.5t257.5 99.5q162 0 257.5 -99.5t95.5 -266.5t-92.5 -264t-259.5 -97z" />
    <glyph glyph-name="p" unicode="p" horiz-adv-x="825" 
d="M432 102q94 0 142 71t49 173t-49 176t-146 74t-145.5 -65t-49.5 -177t52.5 -182t146.5 -70zM451 717q153 -1 239 -105t86 -260t-71 -258q-84 -104 -240 -104t-223 100l-2 -340h-154v948h145v-94q66 113 220 113z" />
    <glyph glyph-name="q" unicode="q" horiz-adv-x="825" 
d="M443.5 102q146.5 0 146.5 181.5t-50.5 247t-142.5 65.5t-144 -71.5t-52 -176.5q0 -104 48 -175t194.5 -71zM47 351q0 159 85 263t240 103q155 0 218 -113l4 94h145v-948h-153v340q-35 -53 -101.5 -76.5t-136.5 -23.5q-143 0 -227 102q-74 100 -74 259z" />
    <glyph glyph-name="r" unicode="r" horiz-adv-x="475" 
d="M236 332v-332h-154v698h143v-135q17 60 80 107t127 47l60 -4v-148l-68 6q-82 0 -135 -63.5t-53 -175.5z" />
    <glyph glyph-name="s" unicode="s" horiz-adv-x="702" 
d="M338 596q-125 0 -125 -72q0 -49 70 -73q11 -6 138 -34q126 -28 173 -63q72 -52 72 -156t-103 -165q-90 -43 -221 -43t-215 56t-84 179h154q12 -123 162 -123q151 0 151 93q0 62 -79 80.5t-168 38.5t-136 55q-70 51 -70 151q-1 100 89 148t204.5 48.5t192.5 -46.5
q82 -55 98 -166h-160q-18 92 -143 92z" />
    <glyph glyph-name="t" unicode="t" horiz-adv-x="450" 
d="M405 0h-86q-113 0 -152.5 39t-39.5 133v412h-117v114h117v211h154v-211h139v-114h-139v-373q0 -55 13 -75.5t58 -20.5t68 6v-119q-12 -2 -15 -2z" />
    <glyph glyph-name="u" unicode="u" horiz-adv-x="776" 
d="M369 102q172 0 172 191v405h153v-698h-151v98q-29 -53 -84.5 -80.5t-116.5 -27.5q-260 0 -260 266v442h154v-428q0 -168 133 -168z" />
    <glyph glyph-name="v" unicode="v" horiz-adv-x="702" 
d="M690 698l-252 -698h-172l-254 698h168l176 -536l174 536h160z" />
    <glyph glyph-name="w" unicode="w" horiz-adv-x="1050" 
d="M1034 698l-219 -698h-158l-131 518l-131 -518h-162l-215 698h162l137 -522l134 522h155l127 -522l144 522h157z" />
    <glyph glyph-name="x" unicode="x" horiz-adv-x="724" 
d="M721 0h-186l-177 258l-172 -258h-180l262 369l-241 329h186l147 -215l152 215h178l-237 -323z" />
    <glyph glyph-name="y" unicode="y" horiz-adv-x="702" 
d="M162 -141q59 0 90 98l16 45l-264 696h168l184 -522l179 522h161l-272 -727q-62 -159 -114 -199t-134 -40h-65l-41 8v129q62 -10 92 -10z" />
    <glyph glyph-name="z" unicode="z" horiz-adv-x="675" 
d="M645 0h-614v109l385 469h-359v120h568v-108l-400 -469h420v-121z" />
    <glyph glyph-name="braceleft" unicode="{" horiz-adv-x="399" 
d="M418 -250h-123q-57 0 -116 49t-58 135v261q0 51 -39 79.5t-82 28.5v123q37 0 79 22t42 76v279q0 88 63 139q51 45 111 45h123v-121h-74q-47 0 -61.5 -26.5t-14.5 -67.5v-264q0 -72 -47 -105t-94 -36q59 -8 86 -29q55 -41 55 -125v-246q0 -33 11 -63q18 -33 65 -33h74
v-121z" />
    <glyph glyph-name="bar" unicode="|" horiz-adv-x="301" 
d="M219 -14h-137v1001h137v-1001z" />
    <glyph glyph-name="braceright" unicode="}" horiz-adv-x="399" 
d="M133 772q0 96 -76 94h-67v121h114q55 0 115 -49t60 -135v-268q0 -59 45 -84t82 -25v-123q-57 0 -92 -28.5t-35 -69.5v-271q0 -88 -64 -139q-51 -45 -111 -45h-114v121h67q76 0 76 96v254q0 117 139 144q-59 8 -86 28q-53 37 -53 123v256z" />
    <glyph glyph-name="asciitilde" unicode="~" horiz-adv-x="811" 
d="M262 457q55 -1 118 -29q140 -64 171 -63q62 0 119 92l47 -113q-49 -72 -86 -94.5t-82 -22.5q-31 -4 -65.5 11.5t-103.5 50t-124 30.5q-73 0 -115 -92l-47 113q60 117 168 117z" />
    <glyph glyph-name="currency" unicode="&#xa4;" horiz-adv-x="839" 
d="M424 825q117 0 186 -59l150 145l71 -71l-145 -150q59 -78 59 -190t-59 -191l145 -145l-71 -76l-150 148q-31 -25 -83 -43.5t-105 -18.5q-111 0 -193 62l-145 -148l-76 76l148 145q-62 82 -62 195t62 186l-148 150l76 71l145 -145q78 59 195 59zM418 270q96 0 160 66
t65 163q0 98 -64 164t-158 66q-95 1 -160 -69t-65 -161t64 -160q62 -69 158 -69z" />
    <glyph glyph-name="copyright" unicode="&#xa9;" horiz-adv-x="1081" 
d="M572 172q-148 0 -231 87t-83 224t78 222.5t219 85.5q98 0 169 -53.5t85 -151.5h-86q-10 57 -55 94t-126 37t-136.5 -65.5t-55.5 -165.5t58.5 -169t137.5 -69t123 38t54 99h86q-23 -98 -89.5 -155.5t-147.5 -57.5zM125 484q0 -185 119 -309t296 -124q176 1 296 121
t120 304t-120 311q-120 126 -296 126q-177 0 -296 -125q-119 -119 -119 -304zM540 987q208 -1 358 -145t151 -359q0 -215 -150 -358q-151 -139 -359 -139t-358 137q-150 143 -150 358t148 361q152 145 360 145z" />
    <glyph glyph-name="guillemotleft" unicode="&#xab;" horiz-adv-x="626" 
d="M276 125l-208 168v149l208 168v-139l-126 -102l126 -105v-139zM545 125l-209 168v149l209 168v-139l-129 -102l129 -105v-139z" />
    <glyph glyph-name="logicalnot" unicode="&#xac;" horiz-adv-x="811" 
d="M733 131h-84v186h-571v82h655v-268z" />
    <glyph glyph-name="minus" unicode="&#xad;" horiz-adv-x="811" 
d="M733 328h-655v61h655v-61z" />
    <glyph glyph-name="registered" unicode="&#xae;" horiz-adv-x="1081" 
d="M688 614q0 91 -129 91h-123v-189h96q96 0 126 24.5t30 73.5zM780 610q0 -144 -155 -161l168 -261h-99l-159 254h-99v-254h-92v590h229q207 0 207 -168zM125 484q0 -185 119 -309t296 -124q176 1 296 121t120 310t-120 310q-120 122 -296 122q-177 0 -296 -126
q-119 -119 -119 -304zM540 987q208 -1 358 -145t151 -359q0 -215 -150 -358q-151 -139 -359 -139t-358 137q-150 143 -150 358t148 361q152 145 360 145z" />
    <glyph glyph-name="degree" unicode="&#xb0;" horiz-adv-x="540" 
d="M266.5 858q-61.5 0 -103.5 -42t-42 -102t43 -104.5t103 -44.5q61 0 105 44t44 103.5t-44 102.5t-105.5 43zM291.5 915q107.5 0 143.5 -79.5t36 -143t-59.5 -123t-142.5 -59.5t-143 58.5t-60 143.5t59 144t166.5 59z" />
    <glyph glyph-name="paragraph" unicode="&#xb6;" horiz-adv-x="727" 
d="M0 858q0 295 342 295h389v-41h-102v-1358h-62v1358h-145v-1358h-55v807q-168 0 -263 62q-104 74 -104 235z" />
    <glyph glyph-name="periodcentered" unicode="&#xb7;" horiz-adv-x="337" 
d="M169 520q32 0 52.5 -21t20.5 -51t-21.5 -51.5t-52.5 -21.5t-51.5 20.5t-20.5 52.5t20.5 52t52.5 20z" />
    <glyph glyph-name="periodcentered" unicode="&#x2219;" horiz-adv-x="337" 
d="M169 520q32 0 52.5 -21t20.5 -51t-21.5 -51.5t-52.5 -21.5t-51.5 20.5t-20.5 52.5t20.5 52t52.5 20z" />
    <glyph glyph-name="guillemotright" unicode="&#xbb;" horiz-adv-x="626" 
d="M291 293l-209 -168v139l127 105l-127 102v139l209 -168v-149zM559 293l-211 -168v139l129 105l-129 102v139l211 -168v-149z" />
    <glyph glyph-name="multiply" unicode="&#xd7;" horiz-adv-x="811" 
d="M737 106l-116 -75l-218 217l-213 -217l-116 75l235 236l-235 236l116 75l213 -215l218 215l116 -75l-237 -236z" />
    <glyph glyph-name="divide" unicode="&#xf7;" horiz-adv-x="811" 
d="M504 65q0 -39 -30 -64.5t-68 -25.5t-68.5 24t-30.5 64.5t29 69.5t69.5 29t69.5 -29t29 -68zM745 272h-679v140h679v-140zM504 624q0 -40 -29 -71t-67.5 -31t-69.5 29t-31 70t30 68.5t70 27.5t68.5 -26.5t28.5 -66.5z" />
    <glyph glyph-name="0e00;" unicode="&#xe00;" horiz-adv-x="204" 
 />
    <glyph glyph-name="afii59681" unicode="&#xe01;" horiz-adv-x="851" 
d="M82 651q126 183 355 183t281 -109t52 -176v-549h-160v543q0 70 -54 111.5t-130 41.5q-117 0 -184 -86v-610h-160v651z" />
    <glyph glyph-name="afii59682;" unicode="&#xe02;" horiz-adv-x="768" 
d="M139 82q-94 94 -94 251t168 277l-111 135l136 86l170 -223q-205 -125 -205 -286q0 -82 48 -139.5t121 -57.5t114.5 46t41.5 108v540h160v-540q0 -127 -85 -206t-227 -79t-237 88z" />
    <glyph glyph-name="afii59683;" unicode="&#xe03;" horiz-adv-x="778" 
d="M381 819v-266q-80 -31 -127 -94.5t-47 -142.5t47.5 -135t121.5 -56t118.5 48t44.5 110v536h157v-536q0 -127 -90 -211q-90 -78 -226 -78t-230 86q-94 92 -94 225t67 199.5t106 89.5v63l-45 -32q-59 69 -157 112l82 92q50 -24 90 -61l59 51h123z" />
    <glyph glyph-name="afii59684;" unicode="&#xe04;" horiz-adv-x="851" 
d="M770 0h-160v545q0 66 -53 106.5t-131 40.5t-130 -42t-52 -105v-60h235v-143h-235v-342h-162v545q0 127 95 208t248 81t247 -82q98 -80 98 -207v-545z" />
    <glyph glyph-name="afii59685;" unicode="&#xe05;" horiz-adv-x="894" 
d="M813 0h-162v567q0 90 -78 119l-120 -119l-134 119q-74 -31 -73 -119v-82h256v-143h-256v-342h-164v557q0 109 74 193q78 84 198 84l95 -84l96 84q121 0 195 -80t73 -197v-557z" />
    <glyph glyph-name="afii59686;" unicode="&#xe06;" horiz-adv-x="876" 
d="M379 819v-211q0 -25 -78 -96q-39 -33 -39 -70v-145q0 -63 69.5 -118.5t144.5 -55.5t117 44t42 105v547h160v-551q0 -129 -75 -201.5t-210 -72.5q-82 0 -152 31q-53 29 -96 77v-102h-160v459q0 49 57.5 88t57.5 69v41l-45 -32q-61 71 -158 112l82 92q56 -27 90 -61l60 51
h133z" />
    <glyph glyph-name="afii59687;" unicode="&#xe07;" horiz-adv-x="794" 
d="M260 821q490 0 490 -415q0 -199 -122 -302.5t-352 -103.5h-92l-184 819h156l155 -680q129 0 203 72t74 201t-77 195.5t-251 66.5v147z" />
    <glyph glyph-name="afii59688;" unicode="&#xe08;" horiz-adv-x="811" 
d="M375 834q174 0 282.5 -115t108.5 -296t-121 -302t-334 -121h-61l-86 381h-82v143h221l82 -377q94 8 160 89q61 82 61 192t-69.5 182t-198.5 72t-240 -111l-98 99q155 164 375 164z" />
    <glyph glyph-name="afii59689;" unicode="&#xe09;" horiz-adv-x="815" 
d="M578 102q-76 -108 -260 -108q-94 0 -162 55q-74 70 -74 199v100h-66v144h222v-242q0 -131 137 -131q71 0 137 54t66 124v248q0 66 -53.5 108.5t-126.5 42.5q-160 0 -203 -137h-154q23 131 125 203t237 72t230 -76q100 -74 100 -199v-459l41 -100h-196v102z" />
    <glyph glyph-name="afii59690;" unicode="&#xe0a;" horiz-adv-x="780" 
d="M352 125q100 0 161.5 59.5t61.5 151.5t-56 160t-202 110l240 228l154 -62l-160 -151q184 -90 184 -297q0 -147 -96 -238q-109 -90 -283 -90t-274 45v778h162v-680q56 -14 108 -14z" />
    <glyph glyph-name="afii59691;" unicode="&#xe0b;" horiz-adv-x="811" 
d="M606 336q0 92 -56 160t-202 110l240 228l155 -60l-161 -153q184 -90 184 -297q0 -147 -96 -238q-110 -90 -284 -90t-273 45v428q0 43 40 93t40 77v18l-46 -32q-12 12 -40 44t-107 68l82 92q50 -21 80 -61l59 51h127v-186q0 -31 -24 -64q-57 -76 -58 -114v-316l117 -14
q100 0 161.5 59.5t61.5 151.5z" />
    <glyph glyph-name="afii59692;" unicode="&#xe0c;" horiz-adv-x="1368" 
d="M82 651q126 183 355 183t281 -109t52 -176v-246q0 -70 62 -127t136 -57t116 42t42 113v545h160v-555q0 -129 -72 -199.5t-182 -70.5t-164 29t-98 79v-102h-160v543q0 70 -54 111.5t-130 41.5q-117 0 -184 -86v-473h120v-137h-280v651z" />
    <glyph glyph-name="afii59693;" unicode="&#xe0d;" horiz-adv-x="1368" 
d="M82 651q126 183 355 183t281 -109t52 -176v-82q0 -61 48 -95t127 -34t130 36t51 101v344h160v-534q0 -129 -100 -215q-102 -78 -267 -78t-309 86l80 119q108 -78 216 -78t164 48t56 112q-31 -33 -84 -55.5t-110 -22.5q-154 0 -238 66.5t-84 191.5v84q0 70 -54 111.5
t-130 41.5q-117 0 -184 -86v-473h120v-137h-280v651z" />
    <glyph glyph-name="afii59694;" unicode="&#xe0e;" horiz-adv-x="860" 
d="M92 651q126 183 355 183t281 -109t52 -176v-848h-159l-150 119l-154 -119h-307v143h279l186 133l146 -108v674q0 70 -54.5 111.5t-130.5 41.5q-117 0 -184 -86v-610h-242v143h82v508z" />
    <glyph glyph-name="afii59695;" unicode="&#xe0f;" horiz-adv-x="860" 
d="M92 651q126 183 355 183t281 -109t52 -176v-848h-153l-88 88l-109 -111l-106 111l-91 -88h-223v143h176l146 119l98 -104l107 104l84 -78v658q0 70 -54.5 111.5t-130.5 41.5q-117 0 -184 -86v-610h-242v143h82v508z" />
    <glyph glyph-name="afii59696;" unicode="&#xe10;" horiz-adv-x="813" 
d="M770 -295h-170l-88 82l-98 -106l-107 106l-86 -82h-203v143h170l129 95l97 -95l96 95l100 -84v98l-32 43h192v-295zM375 834q82 0 174 -35l69 92l148 -72l-94 -112q94 -107 94 -286t-121 -300t-334 -121h-61l-86 381h-82v143h221l82 -377q94 8 160 89q61 82 61 192
t-69.5 182t-198.5 72t-240 -111l-98 99q155 164 375 164z" />
    <glyph glyph-name="afii59697;" unicode="&#xe11;" horiz-adv-x="886" 
d="M369 819v-186q0 -35 -29 -76q-68 -86 -68 -115v-88q0 -40 -16 -139q10 29 19.5 50.5t28.5 70.5t44 98l199 389q135 0 196.5 -50t61.5 -181v-592h-160v594q0 61 -45 61l-328 -655h-159v453q0 49 63 106q31 27 31 57v41l-45 -32q-61 71 -158 112l82 92q56 -27 90 -61l60 51
h133z" />
    <glyph glyph-name="afii59698;" unicode="&#xe12;" horiz-adv-x="1417" 
d="M1333 264q0 -129 -71.5 -199.5t-181.5 -70.5t-164 29t-99 79v-102h-162v563q0 72 -55 107l-131 -115l-139 115q-47 -41 -80 -107q-41 -95 -41 -187t41.5 -162.5t111.5 -70.5t117 62l111 -99q-86 -108 -229 -108t-227.5 105.5t-84.5 279.5t88 295t215 151l113 -94l98 88
q125 -14 189.5 -84.5t64.5 -187.5v-248q1 -70 63 -127t136 -57t116 42t42 113v545h159v-555z" />
    <glyph glyph-name="afii59699;" unicode="&#xe13;" horiz-adv-x="1368" 
d="M82 651q126 183 355 183t281 -109t52 -176v-275q0 -74 41 -114.5t118 -40.5t134 57q63 57 63 127v516h160v-819h-160v102q-94 -108 -233 -108t-211 69.5t-72 200.5v279q0 70 -54 111.5t-130 41.5q-117 0 -184 -86v-473h120v-137h-280v651z" />
    <glyph glyph-name="afii59700;" unicode="&#xe14;" horiz-adv-x="878" 
d="M355 -2q-144 0 -226 103.5t-82 285.5t120 314t294 133q131 0 215 -50t121 -125v-659h-160v618q-14 29 -59.5 53.5t-108.5 24.5q-111 0 -186.5 -94t-75.5 -204t40.5 -181.5t110.5 -71.5t119 54l107 -105q-85 -96 -229 -96z" />
    <glyph glyph-name="afii59701;" unicode="&#xe15;" horiz-adv-x="897" 
d="M815 0h-162v563q0 72 -55 107l-131 -115l-139 115q-47 -41 -80 -107q-41 -95 -41 -187t41.5 -162.5t111.5 -70.5t117 62l111 -99q-86 -108 -230 -108t-227.5 105.5t-83.5 279.5t88 295t215 151l113 -94l98 88q125 -14 189.5 -84.5t64.5 -187.5v-551z" />
    <glyph glyph-name="afii59702;" unicode="&#xe16;" horiz-adv-x="851" 
d="M82 651q126 183 355 183t281 -109t52 -176v-549h-160v543q0 70 -54 111.5t-130 41.5q-117 0 -184 -86v-473h120v-137h-280v651z" />
    <glyph glyph-name="afii59703;" unicode="&#xe17;" horiz-adv-x="856" 
d="M774 0h-160v547q0 63 -41 106t-117 43t-146 -54q-69 -54 -68 -120v-522h-160v819h160v-102q42 49 108 83t139 34q131 0 208 -77t77 -206v-551z" />
    <glyph glyph-name="afii59704;" unicode="&#xe18;" horiz-adv-x="786" 
d="M357 -4q-159 0 -279 43v297l155 55v-254q41 -14 126 -14t146.5 39t61.5 129.5t-192 114.5q-150 18 -225 57q-96 49 -96 144t94 160t220 65t222 -58.5t127 -171.5h-164q-16 45 -72.5 69.5t-120.5 24.5t-104.5 -22.5t-40.5 -64t186 -60.5q326 -41 326 -281
q0 -133 -109 -211q-102 -61 -261 -61z" />
    <glyph glyph-name="afii59705;" unicode="&#xe19;" horiz-adv-x="851" 
d="M82 268v551h160v-547q0 -63 41 -106t115 -43t147 53q70 55 69 121v522h160v-819h-160v102q-95 -108 -236 -108q-142 0 -219 72.5t-77 201.5z" />
    <glyph glyph-name="afii59706;" unicode="&#xe1a;" horiz-adv-x="851" 
d="M770 274q0 -121 -102 -204q-100 -76 -242 -76t-244 74q-100 82 -100 206v545h160v-545q0 -66 49 -107.5t133 -41.5t135 41t51 108v545h160v-545z" />
    <glyph glyph-name="afii59707;" unicode="&#xe1b;" horiz-adv-x="851" 
d="M770 274q0 -121 -102 -204q-100 -76 -242 -76t-244 74q-100 82 -100 206v545h160v-545q0 -66 49 -107.5t133 -41.5t135 41t51 108v811h160v-811z" />
    <glyph glyph-name="afii59708;" unicode="&#xe1c;" horiz-adv-x="1069" 
d="M305 819v-139h-102l100 -385l176 524h109l182 -526l143 526h152l-223 -819h-121l-189 547l-184 -547h-119l-227 819h303z" />
    <glyph glyph-name="afii59709;" unicode="&#xe1d;" horiz-adv-x="1069" 
d="M305 819v-139h-102l100 -385l176 524h109l182 -526l213 792h152l-293 -1085h-121l-189 547l-184 -547h-119l-227 819h303z" />
    <glyph glyph-name="afii59710;" unicode="&#xe1e;" horiz-adv-x="1069" 
d="M1065 819l-223 -819h-121l-189 547l-184 -547h-119l-227 819h162l139 -524l176 524h109l182 -526l143 526h152z" />
    <glyph glyph-name="afii59711;" unicode="&#xe1f;" horiz-adv-x="1069" 
d="M1137 1085l-295 -1085h-121l-189 547l-184 -547h-119l-227 819h162l139 -524l176 524h109l182 -526l215 792h152z" />
    <glyph glyph-name="afii59712;" unicode="&#xe20;" horiz-adv-x="862" 
d="M92 651q126 183 355 183t281 -109t52 -176v-549h-159v543q0 70 -54.5 111.5t-130.5 41.5q-117 0 -184 -86v-610h-242v143h82v508z" />
    <glyph glyph-name="afii59713;" unicode="&#xe21;" horiz-adv-x="851" 
d="M774 268q0 -129 -74.5 -201.5t-210.5 -72.5q-82 0 -151 31q-53 29 -96 77v-102h-160v819h160v-522q0 -63 69.5 -118.5t144.5 -55.5t116.5 44t41.5 105v547h160v-551z" />
    <glyph glyph-name="afii59714;" unicode="&#xe22;" horiz-adv-x="845" 
d="M362 684q-133 0 -133 -76q0 -37 51.5 -60.5t113.5 -23.5t81 8v-143h-69q-86 0 -140.5 -33.5t-54.5 -95.5t59.5 -98.5t162.5 -36.5t171 57v637h160v-684q-120 -141 -340 -139q-180 0 -278.5 70.5t-98.5 193.5q0 72 45 122t105 71q-55 14 -93 58t-38 95q1 100 74.5 161.5
t176.5 61.5t158 -26v-150q-50 31 -113 31z" />
    <glyph glyph-name="afii59715;" unicode="&#xe23;" horiz-adv-x="788" 
d="M745 267q0 -128 -102 -206q-103 -67 -249 -67t-240 63q-109 80 -109 222h158q0 -74 57 -114t135 -40t134.5 35t56.5 88q0 95 -198 116t-265 76q-61 46 -61 146t94 174q96 74 233 74t235.5 -66t118.5 -182h-161q-20 49 -76 79.5t-124 30.5t-113.5 -27.5t-45.5 -74.5
q0 -55 85 -67.5t172 -23.5t161 -48q104 -60 104 -188z" />
    <glyph glyph-name="afii59716;" unicode="&#xe24;" horiz-adv-x="851" 
d="M82 651q126 183 355 183t281 -109t52 -176v-848h-160v842q0 70 -54 111.5t-130 41.5q-117 0 -184 -86v-473h120v-137h-280v651z" />
    <glyph glyph-name="afii59717;" unicode="&#xe25;" horiz-adv-x="868" 
d="M627 307q-65 109 -227 109q-82 0 -138.5 -43t-56.5 -101t33.5 -95.5t91.5 -37.5t106 39l80 -112q-45 -39 -90 -53.5t-111 -14.5q-123 0 -197.5 73.5t-74.5 198.5t101 207t247 82t236 -57v94q-12 43 -66.5 71.5t-120.5 28.5q-151 0 -200 -116h-172q37 123 139.5 188.5
t240.5 65.5t226 -56.5t112 -142.5v-635h-159v307z" />
    <glyph glyph-name="afii59718;" unicode="&#xe26;" horiz-adv-x="862" 
d="M92 651q126 183 355 183t281 -109t52 -176v-848h-159v842q0 70 -54.5 111.5t-130.5 41.5q-117 0 -184 -86v-610h-242v143h82v508z" />
    <glyph glyph-name="afii59719;" unicode="&#xe27;" horiz-adv-x="784" 
d="M383 692q-68 0 -114 -44t-66 -116h-164q29 135 118 218.5t241 83.5t246 -120q95 -120 95 -303t-92 -300q-97 -117 -251 -117t-241 78t-116 215h164q50 -158 180 -158q96 0 146 87q51 87 51 199t-48 189q-51 88 -149 88z" />
    <glyph glyph-name="afii59720;" unicode="&#xe28;" horiz-adv-x="847" 
d="M768 545v-545h-160v545q0 66 -53 106.5t-131 40.5t-130 -42t-52 -105v-60h235v-143h-235v-342h-162v545q0 127 95 208t249 81q98 0 149 -27l56 84l147 -72l-78 -94q70 -70 70 -180z" />
    <glyph glyph-name="afii59721;" unicode="&#xe29;" horiz-adv-x="864" 
d="M856 360h-86v-86q0 -121 -102 -204q-100 -76 -242 -76t-244 74q-100 82 -100 206v545h160v-545q0 -66 49 -107.5t133 -41.5t135 41t51 108v86h-215v175l80 -31h135v315h160v-315h86v-144z" />
    <glyph glyph-name="afii59722;" unicode="&#xe2a;" horiz-adv-x="868" 
d="M627 307q-65 109 -227 109q-82 0 -138.5 -43t-56.5 -101t33.5 -95.5t91.5 -37.5t106 39l80 -112q-45 -39 -90 -53.5t-111 -14.5q-123 0 -197.5 73.5t-74.5 198.5t101 207t247 82t236 -57v94q-12 43 -66.5 71.5t-120.5 28.5q-151 0 -200 -116h-172q37 123 139 188.5
t244 65.5q82 0 147 -25l59 82l148 -72l-78 -88q43 -41 59 -96v-635h-159v307z" />
    <glyph glyph-name="afii59723;" unicode="&#xe2b;" horiz-adv-x="858" 
d="M778 0h-157v350q0 86 -36 132t-122 61l-221 -183v-360h-160v819h160v-284l360 294l164 -41l-195 -159q98 -14 152.5 -73.5t54.5 -147.5v-408z" />
    <glyph glyph-name="afii59724;" unicode="&#xe2c;" horiz-adv-x="1069" 
d="M1004 614q0 -39 -9 -53l-153 -561h-121l-189 547l-184 -547h-119l-227 819h162l139 -524l176 524h109l182 -526l72 268q4 24 4 47t-22.5 45.5t-55.5 22.5h-66v143h89q119 0 139 70l20 74h158l-35 -123q-29 -102 -141 -115q72 -35 72 -111z" />
    <glyph glyph-name="afii59725;" unicode="&#xe2d;" horiz-adv-x="925" 
d="M881 412q0 -186 -115 -302t-304 -116t-302 110q-115 121 -115 306l6 82h375v-144h-213q16 -100 82.5 -156.5t175.5 -56.5t179.5 76t70.5 198.5t-69.5 197.5t-188.5 75q-158 0 -227 -135h-173q43 141 151 214t249 73q188 0 301 -119q117 -117 117 -303z" />
    <glyph glyph-name="afii59726;" unicode="&#xe2e;" horiz-adv-x="925" 
d="M881 412q0 -186 -115 -302t-304 -116t-302 110q-115 121 -115 306l6 82h375v-144h-213q16 -100 82.5 -156.5t175.5 -56.5t179.5 76t70.5 198.5t-69.5 197.5t-188.5 75q-158 0 -227 -135h-173q43 141 151 214t230 73t193 -33l70 90l147 -72l-90 -104q117 -117 117 -303z
" />
    <glyph glyph-name="afii59727;" unicode="&#xe2f;" horiz-adv-x="798" 
d="M319 549q143 0 238 108v162h160v-819h-160v492q-37 -31 -100.5 -56.5t-137.5 -25.5q-137 0 -215.5 62.5t-78.5 150.5t75.5 147t167.5 59t164 -28v-146q-64 31 -125 31q-123 0 -123 -63q0 -35 41 -54.5t94 -19.5z" />
    <glyph glyph-name="afii59729;" unicode="&#xe30;" horiz-adv-x="362" 
d="M340 102h-289v187h160v-68h129v-119zM340 530h-289v187h160v-68h129v-119z" />
    <glyph glyph-name="afii59728;" unicode="&#xe31;" 
d="M190 922h-596v204h160v-86h436v-118z" />
    <glyph glyph-name="afii59730;" unicode="&#xe32;" horiz-adv-x="604" 
d="M223 834q147 0 223 -85t76 -221v-528h-160v508q0 86 -48 131t-135 45t-146 -49v158q88 41 190 41z" />
    <glyph glyph-name="afii59731;" unicode="&#xe33;" horiz-adv-x="589" 
d="M-102 1034.5q0 18.5 -15 32.5t-35 14t-36.5 -14t-16.5 -32.5t15.5 -33t34.5 -14.5t36 14.5t17 33zM223 834q147 0 223 -85t76 -221v-528h-160v508q0 86 -48 131t-135 45t-146 -49v158q88 41 190 41zM-20 1034q0 -53 -37 -88t-95 -35t-96.5 35t-38.5 88t37 88t94 35
t96.5 -35t39.5 -88z" />
    <glyph glyph-name="afii59732;" unicode="&#xe34;" 
d="M-74 922h-655v118h655v-118z" />
    <glyph glyph-name="afii59733;" unicode="&#xe35;" 
d="M-74 922h-655v118h496v107h159v-225z" />
    <glyph glyph-name="afii59734;" unicode="&#xe36;" 
d="M-106 1038.5q0 18.5 -12.5 30.5t-31 12t-31 -12t-12.5 -30.5t12.5 -31t31 -12.5t31 12.5t12.5 31zM-25 1039q0 -50 -35.5 -83.5t-89.5 -33.5h-579v118h457q0 49 35.5 83t87.5 34t88 -34t36 -84z" />
    <glyph glyph-name="afii59735;" unicode="&#xe37;" 
d="M-74 922h-655v118h326v107h108v-107h62v107h159v-225z" />
    <glyph glyph-name="afii59736;" unicode="&#xe38;" 
d="M-74 -330h-159v133h-82v123h241v-256z" />
    <glyph glyph-name="afii59737;" unicode="&#xe39;" 
d="M-284 -334q-102 0 -167 64v73h-61v123h195v-135q14 -8 34 -8q49 0 50 37v106h159v-123q0 -66 -54 -101.5t-156 -35.5z" />
    <glyph glyph-name="afii59738;" unicode="&#xe3a;" 
d="M-43 -176q0 -41 -33 -72t-80 -31t-79.5 31t-32.5 72t32.5 71.5t79.5 30.5t80 -30.5t33 -71.5z" />
    <glyph glyph-name="afii59743;" unicode="&#xe3f;" horiz-adv-x="952" 
d="M449 137v301h-177v-301h177zM733 291q0 147 -162 147h-65v-301h65q78 0 120 40t42 114zM449 561v266h-177v-266h177zM690 694q0 133 -143 133h-41v-266h41q143 0 143 133zM571 965q287 0 287 -240q0 -143 -137 -205q180 -45 180 -252q0 -120 -89 -194t-265 -74h-41v-121
h-57v121h-347v965h347v129h57v-129h65z" />
    <glyph glyph-name="afii59744;" unicode="&#xe40;" horiz-adv-x="364" 
d="M262 0h-160v819h160v-819z" />
    <glyph glyph-name="afii59745;" unicode="&#xe41;" horiz-adv-x="667" 
d="M262 0h-160v819h160v-819zM565 0h-159v819h159v-819z" />
    <glyph glyph-name="afii59746;" unicode="&#xe42;" horiz-adv-x="405" 
d="M0 1118q0 121 170 121h270v-129h-233q-47 0 -47 -8l61 -55q61 -55 62 -148v-899h-160v893q0 63 -64 121q-59 66 -59 104z" />
    <glyph glyph-name="afii59747;" unicode="&#xe43;" horiz-adv-x="405" 
d="M381 1087q0 -49 -49 -101t-49 -99v-887h-160v907q0 59 50 103t50 68q0 23 -8 38q-18 33 -57 33t-63.5 -26.5t-24.5 -73.5h-150q0 96 70 163q56 68 160 68t167.5 -56.5t63.5 -136.5z" />
    <glyph glyph-name="afii59748;" unicode="&#xe44;" horiz-adv-x="405" 
d="M283 848v-848h-160v829q0 59 18.5 109.5t75.5 110.5l-33 34l-106 -94l-191 178l95 103l110 -111l123 101l180 -191q-112 -87 -112 -221z" />
    <glyph glyph-name="afii59749;" unicode="&#xe45;" horiz-adv-x="626" 
d="M209 834q160 0 247 -85.5t87 -220.5v-827h-160v807q0 82 -53.5 129t-146.5 47t-150 -49v158q88 41 176 41z" />
    <glyph glyph-name="afii59750;" unicode="&#xe46;" horiz-adv-x="796" 
d="M715 -299h-160v883q0 84 -55 106l-123 -102l-135 104q-49 -23 -49 -108v-31h141v-143h-301v157q0 125 62.5 193.5t180.5 68.5l97 -71l98 71q117 0 180.5 -69.5t63.5 -192.5v-866z" />
    <glyph glyph-name="afii59751;" unicode="&#xe47;" 
d="M-74 1122h-377q-45 0 -72.5 -23.5t-27.5 -56.5h74l108 60l105 -60h127v-120h-137l-95 55l-98 -55h-223v88q0 94 60.5 154.5t172.5 60.5h383v-103z" />
    <glyph glyph-name="afii59752;" unicode="&#xe48;" 
d="M-74 1208h-159v185h159v-185z" />
    <glyph glyph-name="afii59753;" unicode="&#xe49;" 
d="M27 1208h-363v80q0 31 -26 31h-27v92h102q47 0 70.5 -22.5t23.5 -57.5v-12h220v-111z" />
    <glyph glyph-name="afii59754;" unicode="&#xe4a;" 
d="M190 1208h-231v113q0 29 -27 29l-90 -64l-92 64q-37 0 -37 -31v-16h62v-95h-178v107q0 59 36.5 92t92.5 33h43l73 -51l70 51h39q49 0 84 -28t35 -87v-16h120v-101z" />
    <glyph glyph-name="afii59755;" unicode="&#xe4b;" 
d="M2 1286h-84v-78h-143v78h-92v92h92v78h143v-78h84v-92z" />
    <glyph glyph-name="afii59756;" unicode="&#xe4c;" 
d="M-18 1180h-60q-51 0 -51 -45v-23h-143v43q0 59 36.5 88t96.5 29h121v-92z" />
    <glyph glyph-name="afii59757;" unicode="&#xe4d;" 
d="M-102 1034.5q0 18.5 -15 32.5t-35 14t-36.5 -14t-16.5 -32.5t15.5 -33t34.5 -14.5t36 14.5t17 33zM-20 1034q0 -53 -37 -88t-95 -35t-96.5 35t-38.5 88t37 88t94 35t96.5 -35t39.5 -88z" />
    <glyph glyph-name="afii59758;" unicode="&#xe4e;" 
d="M-195 1317h23v-94h-29q-10 0 -50 2t-87 -14q-98 -31 -86 -72q6 -17 58 -17t106 39l53 -90q-112 -51 -180 -51q-6 2 -16 2h-11q-61 8 -98 39t-37 69q0 64 51 106t107 52q-29 25 -29 66t39 83.5t111 70.5t245 28h27v-106q-77 8 -157.5 -10.5t-112 -34t-25.5 -29.5
q0 -39 98 -39z" />
    <glyph glyph-name="afii59759;" unicode="&#xe4f;" horiz-adv-x="983" 
d="M748 409.5q0 -106.5 -75 -181.5t-181.5 -74.5t-182.5 73.5q-74 76 -73.5 182.5t74.5 181.5t181 75t182 -75t75 -181.5zM850 409q0 147 -106 253t-253 106t-252 -105t-105.5 -253t104.5 -254q106 -104 253 -105t253 105t106 253zM911 410q0 -174 -123 -297
q-127 -115 -296.5 -115t-296.5 115q-123 123 -123 297t122.5 296.5t297 122.5t297 -122.5t122.5 -296.5z" />
    <glyph glyph-name="afii59760;" unicode="&#xe50;" horiz-adv-x="835" 
d="M625 313.5q0 77.5 -59.5 133t-150.5 55.5t-148.5 -54.5t-57.5 -132.5t57.5 -134t148.5 -56t150.5 55.5t59.5 133zM784 313.5q0 -135.5 -102 -226.5t-261 -91t-265 88q-104 94 -104 228t104 231q110 96 262 96t259 -95t107 -230.5z" />
    <glyph glyph-name="afii59761;" unicode="&#xe51;" horiz-adv-x="884" 
d="M492 272.5q0 22.5 -17.5 38t-44.5 15.5t-44 -15t-17 -37t17 -39.5t43 -17.5t44.5 16.5t18.5 39zM51 340q0 125 114 212q113 87 277 87q164 1 279 -89t115 -246t-140 -277q-127 -100 -315 -127l-74 114q157 14 263 88t106 193q0 92 -67.5 150.5t-169.5 58.5t-166 -52.5
t-64 -107.5q0 -106 80 -137q-19 18 -19 71t46 95.5t114 42.5t115 -43t47 -116t-70.5 -131t-192.5 -58t-200 73.5t-78 198.5z" />
    <glyph glyph-name="afii59762;" unicode="&#xe52;" horiz-adv-x="1232" 
d="M567 317.5q0 49.5 -55 49.5t-55 -49.5t55 -49.5t55 49.5zM592 639q110 0 174 -64q25 27 70 45.5t116 18.5t140 -56t69 -143v-440h-993q-29 292 -90 473q-33 88 -81 161t-142 152l122 91q183 -170 248 -361q58 -147 86 -385h695v297q0 39 -26 58.5t-52 19.5t-51 -12.5
t-37 -30.5v-270h-148v270q-24 49 -96 49q-37 0 -62.5 -17.5t-33.5 -41.5q66 0 110.5 -39.5t44.5 -97.5t-45 -97t-110.5 -39t-110.5 39t-45 96v99q0 98 69 161.5t179 63.5z" />
    <glyph glyph-name="afii59763;" unicode="&#xe53;" horiz-adv-x="1021" 
d="M305 147q0 25 -17.5 41.5t-45.5 16.5q-59 0 -59.5 -57.5t61.5 -57.5t61 57zM950 0h-159v426q0 31 -28 48.5t-76 17.5t-75 -37v-455h-155v457q-35 35 -95 35t-93 -26t-33 -71v-94q72 0 119.5 -44t47.5 -109.5t-48 -107.5t-117.5 -42t-117.5 42t-48 107v265
q0 100 80.5 161.5t193.5 61.5q57 0 109.5 -20.5t79.5 -49.5q27 31 75 50.5t100 19.5q103 0 171.5 -57.5t68.5 -141.5v-436z" />
    <glyph glyph-name="afii59764;" unicode="&#xe54;" horiz-adv-x="946" 
d="M569 264q1 -53 65 -53t64 53q0 23 -17 39t-46 16t-47.5 -16t-18.5 -39zM676 29q-14 0 -96.5 -14.5t-173.5 -14.5q-147 0 -248 68q-111 82 -111 227t112 238t271 94h264q82 0 82 217h164q0 -160 -55 -262t-172 -101h-283q-92 0 -154.5 -50t-62.5 -129t60.5 -122t120.5 -43
t118 10q-47 47 -47 113t49 109t118.5 43t118 -44t48.5 -100t-27 -100q68 -16 104.5 -32.5t73.5 -47.5l-96 -104q-121 45 -178 45z" />
    <glyph glyph-name="afii59765;" unicode="&#xe55;" horiz-adv-x="946" 
d="M698 264q0 23 -17 40.5t-46 17.5t-47.5 -16.5t-18.5 -41.5q1 -55 65 -55t64 55zM547 672q0 25 -20.5 43t-51.5 18t-50 -17.5t-19 -44t19 -44t50 -17.5q72 1 72 62zM676 29q-14 0 -96.5 -14.5t-173.5 -14.5q-147 0 -248 68q-111 82 -111 231q0 106 73 186t185 113
q-23 35 -22 72q0 68 56 116t136 48t136.5 -46.5t56.5 -117.5q0 -20 -17 -43h45q47 0 63.5 59t16.5 158h164q0 -160 -55 -262t-172 -101h-267q-153 0 -193 -69.5t-40 -112.5q0 -76 60.5 -119t120.5 -43t118 10q-47 47 -47 113t49 109t118.5 43t118 -44t48.5 -100t-27 -100
q98 -16 178 -80l-96 -104q-121 45 -178 45z" />
    <glyph glyph-name="afii59766;" unicode="&#xe56;" horiz-adv-x="892" 
d="M328 231q0 55 -64 55t-65 -55q0 -20 17 -37.5t46 -17.5t47.5 16t18.5 39zM461 639q168 0 276.5 -90.5t108.5 -232.5t-117 -236q-121 -86 -281 -86t-262 72q-88 70 -88 165q0 63 48 105.5t118 42.5t119 -43t49 -102.5t-47 -100.5l55 -2q101 0 170.5 54t69.5 132
t-64.5 126.5t-170.5 48.5t-205 -76l-121 28q-23 100 -80 179q-43 68 -137 131l116 90q166 -108 220 -260q98 55 223 55z" />
    <glyph glyph-name="afii59767;" unicode="&#xe57;" horiz-adv-x="1271" 
d="M305 147q0 25 -17.5 41.5t-45.5 16.5q-59 0 -59.5 -57.5t61.5 -57.5t61 57zM1198 596v-379q0 -104 -107.5 -160.5t-299.5 -56.5v426q0 31 -28 48.5t-76 17.5t-75 -37v-455h-155v457q-35 35 -95 35t-93 -26t-33 -71v-94q72 0 119.5 -44t47.5 -109.5t-48 -107.5t-117.5 -42
t-117.5 42t-48 107v265q0 100 80.5 161.5t193.5 61.5q57 0 109.5 -20.5t79.5 -49.5q27 31 75 50.5t100 19.5q103 0 171.5 -57.5t68.5 -141.5v-295q29 0 55.5 20.5t26.5 55.5v385q0 155 148 242l139 -92q-55 -18 -88 -63.5t-33 -92.5z" />
    <glyph glyph-name="afii59768;" unicode="&#xe58;" horiz-adv-x="980" 
d="M823 258.5q0 22.5 -17.5 39.5t-43.5 17t-44 -16.5t-18 -36.5t13.5 -38.5t44.5 -18.5t48 15.5t17 38zM213 301q0 -51 28.5 -91t65.5 -56l142 127l190 -148l23 12q-66 41 -66 107t48 111t119 45t119 -44.5t48 -109.5q0 -100 -121 -184q-80 -57 -195 -82l-161 112l-123 -112
q-123 22 -203 106t-80 207q0 154 129 246q131 92 322 92q135 0 231 -18q50 97 66 223l159 -23q-29 -215 -153 -366q-158 43 -289 43t-215 -55.5t-84 -141.5z" />
    <glyph glyph-name="afii59769;" unicode="&#xe59;" horiz-adv-x="1067" 
d="M500 166q0 57 -64 57q-18 0 -41 -12q-23 -13 -23 -39t19 -42.5t45.5 -16.5t45 16.5t18.5 36.5zM639 563q71 84 185 84q64 0 87 -24q15 41 15 113t-8 98h167l5 -72q0 -221 -125 -342l-76 18q0 25 -22.5 41.5t-46.5 16.5t-45 -14.5t-27 -28.5q115 -160 155 -445l-168 -12
q-26 206 -88 334q-84 160 -237 159q-88 0 -142.5 -46t-54.5 -112q0 -104 57 -159q0 61 48 104t120 43t119 -44.5t47 -116.5t-64.5 -116t-156.5 -44q-145 0 -240 92q-96 102 -96 236q1 134 103 224q102 89 246 89t243 -76z" />
    <glyph glyph-name="afii59770;" unicode="&#xe5a;" horiz-adv-x="1060" 
d="M319 549q143 0 238 108v162h160v-819h-160v492q-37 -31 -100.5 -56.5t-137.5 -25.5q-137 0 -215.5 62.5t-78.5 150.5t75.5 147t167.5 59t164 -28v-146q-64 31 -125 31q-123 0 -123 -63q0 -35 41 -54.5t94 -19.5zM979 0h-160v819h160v-819z" />
    <glyph glyph-name="afii59771;" unicode="&#xe5b;" horiz-adv-x="1515" 
d="M453 452.5q0 57.5 -50 57.5q-45 0 -45 -57.5t45 -57.5q50 0 50 57.5zM985 559q47 0 94 -88q10 29 20.5 43t36.5 14t64 -57q18 33 51 27l158 -19q64 -6 64 -44t-64 -44l-147 -18q-8 -20 -23.5 -38t-37.5 -18t-50 60q-18 -84 -66 -84q-30 0 -46.5 37t-20.5 43
q-8 -45 -27 -74t-39 -29t-30.5 11.5t-18.5 29t-14 37t-12 35.5q-20 -76 -43 -106.5t-58 -30.5q-43 0 -55 61l-19 74q-35 -125 -106 -209q-115 -123 -244 -123t-210 99t-81 263q0 165 76 265q76 106 182 106t172 -76.5t66 -180.5q0 -105 -43 -164.5t-103 -59.5t-99.5 42.5
t-39.5 104.5t39 107t92 45l15 -2q-23 72 -86 72t-105.5 -75t-42.5 -189t48 -182t136 -68t157 99t93 267q8 55 22.5 74.5t45.5 19.5q66 0 102 -135l5 54q0 61 50 61t97 -98q6 31 14.5 46t30.5 15z" />
    <glyph glyph-name="endash" unicode="&#x2013;" horiz-adv-x="811" 
d="M745 272h-679v140h679v-140z" />
    <glyph glyph-name="emdash" unicode="&#x2014;" horiz-adv-x="1622" 
d="M1556 272h-1490v140h1490v-140z" />
    <glyph glyph-name="quoteleft" unicode="&#x2018;" horiz-adv-x="374" 
d="M272 584h-168v182q0 72 47.5 125t120.5 74v-78q-82 -27 -82 -121h82v-182z" />
    <glyph glyph-name="quoteright" unicode="&#x2019;" horiz-adv-x="374" 
d="M272 782q0 -80 -45 -134t-123 -64v78q82 11 82 120h-82v183h168v-183z" />
    <glyph glyph-name="quotedblleft" unicode="&#x201c;" horiz-adv-x="600" 
d="M250 584h-168v182q0 72 47 125t121 74v-78q-82 -27 -82 -121h82v-182zM518 584h-168v182q0 72 47 125t121 74v-78q-82 -27 -82 -121h82v-182z" />
    <glyph glyph-name="quotedblright" unicode="&#x201d;" horiz-adv-x="600" 
d="M250 782q0 -72 -47 -125t-121 -73v78q82 31 82 120h-82v183h168v-183zM518 782q0 -72 -47 -125t-121 -73v78q82 31 82 120h-82v183h168v-183z" />
    <glyph glyph-name="bullet" unicode="&#x2022;" horiz-adv-x="757" 
d="M686 410q0 -127 -90 -217.5t-217 -90.5t-217 90.5t-90 217.5t90 217t217 90t217 -90t90 -217z" />
    <glyph glyph-name="ellipsis" unicode="&#x2026;" horiz-adv-x="1351" 
d="M319 0h-188v182h188v-182zM770 0h-188v182h188v-182zM1219 0h-187v182h187v-182z" />
    <glyph glyph-name="f700;" unicode="&#xf700;" horiz-adv-x="813" 
d="M375 834q82 0 174 -35l69 92l148 -72l-94 -112q94 -107 94 -286t-121 -300t-334 -121h-61l-86 381h-82v143h221l82 -377q94 8 160 89q61 82 61 192t-69.5 182t-198.5 72t-240 -111l-98 99q155 164 375 164z" />
    <glyph glyph-name="f701;" unicode="&#xf701;" 
d="M-315 922h-615v118h615v-118z" />
    <glyph glyph-name="f702;" unicode="&#xf702;" 
d="M-315 922h-615v118h455v107h160v-225z" />
    <glyph glyph-name="f703;" unicode="&#xf703;" 
d="M-354 1038.5q0 18.5 -12.5 30.5t-31 12t-30.5 -12t-12 -30.5t12 -31t30.5 -12.5t31 12.5t12.5 31zM-272 1039q0 -50 -36 -83.5t-89 -33.5h-533v118h410q0 49 36 83t88 34t88 -34t36 -84z" />
    <glyph glyph-name="f704;" unicode="&#xf704;" 
d="M-315 922h-615v118h285v107h108v-107h62v107h160v-225z" />
    <glyph glyph-name="f705;" unicode="&#xf705;" 
d="M-336 922h-160v225h160v-225z" />
    <glyph glyph-name="f706;" unicode="&#xf706;" 
d="M10 922h-485v90q0 33 -31 32h-29v103h113q106 0 107 -88v-15h325v-122z" />
    <glyph glyph-name="f707;" unicode="&#xf707;" 
d="M8 922h-454v125q0 33 -31 32l-101 -71l-102 71q-41 0 -41 -35v-18h70v-104h-199v116q0 68 40 104t103 36h48l81 -56l78 56h45q61 0 100.5 -31t39.5 -96v-19h323v-110z" />
    <glyph glyph-name="f708;" unicode="&#xf708;" 
d="M-295 1008h-102v-86h-160v86h-102v104h102v86h160v-86h102v-104z" />
    <glyph glyph-name="f709;" unicode="&#xf709;" 
d="M-475 1120q0 129 149 129h133v-102h-65q-57 0 -57 -49v-25h-160v47z" />
    <glyph glyph-name="f70a;" unicode="&#xf70a;" 
d="M-74 922h-159v225h159v-225z" />
    <glyph glyph-name="f70b;" unicode="&#xf70b;" 
d="M51 922h-403v90q0 33 -31 32h-29v103h113q106 0 106 -88v-15h244v-122z" />
    <glyph glyph-name="f70c;" unicode="&#xf70c;" 
d="M-6 922h-266v125q0 33 -31 32l-100 -71l-103 71q-41 0 -41 -35v-18h70v-104h-199v116q0 68 40 104t104 36h47l82 -56l77 56h45q61 0 100.5 -31t39.5 -96v-19h135v-110z" />
    <glyph glyph-name="f70d;" unicode="&#xf70d;" 
d="M-74 1008h-102v-86h-160v86h-102v104h102v86h160v-86h102v-104z" />
    <glyph glyph-name="f70e;" unicode="&#xf70e;" 
d="M-309 969q0 129 149 129h133v-103h-65q-57 0 -58 -49v-24h-159v47z" />
    <glyph glyph-name="f70f;" unicode="&#xf70f;" horiz-adv-x="1361" 
d="M82 651q126 183 355 183t281 -109t52 -176v-283q0 -70 49 -105.5t127 -35.5t128 35t50 106v553h156v-555q0 -129 -94 -199.5t-241 -70.5t-241 69t-94 201v279q0 70 -54 111.5t-130 41.5q-117 0 -184 -86v-473h120v-137h-280v651z" />
    <glyph glyph-name="f710;" unicode="&#xf710;" 
d="M14 922h-637v204h160v-86h477v-118z" />
    <glyph glyph-name="f711;" unicode="&#xf711;" 
d="M-365 1034.5q0 18.5 -14.5 32.5t-34.5 14t-36.5 -14t-16.5 -32.5t15.5 -33t34.5 -14.5t35.5 14.5t16.5 33zM-283 1034q0 -53 -36.5 -88t-94.5 -35t-96.5 35t-38.5 88t37 88t94 35t96 -35t39 -88z" />
    <glyph glyph-name="f712;" unicode="&#xf712;" 
d="M-233 1122h-377q-45 0 -73 -23.5t-28 -56.5h74l109 60l104 -60h127v-120h-137l-94 55l-99 -55h-223v88q0 94 60.5 154.5t173.5 60.5h383v-103z" />
    <glyph glyph-name="f713;" unicode="&#xf713;" 
d="M-315 1208h-160v185h160v-185z" />
    <glyph glyph-name="f714;" unicode="&#xf714;" 
d="M-162 1208h-370v80q0 31 -27 31h-27v92h103q47 0 70.5 -22.5t23.5 -57.5v-12h227v-111z" />
    <glyph glyph-name="f715;" unicode="&#xf715;" 
d="M-18 1208h-240v113q0 29 -27 29l-90 -64l-92 64q-37 0 -37 -31v-16h62v-95h-179v107q0 59 37 92t92 33h43l74 -51l70 51h39q57 0 92 -28t35 -87v-16h121v-101z" />
    <glyph glyph-name="f716;" unicode="&#xf716;" 
d="M-231 1286h-93v-78h-143v78h-92v92h92v78h143v-78h93v-92z" />
    <glyph glyph-name="f717;" unicode="&#xf717;" 
d="M-260 1180h-59q-51 0 -52 -45v-23h-143v43q0 59 37 88t96 29h121v-92z" />
    <glyph glyph-name="f718;" unicode="&#xf718;" 
d="M-74 -616h-159v133h-82v123h241v-256z" />
    <glyph glyph-name="f719;" unicode="&#xf719;" 
d="M-284 -621q-102 0 -167 64v74h-61v123h195v-136q14 -8 34 -8q49 0 50 37v107h159v-123q0 -66 -54 -102t-156 -36z" />
    <glyph glyph-name="f71a;" unicode="&#xf71a;" 
d="M-74 -463q0 -41 -32.5 -71.5t-79.5 -30.5t-80 30.5t-33 71.5t33 72t80 31t79.5 -31t32.5 -72z" />
    <glyph glyph-name="DEL" unicode="&#xf71b;" 
d="M0 0h-473v1208h473v-1208z" />
    <glyph glyph-name="f71c;" unicode="&#xf71c;" horiz-adv-x="512" 
 />
    <glyph glyph-name="f71d;" unicode="&#xf71d;" horiz-adv-x="512" 
d="M471 -186h-35v67q-33 27 -86 27h-200q-39 0 -74 -23v-71h-35v186h430v-186z" />
    <glyph glyph-name=".null" 
 />
  </font>
</defs>
</svg>
