<?xml version="1.0" standalone="no"?>
<!DOCTYPE svg PUBLIC "-//W3C//DTD SVG 1.1//EN" "http://www.w3.org/Graphics/SVG/1.1/DTD/svg11.dtd" >
<svg xmlns="http://www.w3.org/2000/svg">
<metadata></metadata>
<defs>
<font id="db_gill_siam_xbold" horiz-adv-x="0" >
<font-face units-per-em="2048" ascent="1638" descent="-410" />
<missing-glyph horiz-adv-x="640" />
<glyph unicode="&#x2b;&#x2d;" horiz-adv-x="1225" d="M95 -3v249h1036v-249h-1036zM95 764v248h383v395h270v-395h383v-248h-383v-394h-270v394h-383z" />
<glyph unicode="&#x2e;&#x2e;&#x2e;" horiz-adv-x="2100" d="M172 154.5q0 37.5 14 69.5q13 29 39 55q24 24 56 38t69.5 14t69.5 -14t55 -38q26 -26 39 -55q14 -32 14 -69.5t-14 -69.5q-13 -30 -39 -56q-23 -23 -55 -37t-69.5 -14t-69.5 14t-56 37q-26 26 -39 56q-14 32 -14 69.5zM873 154.5q0 37.5 14 69.5t37.5 55.5t55.5 37.5 t69.5 14t69.5 -14t55.5 -37.5t37.5 -55.5t14 -69.5t-14 -69.5t-37.5 -55.5t-55.5 -37.5t-69.5 -14t-69.5 14t-55.5 37.5t-37.5 55.5t-14 69.5zM1573 154.5q0 37.5 14 69.5t38 55q22 23 57 38q32 14 69 14t69 -14q34 -15 56 -38q24 -23 38 -55t14 -69.5t-14 -69.5t-38 -56 q-22 -22 -56 -37q-32 -14 -69 -14t-69 14q-35 15 -57 37q-24 24 -38 56t-14 69.5z" />
<glyph unicode="&#x3c;&#x3d;" horiz-adv-x="1225" d="M95 -1v248h1036v-248h-1036zM111 778v219l1018 426v-283l-679 -248l-20 -5l20 -3l679 -249v-282z" />
<glyph unicode="&#x3e;&#x3d;" horiz-adv-x="1225" d="M95 -1v248h1036v-248h-1036zM97 353v282l679 249l22 3l-22 5l-679 248v283l1019 -426v-219z" />
<glyph unicode="&#xe4f;&#x22;" horiz-adv-x="1248" d="M36 550.5q0 79.5 21 152.5q19 66 60 137q37 64 91 116q55 53 120 91t139 58q70 20 157 20t157 -20q74 -20 139 -58t120 -91q57 -55 93 -116q38 -66 58 -137q22 -77 22 -152.5t-22 -152.5q-20 -71 -58 -137q-36 -61 -93 -116t-118 -91q-64 -37 -141 -58q-75 -21 -157 -21 q-81 0 -156 21q-76 21 -140 58q-65 38 -120 91q-54 52 -91 116q-41 71 -60 137q-21 73 -21 152.5zM231 556q0 -86 30 -160q32 -75 84 -129q53 -55 126 -88q73 -32 153.5 -32t152.5 32q73 33 127 88q52 54 83 129q30 74 30 160q0 59 -13 108q-15 54 -39 98q-23 41 -61 82 q-32 34 -81 64q-39 24 -95 40q-52 15 -104 15t-104 -15q-56 -16 -95 -40q-48 -30 -80 -64q-39 -41 -61 -82q-24 -44 -39 -98q-14 -49 -14 -108zM271 1396v255h271v-255l-37 -187h-196zM352 553q0 53 21 99q21 47 58 82t86 56q47 19 106 19t105 -19q49 -21 87 -56 q34 -33 57 -82q20 -46 20 -99q0 -54 -20 -100q-23 -49 -57 -82q-38 -35 -87 -55q-50 -21 -105.5 -21t-105.5 21q-49 20 -86 55t-58 82q-21 46 -21 100zM534 553.5q0 -15.5 8 -40.5q7 -20 18.5 -33.5t28.5 -22.5q17 -8 35 -8t35 8q18 9 29 23q14 15 20 33q6 21 6 40.5 t-6 40.5q-6 15 -20 32q-11 13 -29 22q-17 8 -35 8t-35 -8q-17 -9 -29 -22q-12 -15 -18 -32q-8 -25 -8 -40.5zM706 1396v255h273v-255l-38 -187h-196z" />
<glyph unicode="&#xe0e;&#xe3a;" horiz-adv-x="1437" d="M58 0v225h167v509q0 91 22 164q21 69 59 117q39 50 89 79q53 31 110 47q54 16 123 22q72 7 131 7t131 -7q71 -6 125 -22q56 -16 110 -47q49 -29 88 -79q38 -48 59 -117t21 -164v-1073h-421q-12 11 -37 30q-18 14 -44 25q-25 11 -54 17q-33 7 -67 7q-24 0 -53 -4 q-34 -5 -61 -14q-35 -12 -65 -31q-39 -23 -66 -52v189q20 14 46 27q36 18 64 28q26 9 75 20q40 8 77 8q43 0 84 -7q30 -5 73 -21q33 -12 62 -33q34 -24 59 -49v922q0 47 -10 93q-8 37 -24 67q-14 27 -34 43q-22 17 -44 25q-30 11 -47 12q-33 3 -47 3q-15 0 -46 -3 q-15 -1 -46 -12q-21 -8 -43 -25q-20 -16 -35 -43q-15 -30 -23 -67q-10 -46 -10 -93v-723h-498zM951 -632q0 36 14 68q15 34 37 57q21 20 57 37q30 14 68 14q37 0 68 -14q35 -15 57.5 -37.5t37.5 -56.5q14 -32 14 -68q0 -39 -14 -69q-17 -36 -38 -57q-22 -22 -57 -37 q-31 -14 -68 -14q-38 0 -68 14q-36 17 -56.5 37.5t-37.5 56.5q-14 30 -14 69z" />
<glyph unicode="&#xe0f;&#xe3a;" horiz-adv-x="1437" d="M58 0v225h167v509q0 91 22 164q21 69 59 117q39 50 89 79q53 31 110 47q54 16 123 22q72 7 131 7t131 -7q71 -6 125 -22q59 -17 111 -47q49 -29 89 -79q37 -48 58 -117t21 -164l-1 -1073h-423q-17 22 -28 32q-17 15 -39 23q-29 12 -40 14q-21 5 -40 5q-27 0 -49 -6 q-28 -7 -50 -18t-46 -35q-21 -21 -33 -54l-360 92v175l321 -86q14 21 37.5 42.5t50.5 34.5q27 14 60.5 22.5t71.5 8.5q77 0 138.5 -32t100.5 -90v934q0 47 -10 93q-8 40 -25 67q-17 28 -36 43q-22 17 -43 25q-31 11 -46 12q-31 3 -46 3q-14 0 -45 -3q-13 -1 -44 -12 q-22 -8 -43 -25q-19 -15 -36 -43q-17 -27 -25 -67q-10 -46 -10 -93v-723h-498zM951 -632q0 36 14 68q15 34 37 57q21 20 57 37q30 14 68 14q37 0 68 -14q35 -15 57.5 -37.5t37.5 -56.5q14 -32 14 -68q0 -39 -14 -69q-17 -36 -38 -57q-22 -22 -57 -37q-31 -14 -68 -14 q-38 0 -68 14q-36 17 -56.5 37.5t-37.5 56.5q-14 30 -14 69z" />
<glyph unicode="&#xe0e;&#xe38;" horiz-adv-x="1437" d="M58 0v225h167v509q0 91 22 164q21 69 59 117q39 50 89 79q53 31 110 47q54 16 123 22q72 7 131 7t131 -7q71 -6 125 -22q56 -16 110 -47q49 -29 88 -79q38 -48 59 -117t21 -164v-1073h-421q-12 11 -37 30q-18 14 -44 25q-25 11 -54 17q-33 7 -67 7q-24 0 -53 -4 q-34 -5 -61 -14q-35 -12 -65 -31q-35 -21 -66 -54v191q20 14 46 27q26 14 64 27q36 12 75 21q33 7 77 7q51 0 84 -6q30 -5 73 -21q33 -12 62 -33q34 -24 59 -49v920q0 49 -10 95q-8 37 -24 67q-14 27 -34 43q-22 17 -44 25q-30 11 -47 12q-33 3 -47 3q-15 0 -46 -3 q-15 -1 -46 -12q-21 -8 -43 -25q-20 -16 -35 -43q-15 -30 -23 -67q-10 -46 -10 -93v-723h-498zM867 -468h426v-377h-295v185h-131v192z" />
<glyph unicode="&#xe0f;&#xe38;" horiz-adv-x="1437" d="M58 0v225h167v509q0 91 22 164q21 69 59 117q39 50 89 79q53 31 110 47q54 16 123 22q58 6 131 6t131 -6q71 -6 125 -22q59 -17 111 -47q49 -29 89 -79q37 -48 58 -117t21 -164l-1 -1073h-423q-17 22 -28 32q-17 15 -39 23q-29 12 -40 14q-21 5 -40 5q-27 0 -49 -6 q-28 -7 -50 -18t-46 -35q-21 -21 -33 -54l-360 92v175l321 -86q14 21 37.5 42.5t50.5 34.5q27 14 60.5 22.5t71.5 8.5q77 0 138.5 -32t100.5 -90v934q0 47 -10 93q-8 40 -25 67q-17 28 -36 43q-22 17 -43 25q-31 11 -46 12q-31 3 -46 3q-14 0 -45 -3q-13 -1 -44 -12 q-22 -8 -43 -25q-19 -15 -36 -43q-17 -27 -25 -67q-10 -46 -10 -95v-721h-498zM867 -468h426v-377h-295v186h-131v191z" />
<glyph unicode="&#xe0e;&#xe39;" horiz-adv-x="1437" d="M58 0v225h167v509q0 91 22 164q21 69 59 117q39 50 89 79q53 31 110 47q54 16 123 22q72 7 131 7t131 -7q71 -6 125 -22q56 -16 110 -47q49 -29 88 -79q38 -48 59 -117t21 -164v-1073h-421q-12 11 -37 30q-18 14 -44 25q-25 11 -54 17q-33 7 -67 7q-24 0 -53 -4 q-34 -5 -61 -14q-35 -12 -65 -31q-35 -21 -66 -54v191q20 14 46 27q26 14 64 27q36 12 75 21q33 7 77 7q51 0 84 -6q30 -5 73 -21q33 -12 62 -33q34 -24 59 -49v920q0 49 -10 95q-8 37 -24 67q-14 27 -34 43q-22 17 -44 25q-30 11 -47 12q-33 3 -47 3q-15 0 -46 -3 q-15 -1 -46 -12q-21 -8 -43 -25q-20 -16 -35 -43q-15 -30 -23 -67q-10 -46 -10 -93v-723h-498zM502 -468h353v-131q0 -14 7 -25q6 -11 18 -17q17 -8 26.5 -11t27.5 -3t26.5 3t22.5 11q8 5 15 17q6 9 6 25v131h287v-145q0 -58 -22 -100q-23 -44 -65 -74q-40 -27 -102 -43 q-61 -15 -132 -15h-82q-53 0 -96 10q-49 11 -82 30q-38 23 -58 50q-22 31 -26 73v22h-124v192z" />
<glyph unicode="&#xe0f;&#xe39;" horiz-adv-x="1437" d="M58 0v225h167v509q0 91 22 164q21 69 59 117q39 50 89 79q53 31 110 47q54 16 123 22q58 6 131 6t131 -6q71 -6 125 -22q59 -17 111 -47q49 -29 89 -79q37 -48 58 -117t21 -164l-1 -1073h-423q-17 22 -28 32q-17 15 -39 23q-29 12 -40 14q-21 5 -40 5q-27 0 -49 -6 q-28 -7 -50 -18t-46 -35q-21 -21 -33 -54l-360 92v175l321 -86q14 21 37.5 42.5t50.5 34.5q27 14 60.5 22.5t71.5 8.5q77 0 138.5 -32t100.5 -90v934q0 47 -10 93q-8 40 -25 67q-17 28 -36 43q-22 17 -43 25q-31 11 -46 12q-31 3 -46 3q-14 0 -45 -3q-13 -1 -44 -12 q-22 -8 -43 -25q-19 -15 -36 -43q-17 -27 -25 -67q-10 -46 -10 -95v-721h-498zM502 -468h353l-2 -131q0 -11 9 -25q6 -11 18 -17q17 -8 26.5 -11t27.5 -3t26.5 3t22.5 11q8 5 15 17q6 9 6 25v131h287v-145q0 -58 -22 -100q-23 -44 -65 -74q-40 -27 -102 -43 q-61 -15 -132 -15h-82q-53 0 -96 10q-49 11 -82 30q-38 23 -58 50q-22 31 -26 73v22h-124v192z" />
<glyph unicode="&#xd;" horiz-adv-x="724" />
<glyph unicode=" "  horiz-adv-x="640" />
<glyph unicode="&#x09;" horiz-adv-x="640" />
<glyph unicode="&#xa0;" horiz-adv-x="640" />
<glyph unicode="!" horiz-adv-x="568" d="M108 158.5q0 37.5 14 69.5t38 56q26 26 55 38q32 14 70 14t69 -14q30 -12 56 -38t39 -56q14 -32 14 -69.5t-14 -69.5q-13 -30 -39 -56t-56 -39q-31 -13 -69 -13t-70 13q-29 13 -55 39q-24 24 -38 56t-14 69.5zM117 1238q0 110 41 162q42 51 128 51q85 0 125 -50 q42 -52 42 -163q0 -65 -5 -126q-10 -105 -14 -143q-2 -13 -21 -145q-2 -12 -22 -135q-10 -55 -21 -111q-3 -15 -8 -41t-8 -35q-6 -27 -12 -41q-7 -17 -14 -23q-8 -8 -17 -10q-14 -3 -25 -3q-14 0 -27 3q-9 2 -20 13q-6 6 -14 26q-5 15 -12 47q-8 27 -16 71q-16 92 -19 109 q-1 5 -9.5 54.5t-12.5 77.5q-14 94 -20 143q-4 38 -14 143q-5 61 -5 126z" />
<glyph unicode="&#x22;" horiz-adv-x="1006" d="M125 1250v254h270v-254l-47 -283h-176zM612 1250v254h269v-254l-47 -283h-177z" />
<glyph unicode="#" horiz-adv-x="1282" d="M22 320v228h192l57 275h-249v231h298l80 378h231l-81 -378h338l79 378h227l-79 -378h147v-231h-194l-56 -275h250v-228h-300l-81 -381h-226l76 381h-333l-78 -381h-234l81 381h-145zM445 548h336l56 275h-335z" />
<glyph unicode="$" horiz-adv-x="1138" d="M95 1002q0 72 27 138q26 62 78 114q49 49 121 80q71 32 156 42v131h176v-131q78 -4 159 -30q87 -29 169 -77v-260q-53 38 -82 56q-32 20 -78 39q-44 18 -80 27q-37 10 -88 19v-341q98 -31 175 -78q74 -45 126 -103q49 -55 75 -119q25 -63 25 -127q0 -78 -27 -143 q-27 -68 -78 -118q-52 -53 -126 -88q-78 -37 -170 -52v-203h-176v203q-35 3 -89 19q-45 13 -100 36q-84 35 -99 43q-57 32 -81 47v248q94 -74 189 -118q97 -45 180 -59v403q-108 26 -178 66q-76 43 -120 93q-43 49 -65 115q-19 59 -19 128zM335 1015q0 -49 36 -85 q34 -34 106 -57v277q-68 -17 -104 -52q-38 -35 -38 -83zM653 202q42 9 67 23q32 19 51 38q18 17 32 48q12 24 12 56q0 60 -42 106t-120 73v-344z" />
<glyph unicode="%" horiz-adv-x="1509" d="M51 1112q0 72 27 133q26 62 72 107q45 45 109 73q60 26 131.5 26t132.5 -26q63 -28 108 -73q46 -45 72 -107q27 -61 27 -133q0 -70 -27 -131q-27 -63 -72 -108t-108 -72q-65 -28 -132.5 -28t-131.5 28q-64 27 -109 72t-72 108q-27 61 -27 131zM157 -17l1008 1468h183 l-1003 -1468h-188zM243 1112q0 -33 11 -57q12 -26 32 -46q19 -19 48 -32q27 -12 56.5 -12t57.5 12q28 13 47 32q20 20 32 46q11 24 11 57q0 34 -11 58q-13 29 -32 48q-16 16 -47 30q-25 11 -57.5 11t-56.5 -11q-31 -14 -48 -30q-19 -19 -32 -48q-11 -24 -11 -58zM781 322 q0 70 27 131q26 61 73 109q46 45 107 72q64 28 132 28t132 -28q62 -27 107 -72q48 -48 74 -109q27 -61 27 -131q0 -72 -27 -133q-25 -59 -74 -107q-45 -46 -107 -72q-61 -27 -132 -27t-132 27q-61 26 -107 72q-48 48 -73 107q-27 61 -27 133zM973 322q0 -34 11 -58 q13 -28 32 -47q16 -16 47 -31q24 -11 57 -11t57 11q31 15 48 31q18 19 32 47q11 24 11 58q0 33 -11 57q-12 26 -32 46q-19 19 -48 32q-27 13 -57 13t-57 -13q-28 -13 -47 -32q-20 -20 -32 -46q-11 -24 -11 -57z" />
<glyph unicode="&#x26;" horiz-adv-x="1574" d="M82 359q0 125 85 226q85 102 253 188q-35 48 -57 82q-25 37 -45 76q-18 37 -29 78q-10 37 -10 84q0 77 32 145q32 67 89 114q60 50 138 74q79 25 174 25q91 0 166 -25q81 -27 131 -69q57 -48 85 -109q29 -62 29 -136q0 -106 -71 -200q-69 -92 -204 -171l214 -235 q30 28 49 50q27 33 39 50q22 33 33 56q13 26 29 65h309q-19 -49 -56 -118q-29 -55 -67 -110q-39 -57 -78 -100q-48 -54 -83 -85l289 -314h-418l-107 122q-113 -71 -225 -105q-119 -36 -241 -36q-97 0 -181 29q-82 28 -143 78.5t-94 119.5q-35 72 -35 151zM403 379 q-4 -36 13 -72q12 -25 33 -42q24 -19 44 -27q29 -12 52 -16q27 -4 53 -4q23 0 55 7q27 6 61 20q48 19 64 27q30 16 57 35l-254 281q-54 -34 -88 -65q-42 -41 -62 -71q-24 -37 -28 -73zM575 1104q0 -18 12 -45q6 -15 27 -50q15 -23 39 -53q21 -25 41 -44q77 46 117.5 97 t40.5 103q0 19 -8 40q-7 17 -27 36q-15 16 -41 27q-20 8 -62 8q-64 0 -101 -30q-38 -32 -38 -89z" />
<glyph unicode="'" horiz-adv-x="503" d="M118 1250v254h270v-254l-46 -283h-178z" />
<glyph unicode="(" horiz-adv-x="808" d="M95 656q0 115 16 228q15 99 50 217q28 91 77 199q42 92 98 179q58 89 116 154q66 75 128 125h216q-108 -121 -177 -246q-72 -129 -116 -265q-44 -138 -62 -285q-18 -143 -18 -306q0 -161 18 -306q19 -156 61 -289q41 -130 117 -271q68 -127 177 -251h-216 q-67 52 -132 126q-61 69 -117 157q-57 89 -99 184q-41 91 -74 202q-30 103 -47 219q-16 112 -16 229z" />
<glyph unicode=")" horiz-adv-x="808" d="M13 -461q109 124 177 251q73 135 116 271q44 140 62 289q18 145 18 306q0 163 -18 306q-18 147 -62 285q-44 136 -116 265q-69 125 -177 246h216q62 -50 128 -125q58 -65 116 -154q56 -87 98 -179q49 -108 77 -199q35 -118 50 -217q16 -113 16 -228q0 -117 -16 -229 q-17 -116 -47.5 -218.5t-75.5 -202.5q-45 -102 -97 -184q-56 -88 -117 -157q-65 -74 -132 -126h-216z" />
<glyph unicode="*" horiz-adv-x="984" d="M57 1140q1 11 11 30l43 89q7 16 20 31q10 12 25 17q12 3 32 -6q15 -7 43 -35l204 -210q14 14 29 20l-93 297q-13 41 4 60q16 18 63 18h107q47 0 64 -17t4 -61l-92 -297q20 -8 29 -18l203 208q25 25 39 32q18 9 29 7q13 -2 24 -15q14 -16 24 -35l39 -69q25 -46 21 -73 q-5 -27 -42 -37l-314 -71v-1v-5l314 -68q19 -4 28 -15t11 -26t-3 -34q-3 -13 -15 -35l-38 -63q-19 -32 -22 -37q-9 -13 -22 -19q-12 -6 -25 -1q-13 4 -31 22l-220 226q-13 -13 -29 -19l93 -298q12 -40 -5 -59q-16 -18 -56 -18h-115q-25 0 -35 2q-17 5 -25 13q-9 9 -11 24 t4 38l93 299h-1q-11 4 -27 20l-205 -212q-23 -22 -36 -29q-18 -9 -31 -7q-15 2 -25 13q-12 12 -22 30l-45 81q-9 17 -14 35q-4 16 0 30q5 18 13 25q9 10 28 14l315 68v5v1l-315 71q-13 3 -27 14q-7 6 -12 21q-5 14 -3 29z" />
<glyph unicode="+" horiz-adv-x="1225" d="M95 594v248h383v392h270v-392h383v-248h-383v-395h-270v395h-383z" />
<glyph unicode="," horiz-adv-x="568" d="M92 133q0 34 14 69q12 31 36 52q25 24 54 35q28 11 68 11q49 0 86 -16q38 -17 67 -50q27 -32 42 -76q16 -50 16 -97q0 -80 -29 -151q-30 -73 -79 -128q-52 -59 -117 -93q-65 -35 -144 -43v94q39 17 66 46q26 28 39 62q12 32 10 69q-2 34 -21 64q-58 22 -82 58 q-26 40 -26 94z" />
<glyph unicode="-" horiz-adv-x="810" d="M75 588v259h660v-259h-660z" />
<glyph unicode="." horiz-adv-x="568" d="M107 154.5q0 37.5 14 69.5t37 55t57 38q32 14 69 14t69 -14q35 -15 57 -38q24 -23 38 -55q13 -32 13 -69.5t-13 -69.5q-14 -32 -38 -56q-22 -22 -57 -37q-32 -14 -69 -14t-69 14q-34 15 -57 37q-23 24 -37 56t-14 69.5z" />
<glyph unicode="/" horiz-adv-x="590" d="M0 -19l354 1470h217l-360 -1470h-211z" />
<glyph unicode="0" horiz-adv-x="1188" d="M60 692q0 128 19 221q22 103 56 180q33 74 86 136t110 97q66 41 128 58q69 20 139 20q119 0 219 -52q97 -49 167 -143q72 -95 109 -222q37 -129 37 -289q0 -161 -34.5 -289.5t-103.5 -226.5q-62 -89 -166 -147q-98 -54 -224 -54q-124 0 -224 50q-98 49 -171 143t-110 224 q-37 131 -37 294zM379 678q0 -117 16 -192q17 -85 44 -133q30 -52 70 -78q39 -25 90 -25q53 0 92 31t67 92q25 57 38 148q14 98 14 200q0 104 -15 185q-15 80 -43 128q-30 51 -68 75q-40 25 -88 25q-54 0 -97 -32q-40 -30 -68 -90q-26 -55 -39 -145q-13 -83 -13 -189z" />
<glyph unicode="1" horiz-adv-x="1188" d="M436 0v1382h317v-1382h-317z" />
<glyph unicode="2" horiz-adv-x="1188" d="M103 0v40q11 14 112 131q27 30 109 122q5 6 101 118q52 61 93 120q32 44 88 125q35 50 61 99q25 45 35 87q11 47 11 96q0 52 -15 93q-14 39 -42 64q-27 25 -65 38q-38 12 -84 12q-39 0 -87 -12q-44 -12 -100 -36q-58 -25 -103 -56q-53 -35 -95 -75v300q63 40 114.5 64 t109.5 42q46 14 110 24q56 8 114 8q96 0 186 -27q77 -22 146 -77q63 -51 96 -127q33 -77 33 -178q0 -82 -26 -155q-27 -76 -79 -159q-40 -63 -131 -176q-45 -57 -179 -213h490v-292h-1003z" />
<glyph unicode="3" horiz-adv-x="1188" d="M160 63v278q48 -33 85 -52q45 -24 80 -36q37 -13 84 -19q48 -7 91 -7q45 0 92 11q43 10 78 32q29 18 53 54q19 29 19 74q0 61 -19 100q-20 39 -54 59t-88 27q-43 5 -117 3v253q56 -4 106 2q46 7 79 25q35 20 51.5 53.5t16.5 81.5q0 34 -11 59q-14 30 -37 48 q-30 23 -71 35q-44 12 -109 12q-40 0 -78 -4q-36 -4 -72 -12q-23 -6 -71 -22q-38 -14 -72 -31v252q39 16 82 27q46 13 96 21q33 6 100 11q50 5 95 5q121 0 207 -27q91 -28 147 -72q57 -45 86 -107q28 -60 28 -132q0 -49 -14 -107q-13 -53 -42 -95q-31 -44 -69 -75 q-39 -31 -102 -51q67 -15 117 -46q52 -33 84 -74q33 -44 50 -97q16 -54 16 -117q0 -101 -36 -182q-35 -78 -105.5 -132t-171.5 -81q-104 -27 -233 -27q-50 0 -95 5q-50 6 -100 17q-33 7 -94 26q-48 15 -82 34z" />
<glyph unicode="4" horiz-adv-x="1207" d="M86 339v230l730 827h201v-827h117v-230h-117v-339h-316v339h-615zM359 569h342v376z" />
<glyph unicode="5" horiz-adv-x="1188" d="M147 58v262q82 -46 171 -70q91 -23 174 -23q45 0 82 11q46 13 77 34q35 25 55 59q22 38 22 80q0 65 -27 109q-29 44 -89 69q-61 25 -157 25q-101 0 -233 -26v794h793v-287h-508v-244q156 10 256 -16q106 -27 172 -83q69 -58 98 -136q29 -79 29 -174q0 -115 -42 -200 q-40 -84 -115 -143q-73 -58 -170 -88q-100 -30 -207 -30q-51 0 -114 6q-72 8 -107 16q-46 9 -90 25q-46 16 -70 30z" />
<glyph unicode="6" horiz-adv-x="1188" d="M92 448q0 69 16 136q15 59 48 133q23 54 72 139q5 10 93 156l227 370h353l-317 -515q51 8 118 3q65 -4 118 -22q60 -20 107 -52q52 -34 89 -82q40 -51 60 -114q21 -66 21 -150q0 -107 -38 -194q-36 -85 -105 -148q-68 -61 -159 -94q-92 -33 -200 -33q-111 0 -203 33 q-90 33 -158 94q-66 60 -105 148q-37 85 -37 192zM411 436q0 -44 14 -76q15 -35 41 -60q25 -25 59 -37q36 -13 75.5 -13t75.5 13q34 12 59 37q26 26 41 61q15 38 15 81q0 42 -15 79q-16 38 -39 61q-27 27 -61 39q-40 14 -77 14q-34 0 -71 -14q-33 -12 -60 -39 q-28 -28 -41 -62q-16 -39 -16 -84z" />
<glyph unicode="7" horiz-adv-x="1188" d="M108 1098v284h1004v-16l-559 -1366h-321l462 1098h-586z" />
<glyph unicode="8" horiz-adv-x="1188" d="M86 404q0 64 18 114t52 92q34 43 80 72q49 31 100 49q-105 37 -158 114q-53 76 -53 179q0 94 33 164q34 72 95 119q62 47 149 72t193 25q104 0 192 -25q84 -24 147 -72q65 -50 97 -119q34 -70 34 -162q0 -105 -53 -181q-53 -77 -159 -114q52 -18 101 -49q45 -29 79 -70 q32 -41 51 -94q20 -54 20 -114q0 -95 -36 -173q-35 -76 -103 -134q-64 -53 -162 -86q-91 -30 -211 -30q-118 0 -210 30q-95 32 -160 86q-65 56 -101 134q-35 75 -35 173zM404 410q0 -101 50.5 -159.5t141.5 -58.5q49 0 82 14q38 15 61 43q26 30 38 69q13 42 13 92 q0 53 -16 88q-18 40 -41 64q-28 27 -63 41q-34 14 -72 14q-35 0 -74 -14q-32 -11 -61 -40q-25 -25 -43 -65q-16 -35 -16 -88zM431 1009q0 -45 12.5 -80.5t34.5 -59.5q21 -22 53 -36q29 -13 67 -13q34 0 65 12.5t53 36.5t34.5 59.5t12.5 80.5q0 48 -14 79q-15 35 -37 57 q-24 24 -53 37q-26 11 -61 11q-37 0 -63 -11q-29 -13 -53 -37q-22 -22 -37 -57q-14 -31 -14 -79z" />
<glyph unicode="9" horiz-adv-x="1188" d="M92 931q0 104 39 195q38 89 104 149q64 58 160 93q91 33 200 33q111 0 203 -33q90 -33 158 -95q64 -57 103 -147q38 -86 38 -192q0 -69 -17 -136q-15 -59 -47 -134q-24 -53 -73 -139q-5 -9 -93 -155l-225 -370h-354l317 514q-52 -7 -119 -2q-57 4 -116 23q-63 21 -109 52 q-51 34 -87 80q-40 51 -60 116q-22 71 -22 148zM398 941q0 -43 15 -81q14 -35 40 -61q28 -27 60 -39q35 -12 76 -12q39 0 73 12q31 12 59 41q27 27 41 61q16 43 16 83.5t-15 77.5q-13 31 -40.5 58.5t-59.5 38.5q-35 13 -75 13q-38 0 -74 -13q-34 -12 -61 -39 q-26 -25 -40 -61q-15 -37 -15 -79z" />
<glyph unicode=":" horiz-adv-x="568" d="M107 154.5q0 37.5 14 69.5t37 55t57 38q32 14 69 14t69 -14q35 -15 57 -38q24 -23 38 -55q13 -32 13 -69.5t-13 -69.5q-14 -32 -38 -56q-22 -22 -57 -37q-32 -14 -69 -14t-69 14q-34 15 -57 37q-23 24 -37 56t-14 69.5zM107 862q0 36 14 68q15 35 37.5 57t56.5 37 q32 14 69 14t69 -14q35 -15 57 -37t38 -57q13 -32 13 -68q0 -38 -13 -70q-16 -34 -38 -56.5t-57 -37.5q-32 -14 -69 -14t-69 14q-34 15 -56.5 37.5t-37.5 56.5q-14 32 -14 70z" />
<glyph unicode=";" horiz-adv-x="568" d="M92 133q0 34 14 69q12 31 36 52q25 24 54 35q28 11 68 11q49 0 86 -16q38 -17 67 -50q27 -32 42 -76q16 -50 16 -97q0 -80 -29 -151q-30 -73 -79 -128q-52 -59 -117 -93q-65 -35 -144 -43v94q39 17 66 46q26 28 39 62q12 32 10 69q-2 34 -21 64q-58 22 -82 58 q-26 40 -26 94zM107 862q0 36 14 68q15 35 37.5 57t56.5 37q32 14 69 14t69 -14q35 -15 57 -37t38 -57q13 -32 13 -68q0 -38 -13 -70q-16 -34 -38 -56.5t-57 -37.5q-32 -14 -69 -14t-69 14q-34 15 -56.5 37.5t-37.5 56.5q-14 32 -14 70z" />
<glyph unicode="&#x3c;" horiz-adv-x="1225" d="M106 599v252l1016 447v-287l-720 -285l720 -287v-287z" />
<glyph unicode="=" horiz-adv-x="1225" d="M103 373v255h1017v-255h-1017zM103 817v253h1017v-253h-1017z" />
<glyph unicode="&#x3e;" horiz-adv-x="1225" d="M106 152v287l720 287l-720 285v287l1016 -447v-252z" />
<glyph unicode="?" horiz-adv-x="788" d="M60 1151l51 258q20 7 67 20q42 11 64 14q44 5 69 6.5t81 1.5q65 0 125 -19q58 -19 100 -59q43 -41 65 -97q23 -58 21 -138q-2 -56 -16 -102q-13 -41 -38 -81q-23 -38 -51 -68q-8 -9 -18.5 -20t-20.5 -22.5t-18 -20.5q-48 -51 -57 -62q-28 -35 -49 -74q-17 -32 -24 -51 q-8 -25 -12 -50q-6 -34 -7 -50v-55v-25q0 -12 -4 -18q-6 -8 -11.5 -11t-19.5 -3q-3 0 -13.5 -0.5t-16.5 -0.5q-23 0 -35.5 4t-19.5 11q-9 10 -16 31q-9 25 -17 58q-11 43 -14 74q-4 44 -3 79q2 45 17 95q12 39 32 75q20 35 40 64q25 34 39 61q17 31 29 66q10 28 10 83 q0 50 -25 79q-24 28 -69 28q-54 0 -106 -19q-55 -19 -111 -62h-18zM165 158.5q0 37.5 14 69.5t38 56q22 22 57 37q32 14 68 14q38 0 69 -14q35 -15 57 -37q24 -24 38 -56t14 -69.5t-14 -69.5t-38 -56q-24 -25 -57 -39q-31 -13 -69 -13q-36 0 -68 13q-32 14 -57 39 q-24 24 -38 56t-14 69.5z" />
<glyph unicode="@" horiz-adv-x="2055" d="M145 713q0 132 36 257q35 124 97 227q63 104 150.5 187.5t191.5 141.5q106 60 224 91q121 32 246 32q120 0 226 -21q109 -22 198 -63q87 -41 162 -103q71 -58 123 -140q51 -81 77 -178q27 -96 27 -215q0 -91 -24 -181q-23 -89 -64 -164q-39 -74 -100 -141 q-62 -68 -128 -111q-71 -46 -150 -71t-165 -25q-38 0 -60 6q-25 6 -39 17q-16 12 -26 30t-18 45q-30 -28 -59 -46q-26 -17 -58 -31q-30 -12 -60 -17q-31 -4 -64 -4q-82 0 -144 38q-62 37 -102 100q-43 68 -58 143q-17 84 -11 167q6 82 25 157q18 71 48 142q28 63 71 119 t91 93q51 41 108 62q62 22 125 22q61 0 117 -24q55 -23 94 -71q5 21 9 38q1 5 3 16.5t4 16.5h214l-159 -757q-5 -26 -5 -48q0 -20 9 -27q11 -9 30 -7q30 3 55 12q49 16 100 57q54 43 91 100q42 67 65 146q25 86 25 195q0 64 -12 126q-12 58 -44 121q-29 59 -75 109 q-41 45 -114 86q-66 37 -157 58q-89 21 -204 21q-97 0 -186 -25q-87 -24 -170 -72q-86 -50 -147 -112q-73 -72 -117 -147q-48 -82 -75 -176q-28 -99 -28 -201q0 -125 31 -221t83 -172q50 -71 122 -126q71 -54 146 -87q74 -32 158 -47q82 -15 152 -15q111 0 194 15 q90 17 165 47q80 33 146 78q67 46 129 109h264q-32 -57 -83 -114q-49 -55 -114 -107q-58 -47 -140 -93q-79 -45 -164 -76q-99 -35 -187 -50q-98 -16 -204 -16q-85 0 -156 11q-88 14 -158 36q-83 26 -153 61q-73 36 -142 91q-67 52 -124 119q-52 63 -97 152q-40 79 -64 184 q-23 104 -23 220zM784 641q-2 -26 6 -67q7 -42 19 -68q13 -27 42 -51q25 -21 65 -21q50 0 88 25q39 26 66 61q23 28 48 86q20 46 33 97q12 46 21 91q7 36 10 71q2 13 2 20v19q0 36 -9 75q-8 29 -27 55q-16 22 -42 35q-25 12 -55 12q-44 0 -81 -19q-33 -18 -64 -53 q-33 -38 -51 -76q-27 -56 -38 -93q-13 -45 -22 -100.5t-11 -98.5z" />
<glyph unicode="A" horiz-adv-x="1640" d="M14 0l609 1432h397l606 -1432h-361l-120 299h-650l-118 -299h-363zM595 548h452l-219 542h-13z" />
<glyph unicode="B" horiz-adv-x="1466" d="M167 0v1432h636q117 0 201 -25q81 -25 136 -71q56 -48 80 -104q25 -59 25 -126q0 -45 -13 -95q-15 -52 -37 -85q-24 -37 -61 -67q-40 -34 -79 -50h1q81 -21 145 -67q58 -41 92 -94.5t48 -110.5q14 -56 14 -117q0 -31 -8 -75q-9 -45 -29 -91q-24 -51 -56 -93 q-35 -45 -89 -80q-56 -37 -126 -59q-73 -22 -174 -22h-706zM503 249h241q76 0 126 16q49 17 78 44q28 26 39 62q10 33 10 75q0 41 -17 74q-15 30 -49 57q-31 25 -73 37q-47 14 -92 14h-263v-379zM503 877h221q52 0 88 17t57 41q25 31 32 53q8 29 8 51.5t-8 47.5 q-10 29 -28 47q-21 21 -53 35q-35 15 -82 15h-235v-307z" />
<glyph unicode="C" horiz-adv-x="1556" d="M107 712q0 155 51 289q53 136 155 236q100 98 256 157q150 57 357 57q147 0 268 -29q120 -29 214 -79v-302q-58 33 -110 54q-60 26 -108 41q-45 13 -114 23q-59 9 -125 9q-119 0 -209 -31q-94 -32 -158 -90q-63 -57 -99 -142q-35 -82 -35 -186q0 -107 34 -191 q33 -82 98 -142q68 -60 155 -90q89 -31 205 -31q82 0 134 7q65 9 119 23q48 12 114 39q49 19 116 55v-282q-76 -39 -135 -63q-51 -20 -122 -37q-61 -15 -126 -21q-57 -5 -144 -5q-138 0 -250.5 29t-199.5 79q-82 47 -152 121q-66 70 -107 150q-39 76 -61 171q-21 90 -21 181 z" />
<glyph unicode="D" horiz-adv-x="1673" d="M167 0v1432h623q129 0 237 -25q98 -23 193 -74q89 -47 152 -113q66 -68 108 -144q45 -81 66 -172q21 -92 21 -190q0 -151 -49 -284q-48 -132 -147 -227q-98 -94 -255 -149q-154 -54 -365 -54h-584zM505 249h243q90 0 161 21q70 20 122 54q53 33 88 79q36 47 57 99 q23 57 31 107q8 54 8 108q0 58 -11 120q-10 57 -34 110q-22 50 -61 95q-37 43 -90 76q-54 32 -121 48q-75 18 -154 18h-239v-935z" />
<glyph unicode="E" horiz-adv-x="1341" d="M167 0v1432h1017v-248h-679v-319h628v-251h-628v-365h696v-249h-1034z" />
<glyph unicode="F" horiz-adv-x="1238" d="M167 0v1432h973v-248h-635v-319h586v-251h-586v-614h-338z" />
<glyph unicode="G" horiz-adv-x="1680" d="M107 714q0 168 60 306q58 135 168 232q107 95 263 148q152 51 343 51q93 0 156 -7q97 -11 146 -21q87 -18 133 -33q55 -18 115 -47v-302q-71 33 -133 53q-76 24 -135 35q-75 14 -130 19q-58 6 -123 6q-98 0 -175 -17q-74 -16 -135 -49q-55 -29 -97 -73q-40 -42 -65 -93 q-27 -53 -37 -106q-11 -60 -11 -114q0 -97 35 -179q32 -76 97 -132q60 -52 155 -82q91 -30 204 -30q11 0 32 1t31 1q29 0 58 4q36 5 57 11q39 11 58 20h5v196h-190v255h529v-609q-31 -28 -64 -48t-84 -43q-27 -13 -100 -35q-40 -12 -110 -28q-37 -8 -115 -17q-65 -6 -115 -6 q-124 0 -232 25q-117 26 -202 69q-95 48 -165 110q-72 63 -123 146t-78 178q-26 93 -26 205z" />
<glyph unicode="H" horiz-adv-x="1720" d="M167 0v1432h336v-576h715v576h336v-1432h-336v607h-715v-607h-336z" />
<glyph unicode="I" horiz-adv-x="697" d="M181 0v1432h336v-1432h-336z" />
<glyph unicode="J" horiz-adv-x="715" d="M-58 -152q8 -1 22 -1q3 0 10.5 -0.5t11.5 -0.5q58 0 102 19q38 17 65 56q26 36 36 89q10 48 10 116v1306h338v-1299q0 -59 -7 -126q-6 -54 -24 -113q-17 -56 -43 -100q-31 -52 -65 -85q-29 -30 -66 -54q-33 -21 -79 -39q-38 -14 -97 -23q-55 -9 -118 -9q-9 0 -24.5 1 t-21.5 1q-11 0 -50 3v259z" />
<glyph unicode="K" horiz-adv-x="1530" d="M167 0v1432h336v-681l470 681h400l-506 -654l652 -778h-435l-581 749v-749h-336z" />
<glyph unicode="L" horiz-adv-x="1276" d="M167 0v1432h336v-1183h720v-249h-1056z" />
<glyph unicode="M" horiz-adv-x="1845" d="M167 0v1432h297l453 -523h12l454 523h296v-1432h-336v941h-16l-382 -441h-43l-385 441h-14v-941h-336z" />
<glyph unicode="N" horiz-adv-x="1752" d="M167 0v1432h314l753 -890h16v890h336v-1432h-285l-781 931h-15v-931h-338z" />
<glyph unicode="O" horiz-adv-x="1795" d="M100 717q0 90 22 177q23 89 67 171q46 84 110 153q66 70 156 122q91 53 200 82q110 29 244 29t245 -29q108 -29 200 -83q86 -52 154 -124q66 -70 110 -152q47 -86 67 -171q21 -87 21 -175q0 -96 -22 -185q-21 -83 -71 -172q-46 -81 -114 -152q-67 -68 -156 -119 q-86 -49 -197 -79q-109 -29 -237 -29t-239 29q-112 29 -199 79q-92 53 -156.5 119.5t-112.5 151.5q-45 80 -68 172q-24 95 -24 185zM443 716q0 -102 33.5 -183.5t93.5 -139.5q59 -56 144 -89q86 -32 185.5 -32t184.5 32q84 32 143 89q58 56 92 139q33 82 33 184t-33 183 q-35 86 -92 141q-59 57 -143 89q-85 32 -184.5 32t-185.5 -32q-85 -32 -144 -89t-93 -141q-34 -81 -34 -183z" />
<glyph unicode="P" horiz-adv-x="1352" d="M167 0v1432h631q80 0 144 -17q62 -16 116 -47q51 -30 86 -71q41 -48 60 -88q26 -54 34 -98q12 -56 12 -102q0 -50 -12 -105q-10 -55 -33 -102q-22 -46 -60 -90q-34 -41 -86 -71q-59 -35 -114 -49q-64 -17 -146 -17h-292v-575h-340zM503 824h192q67 0 106 16q41 16 66 41 t35 57q10 31 10 67q0 40 -8 74q-9 32 -38 57q-26 21 -78 34q-55 14 -133 14h-152v-360z" />
<glyph unicode="Q" horiz-adv-x="1825" d="M100 716q0 91 22 178q23 89 67 170.5t110 151.5q69 74 156 124q91 53 200 82q110 29 244 29t245 -29q108 -29 200 -83q86 -52 154 -124q66 -70 110 -152q47 -86 67 -171q21 -87 21 -176q0 -113 -34 -221q-34 -111 -100 -202q-69 -95 -164 -164q-100 -73 -223 -110h-2 q39 -25 92 -47q54 -22 103 -36q47 -13 105 -22q55 -9 105 -9q36 0 68 5q41 5 58 11l21 -28l-263 -222q-96 6 -193 34q-98 29 -196 73q-89 39 -192 101q-97 58 -178 121h-2q-89 17 -181 58q-78 35 -149 91q-67 52 -118 118q-50 65 -83 137q-36 79 -52 153q-18 86 -18 159z M443 717q0 -102 34 -183q34 -84 93 -140.5t144 -89.5q86 -32 185.5 -32t184.5 32q81 31 142 89q59 57 93 141q33 81 33 183q0 101 -33 182q-34 84 -93 141q-61 58 -142 89q-85 32 -184.5 32t-185.5 -32q-85 -32 -144 -89t-93 -141q-34 -81 -34 -182z" />
<glyph unicode="R" horiz-adv-x="1409" d="M167 0v1432h634q108 0 191 -29q80 -28 142 -84q60 -54 89 -124t29 -153q0 -70 -11 -122q-13 -61 -40 -105q-32 -53 -74 -85q-48 -38 -115 -60h-1q43 -26 73 -58q37 -40 60 -78q34 -58 56 -106q6 -15 17.5 -39.5t23 -49.5t21.5 -47q9 -19 28 -64t30 -70q55 -118 74 -158 h-378q-32 64 -57 122q-9 21 -24.5 59.5t-22.5 54.5q-37 89 -60 138q-31 66 -62 110q-34 46 -74 72q-41 26 -96 26h-117v-582h-336zM503 831h182q50 0 89 10q38 9 74 33q31 21 50 55q18 32 18 79q0 36 -14 73q-12 33 -42 56q-27 22 -75 35q-46 12 -107 12l-166 -1h-9v-352z " />
<glyph unicode="S" horiz-adv-x="1260" d="M99 1040q0 94 37.5 169t108.5 130q71 54 169 83q100 29 223 29q60 0 116 -4q46 -3 114 -18t120 -31q63 -19 126 -47v-271q-90 40 -136 57q-70 26 -114 38q-65 17 -101 22q-43 5 -95 5q-51 0 -90 -9q-42 -11 -71 -30q-34 -21 -47 -41q-17 -25 -17 -50q0 -29 22 -56 q21 -25 59 -47q39 -23 83 -40q9 -4 43 -18t54 -21.5t58.5 -22.5t48.5 -19q57 -22 107 -50q58 -33 99 -64q46 -35 81 -81q33 -43 55 -105q20 -55 20 -132q0 -105 -39 -185q-38 -78 -111 -136q-69 -55 -170 -85q-98 -29 -215 -29q-89 0 -164 11q-66 9 -131 30q-61 20 -110 43 q-69 34 -104 52v287q50 -38 110 -72q52 -30 122 -55q58 -22 125 -35q63 -13 124 -13q51 0 96 11q38 10 71 31q28 18 43 46t15 58q0 36 -21 63q-20 26 -58 47q-47 26 -85 40q-98 37 -104 39q-91 33 -107 39q-52 20 -107 49q-50 26 -98 62q-42 34 -80 82q-31 41 -54 108 q-21 60 -21 136z" />
<glyph unicode="T" horiz-adv-x="1484" d="M67 1184v248h1351v-248h-506v-1184h-339v1184h-506z" />
<glyph unicode="U" horiz-adv-x="1736" d="M167 617v815h336v-837q0 -74 28 -138t74 -104q49 -43 114 -65q64 -23 146 -23q69 0 139 20q63 18 116 63q54 44 82 109q30 67 30 163v812h337v-812q0 -119 -25 -213q-24 -92 -71 -164q-48 -74 -108 -121q-64 -49 -143.5 -80.5t-167.5 -45.5q-94 -15 -187 -15 q-153 0 -282 37q-130 38 -222 115q-94 79 -145 198t-51 286z" />
<glyph unicode="V" horiz-adv-x="1481" d="M8 1432h373l364 -830h15l346 830h369l-648 -1451h-140z" />
<glyph unicode="W" horiz-adv-x="2401" d="M10 1432h363l316 -819h17l373 819h239l381 -819h15l315 819h365l-602 -1451h-138l-445 963h-16l-442 -963h-139z" />
<glyph unicode="X" horiz-adv-x="1663" d="M8 0l620 742q-16 19 -35.5 42t-35.5 41.5t-36.5 43t-36.5 43.5q-25 29 -74.5 87.5t-74.5 87.5t-75 88t-75 89q-67 77 -143 168h433l345 -456h14l335 456h427l-576 -690l637 -742h-437l-387 500h-13q-44 -58 -192 -250q-32 -41 -96 -124.5t-96 -125.5h-428z" />
<glyph unicode="Y" horiz-adv-x="1487" d="M14 1432h420l303 -470h14l305 470h417l-558 -754v-678h-340v678z" />
<glyph unicode="Z" horiz-adv-x="1448" d="M22 0l781 1184h-731v248h1299l-768 -1183h773v-249h-1354z" />
<glyph unicode="[" horiz-adv-x="899" d="M183 -464v2221h676v-214h-371v-1792h371v-215h-676z" />
<glyph unicode="\" horiz-adv-x="590" d="M15 1451h216l356 -1470h-213z" />
<glyph unicode="]" horiz-adv-x="899" d="M40 -249h371v1792h-371v214h676v-2221h-676v215z" />
<glyph unicode="^" horiz-adv-x="1225" d="M117 628l386 804h228l375 -804h-278l-214 509l-216 -509h-281z" />
<glyph unicode="_" horiz-adv-x="1049" d="M-14 -158h1077v-119h-1077v119z" />
<glyph unicode="`" horiz-adv-x="699" d="M24 1421h340l156 -308h-178z" />
<glyph unicode="a" horiz-adv-x="1170" d="M72 238q0 64 17 112q17 49 50 86q34 39 85 69q55 32 119 55q78 28 156 49q172 45 193 50q1 10 1 20q0 26 -4 56q-4 40 -22 70q-17 29 -60 51q-37 20 -107 20q-48 0 -98 -13q-59 -15 -99 -32q-46 -20 -93 -50q-43 -27 -85 -62v232q201 128 442 128q89 0 175 -18 q77 -17 136 -56q56 -37 88 -99t32 -147v-510q0 -31 15 -45q18 -15 38 -15h15q7 0 27 6q12 3 33 15q17 9 39 29v-175q-66 -41 -141 -63q-77 -22 -152 -22q-76 0 -119 36q-40 34 -52 100q-44 -39 -92 -69q-43 -27 -86 -42q-45 -15 -84 -19q-55 -6 -82 -6q-57 0 -112 22 q-52 21 -90.5 57.5t-59.5 83.5q-23 49 -23 96zM385 286q0 -27 7 -44t24 -36q16 -19 36 -27q24 -9 50 -9q21 0 48 7q31 7 52 18q27 13 48.5 28.5t41.5 40.5v234q-73 -16 -126 -35q-60 -22 -98 -46q-43 -27 -62 -58q-21 -34 -21 -73z" />
<glyph unicode="b" horiz-adv-x="1285" d="M128 24v1541h306v-567q42 28 68 40q29 15 65 24q45 11 67 14t69 3q75 0 139 -18q68 -19 123 -52q53 -31 101 -82q44 -46 77 -108q29 -57 47 -134q17 -71 17 -153q0 -117 -35 -215t-107 -172q-70 -72 -181 -117q-112 -45 -253 -47q-13 -1 -34 -1q-32 0 -84 2q-66 2 -135 8 q-87 8 -133 14q-55 7 -117 20zM435 189q42 -4 88 -8q27 -3 59 -3q16 0 34 1q71 4 121 29q49 25 83 70q32 42 47 108q16 66 16 146q0 84 -23 150q-22 67 -55 106t-82 61q-46 21 -96 21q-47 0 -93 -17q-51 -18 -99 -57v-607z" />
<glyph unicode="c" horiz-adv-x="1088" d="M88 525q0 82 18 151q19 72 52 133q35 62 84 111q50 50 111 85q64 36 136 54q78 20 159 20q57 0 85 -3q38 -4 82 -13q34 -7 84 -23q53 -18 93 -36v-228q-32 14 -91 36q-18 6 -75 21q-30 7 -66 9q-41 3 -64 3q-63 0 -115 -21q-49 -19 -88 -62q-32 -37 -55 -100 q-21 -59 -21 -134q0 -78 21 -139q21 -62 57 -101q38 -43 90 -63q58 -22 123 -22q19 0 63 3q40 2 73 9q60 14 80 20q35 10 84 35v-212q-58 -27 -92 -39q-50 -16 -85 -23q-42 -9 -80 -13q-40 -4 -81 -4q-133 0 -241.5 37.5t-183.5 108.5q-74 69 -116 172q-41 103 -41 228z" />
<glyph unicode="d" horiz-adv-x="1285" d="M79 532q0 82 17 153q17 73 49 134q33 65 75 108q48 51 101 82q56 33 121 52q64 18 140 18q48 0 70 -3t67 -14q36 -9 65 -24q19 -9 67 -40v567h307v-1541q-62 -13 -117 -20q-46 -6 -133 -14q-69 -6 -135 -8q-33 -1 -62.5 -1t-55.5 1q-145 2 -253 46q-111 45 -181 117 q-72 74 -107 172t-35 215zM404 532q0 -86 14 -146q16 -66 48 -108q34 -45 83 -70q47 -23 121 -27q32 -2 55.5 -2t38.5 2q46 4 88 8v607q-47 38 -100 57q-46 17 -93 17q-50 0 -96 -21q-47 -21 -81 -61q-35 -42 -57 -106q-21 -62 -21 -150z" />
<glyph unicode="e" horiz-adv-x="1207" d="M76 527q0 120 38 222q37 100 110 175q69 72 174 114q98 41 228 41q119 0 216 -41q93 -38 159 -116q67 -80 97 -189q26 -95 26 -212q0 -23 -1 -46h-728q0 -74 19 -126q21 -56 59 -96t94 -61q60 -22 131 -22q55 0 96 5q48 7 93 21q46 15 97 40q54 27 109 64v-189 q-40 -33 -80 -53q-46 -23 -83 -36t-83 -22q-60 -12 -78 -14q-23 -2 -66 -5q-19 -2 -47 -2q-131 0 -238 38q-109 38 -182 107q-78 74 -118 171q-42 102 -42 232zM400 649h447q-5 55 -21 99q-18 45 -43 75q-28 32 -67 49q-40 16 -90 16q-45 0 -83 -16q-41 -19 -68 -48 q-29 -31 -50 -75q-20 -43 -25 -100z" />
<glyph unicode="f" horiz-adv-x="665" d="M25 831v228h153v31q0 124 33 218q32 90 93 156q57 61 141 93q79 30 178 30q16 0 50 -2q25 -2 50 -5q9 0 24.5 -2t22.5 -3t14.5 -2l15 -2t12.5 -2v-243q-10 1 -28 4.5t-25 3.5q-28 3 -33 3h-27h-25q-34 0 -71 -14q-34 -13 -61 -41q-24 -26 -42 -73q-16 -43 -16 -105v-45 h167v-228h-167v-831h-306v831h-153z" />
<glyph unicode="g" horiz-adv-x="1195" d="M61 -220q0 31 11 71t41 75q28 34 84 67q58 34 142 51v5q-33 11 -48 19q-23 13 -42 29.5t-29 37.5q-12 22 -12 51q0 27 12 49q12 25 25 37q17 18 34 28t41 20q26 10 41 14q19 4 34 8v6q-60 10 -100 30q-50 25 -92 67q-40 40 -66.5 97t-26.5 131q0 36 8 78q9 44 29 84 q24 49 56 84q35 39 90 71q56 32 128 50q78 19 174 19h581v-211l-209 7q28 -20 50 -49q22 -28 34 -55q12 -29 18 -55q5 -24 5 -48q0 -32 -4 -61q-4 -31 -14 -56q-8 -21 -29 -53q-17 -25 -44 -48q-49 -42 -99 -62q-52 -20 -110 -33q-59 -14 -105 -19q-52 -7 -91 -17 q-40 -11 -64 -27q-25 -16 -25 -47q0 -22 18 -37q18 -16 46 -24q23 -7 70 -14q53 -8 83 -11q18 -2 51 -6.5t41 -6.5q46 -6 93 -16q34 -8 88 -29q38 -16 72 -45q34 -30 50 -54q17 -27 26 -57q11 -36 13 -53q3 -33 3 -44q0 -92 -38 -159q-38 -68 -108 -111q-74 -45 -170 -65 q-100 -21 -224 -21q-97 0 -187 14q-85 13 -142 34q-57 22 -102 53q-34 24 -65 66q-24 32 -35 69q-11 40 -11 72zM342 -207q0 -30 19 -58q20 -28 56 -46q38 -19 88 -30q46 -9 115 -9q51 0 97 12q40 11 78 35q31 20 52 49q18 26 18 57q0 29 -19.5 57t-53.5 45q-40 22 -83 31 q-51 11 -109 11q-56 0 -104 -12q-49 -13 -82 -34q-34 -21 -53 -48q-19 -28 -19 -60zM393 669q0 -38 13 -75q11 -33 39 -66q22 -26 64 -44q40 -18 84.5 -18t84.5 18q34 15 61 47q27 31 39 68q13 38 13 81q0 35 -12.5 70.5t-37.5 62.5q-26 28 -63 45q-37 16 -84 16 q-45 0 -85 -18q-40 -17 -63 -44q-28 -33 -39 -66q-14 -41 -14 -77z" />
<glyph unicode="h" horiz-adv-x="1274" d="M128 0v1565h304v-675l4 -2q28 45 69 84q32 30 83 59q34 20 93 35q48 13 95 13q69 0 136 -21q68 -21 119 -67q53 -46 84 -121q33 -80 33 -182v-688h-306v630q0 59 -12 101q-13 43 -36 68t-55 38q-27 11 -69 11q-30 0 -61 -8q-33 -9 -61 -28q-33 -22 -62 -54 q-27 -32 -54 -85v-673h-304z" />
<glyph unicode="i" horiz-adv-x="596" d="M115 1406.5q0 37.5 16 72.5q15 35 38.5 58.5t58.5 38.5q35 16 72.5 16t72.5 -16q34 -15 58 -38.5t39 -58.5t15 -72.5t-15 -72.5q-15 -34 -39 -58t-58 -39q-35 -15 -72.5 -15t-72.5 15t-58.5 39t-38.5 58q-16 35 -16 72.5zM146 0v1059h307v-1059h-307z" />
<glyph unicode="j" horiz-adv-x="596" d="M-8 -282q46 11 73 30q35 25 50 50q20 33 28 76q9 43 9 101v1084h307v-1123q0 -81 -17 -146q-17 -66 -46 -115q-31 -54 -65 -88q-33 -32 -78 -60q-46 -27 -86 -39q-44 -12 -85 -16zM122 1406.5q0 40.5 14 72.5q15 35 39 58q23 23 60 39q35 16 71 16q37 0 72 -16 q35 -15 58 -39q27 -26 41 -58q15 -35 15 -72.5t-15 -72.5q-14 -32 -40.5 -58t-58.5 -40t-72 -14q-39 0 -71 14q-35 15 -60 40q-24 24 -39 58q-14 32 -14 72.5z" />
<glyph unicode="k" horiz-adv-x="1203" d="M128 0v1565h304v-995h4l387 489h361l-410 -497l434 -562h-377l-395 550h-4v-550h-304z" />
<glyph unicode="l" horiz-adv-x="600" d="M147 0v1565h306v-1565h-306z" />
<glyph unicode="m" horiz-adv-x="2091" d="M128 0v1059h304v-150q76 82 171 127q93 43 214 43q130 0 216 -56q84 -55 128 -170q56 71 109 114q58 47 106 70q52 25 107 33q54 9 114 9q86 0 154 -25q65 -24 114 -75t74 -123q25 -71 25 -164v-692h-304v648q0 59 -14 98q-16 44 -39 70q-27 29 -56 40q-35 14 -64 14 q-89 0 -164 -51q-72 -50 -125 -141v-678h-304v659q0 61 -16 97q-17 41 -41 65q-23 23 -59 37q-33 12 -69 12q-27 0 -67 -11q-32 -9 -73 -32q-32 -17 -71 -50q-35 -28 -66 -68v-709h-304z" />
<glyph unicode="n" horiz-adv-x="1276" d="M128 0v1059h304v-167q38 53 81 87q43 33 94 57q45 20 101 32q53 11 98 11q64 0 127 -17q58 -16 109 -63q48 -43 78 -121q28 -71 28 -191v-687h-306v671q0 53 -9 88q-11 37 -30 62q-17 24 -43 37q-25 12 -52 12q-30 0 -71 -10q-34 -8 -71 -32t-70 -58q-29 -31 -64 -89 v-681h-304z" />
<glyph unicode="o" horiz-adv-x="1309" d="M82 531q0 90 21 165q21 77 58 137q38 60 91 107q50 44 116 76q62 30 138 47q67 16 151 16q65 0 134 -13q67 -12 132 -40t118 -70q53 -41 97 -105q39 -56 66 -141q25 -79 25 -182q0 -100 -27 -186q-24 -80 -69 -142q-49 -68 -100 -104q-63 -45 -121 -68q-61 -24 -129 -38 q-58 -11 -126 -11q-131 0 -236 39q-107 40 -182 112.5t-115 172.5q-42 102 -42 228zM409 531q0 -108 21 -179q19 -67 58 -113q36 -43 79 -58q46 -17 90 -17q59 0 102 24q44 23 78 71q33 45 50 116t17 162q0 87 -16 148q-17 69 -47 113q-32 47 -78 72t-106 25q-48 0 -97 -22 q-43 -20 -79 -67q-35 -45 -53 -112q-19 -72 -19 -163z" />
<glyph unicode="p" horiz-adv-x="1285" d="M128 -507v1541q121 24 257 35q107 8 207 8h39q145 -2 253 -46q111 -44 181 -116q71 -74 107 -174q35 -98 35 -216q0 -120 -37 -222q-36 -102 -100 -172q-66 -73 -155 -112q-94 -40 -202 -40q-49 0 -71 3q-47 6 -68 11q-49 12 -68 20q-33 12 -72 31v-551h-306zM434 242 q54 -29 104 -42q44 -11 99 -11q54 0 97 19q45 21 78 62q31 39 51 105q18 61 18 150q0 85 -14 146q-15 66 -47 109q-34 45 -83 69q-50 25 -121 29q-23 1 -43 1q-27 0 -49 -2q-10 -1 -28 -2.5t-33.5 -2.5t-28.5 -3v-627z" />
<glyph unicode="q" horiz-adv-x="1285" d="M78 525q0 114 36 216q35 100 107 174q70 72 181 116q105 43 253 45h47q105 0 199 -7q136 -11 257 -35v-1540h-307v550q-48 -23 -71.5 -31.5t-67.5 -19.5q-21 -5 -68 -11q-23 -3 -71 -3q-110 0 -200 39t-158 113q-66 72 -101 172q-36 102 -36 222zM403 525q0 -85 20 -150 q19 -66 51 -105q32 -41 78 -62q46 -20 97 -20q49 0 99 12q47 12 103 42v627q-11 1 -23.5 2.5t-22 2t-22 1.5t-21.5 2q-14 1 -37 1t-55 -1q-74 -4 -121 -28q-49 -24 -83 -69q-33 -43 -48 -109q-15 -67 -15 -146z" />
<glyph unicode="r" horiz-adv-x="988" d="M128 0v1059h306v-286l2 1q30 71 70 131q41 61 79 96q41 37 86 58q41 20 89 20q24 0 49 -5q27 -4 51 -13q33 -13 57 -27q23 -13 64 -44l-87 -281q-29 20 -56 36q-17 10 -47 21q-21 8 -42 10q-28 2 -40 2q-40 0 -75 -19q-42 -23 -75 -58q-30 -32 -68 -96q-30 -51 -57 -130 v-475h-306z" />
<glyph unicode="s" horiz-adv-x="941" d="M82 764q0 73 29 131q28 56 84 99q55 42 132 62q84 23 176 23q43 0 92 -7q48 -7 83 -18q64 -20 78 -27q13 -5 38 -16.5t37 -16.5v-223q-60 39 -94 56q-48 23 -92 38q-36 12 -82 22q-31 7 -65 7q-35 0 -52 -3q-26 -4 -42 -11q-18 -8 -29 -23.5t-11 -40.5q0 -29 22 -49 q24 -22 60 -41q30 -17 82 -41q72 -32 95 -44q59 -31 96 -54q40 -26 82 -70q34 -36 58 -89q22 -48 22 -115q0 -82 -23 -141q-25 -61 -75 -105q-48 -42 -126 -66q-72 -22 -175 -22q-61 0 -115 10q-55 10 -107 25q-44 13 -92 32q-34 13 -68 32v221q12 -7 26 -14.5t30.5 -16 t25.5 -12.5q34 -18 82 -35q47 -16 85 -24q44 -8 92 -8q46 0 71 7q32 9 50 21q21 14 29 29q9 19 9 33q0 31 -22 53q-26 27 -60 43q-43 22 -82 38q-54 22 -95 40q-47 20 -95 49q-48 28 -83 64q-35 34 -59 85q-22 46 -22 113z" />
<glyph unicode="t" horiz-adv-x="895" d="M26 844v57l427 490h24v-332h372v-215h-372v-481q0 -77 29 -114q28 -36 86 -36q17 0 59 2q18 2 63 10q30 6 67 20q41 15 68 30v-229q-34 -15 -87 -31q-42 -12 -86 -21q-25 -5 -84 -11q-39 -4 -72 -4q-39 0 -88 7q-47 7 -82 22q-42 19 -72 43q-30 25 -56 71q-26 48 -37 100 q-13 59 -13 139v483h-146z" />
<glyph unicode="u" horiz-adv-x="1276" d="M128 373v686h306v-673q0 -47 11 -87q10 -38 28 -61q19 -26 43 -38q22 -11 54 -11q28 0 69 10q36 8 73 32t68 57q34 36 65 90v681h303v-1059h-303v165q-33 -47 -82 -84q-50 -39 -93 -59q-24 -11 -48.5 -18.5t-51.5 -13.5q-47 -9 -100 -9q-64 0 -127 16q-60 16 -109 61 q-46 42 -77 121q-29 75 -29 194z" />
<glyph unicode="v" horiz-adv-x="1124" d="M4 1059h330l228 -643l230 643h328l-464 -1080h-186z" />
<glyph unicode="w" horiz-adv-x="1712" d="M0 1059h314l220 -629l233 629h181l232 -629l218 629h314l-444 -1080h-160l-249 635l-254 -635h-157z" />
<glyph unicode="x" horiz-adv-x="1217" d="M8 0l433 550l-413 509h361l220 -315h1l220 315h360l-412 -509l433 -550h-356l-246 342l-245 -342h-356z" />
<glyph unicode="y" horiz-adv-x="1124" d="M3 1059h328l222 -600l248 600h322l-681 -1566h-322l287 652z" />
<glyph unicode="z" horiz-adv-x="1127" d="M17 0l578 844h-463v215h941l-561 -844h547v-215h-1042z" />
<glyph unicode="{" horiz-adv-x="808" d="M61 538v211q63 0 110 22q43 21 69 63q25 38 35 97q11 63 11 131v313q0 106 25 179q26 76 74 120q46 41 121 64q66 19 164 19h92v-217h-11q-68 0 -110 -11q-40 -10 -60 -39q-21 -29 -25 -79q-6 -67 -6 -132v-150q0 -60 -5 -155q-4 -64 -22 -129q-17 -57 -53 -108 q-33 -47 -97 -92q60 -42 97 -95q37 -52 53 -107q18 -64 22 -129q5 -94 5 -154v-146q0 -65 6 -132q4 -50 25 -79q20 -29 60 -39q42 -11 110 -11h11v-219h-92q-93 0 -164 21q-75 22 -121 64q-48 44 -74 120q-25 73 -25 179v307q0 69 -11 131q-11 61 -35 99q-25 40 -69 61 q-47 22 -110 22z" />
<glyph unicode="|" horiz-adv-x="590" d="M181 -460v2220h228v-2220h-228z" />
<glyph unicode="}" horiz-adv-x="808" d="M47 -247h11q68 0 110 11q40 10 60 39q21 29 25 79q6 67 6 132v146q0 60 5 154q4 65 22 129q16 55 53 107q37 53 97 95q-62 43 -97 93q-37 53 -53 107q-18 65 -22 129q-5 95 -5 155v150q0 65 -6 132q-4 50 -25 79q-20 29 -60 39q-42 11 -110 11h-11v218h92q93 0 164 -20 q75 -23 121 -64q48 -44 74 -120q25 -73 25 -179v-312q0 -68 11 -130q11 -61 35 -99q25 -40 69 -61q47 -22 110 -22v-212q-63 0 -110 -22q-43 -20 -69 -62q-24 -38 -35 -99q-11 -62 -11 -131v-307q0 -106 -25 -179q-26 -76 -74 -120q-46 -42 -121 -64q-66 -19 -164 -19h-92 v217z" />
<glyph unicode="~" horiz-adv-x="1225" d="M33 389v274q42 39 85 65t85 41q44 15 83 19q56 6 84 6q54 0 100 -13q53 -14 89 -30q55 -25 81.5 -39t79.5 -39q34 -17 82 -31q37 -11 88 -11q39 0 72 6q37 6 76 23q48 22 77 41q37 25 76 63v-272q-34 -34 -61 -53q-40 -27 -74 -41q-37 -16 -86 -27q-45 -10 -105 -10 q-48 0 -94 13q-49 13 -87 30q-28 13 -84 41q-40 20 -82 39q-49 22 -82 32q-41 12 -83 12q-32 0 -76 -7t-82 -22t-81 -43q-50 -32 -81 -67z" />
<glyph unicode="&#xa2;" horiz-adv-x="1049" d="M89 709q0 113 35 207q36 98 101 170q65 70 160 118q90 45 207 55v174h181v-179q61 -10 104 -24q64 -20 115 -44v-228q-83 35 -123 48q-56 18 -96 24v-648q63 8 111 21q58 16 124 50v-213q-70 -32 -124 -48q-60 -18 -111 -24v-167h-181v164q-114 11 -210 53 q-98 44 -160 111q-65 72 -100 166q-33 90 -33 214zM389 712q0 -59 15 -112q15 -51 42 -90q29 -41 63 -68q39 -30 83 -44v621q-41 -14 -82 -43q-34 -25 -64 -68q-27 -40 -42 -89q-15 -53 -15 -107z" />
<glyph unicode="&#xa3;" horiz-adv-x="1093" d="M99 -18q0 18 7 67q1 8 18 103q10 55 25 122q5 21 14 64.5t14 64.5q12 58 29 122q14 59 25 101h-117v204h161q41 133 45 144q22 66 50 131q26 60 60 113q34 54 73 93t85 68q51 33 93 47q44 15 97 22q49 7 95 0l92 -228q-76 17 -132 3q-61 -15 -106 -62q-50 -53 -85 -130 q-42 -92 -72 -201h136v-204h-185q-3 -10 -8 -30t-7 -26q-11 -39 -17 -61q-3 -11 -7.5 -32.5t-7.5 -33.5q-3 -13 -7.5 -36.5t-5.5 -27.5q-4 -21 -14.5 -70.5t-15.5 -76.5q19 6 35 8q8 2 30 2q58 0 89 -7q13 -3 38 -8t37 -7q9 -2 19 -4t18.5 -4t19 -4t18.5 -4q32 -7 88 -7h46 q25 3 36 6t33 11q5 2 12 5t16 7t15 6l28 -210q-12 -6 -53 -21q-23 -8 -43 -12q-12 -3 -43 -6q-14 -1 -47 -1q-37 0 -74 7q-44 8 -96 17q-11 1 -26 4t-27 5t-27.5 4.5t-29.5 4.5q-58 8 -118 8q-46 0 -86 -4q-56 -6 -79 -10q-25 -4 -78 -15q-40 -9 -83 -21z" />
<glyph unicode="&#xa5;" horiz-adv-x="1159" d="M3 1436h310l262 -477h5l268 477h311l-326 -534h268v-221h-382v-122h382v-223h-382v-335h-283v335h-376v223h376v122h-376v221h262z" />
<glyph unicode="&#xa9;" horiz-adv-x="1554" d="M19 717q0 103 28 202q29 102 75 179q52 87 118 153t153 118q82 49 180 77q93 26 201 26q107 0 200 -26q101 -29 181 -77q83 -50 152 -118q66 -66 118 -153q48 -81 76 -179q27 -94 27 -202q0 -106 -27 -200q-28 -101 -76 -181q-52 -86 -118 -153q-65 -64 -152 -116 q-80 -48 -181 -77q-93 -26 -200 -26q-108 0 -201 26q-98 28 -180 77q-90 54 -153 116q-66 67 -118 153q-45 76 -75 181q-28 98 -28 200zM183 717q0 -82 21 -157q20 -72 60 -140q39 -67 92 -120t119 -92q69 -39 141 -59q75 -21 157 -21t157 21q72 20 140 59q67 39 120 92 t92 120q39 68 59 140q21 75 21 157t-21 157q-20 72 -59 141q-39 66 -92 119t-120 92q-68 40 -140 60q-75 21 -157 21t-157 -21q-72 -20 -141 -60q-66 -39 -119 -92t-92 -119q-40 -69 -60 -141q-21 -75 -21 -157zM403 712q0 99 27 176q28 83 76 135q52 56 121 85 q71 29 160 29q70 0 122 -19q63 -24 100 -57q43 -39 70 -92q27 -55 33 -122h-156q-4 31 -18 57q-15 28 -36 47q-23 21 -54 33q-28 11 -72 11q-48 0 -84 -18t-62 -55q-30 -42 -41 -88q-14 -58 -14 -117q0 -62 16 -117q16 -57 40 -88q27 -36 67 -55q41 -19 89 -19q32 0 60 10 q29 10 54 30q25 21 39 46q14 27 16 63h159q-2 -68 -31 -121q-28 -52 -75 -90.5t-104 -57.5q-61 -19 -120 -19q-86 0 -157 29t-121 83q-49 53 -76 130q-28 77 -28 171z" />
<glyph unicode="&#xab;" horiz-adv-x="1246" d="M47 481l339 459h301l-362 -459l362 -459h-301zM570 481l339 459h300l-362 -459l362 -459h-300z" />
<glyph unicode="&#xad;" horiz-adv-x="810" d="M75 588v259h660v-259h-660z" />
<glyph unicode="&#xae;" horiz-adv-x="1554" d="M24 717q0 108 26 202q28 98 76 179q53 87 119 153q68 68 151 118q80 48 181 77q93 26 201 26q107 0 201 -26q98 -28 179 -77q87 -52 153 -118t118 -153q46 -77 75 -179q28 -99 28 -202q0 -102 -28 -200q-30 -105 -75 -181q-52 -86 -118 -153q-63 -62 -153 -116 q-81 -49 -179 -77q-94 -26 -201 -26q-108 0 -201 26q-101 29 -181 77q-87 52 -151 116q-66 67 -119 153q-47 80 -76 181q-26 94 -26 200zM186 717q0 -77 22 -157q22 -76 59 -140q36 -63 93 -120q55 -55 118 -92q67 -39 142 -59q75 -21 156 -21q82 0 157 21q71 20 140 59 q66 39 120 92q56 57 93 120q37 64 58 140q22 80 22 157t-22 157q-21 77 -58 141q-37 63 -93 119q-56 55 -119 92q-67 39 -141 60q-75 21 -156 21q-82 0 -157 -21q-72 -20 -140 -60q-67 -39 -120 -92q-57 -56 -93 -119q-37 -64 -59 -141q-22 -80 -22 -157zM484 332v774h383 q63 0 109 -16q48 -18 75 -45q30 -30 44 -69q16 -42 16 -85q0 -44 -13 -82q-13 -40 -37 -68q-26 -30 -66 -49t-93 -25v-4q21 -7 43 -18q17 -8 35 -26q10 -10 37 -49q17 -23 51 -81l90 -157h-193l-63 127q-17 34 -44 76q-26 40 -46 60q-28 26 -54 36q-32 13 -66 13h-51v-312 h-157zM641 766h161q38 0 67 11t44.5 26.5t23.5 36.5q7 17 7 41q0 51 -40 78q-39 27 -120 27h-143v-220z" />
<glyph unicode="&#xbb;" horiz-adv-x="1246" d="M47 22l363 459l-363 459h301l339 -459l-339 -459h-301zM570 22l361 459l-361 459h300l339 -459l-339 -459h-300z" />
<glyph unicode="&#xbc;" horiz-adv-x="1882" d="M261 -57l987 1483h199l-988 -1483h-198zM264 628v754h220v-754h-220zM1020 181v123l403 452h137v-445h58v-130h-58v-181h-213v181h-327zM1198 311h149v164z" />
<glyph unicode="&#xbd;" horiz-adv-x="1882" d="M236 -57l990 1483h197l-989 -1483h-198zM242 628v754h217v-754h-217zM1123 0v28q90 102 142 164q69 83 103 130q39 56 61 103q21 46 21 85q0 25 -7 40q-8 18 -21 31q-12 12 -32 21q-16 7 -42 7q-46 0 -98 -25t-119 -81v178q4 2 71 33q27 13 62 23q30 8 56 12q30 4 59 4 q68 0 118 -14q48 -13 89 -43q39 -27 57 -66q19 -41 19 -88q0 -35 -15 -79q-14 -42 -42 -88q-24 -42 -69 -100q-42 -54 -96 -117h266v-158h-583z" />
<glyph unicode="&#xbe;" horiz-adv-x="1882" d="M150 674v160q42 -25 56 -32q27 -13 47 -21q15 -5 46 -11q15 -3 46 -3q28 0 47 6q26 8 36 17q20 16 25 27q8 17 8 36q0 86 -130 96v141q55 4 86 26q29 21 29 59q0 34 -29 57q-28 22 -81 22q-14 0 -34 -4q-28 -6 -42 -10q-36 -11 -45 -14q-30 -11 -44 -18v144q51 20 99 28 q50 9 108 9q56 0 114 -14q51 -13 89 -38q36 -24 58.5 -59.5t22.5 -75.5q0 -107 -121 -169q76 -32 108 -74q35 -46 35 -112q0 -50 -22 -91q-23 -41 -66 -71q-40 -28 -101 -46q-59 -16 -128 -16q-19 0 -53 3q-23 1 -49 8q-20 5 -52 17q-39 13 -63 23zM395 -57l989 1483h198 l-990 -1483h-197zM1126 181v123l404 452h138v-446h57v-129h-57v-181h-214v181h-328zM1305 310h149v164z" />
<glyph unicode="&#xd7;" horiz-adv-x="1225" d="M132 417l300 300l-300 300l184 183l300 -301l299 301l183 -183l-300 -300l300 -300l-183 -183l-299 301l-300 -301z" />
<glyph unicode="&#xf7;" horiz-adv-x="1225" d="M89 595v247h1049v-247h-1049zM459 300q0 32 12 59q15 31 34 50q17 17 48 32q27 12 60 12t60 -12q28 -13 47 -32t33 -50q13 -27 13 -59t-13 -60t-33 -48q-21 -22 -47 -34q-24 -11 -60 -11t-60 11q-28 14 -48.5 34t-33.5 48q-12 28 -12 60zM459 1134q0 31 12 60 q12 27 34 49q20 20 48 33q27 13 60 13t60 -13q28 -13 48 -33t32.5 -49t12.5 -60t-13 -58q-15 -34 -32 -50q-17 -18 -48 -32q-27 -13 -60 -13t-60 13q-31 14 -48 32q-19 19 -34 50q-12 27 -12 58z" />
<glyph unicode="&#xe00;" />
<glyph unicode="&#xe01;" horiz-adv-x="1380" d="M145 0v734q0 97 22 164q23 70 60 117q38 49 91 79q57 32 113 47q56 16 128 22q74 7 132 7t132 -7q69 -6 126 -22q56 -15 113 -47q49 -27 92 -79q37 -45 61 -117q22 -67 22 -164v-734h-329v721q0 58 -10 95q-11 42 -26 67q-15 23 -39 43q-21 16 -46 25q-34 11 -49 12 q-33 3 -47 3t-47 -3q-17 -1 -50 -12q-25 -9 -46 -25q-22 -18 -38 -43q-15 -25 -26 -67q-10 -37 -10 -93v-723h-329z" />
<glyph unicode="&#xe02;" horiz-adv-x="1231" d="M11 1148h356l249 -636l250 636h354l-506 -1148h-194z" />
<glyph unicode="&#xe03;" horiz-adv-x="1310" d="M42 967v206l242 -149l175 124h255v-292q0 -42 -9 -69q-11 -30 -27 -52q-16 -23 -37 -41q-28 -25 -43 -38q-3 -2 -20 -15.5t-25 -20.5q-19 -18 -37 -45q-19 -27 -28 -55q-13 -38 -13 -75v-36q-2 -49 9 -89q10 -39 32 -70q17 -25 57 -44q33 -17 80 -17q54 0 84 11 q33 13 57 36q21 22 32 56q11 35 11 75v781h331v-714q0 -130 -34 -217q-34 -90 -97 -141q-65 -52 -161 -75q-95 -22 -228 -22q-144 0 -238 31q-96 31 -154 87q-62 60 -86 137q-25 79 -25 177v14q0 46 13 88q11 33 35 64q21 27 47 47q30 23 56 38q51 29 56 32q30 18 50 34 q22 19 39 43q15 23 19 60v109l-175 -123z" />
<glyph unicode="&#xe04;" horiz-adv-x="1405" d="M145 -1v734q0 95 22 162q24 72 61 117q39 47 94 79q58 33 116 49q66 18 129 23q74 7 136 7q61 0 135 -7q63 -5 129 -23q61 -16 117 -49q53 -30 93 -79q40 -48 63 -117q22 -67 22 -161v-734h-331v723q0 56 -9 93q-11 42 -27 67q-14 23 -42 43q-23 17 -47 25q-33 11 -53 12 q-36 3 -50 3q-33 0 -51 -3q-26 -4 -52 -12q-26 -9 -48 -25q-24 -17 -40 -45q-18 -29 -28 -66t-10 -94v-168q38 62 83 95q44 32 102 32q22 0 40 -6q25 -7 39 -15t33 -22q25 -19 30 -23l-63 -232q-31 30 -60 38t-51 8q-17 0 -38 -8q-18 -7 -40 -25q-20 -17 -40 -47 q-19 -29 -35 -70v-278z" />
<glyph unicode="&#xe05;" horiz-adv-x="1448" d="M145 0v1148h303l272 -219l284 219h300v-1148h-330v853l-228 -169h-51l-220 169v-422q37 58 82.5 91.5t101.5 33.5q17 0 40 -7q25 -7 39 -15t33 -22q25 -19 30 -23l-63 -230q-29 27 -60 36q-29 8 -51 8q-20 0 -38 -7t-40 -25q-19 -15 -39 -46q-17 -26 -35 -71v-154h-330z " />
<glyph unicode="&#xe06;" horiz-adv-x="1387" d="M42 967v206l240 -149l177 124h255v-292q0 -41 -9 -68q-11 -29 -28 -53q-17 -23 -38 -41q-8 -8 -24.5 -21t-19.5 -16q-15 -12 -43 -37q-23 -21 -39 -45q-19 -27 -28 -55q-11 -34 -11 -75v-67q6 -31 36 -64q29 -31 68 -55q38 -25 85 -39q44 -14 89 -14q31 0 65 9 q28 8 52 30q21 18 33 50q11 27 11 72v781h331v-791q0 -98 -29 -169q-31 -76 -78 -118q-51 -47 -120 -70q-66 -22 -151 -22q-50 0 -113 11q-56 10 -111 32q-53 21 -97 53q-47 33 -72 68v-142h-328v425q0 55 11 88q12 36 33 64q19 24 49 47q29 23 55 38q6 3 26.5 14t30.5 18 q31 18 50 34q23 19 39 43q15 23 20 60v109l-175 -123z" />
<glyph unicode="&#xe07;" horiz-adv-x="974" d="M29 72v225q56 -26 88 -37q64 -22 97 -31q70 -17 96 -22q46 -8 85 -8q23 0 44 4q20 4 34 19q12 15 20 39q7 21 7 67v595h-184v225h515v-862q0 -74 -25 -130t-68 -93t-106 -56q-31 -9 -64.5 -14.5t-69.5 -6.5q-67 -2 -157 8q-86 10 -141 23q-68 16 -108 30q-51 19 -63 25z " />
<glyph unicode="&#xe08;" horiz-adv-x="1166" d="M65 792v245q61 29 121 54q59 25 124 42q56 15 129 26q71 11 139 11q119 0 206 -19q85 -19 138 -61q51 -41 76 -109q25 -66 25 -158v-823h-331v234q-17 58 -44 105q-26 46 -57 72q-33 29 -67 41q-35 12 -71 12q-29 0 -54 -4q-21 -3 -45 -15v244q40 8 62 9q41 2 84 -6 q66 -9 116 -39q45 -27 76 -72v167q0 44 -5 78q-7 40 -24 66q-17 27 -53 45q-33 17 -93 17q-32 0 -97 -10q-44 -7 -117 -29q-59 -19 -122 -50q-61 -31 -116 -73z" />
<glyph unicode="&#xe09;" horiz-adv-x="1358" d="M145 356v268h330v-246q0 -84 37 -122q35 -38 108 -38q44 0 86 14q45 15 81 39q44 29 64 54q24 31 33 66v358q0 41 -8 78q-8 35 -36 65q-25 27 -80 45q-50 17 -137 17q-34 0 -56 -3q-15 -2 -75 -14q-47 -10 -89 -21q-51 -14 -93 -29q-61 -22 -89 -36q-46 -23 -76 -45v245 q119 60 257 89q144 30 282 30q115 0 217 -19q93 -18 167 -61q72 -43 108 -107q39 -69 39 -160v-823h-330v142q-26 -37 -70 -70q-40 -29 -92 -51q-53 -22 -107 -32q-60 -11 -110 -11q-84 0 -148.5 22t-114.5 70q-46 44 -72 118t-26 168z" />
<glyph unicode="&#xe0a;" horiz-adv-x="1341" d="M65 937v211h544v-364q-36 -19 -66 -45q-31 -27 -54 -66q-24 -42 -36 -93q-14 -61 -14 -130q0 -60 18 -109q17 -46 46 -76q33 -32 64 -43q42 -14 77 -14q52 0 87 17q41 19 60 42q25 29 36 61q14 40 20 72q4 25 6.5 78t2.5 75q0 72 -4 131q-4 60 -21 106q-17 47 -51 83 t-99 64v211h580v-211h-246q38 -22 78 -68q30 -37 57.5 -96.5t39.5 -116.5q12 -62 12 -131q0 -119 -29 -219q-28 -98 -94 -173q-16 -18 -35 -34t-40.5 -30t-45 -26t-49.5 -22q-106 -40 -256 -40q-124 0 -233 33q-99 30 -170 90q-70 60 -105 145q-37 87 -37 190q0 70 12 114 q13 56 32 92q19 40 45 72q27 34 53 56q21 17 56 39q14 8 50 25v100h-291z" />
<glyph unicode="&#xe0b;" horiz-adv-x="1419" d="M56 966v211l222 -137l158 108h258v-406q-21 -11 -63 -36q-32 -19 -54 -51q-24 -35 -38 -82q-15 -53 -15 -128q0 -61 17 -104q17 -45 46 -74t65 -43q39 -16 76 -16q52 0 88 17q41 19 60 42q25 29 36 61q14 40 19 72q4 25 7 78q2 27 2 75q0 73 -5 131q-4 60 -20 106 q-17 47 -52 83q-35 37 -97 64v211h580v-211h-248q39 -22 78 -68q34 -40 60 -96q25 -54 37 -117q14 -69 14 -131q0 -114 -30 -219q-30 -100 -94 -173q-63 -71 -171 -112q-106 -40 -255 -40q-130 0 -232.5 33t-170.5 92q-70 59 -106 143q-36 85 -36 185q0 57 12 103 q13 48 32 82q20 35 46 63q22 24 54 49q27 21 55 38q8 5 16 9.5t17.5 9t14.5 7.5v142l-161 -114z" />
<glyph unicode="&#xe0c;" horiz-adv-x="2051" d="M145 0v734q0 95 20 164q20 63 62 117q41 52 89 79q57 32 109 47q55 16 123 22q57 6 128 6q67 0 125 -6q69 -6 123 -22q55 -15 112 -47q50 -28 90 -79t60 -117q21 -69 21 -164v-353q5 -30 23 -64q16 -29 43 -54q24 -22 60 -38q32 -14 76 -14q32 0 69 10q25 7 52 29 q22 18 35 50q14 35 14 73v775h329v-785q0 -98 -29 -168q-31 -76 -78 -119q-50 -46 -119 -69q-71 -24 -152 -24q-108 0 -189 45q-82 46 -136 121v-149h-328v723q0 58 -10 97q-10 43 -26 68q-17 27 -38 42q-23 16 -43 24q-20 7 -44 9q-28 3 -40.5 3t-40.5 -3q-24 -2 -44 -9 q-20 -8 -43 -24q-21 -15 -38 -42q-16 -25 -26 -68q-10 -39 -10 -99v-496h167v-225h-496z" />
<glyph unicode="&#xe0d;" horiz-adv-x="1983" d="M143 0v734q0 91 22 164q21 69 59 117q40 51 87 79q54 31 110 47q55 16 121 22q56 6 126.5 6t126.5 -6q66 -6 121 -22q56 -16 110 -47q47 -28 87 -79t60 -117q21 -69 21 -164v-236q0 -29 7 -66q6 -35 22 -58q17 -25 47.5 -40.5t77.5 -15.5q57 0 91 17q27 14 47 43 q15 22 19 58q5 32 5 62v649h329v-1051q0 -94 -33 -171q-33 -74 -102 -131q-66 -54 -165 -83q-103 -31 -227 -31h-74q-58 0 -108 7q-69 10 -129 28q-69 21 -136 60v250q37 -29 95 -60q45 -23 92 -39q44 -14 83.5 -20.5t71.5 -8.5q20 -1 52 -1q8 0 18.5 0.5t12.5 0.5 q59 0 97 15q43 18 70 46q25 28 39 70q14 44 14 89v44q-44 -28 -95 -46q-46 -15 -111 -15q-110 0 -193 25q-80 24 -137 74q-55 49 -82 117q-27 70 -27 158v247q0 60 -10 99q-11 43 -27 68q-16 27 -37 42q-23 16 -42 24q-18 7 -43 9q-28 3 -37.5 3t-37.5 -3q-23 -2 -42 -9 q-21 -9 -43 -24q-18 -13 -36 -42q-16 -25 -26 -68q-10 -39 -10 -99v-496h167v-225h-498z" />
<glyph unicode="&#xe0e;" horiz-adv-x="1437" d="M58 0v225h167v509q0 91 22 164q21 69 59 117q39 50 89 79q53 31 110 47q54 16 123 22q72 7 131 7t131 -7q71 -6 125 -22q56 -16 110 -47q49 -29 88 -79q38 -48 59 -117t21 -164v-1150h-421q-12 12 -37 31q-18 14 -44 25q-25 10 -54 17q-26 5 -67 5q-33 0 -53 -3 q-27 -3 -61 -15q-35 -12 -65 -30q-39 -24 -66 -53v190q20 15 46 28t64 26q26 9 75 20q40 8 77 8q43 0 84 -7q37 -6 73 -19q29 -11 62 -35q34 -24 59 -49v998q0 49 -10 95q-8 37 -24 67q-14 27 -34 43q-22 17 -44 25q-30 11 -47 12q-33 3 -47 3q-15 0 -46 -3q-15 -1 -46 -12 q-21 -8 -43 -25q-20 -16 -35 -43q-15 -30 -23 -67q-10 -46 -10 -93v-723h-498z" />
<glyph unicode="&#xe0f;" horiz-adv-x="1437" d="M58 0v225h167v509q0 91 22 164q21 69 59 117q39 50 89 79q53 31 110 47q54 16 123 22q58 6 131 6t131 -6q71 -6 125 -22q56 -16 110 -47q49 -29 88 -79q38 -48 59 -117t21 -164v-1152h-423q-17 22 -28 32q-14 12 -39 22q-29 11 -40 14q-28 5 -40 5q-27 0 -49 -5 q-28 -7 -50 -18t-46 -35q-20 -20 -33 -56l-359 92v177l320 -87q14 22 37.5 43.5t50.5 34.5q27 14 61 22q27 7 71 7q79 0 139 -30q60 -31 100 -92v1015q0 47 -10 93q-8 40 -25 67q-17 28 -36 43q-22 17 -43 25q-31 11 -46 12q-31 3 -46 3q-14 0 -45 -3q-13 -1 -44 -12 q-22 -8 -43 -25q-19 -15 -36 -43q-17 -27 -25 -67q-10 -46 -10 -95v-721h-498z" />
<glyph unicode="&#xe10;" horiz-adv-x="1171" d="M65 802v245q111 51 231 80q119 29 247 29h611v-209h-237q20 -16 39 -42q20 -26 34 -60q16 -39 23 -81q10 -53 10 -107v-657h-331v234q-17 58 -44 105q-26 46 -57 72q-33 29 -67 41q-35 12 -71 12q-29 0 -54 -4q-19 -3 -43 -15v244q39 8 61 9q40 2 83 -6q66 -9 116 -39 q45 -27 76 -72v154q3 45 -7 78q-9 34 -36 65q-25 29 -69 46t-107 17q-46 0 -98 -8q-60 -10 -105 -24q-56 -17 -106 -43q-56 -29 -99 -64zM147 -111l162 -86q29 49 79 77q50 30 110 30q27 0 61 -10q31 -9 55 -25q23 -15 45 -39t33 -49v113l328 1v-239h-421q-10 37 -40 54 q-32 19 -70 19q-14 0 -39 -6q-15 -4 -37 -18q-13 -8 -35 -36q-19 -24 -30 -54l-201 98v170z" />
<glyph unicode="&#xe11;" horiz-adv-x="1440" d="M51 965v205l210 -146l178 124h248v-139q30 27 79 65q35 27 74 49q37 21 75 31q37 9 87 9q81 0 139 -23q54 -22 91 -71q35 -48 50 -121q15 -76 15 -172v-776h-330v833q0 38 -16 59q-15 20 -47 20q-20 0 -44 -14q-23 -14 -55 -39q-33 -25 -61 -54q-37 -37 -63 -68 q-39 -48 -57 -73q-29 -39 -49 -73q-14 -25 -32 -68q-12 -32 -12 -56v-467h-331v400q0 65 11 106q14 51 31 81q19 33 42 58q22 24 44 44l111 99v152l-175 -123z" />
<glyph unicode="&#xe12;" horiz-adv-x="2136" d="M145 0v1147h303l272 -218l284 218h300v-766q5 -30 23 -64t41 -54q25 -23 58 -38q32 -14 75 -14q33 0 67 10q26 7 50 29q21 19 33 50q11 28 11 73v775h331v-785q0 -96 -28 -168q-28 -74 -76 -119q-52 -48 -117 -69q-71 -24 -150 -24q-52 0 -101 11q-44 10 -84 32 q-37 21 -72 52q-28 24 -61 69v-147h-330v853l-228 -169h-51l-220 169v-695q33 21 62 45q29 25 47 44q22 25 33 44q15 23 20 37q8 21 8 36q0 11 -8 25q-7 12 -18 15q-21 7 -28 7l61 159q24 -2 51 -8q29 -7 53 -17q27 -13 50 -33.5t35 -48.5q11 -26 11 -68q0 -40 -21 -92 q-17 -44 -53 -93q-29 -41 -80 -85q-42 -36 -103 -72q-50 -30 -120 -53h-330z" />
<glyph unicode="&#xe13;" horiz-adv-x="2004" d="M145 0v734q0 95 20 164q20 66 60 117t91 79q57 32 109 47q55 16 123 22q71 7 128 7q53 0 125 -7q69 -6 123 -22q55 -15 112 -47q50 -28 90 -79t60 -117q21 -69 21 -164v-361q0 -38 13 -73q13 -32 35 -50q28 -22 53 -29q36 -10 68 -10q86 0 136 46q51 46 67 124v767h329 v-1148h-328v149q-56 -77 -136 -121q-80 -45 -189 -45q-79 0 -150 24q-69 23 -119 69q-50 45 -80 119q-28 67 -28 168l-1 360q0 58 -10 97q-10 43 -26 68q-17 27 -38 42q-23 16 -43 24q-25 9 -44 11q-14 1 -40.5 1t-40.5 -1q-19 -2 -44 -11q-24 -9 -43.5 -22.5t-37.5 -43.5 q-16 -25 -26 -68q-10 -39 -10 -97v-498h167v-225h-496z" />
<glyph unicode="&#xe14;" horiz-adv-x="1442" d="M145 0v734q0 94 22 161q23 70 64 117q41 48 96 79q55 32 119 49q69 18 135 23q79 7 140.5 7t140.5 -7q66 -5 135 -23q63 -17 119 -49q54 -31 96 -79q41 -47 64 -117q24 -71 24 -161v-734h-330v721q0 53 -11 95q-10 40 -29 67q-19 26 -43 43q-26 17 -52 25q-35 11 -57 12 q-39 3 -55 3q-18 0 -57 -3q-21 -1 -57 -12q-26 -8 -52 -25q-24 -17 -43 -43q-18 -27 -29 -67q-11 -42 -11 -93v-551q51 37 82 68t60 70q22 30 36 64q12 31 12 54q0 46 -19 58q-21 15 -49 5v169q18 7 46 11q22 4 60 2q33 -2 58 -11q31 -11 52 -32q22 -23 34.5 -60.5 t12.5 -91.5q0 -67 -29 -132q-30 -66 -82 -126q-49 -57 -122 -117q-58 -47 -148 -103h-333z" />
<glyph unicode="&#xe15;" horiz-adv-x="1451" d="M145 0v1148h303l272 -219l284 219h300v-1148h-330v853l-228 -169h-51l-220 169v-695q33 21 62 45q29 25 47 44q22 25 33 44q15 23 20 37q8 21 8 36q0 11 -8 25q-7 12 -18 15q-21 7 -28 7l61 159q24 -2 51 -8q29 -7 53 -17q27 -13 50 -33.5t35 -48.5q11 -26 11 -68 q0 -40 -21 -92q-17 -44 -53 -93q-29 -41 -80 -85q-42 -36 -103 -72q-50 -30 -120 -53h-330z" />
<glyph unicode="&#xe16;" horiz-adv-x="1381" d="M145 0v1148l546 11q54 2 132 -5q66 -6 126 -25q61 -19 113 -50q53 -32 92 -81q37 -47 61 -121q22 -69 22 -165v-712h-329v701q0 57 -10 94q-11 42 -26 67q-16 26 -38 43q-21 17 -46 25q-28 9 -49 11q-33 3 -48 1l-217 -9v-708h1h166v-225h-496z" />
<glyph unicode="&#xe17;" horiz-adv-x="1395" d="M145 0v1148h328v-574v-21q0 -4 -1 -12.5t-1 -13.5t-1.5 -15.5t-1.5 -16.5q0 -22 -1 -34q-1 -25 -7 -83q3 5 39 70q4 6 10.5 18t12.5 23t12 20q8 14 36 55l389 584h293v-1148h-329v591q0 25 3 78q2 48 5 70q2 31 7 73q-14 -40 -29 -75q-1 -2 -6 -14.5t-8 -19.5 q-3 -5 -7.5 -15.5t-7.5 -16.5q-3 -5 -5.5 -9.5t-6 -10.5t-5.5 -9q-14 -25 -15 -26l-421 -616h-282z" />
<glyph unicode="&#xe18;" horiz-adv-x="1276" d="M120 859q0 82 33 140q34 61 100 98q70 39 163 55q104 18 219 18q79 0 156 -12q88 -14 140 -28q65 -17 113 -33q50 -18 68 -27v-247q-133 59 -249 90q-126 34 -231 41q-37 2 -73 0q-32 -2 -64 -12q-30 -8 -45 -19q-18 -14 -18 -31q0 -26 28 -45q24 -17 77 -35 q49 -18 114 -34q26 -6 79 -21t64 -18q102 -29 179 -58q68 -26 128 -74q52 -41 79 -104q27 -61 27 -153q0 -73 -20 -123q-21 -56 -56 -96q-33 -40 -84 -71q-46 -28 -105 -47q-52 -18 -119 -27q-63 -8 -124 -8q-110 0 -210 11q-83 9 -167 26q-66 14 -116 32q-43 16 -63 28v403 h330v-250q44 -14 96 -18q63 -6 87 -6q56 0 89 7q43 9 67 24q28 17 41 40q16 26 16 61q0 39 -20 67q-16 24 -58 47q-38 22 -93 38q-57 17 -129 33q-40 10 -114 29q-43 11 -106 35q-53 20 -92 43q-46 28 -74 57q-30 32 -47 75q-16 42 -16 99z" />
<glyph unicode="&#xe19;" horiz-adv-x="1394" d="M145 413v734h329v-722q0 -61 17 -103t44 -68q27 -24 61 -37q30 -11 68 -11q43 0 81 14q37 13 74 41q29 23 61 64q28 37 40 78v744h331v-1147h-328v164q-42 -50 -86 -86q-40 -32 -92 -57q-50 -24 -96 -34q-53 -11 -101 -11q-85 0 -156 27q-75 28 -128 80q-54 54 -87 137 q-32 78 -32 193z" />
<glyph unicode="&#xe1a;" horiz-adv-x="1380" d="M145 414v734h329v-709q0 -57 10 -94q11 -42 26 -67q16 -26 38 -43q21 -17 46 -25q26 -9 48 -13q17 -2 49 -2q30 0 47 2q22 4 49 13q25 8 46 25q24 19 39 43q15 25 26 67q8 31 8 94v709h331v-734q0 -97 -22 -164q-25 -74 -61 -118q-43 -52 -92 -79q-57 -32 -113 -47 q-56 -16 -128 -23q-59 -5 -132 -5q-71 0 -130 5q-64 6 -128 24q-56 15 -113 47q-55 31 -91 78q-36 45 -60 118q-22 67 -22 164z" />
<glyph unicode="&#xe1b;" horiz-adv-x="1380" d="M145 414v734h329v-709q0 -57 10 -94q11 -42 26 -67q16 -26 38 -43q21 -17 46 -25q26 -9 48 -13q17 -2 49 -2q30 0 47 2q22 4 49 13q25 8 46 25q24 19 39 43q15 25 26 67q8 31 8 94v1201h331v-1226q0 -97 -22 -164q-25 -74 -61 -118q-43 -52 -92 -79q-57 -32 -113 -47 q-56 -16 -128 -23q-59 -5 -132 -5q-71 0 -130 5q-64 6 -128 24q-56 15 -113 47q-55 31 -91 78q-36 45 -60 118q-22 67 -22 164z" />
<glyph unicode="&#xe1c;" horiz-adv-x="1448" d="M145 0v1148h496v-225h-166v-523l220 337h51l228 -337v748h330v-1148h-289l-295 425l-286 -425h-289z" />
<glyph unicode="&#xe1d;" horiz-adv-x="1498" d="M145 0v1148h496v-225h-166v-523l245 337h51l253 -337v1240h330v-1640h-289l-320 425l-311 -425h-289z" />
<glyph unicode="&#xe1e;" horiz-adv-x="1729" d="M10 1148h340l175 -648l242 648h198l237 -648l177 648h339l-388 -1148h-196l-268 656l-272 -656h-194z" />
<glyph unicode="&#xe1f;" horiz-adv-x="1662" d="M10 1148h340l175 -648l242 648h198l237 -648l227 1079h334l-401 -1579h-228l-268 656l-272 -656h-194z" />
<glyph unicode="&#xe20;" horiz-adv-x="1437" d="M58 0v225h167v509q0 91 22 164q21 69 59 117q39 50 89 79q53 31 110 47q54 16 123 22q72 7 131 7t131 -7q71 -6 125 -22q56 -16 110 -47q49 -29 88 -79q38 -48 59 -117t21 -164v-734h-328v721q0 49 -10 95q-8 37 -24 67q-14 27 -34 43q-22 17 -44 25q-30 11 -47 12 q-33 3 -47 3q-15 0 -46 -3q-15 -1 -46 -12q-21 -8 -43 -25q-20 -16 -35 -43q-15 -30 -23 -67q-10 -46 -10 -93v-723h-498z" />
<glyph unicode="&#xe21;" horiz-adv-x="1394" d="M145 0v1148h329v-745q12 -41 40 -78q29 -38 61 -62q36 -27 76 -42q41 -15 77 -15q40 0 70 11q34 13 61 37q27 26 45 68q16 42 16 103v723h331v-734q0 -113 -33 -194t-88 -135q-53 -53 -128 -81q-71 -26 -154 -26q-50 0 -103 11q-54 11 -97 32q-45 21 -91 58 q-43 35 -84 85v-164h-328z" />
<glyph unicode="&#xe22;" horiz-adv-x="1348" d="M111 386q0 54 18 102q17 45 45 76q26 30 57 49q27 16 58 24q-35 10 -69.5 36t-58.5 60q-28 39 -39 77q-12 44 -8 94q4 53 29 101q28 53 65 85q41 34 98 55q56 21 122 21q42 0 64 -1q45 -3 67 -7q44 -8 68 -17q40 -14 72 -32v-203q-21 14 -46 27q-24 12 -39 15 q-28 6 -33 7q-11 1 -33 1q-27 0 -45 -9q-22 -13 -32 -25q-12 -16 -18 -37q-7 -23 -7 -40q0 -25 9 -50q8 -24 26 -44.5t53 -33.5q31 -12 80 -14h17q3 0 10.5 1t11.5 1t12 0.5t12 0.5q10 0 24 3l-2 -153q-42 0 -96 -10q-43 -8 -80 -28q-38 -19 -59 -51q-21 -31 -21 -78 q0 -53 18 -89t51 -61q28 -22 68 -33t79 -11q30 0 47 2q22 4 49 13q25 8 46 25t37 43q16 25 27 67q9 37 9 94v709h330v-734q0 -98 -22 -165q-24 -72 -62 -117q-44 -53 -90 -79q-56 -31 -114 -47q-57 -16 -126 -23q-60 -5 -133 -5q-120 0 -221 21q-100 21 -172 68 q-71 47 -111 126q-42 84 -42 193z" />
<glyph unicode="&#xe23;" horiz-adv-x="1031" d="M83 816q0 83 32 144q36 69 93 113q61 46 145 71q88 26 186 26q52 0 98 -4q48 -4 89 -12q31 -7 84 -25q40 -14 85 -38v-246q-55 39 -110 64q-51 24 -104 38q-56 14 -89 18q-53 5 -65 5q-18 0 -41 -4q-24 -4 -43 -14q-17 -9 -33 -29q-15 -20 -15 -47q0 -25 23 -46 q18 -16 64 -40q30 -16 89 -41q23 -9 102 -47q44 -21 101 -57q44 -27 89 -75q41 -43 63 -95q23 -55 23 -123q0 -89 -29 -160q-27 -65 -87 -117q-55 -47 -141 -72q-83 -25 -192 -25q-77 0 -129 7q-74 10 -117 18t-91 23q-39 13 -57 24v253q83 -49 169 -74q88 -25 186 -25 q39 0 73 4q26 4 55 17q25 11 37 27t12 41q0 34 -24 57q-28 29 -64 48q-42 22 -89 41q-66 28 -101 45q-62 29 -101 53q-47 27 -89 69q-37 37 -63 90q-24 50 -24 120z" />
<glyph unicode="&#xe24;" horiz-adv-x="1381" d="M145 0v1148l546 11q54 2 132 -5q66 -6 126 -25q61 -19 113 -50q53 -32 92 -81q37 -47 61 -121q22 -69 22 -165v-1169h-329v1158q0 57 -10 94q-11 42 -26 67q-16 26 -38 43q-21 17 -46 25q-28 9 -49 11q-33 3 -48 1l-217 -9v-708h1h166v-225h-496z" />
<glyph unicode="&#xe25;" horiz-adv-x="1277" d="M79 261q0 66 27 125q23 52 73 100q46 44 116 81q74 40 150 67q83 30 176 54q121 31 199 49q2 39 -4 79q-6 38 -29 69t-67 49q-48 20 -121 20q-52 0 -113 -13t-123 -37q-57 -23 -121 -64q-52 -34 -106 -92v283q129 69 257 103q136 36 277 36q108 0 199 -19q88 -19 151 -61 t96.5 -108.5t33.5 -158.5v-823h-330v556q-94 -24 -165 -47q-79 -26 -128 -53q-53 -28 -82 -64q-28 -34 -28 -78q0 -25 11 -47q10 -20 28 -38q18 -17 42 -26q23 -8 44 -8q27 0 53 5q24 5 54 17v-170q-64 -33 -133 -51q-58 -15 -130 -15q-64 0 -122 23q-55 23 -97 63 q-41 39 -64 89q-24 51 -24 105z" />
<glyph unicode="&#xe26;" horiz-adv-x="1437" d="M58 0v225h167v509q0 91 22 164q21 69 59 117q39 50 89 79q53 31 110 47q54 16 123 22q72 7 131 7t131 -7q71 -6 125 -22q56 -16 110 -47q49 -29 88 -79q38 -48 59 -117t21 -164v-1191h-328v1178q0 49 -10 95q-8 37 -24 67q-14 27 -34 43q-22 17 -44 25q-30 11 -47 12 q-33 3 -47 3q-15 0 -46 -3q-15 -1 -46 -12q-21 -8 -43 -25q-20 -16 -35 -43q-15 -30 -23 -67q-10 -46 -10 -93v-723h-498z" />
<glyph unicode="&#xe27;" horiz-adv-x="1050" d="M60 856v231q33 18 82 36q53 19 90 28q46 10 92 17q41 5 80 5q143 0 253 -42q114 -43 188 -116q78 -78 117 -187q40 -112 40 -250q0 -127 -39 -236q-40 -113 -114 -190q-78 -83 -182 -127q-108 -46 -244 -46q-48 0 -88 4t-79 13q-44 9 -84 25q-64 26 -96 40v248 q34 -21 71 -38q31 -14 77 -26q41 -12 75 -16q37 -4 71 -4q71 0 122 27q51 26 88 73q35 46 54 111q17 58 17 139q0 93 -17 152q-18 64 -55.5 112.5t-89.5 72.5q-54 25 -123 25q-27 0 -60 -4q-32 -4 -72 -13q-23 -5 -84 -25q-37 -12 -90 -39z" />
<glyph unicode="&#xe28;" horiz-adv-x="1405" d="M145 -1v720q0 96 22 162q24 72 61 117q39 47 94 79q54 31 116 48q74 19 129 25q59 5 136 5h20h671v-210h-232q21 -18 35 -37q19 -27 32 -56q16 -37 23 -74q10 -48 10 -89v-689h-331v709q0 56 -9 93q-11 42 -27 67q-14 23 -42 43q-23 17 -47 25q-33 11 -53 12q-36 3 -50 3 q-33 0 -51 -3q-26 -4 -52 -12q-26 -9 -48 -25q-24 -17 -40 -45q-18 -29 -28 -66t-10 -93v-155q38 62 83 95q44 32 102 32q22 0 40 -6q25 -7 39 -15t33 -22q25 -19 30 -23l-63 -232q-31 30 -60 38t-51 8q-17 0 -38 -8q-18 -7 -40 -25q-20 -17 -40 -47q-19 -29 -35 -70v-278z " />
<glyph unicode="&#xe29;" horiz-adv-x="1380" d="M145 414v734h329v-709q0 -57 10 -94q11 -42 26 -67q16 -26 38 -43q21 -17 46 -25q26 -9 48 -13q17 -2 49 -2q30 0 47 2q22 4 49 13q25 8 46 25q24 19 39 43q15 25 26 67q8 31 8 94v156h-144v58l453 524h23v-368h124v-214h-125v-181q0 -97 -22 -164q-25 -74 -61 -118 q-43 -52 -92 -79q-57 -32 -113 -47q-56 -16 -128 -23q-59 -5 -132 -5q-71 0 -130 5q-64 6 -128 24q-56 15 -113 47q-55 31 -91 78q-36 45 -60 118q-22 67 -22 164z" />
<glyph unicode="&#xe2a;" horiz-adv-x="1292" d="M79 261q0 67 27 124q24 52 73 97t116 78q61 31 150 63q88 31 176 53q185 44 199 47q2 44 -8.5 83.5t-35.5 69.5q-27 31 -70 47q-44 17 -107 17q-48 0 -113 -11q-61 -11 -123 -34q-70 -26 -121 -58q-58 -38 -106 -89v269q129 69 257 103q136 36 277 36h610v-211h-226 q9 -7 27 -33q19 -25 32 -59q16 -37 25 -77q12 -47 12 -95v-681h-331v542q-39 -10 -164 -44q-69 -19 -128 -49q-53 -26 -82 -59.5t-29 -75.5q0 -25 11 -47q8 -17 29 -38q18 -18 40 -26q23 -8 46 -8q27 0 53 5q24 5 54 17v-170q-64 -33 -133 -51q-58 -15 -130 -15 q-64 0 -122 23q-55 23 -97 63q-41 39 -64 89q-24 51 -24 105z" />
<glyph unicode="&#xe2b;" horiz-adv-x="1395" d="M145 0v1148h328v-531v-33q0 -6 -1 -19t-1 -20q0 -14 -3 -42q0 -6 -0.5 -13.5l-1 -15t-0.5 -13.5q-3 -30 -9 -94q14 42 39 100q22 49 52 102q30 54 76 118l332 461h338l-300 -400q51 -15 99 -45q48 -31 82 -77q34 -49 55 -121q21 -71 21 -174v-331h-329v378q0 39 -6 63 q-7 28 -17 48q-11 23 -23 35t-31 24l-411 -548h-289z" />
<glyph unicode="&#xe2c;" horiz-adv-x="1585" d="M10 1148h324l139 -689l194 319h159l194 -319l52 233q12 64 -2 109t-48 75q-32 28 -80 43q-43 14 -94 14q-36 0 -53 -3q-50 -8 -57 -10l-1 209q33 5 47 8q12 3 43 6q42 4 43 4q7 0 24 0.5t26 0.5h549v-210h-171q26 -22 42 -53q19 -38 26 -73q9 -45 7 -95q-2 -57 -15 -111 l-146 -606h-192l-274 478l-273 -478h-194z" />
<glyph unicode="&#xe2d;" horiz-adv-x="1346" d="M142 135v525h489v-212h-156v-224q29 -13 78 -24q44 -10 109 -5q72 4 118 37q46 34 73 86q30 57 39 116q12 69 12 129q0 44 -2 72q-2 37 -11 84q-7 33 -29 83q-18 39 -53 72q-34 33 -88 52t-127 19q-48 0 -113 -7q-39 -4 -117 -21q-47 -10 -117 -33q-50 -17 -105 -44v233 q54 26 98 39q70 21 120 31q68 13 131 19q74 7 132 7q156 0 271 -43q120 -45 197 -122q81 -81 120 -189q40 -113 40 -242t-40 -239q-40 -108 -120 -188q-81 -81 -194 -124q-119 -44 -267 -44q-71 0 -144 12q-78 14 -137 32q-64 20 -120 50q-54 29 -87 63z" />
<glyph unicode="&#xe2e;" horiz-adv-x="1349" d="M142 135v525h489v-212h-156v-224q29 -13 78 -24q44 -10 109 -5q74 4 118 36q47 34 73 83q29 53 39 114q12 67 12 128q0 46 -2 72q-2 34 -11 81q-7 35 -29 82q-18 38 -53 71q-32 30 -88 50q-54 19 -127 19q-48 0 -113 -7q-39 -4 -117 -20q-47 -11 -117 -34 q-50 -17 -105 -44v233q54 26 98 39q70 21 120 31q42 8 131 19q66 8 130 8h688v-211h-228q41 -28 71 -68q34 -45 53 -90q21 -50 33 -107q13 -57 13 -114q0 -128 -40 -238q-40 -108 -120 -186t-194 -121q-115 -43 -267 -43q-71 0 -144 12q-78 14 -137 32q-64 20 -120 50 q-54 29 -87 63z" />
<glyph unicode="&#xe2f;" horiz-adv-x="1416" d="M142 795q0 84 28 147q31 72 76 117q48 48 113 75q66 28 139 28q39 0 57 -1q36 -3 52 -6q25 -4 50 -12q11 -4 55 -23v-193q-34 12 -60 17q-23 4 -47 4q-7 0 -27 -3q-13 -2 -30 -8q-11 -4 -34 -18q-19 -12 -30 -29q-12 -18 -21 -45q-7 -21 -7 -60q0 -9 3 -37q2 -23 9 -42 q8 -19 21 -39q15 -23 36 -36q25 -16 55 -24q36 -9 73 -9q18 0 63 5q30 4 67 16q31 10 65 27q28 15 57 42v459h331v-1146l-331 2v474q-32 -22 -72.5 -39t-80.5 -25q-42 -9 -81 -13t-75 -4q-103 0 -189 28q-88 29 -143 78q-60 53 -90 126q-32 77 -32 167z" />
<glyph unicode="&#xe30;" horiz-adv-x="854" d="M90 131v332h299v-107h377v-225h-676zM90 706v334h299v-107h377v-227h-676z" />
<glyph unicode="&#xe31;" d="M-933 1304v336h299v-144h620v-192h-919z" />
<glyph unicode="&#xe32;" horiz-adv-x="928" d="M42 851v223q15 9 55 27q24 10 93 29q59 16 121 24q81 10 145 8q163 -2 247 -78q82 -73 82 -224v-860h-329v820q0 39 -14 67q-13 25 -32 39q-20 14 -44 18q-25 4 -52 4q-26 0 -55 -6q-35 -6 -74 -19q-42 -14 -75 -31q-42 -20 -68 -41z" />
<glyph unicode="&#xe33;" horiz-adv-x="928" d="M-537 1523q0 43 19 88q15 39 48 72t72 49q46 18 88 18t88 -18q39 -16 72 -49t49 -72q18 -45 18 -88t-18 -89q-15 -37 -49 -70q-33 -33 -72 -49q-42 -17 -88 -17t-88 17q-39 16 -72 49q-34 33 -48 70q-19 46 -19 89zM-378 1523.5q0 -29.5 19.5 -49t48.5 -19.5q10 0 26 6 q13 4 23 14q5 5 14 22q5 11 5 26.5t-5 26.5q-9 17 -14 22q-10 10 -23 14q-16 6 -26 6q-29 0 -48.5 -19.5t-19.5 -49zM42 851v223q15 9 55 27q24 10 93 29q59 16 121 24q81 10 145 8q163 -2 247 -78q82 -73 82 -224v-860h-329v820q0 39 -14 67q-13 25 -32 39q-20 14 -44 18 q-25 4 -52 4q-26 0 -55 -6q-35 -6 -74 -19q-42 -14 -75 -31q-42 -20 -68 -41z" />
<glyph unicode="&#xe34;" d="M-1237 1304v192h1092v-192h-1092z" />
<glyph unicode="&#xe35;" d="M-1237 1304v192h763v197h329v-389h-1092z" />
<glyph unicode="&#xe36;" d="M-1237 1304v192h702v19q2 45 21 85q17 37 48 68t70 47q39 17 86 17q42 0 88 -18q39 -16 72 -49t49 -72q18 -45 18 -88q0 -44 -18 -84q-17 -37 -45 -63t-57 -40q-28 -14 -56 -14h-978zM-378 1505q0 -29 19.5 -48.5t48.5 -19.5q10 0 26 6q13 4 23 14q5 5 14 22q5 11 5 26.5 t-5 26.5q-9 16 -14.5 22t-22.5 14q-11 5 -26 5t-26 -5q-17 -8 -23 -14q-9 -10 -14 -22q-5 -17 -5 -27z" />
<glyph unicode="&#xe37;" d="M-1237 1304v192h359v196h293v-196h149v196h291v-388h-1092z" />
<glyph unicode="&#xe38;" d="M-570 -142h425v-375h-294v185h-131v190z" />
<glyph unicode="&#xe39;" d="M-934 -142h353v-130q0 -12 7 -24q8 -13 18 -18t26 -10q15 -4 30 -4q12 0 25 4q13 5 22 10t17 18q5 9 5 24l-1 130h287v-143q0 -59 -22 -101t-65 -73q-43 -29 -102 -44q-55 -14 -130 -14h-84q-57 0 -94 8q-49 11 -82 31q-39 23 -60 51t-25 73v22h-125v190z" />
<glyph unicode="&#xe3a;" d="M-498 -292q0 38 14 70q15 34 38 57q20 20 57 37q30 14 68 14t69 -14q33 -14 56 -37q22 -23 38 -57q13 -32 13 -70t-13 -68q-18 -37 -38 -56q-28 -25 -56 -37q-31 -14 -69 -14t-68 14q-33 15 -57 37q-20 19 -38 56q-14 30 -14 68z" />
<glyph unicode="&#xe3d;" />
<glyph unicode="&#xe3e;" />
<glyph unicode="&#xe3f;" horiz-adv-x="1390" d="M158 0v1362h427v143h179v-143q112 0 191 -25q75 -24 131 -68q50 -40 76 -99q25 -56 25 -118q0 -41 -14 -90q-13 -47 -36 -79q-26 -38 -58 -66q-31 -27 -78 -47q82 -22 142 -64q54 -38 89 -90q33 -51 45 -106q14 -62 14 -110q0 -30 -8 -72q-10 -48 -28 -86 q-21 -44 -54 -88q-35 -46 -85 -78q-55 -35 -124 -55q-70 -21 -166 -21h-62v-217h-179v217h-427zM442 236h143v362h-143v-362zM442 834h143v292h-143v-292zM764 236q70 0 116 17t71 42q24 24 35 58q9 31 9 72q0 40 -15 68q-17 32 -46 55q-31 24 -67 36q-41 14 -83 14h-20 v-362zM764 835q43 5 70 21q32 20 46 39q17 24 25 47q7 21 7 46q0 19 -7 45q-6 20 -24 43q-15 20 -46 35q-26 13 -71 15v-291z" />
<glyph unicode="&#xe40;" horiz-adv-x="617" d="M145 0v1148h328v-1148h-328z" />
<glyph unicode="&#xe41;" horiz-adv-x="1164" d="M145 0v1148h328v-1148h-328zM692 0v1148h330v-1148h-330z" />
<glyph unicode="&#xe42;" horiz-adv-x="683" d="M-92 1432q4 82 39 147q34 63 92 104q59 43 132 63q70 19 163 19q59 0 105 -9q41 -9 95 -27q38 -13 79 -32q26 -12 60 -32l-70 -155q-67 35 -130 51q-62 15 -103 15q-56 0 -100 -22q-43 -22 -64 -65q23 -10 47 -23q35 -18 58 -38q34 -29 60 -63q33 -42 53 -88 q23 -51 37 -119q14 -64 14 -154v-779h162v-225h-484v1004q0 85 -13 150q-12 64 -30 108q-19 47 -45 77q-25 29 -52 48q-28 19 -55 29q-14 6 -50 16z" />
<glyph unicode="&#xe43;" horiz-adv-x="683" d="M-86 1436q-4 87 26 149q32 63 85 104q55 42 122 62q74 23 139 23q111 0 192 -31q79 -30 122 -75t63 -108q18 -59 18 -123q-22 -15 -71 -54q-32 -26 -54 -56q-21 -29 -39 -70q-16 -40 -25 -95q-8 -53 -12 -131q-5 -75 -5 -175v-631h162v-225h-484v823q0 106 7 167 q10 84 21 129q13 54 36 101q22 48 48 84q19 25 63 69q33 34 75 67q0 28 -10 51q-11 28 -27 46q-20 22 -44 34q-22 11 -54 11q-28 0 -53 -6q-28 -6 -50 -22q-26 -19 -39 -44q-15 -31 -15 -74h-197z" />
<glyph unicode="&#xe44;" horiz-adv-x="683" d="M-133 1540l86 216q47 -34 100 -57q37 -17 89 -30q34 -8 72 -11q21 -1 50 -1h45q24 0 77 10q45 8 98 29q50 20 101 58l116 -225q-25 -14 -67 -42q-33 -22 -57 -50q-22 -26 -43 -72t-32 -103q-14 -68 -20 -147q-7 -95 -7 -200v-690h163v-225h-485v909q0 99 3 140 q4 62 12 114q9 57 22 95q16 45 38 81q24 39 54 73q26 29 74 73q-13 -7 -40 -16q-5 -1 -44 -8q-23 -4 -44 -4q-8 0 -22 -1t-21 -1q-37 0 -77 5q-33 3 -80 15q-43 10 -82 26t-79 39z" />
<glyph unicode="&#xe45;" horiz-adv-x="928" d="M42 851v223q15 9 55 27q24 10 93 29q59 16 121 24q81 10 145 8q163 -2 247 -78q82 -73 82 -224v-1319h-329v1279q0 39 -14 67q-13 25 -32 39q-20 14 -44 18q-25 4 -52 4q-26 0 -55 -6q-35 -6 -74 -19q-42 -14 -75 -31q-42 -20 -68 -41z" />
<glyph unicode="&#xe46;" horiz-adv-x="1316" d="M120 488v659h318l208 -207l210 207h317v-1139q0 -74 -17 -134q-15 -57 -44 -106q-31 -52 -64 -84q-34 -32 -81 -62q-48 -32 -86 -49q-49 -22 -89 -37l-111 222q24 6 57 24q27 14 57 44q27 28 45 68q16 40 16 96v877l-201 -203h-16l-216 202v-377z" />
<glyph unicode="&#xe47;" d="M-1172 1537v10q0 76 28 120q31 48 78 73q50 27 117 38q62 10 146 10h592v-173h-573q-11 0 -39 -2.5t-39 -8.5q-18 -9 -28 -22q-11 -16 -11 -42v-5q0 -19 10 -34q8 -12 21 -21q11 -7 25 -9q17 -3 18 -3h35q21 0 44 7q14 4 36 15q16 8 28 22q12 15 17 25h92q13 -22 32 -39 q12 -11 40 -19q21 -6 50 -8q39 -3 64 -3h5q41 0 89 10q39 7 84 38v-182q-15 -12 -42 -26q-12 -6 -43 -15q-14 -4 -42 -7q-14 -2 -35 -2h-50q-30 0 -63 11q-36 12 -57 28q-26 19 -46 42q-23 24 -32 46q-11 -25 -31 -46q-21 -23 -46 -42q-20 -15 -58 -28q-34 -11 -67 -11h-39 q-159 0 -233 64q-77 66 -77 189z" />
<glyph unicode="&#xe48;" d="M-439 1831v361h299v-361h-299z" />
<glyph unicode="&#xe49;" d="M-653 2237q21 7 64 13q44 7 89 7q40 0 77 -14q33 -12 56 -33q20 -18 35 -47q11 -22 11 -47q0 -23 -6 -39q-7 -22 -14 -34q-8 -14 -16 -25q-6 -7 -16 -16q60 0 91 2q58 6 90 12q48 8 91 22q47 15 87 36v-164q-23 -13 -54 -25q-16 -6 -68 -21q-32 -9 -78 -18 q-31 -6 -81 -11q-105 -9 -185 0q-84 9 -151 30v114q40 10 60 32q18 20 18 49q0 17 -10 32q-8 12 -24 21q-12 7 -32 10q-11 1 -32 1z" />
<glyph unicode="&#xe4a;" d="M-826 2041q0 45 17 84q15 36 50 68q31 29 74 44q48 16 94 12q20 -3 31 -6q19 -4 30 -9q24 -10 30 -14q2 -2 10.5 -7t12.5 -8q18 15 52 29q33 13 62 15q45 4 93 -8q41 -11 73 -35q31 -24 47 -57q17 -33 17 -75q0 -31 -9 -56q-9 -26 -22 -36q24 4 49 14q22 9 52 25 l19.5 10.5t16 9.5t17.5 12q34 25 49 40v-164q-41 -31 -74 -46q-48 -21 -79 -29q-46 -11 -83 -15q-53 -5 -88 -7h-37q-14 0 -39 3q-6 0 -12.5 0.5l-13 1t-11.5 1.5q-5 0 -25 5v100q50 -6 77 14q28 22 28 75q0 37 -16 59q-13 19 -34 19q-22 0 -38 -18q-14 -16 -17 -49h-116 q0 28 -14 49q-12 18 -35 18q-18 0 -33 -19q-14 -18 -14 -59q0 -53 28 -75q26 -20 75 -14v-97q-15 -7 -38 -11q-33 -6 -46 -6q-39 0 -75 11q-34 11 -55 27q-19 13 -39 39q-16 19 -25 46q-8 21 -13 47q-3 15 -3 42z" />
<glyph unicode="&#xe4b;" d="M-584 1967v174h157v136h285v-136h159v-174h-159v-136h-285v136h-157z" />
<glyph unicode="&#xe4c;" d="M-475 1849q0 48 16.5 87.5t45.5 70.5q27 29 71 53q43 23 89 38q52 15 103 23q48 8 111 10v-143q-99 -9 -151 -39q-50 -29 -50 -86q0 -20 11 -34q11 -13 26 -21q13 -6 32 -11q17 -4 28 -4v-142q-74 -4 -138 7q-62 11 -104 35q-46 26 -67 63q-23 40 -23 93z" />
<glyph unicode="&#xe4d;" d="M-537 1498q0 43 19 88q15 39 48 72t72 49q46 18 88 18t88 -18q39 -16 72 -49t49 -72q18 -45 18 -88t-18 -89q-15 -37 -49 -70q-33 -33 -72 -49q-42 -17 -88 -17t-88 17q-39 16 -72 49q-34 33 -48 70q-19 46 -19 89zM-378 1498.5q0 -29.5 19.5 -49t48.5 -19.5q10 0 26 6 q13 4 23 14q5 5 14 22q5 11 5 26.5t-5 26.5q-9 17 -14 22q-10 10 -23 14q-16 6 -26 6q-29 0 -48.5 -19.5t-19.5 -49z" />
<glyph unicode="&#xe4e;" d="M-470 1507q0 35 13 66q13 34 32 56q17 21 48 40q25 16 59 27q-43 47 -43 122q0 51 16 90q15 36 48 69q23 23 70 45q41 20 85 30q41 9 95 14q42 3 96 1v-140q-52 0 -75 -3q-35 -4 -64 -17q-29 -12 -46 -36q-17 -23 -17 -63q0 -17 10 -31.5t25 -22.5q22 -11 36 -14 q29 -6 40 -7l4 -115q-19 -2 -50 -5.5t-40 -4.5q-37 -3 -69 -15q-28 -10 -46 -28q-17 -17 -17 -44q0 -22 14 -34q18 -15 33 -22q14 -6 39 -11q21 -4 31 -4v-142q-69 -9 -125 1q-60 11 -105 37q-45 25 -70 65q-27 40 -27 96z" />
<glyph unicode="&#xe4f;" horiz-adv-x="1337" d="M61 567q0 79 22 159q20 70 62 140q41 70 94 121q55 53 124 92q71 39 144 59q77 21 161.5 21t161.5 -21q74 -20 144 -59q69 -39 124 -92q53 -51 95 -121q41 -70 61 -140q22 -80 22 -159q0 -75 -22 -156q-20 -72 -61 -141q-40 -67 -95 -120q-59 -56 -124 -93 q-34 -19 -70.5 -34.5t-73.5 -25.5q-82 -22 -161 -22t-162 22q-73 20 -144 60q-65 37 -124 93q-55 53 -94 120q-42 70 -62 140q-22 80 -22 157zM263 573q0 -85 32 -164q29 -74 87 -134q52 -53 130 -89q72 -33 157 -33t158 33q75 35 128 89q58 60 87 134q32 79 32 164t-32 164 q-29 73 -87 133q-55 57 -128 90q-70 32 -158 32t-157 -32q-76 -34 -130 -90q-58 -60 -87 -133q-32 -79 -32 -164zM386 570q0 52 23 103q21 48 59 85q38 35 89 57q50 20 110 20q59 0 109 -20q51 -22 89 -57q38 -37 59 -85t21 -103t-21 -103t-59 -85q-36 -33 -89 -55 q-50 -21 -109 -21q-60 0 -110 21q-53 22 -89 55q-38 37 -59 85q-23 51 -23 103zM575 570q0 -23 9 -42q10 -22 19 -33q12 -14 29 -22q17 -9 36.5 -9t36.5 9q17 8 29 22q10 11 19 33q9 19 9 42t-9 42q-9 22 -19 33q-14 16 -29 24q-20 9 -36.5 9t-36.5 -9q-15 -8 -29 -24 q-9 -11 -19 -33q-9 -19 -9 -42z" />
<glyph unicode="&#xe50;" horiz-adv-x="1616" d="M135 518q0 82 26 162q25 75 71 133q44 56 110 104q67 49 138 77q77 30 159 44q88 16 173 16q73 0 153 -13q82 -13 154 -39q74 -27 140 -68t117 -103q49 -59 78 -137q28 -76 28 -178q0 -105 -31 -182q-34 -87 -80 -141q-48 -55 -120 -100q-65 -41 -143 -67 q-86 -28 -152 -37q-82 -11 -144 -11q-89 0 -184 18q-87 17 -162 50q-79 35 -137 80q-62 50 -104 108q-43 59 -67 132q-23 73 -23 152zM484 518q0 -70 14 -122q15 -59 37 -93q26 -41 56 -67q33 -29 68 -44q39 -18 75 -25q40 -9 78 -9q66 0 125 25q59 26 102.5 71.5 t69.5 115.5q27 70 27 154q0 82 -24 143q-25 65 -68 110q-46 48 -103 72q-58 25 -129 25q-60 0 -123 -22q-57 -20 -105 -67q-44 -42 -72 -111q-28 -68 -28 -156z" />
<glyph unicode="&#xe51;" horiz-adv-x="1616" d="M161 61v213q66 -26 138 -45q61 -16 140 -30q77 -14 134 -20q71 -7 116 -7q86 0 151 17q68 18 111 43q48 29 76 63q30 36 47 75q21 45 25 76q7 44 7 74q0 42 -5 78q-7 42 -21 76q-16 40 -39 68q-26 32 -60 54q-37 25 -84 37q-56 14 -116 14q-23 0 -68 -3q-25 -2 -65 -7 q-9 -1 -19 -3t-20.5 -4t-16.5 -3q-7 -1 -15 -3t-16 -4.5t-12 -3.5v-199h150v-186h-465v499q56 24 123 46q43 14 138 36q72 17 149 25q92 10 162 10q172 2 291 -36q120 -39 201 -112q81 -72 118 -172q39 -104 39 -217q0 -117 -51 -219q-48 -97 -147 -170t-233 -111 q-135 -39 -310 -39q-63 0 -151 7q-86 7 -152 18q-77 13 -138.5 29t-111.5 36z" />
<glyph unicode="&#xe52;" horiz-adv-x="1616" d="M114 414v902h322v-873q0 -49 19 -87q17 -37 48 -68q32 -32 70 -52q46 -24 80 -34q56 -17 84 -21q37 -6 75 -6t75 6q25 3 82 21q36 10 79 34q38 21 68 52q32 32 47 68q19 43 19 87v274l-272 -215l-340 244v292l340 -258l313 258h282v-622q0 -85 -30 -148q-31 -64 -84 -112 q-58 -54 -119 -84q-69 -33 -146 -54q-86 -23 -159 -31q-94 -9 -155 -9t-156 9q-73 8 -158 31q-74 20 -148 56q-70 34 -122 82t-83 112q-31 63 -31 146z" />
<glyph unicode="&#xe53;" horiz-adv-x="1616" d="M175 328v709h284l347 -267l353 267h284v-1037h-325v717l-312 -226l-306 226v-376q0 -37 9 -52q11 -21 29 -30q17 -10 46 -14q18 -3 65 -3l2 -245q-51 0 -134 6q-55 3 -115 18q-51 12 -95 36q-42 23 -71 60q-29 38 -46 89q-15 48 -15 122z" />
<glyph unicode="&#xe54;" horiz-adv-x="1616" d="M113 520q0 118 51 221q50 100 147 172t239 114q137 41 323 41q76 0 171 -7q93 -7 163 -19q79 -12 144 -29q68 -17 111 -34v-215q-60 24 -135 44q-78 20 -141 32q-78 13 -144 19q-63 6 -141 6q-91 0 -157 -17q-71 -18 -116 -43q-46 -27 -82 -64q-32 -34 -51 -75 q-18 -37 -27 -79q-7 -33 -7 -75q0 -60 17 -106q19 -53 59 -99q34 -39 105 -76q65 -34 156 -46q-66 41 -99 97q-32 56 -32 124q0 47 17 82q19 39 55 72q32 28 95 52q56 20 133 20q48 0 89 -4q44 -4 91 -12v-145q-13 4 -40.5 7t-30.5 3q-35 0 -56 -11q-26 -15 -39 -31 q-16 -21 -23 -39q-7 -17 -7 -39t5 -44q7 -26 28 -52q19 -23 60 -44q38 -20 103 -26q-2 -2 -4 -6q105 11 179 26q85 18 143 38v-189q-142 -46 -297 -67q-140 -18 -331 -21q-183 0 -319 42q-139 43 -226 114q-93 76 -135 171q-44 102 -44 217z" />
<glyph unicode="&#xe55;" horiz-adv-x="1616" d="M128 520q0 103 37 190q38 89 109 157q71 69 175 117q102 47 238 68q-13 34 -13 70q0 47 21 89q22 43 54 72q32 28 82 49q44 18 100 18q55 0 99 -18q50 -21 82 -49q35 -31 56 -72q19 -39 19 -89q0 -40 -14 -74q113 -15 173 -29q86 -21 133 -40v-215q-57 23 -136 43.5 t-142 32.5q-77 13 -143 19q-63 6 -142 6q-90 0 -157 -17q-73 -18 -117 -43q-43 -25 -80 -64q-32 -34 -52 -75q-17 -37 -26 -79q-9 -40 -9 -75q0 -56 18 -106q20 -53 59 -99q35 -41 104 -76q65 -34 156 -46q-64 39 -98 97q-33 59 -33 124q0 44 18 82q19 39 56 72q32 29 93 52 q56 20 133 20q48 0 89 -4q47 -4 92 -12v-145q-12 4 -40 7t-32 3q-35 0 -56 -11q-26 -15 -39 -31q-13 -17 -22 -39q-8 -21 -8 -39q0 -16 7 -44q6 -26 27 -52q20 -23 60 -44q38 -20 103 -26q-1 -2 -4 -6q105 11 179 26q81 17 142 38v-189q-143 -46 -296 -67q-139 -18 -331 -21 q-183 0 -318 42q-142 44 -227 113q-92 75 -135 172q-44 102 -44 217zM855 1121.5q0 -15.5 5 -26.5q7 -12 17 -21q16 -12 24 -15q12 -4 30 -4q14 0 28 4q9 3 25 15q11 9 17 21q5 11 5 26.5t-5 26.5q-6 13 -17 21q-16 13 -25 15q-19 6 -28 6q-14 0 -30 -6q-8 -2 -24 -15 q-10 -8 -17 -21q-5 -11 -5 -26.5z" />
<glyph unicode="&#xe56;" horiz-adv-x="1616" d="M215 749v567h324v-283q7 1 21 3.5t20 3.5q13 2 44 5q200 17 353 -11q146 -26 250 -96q97 -64 149 -172q49 -101 49 -242q0 -133 -50 -235q-48 -97 -148 -171q-47 -35 -105.5 -61.5t-127.5 -43.5q-140 -37 -312 -37q-70 0 -152 10q-74 9 -128 22q-55 14 -103 34 q-40 16 -81 41v212q49 -32 109 -56t112 -36q63 -14 113 -19.5t108 -5.5q90 0 160 19q78 22 132 60q58 41 90 100q34 61 34 141q0 81 -25 143q-27 65 -84 114q-54 46 -146 72q-85 25 -212 18q-80 -5 -117 -11q-63 -11 -96 -19q-51 -14 -87 -28t-94 -38z" />
<glyph unicode="&#xe57;" horiz-adv-x="1616" d="M21 0v1037h282l272 -267l276 267h258v-801q29 0 68 10q30 7 59 29q27 21 43 50q15 29 15 74v916h302v-901q0 -73 -20 -133q-20 -63 -51 -106q-34 -47 -76.5 -79t-97.5 -54q-56 -23 -107 -32q-52 -10 -113 -10h-322v717l-234 -226l-230 226v-717h-324z" />
<glyph unicode="&#xe58;" horiz-adv-x="1616" d="M133 506q0 125 52 228q52 104 149 178q95 73 239 115q137 41 322 41q75 0 170 -7q93 -7 162 -19q76 -12 144 -29q74 -18 114 -34v-215q-58 23 -136.5 43.5t-141.5 32.5q-78 13 -144 19q-63 6 -141 6q-91 0 -158 -17q-72 -18 -116 -43t-81 -64q-32 -34 -51 -75 q-18 -37 -27 -79q-8 -40 -8 -75q0 -37 5 -84q5 -36 14.5 -61t27.5 -50q17 -23 42 -46l214 207h64l249 -240q28 0 50 11q18 9 32 28q12 16 16.5 37t4.5 42q0 42 -13 67q-12 24 -32 37q-20 14 -40 15q-23 2 -42 0v167q44 5 83 3q41 -2 92 -11q41 -8 86 -28q38 -17 74 -53 q32 -32 52 -82q19 -50 19 -115q0 -39 -8 -81q-10 -47 -25 -82q-18 -38 -50 -78q-34 -39 -77 -65q-47 -28 -110 -44q-62 -17 -147 -17l-245 246l-242 -249q-92 9 -173 54q-81 46 -141 116q-61 71 -94 161q-34 90 -34 189z" />
<glyph unicode="&#xe59;" horiz-adv-x="1616" d="M89 524q0 112 29 210q30 101 90 170q64 72 165 113q101 43 243 45h110q64 0 111 -6l100 -197q18 57 50 97q28 36 75 64q40 24 96 35q50 10 114 10q19 0 61 -3q32 -2 65 -8q49 -9 70 -16q38 -11 72 -26v-202q-29 20 -65 32q-42 15 -88 21q-49 7 -93 3q-42 -4 -83 -29 q-39 -25 -57 -54q-21 -34 -34 -71q-11 -35 -14 -81q-1 -38 3 -85l298 -546h-276l-447 828q-13 2 -36 5q-13 1 -45 -2q-20 -1 -48 -11q-22 -7 -43 -26q-43 -39 -62 -109q-19 -73 -19 -187q0 -46 4 -89q5 -47 14 -81q9 -33 28 -68q17 -32 46 -53q24 -18 54 -28q26 -8 68 -11 q31 -2 75 6q25 4 75 23v-189q-6 -1 -22.5 -5t-29.5 -7l-26 -6q-46 -9 -93 -11q-18 -1 -55 -1q-20 0 -56 3q-31 2 -50 5q-17 3 -42 8q-81 19 -144 66q-61 44 -103 114q-44 72 -64 157q-21 87 -21 193z" />
<glyph unicode="&#xe5a;" horiz-adv-x="1937" d="M142 795q0 84 28 147q31 72 76 117q48 48 113 75q66 28 139 28q39 0 57 -1q36 -3 52 -6q25 -4 50 -12q11 -4 55 -23v-193q-34 12 -60 17q-23 4 -47 4q-7 0 -27 -3q-13 -2 -30 -8q-11 -4 -34 -18q-19 -12 -30 -29q-12 -18 -21 -45q-7 -21 -7 -60q0 -9 3 -37q2 -23 9 -42 q8 -19 21 -39q15 -23 36 -36q25 -16 55 -24q36 -9 73 -9q18 0 63 5q30 4 67 16q31 10 65 27q28 15 57 42v459h331v-1146l-331 2v474q-32 -22 -72.5 -39t-80.5 -25q-42 -9 -81 -13t-75 -4q-103 0 -189 28q-88 29 -143 78q-60 53 -90 126q-32 77 -32 167zM1465 3v1145h329 v-1145h-329z" />
<glyph unicode="&#xe5b;" horiz-adv-x="2299" d="M86 553q0 120 32 223q31 98 96 172q61 69 157 110q96 40 220 40q73 0 133 -17q63 -17 106 -44q52 -33 80 -65q36 -40 56 -82q22 -47 32 -92q11 -51 11 -96q0 -74 -28 -138t-71 -105q-44 -43 -104 -68q-55 -24 -125 -24v186q19 0 33 13q17 14 25 30q11 22 17 48q6 24 6 55 q0 48 -10 85t-32 68q-20 28 -53 45q-33 16 -78 16q-48 0 -90 -25t-71 -71q-32 -50 -47 -109q-17 -65 -17 -142q0 -43 9 -89q6 -37 26 -86q16 -42 44 -78q32 -42 63 -64q33 -24 85 -42q44 -15 107 -15q94 0 169 35q80 36 136.5 101t90.5 161q32 92 36 216q0 66 -1 100 q-3 70 -9 108h209q32 -42 51 -71q17 -25 45 -72t37 -67q4 -7 10.5 -20l11.5 -23l9 -18q20 42 47 92q17 30 50 89l95 3q26 -53 43 -84q40 -73 51 -91q17 22 34 45q11 16 36 46q14 14 19 18q10 7 20 11q13 6 25 7q19 3 36 3l306 3v-178h-273q-12 0 -18 -3q-8 -4 -15 -11 q-10 -11 -32 -36q-16 -18 -35 -43q-21 -28 -37 -56q-19 -30 -41 -72h-72l-7 14q-15 30 -43 83q-32 60 -46 82q-28 -47 -44 -82q-23 -48 -50 -112h-98q-5 14 -48 112q-16 35 -45 93l-1 -19q0 -4 -1 -9t-1 -6q-15 -99 -47 -175q-31 -75 -82 -141q-43 -57 -110 -107 q-57 -43 -130 -74q-70 -28 -146 -43q-74 -14 -155 -14q-94 0 -178 24q-80 23 -147 63q-62 37 -115 94q-50 54 -84 117q-35 67 -51 132q-17 69 -17 136z" />
<glyph unicode="&#xe74;" />
<glyph unicode="&#x2000;" horiz-adv-x="1138" />
<glyph unicode="&#x2001;" horiz-adv-x="2277" />
<glyph unicode="&#x2002;" horiz-adv-x="1138" />
<glyph unicode="&#x2003;" horiz-adv-x="2277" />
<glyph unicode="&#x2004;" horiz-adv-x="759" />
<glyph unicode="&#x2005;" horiz-adv-x="569" />
<glyph unicode="&#x2006;" horiz-adv-x="379" />
<glyph unicode="&#x2007;" horiz-adv-x="379" />
<glyph unicode="&#x2008;" horiz-adv-x="284" />
<glyph unicode="&#x2009;" horiz-adv-x="455" />
<glyph unicode="&#x200a;" horiz-adv-x="126" />
<glyph unicode="&#x200b;" />
<glyph unicode="&#x2010;" horiz-adv-x="810" d="M75 588v259h660v-259h-660z" />
<glyph unicode="&#x2011;" horiz-adv-x="810" d="M75 588v259h660v-259h-660z" />
<glyph unicode="&#x2012;" horiz-adv-x="810" d="M75 588v259h660v-259h-660z" />
<glyph unicode="&#x2013;" horiz-adv-x="1049" d="M-14 592v250h1077v-250h-1077z" />
<glyph unicode="&#x2014;" horiz-adv-x="2100" d="M-14 592v250h2128v-250h-2128z" />
<glyph unicode="&#x2018;" horiz-adv-x="568" d="M92 1037q0 81 29 151q30 73 79 128q53 59 117 93q65 35 144 44v-95q-39 -17 -66 -46q-26 -28 -39 -62q-12 -32 -10 -68q2 -35 21 -64q58 -23 82 -59q26 -39 26 -94q0 -34 -14 -68q-12 -32 -36 -53q-25 -24 -54 -35q-28 -11 -68 -11q-49 0 -86 17q-38 16 -67 50 q-27 31 -42 75q-16 50 -16 97z" />
<glyph unicode="&#x2019;" horiz-adv-x="568" d="M92 1286q0 32 14 66q12 32 36 53q25 24 54 35q31 13 68 13q46 0 86 -19q38 -16 67 -50q27 -31 42 -75q16 -50 16 -97q0 -79 -29 -150q-30 -72 -79 -128q-52 -59 -117 -93q-65 -35 -144 -43v94q41 18 66 45q26 28 39 62q12 32 10 70q-2 35 -21 64q-58 22 -82 58 q-26 40 -26 95z" />
<glyph unicode="&#x201c;" horiz-adv-x="1182" d="M120 1037q0 81 29 151q29 73 79 128q52 59 117 93q65 35 144 44v-95q-39 -17 -66 -46q-26 -28 -39 -62q-13 -35 -11 -68q1 -33 22 -64q56 -22 80 -59q27 -39 27 -94q0 -37 -12.5 -68.5t-36.5 -52.5q-24 -23 -55 -35q-28 -11 -69 -11q-47 0 -84 17q-38 16 -67 50 q-29 33 -43 75q-15 46 -15 97zM703 1037q0 81 30 151q29 73 79 128q52 59 117 93q64 35 144 44v-95q-40 -17 -67 -46q-26 -28 -39 -62q-11 -32 -9 -68q2 -35 21 -64q58 -23 82 -59q26 -39 26 -94q0 -34 -14 -68q-12 -32 -36 -53q-26 -24 -54 -35t-68 -11q-49 0 -87 17 q-38 16 -66 50q-27 31 -42 75q-17 50 -17 97z" />
<glyph unicode="&#x201d;" horiz-adv-x="1182" d="M97 1286q0 35 12.5 66.5t36.5 52.5q26 24 54 35q31 13 70 13q44 0 84 -19q36 -15 66 -50q31 -36 44 -75q14 -41 14 -97q0 -83 -28 -150q-29 -72 -79 -128q-51 -57 -118 -93q-65 -35 -145 -43v94q42 18 67 45q28 30 40 62t10 70q-2 32 -22 64q-56 21 -81 58q-25 38 -25 95 zM682 1286q0 35 13 66.5t36 52.5q25 23 56 35q31 13 68 13q44 0 85 -19q38 -16 66 -50q30 -33 43 -75q16 -45 16 -97q0 -79 -29 -150q-30 -72 -80 -128q-52 -59 -116 -93q-65 -35 -145 -43v94q42 18 67 45q26 28 39 62q13 35 11 70q-2 32 -22 64q-57 21 -81 58 q-27 40 -27 95z" />
<glyph unicode="&#x2022;" horiz-adv-x="1118" d="M192 614q0 46 14 99q13 51 36 89t59.5 75t75.5 60q42 25 89 37q48 13 98 13q52 0 100 -13q47 -12 89 -37q39 -23 75.5 -60t59.5 -75q26 -42 38 -89q12 -48 12 -99q0 -52 -12 -100q-12 -46 -38 -89q-23 -38 -60 -75q-33 -33 -75 -58q-46 -28 -89 -39q-48 -13 -100 -13 q-50 0 -98 13q-43 11 -89 39q-42 25 -75 58q-37 37 -60 75t-36 89q-14 54 -14 100z" />
<glyph unicode="&#x202f;" horiz-adv-x="455" />
<glyph unicode="&#x205f;" horiz-adv-x="569" />
<glyph unicode="&#x20ac;" horiz-adv-x="1316" d="M33 478l34 173h119q-2 42 0 76q1 10 1.5 29.5t1.5 28.5h-156l34 173h148q10 33 35 100q20 52 56 110q32 52 83 105t114 91q65 38 152 64q80 23 192 23q36 0 94 -3q31 -1 83 -9q44 -7 81 -17q18 -5 86 -26l-40 -255q-45 19 -72 29q-36 14 -66 21q-33 9 -66.5 13t-73.5 4 q-73 0 -125 -20q-56 -20 -100 -54q-43 -32 -72.5 -79t-44.5 -97h573l-32 -173h-569q-3 -27 -3 -73q0 -23 6 -61h548l-32 -173h-485q14 -64 42.5 -111t69.5 -79q40 -32 84 -46q45 -15 87 -15q47 0 74 2q45 5 83 14q48 12 93 29q52 21 100 48v-248q-6 -2 -20 -7.5t-26 -10.5 t-23 -10q-31 -13 -86 -30q-54 -16 -103 -24q-66 -9 -122 -9q-89 0 -169 22q-78 21 -135 57q-60 37 -105 85q-46 48 -81 104q-30 48 -55 114q-21 53 -35 115h-177z" />
<glyph unicode="&#x2122;" horiz-adv-x="2100" d="M208 1351v153h682v-153h-245v-687h-185v687h-252zM998 664v840h286l153 -566h3l152 566h287v-840h-183v650h-3l-179 -650h-153l-177 650h-4v-650h-182z" />
<glyph unicode="&#x25cc;" horiz-adv-x="1339" d="M325 574l91 43q-3 -15 -3 -48q0 -27 3 -41zM423 328l33 95q26 -40 61 -64zM435 817l90 -30q-37 -24 -64 -61zM623 826l46 89l43 -87q-14 2 -41 2q-23 0 -48 -4zM628 313q19 -4 43 -4q19 0 38 4l-40 -85zM820 787l97 30l-33 -94q-26 36 -64 64zM823 353q33 23 55 56 l27 -81zM930 531q3 25 3 38q0 15 -3 43l82 -43z" />
<glyph unicode="&#x25fc;" horiz-adv-x="1059" d="M0 0v1059h1059v-1059h-1059z" />
<glyph unicode="&#xf700;" horiz-adv-x="1171" d="M65 801v244q117 54 231 82q119 29 247 29h611v-211h-237q22 -17 39 -40q20 -26 34 -60q16 -39 23 -81q10 -53 10 -107v-657h-331v234q-17 58 -44 105q-26 46 -57 72q-33 29 -67 41q-35 12 -71 12q-29 0 -54 -4q-21 -3 -45 -15v244q40 8 62 9q41 2 84 -6q66 -9 116 -39 q45 -27 76 -72v154q3 45 -7 78q-9 34 -36 65q-23 27 -69 45q-44 17 -109 17q-52 0 -96 -7q-60 -10 -105 -24q-50 -15 -106 -44.5t-99 -63.5z" />
<glyph unicode="&#xf701;" d="M-1351 1304v192h748v-192h-748z" />
<glyph unicode="&#xf702;" d="M-1351 1304v192h429v197h319v-389h-748z" />
<glyph unicode="&#xf703;" d="M-1382 1304v192h351v19q2 45 20 85q18 37 49 68q30 30 71 47q40 17 85 17q44 0 89 -18q39 -16 72 -49t49 -72q18 -45 18 -88q0 -44 -18 -84q-17 -37 -45 -63t-57 -40q-28 -14 -55 -14h-629zM-873 1505q0 -29 19.5 -48.5t47.5 -19.5q11 0 28 6q10 3 20 14q9 8 16 22 q5 11 5 26.5t-5 26.5q-7 14 -16 22q-7 7 -20 14q-12 5 -28 5q-14 0 -25 -5q-17 -8 -22 -14q-12 -12 -16 -22q-4 -13 -4 -27z" />
<glyph unicode="&#xf704;" d="M-1383 1304v192h218v196h217v-196h127v196h218v-388h-780z" />
<glyph unicode="&#xf705;" d="M-940 1304v389h305v-389h-305z" />
<glyph unicode="&#xf706;" d="M-1237 1726q20 9 67 16q46 7 94 7q47 0 81 -14q36 -15 60 -36q21 -20 34 -49q13 -27 13 -52t-6 -41q-7 -22 -14 -34q-3 -5 -10 -14.5t-8 -11.5q-3 -4 -16 -18q8 0 20 -0.5t16 -0.5q18 0 29 1q56 2 136 15q80 14 149 39v-174q-46 -18 -113 -33q-61 -13 -155 -22 q-70 -7 -112 -7q-48 0 -90 4q-39 4 -78 13q-33 7 -73 20v123q44 11 61 32q18 22 18 51q0 22 -9 33q-9 14 -25 23q-12 7 -33 9q-23 3 -35 2z" />
<glyph unicode="&#xf707;" d="M-1409 1523q0 51 18 91q19 43 52.5 72t79.5 46q49 18 101 14q23 -3 32 -6q11 -2 33 -11q19 -7 31 -14q15 -8 25 -16q10 8 25 16q10 6 32 14.5t33 10.5q13 3 32 6q50 4 100 -8q43 -11 76 -37q31 -25 48 -61q18 -37 20 -82q0 -23 -3 -35q-4 -16 -10 -27q-8 -17 -14 -23 q-12 -12 -15 -13q13 1 37 9q34 11 37 13q13 7 33 18q13 7 24 18v-164q-30 -16 -53 -24q-29 -9 -56 -15q-36 -8 -67 -11q-28 -3 -86 -6q-5 0 -16.5 1t-17.5 1q-27 0 -39.5 1t-34.5 4q-11 2 -25 4v109q51 -7 80.5 16t29.5 78q0 45 -16 64q-16 21 -37 21q-22 0 -39 -19 q-16 -18 -18 -53h-124q-2 35 -17 54q-14 18 -38 18q-18 0 -34 -22q-15 -22 -15 -61q0 -60 29 -81q29 -20 81 -14v-104q-15 -8 -41 -13q-25 -4 -48 -4q-69 0 -114 24q-43 22 -68 58q-28 39 -35 74q-8 40 -8 69z" />
<glyph unicode="&#xf708;" d="M-1198 1440v172h157v138h293v-138h156v-172h-156v-136h-293v136h-157z" />
<glyph unicode="&#xf709;" d="M-1012 1493q0 70 36 124q36 52 98 86q64 36 139 51q83 18 164 20l-2 -144q-102 -8 -151 -37q-50 -29 -50 -86q0 -20 11 -34q8 -9 28 -20q14 -8 31 -13q12 -3 28 -3v-142q-79 -4 -137 6q-63 11 -105 35q-44 25 -66 64q-24 41 -24 93z" />
<glyph unicode="&#xf70a;" d="M-448 1304v389h306v-389h-306z" />
<glyph unicode="&#xf70b;" d="M-742 1756q26 10 72 16q49 7 101 7q49 0 88 -15q38 -15 63 -38t37 -51q13 -29 13 -54q0 -26 -6 -45q-5 -17 -15 -37q-8 -16 -18 -28q-14 -17 -18 -21h21h16h15q3 0 8.5 0.5t8.5 0.5q49 4 70 6q20 2 76 11q27 4 79 18q48 13 78 24v-185q-40 -17 -119 -36q-71 -17 -167 -25 q-59 -6 -118 -6q-52 0 -96 4.5t-84 12.5q-26 6 -79 22v131q47 13 65 35q23 26 23 54q0 20 -11 36q-11 15 -28 24q-19 9 -35 11q-12 1 -37 1z" />
<glyph unicode="&#xf70c;" d="M-1023 1535q0 55 19 95q21 44 56 77t83 50q52 18 109 14q22 -3 33 -6q15 -4 35 -11q15 -6 32 -15q18 -11 28 -18q16 13 26 18q27 13 32 15q11 4 36 10q15 3 34 5q57 5 105 -8q49 -12 84 -39q33 -25 52.5 -64t19.5 -85q0 -11 -3 -33l-8 -29q-4 -15 -11 -26t-13 -17 q28 4 50 14q34 14 50 22q22 11 46 28q20 14 39 30v-172q-61 -39 -143 -63q-88 -25 -193 -29q-6 0 -18.5 1t-19.5 1q-15 0 -40 2.5t-36 4.5l-28 5v113q55 -9 86 16t31 85q0 43 -17 66t-39 23q-24 0 -42 -22q-17 -22 -19 -56h-131q-2 37 -16 57t-41 20q-24 -2 -37 -24 q-16 -24 -16 -64q0 -63 32 -86t84 -15v-109q-6 -4 -17 -8q-7 -3 -23.5 -5.5t-26.5 -4.5h-7h-7h-7h-7q-51 0 -85 11q-39 13 -62 31q-27 20 -43 44q-19 28 -28 50q-8 21 -14 53q-4 25 -4 48z" />
<glyph unicode="&#xf70d;" d="M-592 1440v172h156v138h293v-138h157v-172h-157v-136h-293v136h-156z" />
<glyph unicode="&#xf70e;" d="M-475 1493q0 48 16 87q16 38 46 70q27 28 71 53q43 23 89 37q52 16 103 24q48 7 111 10l-1 -144q-100 -8 -150 -37t-50 -86q0 -20 11 -34q11 -13 26 -20q18 -9 32 -13q11 -3 28 -3v-142q-80 -4 -138 6q-62 11 -104 35q-44 25 -67 64q-23 41 -23 93z" />
<glyph unicode="&#xf70f;" horiz-adv-x="2026" d="M145 0v1170l640 -2q113 0 189 -18q79 -19 132 -62q50 -39 76 -108q25 -67 25 -160v-434q0 -38 13 -75q11 -29 37 -54q18 -18 55 -33q31 -13 67 -13q38 0 69 13q37 15 56 33q25 25 36 54q14 37 14 75v762h329v-757q0 -77 -19 -142q-18 -59 -53 -107q-29 -40 -80 -75 q-40 -27 -105 -49q-27 -9 -56.5 -15.5t-61.5 -10.5q-62 -9 -129 -9q-59 0 -128 7q-58 6 -118 24q-58 17 -103 46q-53 33 -82 73q-35 48 -53 109q-18 60 -18 149l1 354q0 31 -2 81q-2 35 -16 66q-12 29 -44 46q-29 16 -88 16l-254 -2v-727h167v-225h-496z" />
<glyph unicode="&#xf710;" d="M-987 1304v336h299v-144h688v-192h-987z" />
<glyph unicode="&#xf711;" d="M-1037 1523q0 43 18 88q16 39 49 72q34 34 71 49q45 18 89 18q42 0 87 -18q40 -16 72.5 -49t48.5 -72q18 -45 18 -88t-18 -89q-15 -37 -49 -70q-32 -33 -72 -49q-41 -17 -87 -17t-88 17q-39 16 -72 49q-34 33 -49 70q-18 46 -18 89zM-880 1523.5q0 -15.5 6 -26.5 q7 -14 15 -22q10 -10 22 -14q17 -6 27 -6q29 0 48.5 19.5t19.5 49t-19.5 49t-48.5 19.5q-10 0 -27 -6q-12 -4 -22 -14q-8 -8 -15 -22q-6 -11 -6 -26.5z" />
<glyph unicode="&#xf712;" d="M-1405 1537q0 68 26 114q28 49 71 78q45 30 103 45q55 14 121 14h500v-174h-465q-7 0 -19.5 -1t-18.5 -1q-19 0 -33 -8q-18 -10 -24 -22q-10 -20 -10 -46q0 -17 7 -31q8 -14 17 -22q8 -6 22 -11q13 -4 22 -4q28 0 45 5q22 8 33 16q17 12 24 22q8 12 15 26h91 q14 -25 30 -39q18 -15 32 -20q17 -7 35 -9q12 -1 40 -1q6 0 17 0.5t18 0.5q14 0 39 6q15 3 39 15q27 14 44 28v-181q-16 -18 -36 -29q-10 -6 -39 -15q-18 -6 -39 -9q-12 -1 -33 -1q-35 0 -68 11q-28 9 -54 29q-28 21 -42 41q-22 30 -29 45q-10 -21 -35 -44q-26 -24 -56 -42 q-21 -12 -68 -29q-31 -11 -69 -11q-125 0 -189 67q-64 66 -64 187z" />
<glyph unicode="&#xf713;" d="M-901 1831v361h298v-361h-298z" />
<glyph unicode="&#xf714;" d="M-999 2237q23 7 62 13q44 7 89 7q41 0 78 -14q34 -12 57 -33q18 -16 33 -47q11 -22 11 -47q0 -23 -5 -39q-9 -28 -13 -34q-8 -14 -16 -25l-17 -16h19h14h14h14q18 1 67 7q50 5 74 11q39 9 77 21q40 12 80 33v-164q-38 -22 -116 -45t-165 -30q-52 -6 -106 -6q-60 0 -86 3 q-37 4 -74 13q-35 8 -71 20v114q40 10 60 32q18 20 18 49q0 17 -9 32q-8 12 -24 21q-13 7 -32 10q-11 1 -32 1z" />
<glyph unicode="&#xf715;" d="M-1131 2041q0 41 18 84q15 38 48 68q30 29 75 44q49 16 95 12q19 -3 30 -6q19 -4 31 -9q19 -9 28 -14q3 -2 8 -5t9.5 -5.5t7.5 -4.5q17 15 51 29q34 13 63 15q44 4 92 -8q41 -11 72 -35t47 -57q17 -33 17 -75q0 -31 -9 -56q-8 -26 -22 -36q24 4 49 14q27 10 54 25 q36 20 53 32q28 21 47 40v-164q-41 -31 -74 -46q-48 -21 -79 -29q-46 -11 -83 -15q-55 -5 -86 -7h-38q-15 0 -40 3q-6 0 -17.5 1t-17.5 2q-8 1 -26 5v100q50 -6 76 14q28 22 28 75q0 37 -15 59q-14 19 -35 19q-20 0 -36 -18t-18 -49h-117q0 30 -13 49q-12 18 -36 18 q-17 0 -32 -19q-14 -18 -14 -59q0 -55 26.5 -75t75.5 -14v-97q-15 -8 -36 -11q-34 -6 -46 -6q-41 0 -77 11q-33 11 -55 27q-19 13 -39 39q-13 16 -24 46q-10 29 -14 47q-2 15 -2 42z" />
<glyph unicode="&#xf716;" d="M-1042 1967v174h157v136h285v-136h158v-174h-158v-136h-285v136h-157z" />
<glyph unicode="&#xf717;" d="M-933 1849q0 55 21 98q18 38 60 75q31 28 89 55q52 23 110 36q57 12 125 16q65 5 130 0v-139q-65 0 -127 -6q-51 -6 -94 -23q-36 -14 -58 -40q-21 -25 -21 -58q0 -20 11 -34q10 -11 27 -21q9 -5 32 -11q16 -4 28 -4v-142q-73 -4 -137 7t-105 35q-46 26 -67 63 q-24 40 -24 93z" />
<glyph unicode="&#xf718;" d="M-570 -510h425v-377h-294v186h-131v191z" />
<glyph unicode="&#xf719;" d="M-934 -510h353v-131q0 -14 6 -23q7 -12 19 -18q12 -7 25 -10q15 -4 29 -4t27 4t22 10q7 4 15 18q6 9 6 23v131h287v-143q0 -59 -22 -102q-23 -44 -65 -73q-40 -28 -102 -44q-61 -15 -132 -15h-82q-53 0 -96 10q-49 11 -82 30q-36 22 -58 52t-26 72v22h-124v191z" />
<glyph unicode="&#xf71a;" d="M-523 -674q0 36 14 68q15 35 38 57q20 20 57 37q30 14 68 14t69 -14q33 -14 56 -37q22 -22 38 -57q13 -32 13 -68q0 -38 -13 -68q-18 -37 -38 -57q-23 -24 -56 -38q-31 -14 -69 -14t-68 14q-37 17 -57.5 37.5t-37.5 57.5q-14 30 -14 68z" />
<glyph unicode="&#xf71d;" horiz-adv-x="1491" d="M10 1148h322l141 -689l193 319h160l193 -319l53 233q12 64 -2 109t-48 75q-30 26 -80 41q-43 14 -94 14q-20 0 -53 -2q-26 -3 -57 -9l-1 209q25 4 46 8q12 3 43 6q41 4 44 4q7 0 24 0.5t26 0.5h549v-211h-171q25 -20 42 -53q19 -35 26 -74q9 -44 7 -93q-2 -58 -15 -111 l-146 -606h-193l-273 478l-273 -478h-194z" />
<glyph d="M-958 1504q0 37 13 68q13 33 32 56t47 40t60 28q-45 49 -45 121q0 47 18 90q16 36 48 68q24 25 69 46q39 19 86 29q41 9 95 14q42 4 96 2v-139q-40 0 -75 -5q-37 -4 -66 -16q-28 -12 -44.5 -35t-16.5 -64q0 -17 10 -32t25 -22q22 -11 36 -14q29 -6 40 -7l5 -115 q-20 -2 -51 -5.5t-40 -4.5q-39 -4 -71 -15q-26 -10 -44 -28q-17 -17 -17 -46q0 -20 14 -32q15 -13 33 -21t39 -12q19 -5 31 -5v-141q-69 -9 -125 1q-63 11 -104 35q-44 25 -71 66t-27 95z" />
<glyph horiz-adv-x="928" d="M-1037 1523q0 43 18 88q16 39 49 72q34 34 71 49q45 18 89 18q42 0 87 -18q40 -16 72.5 -49t48.5 -72q17 -42 17 -88q0 -47 -17 -89q-15 -37 -49 -70q-32 -33 -72 -49q-41 -17 -87 -17t-88 17q-39 16 -72 49q-34 33 -49 70q-18 46 -18 89zM-880 1523.5q0 -15.5 6 -26.5 q7 -14 15 -22q10 -10 22 -14q17 -6 27 -6q29 0 48.5 19.5t19.5 49t-19.5 49t-48.5 19.5q-10 0 -27 -6q-12 -4 -22 -14q-8 -8 -15 -22q-6 -11 -6 -26.5zM42 851v223q15 9 55 27q24 10 93 29q59 16 121 24q81 10 145 8q163 -2 247 -78q82 -73 82 -224v-860h-329v820 q0 39 -14 67q-13 25 -32 39q-20 14 -44 18q-25 4 -52 4q-26 0 -55 -6q-35 -6 -74 -19q-42 -14 -75 -31q-42 -20 -68 -41z" />
<glyph horiz-adv-x="928" d="M-1037 1523q0 43 18 88q16 39 49 72q34 34 71 49q45 18 89 18q42 0 87 -18q40 -16 72.5 -49t48.5 -72q18 -45 18 -88t-18 -89q-15 -37 -49 -70q-32 -33 -72 -49q-41 -17 -87 -17t-88 17q-39 16 -72 49q-34 33 -49 70q-18 46 -18 89zM-880 1523.5q0 -15.5 6 -26.5 q7 -14 15 -22q10 -10 22 -14q17 -6 27 -6q29 0 48.5 19.5t19.5 49t-19.5 49t-48.5 19.5q-10 0 -27 -6q-12 -4 -22 -14q-8 -8 -15 -22q-6 -11 -6 -26.5zM42 852v222q15 9 55 27q24 10 93 29q59 16 121 24q81 10 144 8q165 -2 248 -76q82 -74 82 -226v-860h-330v820 q0 42 -13 67t-32 39q-20 14 -44 18q-25 4 -52 4t-57 -6q-32 -6 -72 -19q-42 -14 -75 -31q-46 -23 -68 -40z" />
<glyph horiz-adv-x="1199" d="M88 575q0 123 22 212q23 91 60 157q34 61 89 111q44 41 107 71q60 29 116 39q65 11 116 11h4q52 0 117 -11q56 -10 116 -39q63 -30 107 -71q52 -47 88 -111q39 -70 61 -157q22 -89 22 -212q0 -103 -19 -191q-19 -87 -54 -153q-37 -68 -84 -116q-48 -48 -104 -79 q-57 -32 -119 -46q-68 -15 -131 -15q-64 0 -132 15q-65 15 -121 46t-104 79t-84 116q-35 66 -54 153q-19 88 -19 191zM407 575q0 -75 9 -129q7 -51 23 -92q14 -36 33.5 -59.5t40.5 -35.5q20 -13 44 -17q31 -6 42 -6q13 0 43 6q24 4 45 17q23 14 41 36q20 23 34 59 q15 41 23 92q9 54 9 129q0 106 -17 173q-15 60 -46 103q-27 38 -61 50q-35 12 -71 12q-35 0 -68 -12q-36 -14 -63 -50q-28 -40 -44 -103q-17 -67 -17 -173z" />
<glyph horiz-adv-x="643" d="M163 0v1148h318v-1148h-318z" />
<glyph horiz-adv-x="1198" d="M108 0v81q11 7 58.5 43t75.5 55q58 41 137 106q75 61 130 110q60 54 108 115q53 67 75 116q28 59 28 115q0 71 -47 114q-45 40 -139 40q-47 0 -99 -12q-57 -14 -107 -35q-49 -21 -106 -57q-52 -34 -94 -74v300q60 39 114 63q66 29 114 43q49 14 121 24q52 7 135 7 q53 0 105 -8.5t100 -25.5q49 -17 89 -44q43 -29 70 -64q29 -38 45.5 -88t16.5 -112q0 -67 -21 -125q-24 -68 -52 -113q-37 -57 -74 -96q-55 -57 -82 -82q-13 -11 -76 -64q-11 -8 -22 -17t-21 -17t-16 -13h438v-285h-1004z" />
<glyph horiz-adv-x="1110" d="M99 21q48 -32 84 -52q45 -23 81 -36q37 -12 84 -19q48 -7 91 -7q46 0 92 15q45 15 78 42q32 26 53 65q19 37 19 89q0 72 -22 117q-24 47 -63 69q-38 23 -91 27q-55 4 -110 -6v253q63 -4 107 1.5t79 27.5q33 21 50 60q17 38 17 95q0 32 -11 58q-13 29 -39 52 q-28 23 -70 37q-41 14 -108 14q-41 0 -78 -4q-36 -4 -72 -13q-24 -5 -71 -22q-38 -13 -73 -31v252q42 17 81 28q31 8 97 19q50 9 100.5 13t94.5 4q118 0 207 -32q85 -30 146 -85q57 -50 86 -118q29 -67 29 -136q0 -45 -12 -93q-14 -54 -38 -92q-28 -47 -70 -81 q-45 -36 -108 -57q56 -9 92 -27q40 -21 71 -50q32 -30 53 -66q25 -42 35 -72q14 -43 19 -72q7 -40 7 -66q0 -98 -35 -187q-33 -87 -101 -146q-70 -62 -171 -95q-102 -33 -239 -33q-50 0 -95 5q-50 7 -100 17q-33 7 -94 26q-41 14 -82 35v277z" />
<glyph horiz-adv-x="1224" d="M86 0v231l730 932h201v-927h117v-236h-117v-331h-316v331h-615zM359 236h342v434z" />
<glyph horiz-adv-x="1124" d="M106 -6q52 -30 77 -41q36 -16 78 -29q28 -9 81 -17q46 -7 92 -7t91 12q52 14 82 38q37 28 57 72q23 49 23 113q0 73 -28 125q-30 55 -89 83q-57 28 -157 32q-100 5 -232 -22v795h792v-278h-507v-254q155 11 255 -20q107 -32 173 -91q69 -63 97 -146q29 -86 29 -181 q0 -75 -19 -146q-19 -68 -54 -127q-38 -62 -84 -104q-55 -51 -108 -79q-60 -32 -127 -49q-72 -18 -142 -18q-63 0 -113 6q-58 6 -108 17q-50 10 -91 25q-43 14 -68 30v261z" />
<glyph horiz-adv-x="1187" d="M71 466q0 49 10 109q8 50 25 99q17 50 39 93q10 22 51 91q27 45 60 96q32 50 64 102l278 420h353l-366 -554q61 6 124 0q72 -8 122 -25q62 -23 111 -56q53 -35 92 -88q37 -48 61 -123q23 -69 23 -162q0 -112 -42 -204t-113 -154q-74 -66 -165 -97q-100 -35 -203 -35 q-81 0 -142 15q-67 17 -125 46q-53 26 -106 72q-46 41 -80 96q-35 56 -53 120q-18 62 -18 139zM389 459q0 -50 20 -91q18 -38 48 -66q28 -27 68 -42q36 -14 75 -14q38 0 74 14q40 15 68 42q32 29 50 68q18 38 18 93v-4q0 56 -15 94q-19 49 -43 73q-30 29 -68 45 q-40 17 -86 17q-39 0 -77 -17q-40 -17 -66 -44q-31 -31 -48 -72q-18 -46 -18 -96z" />
<glyph horiz-adv-x="1223" d="M129 870v278h1002v-17l-594 -1460h-317l494 1199h-585z" />
<glyph horiz-adv-x="1188" d="M65 425q0 71 20 125q21 59 54 105q33 45 82 79q55 38 101 54q-52 19 -91 50t-67 74q-29 44 -40 89q-13 48 -13 101q0 103 36 175q37 74 102 124q63 49 154 75q88 25 192 25q103 0 190 -25q91 -26 155 -75q64 -50 101 -124q38 -75 38 -175q0 -53 -13 -101q-12 -45 -40 -89 q-28 -43 -67 -74q-40 -31 -92 -50q51 -17 102 -53q49 -34 82 -79q34 -47 54 -103q20 -54 20 -128q0 -103 -38 -185q-39 -83 -106 -140q-64 -54 -168 -87q-100 -32 -221 -32q-115 0 -219 33q-98 31 -166 89q-67 57 -106 140q-36 79 -36 182zM384 438q0 -56 16 -102 q18 -49 45 -77q33 -36 68 -51q40 -16 83 -16q45 0 85 16q41 18 68 49t45 79q16 46 16 102q0 53 -16 97q-17 45 -46 74q-32 32 -68 47q-40 17 -82 17q-46 0 -83.5 -17t-66.5 -46q-31 -31 -48 -73q-16 -44 -16 -99zM424 1086q0 -51 12 -91q12 -36 37 -65q23 -28 54 -40 q31 -13 71 -13q38 0 69 13q33 13 56 40q22 27 35 65q12 40 12 91q0 55 -15 97q-14 37 -39 62q-24 25 -56 35q-29 10 -62 10q-35 0 -64 -10q-32 -10 -56 -35q-25 -25 -39 -62q-15 -42 -15 -97z" />
<glyph horiz-adv-x="1241" d="M97 678q0 112 42 203.5t113 154.5q77 67 165 98q96 34 203 34q81 0 142 -16q72 -18 125 -44.5t105 -71.5q47 -41 81 -96q34 -56 53 -120q18 -62 18 -139q0 -50 -10 -111q-8 -50 -25 -99q-16 -45 -39 -92q-15 -30 -51 -91q-11 -18 -32 -51l-28 -44q-12 -19 -34.5 -56 t-29.5 -48l-276 -420h-355l366 556q-68 -7 -124 -1q-67 7 -122 26q-62 22 -112 56q-52 35 -91 87q-37 49 -61 124q-23 69 -23 161zM403 684v3q0 -53 17 -95q19 -49 43 -72q30 -30 68 -46q36 -15 86 -15q42 0 77 15q37 17 66 46q32 31 48 71q18 45 18 97q0 49 -20 90 q-18 39 -48 67q-26 24 -69 40q-39 16 -74.5 16t-75.5 -16q-37 -14 -66 -41q-32 -30 -50 -68q-20 -41 -20 -92z" />
<glyph d="M-951 1831v361h299v-361h-299z" />
<glyph d="M-1091 1967v174h157v136h286v-136h156v-174h-156v-136h-286v136h-157z" />
<glyph d="M-1099 1304v192h956v-192h-956z" />
<glyph d="M-1101 1304v192h627v197h329v-389h-956z" />
<glyph d="M-1099 1304v192h564v19q2 45 21 85q17 37 48 68t70 47q39 17 86 17q42 0 88 -18q39 -16 72 -49t49 -72q18 -45 18 -88q0 -44 -18 -84q-17 -37 -45 -63t-57 -40q-28 -14 -56 -14h-840zM-378 1505q0 -29 19.5 -48.5t48.5 -19.5q10 0 26 6q13 4 23 14q5 5 14 22q5 11 5 26.5 t-5 26.5q-9 16 -14.5 22t-22.5 14q-11 5 -26 5t-26 -5q-17 -8 -23 -14q-9 -10 -14 -22q-5 -17 -5 -27z" />
<glyph d="M-1098 1304v192h275v196h266v-196h148v196h264v-388h-953z" />
<glyph d="M-1033 1537q0 68 27 114q27 49 71 78q45 30 102 45q56 14 121 14h501v-174h-466q-6 0 -18.5 -1t-18.5 -1q-19 0 -34 -8q-17 -10 -23 -22q-10 -20 -10 -46q0 -17 7 -31t16 -22q8 -6 23 -11q12 -4 22 -4q28 0 44 5q23 8 34 16q17 12 23 22q9 12 16 26h90q15 -25 31 -39 q17 -15 32 -20q17 -7 34 -9q13 -1 41 -1q5 0 16.5 0.5t17.5 0.5q14 0 39 6q15 3 39 15q27 14 45 28v-181q-16 -18 -36 -29q-11 -6 -39 -15q-18 -6 -39 -9q-13 -1 -34 -1q-34 0 -68 11q-27 9 -54 29q-27 21 -42 41q-22 30 -29 45q-10 -21 -35 -44q-22 -20 -55 -40 q-21 -13 -68 -30q-36 -12 -70 -12q-124 0 -189 67q-64 66 -64 187z" />
<glyph d="M-442 1733v388h297v-388h-297z" />
<glyph d="M-653 2139q21 7 64 14q44 7 89 7q40 0 77 -14q33 -12 56 -33q20 -19 35 -47q11 -23 11 -48q0 -22 -6 -39q-9 -27 -12 -33q-8 -15 -17 -25l-17 -17h20h14h14h14q17 1 66 7q51 6 74 11q40 9 78 21q39 13 79 34v-164q-38 -22 -115 -45q-78 -23 -166 -30q-52 -6 -105 -6 q-60 0 -86 3q-38 4 -74 12q-36 9 -71 21v114q40 10 60 32q18 20 18 49q0 17 -10 32q-8 12 -24 21q-12 7 -32 9q-11 2 -32 2z" />
<glyph d="M-826 1943q0 45 17 85q15 35 50 68q31 29 74 43q48 16 94 13q20 -3 31 -6q19 -5 30 -10q24 -10 30 -13q3 -3 7.5 -5.5t8.5 -5t7 -5.5q18 16 52 29q33 14 62 16q45 3 93 -9q41 -10 73 -34q31 -25 47 -57q17 -34 17 -75q0 -31 -9 -56q-9 -27 -22 -36q24 4 49 14q22 8 52 25 q13 6 19.5 10t16 10t17.5 12q16 11 28 21t21 19v-164q-41 -31 -74 -46q-48 -21 -79 -29q-46 -12 -83 -15q-53 -6 -88 -7h-37q-14 0 -39 3q-6 0 -18.5 1t-18 1.5t-25.5 5.5v100q50 -7 77 14q28 21 28 75q0 36 -16 58q-13 20 -34 20q-22 0 -38 -18q-14 -17 -17 -49h-116 q0 28 -14 49q-12 18 -35 18q-18 0 -33 -20q-14 -18 -14 -58q0 -54 28 -75q26 -20 75 -14v-97q-15 -8 -38 -11q-33 -6 -46 -6q-39 0 -75 11q-34 11 -55 26q-19 14 -39 39q-16 20 -25 46q-8 22 -13 48q-3 15 -3 41z" />
<glyph d="M-584 1870v173h157v137h285v-137h159v-173h-159v-137h-285v137h-157z" />
<glyph d="M-901 1733v388h299v-388h-299z" />
<glyph d="M-999 2139q23 8 62 14q44 7 89 7q41 0 78 -14q34 -13 57 -33q18 -16 33 -47q11 -23 11 -48q0 -22 -5 -39q-9 -27 -13 -33q-8 -15 -16 -25l-17 -17h19h14h14h14q18 1 67 7q50 6 74 11q39 9 77 21q40 13 80 34v-164q-38 -22 -116 -45t-165 -30q-52 -6 -106 -6q-60 0 -86 3 q-37 4 -74 12q-35 9 -71 21v114q40 10 60 32q18 20 18 49q0 17 -9 32q-8 12 -24 21q-13 7 -32 9q-11 2 -32 2z" />
<glyph d="M-1131 1943q0 42 18 85q15 37 48 68q30 28 75 43q49 16 95 13q19 -3 30 -6q19 -5 31 -10q19 -8 28 -13q3 -3 12 -8t13 -8q17 16 51 29q34 14 63 16q44 3 92 -9q41 -10 72 -34q31 -25 47 -57q17 -34 17 -75q0 -31 -9 -56q-8 -27 -22 -36q24 4 49 14q27 10 54 25 q36 19 53 32q28 21 47 40v-164q-41 -31 -74 -46q-48 -21 -79 -29q-46 -12 -83 -15q-54 -6 -86 -7h-38q-15 0 -40 3q-6 0 -17.5 1t-17.5 1q-8 1 -26 6v100q50 -7 76 14q28 21 28 75q0 36 -15 58q-14 20 -35 20q-20 0 -36 -18t-18 -49h-117q0 30 -13 49q-12 18 -36 18 q-17 0 -32 -20q-14 -18 -14 -58q0 -55 26.5 -75t75.5 -14v-97q-15 -8 -36 -11q-34 -6 -46 -6q-41 0 -77 11q-33 11 -55 26q-19 14 -39 39q-13 16 -24 46q-10 29 -14 48q-2 15 -2 41z" />
<glyph d="M-1042 1870v173h157v137h285v-137h158v-173h-158v-137h-285v137h-157z" />
<glyph d="M-1585 1304v192h1440v-192h-1440z" />
<glyph d="M-1585 1304v192h1111v197h329v-389h-1440z" />
<glyph d="M-1585 1304v192h1050v19q2 45 21 85q17 37 48 68t70 47q39 17 86 17q42 0 88 -18q39 -16 72 -49t49 -72q18 -45 18 -88q0 -44 -18 -84q-17 -37 -45 -63t-57 -40q-28 -14 -56 -14h-1326zM-378 1505q0 -29 19.5 -48.5t48.5 -19.5q10 0 26 6q13 4 23 14q5 5 14 22 q5 11 5 26.5t-5 26.5q-9 16 -14.5 22t-22.5 14q-11 5 -26 5t-26 -5q-17 -8 -23 -14q-9 -10 -14 -22q-5 -17 -5 -27z" />
<glyph d="M-1585 1304v192h707v196h293v-196h149v196h291v-388h-1440z" />
<glyph d="M-1387 1537v9q0 76 28 119q32 50 77 75q47 25 117 36q71 12 146 12h592v-174h-572q-25 0 -39 -2q-23 -2 -38 -9q-21 -11 -29 -23q-11 -15 -11 -40v-7q0 -19 10 -33q5 -9 22 -20q11 -7 23 -9q17 -3 19 -3h34q28 0 46 5q11 4 35 16q16 8 28 22q14 17 18 26h90 q13 -22 32 -39q15 -13 40 -20q21 -7 50 -9q20 -1 64 -1h7q48 0 89 8q37 8 82 39v-181q-14 -12 -41 -26q-12 -6 -44 -15q-20 -7 -41 -9q-14 -1 -35 -1h-50q-31 0 -64 11q-32 11 -57 29q-29 22 -46 41q-22 24 -32 45q-11 -24 -30 -45q-17 -19 -46 -41q-24 -17 -59 -29 q-33 -11 -66 -11h-39q-158 0 -234 65q-76 66 -76 189z" />
<glyph d="M-1404 1304v336h299v-144h639v-192h-938z" />
<glyph d="M-1490 1304v192h1026v-192h-1026z" />
<glyph d="M-1490 1304v192h707v197h319v-389h-1026z" />
<glyph d="M-1521 1304v192h629v19q2 45 20 85q18 37 49 68q30 30 71 47q40 17 85 17q44 0 89 -18q39 -16 72 -49t49 -72q18 -45 18 -88q0 -44 -18 -84q-17 -37 -45 -63t-57 -40q-28 -14 -55 -14h-907zM-734 1505q0 -29 19.5 -48.5t47.5 -19.5q11 0 28 6q10 3 20 14q9 8 16 22 q5 11 5 26.5t-5 26.5q-7 14 -16 22q-7 7 -20 14q-12 5 -28 5q-14 0 -25 -5q-17 -8 -22 -14q-12 -12 -16 -22q-4 -13 -4 -27z" />
<glyph d="M-1522 1304v192h496v196h217v-196h127v196h218v-388h-1058z" />
<glyph d="M-767 1831v361h299v-361h-299z" />
<glyph d="M-930 2237q23 7 63 13q44 7 89 7q40 0 77 -14q35 -12 57 -33q18 -16 34 -47q11 -22 11 -47q0 -23 -6 -39q-9 -28 -12 -34q-8 -14 -17 -25l-17 -16h20h15h13h14q17 1 66 7q51 5 74 11q40 9 78 21q39 12 79 33v-164q-38 -22 -115 -45q-78 -23 -166 -30q-52 -6 -105 -6 q-60 0 -86 3q-38 4 -74 13q-36 8 -71 20v114q40 10 60 32q18 20 18 49q0 17 -10 32q-8 12 -24 21q-12 7 -32 10q-11 1 -32 1z" />
<glyph d="M-1131 2041q0 41 18 84q15 38 48 68q30 29 75 44q49 16 95 12q19 -3 30 -6q19 -4 31 -9q19 -9 28 -14q3 -2 8 -5t9.5 -5.5t7.5 -4.5q17 15 51 29q34 13 63 15q44 4 92 -8q41 -11 72 -35t47 -57q17 -33 17 -75q0 -31 -9 -56q-8 -26 -22 -36q24 4 49 14q27 10 54 25 q36 20 53 32q28 21 47 40v-164q-41 -31 -74 -46q-48 -21 -79 -29q-46 -11 -83 -15q-55 -5 -86 -7h-38q-15 0 -40 3q-6 0 -17.5 1t-17.5 2q-8 1 -26 5v100q50 -6 76 14q28 22 28 75q0 37 -15 59q-14 19 -35 19q-20 0 -36 -18t-18 -49h-117q0 30 -13 49q-12 18 -36 18 q-17 0 -32 -19q-14 -18 -14 -59q0 -55 26.5 -75t75.5 -14v-97q-15 -8 -36 -11q-34 -6 -46 -6q-41 0 -77 11q-33 11 -55 27q-19 13 -39 39q-13 16 -24 46q-10 29 -14 47q-2 15 -2 42z" />
<glyph d="M-904 1967v174h158v136h285v-136h158v-174h-158v-136h-285v136h-158z" />
<glyph d="M-680 2041q0 45 17 84q15 36 50 68q31 29 74 44q48 16 94 12q20 -3 31 -6q19 -4 30 -9q24 -10 30 -14q2 -2 10.5 -7t12.5 -8q18 15 52 29q33 13 62 15q45 4 93 -8q41 -11 73 -35q30 -24 47 -57t17 -75q0 -31 -9 -56q-9 -26 -22 -36q24 4 49 14q22 9 52 25q37 20 53 32 q34 25 49 40v-164q-41 -31 -74 -46q-48 -21 -79 -29q-46 -11 -83 -15q-54 -5 -88 -7h-38q-13 0 -38 3q-7 0 -19 1t-17.5 1.5t-25.5 5.5v100q50 -6 77 14q28 22 28 75q0 37 -16 59q-13 19 -34 19q-22 0 -38 -18q-14 -16 -17 -49h-116q0 28 -14 49q-12 18 -35 18 q-18 0 -33 -19q-14 -18 -14 -59q0 -53 28 -75q26 -20 75 -14v-97q-15 -7 -38 -11q-33 -6 -46 -6q-39 0 -75 11q-34 11 -55 27q-19 13 -39 39q-16 19 -25 46q-8 21 -13 47q-3 15 -3 42z" />
<glyph d="M-940 1304v192h797v-192h-797z" />
<glyph d="M-940 1304v192h479v197h318v-389h-797z" />
<glyph d="M-940 1304v192h405v19q2 45 21 85q17 37 48 68t70 47q39 17 86 17q42 0 88 -18q39 -16 72 -49t49 -72q18 -45 18 -88q0 -44 -18 -84q-17 -37 -45 -63t-57 -40q-28 -14 -56 -14h-681zM-378 1505q0 -29 19.5 -48.5t48.5 -19.5q10 0 26 6q13 4 23 14q5 5 14 22q5 11 5 26.5 t-5 26.5q-9 16 -14.5 22t-22.5 14q-11 5 -26 5t-26 -5q-17 -8 -23 -14q-9 -10 -14 -22q-5 -17 -5 -27z" />
<glyph d="M-940 1304v192h228v196h217v-196h134v196h216v-388h-795z" />
<glyph d="M-955 1537q0 66 25 114t68 78q44 31 97.5 45t116.5 14h478v-174h-444q-7 0 -19 -1t-18 -1q-17 0 -31 -8q-18 -10 -24 -22q-8 -17 -8 -46q0 -17 6 -31q9 -16 16 -22q8 -6 22 -11q13 -4 21 -4q26 0 43 5q20 7 31 16q16 14 22 22q8 12 15 26h86q14 -23 29 -39q15 -15 31 -20 q16 -6 35 -9q11 -1 37 -1q6 0 17 0.5t17 0.5q11 0 36 6q15 3 39 15q20 10 41 28v-181q-17 -19 -34 -29q-13 -7 -38 -15q-19 -7 -36 -9q-13 -1 -33 -1q-33 0 -64 11q-28 10 -52 29q-27 22 -40 41q-15 20 -26 45q-9 -17 -35 -44q-15 -15 -54 -40q-20 -13 -64 -30 q-34 -12 -66 -12q-121 0 -182 67t-61 187z" />
<glyph d="M-1176 1304v192h1123v-192h-1123z" />
<glyph d="M-1176 1304v192h792v197h331v-389h-1123z" />
<glyph d="M-1176 1304v192h717v19q2 45 21 85q18 37 49 68t69 47q40 17 86 17q43 0 88 -18q39 -16 72 -49t49 -72q18 -45 18 -88q0 -44 -18 -84q-16 -37 -45 -63q-27 -26 -56 -40q-28 -14 -55 -14h-995zM-302 1505q0 -29 19.5 -48.5t48.5 -19.5q10 0 27 6q12 4 22 14q8 8 15 22 q6 11 6 26.5t-6 26.5q-7 14 -15 22q-5 6 -22 14q-11 5 -26.5 5t-26.5 -5q-17 -8 -22 -14q-10 -10 -14 -22q-6 -17 -6 -27z" />
<glyph d="M-1176 1304v192h445v196h264v-196h149v196h265v-388h-1123z" />
<glyph d="M-356 1831v361h299v-361h-299z" />
<glyph d="M-653 2237q21 7 64 13q44 7 89 7q40 0 77 -14q33 -12 56 -33q20 -18 35 -47q11 -22 11 -47q0 -23 -6 -39q-7 -22 -14 -34q-8 -14 -16 -25q-6 -7 -16 -16q60 0 91 2q58 6 90 12q48 8 91 22q47 15 87 36v-164q-23 -13 -54 -25q-16 -6 -68 -21q-32 -9 -78 -18 q-31 -6 -81 -11q-105 -9 -185 0q-84 9 -151 30v114q40 10 60 32q18 20 18 49q0 17 -10 32q-8 12 -24 21q-12 7 -32 10q-11 1 -32 1z" />
<glyph d="M-735 2041q0 45 16 84q15 36 50 68q31 29 74 44q49 16 95 12q19 -3 30 -6q19 -4 31 -9q23 -10 29 -14q2 -2 11 -7t13 -8q17 15 51 29q33 13 63 15q44 4 93 -8q41 -11 72 -35t47 -57q17 -33 17 -75q0 -31 -8 -56q-9 -26 -23 -36q24 4 49 14q22 9 53 25q36 20 53 32 q27 21 47 40v-164q-43 -32 -72 -46q-49 -21 -80 -29q-46 -11 -83 -15q-53 -5 -88 -7h-37q-14 0 -39 3q-4 0 -9.5 0.5t-9.5 0.5t-8.5 0.5t-8.5 1.5q-6 0 -25 5v100q50 -6 76 14q28 22 28 75q0 37 -15 59q-14 19 -35 19t-38 -18q-14 -16 -16 -49h-117q0 28 -14 49 q-12 18 -35 18q-18 0 -33 -19q-14 -18 -14 -59q0 -53 28 -75q26 -20 75 -14v-97q-15 -7 -38 -11q-33 -6 -45 -6q-40 0 -75 11q-34 11 -56 27q-19 13 -39 39q-17 24 -25 46q-8 21 -13 47q-2 15 -2 42z" />
<glyph d="M-493 1967v174h157v136h286v-136h156v-174h-156v-136h-286v136h-157z" />
<glyph d="M-876 -142h426v-375h-295v185h-131v190z" />
<glyph d="M-1045 -142h353v-130q0 -12 7 -24q7 -13 17.5 -18t26.5 -10q15 -4 29 -4q13 0 25 4q14 5 23 10t16 18q6 9 6 24v130h286v-143q0 -59 -22 -101q-23 -44 -64 -73q-42 -29 -103 -44q-55 -14 -130 -14h-84q-58 0 -94 8q-49 11 -82 31q-39 23 -60 51t-25 73v22h-125v190z" />
<glyph d="M-796 -292q0 38 13 70q16 34 38 57q22 21 56 37q29 14 69 14q38 0 70 -14t55 -37q25 -25 39 -57t14 -70t-14 -68q-16 -35 -39 -56q-27 -25 -55 -37q-32 -14 -70 -14q-40 0 -69.5 14t-55.5 37q-20 19 -38 56q-13 30 -13 68z" />
<glyph d="M-812 -142h426v-375h-295v185h-131v190z" />
<glyph d="M-1170 -142h353v-130q0 -12 7 -24q7 -13 17.5 -18t26.5 -10q15 -4 29 -4q13 0 25 4q14 5 23 10t16 18q6 9 6 24v130h286v-143q0 -59 -22 -101q-23 -44 -64 -73q-42 -29 -103 -44q-55 -14 -131 -14h-83q-58 0 -94 8q-49 11 -82 31q-39 23 -60 51t-25 73v22h-125v190z" />
<glyph d="M-692 -292q0 38 14 70q15 34 37 57q21 20 57 37q30 14 68 14t70 -14t55 -37t38 -57q14 -32 14 -70t-14 -68q-17 -37 -38 -56q-27 -25 -55 -37q-32 -14 -70 -14t-68 14q-32 15 -57 37q-20 19 -37 56q-14 30 -14 68z" />
<glyph d="M-714 -142h425v-375h-295v185h-130v190z" />
<glyph d="M-1079 -142h353l-1 -130q0 -12 7 -24q8 -13 18 -18t26 -10q15 -4 28 -4q14 0 27 4q16 6 23 10t16 18q5 9 5 24l-1 130h289v-143q0 -59 -22 -101q-22 -41 -67 -73q-43 -29 -102 -44q-55 -14 -130 -14h-84q-57 0 -94 8q-49 11 -82 31q-36 21 -59 51q-23 33 -27 73v22h-123 v190z" />
<glyph d="M-595 -292q0 38 14 70q15 34 38 57q20 20 57 37q29 14 68 14q37 0 69 -14t56 -37q22 -23 37 -57q14 -32 14 -70t-14 -68q-17 -37 -37 -56q-28 -25 -56 -37q-32 -14 -69 -14q-39 0 -68 14q-33 15 -57 37q-21 19 -38 56q-14 30 -14 68z" />
</font>
</defs>
</svg>
