<?xml version="1.0" standalone="no"?>
<!DOCTYPE svg PUBLIC "-//W3C//DTD SVG 1.1//EN" "http://www.w3.org/Graphics/SVG/1.1/DTD/svg11.dtd" >
<svg xmlns="http://www.w3.org/2000/svg">
<metadata></metadata>
<defs>
<font id="db_helvethaica_x67MdCn" horiz-adv-x="0" >
<font-face units-per-em="2048" ascent="1638" descent="-410" />
<missing-glyph horiz-adv-x="501" />
<glyph unicode="&#x2b;&#x2d;" horiz-adv-x="1009" d="M73 0v166h864v-166h-864zM73 562v164h345v302h174v-302h345v-164h-345v-307h-174v307h-345z" />
<glyph unicode="&#x2e;&#x2e;&#x2e;" horiz-adv-x="2008" d="M222 0v233h227v-233h-227zM889 0v233h230v-233h-230zM1559 0v233h225v-233h-225z" />
<glyph unicode="&#x3c;&#x3d;" horiz-adv-x="1057" d="M85 0v166h877v-166h-877zM85 699v142l877 430v-180l-662 -320l662 -322v-183z" />
<glyph unicode="&#x3e;&#x3d;" horiz-adv-x="1057" d="M96 0v166h877v-166h-877zM96 266v183l662 322l-662 320v180l877 -430v-142z" />
<glyph unicode="&#xe4f;&#x22;" horiz-adv-x="1391" d="M82 603q0 85 21.5 163t61 146.5t95 124.5t124 95t146.5 61t163 22t163 -22t146.5 -61t124 -95t94.5 -124.5t61 -146.5t22 -163t-22 -163t-61 -146t-94.5 -123.5t-124 -95t-146.5 -61.5t-163 -22t-163 22t-146.5 61.5t-124 95t-95 123.5t-61 146t-21.5 163zM252 606 q0 -61 16.5 -117t45 -104.5t68.5 -89t89.5 -69.5t105.5 -44.5t116 -15.5q61 0 117 15.5t105 44.5t89 69.5t68.5 89t45 104.5t16.5 117q0 90 -35.5 171t-95 140.5t-139.5 94.5t-171 35q-60 0 -116 -16t-105.5 -45.5t-89.5 -69t-68.5 -89t-45 -105.5t-16.5 -116zM367 606 q0 67 26 126.5t70 103.5t103.5 70t126.5 26t127 -26t103.5 -70t69.5 -103t26 -127t-26 -126.5t-69.5 -103t-103.5 -70t-127 -25.5t-126.5 25.5t-103.5 70t-70 103t-26 126.5zM455 1666h182l-21 -317h-142zM519 605.5q0 -35.5 14 -67t38 -55t55.5 -37t67 -13.5t67 13.5 t55.5 37t37.5 55t13.5 67t-13.5 68t-37.5 56.5t-55.5 37.5t-67 13.5t-67 -13.5t-55.5 -37.5t-38 -56.5t-14 -68zM760 1666h183l-20 -317h-142z" />
<glyph unicode="&#xe0e;&#xe3a;" horiz-adv-x="1102" d="M22 0v177h112v642q0 41 -20.5 71.5t-60.5 43.5q37 74 90 129.5t118 92t139 53.5t153 17q53 0 106 -9t102 -27.5t91.5 -45.5t73 -63.5t49 -81.5t18.5 -100v-1291h-193q-16 21 -39.5 39.5t-52 33.5t-63 24t-75.5 9q-40 0 -79 -12t-75.5 -32.5t-68.5 -46.5q-32 -29 -58 -59 v214q25 18 55.5 36.5t66.5 32t75.5 23t83.5 9.5q36 0 67.5 -4.5t58.5 -12t50 -17.5q24 -9 40 -19v1034q0 44 -17 79t-48 59t-73 37.5t-95 13.5q-43 0 -83.5 -6.5t-74 -19t-59.5 -30.5t-41 -39q8 -11 16 -27.5t14.5 -36t10.5 -40t4 -39.5v-811h-318zM760 -614q0 29 10.5 53.5 t28.5 43t41 29.5t49 11q29 0 53.5 -11t44 -29.5t30.5 -43.5t11 -53q0 -26 -11 -50t-30.5 -41.5t-44 -27.5t-53.5 -10q-26 0 -49 10t-41 27.5t-28.5 41.5t-10.5 50z" />
<glyph unicode="&#xe0f;&#xe3a;" horiz-adv-x="1102" d="M22 0v177h112v642q0 41 -20.5 72.5t-60.5 42.5q37 74 90 129.5t118 92t139 53.5t153 17q53 0 106 -9t102 -26.5t91.5 -45t73 -63t49 -81t18.5 -100.5v-1293h-201q-4 17 -11.5 34.5t-20 32.5t-29 25.5t-38.5 10.5t-39.5 -10.5t-28.5 -25.5t-18 -32.5t-7 -34.5h-173 q0 11 -4 29.5t-13 35.5t-24 30t-38 13q-19 0 -34 -10t-25 -25t-15 -35q-5 -19 -5 -38h-190q0 71 20 123.5t54.5 87t80 52t98.5 17.5q60 0 104 -21q44 -20 74 -64q34 41 74.5 58.5t78.5 17.5q43 0 71 -13t52 -32v1026q0 44 -17 79.5t-48 60.5t-73 38.5t-95 13.5 q-43 0 -83.5 -7.5t-74 -20.5t-59.5 -31t-41 -39q8 -11 16 -27t14.5 -35t10.5 -40.5t4 -40.5v-811h-318zM760 -614q0 29 10.5 53.5t28.5 43t41 29.5t49 11q29 0 53.5 -11t44 -29.5t30.5 -43.5t11 -53q0 -26 -11 -50t-30.5 -41.5t-44 -27.5t-53.5 -10q-26 0 -49 10t-41 27.5 t-28.5 41.5t-10.5 50z" />
<glyph unicode="&#xe0e;&#xe38;" horiz-adv-x="1102" d="M22 0v177h112v642q0 41 -20.5 71.5t-60.5 43.5q37 74 90 129.5t118 92t139 53.5t153 17q53 0 106 -9t102 -27.5t91.5 -45.5t73 -63.5t49 -81.5t18.5 -100v-1291h-193q-16 21 -39.5 39.5t-52 33.5t-63 24t-75.5 9q-40 0 -79 -12t-75.5 -32.5t-68.5 -46.5q-32 -29 -58 -59 v214q25 18 55.5 36.5t66.5 32t75.5 23t83.5 9.5q36 0 67.5 -4.5t58.5 -12t50 -17.5q24 -9 40 -19v1034q0 44 -17 79t-48 59t-73 37.5t-95 13.5q-43 0 -83.5 -6.5t-74 -19t-59.5 -30.5t-41 -39q8 -11 16 -27.5t14.5 -36t10.5 -40t4 -39.5v-811h-318zM712 -501h281v-411h-190 v241h-91v170z" />
<glyph unicode="&#xe0f;&#xe38;" horiz-adv-x="1102" d="M22 0v177h112v642q0 41 -20.5 72.5t-60.5 42.5q37 74 90 129.5t118 92t139 53.5t153 17q53 0 106 -9t102 -26.5t91.5 -45t73 -63t49 -81t18.5 -100.5v-1293h-201q-4 17 -11.5 34.5t-20 32.5t-29 25.5t-38.5 10.5t-39.5 -10.5t-28.5 -25.5t-18 -32.5t-7 -34.5h-173 q0 11 -4 29.5t-13 35.5t-24 30t-38 13q-19 0 -34 -10t-25 -25t-15 -35q-5 -19 -5 -38h-190q0 71 20 123.5t54.5 87t80 52t98.5 17.5q60 0 104 -21q44 -20 74 -64q34 41 74.5 58.5t78.5 17.5q43 0 71 -13t52 -32v1026q0 44 -17 79.5t-48 60.5t-73 38.5t-95 13.5 q-43 0 -83.5 -7.5t-74 -20.5t-59.5 -31t-41 -39q8 -11 16 -27t14.5 -35t10.5 -40.5t4 -40.5v-811h-318zM712 -501h281v-411h-190v241h-91v170z" />
<glyph unicode="&#xe0e;&#xe39;" horiz-adv-x="1102" d="M22 0v177h112v642q0 41 -20.5 71.5t-60.5 43.5q37 74 90 129.5t118 92t139 53.5t153 17q53 0 106 -9t102 -27.5t91.5 -45.5t73 -63.5t49 -81.5t18.5 -100v-1291h-193q-16 21 -39.5 39.5t-52 33.5t-63 24t-75.5 9q-40 0 -79 -11t-75.5 -30.5t-68.5 -45.5q-32 -27 -58 -57 v208q25 18 55.5 36.5t66.5 32t75.5 23t83.5 9.5q36 0 67.5 -4.5t58.5 -12t50 -17.5q24 -9 40 -19v1034q0 44 -17 79t-48 59t-73 37.5t-95 13.5q-43 0 -83.5 -6.5t-74 -19t-59.5 -30.5t-41 -39q8 -11 16 -27.5t14.5 -36t10.5 -40t4 -39.5v-811h-318zM359 -501h281v-203 q-2 -99 80.5 -99t82.5 99v203h190v-203q-1 -52 -15.5 -100t-46.5 -83.5t-84 -56.5q-52 -20 -126 -20t-126 20.5t-83.5 56t-47 83.5t-15.5 100v35h-90v168z" />
<glyph unicode="&#xe0f;&#xe39;" horiz-adv-x="1102" d="M22 0v177h112v642q0 41 -20.5 72.5t-60.5 42.5q37 74 90 129.5t118 92t139 53.5t153 17q53 0 106 -9t102 -26.5t91.5 -45t73 -63t49 -81t18.5 -100.5v-1293h-201q-4 17 -11.5 34.5t-20 32.5t-29 25.5t-38.5 10.5t-39.5 -10.5t-28.5 -25.5t-18 -32.5t-7 -34.5h-173 q0 11 -4 29.5t-13 35.5t-24 30t-38 13q-19 0 -34 -10t-25 -25t-15 -35q-5 -19 -5 -38h-190q0 71 20 123.5t54.5 87t80 52t98.5 17.5q60 0 104 -21q44 -20 74 -64q34 41 74.5 58.5t78.5 17.5q43 0 71 -13t52 -32v1026q0 44 -17 79.5t-48 60.5t-73 38.5t-95 13.5 q-43 0 -83.5 -7.5t-74 -20.5t-59.5 -31t-41 -39q8 -11 16 -27t14.5 -35t10.5 -40.5t4 -40.5v-811h-318zM359 -501h281v-203q-2 -99 80.5 -99t82.5 99v203h190v-203q-1 -52 -15.5 -100t-46.5 -83.5t-84 -56.5q-52 -20 -126 -20t-126 20.5t-83.5 56t-47 83.5t-15.5 100v35h-90 v168z" />
<glyph unicode="&#xd;" horiz-adv-x="568" />
<glyph unicode=" "  horiz-adv-x="501" />
<glyph unicode="&#x09;" horiz-adv-x="501" />
<glyph unicode="&#xa0;" horiz-adv-x="501" />
<glyph unicode="!" horiz-adv-x="669" d="M222 0v233h227v-233h-227zM222 988v442h227v-442l-48 -640h-135z" />
<glyph unicode="&#x22;" horiz-adv-x="532" d="M85 980v448h140v-448h-140zM310 980v448h139v-448h-139z" />
<glyph unicode="#" horiz-adv-x="1159" d="M73 460l50 162h203l55 170h-207l53 162h206l151 460h171l-152 -460h107l145 460h170l-150 -460h210l-49 -162h-214l-51 -170h209l-48 -162h-217l-145 -460h-169l147 460h-104l-152 -460h-166l148 460h-201zM493 622h115l58 170h-115z" />
<glyph unicode="$" horiz-adv-x="1001" d="M53 466h202v-74.5t5.5 -68.5t15 -60t27.5 -48.5t46.5 -34.5t68.5 -17v485q-71 29 -135 63t-113 80.5t-78.5 107t-29.5 139.5t25 144t72 114t112.5 80t146.5 41v126h157v-124q80 -8 143 -39t107 -82t65.5 -121t19.5 -152h-206q-3 44 -7 78.5t-17.5 62t-38.5 46t-66 28.5 v-437q63 -25 115.5 -49.5t94.5 -50t74.5 -55.5t53.5 -67.5t32 -85.5t11 -111q0 -88 -25 -158.5t-74 -122.5t-120 -84.5t-162 -40.5v-186h-157v189q-114 8 -188 44.5t-116.5 98.5t-55.5 148.5t-5 193.5zM281 1055q0 -37 10 -66t28.5 -51.5t44 -40t54.5 -33.5v370 q-26 -5 -51 -18t-44 -33.5t-30.5 -52t-11.5 -75.5zM575 163q41 4 71.5 20.5t51 43t30 61.5t9.5 76q0 46 -11 79.5t-31.5 59.5t-50.5 45t-69 36v-421z" />
<glyph unicode="%" horiz-adv-x="1587" d="M96 1028q0 68 13.5 130.5t46.5 111t90 77t143 28.5q82 0 137 -31.5t86.5 -81.5t44 -113.5t12.5 -129.5q0 -100 -18.5 -170.5t-55 -113.5t-92.5 -60t-133 -12q-66 4 -116.5 22.5t-86 61t-53.5 110.5q-18 69 -18 171zM284 996q0 -27 2.5 -58.5t13 -58.5t29.5 -44.5 t55 -17.5q32 0 53 17.5t30.5 44.5t12 58.5t2.5 58.5v43t-2.5 48.5t-9.5 48t-18 42t-28.5 29.5t-45.5 11q-36 0 -55 -24t-28 -58.5t-10 -72.5t-1 -67zM399 0l623 1370h159l-614 -1370h-168zM918 364q0 69 13.5 130.5t47 109.5t90.5 75.5t142 27.5t140 -30t86.5 -79t43.5 -111 t12 -128q0 -101 -22.5 -171t-63 -114t-96.5 -62.5t-125 -16.5q-52 0 -100 19t-85.5 63t-60 113.5t-22.5 173.5zM1103 329q0 -26 3.5 -57t14.5 -58.5t30 -45t55 -17.5q32 0 53 17.5t30.5 45t12 57.5t2.5 58q0 30 -1 68.5t-11 72.5t-30.5 57.5t-58.5 23.5q-39 0 -58.5 -23.5 t-28.5 -57.5t-11 -72.5t-2 -68.5z" />
<glyph unicode="&#x26;" horiz-adv-x="1338" d="M121 401q0 80 23 141t65 109t97.5 87.5t120.5 78.5q-30 37 -54.5 69.5t-41.5 67t-26.5 72t-9.5 85.5q0 63 21 118.5t60.5 98t96.5 67.5q56 24 127 24q74 0 137 -20.5t108 -58t70 -92.5t25 -123q0 -58 -21.5 -108t-56.5 -92.5t-80 -79.5t-92 -67l255 -323q19 55 30 113.5 t18 119.5h193q-4 -52 -11.5 -105t-21 -104.5t-31.5 -100.5t-42 -92l232 -286h-254l-107 121q-34 -33 -74.5 -60t-87 -46t-96 -29.5t-101.5 -10.5q-107 0 -194.5 30.5t-149.5 85t-94.5 134t-32.5 176.5zM340 399q0 -55 20.5 -99.5t56.5 -75.5t86 -48t108 -17q33 0 64.5 9 t60 23.5t54.5 33.5q24 19 46 41l-306 411q-38 -26 -72.5 -55.5t-60.5 -63t-41.5 -72.5t-15.5 -87zM493 1132q0 -28 9 -55.5t23.5 -54t31.5 -52t35 -49.5q29 19 54 39.5t44.5 45t30.5 53.5t11 66q0 24 -7.5 48t-23 43.5t-38 30.5t-52.5 11q-29 0 -50 -11t-36 -29t-23.5 -40 t-8.5 -46z" />
<glyph unicode="'" horiz-adv-x="501" d="M179 980v448h142v-448h-142z" />
<glyph unicode="(" horiz-adv-x="669" d="M123 499q0 93 9.5 177t27.5 161.5t45.5 150t62.5 144.5t78 145.5t95 152.5h151q-22 -44 -49.5 -94.5t-55 -112t-53.5 -133.5t-46.5 -159t-33 -190t-12.5 -225q0 -131 14.5 -248t45.5 -229.5t80.5 -223.5t117.5 -225h-159q-67 104 -125 212.5t-100.5 221.5t-67.5 232 q-25 117 -25 243z" />
<glyph unicode=")" horiz-adv-x="669" d="M67 1430h163q66 -92 124 -197t101.5 -221t68 -240t24.5 -250q0 -93 -9.5 -176.5t-27.5 -161t-44.5 -150t-61.5 -145.5t-79 -147t-96 -152h-148q22 44 49.5 95t55 112t52.5 133.5t45 159.5t32.5 190.5t12.5 223.5q0 130 -14.5 248.5t-45.5 231.5t-80 223.5t-122 222.5z " />
<glyph unicode="*" horiz-adv-x="1001" d="M169 1178l50 126l217 -83v230h142v-225l219 78l41 -131l-219 -70l150 -174l-118 -88l-152 187l-140 -176l-123 74l148 171z" />
<glyph unicode="+" horiz-adv-x="1009" d="M73 401v166h345v345h174v-345h345v-166h-345v-353h-174v353h-345z" />
<glyph unicode="," horiz-adv-x="504" d="M140 0v227h224v-238q0 -49 -15 -93t-43.5 -81.5t-70.5 -66.5q-43 -29 -95 -45v131q35 14 54.5 33t29 40.5t11 45.5t1.5 47h-96z" />
<glyph unicode="-" horiz-adv-x="695" d="M73 401v166h549v-166h-549z" />
<glyph unicode="." horiz-adv-x="504" d="M140 0v233h224v-233h-224z" />
<glyph unicode="/" horiz-adv-x="616" d="M-22 -51l485 1481h177l-492 -1481h-170z" />
<glyph unicode="0" horiz-adv-x="953" d="M53 696q0 49 1.5 104t7.5 113t17 115.5t32 110.5t52.5 99t75 79.5t102.5 52.5t136 19q76 0 135 -19t103 -52.5t75 -79.5t50.5 -99t32 -110.5t18 -115.5t7 -113t1.5 -104q0 -58 -1.5 -120t-8.5 -123t-18 -120t-31.5 -111.5t-52 -97.5t-75 -76.5t-101.5 -49t-134 -17.5 q-102 0 -172.5 31.5t-117.5 85t-73 124.5t-40 150.5t-17.5 162.5t-3.5 161zM266 701q0 -60 1.5 -123t7.5 -122t19 -112.5t36 -92.5t59 -62t88 -23q49 0 84 23t58.5 62t36.5 92.5t19.5 112.5t8 122t1.5 123q0 55 -2 114t-9 115t-20 106t-36 88t-57.5 60t-83.5 22 q-54 0 -90 -25t-59.5 -66t-36 -94.5t-17.5 -109.5t-6.5 -111t-1.5 -99z" />
<glyph unicode="1" horiz-adv-x="950" d="M112 956v169q78 1 138.5 14t103.5 42t69 75t35 114h174v-1370h-211v999q-50 -22 -128.5 -32.5t-180.5 -10.5z" />
<glyph unicode="2" horiz-adv-x="950" d="M51 0q0 63 7.5 124t28 120t55.5 114.5t88 104.5l286 244q36 33 63 63.5t44.5 65t27 75t9.5 90.5q0 44 -11 82t-35 66t-61.5 43.5t-89.5 15.5q-44 0 -74.5 -13.5t-52.5 -38t-36 -56t-21.5 -67.5t-8.5 -73t-1 -71h-207v107q0 85 28 157t81.5 125.5t128.5 83.5t169 30 q100 0 176 -29t126.5 -81t76 -124.5t25.5 -161.5q0 -74 -17.5 -136.5t-48 -116.5t-75.5 -102q-44 -46 -100 -93l-265 -219q-38 -32 -59.5 -67t-29.5 -80h608v-182h-835z" />
<glyph unicode="3" horiz-adv-x="950" d="M41 447h214q-4 -54 3.5 -104t30.5 -87t65.5 -59.5t108.5 -22.5q55 0 94.5 16t65.5 43t38.5 64t12.5 81q0 78 -18 129t-57.5 80t-104 40t-154.5 10v174h49q27 1 56 3.5t56.5 9t52 19t42.5 35t28 56t10 83.5q0 41 -9 75t-30 58.5t-56 38.5t-84 14q-58 0 -93.5 -19.5 t-56 -52t-27.5 -76.5t-7 -93h-204q-4 90 16.5 169.5t68.5 137t124 90.5t182 33q89 0 160.5 -24.5t122.5 -71.5t78.5 -112.5t27.5 -147.5q0 -50 -5.5 -93.5t-21.5 -80t-44 -67.5t-72 -55q50 -19 84.5 -50.5t56 -73t31.5 -88.5q10 -46 10 -98q0 -98 -24.5 -180.5t-77 -142 t-135 -91.5t-197.5 -32q-118 0 -197.5 34t-127.5 95.5t-67 146.5q-22 85 -19 187z" />
<glyph unicode="4" horiz-adv-x="919" d="M19 329v170l559 871h185v-854h133v-187h-133v-329h-212v329h-532zM244 510h307v427l8 82l-32 -74z" />
<glyph unicode="5" horiz-adv-x="950" d="M56 392h215q-1 -52 8 -93t31 -69.5t58 -43.5t90 -15t95.5 25t68 65t39.5 93.5t13 108.5q0 52 -9.5 104t-35 94.5t-68.5 68t-109 25.5q-33 0 -60.5 -5t-50 -17t-41 -32.5t-34.5 -52.5h-193l86 722h674v-186h-493q-14 -98 -23 -155q-7 -58 -13 -89q-5 -37 -9 -51 q35 26 86.5 37t103.5 11q107 0 182.5 -37.5t124.5 -100t71.5 -143.5t22.5 -168q0 -61 -9.5 -122.5t-30.5 -117.5t-54 -104t-80.5 -83.5t-109.5 -56t-142 -20.5q-101 0 -179 27t-129 79t-75 129q-25 74 -21 173z" />
<glyph unicode="6" horiz-adv-x="950" d="M53 625q0 63 1 128.5t6.5 130.5t16.5 127.5t31.5 118.5t53.5 103t79.5 81t109.5 53t145 19t148 -20.5t112.5 -64t75.5 -110.5q28 -65 38 -158h-219q-6 52 -20.5 84t-36 50.5t-52 25.5t-68.5 7q-47 0 -79.5 -16.5t-55.5 -46t-37 -68.5t-22.5 -82.5t-11 -90.5t-2.5 -90 q49 50 110.5 74t127.5 24q69 0 125 -17t101 -46.5t78 -70.5t55 -89.5t33 -103t11 -111.5q0 -110 -29 -199.5t-83 -152.5t-130.5 -96.5t-171.5 -33.5q-101 0 -173.5 27t-122 75t-78.5 112t-43 135t-18 147q-5 73 -5 145zM278 471q0 -85 15 -142.5t43 -91.5t67 -49 q38 -14 87 -14q61 0 99 27.5t60 69t30.5 91.5t8.5 96q0 49 -9.5 95.5t-33 82t-64.5 57.5t-101 22q-62 0 -101 -22.5t-61.5 -58t-31 -79t-8.5 -84.5z" />
<glyph unicode="7" horiz-adv-x="950" d="M51 1184v186h853v-159q-101 -129 -184.5 -274t-144.5 -300t-100 -315t-54 -322h-233q22 162 62 319.5t100.5 306.5t140 290.5t178.5 267.5h-618z" />
<glyph unicode="8" horiz-adv-x="950" d="M59 407q0 68 16.5 121.5t44.5 94t64 67.5q35 28 76 44q-41 22 -70.5 53t-48 69.5t-28 83t-9.5 93.5q0 64 20.5 128t66 115.5t120.5 83.5t182 32q82 0 148.5 -23.5t114 -70t72 -115t24.5 -155.5q0 -44 -8 -86.5t-27.5 -81t-46.5 -70t-66 -53.5q52 -19 87.5 -50.5t59 -71.5 t34.5 -87.5t11 -97.5q0 -92 -23.5 -174.5t-72.5 -145t-127 -98.5q-78 -37 -188 -37q-106 0 -185 29t-133.5 85t-81 136.5t-26.5 181.5zM274 415q0 -51 10.5 -96.5t35 -81.5t65.5 -57q40 -21 103 -21q44 0 78 18t58.5 50t38.5 79t14 109q0 47 -11 87.5t-34.5 70.5t-61.5 47 t-93 17t-93.5 -18t-63 -48t-35.5 -70.5t-11 -85.5zM321 1022q0 -42 9.5 -78.5t30 -64t51.5 -42.5q29 -15 73 -15t72.5 16.5t46.5 43t26 62.5q7 37 7 75q0 37 -7.5 70.5t-25.5 60.5t-48 42.5t-74 15.5q-45 0 -76 -13.5t-50 -39t-27 -59.5t-8 -74z" />
<glyph unicode="9" horiz-adv-x="950" d="M53 904q0 110 28.5 199t81.5 152t130 97t173 34q101 0 173.5 -28t122 -76t78.5 -111.5t44 -135t19 -146.5t4 -146q0 -83 -3 -171t-15 -172.5t-38 -160t-75.5 -133t-125.5 -90t-187 -32.5q-84 0 -149 20.5t-111.5 63t-74.5 109.5q-27 67 -38 160h220q5 -52 18.5 -85 t36.5 -51.5t52.5 -25t67.5 -6.5q45 0 78.5 17t57 45.5t37 68.5t22 83.5t10.5 89.5q3 48 3 91q-49 -50 -110.5 -74t-127.5 -24q-102 0 -178 36t-126 97t-74 140q-24 80 -24 165zM271 912q0 -49 9.5 -95.5t33.5 -83t64.5 -58.5t101.5 -22q63 0 102 23t61.5 58.5t30.5 79.5 t8 85q0 82 -15 139t-43.5 91.5t-68 50t-86.5 15.5q-61 0 -99 -27.5t-60 -68.5t-30.5 -91t-8.5 -96z" />
<glyph unicode=":" horiz-adv-x="504" d="M140 0v233h224v-233h-224zM140 811v233h224v-233h-224z" />
<glyph unicode=";" horiz-adv-x="504" d="M140 0v227h224v-238q0 -49 -15 -93t-43.5 -81.5t-70.5 -66.5q-43 -29 -95 -45v131q35 14 54.5 33t29 40.5t11 45.5t1.5 47h-96zM140 811v233h224v-233h-224z" />
<glyph unicode="&#x3c;" horiz-adv-x="1057" d="M85 441v143l877 463v-180l-665 -353l665 -351v-185z" />
<glyph unicode="=" horiz-adv-x="1009" d="M73 222v164h864v-164h-864zM73 584v165h864v-165h-864z" />
<glyph unicode="&#x3e;" horiz-adv-x="1057" d="M96 -22v185l659 351l-659 353v180l877 -463v-143z" />
<glyph unicode="?" horiz-adv-x="1001" d="M99 964q-3 61 4.5 121t28.5 113.5t54 99.5t81 79.5t109.5 52t139.5 18.5q99 0 179 -26t137 -74.5t88 -118.5t31 -158q0 -65 -14 -117.5t-38 -94.5t-56 -78t-66 -71.5t-70.5 -72.5t-69.5 -81q-15 -19 -24 -43.5t-13 -53.5t-4.5 -63t1.5 -73h-222q0 55 3 97.5t9 76 t17.5 61.5t29.5 57t45 59q28 30 64 69q32 31 63.5 67.5t57.5 76t41.5 83.5t15.5 93q0 38 -10 76t-30.5 67.5t-54.5 48.5t-83 19q-48 0 -84 -12.5t-61 -34t-41.5 -52t-25 -64.5t-11.5 -71q-2 -37 -2 -76h-219zM375 0v230h225v-230h-225z" />
<glyph unicode="@" horiz-adv-x="1652" d="M148 710q0 102 25.5 196.5t70.5 176t108.5 147.5t142 113.5t169 72.5t185.5 25q88 0 170 -19t155 -56t133 -90.5t102.5 -122t67.5 -151.5t25 -177q0 -67 -17.5 -129.5t-48 -116t-73 -98.5t-94 -78.5t-109.5 -54.5q-59 -19 -122 -25q-19 -1 -43.5 2.5t-46.5 11.5t-41 22 t-29 33q-24 -23 -48 -36.5t-47 -21t-45.5 -9.5t-47.5 -2q-57 0 -102 22t-76 61t-47 90.5t-16 109.5q0 60 11 119t34.5 113t57.5 100t78 80t100 53q54 20 119 20q51 0 99 -21t90 -74l17 67h148l-165 -507q-5 -16 -10.5 -32.5t-5.5 -31t9.5 -23.5t37.5 -9q43 0 81.5 16.5 t70 44t55 64.5t40 78t25 83.5t8.5 80.5q0 109 -39 193t-106 141.5t-158.5 88t-196.5 30.5q-76 0 -146 -21.5t-130.5 -59t-110.5 -91t-85.5 -116.5t-54.5 -134.5t-19 -148t18.5 -148t54 -133.5t85 -113.5t109.5 -88.5t131.5 -57.5t147.5 -20.5q61 0 125 12.5t126 38.5 t116.5 65.5t95.5 94.5h195q-56 -96 -129.5 -166t-157.5 -115t-178 -67t-193 -22q-101 0 -191.5 24.5t-168.5 71.5t-141 111t-107 144.5t-68.5 174t-24.5 195.5zM600 611q0 -30 5.5 -57.5t18.5 -48t34.5 -33t53.5 -12.5q40 0 73.5 20t61 52t48 73.5t34.5 83t20.5 82t6.5 70.5 q0 25 -4 47t-16.5 38.5t-31.5 26t-49 11.5q-45 0 -81.5 -15.5t-64 -43t-48 -63.5t-34 -75.5t-20.5 -79.5t-7 -76z" />
<glyph unicode="A" horiz-adv-x="1135" d="M3 0l433 1430h271l427 -1430h-233l-112 386h-449l-107 -386h-230zM396 581h344l-159 564l-14 61l-11 -61z" />
<glyph unicode="B" horiz-adv-x="1113" d="M132 0v1430h463h22q93 0 161 -23q76 -26 124.5 -74t71.5 -116.5t25 -150.5q0 -52 -7.5 -97.5t-26 -83.5t-51 -69.5t-81.5 -55.5q55 -17 94.5 -48.5t63 -75t34.5 -95t11 -108.5v-7q0 -217 -117 -325q-111 -102 -325 -102q-16 0 -32 1h-430zM342 179h253q60 0 103 14.5 t70 43.5t39 74t12 107q0 60 -11.5 100.5t-34 66.5t-54 39.5t-69.5 20.5t-81 7.5t-89 0.5h-138v-474zM342 838h138q71 0 125.5 5.5t93 27.5t57.5 64q18 40 18 107v7q0 59 -13 97.5t-47 61t-92 32t-145 9.5h-135v-411z" />
<glyph unicode="C" horiz-adv-x="1116" d="M79 732q0 80 6.5 166t25 166.5t53.5 152t91.5 125.5t137.5 85.5t193 31.5q113 0 199 -36.5t143.5 -100.5t85.5 -152q25 -79 24 -170v-20h-211q-1 61 -14 116t-41.5 94.5t-77.5 63t-121 23.5q-63 0 -108.5 -27.5t-77 -73.5t-49 -104t-26.5 -118.5t-12 -118t-3 -101.5 q0 -52 2 -113.5t10.5 -124.5t25 -123.5t46.5 -107t76.5 -74.5t115.5 -28q79 0 130 31.5t79 85.5t38 124q8 54 8 112q0 17 -1 35h211q1 -19 1 -38q0 -57 -7 -111q-9 -72 -31.5 -135.5t-58 -117t-86 -92t-118 -59t-152.5 -20.5q-122 0 -207.5 31.5t-141.5 87.5t-87.5 130 t-47.5 158t-19.5 173t-3.5 174z" />
<glyph unicode="D" horiz-adv-x="1223" d="M132 0v1430h446q123 0 211 -27.5t148 -76.5t97 -116t56.5 -146t25.5 -167.5t6 -178.5q0 -88 -9 -175t-30 -167t-58 -148.5t-94 -119t-138 -79.5t-187 -29h-474zM342 179h255q87 0 145.5 32.5t95 101t53 176t16.5 258.5q0 49 -3 105t-12.5 111.5t-28.5 107.5t-53.5 91 t-86.5 63t-126 24h-255v-1070z" />
<glyph unicode="E" horiz-adv-x="1009" d="M132 0v1430h811v-181h-601v-416h565v-182h-565v-472h603v-179h-813z" />
<glyph unicode="F" horiz-adv-x="923" d="M132 0v1430h764v-181h-554v-411h516v-185h-516v-653h-210z" />
<glyph unicode="G" horiz-adv-x="1231" d="M82 723q0 84 7 171t27.5 168t57 152t94.5 124.5t141.5 84.5t196.5 31t203 -33t151 -94t92 -148q30 -87 30 -194h-215q0 63 -15 115t-46 90t-78.5 58.5t-113.5 22.5h-11q-70 0 -119 -23q-52 -25 -87 -66.5t-55.5 -97.5t-30.5 -118t-12 -126.5t-2 -121.5q0 -49 1 -109 t7.5 -121t21.5 -118.5t45.5 -102.5t77.5 -73q49 -28 117 -31q12 -1 24 -1q56 0 97 12q50 15 85 44t57 69t34.5 87.5t16.5 98t5 102.5h-335v180h546v-755h-174l-2 137q-52 -81 -137 -120t-192 -39q-88 0 -156.5 18t-120.5 51.5t-90.5 79.5t-64.5 100t-41 115t-23 125.5 t-11 129.5q-3 63 -3 126z" />
<glyph unicode="H" horiz-adv-x="1234" d="M132 0v1430h210v-581h547v581h214v-1430h-214v671h-547v-671h-210z" />
<glyph unicode="I" horiz-adv-x="560" d="M174 0v1430h212v-1430h-212z" />
<glyph unicode="J" horiz-adv-x="894" d="M22 362v118h211v-105q0 -42 3.5 -81t19 -70.5t46 -51t85 -19.5t87.5 19.5t50 51t22 71t5 80.5v1055h209v-1068q0 -115 -26.5 -190.5t-76.5 -120t-119 -61.5t-154 -17q-109 0 -178.5 28.5t-110 79.5t-57 122.5t-16.5 158.5z" />
<glyph unicode="K" horiz-adv-x="1122" d="M134 0v1430h208v-649q131 164 257 326q124 162 256 323h264l-482 -600q123 -205 247 -416t248 -414h-262l-382 651q-35 -39 -72 -79t-68 -82v-490h-214z" />
<glyph unicode="L" horiz-adv-x="995" d="M134 0v1430h211v-1251h622v-179h-833z" />
<glyph unicode="M" horiz-adv-x="1585" d="M134 0v1430h337l307 -1088l14 -71q4 22 7.5 40t8.5 31l309 1088h334v-1430h-214v1159l-5 -22l-325 -1137h-233l-326 1156v-1156h-214z" />
<glyph unicode="N" horiz-adv-x="1239" d="M134 0v1430h307l437 -1120l18 -61l-3 43v1138h213v-1430h-309l-438 1103l-19 56l5 -62v-1097h-211z" />
<glyph unicode="O" horiz-adv-x="1231" d="M96 737q0 85 5.5 173.5t25.5 171t54.5 155.5t93.5 127.5t144 86.5q82 31 200 31q115 0 197.5 -31.5t140 -86t91.5 -127.5t53.5 -155.5t26 -171t6.5 -173.5q0 -101 -7.5 -200t-26.5 -187t-54 -163t-92.5 -128.5t-141 -84t-198.5 -30.5t-197.5 30.5t-140 84t-93 128.5 t-54.5 163t-26 186t-7 201zM315 734q0 -150 10.5 -262.5t42.5 -188t91 -113.5t155 -38t154.5 38t91.5 113.5t44 188t11 262.5q0 77 -5.5 148.5t-17.5 133.5t-35 113.5t-56.5 87t-80 56t-109.5 20.5q-60 0 -105.5 -20.5t-78 -56t-54.5 -87t-36 -113.5t-18 -134 q-4 -71 -4 -148z" />
<glyph unicode="P" horiz-adv-x="1111" d="M134 0v1430h433q63 0 125 -9t116.5 -28.5t101 -52t81 -77.5t53.5 -104.5t19 -133.5q0 -95 -22 -164t-61.5 -117t-96 -78t-126 -46.5t-152 -23.5t-172.5 -7h-85v-589h-214zM348 769h151q81 0 146 8.5t109.5 34.5t67.5 76q22 49 22 134q0 74 -25.5 119t-70.5 70t-107 32 q-47 7 -99 7q-17 0 -35 -1h-159v-480z" />
<glyph unicode="Q" horiz-adv-x="1226" d="M96 737q0 85 5.5 173.5t25.5 171t54.5 155.5t93.5 127.5t144 86.5q82 31 200 31q115 0 197.5 -31.5t140 -86t91.5 -127.5t53.5 -155.5t26 -171t6.5 -173.5q-1 -78 -5 -154t-14.5 -146.5t-28 -135t-45.5 -119.5l162 -126l-112 -133l-157 118q-57 -46 -135 -71.5 t-185 -25.5q-115 0 -197.5 30.5t-140 84t-93 128.5t-54.5 163t-26 186t-7 201zM315 734q0 -150 10.5 -262.5t42.5 -188t91 -113.5t155 -38q46 0 84.5 8.5t70.5 28.5l-150 115l115 137l139 -106q24 74 33 178t9 241q0 77 -5.5 148.5t-17.5 133.5t-35 113.5t-56.5 87t-80 56 t-109.5 20.5q-60 0 -105.5 -20.5t-78 -56t-54.5 -87t-36 -113.5t-18 -134q-4 -71 -4 -148z" />
<glyph unicode="R" horiz-adv-x="1215" d="M134 0v1430h425q82 0 153.5 -6.5t131 -26t106 -49.5t77.5 -76.5t46 -109.5q13 -52 13 -118q0 -13 -1 -27q-3 -109 -53.5 -187.5t-147.5 -117.5q49 -12 82.5 -33t54 -52.5t30 -75.5t12.5 -101.5t7 -102t8 -81t9 -65t10 -56.5q4 -19 9.5 -40t14 -41t19.5 -36.5t24 -27.5 h-241q-11 25 -19 57.5t-15 68.5t-11.5 73t-8 70.5t-5.5 61.5q-4 28 -4 44q-2 47 -13 89.5t-37 74.5t-70 50.5t-111 18.5h-281v-608h-214zM348 792h249q19 0 46.5 1.5t58.5 9.5t61 23t54 42t39 66q14 37 14 89v7q-1 54 -16.5 90t-40 61t-56 38.5t-64.5 20.5t-65 8 q-31 1 -58 1h-222v-457z" />
<glyph unicode="S" horiz-adv-x="1116" d="M77 493h207q-1 -16 -1 -31q-1 -60 9 -108q12 -62 43 -105t83.5 -66.5t134.5 -23.5q55 0 104.5 12.5t86.5 39t59 67t22 95.5q0 46 -14 77.5t-35.5 54t-53.5 40t-66 33.5l-333 156q-57 28 -99.5 62t-70.5 76t-41 92t-13 110q0 90 31.5 161.5t89 121.5t138 76t178.5 26 q109 0 197.5 -27.5t149 -81.5t90.5 -136q24 -66 24 -149q0 -19 -1 -40h-212q1 14 1 28q1 37 -9 71q-14 46 -43 80t-73 54q-44 19 -101 19q-78 0 -125.5 -18t-73.5 -46.5t-34 -64.5t-8 -74q0 -33 8 -58t24.5 -46.5t41 -38t57.5 -30.5l285 -132q72 -33 129.5 -71t97.5 -83.5 t62 -100.5q21 -56 21 -122q0 -104 -34.5 -182t-98 -130.5t-154.5 -78.5t-204 -26q-131 0 -223 31.5t-148 95.5t-80.5 162t-24.5 229z" />
<glyph unicode="T" horiz-adv-x="1001" d="M14 1249v181h977v-181h-383v-1249h-209v1249h-385z" />
<glyph unicode="U" horiz-adv-x="1228" d="M134 370v1060h214v-1007q0 -24 2 -53.5t11.5 -58.5t27 -55.5t47.5 -47t73.5 -33t104.5 -12.5q60 0 104.5 12.5t74.5 33t48.5 47t28.5 55.5t12.5 57.5t1.5 54.5v1007h209v-1060q0 -99 -34 -173t-97 -122.5t-152 -72.5t-196 -24t-195.5 24t-151.5 72.5t-98 122.5t-35 173z " />
<glyph unicode="V" horiz-adv-x="1146" d="M8 1430h230l315 -1101l20 -93l13 93l318 1101h236l-444 -1430h-252z" />
<glyph unicode="W" horiz-adv-x="1694" d="M16 1430h233l211 -992q3 -11 4.5 -24.5t4 -26.5t4 -24.5t4.5 -20.5l16 96l225 992h255l208 -992q7 -27 11.5 -53t7.5 -51q4 28 9 54t12 50l223 992h233l-356 -1430h-255l-206 964q-5 28 -9 58t-10 63l-19 -121l-222 -964h-255z" />
<glyph unicode="X" horiz-adv-x="1116" d="M3 0l444 740l-431 690h250l298 -512l291 512h251l-424 -690l435 -740h-259l-299 556l-304 -556h-252z" />
<glyph unicode="Y" horiz-adv-x="1135" d="M-3 1430h233l334 -667l335 667h235l-463 -882v-548h-213v548z" />
<glyph unicode="Z" horiz-adv-x="1074" d="M62 0v156l704 1093h-684v181h919v-159l-704 -1092h717v-179h-952z" />
<glyph unicode="[" horiz-adv-x="669" d="M177 -401v1831h396v-159h-192v-1507h192v-165h-396z" />
<glyph unicode="\" horiz-adv-x="616" d="M-22 1430h175l487 -1481h-171z" />
<glyph unicode="]" horiz-adv-x="669" d="M93 -236h196v1507h-196v159h397v-1831h-397v165z" />
<glyph unicode="^" horiz-adv-x="1001" d="M101 611l332 845h134l337 -845h-167l-236 595q-57 -146 -118 -298q-62 -152 -117 -297h-165z" />
<glyph unicode="_" horiz-adv-x="1001" d="M0 -115h1001v-154h-1001v154z" />
<glyph unicode="`" horiz-adv-x="669" d="M112 1459h255l192 -284h-175z" />
<glyph unicode="a" horiz-adv-x="889" d="M33 300q0 11 1.5 31t7 44.5t16 51t30.5 53t50 49.5q29 24 73 41q71 26 132 48.5t108 40.5q56 19 100 37q16 11 19 25.5t3 41.5v11q0 38 -10 64t-29 42.5t-49 24t-73 7.5q-46 0 -75.5 -11.5t-45.5 -34t-20.5 -55.5t-4.5 -77l-187 9v15q0 82 20 140q22 64 67 103.5 t113.5 57.5t161.5 18q66 0 115.5 -11.5t85 -31.5t58.5 -45t37 -52t20.5 -53t9.5 -48t2.5 -37t-0.5 -18v-570q0 -8 0.5 -16.5t2 -15t4.5 -12.5q5 -5 10 -8q13 -4 30 -2t42 6v-152q-32 -8 -56 -12t-53 -4q-24 0 -49 5t-46 17.5t-37 34t-25 52.5q-22 -27 -49.5 -49t-59 -38.5 t-65.5 -26t-70 -9.5q-88 0 -148 22t-97 63t-53.5 100t-16.5 134zM244 295q0 -33 6 -60t22 -44.5t43 -28.5t69 -11q19 0 49 8t58 28t48 55q20 37 20 92v211q-18 -8 -39 -17.5t-48.5 -20.5t-63 -24.5t-82.5 -30.5q-22 -9 -38.5 -26.5t-26 -38.5t-13.5 -45t-4 -47z" />
<glyph unicode="b" horiz-adv-x="1001" d="M121 0v1430h205v-455q47 58 104.5 80t122.5 22q74 0 130.5 -20.5t98 -56.5t70 -85t44.5 -106t23 -119.5t7 -125.5q0 -67 -5.5 -136t-20.5 -134t-41.5 -122t-68.5 -98.5t-99.5 -65.5t-134.5 -24q-35 0 -67.5 4t-62.5 16t-58 34t-56 55v-93h-191zM318 507q0 -36 1 -75.5 t6 -79.5t17.5 -76t35 -64t58 -44.5t86.5 -16.5q55 0 92.5 26t59.5 76.5t31.5 124.5t9.5 173q0 31 -1.5 70t-8 79.5t-19 79t-34.5 68.5t-55 48.5t-78 18.5q-52 0 -87.5 -20.5t-58 -53.5t-34.5 -76t-16.5 -88t-4.5 -89.5v-80.5z" />
<glyph unicode="c" horiz-adv-x="889" d="M59 516q0 66 6 132.5t22 129.5t45.5 117t74.5 94.5t111 64t156 23.5q89 0 155.5 -29t110.5 -79.5t65.5 -118.5t21.5 -146h-190q-1 40 -8 77.5t-25.5 66.5t-49.5 46.5t-80 17.5q-53 0 -89.5 -21.5t-58.5 -57.5t-34.5 -81t-17 -93t-5 -92t-0.5 -79q0 -33 2 -70t8 -74 t19 -72.5t35.5 -61.5t55.5 -42.5t80 -16.5q37 0 63.5 9.5t45.5 26t30 39.5t18 50.5t11 57.5t6 62h193q-4 -82 -24 -157.5t-61 -132.5t-108.5 -91t-162.5 -34q-91 0 -157.5 20.5t-113 57t-76 86.5t-46 110t-22.5 126t-6 135z" />
<glyph unicode="d" horiz-adv-x="998" d="M73 564q0 63 6.5 125.5t24 119.5t44.5 106t68.5 85t97.5 56q59 21 133 21q33 0 63 -5t58.5 -16.5t54.5 -30.5t51 -50v455h204v-1430h-190v93q-28 -33 -56.5 -55t-58.5 -34t-63 -16q-30 -4 -66 -4q-77 0 -136 24t-100 65.5t-67 98.5t-41 122t-21 133.5t-6 136.5zM284 551 q0 -99 8.5 -173t31.5 -124.5t60.5 -76.5t92.5 -26q52 0 86 16.5t57.5 44.5t36 64t18 76t6.5 79.5t1 75.5t-0.5 80.5t-5.5 89.5t-16.5 88t-34 76t-58 53.5t-87.5 20.5q-47 0 -79 -18.5t-54 -48.5t-35 -68.5t-18.5 -79t-7.5 -80t-2 -69.5z" />
<glyph unicode="e" horiz-adv-x="889" d="M59 525q0 126 19 228t63.5 173t119.5 110q76 38 186 38q93 0 156 -26t104 -70.5t63 -103.5t33 -124t13.5 -132t5.5 -130h-553q0 -32 2 -69t7.5 -74.5t17 -72t30.5 -61.5t50 -44q32 -16 76 -16q51 0 84.5 20.5t52.5 52.5t25 72q3 21 2 43q0 19 -2 39h200v-20 q0 -78 -20 -143q-24 -73 -70.5 -125t-116.5 -80.5t-163 -28.5q-85 0 -156.5 26t-122 89t-78.5 167t-28 262zM269 651h342q-1 27 -3 58t-8.5 59.5t-17.5 53.5t-29.5 44.5t-44.5 31.5t-64 12q-41 0 -70 -12.5t-47.5 -32.5t-29.5 -46.5t-17 -55.5t-7.5 -57.5t-3.5 -54.5z" />
<glyph unicode="f" horiz-adv-x="557" d="M14 893v167h145v83q0 21 1.5 48.5t7 55.5t15 55.5t25.5 49.5q34 43 91 63q57 21 139 21q11 0 39 -2q30 -1 66 -4v-164q-35 2 -63 2h-18q-35 -1 -55.5 -11t-30 -32t-9.5 -61v-104h163v-167h-163v-893h-201v893h-152z" />
<glyph unicode="g" horiz-adv-x="1006" d="M62 536q0 54 6 116.5t22.5 121.5t44 114t70.5 96t102.5 65.5t139.5 24.5q33 0 64.5 -4t61.5 -15t57.5 -29.5t51.5 -45.5v80h202v-937q0 -104 -19.5 -195.5t-67.5 -159.5t-129.5 -107t-204.5 -39q-71 0 -132.5 16.5t-110.5 52t-80 89.5q-30 53 -39 130h199 q11 -66 54 -97.5t106 -31.5q52 0 89 12t60.5 33.5t37 49.5t20.5 58t9 62q4 31 4 60v34q-50 -58 -106 -83.5t-125 -25.5q-57 0 -108 11t-93 37t-77 68.5t-59 104t-37 144.5t-13 190zM271 530q0 -87 9.5 -158t31.5 -121t58 -76.5t88 -26.5q54 0 92 19t63 52t39 74t21 86.5 t8 90.5t1 83q0 72 -10 136.5t-34 113.5t-64 79t-100 30q-48 0 -81.5 -19t-55.5 -51t-35.5 -72.5t-20 -83t-8.5 -83.5t-2 -73z" />
<glyph unicode="h" horiz-adv-x="1006" d="M121 0v1430h205v-460q27 27 56 47.5t60.5 33.5t68 19.5t78.5 6.5q67 0 122.5 -16.5t95.5 -51.5t61 -87.5t21 -124.5v-797h-201v758q0 35 -8.5 63t-26 48.5t-45.5 31.5t-70 11q-49 0 -87.5 -16t-66.5 -45t-43 -70t-15 -91v-690h-205z" />
<glyph unicode="i" horiz-adv-x="474" d="M134 0v1060h206v-1060h-206zM134 1206v224h206v-224h-206z" />
<glyph unicode="j" horiz-adv-x="465" d="M11 -197q19 -2 35 -2q23 0 38 5q26 8 37 25.5t13 47.5v70v1111h206v-1101q0 -100 -13 -166.5t-49.5 -106t-101 -56t-165.5 -16.5v189zM134 1206v224h206v-224h-206z" />
<glyph unicode="k" horiz-adv-x="926" d="M121 0v1430h205v-801l354 431h241l-348 -415l353 -645h-227l-266 493l-107 -123v-370h-205z" />
<glyph unicode="l" horiz-adv-x="474" d="M134 0v1430h206v-1430h-206z" />
<glyph unicode="m" horiz-adv-x="1565" d="M121 0v1060h200v-98q49 50 116 81t144 31q48 0 87 -9.5t70.5 -27.5t57.5 -43t48 -57q27 36 59.5 61t69.5 42.5t80 25.5t95 8q149 0 224.5 -78t75.5 -238v-758h-204v758q0 35 -7 63t-24.5 47.5t-46.5 30.5t-75 11q-47 -2 -84 -17.5t-64.5 -44.5t-42 -68.5t-14.5 -89.5 v-690h-201v758q0 32 -8 60.5t-26.5 49t-47.5 31.5t-70 11q-49 0 -87 -16.5t-64 -44.5t-41 -68.5t-15 -90.5v-690h-205z" />
<glyph unicode="n" horiz-adv-x="1009" d="M121 0v1060h202v-96q58 55 123.5 84t145.5 29q67 0 122.5 -16.5t95 -51.5t61.5 -87.5t22 -124.5v-797h-203v760q0 33 -8 61t-26 48.5t-45 31.5t-68 11q-51 0 -91.5 -15t-68.5 -43.5t-42.5 -70.5t-14.5 -95v-688h-205z" />
<glyph unicode="o" horiz-adv-x="1001" d="M73 551q0 126 26.5 223t80 164.5t133.5 103t188 35.5q113 0 193.5 -35t133.5 -102t78.5 -165t25.5 -224q0 -150 -30.5 -258t-86.5 -177t-135.5 -102t-178.5 -33q-95 0 -174.5 31.5t-136 100.5t-87.5 177q-30 110 -30 261zM278 525q0 -85 11 -153.5t37 -117t68.5 -76 t106.5 -27.5q66 0 110 27.5t69.5 76t35.5 117.5t10 153q0 109 -13 184t-41 120t-70.5 64t-100.5 19q-57 0 -99.5 -19t-70 -64t-40.5 -119t-13 -185z" />
<glyph unicode="p" horiz-adv-x="1009" d="M121 -370v1430h191v-93q28 33 56 55t58 34.5t62.5 16.5t67.5 4q78 0 135 -24t99 -66t68.5 -98.5t41.5 -122t20.5 -134t5.5 -136.5q0 -63 -7 -125.5t-23 -119t-44.5 -106t-70 -85t-98 -56t-130.5 -20.5q-65 0 -124 21q-56 22 -103 80v-455h-205zM318 473.5 q0 -44.5 4.5 -90t16.5 -88.5t34.5 -76t57.5 -53.5t88 -20.5q47 0 79 18.5t54 48.5t34.5 68.5t19 79t8 80.5t1.5 70q0 98 -9.5 172t-31.5 125t-59 77t-93 26q-52 0 -87 -16.5t-57.5 -44.5t-35 -64.5t-18 -76t-6 -79.5t-0.5 -76v-79.5z" />
<glyph unicode="q" horiz-adv-x="1009" d="M85 496q0 67 5.5 136t20.5 134.5t41 122t68 98.5t99.5 66t135.5 24q35 0 66.5 -4t62 -16.5t59.5 -33.5q28 -23 56 -56v93h190v-1430h-204v455q-47 -58 -104.5 -79.5t-122.5 -21.5q-74 0 -131 20.5t-99 56t-69 85t-43.5 106t-23.5 119t-7 125.5zM295 510q0 -32 2 -71 t7.5 -79.5t18.5 -79t34.5 -68.5t54 -48.5t78.5 -18.5q53 0 88.5 20.5t58.5 53.5t34 76t16.5 88.5t5.5 90v79.5q0 36 -1.5 76t-6.5 79.5t-17.5 76t-35 64.5t-57.5 44.5t-87 16.5q-55 0 -92 -26t-60.5 -77t-32 -125t-8.5 -172z" />
<glyph unicode="r" horiz-adv-x="678" d="M129 0v1060h205v-115q28 39 60.5 65t74 39.5t91.5 16.5q17 1 36 1q36 0 78 -4v-188q-42 7 -79 7q-32 0 -61 -5q-63 -11 -107.5 -43.5t-68.5 -82.5t-24 -114v-637h-205z" />
<glyph unicode="s" horiz-adv-x="889" d="M33 340h197v-14q0 -86 46 -137q50 -55 151 -55q44 0 78.5 9.5t59 29t38 48t13.5 68.5q0 32 -17.5 58t-46.5 47t-64.5 37t-69.5 27q-41 13 -83 28t-81.5 36t-73 45.5t-59 57.5t-40 74t-14.5 93q0 72 25.5 129t72 97t111 61t142.5 21q89 0 158 -20.5t116.5 -63.5 t70.5 -110.5t23 -158.5h-205q1 12 1 22q0 76 -31 115q-33 45 -118 45q-36 0 -64.5 -8.5t-49 -24.5t-33 -41t-12.5 -58q0 -35 18 -60.5t45 -44t61.5 -32t67.5 -23.5q57 -21 106.5 -38.5t89 -36.5t70 -41t51 -52.5t31.5 -68.5t11 -90q0 -83 -27 -147t-78 -110t-125 -70 t-168 -24q-90 0 -162 18.5t-122.5 63t-78.5 118t-31 181.5z" />
<glyph unicode="t" horiz-adv-x="549" d="M8 896v164h145v289h206v-289h179v-164h-179v-680v-17.5t5 -16.5t15 -11.5t31 -4.5h128v-166h-196q-38 0 -72 5.5t-60 25.5t-41.5 57t-15.5 100v708h-145z" />
<glyph unicode="u" horiz-adv-x="990" d="M121 263v797h202v-800q0 -26 5.5 -45.5t20 -34t38.5 -22t60 -7.5q53 0 94 19t69 51t43.5 76.5t15.5 98.5v664h201v-1060h-199l-2 93q-47 -57 -113 -84.5t-141 -27.5q-67 0 -122 17t-93 52t-58.5 88.5t-20.5 124.5z" />
<glyph unicode="v" horiz-adv-x="900" d="M3 1060h213l211 -720l22 -129l22 126l214 723h214l-343 -1060h-219z" />
<glyph unicode="w" horiz-adv-x="1338" d="M11 1060h216l169 -709l11 -124l8 115l149 718h210l155 -701l11 -115l1 8q0 8 1 20.5t2 26t2 26t1 20.5l1 8l166 707h216l-283 -1060h-214l-164 752l-159 -752h-210z" />
<glyph unicode="x" horiz-adv-x="916" d="M5 0l346 536l-337 524h222l222 -375l224 375h222l-337 -524l345 -536h-224l-230 373l-228 -373h-225z" />
<glyph unicode="y" horiz-adv-x="889" d="M0 1060h214l216 -720l14 -71l11 71l222 720h212l-330 -1019q-8 -25 -20.5 -63t-27.5 -78.5t-30 -77t-26 -55.5q-49 -82 -116.5 -117.5t-159.5 -35.5q-32 0 -68.5 5.5t-69.5 13.5v185q38 -15 76 -23.5t65 -8.5q36 0 60 11t39 28t27 41q13 24 24 49l24 58z" />
<glyph unicode="z" horiz-adv-x="827" d="M41 0v140l510 761h-484v159h717v-145l-510 -752h512v-163h-745z" />
<glyph unicode="{" horiz-adv-x="549" d="M5 614v31q36 4 66 17t53.5 36.5t36.5 58.5t13 81v326q0 28 2.5 58t12.5 59t28.5 55t51.5 45q30 19 62 29.5t65.5 15t69.5 4.5q38 0 77 -2l2 -14q-52 -11 -85 -33t-50.5 -50.5t-24.5 -63t-7 -70.5v-337q0 -43 -5.5 -78t-20 -64.5t-40.5 -52.5q-27 -24 -71 -40 q44 -18 71.5 -43.5t42.5 -58.5t19 -73t4 -86v-311q0 -35 7 -67.5t26 -60.5t52 -52t85 -42l-3 -13q-112 -3 -184 13t-113.5 51.5t-57.5 95t-16 145.5v278q0 47 -13 84t-36.5 63.5t-53.5 43t-66 22.5z" />
<glyph unicode="|" horiz-adv-x="501" d="M166 0v1430h171v-1430h-171z" />
<glyph unicode="}" horiz-adv-x="549" d="M5 -169q53 18 85.5 42t51 52t25.5 61t7 67v311q0 46 5 86t20 73t41 59q29 26 72 43q-43 16 -70.5 39.5t-42 53t-20.5 64.5q-5 35 -5 78v337q0 36 -6 70.5t-24.5 63t-51 50.5t-84.5 33l3 14q38 2 74.5 2t70 -4.5t65 -15t63.5 -29.5t50.5 -45t28.5 -55t12.5 -59t2.5 -58 v-326q0 -46 14 -81t37 -58.5t53 -36.5t66 -17v-31q-36 -6 -66 -22.5t-53 -43t-37 -64t-14 -83.5v-278q0 -86 -15.5 -145.5t-57.5 -95t-113 -51t-184 -13.5z" />
<glyph unicode="~" horiz-adv-x="1001" d="M67 404q22 44 47.5 87t55.5 79t68.5 58.5t84.5 22.5q43 0 90 -18t112 -49q60 -31 99 -48t64 -17q24 0 47.5 16.5t44 42.5t38.5 58.5t29 62.5l90 -129q-19 -44 -45 -85t-57.5 -73.5t-69.5 -51.5q-36 -20 -80 -20q-23 0 -52.5 9.5t-61 23t-60.5 27.5t-51 23q-16 9 -33 16.5 t-35 15t-36.5 12t-37.5 4.5q-29 0 -51.5 -17t-41.5 -43.5t-34.5 -60.5t-31.5 -66z" />
<glyph unicode="&#xa2;" horiz-adv-x="1001" d="M112 699q0 60 5 121t18 119t36.5 110t60.5 93.5t89 69.5q54 29 126 40v178h134v-172q77 -9 133 -41.5t93 -82t55.5 -112.5t18.5 -136h-191q-1 33 -5.5 65.5t-17 59t-34 46.5t-52.5 28v-745q35 11 56.5 34t33 54.5t17 70t8.5 79.5h193q-4 -77 -22 -148t-53.5 -127 t-93 -92.5t-139.5 -44.5v-166h-134v169q-72 9 -125 35t-90 63t-60.5 86.5t-36.5 104t-18 116.5t-5 125zM323 671q0 -27 1 -58.5t5 -63t12 -63t22 -57.5t33.5 -48t50.5 -33v726q-33 -16 -55 -43.5t-36 -63t-20.5 -75.5t-9.5 -79.5t-3 -76v-65.5z" />
<glyph unicode="&#xa3;" horiz-adv-x="1001" d="M27 110q52 38 97.5 77.5t78.5 83.5t50.5 94t17.5 109q0 42 -9 78q-9 34 -24 73h-202v122h135q-38 68 -62 140t-24 151q0 94 34 166.5t96 123t144 76.5t177 26q90 0 164.5 -23t129.5 -67t88 -110t41 -150q3 -20 3 -40.5t-2 -36.5q-1 -19 -4 -39h-207v24t-0.5 32.5t-2 35.5 t-3.5 29q-17 81 -74.5 122.5t-146.5 41.5q-58 0 -99.5 -17.5t-69 -47.5t-40.5 -72.5t-13 -92.5q0 -35 8 -69.5t22 -68.5t31.5 -67.5t37.5 -66.5h333v-122h-277q8 -25 15 -52.5t7 -62.5q0 -44 -11 -86.5t-30.5 -81.5t-45.5 -75.5t-53 -66.5q27 6 56 10t56 4q22 0 44.5 -3 t42.5 -5q34 -5 72.5 -15t79.5 -20q59 -13 121 4t117 58l75 -169q-38 -26 -72 -42.5t-67 -26t-66.5 -12t-72.5 -2.5q-46 0 -85 9q-38 9 -79 21q-44 14 -89 25.5t-97 11.5q-32 0 -60.5 -6t-57 -16.5t-57 -26t-61.5 -35.5z" />
<glyph unicode="&#xa5;" horiz-adv-x="1135" d="M5 1430h253l309 -664l322 664h243l-433 -808h241v-140h-277v-96h277v-142h-277v-244h-208v244h-278v142h278v96h-278v140h241z" />
<glyph unicode="&#xa9;" horiz-adv-x="1448" d="M62 680q0 90 24 175t66.5 158t103 134t134 103.5t158.5 66.5t175 24q91 0 176 -24t159 -66.5t134 -103.5t103 -134t67 -158t24 -175q0 -91 -24 -176t-67 -159t-103 -134t-134 -103.5t-159 -67.5t-176 -24q-90 0 -175 24t-158.5 67.5t-134 103.5t-103 134t-66.5 159 t-24 176zM222 680q0 -69 18 -134t50.5 -120.5t78 -101.5t101.5 -79t120.5 -50.5t132.5 -17.5q104 0 196 39t160.5 107.5t107.5 160t39 196.5q0 69 -17.5 133t-50.5 120t-79 101.5t-101.5 78t-119.5 50.5q-66 18 -135 18q-68 0 -132.5 -18t-120.5 -50.5t-101.5 -78 t-78 -101.5t-50.5 -120.5t-18 -132.5zM399 682q0 81 22.5 151t64 122t102.5 81q59 30 135 30q52 0 100 -20t87 -58.5t66 -94t38 -127.5h-141q-9 37 -23 67t-33.5 51.5t-42.5 33t-51 11.5q-43 0 -77.5 -19.5t-58.5 -53.5t-36.5 -79t-12.5 -95t13 -97.5t36.5 -83t59 -57 t82.5 -21.5q26 0 50 12t43 33.5t31.5 52t16.5 68.5h141q-8 -71 -33.5 -127t-63 -94.5t-85.5 -60t-100 -21.5q-77 0 -137 30.5t-103.5 83t-66.5 125t-23 157.5z" />
<glyph unicode="&#xab;" horiz-adv-x="1001" d="M148 527v136l342 325v-210l-190 -186l190 -185v-215zM507 527v136l342 325v-210l-189 -186l189 -185v-215z" />
<glyph unicode="&#xad;" horiz-adv-x="695" d="M73 401v166h549v-166h-549z" />
<glyph unicode="&#xae;" horiz-adv-x="1448" d="M62 680q0 90 24 175t66.5 158t103 134t134 103.5t158.5 66.5t175 24q91 0 176 -24t159 -66.5t134 -103.5t103 -134t67 -158t24 -175q0 -91 -24 -176t-67 -159t-103 -134t-134 -103.5t-159 -67.5t-176 -24q-90 0 -175 24t-158.5 67.5t-134 103.5t-103 134t-66.5 159 t-24 176zM222 680q0 -69 18 -134t50.5 -120.5t78 -101.5t101.5 -79t120.5 -50.5t132.5 -17.5q104 0 196 39t160.5 107.5t107.5 160t39 196.5q0 69 -17.5 133t-50.5 120t-79 101.5t-101.5 78t-119.5 50.5q-66 18 -135 18q-68 0 -132.5 -18t-120.5 -50.5t-101.5 -78 t-78 -101.5t-50.5 -120.5t-18 -132.5zM480 310v739h298q48 0 92.5 -10.5t79 -36t55 -66t20.5 -100.5q0 -50 -14 -87t-37 -62t-54 -41q-32 -16 -65 -24l183 -312h-163l-171 309h-85v-309h-139zM619 747h102q26 0 55.5 0.5t52.5 8.5t39 27.5t16 54.5q0 31 -10.5 47t-28.5 25 t-41 11t-46 2h-139v-176z" />
<glyph unicode="&#xbb;" horiz-adv-x="1001" d="M151 192v215l191 185l-191 186v210l342 -325v-136zM510 192v215l191 185l-191 186v210l342 -325v-136z" />
<glyph unicode="&#xbc;" horiz-adv-x="1531" d="M104 1091v132q48 0 85.5 9t65 25.5t44 44t24.5 68.5h137v-817h-163v564q-41 -14 -89.5 -20t-103.5 -6zM284 0l872 1370h174l-872 -1370h-174zM896 188v127l341 529h147v-521h72v-135h-72v-188h-161v188h-327zM1044 323h179v272z" />
<glyph unicode="&#xbd;" horiz-adv-x="1531" d="M104 1091v132q48 0 85.5 9t65 25.5t44 44t24.5 68.5h137v-817h-163v564q-41 -14 -89.5 -20t-103.5 -6zM227 0l873 1370h174l-873 -1370h-174zM926 0q3 49 6.5 91.5t16.5 82.5t38 77t71 78l145 129q18 16 32 31t24 30t15.5 33t5.5 40q0 23 -4.5 41.5t-15.5 32.5 t-28.5 20.5t-45.5 6.5q-32 0 -50 -14.5t-27.5 -38.5t-11 -54t-0.5 -61h-163v67q0 53 19.5 99t53.5 79t82 50.5t103 17.5q64 0 113 -18.5t81 -52t48.5 -78.5t16.5 -97q0 -47 -10.5 -81t-29.5 -63t-48 -55t-64 -56l-143 -123q-13 -11 -28 -30q-16 -20 -20 -44h351v-140h-533z " />
<glyph unicode="&#xbe;" horiz-adv-x="1531" d="M101 811h159q-5 -33 -1 -61.5t16.5 -50t35.5 -34t56 -12.5q107 0 107 110q0 38 -5.5 63.5t-22.5 38.5t-49.5 18t-86.5 3v152h30q19 -1 38 -0.5t34 10.5t25 29t10 57q0 25 -4.5 43t-13 30t-24.5 18.5t-41 6.5q-30 0 -47.5 -10t-27.5 -27t-14 -41.5t-4 -53.5h-156 q-1 60 13 109.5t44.5 85t78.5 55.5t116 20q55 0 101.5 -16.5t79 -45t49.5 -70t17 -90.5q0 -55 -18 -101.5t-60 -76.5q52 -30 78 -76.5t26 -107t-16 -111t-50 -86.5t-86 -55.5t-124 -19.5q-75 0 -127.5 22.5t-84 62t-44 94t-7.5 118.5zM348 0l870 1370h179l-870 -1370h-179z M896 188v127l341 529h147v-521h72v-135h-72v-188h-161v188h-327zM1044 323h179v272z" />
<glyph unicode="&#xd7;" horiz-adv-x="1049" d="M90 822l126 112l309 -350l308 350l126 -115l-319 -361l316 -359l-129 -115l-302 348l-303 -346l-129 115l317 357q-81 90 -160.5 182.5t-159.5 181.5z" />
<glyph unicode="&#xf7;" horiz-adv-x="1009" d="M73 401v166h864v-166h-864zM392 107q0 23 8 43t22.5 35t34.5 23t42 8q23 0 43 -8t35 -23t23 -35t8 -43t-8 -43t-23 -34t-34.5 -22t-43.5 -8t-43 8t-33.5 22t-22.5 34t-8 43zM392 860q0 24 8 44.5t22.5 35t34.5 22.5t42 8q23 0 43 -8t35 -22.5t23 -34.5t8 -45 q0 -23 -8 -42t-23 -33.5t-34.5 -22t-43.5 -7.5t-43 7.5t-33.5 22t-22.5 33.5t-8 42z" />
<glyph unicode="&#xe01;" horiz-adv-x="1074" d="M51 934q37 74 87.5 129.5t112 92t133.5 53.5t152 17q54 0 107 -9t101 -27.5t87.5 -45t70 -63.5t46.5 -82q16 -43 16 -98v-901h-206v860q0 44 -16 79.5t-44.5 60.5t-70 37t-91.5 12q-43 0 -80.5 -6.5t-70 -19t-57 -30.5t-39.5 -39q8 -14 15.5 -30.5t12.5 -35.5t8.5 -38.5 t3.5 -38.5v-811h-206v819q0 41 -16.5 71.5t-55.5 43.5z" />
<glyph unicode="&#xe02;" horiz-adv-x="911" d="M25 1038v173h312q27 -159 47 -282t35 -214.5t25.5 -155t17.5 -106t10 -66t5.5 -35t2.5 -13.5v-2l145 874h213l-219 -1211h-277l-189 1038h-128z" />
<glyph unicode="&#xe03;" horiz-adv-x="975" d="M19 1211h195q0 -19 4 -36t13.5 -31t24 -22t33.5 -8q33 0 53 26.5t28 70.5h192v-207q0 -38 -9.5 -69t-27.5 -57.5t-42.5 -53.5t-55.5 -58q-35 -39 -58.5 -78t-26.5 -85v-258q0 -44 12 -78t33 -58.5t50 -37t64 -12.5q36 0 66 12.5t52 37t34.5 58.5t12.5 78v866h201v-888 q0 -82 -30.5 -145.5t-81.5 -107t-116.5 -65t-137.5 -21.5t-138.5 21.5t-117 65t-81 107t-30.5 145.5v236q0 57 5.5 95.5t18.5 69t36.5 57.5t60.5 63q14 14 29 28t28.5 30t24.5 35t19 43q-22 -14 -49.5 -20t-54.5 -6q-16 0 -39.5 3t-49.5 13t-51.5 27t-46 45.5t-33.5 70 t-13 98.5z" />
<glyph unicode="&#xe04;" horiz-adv-x="1065" d="M110 0v889q0 81 31.5 144t88 105.5t134 65t169.5 22.5q90 0 167.5 -22.5t135 -65t89 -105.5t31.5 -144v-889h-204v847q0 45 -11.5 82.5t-37.5 63.5t-68 41t-102 15t-102 -14t-68 -40t-37 -64t-11 -84v-241q27 35 56 59.5t66 40t82 21t103 -0.5v-193q-74 14 -131.5 3 t-96.5 -42.5t-59 -81t-20 -112.5v-300h-205z" />
<glyph unicode="&#xe05;" horiz-adv-x="1085" d="M110 0v889q0 66 21.5 120.5t63 97t100 71t132.5 40.5l116 -127l105 127q74 -11 135 -39t103.5 -70.5t65.5 -97.5t23 -122v-889h-206v847q0 50 -13 90.5t-49 66.5l-132 -131q-15 -15 -34.5 -15t-36.5 15l-131 131q-18 -12 -29.5 -28.5t-18 -35.5t-8.5 -42.5t-2 -50.5v-241 q27 35 56 59.5t66 40t82 21t103 -0.5v-193q-74 14 -131.5 3t-96.5 -42.5t-59 -81t-20 -112.5v-300h-205z" />
<glyph unicode="&#xe06;" horiz-adv-x="1065" d="M36 1211h194q0 -19 5 -36t14 -31t24 -22t33 -8q34 0 53 26.5t27 70.5h192v-207q0 -38 -9.5 -69t-27.5 -57.5t-42.5 -53.5t-54.5 -58q-36 -39 -59 -78t-26 -85v-170q0 -52 11 -100.5t37 -86.5t70 -60.5t109 -22.5q46 0 77.5 13t51 37.5t28.5 58.5t9 76v863h204v-879 q0 -94 -23 -159t-65.5 -105.5t-101.5 -59.5t-129 -19q-44 0 -83 9t-74 25.5t-65.5 39t-58.5 49.5l3 -112h-206v559q0 57 5.5 95.5t18 69t36 57.5t58.5 63q14 14 29 28t28.5 30t25.5 35q10 19 19 43q-22 -14 -49.5 -20t-54.5 -6q-17 0 -40 3t-49.5 13t-51.5 27t-45.5 45.5 t-33.5 70t-13 98.5z" />
<glyph unicode="&#xe07;" horiz-adv-x="854" d="M36 729h216l192 -532q5 -16 17.5 -27t31.5 -11q22 0 33.5 15t11.5 37v825h-134v175h343v-986q0 -61 -19.5 -106t-53.5 -76.5t-81.5 -46.5t-104.5 -15q-44 0 -84 12t-71.5 34t-55.5 53q-25 30 -39 68z" />
<glyph unicode="&#xe08;" horiz-adv-x="923" d="M77 838q0 85 25 156.5t76 123.5t126 80t176 28q47 0 94.5 -9t91.5 -29.5t81 -54.5t63 -83.5t38 -115t7 -150.5q-3 -39 -8.5 -78.5t-16.5 -85t-27.5 -103t-39.5 -131.5t-55.5 -168.5t-73.5 -217.5h-250l-170 570h-129v159h285l144 -488q22 73 39 129.5t30 103.5t22.5 84 t17 70.5t11.5 65.5t9 66q5 58 -1 109.5t-26.5 91.5t-55 64t-83.5 24q-88 0 -134.5 -49t-50.5 -162h-215z" />
<glyph unicode="&#xe09;" horiz-adv-x="1031" d="M99 889q2 86 36.5 149t91.5 105.5t130 62.5t153 20q79 0 154.5 -20t133 -59.5t91.5 -100t34 -139.5v-907h-200l3 115q-63 -60 -133 -94.5t-157 -34.5q-72 0 -132 19.5t-104 57.5t-68.5 97t-24.5 140v429h208v-403q0 -85 44 -124t126 -39q118 0 177 68t59 192v444 q0 89 -54 136q-56 46 -157 46q-95 0 -145 -37t-59 -123h-207z" />
<glyph unicode="&#xe0a;" horiz-adv-x="972" d="M51 1019v178q35 9 67.5 13t60 6.5t48 3.5t31.5 1q54 0 98 -14.5t73 -43.5t44 -68.5t15 -90.5q0 -35 -5.5 -60t-18.5 -47.5t-34.5 -50t-54.5 -65.5q-13 -18 -21.5 -38t-14 -43t-6.5 -49t-1 -56v-250q0 -44 12 -77.5t34 -56.5t51 -36q29 -12 64.5 -12t66 11.5t52.5 35 t35 57.5t13 78v241q0 55 -12 88.5t-35.5 52t-57 25.5t-77.5 10v131q60 0 98 22.5t58.5 64t28.5 100.5q8 57 8 131h215q0 -57 -6 -113.5t-22.5 -107t-48 -90.5t-80.5 -64q45 -19 72.5 -50t42 -66t19 -69.5t4.5 -61.5v-263q0 -82 -29.5 -145t-80.5 -107t-119 -66t-145 -22 q-79 0 -146.5 22t-116.5 66t-78 107t-29 145v263q0 60 3.5 100t14 71.5t30 57.5t51.5 60q16 17 30 33t25.5 31.5t18.5 28.5t7 25q0 33 -18.5 44.5t-48.5 11.5q-25 0 -51.5 -3.5t-51.5 -8t-46 -10.5q-21 -5 -36 -11z" />
<glyph unicode="&#xe0b;" horiz-adv-x="1028" d="M38 1211h195q0 -19 4 -36t11.5 -31t20 -22t28.5 -8q19 0 32 7.5t22 21t15.5 31.5t8.5 37h189v-183q0 -47 -24.5 -107.5t-73.5 -128.5q-18 -25 -32.5 -48t-25.5 -45t-17 -46q-7 -23 -7 -50v-258q0 -44 12 -77.5t34 -56.5t52 -35.5t66 -12.5t66 11.5t52 35t34 57.5t12 78 v241q0 55 -11.5 89.5t-34 55t-57 28.5t-77.5 10v119q60 0 97 23t59 65.5t29 102.5q6 58 6 132h217q0 -57 -6.5 -113.5t-23.5 -107t-47 -90.5t-79 -64q45 -19 71.5 -50t41 -66t19.5 -69.5t5 -61.5v-263q0 -82 -30.5 -145t-81 -107t-118.5 -66q-66 -22 -143 -22q-79 0 -147 22 t-118 66t-78 107t-28 145v233q0 52 3.5 86.5t13 64.5t28.5 58.5t52 67.5q30 35 53.5 66.5t31.5 64.5q-19 -5 -45 -12t-51 -7q-16 0 -39.5 4t-48 13.5t-49.5 28t-44 48t-31.5 71t-12.5 98.5z" />
<glyph unicode="&#xe0c;" horiz-adv-x="1633" d="M51 934q37 74 89 129.5t114 92t133 53.5t146 17q85 0 161.5 -21t136 -63.5t94 -103t34.5 -137.5v-449q0 -44 13.5 -93t40.5 -91.5t67.5 -69.5t94.5 -27q39 0 66.5 13t44 38t23 59t6.5 75v855h208v-905q0 -80 -24.5 -139t-65.5 -97t-96 -56.5t-116 -18.5q-39 0 -76.5 8 t-72.5 24.5t-66 38.5t-55 49q0 -12 0.5 -28t1.5 -31.5t1 -30v-25.5h-202v860q0 44 -15.5 79.5t-44.5 60.5t-70 37t-89 12q-38 0 -74.5 -6.5t-68 -19t-57.5 -30.5t-41 -39q8 -14 15.5 -30.5t13 -35.5t9.5 -38.5t4 -38.5v-634h126v-177h-334v819q0 41 -18 71.5t-57 43.5z" />
<glyph unicode="&#xe0d;" horiz-adv-x="1646" d="M51 937q37 74 89.5 129t116.5 90.5t135 52.5t146 17q85 0 161 -21t135 -63.5t93.5 -103t34.5 -137.5v-545q0 -40 11 -73.5t30.5 -58t49 -39t66.5 -14.5q47 0 86.5 19.5t68 51.5t44 73t15.5 84v812h204v-1173q0 -93 -24.5 -172.5t-74.5 -138.5t-127.5 -92.5t-181.5 -33.5 q-69 0 -133 18.5t-115 56.5t-86.5 96t-45.5 138h199q6 -36 23.5 -60.5t43 -41t54 -25t56.5 -8.5q60 0 100.5 19.5t66 51t36 69t10.5 74.5v93q-46 -49 -108.5 -68t-138.5 -19q-59 0 -119 19t-107.5 57.5t-78.5 97t-31 141.5v554q0 44 -16 78.5t-44.5 59t-68.5 37.5t-88 13 q-38 0 -75 -7.5t-70 -20.5t-59.5 -31t-41.5 -39q8 -11 15.5 -27.5t13 -36t9.5 -40t4 -39.5v-634h126v-177h-334v819q0 19 -4 38.5t-12.5 34.5t-23.5 27.5t-35 17.5z" />
<glyph unicode="&#xe0e;" horiz-adv-x="1102" d="M22 0v177h112v642q0 41 -20.5 71.5t-60.5 43.5q37 74 90 129.5t118 92t139 53.5t153 17q53 0 106 -9t102 -27.5t91.5 -45.5t73 -63.5t49 -81.5t18.5 -100v-1291h-193q-16 21 -39.5 39.5t-52 33.5t-63 24t-75.5 9q-38 0 -76.5 -10.5t-75.5 -28t-70 -43t-59 -55.5v201 q25 18 55.5 36.5t66.5 32t75.5 23t83.5 9.5q36 0 67.5 -4.5t58.5 -12t50 -17.5q24 -9 40 -19v1034q0 44 -17 79t-48 59t-73 37.5t-95 13.5q-43 0 -83.5 -6.5t-74 -19t-59.5 -30.5t-41 -39q8 -11 16 -27.5t14.5 -36t10.5 -40t4 -39.5v-811h-318z" />
<glyph unicode="&#xe0f;" horiz-adv-x="1102" d="M22 0v177h112v642q0 41 -20.5 72.5t-60.5 42.5q37 74 90 129.5t118 92t139 53.5t153 17q53 0 106 -9t102 -26.5t91.5 -45t73 -63t49 -81t18.5 -100.5v-1293h-201q-4 17 -11.5 34.5t-20 32.5t-29 25.5t-38.5 10.5t-39.5 -10.5t-28.5 -25.5t-18 -32.5t-7 -34.5h-173 q0 11 -4 29.5t-13 35.5t-24 30t-38 13q-19 0 -34 -10t-25 -25t-15 -35q-5 -19 -5 -38h-190q0 71 20 123.5t54.5 87t80 52t98.5 17.5q60 0 104 -21q44 -20 74 -64q34 41 74.5 58.5t78.5 17.5q43 0 71 -13t52 -32v1026q0 44 -17 79.5t-48 60.5t-73 38.5t-95 13.5 q-43 0 -83.5 -7.5t-74 -20.5t-59.5 -31t-41 -39q8 -11 16 -27t14.5 -35t10.5 -40.5t4 -40.5v-811h-318z" />
<glyph unicode="&#xe10;" horiz-adv-x="923" d="M77 -418q-3 52 5 91t23.5 68t36.5 48t43.5 30t44.5 16.5t39 5.5q42 0 74 -16.5t53 -38.5q23 28 53 39q28 12 58 12q23 0 48.5 -9t41.5 -25v93h187v-314h-187q-5 43 -17.5 66t-41.5 23q-16 0 -26.5 -6.5t-17 -19t-9.5 -29t-3 -34.5h-131q-3 19 -6 35t-9.5 28.5t-15.5 19 t-22.5 6.5t-24.5 -7.5t-18 -20.5t-10.5 -28.5t-3.5 -32.5h-164zM77 838q0 85 25 156.5t76 123.5t126 80t176 28q41 0 82 -6t81 -23q19 9 33 21t22.5 27t12.5 29t4 25h222q-1 -30 -10 -61.5t-27 -60.5t-46 -54q-27 -24 -65 -41q36 -50 55 -123.5t11 -174.5q-3 -39 -8.5 -78.5 t-16.5 -85t-27.5 -103t-39.5 -131.5t-55.5 -168.5t-73.5 -217.5h-250l-170 570h-129v159h285l144 -488q22 73 39 129.5t30 103.5t22.5 84t17 70.5t11.5 65.5t9 66q5 58 -1 109.5t-26.5 91.5t-55 64t-83.5 24q-88 0 -134.5 -49t-50.5 -162h-215z" />
<glyph unicode="&#xe11;" horiz-adv-x="1111" d="M38 1211h195q0 -19 4.5 -35.5t14.5 -30t24 -21t34 -7.5q35 0 53 26.5t15 67.5h195v-92q33 33 63 54.5t60 33.5t63 17t71 5q41 0 72.5 -11t53.5 -36.5t33.5 -68.5t11.5 -106v-1007h-206v1004q0 8 -1 16t-3 15.5t-7.5 12t-14.5 4.5q-28 0 -61 -23t-67.5 -61.5t-70.5 -86 t-67.5 -95.5t-56 -91t-36.5 -73q-13 -27 -19.5 -50.5t-9.5 -44t-3 -39.5v-36v-452h-204v423q0 28 0.5 53t3.5 51t8.5 51.5t16.5 50.5q11 23 25 50.5t31.5 57.5t33.5 58q17 27 30 52q28 46 45.5 80.5t17.5 57.5q-22 -15 -50.5 -26t-64.5 -11q-16 0 -40.5 3t-52 12.5t-53.5 28 t-46.5 48t-31.5 72t-9 99.5z" />
<glyph unicode="&#xe12;" horiz-adv-x="1689" d="M118 0v899q0 65 24.5 120t68.5 97.5t104 70t134 39.5l118 -126l113 126q74 -11 135.5 -38.5t106.5 -70t70 -98t25 -120.5v-447q0 -27 4.5 -58.5t15 -63t27.5 -61t40.5 -52t54 -35.5t67.5 -13q39 0 65.5 14t43 39t24.5 59t8 75v855h204v-905q0 -80 -23 -139t-63.5 -97 t-94 -56.5t-113.5 -18.5q-80 0 -148.5 30t-117.5 90l3 -115h-206v855q0 55 -15 96q-18 41 -59 66l-134 -133q-5 -4 -13 -11q-6 -6 -20 -6q-16 0 -25.5 6.5t-14.5 10.5l-128 133q-18 -13 -32 -31.5t-23.5 -39t-13.5 -43.5t-4 -48v-526q22 30 41 57.5t39 55t41.5 56t42.5 64.5 h-109v161h337v-145l-406 -578h-194z" />
<glyph unicode="&#xe13;" horiz-adv-x="1635" d="M51 934q37 74 89 129t115 90.5t134 52.5t144 17q85 0 162.5 -21t136 -63.5t94.5 -103t36 -136.5v-543q0 -41 8 -75t24.5 -59t44.5 -38t69 -13q58 0 97 27t63.5 68t37 90.5t12.5 95.5v759h208v-1211h-205l2 115q-26 -26 -56.5 -48.5t-66.5 -38.5t-72 -24.5t-73 -8.5 q-63 0 -117 18.5t-94.5 56.5t-64.5 96.5t-24 139.5v552q0 43 -16.5 79t-46 60t-70.5 37t-89 13q-38 0 -74.5 -7t-69.5 -20t-59 -30t-41 -39q8 -14 16.5 -30.5t14.5 -35.5t10 -38.5t4 -38.5v-631h126v-177h-334v817q0 41 -19 71.5t-56 45.5z" />
<glyph unicode="&#xe14;" horiz-adv-x="1100" d="M110 0v889q0 81 34 144t93.5 105.5t140 65t170.5 22.5t171 -22.5t141.5 -65t95.5 -105.5t35 -144v-889h-207v847q0 45 -14 82.5t-42.5 63.5t-74 41t-105.5 15t-104.5 -14t-73 -40t-40.5 -64t-12 -84v-518l164 233h-109v161h337v-145l-407 -578h-193z" />
<glyph unicode="&#xe15;" horiz-adv-x="1116" d="M110 0v889q0 66 24.5 120.5t68.5 97t104 71t134 40.5l118 -127q27 27 57 63q31 35 55 64q74 -11 136 -39t106.5 -70.5t69 -97.5t24.5 -122v-889h-207v847q0 27 -4 51.5t-12.5 44.5t-22 36t-35.5 28l-134 -132q-4 -4 -12 -11q-7 -6 -21 -6q-16 0 -26 6.5t-14 10.5 l-130 132q-36 -25 -53.5 -68t-17.5 -92v-518l164 233h-109v161h337v-145l-407 -578h-193z" />
<glyph unicode="&#xe16;" horiz-adv-x="1074" d="M51 934q37 74 87.5 129.5t112 92t134.5 53.5t151 17q54 0 107 -9t101 -27.5t87.5 -45t70 -63.5t46.5 -82q16 -43 16 -98v-901h-206v860q0 44 -16 79.5t-44.5 60.5t-70 37t-91.5 12q-85 0 -149 -26t-95 -69q8 -14 15.5 -30.5t12.5 -35.5t8.5 -38.5t3.5 -38.5v-634h126 v-177h-335v819q0 41 -16.5 71.5t-55.5 43.5z" />
<glyph unicode="&#xe17;" horiz-adv-x="1057" d="M110 0v1211h202v-114q63 59 140 94t159 35q71 0 133 -18.5t107 -57t71 -97t26 -138.5v-915h-205v864q0 42 -11 75.5t-34.5 58t-57.5 38t-78 13.5q-63 0 -109.5 -23t-77.5 -61t-45.5 -88t-14.5 -103v-774h-205z" />
<glyph unicode="&#xe18;" horiz-adv-x="1012" d="M101 937q0 63 26 116.5t75.5 92.5t118.5 61t156 22q96 0 172.5 -22t129.5 -66.5t81 -113t26 -160.5h-206q0 89 -49 137q-50 48 -141 48q-42 0 -75 -8t-55.5 -22.5t-35 -33t-12.5 -40.5q0 -30 14.5 -50t38.5 -35t56 -27q31 -11 67 -22l60 -19q63 -22 113 -39.5t89 -36 t68.5 -40t48 -53t28.5 -75.5q9 -41 9 -102v-143q0 -80 -34 -139.5t-90.5 -99.5t-127.5 -59t-148 -19t-148 19t-126 59t-89 99t-34 140v305h208v-263q0 -88 48 -135t141 -47t144 46.5t51 135.5v93q0 41 -14.5 66.5t-39 42.5t-58.5 29.5t-71 26.5l-80 28q-67 25 -128 51.5 t-107 62.5t-73 81t-27 108z" />
<glyph unicode="&#xe19;" horiz-adv-x="1057" d="M110 297v914h205v-863q0 -41 11 -75.5t34.5 -59t57.5 -37.5t78 -13q63 0 109.5 22.5t77.5 61t45.5 88t14.5 103.5v773h205v-1211h-201v115q-63 -60 -140.5 -94.5t-159.5 -34.5q-72 0 -133.5 18.5t-106.5 57t-71 96.5t-26 139z" />
<glyph unicode="&#xe1a;" horiz-adv-x="1057" d="M110 318v893h208v-863q0 -44 15 -78t44 -58t67 -36.5t86 -12.5q47 0 86 12.5t66.5 36.5t42.5 58t15 78v863h208v-893q0 -80 -33 -141.5t-90.5 -103t-133.5 -63t-161 -21.5t-161 21.5t-133.5 63t-91.5 102.5q-34 62 -34 142z" />
<glyph unicode="&#xe1b;" horiz-adv-x="1057" d="M110 318v893h208v-863q0 -44 15 -78t44 -58t67 -36.5t86 -12.5q47 0 86 12.5t66.5 36.5t42.5 58t15 78v1312h208v-1342q0 -80 -33 -141.5t-90.5 -103t-133.5 -63t-161 -21.5t-161 21.5t-133.5 63t-91.5 102.5q-34 62 -34 142z" />
<glyph unicode="&#xe1c;" horiz-adv-x="1143" d="M110 297v914h331v-173h-123v-704q0 -87 18 -128q17 -40 56 -40q29 0 44.5 15.5t22.5 44.5t8 66q2 37 2 81v359h208v-359q0 -44 1.5 -81t10 -66t26 -44.5t45.5 -15.5q36 0 52 40q15 41 15 128v877h209v-914q0 -78 -18.5 -135.5t-51.5 -95t-79 -56t-101 -18.5 q-68 0 -124 27.5t-89 79.5q-33 -52 -83 -80q-52 -27 -123 -27q-57 0 -105 18.5t-81.5 56t-52 95t-18.5 135.5z" />
<glyph unicode="&#xe1d;" horiz-adv-x="1143" d="M110 297v914h331v-173h-123v-704q0 -87 18 -128q17 -40 56 -40q29 0 44.5 15.5t22.5 44.5t8 66q2 37 2 81v359h208v-359q0 -44 1.5 -81t10 -66t26 -44.5t45.5 -15.5q36 0 52 40q15 41 15 128v1326h209v-1363q0 -78 -18.5 -135.5t-51.5 -95t-79 -56t-101 -18.5 q-68 0 -124 27.5t-89 79.5q-33 -52 -83 -80q-52 -27 -123 -27q-57 0 -105 18.5t-81.5 56t-52 95t-18.5 135.5z" />
<glyph unicode="&#xe1e;" horiz-adv-x="1333" d="M67 1211h219l118 -751l3 -33l5 36l152 748h210l149 -751l3 -37q0 2 0.5 7.5t1.5 12t2.5 11.5t1.5 6l117 751h220l-217 -1211h-225l-158 806l-162 -806h-223z" />
<glyph unicode="&#xe1f;" horiz-adv-x="1333" d="M67 1211h219l118 -751l3 -33l5 36l152 748h210l149 -751l3 -37q0 2 0.5 7.5t1.5 12t2.5 11.5t1.5 6l187 1200h219l-286 -1660h-225l-158 806l-162 -806h-223z" />
<glyph unicode="&#xe20;" horiz-adv-x="1071" d="M22 0v177h112v642q0 41 -17.5 71.5t-57.5 43.5q37 74 86.5 129.5t111 92t132.5 53.5t149 17q55 0 107 -9t99.5 -27.5t87 -45t68.5 -63.5t45 -82q17 -43 17 -98v-901h-207v860q0 91 -56 140t-161 49q-85 0 -145 -26t-90 -69q8 -14 15 -30.5t11.5 -35.5t7.5 -38.5t3 -38.5 v-811h-318z" />
<glyph unicode="&#xe21;" horiz-adv-x="1057" d="M110 0v1211h205v-773q0 -53 14.5 -103t45.5 -88.5t77.5 -61t109.5 -22.5q45 0 78.5 13t57 37.5t34.5 59t11 75.5v863h205v-914q0 -79 -26 -138t-71 -97.5t-107 -57t-133 -18.5q-82 0 -159 34.5t-140 94.5v-115h-202z" />
<glyph unicode="&#xe22;" horiz-adv-x="1031" d="M82 353q0 40 3.5 84.5t19.5 86.5t46 79q30 38 82 63q-49 19 -78.5 49t-45.5 64.5t-20 71.5t-4 72q0 58 13.5 100.5t39 75.5t57.5 54t68.5 34t74 18.5t72.5 5.5h160v-175h-112q-18 0 -47 -3t-55.5 -14.5t-46.5 -37t-20 -69.5q0 -49 14.5 -79t40 -48t58 -26t69.5 -10h99 v-174h-99q-27 -1 -50.5 -4.5t-44 -11.5t-37.5 -22t-28.5 -37t-18 -57.5t-6.5 -81t13 -83.5t40.5 -63t70 -41t100.5 -15q60 0 101 15.5t65.5 44t34.5 66.5t10 85v841h202v-879q0 -83 -27 -147t-79.5 -109.5t-129 -68.5t-177.5 -23q-94 0 -172 23t-135.5 69t-89 115t-31.5 162 z" />
<glyph unicode="&#xe23;" horiz-adv-x="857" d="M51 373h209q-2 -37 4.5 -75t24.5 -68.5t48 -50.5t75 -20q39 0 71 10t54 33t34.5 58t12.5 85q0 45 -19.5 79.5t-52 61t-75 48.5t-89.5 44q-64 30 -115.5 60.5t-88.5 68.5t-57 90t-20 124q0 74 28 131.5t76 97t110.5 59.5t130.5 20q177 0 262.5 -91t85.5 -271h-204 q0 41 -9.5 76t-28 59t-46 37t-62.5 13q-62 0 -97 -33t-35 -96q0 -33 17 -60t49.5 -52.5t79.5 -51.5t106 -58q34 -17 67 -35.5t62 -39t53.5 -46t41.5 -58t27.5 -72t10.5 -91.5q0 -85 -23.5 -153.5t-70 -118t-117.5 -76.5t-169 -27q-80 0 -150 24t-121 72.5t-75 121.5 q-25 72 -15 171z" />
<glyph unicode="&#xe24;" horiz-adv-x="1074" d="M51 934q37 74 87.5 129.5t112 92t134.5 53.5t151 17q54 0 107 -9t101 -27.5t87.5 -45t70 -63.5t46.5 -82q16 -43 16 -98v-1293h-206v1252q0 44 -16 79.5t-44.5 60.5t-70 37t-91.5 12q-85 0 -149 -26t-95 -69q8 -14 15.5 -30.5t12.5 -35.5t8.5 -38.5t3.5 -38.5v-634h126 v-177h-335v819q0 41 -16.5 71.5t-55.5 43.5z" />
<glyph unicode="&#xe25;" horiz-adv-x="1031" d="M64 345q0 11 1.5 33t7.5 50t18.5 59t35 61t56 54.5t83.5 40.5l377 117q13 4 27.5 15t25.5 27.5t18 37t7 46.5q0 44 -15.5 75t-43.5 50t-67 28.5t-85 9.5q-50 0 -87 -15t-63.5 -41.5t-40.5 -65.5q-15 -39 -19 -86h-207q3 99 38.5 171.5t96 120.5t140.5 70.5t170 22.5 q85 0 146 -17.5t103.5 -46.5t69.5 -65.5t41 -74t19.5 -72.5t5.5 -61v-889h-202v625q-36 -17 -73 -31q-37 -13 -75 -27l-203 -66q-28 -8 -46 -24.5t-30.5 -39.5t-18.5 -49t-6 -54q0 -35 13 -65.5t36.5 -52t57.5 -33.5q35 -12 76 -12q15 0 41 6q28 7 63 18v-170 q-31 -17 -67.5 -25t-65.5 -8q-93 0 -160.5 23t-111.5 68.5t-65.5 111t-21.5 150.5z" />
<glyph unicode="&#xe26;" horiz-adv-x="1071" d="M22 0v177h112v642q0 41 -17.5 71.5t-57.5 43.5q37 74 86.5 129.5t111 92t132.5 53.5t149 17q55 0 107 -9t99.5 -27.5t87 -45t68.5 -63.5t45 -82q17 -43 17 -98v-1293h-207v1252q0 91 -56 140t-161 49q-85 0 -145 -26t-90 -69q8 -14 15 -30.5t11.5 -35.5t7.5 -38.5 t3 -38.5v-811h-318z" />
<glyph unicode="&#xe27;" horiz-adv-x="894" d="M59 784q0 60 10 115.5t31 104t51 89.5t71 70.5t93 46t115 16.5q59 0 112 -13t96.5 -42.5t79.5 -77.5t60.5 -117t38 -162t13.5 -214q0 -63 -6.5 -133t-23 -138.5t-45.5 -130.5t-73 -110t-105 -76q-59 -28 -141 -28q-85 0 -148 26t-107 73t-71.5 111t-39.5 138h219 q6 -36 16 -67t27 -55t42.5 -37.5t61.5 -13.5q53 0 87.5 35.5t54 96.5t26.5 141t7 168v76t-5.5 96t-16.5 99.5t-31.5 89t-52 64t-78.5 24.5q-50 0 -82.5 -24.5t-50 -63t-23 -86.5t-5.5 -91h-207z" />
<glyph unicode="&#xe28;" horiz-adv-x="1068" d="M110 0v886q0 81 31.5 144t89 105.5t135.5 65t170 22.5q57 0 108.5 -7.5t95.5 -26.5q27 3 46.5 15.5t31.5 29.5t17.5 34.5t5.5 30.5h222q-1 -30 -10 -64t-28 -64.5t-50.5 -55t-75.5 -38.5q27 -41 43.5 -87.5t16.5 -103.5v-886h-204v847q0 43 -11.5 81t-37.5 64.5t-68 41.5 t-102 15q-62 0 -104.5 -15t-67 -41t-35.5 -63t-11 -83v-241q27 35 56 59.5t66 40t82 21t103 -0.5v-193q-74 14 -131.5 3t-96.5 -42.5t-59 -81t-20 -112.5v-300h-208z" />
<glyph unicode="&#xe29;" horiz-adv-x="1057" d="M110 310v901h208v-860q0 -44 15.5 -79t44 -59t68 -37t87.5 -13q47 0 85 13t66 37t43.5 59t15.5 79v205h-307v271h193v-101h114v485h208v-485h107v-170h-107v-244q0 -53 -17 -97.5t-47.5 -81t-71 -63t-87 -45t-96.5 -27.5t-99 -9t-100.5 9t-98 26.5t-87.5 44.5t-71.5 62.5 t-48 79.5t-17.5 99z" />
<glyph unicode="&#xe2a;" horiz-adv-x="1049" d="M64 345q0 11 1.5 33t7.5 50t18.5 59t35 61t56 54.5t83.5 40.5l377 117q13 4 27.5 15t25.5 27.5t18 37t7 46.5q0 44 -15.5 75t-43.5 50t-67 28.5t-85 9.5q-50 0 -87 -15t-63.5 -41.5t-40.5 -65.5q-15 -39 -19 -86h-207q3 99 38.5 171.5t96 120.5t140.5 70.5t170 22.5 q62 0 111 -10q47 -10 88 -27q25 6 42 19.5t27.5 30t15.5 33t5 27.5h222q0 -32 -10.5 -65.5t-32.5 -63.5t-55 -56t-78 -40q16 -25 25.5 -49.5t15 -49t7.5 -46.5t2 -40v-889h-202v625q-36 -17 -73 -31q-37 -13 -75 -27l-203 -66q-28 -8 -46 -24.5t-30.5 -39.5t-18.5 -49 t-6 -54q0 -35 13 -65.5t36.5 -52t57.5 -33.5q35 -12 76 -12q15 0 41 6q28 7 63 18v-170q-31 -17 -67.5 -25t-65.5 -8q-93 0 -160.5 23t-111.5 68.5t-65.5 111t-21.5 150.5z" />
<glyph unicode="&#xe2b;" horiz-adv-x="1068" d="M110 0v1211h208v-422l440 422h259l-248 -236q54 -24 90.5 -62t57 -86.5t29 -106t8.5 -123.5v-597h-207v619q0 39 -7.5 73.5t-22 63.5t-37 51.5t-55.5 33.5l-307 -296v-545h-208z" />
<glyph unicode="&#xe2c;" horiz-adv-x="1276" d="M70 1211h211l78 -764l5 -110l20 112l135 555h193l129 -555l19 -123l15 121q13 102 22 175.5t15 125.5t9.5 83.5t5.5 50.5t2 29.5v17.5q0 27 -5.5 49t-19.5 38.5t-37.5 24.5t-60.5 8l-25 157q49 0 95.5 11.5t82.5 32.5t59 52.5t29 75.5h227q-5 -53 -24.5 -97.5 t-45.5 -77.5t-59 -56.5t-68 -35.5q33 -27 48 -70.5t15 -103.5q0 -23 -4 -47q-2 -24 -4 -43l-136 -847h-249l-136 608l-131 -608h-247z" />
<glyph unicode="&#xe2d;" horiz-adv-x="1071" d="M99 648v81h426v-173h-210q3 -87 14 -161t35.5 -127t65.5 -82.5t103 -29.5q66 0 109 33t67.5 91t35 138.5t10.5 176.5q0 122 -13 207.5t-40.5 140t-68.5 79.5t-100 25q-75 0 -126 -51t-75 -160h-220q39 186 143.5 286.5t277.5 100.5q114 0 196 -39t136 -113.5t79.5 -181.5 t25.5 -241q0 -192 -30 -320.5t-87 -206t-138.5 -109t-181.5 -31.5q-99 0 -179 32t-137 109.5t-87.5 206.5t-30.5 319z" />
<glyph unicode="&#xe2e;" horiz-adv-x="1076" d="M99 651v81h428v-176h-209q3 -87 13.5 -160t35.5 -125.5t64.5 -82t101.5 -29.5q66 0 109 33t67.5 90.5t35 138t10.5 176.5q0 124 -13 211t-39 141.5t-68.5 80t-101.5 25.5q-74 0 -122 -49.5t-71 -158.5h-222q19 90 54 162t86.5 120.5t120 74t154.5 25.5q111 -1 196 -43 q25 5 42.5 18t30 29t18 32.5t5.5 27.5h224q-1 -31 -12.5 -64.5t-33.5 -64.5t-56.5 -55t-82.5 -38q53 -74 81 -179.5t28 -240.5q0 -129 -14 -228.5t-40 -173.5t-64 -124.5t-87.5 -80.5t-108.5 -44t-126 -14q-66 0 -123 14t-106 44.5t-87 81.5t-64.5 124t-40 173t-13.5 228z " />
<glyph unicode="&#xe2f;" horiz-adv-x="1031" d="M85 923q0 54 13.5 95.5t39 74t57.5 55t68.5 37t74 20.5t72.5 6h160v-167h-112q-18 0 -47 -4t-55.5 -16.5t-46.5 -37t-20 -65.5q0 -28 9 -55.5t29.5 -48t57.5 -33.5t92 -13q120 0 182 44.5t62 140.5v255h202v-1211h-202v666q-47 -34 -108 -54t-133 -20q-99 0 -173 23 t-123.5 67t-74 105.5t-24.5 135.5z" />
<glyph unicode="&#xe30;" horiz-adv-x="650" d="M101 171v250h183v-89h291v-161h-474zM101 797v250h183v-91h291v-159h-474z" />
<glyph unicode="&#xe31;" d="M-637 1375v264h177v-94h522v-170h-699z" />
<glyph unicode="&#xe32;" horiz-adv-x="857" d="M19 873q0 87 31.5 153.5t83.5 110.5t118 66.5t134 22.5q66 0 132 -20.5t118 -61t84 -102t32 -141.5v-901h-207v867q0 44 -11.5 79t-32 58.5t-50 35.5t-65.5 12q-33 0 -61 -12t-50.5 -35.5t-36 -56.5t-16.5 -75h-203z" />
<glyph unicode="&#xe33;" horiz-adv-x="857" d="M-423 1566q0 44 15.5 81t43 65t64.5 43t78 15q44 0 81 -15t64.5 -43t44 -66t16.5 -80.5t-16.5 -79.5t-44 -64t-64.5 -42t-81 -15q-41 0 -78 15t-64.5 42t-43 64t-15.5 80zM-295 1566q0 -15 6.5 -29t16 -23.5t23 -15t27.5 -5.5q16 0 30 5.5t24 15t16.5 23.5t6.5 29 q0 16 -6.5 29t-16.5 24t-24 16.5t-30 5.5q-14 0 -27.5 -5.5t-23 -16.5t-16 -24t-6.5 -29zM19 873q0 87 31.5 153.5t83.5 110.5t118 66.5t134 22.5q66 0 132 -20.5t118 -61t84 -102t32 -141.5v-901h-207v867q0 44 -11.5 79t-32 58.5t-50 35.5t-65.5 12q-33 0 -61 -12 t-50.5 -35.5t-36 -56.5t-16.5 -75h-203z" />
<glyph unicode="&#xe34;" d="M-956 1373l86 172h760v-172h-846z" />
<glyph unicode="&#xe35;" d="M-956 1373l86 172h578v184h182v-356h-846z" />
<glyph unicode="&#xe36;" d="M-956 1373l86 172h432q-3 3 -3 6v5q0 39 15 73t40.5 58.5t59 40t71.5 15.5q39 0 71.5 -15.5t58.5 -40t40.5 -58.5t14.5 -73q0 -38 -14.5 -71t-40.5 -58t-59 -40q-32 -14 -71 -14h-701zM-318 1554q0 -25 19 -43q20 -18 44 -18q25 0 42.5 18t17.5 43q0 24 -17.5 43.5 t-42.5 19.5q-24 0 -43.5 -19.5t-19.5 -43.5z" />
<glyph unicode="&#xe37;" d="M-956 1373l86 172h322v184h175v-184h89v184h174v-356h-846z" />
<glyph unicode="&#xe38;" d="M-389 -182h279v-461h-190v292h-89v169z" />
<glyph unicode="&#xe39;" d="M-743 -182h280v-202q0 -49 20.5 -73.5t61.5 -24.5t61 24.5t20 73.5v202h190v-202q-1 -52 -15.5 -100t-46.5 -83.5t-83.5 -56.5t-125.5 -21t-126 21t-84 56.5t-47 83.5q-14 48 -15 100v36h-90v166z" />
<glyph unicode="&#xe3a;" d="M-353 -300q0 27 10 52.5t27 44t41 29.5t50 11q29 0 54.5 -11t43 -29.5t28.5 -43t11 -53.5q0 -27 -11 -50t-28.5 -40.5t-43 -28.5t-54.5 -11q-26 0 -50 11t-41 28.5t-27 40.5t-10 50z" />
<glyph unicode="&#xe3e;" />
<glyph unicode="&#xe3f;" horiz-adv-x="1143" d="M129 0v1430h353v126h140v-126q96 -2 168 -30.5t120 -76.5t72 -113.5t25 -143.5q1 -55 -6.5 -101t-26.5 -83.5t-51.5 -67.5t-81.5 -54q55 -17 94.5 -48.5t63 -75t34.5 -95t11 -108.5q3 -208 -102.5 -318.5t-319.5 -114.5v-222h-140v222h-353zM340 179h142v472h-142v-472z M340 836h142v413h-142v-413zM622 179q49 6 88 21.5t66 45t39 72t12 100.5q-1 68 -17.5 112t-44.5 69.5t-65 36.5t-78 15v-472zM622 838q36 6 66 21t52 39.5t33 61.5t11 89q0 173 -162 195v-406z" />
<glyph unicode="&#xe40;" horiz-adv-x="423" d="M110 0v1211h205v-1211h-205z" />
<glyph unicode="&#xe41;" horiz-adv-x="765" d="M110 0v1211h205v-1211h-205zM452 0v1211h204v-1211h-204z" />
<glyph unicode="&#xe42;" horiz-adv-x="509" d="M-19 1574l41 166h551l87 -169h-371q33 -32 53 -78t20 -101v-1213h120v-179h-329v1373q0 45 -13 82t-36 63.5t-55.5 41t-67.5 14.5z" />
<glyph unicode="&#xe43;" horiz-adv-x="509" d="M-79 1451q0 85 27 146.5t71.5 102.5t103 61t121.5 20q57 0 109.5 -13.5t92 -41t63.5 -70t24 -100.5q0 -37 -7 -62t-21.5 -47t-36 -44t-53.5 -54q-19 -19 -29.5 -37.5t-16 -39t-6.5 -46.5t-1 -59v-988h123v-179h-329v1181q0 47 7 86t20.5 71t34 58.5t48.5 51.5 q13 11 28.5 25.5t27 27.5t19 26t7.5 21q0 14 -8 26t-22 20.5t-33 12.5t-41 4q-23 0 -45 -7t-39.5 -24.5t-29.5 -49t-15 -79.5h-194z" />
<glyph unicode="&#xe44;" horiz-adv-x="509" d="M-148 1571l86 169h550l42 -166q-37 0 -68.5 -14.5t-54.5 -41t-37 -64t-14 -81.5v-1194h124v-179h-332v1392q0 55 20 101.5t54 77.5h-370z" />
<glyph unicode="&#xe45;" horiz-adv-x="857" d="M19 873q0 87 31.5 153.5t83.5 110.5t118 66.5t134 22.5q66 0 132 -20.5t118 -61t84 -102t32 -141.5v-1293h-207v1259q0 44 -11.5 79t-32 58.5t-50 35.5t-65.5 12q-33 0 -61 -12t-50.5 -35.5t-36 -56.5t-16.5 -75h-203z" />
<glyph unicode="&#xe46;" horiz-adv-x="961" d="M56 844q-5 73 6.5 138t45.5 116t96 86t155 48l99 -98l90 98q70 -6 120 -24.5t84 -47t54.5 -65t31.5 -78.5t14 -88.5t3 -92.5v-1225h-204v1244q0 23 -2 50t-7.5 51.5t-16.5 45t-28 31.5l-98 -99q-19 -16 -39 -16t-39 16l-100 102q-22 -11 -34 -28t-18 -38.5t-7.5 -48 t-1.5 -54.5q0 -16 4.5 -34.5t15 -33.5t28 -25.5t43.5 -10.5h48v-182h-48q-61 0 -111.5 15t-89.5 47t-63 82t-31 119z" />
<glyph unicode="&#xe47;" d="M-912 1630q0 78 24.5 129.5t63 83t83.5 44t88 12.5h552v-151h-544q-28 0 -45.5 -9.5t-28 -26t-14.5 -37t-4 -42.5t1.5 -41t9 -34t20.5 -25t35 -10t35.5 12t20.5 31.5t9.5 47t2.5 57.5h148q0 -30 3 -57.5t9.5 -47t20.5 -31.5t36 -12q23 0 36 12.5t20 33t7 47.5q0 25 -3 55 h167q6 -90 -9.5 -149t-45.5 -93t-71 -47q-41 -12 -85 -9q-30 2 -54.5 10.5t-44 21t-33.5 28.5t-23 34q-9 -16 -25.5 -33t-38.5 -31t-47.5 -22t-53.5 -8q-58 0 -100 20.5t-68.5 55.5t-40 82t-13.5 99z" />
<glyph unicode="&#xe48;" d="M-286 1841v309h176v-309h-176z" />
<glyph unicode="&#xe49;" d="M-634 2019v141h256v-174q99 3 146 49.5t47 124.5h174q0 -63 -26 -119.5t-75.5 -100.5t-121.5 -71q-72 -25 -162 -28h-137v178h-101z" />
<glyph unicode="&#xe4a;" d="M-701 1841q0 78 13.5 129.5t37 83t55.5 45.5t68 14q46 0 74 -23t46 -58q15 35 49.5 58t86.5 23q27 0 51.5 -7t44.5 -22t34 -40.5t18 -62.5q23 19 38 60t15 93h155q0 -49 -15 -97t-42 -88.5t-64.5 -69.5t-84.5 -38h-131q0 14 -1.5 36t-6 42.5t-13 35.5t-22.5 15 q-13 0 -22.5 -13.5t-16 -33t-9 -41.5t-2.5 -41h-121q0 19 -2.5 41t-8 41.5t-14.5 33t-22.5 13.5t-22.5 -15t-13 -35.5t-5.5 -42.5t-1.5 -36h-145z" />
<glyph unicode="&#xe4b;" d="M-438 1981v140h172v149h156v-149h172v-140h-172v-158h-156v158h-172z" />
<glyph unicode="&#xe4c;" d="M-289 1700q0 60 25.5 118.5t76 104.5t122.5 74q73 28 166 28v-145q-54 0 -94 -14t-66 -37t-38.5 -56t-12.5 -73h-179z" />
<glyph unicode="&#xe4d;" d="M-423 1566q0 44 15.5 81t43 65t64.5 43t78 15q44 0 81 -15t64.5 -43t44 -66t16.5 -80.5t-16.5 -79.5t-44 -64t-64.5 -42t-81 -15q-41 0 -78 15t-64.5 42t-43 64t-15.5 80zM-295 1566q0 -15 6.5 -29t16 -23.5t23 -15t27.5 -5.5q16 0 30 5.5t24 15t16.5 23.5t6.5 29 q0 16 -6.5 29t-16.5 24t-24 16.5t-30 5.5q-14 0 -27.5 -5.5t-23 -16.5t-16 -24t-6.5 -29z" />
<glyph unicode="&#xe4e;" d="M-485 1403q0 48 12.5 97t39 91t68.5 72t102 43q10 43 36.5 78t70.5 61t103 41q61 13 135 16v-151q-98 0 -144 -34q-45 -32 -45 -106v-34h-38q-45 0 -76 -13t-49 -36.5t-25.5 -55t-7.5 -69.5h-182z" />
<glyph unicode="&#xe4f;" horiz-adv-x="1391" d="M82 603q0 85 21.5 163t61 146.5t95 124.5t124 95t146.5 61t163 22t163 -22t146.5 -61t124 -95t94.5 -124.5t61 -146.5t22 -163t-22 -163t-61 -146t-94.5 -123.5t-124 -95t-146.5 -61.5t-163 -22t-163 22t-146.5 61.5t-124 95t-95 123.5t-61 146t-21.5 163zM252 606 q0 -61 16.5 -117t45 -104.5t68.5 -89t89.5 -69.5t105.5 -44.5t116 -15.5q61 0 117 15.5t105 44.5t89 69.5t68.5 89t45 104.5t16.5 117q0 90 -35.5 171t-95 140.5t-139.5 94.5t-171 35q-60 0 -116 -16t-105.5 -45.5t-89.5 -69t-68.5 -89t-45 -105.5t-16.5 -116zM367 606 q0 67 26 126.5t70 103.5t103.5 70t126.5 26t127 -26t103.5 -70t69.5 -103t26 -127t-26 -126.5t-69.5 -103t-103.5 -70t-127 -25.5t-126.5 25.5t-103.5 70t-70 103t-26 126.5zM519 605.5q0 -35.5 14 -67t38 -55t55.5 -37t67 -13.5t67 13.5t55.5 37t37.5 55t13.5 67t-13.5 68 t-37.5 56.5t-55.5 37.5t-67 13.5t-67 -13.5t-55.5 -37.5t-38 -56.5t-14 -68z" />
<glyph unicode="&#xe50;" horiz-adv-x="1226" d="M82 543q0 131 41 229t112.5 163t167.5 98t208 33t209.5 -33t168.5 -98t112.5 -163t41.5 -229q0 -146 -41.5 -252.5t-113 -175t-168.5 -101.5t-209 -33t-208 33t-167.5 102.5t-112.5 175t-41 251.5zM286 536q0 -92 23 -163.5t64.5 -119t101.5 -74.5q59 -26 136 -26 t137 26.5t102.5 74t64.5 119t22 163.5q0 96 -25.5 164.5t-69 111t-103 62t-128.5 19.5q-67 0 -126 -20.5t-103.5 -63t-70 -110t-25.5 -163.5z" />
<glyph unicode="&#xe51;" horiz-adv-x="1215" d="M11 169l155 134q27 -44 67.5 -73.5t88 -48.5t100 -27.5t105.5 -8.5q87 0 157 30.5t118.5 85t75 131.5t26.5 172q0 74 -16.5 136.5t-52 108t-93 70.5t-142.5 25q-68 0 -121.5 -17.5t-90.5 -48t-56.5 -68t-19.5 -77.5q0 -37 12.5 -73t44 -63.5t87 -40t141.5 -0.5v-149 q-35 -8 -68 -11t-66 -3q-79 0 -147.5 24t-119.5 67.5t-79.5 102.5t-28.5 130q0 68 19 124.5t54.5 99.5t83.5 75t104.5 52.5t119.5 30.5t126 10q113 0 212 -28.5t171.5 -89.5t114.5 -156q41 -94 41 -228q0 -83 -19 -159t-54 -140.5t-86.5 -117.5t-118.5 -90t-148.5 -56.5 t-174.5 -19.5q-66 0 -133.5 6.5t-135 26t-132 56.5t-121.5 96z" />
<glyph unicode="&#xe52;" horiz-adv-x="1394" d="M0 1033l33 178q60 0 111.5 -18t88 -55.5t56.5 -94.5q21 -57 21 -136v-460q0 -59 24.5 -110.5t76.5 -90t131 -59.5q77 -21 184 -21q101 0 171 20t114 54t63 77t19 90v322q0 66 -28 103t-74 46q-18 -14 -38 -31l-40 -34t-39 -33.5t-36 -30.5l-148 124q-17 0 -33.5 -9 t-29 -25.5t-19.5 -41.5q-8 -27 -8 -60v-105q0 -33 3 -64t11.5 -55.5t26 -39.5t47.5 -15h81v-163h-100q-65 0 -111 17t-76.5 44.5t-48.5 62t-27 71t-12 72.5q-5 35 -5 63v96q0 65 23.5 125t66 105.5t104 76t138.5 38.5l117 -99l107 99q78 -4 143.5 -29t113 -66t74 -96.5 t26.5 -122.5v-308q0 -121 -40.5 -207t-110.5 -142.5t-162.5 -82.5t-196.5 -26h-110q-141 0 -250 34.5t-182 97.5t-111 150.5t-38 194.5v410q0 86 -24.5 123t-76.5 37z" />
<glyph unicode="&#xe53;" horiz-adv-x="1245" d="M93 463v110q0 120 24.5 209t73.5 148t122 92t169 44l143 -123l149 123q99 -8 171 -41t118.5 -86.5t69.5 -120.5t23 -141v-677h-208v677q0 45 -11 79t-30 58t-45 38t-54 15q-22 -16 -45 -34.5t-47 -38t-47 -38.5q-25 -19 -44 -35l-176 146q-24 -1 -51.5 -13.5t-49.5 -44 t-36.5 -87t-14.5 -141.5v-115q0 -30 1 -63.5t5 -66t11.5 -62.5t22.5 -53.5t38 -36.5q25 -13 58 -13q22 0 59 3.5t86 13.5v-180q-15 -4 -41.5 -7.5t-56 -6t-59 -4t-51.5 1.5q-70 8 -117 34.5t-79 64.5t-48 86t-23.5 97t-8.5 98t-1 91z" />
<glyph unicode="&#xe54;" horiz-adv-x="1205" d="M82 449v143q0 118 38.5 203.5t109.5 142.5t171 84t224 27h178q44 0 70.5 12.5t42.5 34t21.5 50.5t5.5 65h216q0 -38 -5.5 -79t-20.5 -79.5t-39.5 -72t-63 -59t-93.5 -40t-126 -14.5h-205q-73 0 -131.5 -16.5t-99.5 -48t-63 -76.5q-23 -46 -23 -104v-167q0 -59 17 -110.5 t51.5 -88.5t89 -58t128.5 -21h41q-19 13 -36.5 31.5t-31.5 41.5t-23 51t-9 61q0 16 2.5 40t13.5 51t31.5 53t56 47t90 34t131.5 13v-173q-45 0 -69.5 -9.5t-36.5 -22.5t-14.5 -27.5t-2.5 -25.5q0 -35 15 -65t37.5 -53t48.5 -35t48 -12h292v-177h-608q-93 0 -164.5 19 t-123.5 53.5t-86.5 78.5t-56 94.5t-30 102.5t-8.5 101z" />
<glyph unicode="&#xe55;" horiz-adv-x="1205" d="M82 447v145q0 88 23.5 160.5t68 128.5t110.5 94q67 39 152 55q-9 25 -9 47q0 41 16 78.5t44 65t65 43.5t80 16t81 -16t66.5 -43.5t43.5 -64.5q15 -38 15 -79v-14t-2 -14q31 5 52.5 18.5t33 34.5t16.5 48.5t5 60.5h216q0 -40 -5.5 -81t-20.5 -79.5t-39.5 -72t-63 -59.5 t-93.5 -40.5t-126 -14.5h-205q-73 0 -131.5 -15.5t-99.5 -47t-63.5 -76.5t-22.5 -106v-164q0 -59 17 -110.5t51.5 -88.5t89 -58t128.5 -21h41q-19 13 -36.5 31.5t-31.5 41.5t-23 51t-9 61q0 16 2.5 40t13.5 51t31.5 53t56 47t90 34t131.5 13v-173q-45 0 -69.5 -9.5 t-36.5 -22.5t-14.5 -27.5t-2.5 -25.5q0 -35 15 -65t37.5 -53t48.5 -35t48 -12h292v-177h-608q-93 0 -164.5 19t-123.5 52.5t-86.5 78.5t-56 94t-30 101t-8.5 102zM570 1077q0 -28 18 -45.5t44 -17.5q30 0 48.5 17.5t18.5 45.5q0 30 -19.5 49t-47.5 19q-26 0 -44 -19t-18 -49 z" />
<glyph unicode="&#xe56;" horiz-adv-x="1261" d="M36 1063l170 99l112 -192q24 14 60 30.5t82 30t101 23t119 12.5q101 3 177.5 -15.5t134 -53.5t94.5 -83t60.5 -104t32.5 -118q7 -62 7 -122v-96q0 -66 -13.5 -128t-42.5 -117.5t-73.5 -101t-104 -77t-136 -48t-168.5 -13.5q-101 3 -184 29t-142 71t-90 108 q-32 63 -32 137q0 73 24 125t68.5 85.5t107.5 49.5q63 14 143 14h82v-164h-74q-43 0 -71 -8.5t-44.5 -23.5t-22.5 -37t-6 -49q0 -33 17 -61.5t50 -49t79.5 -33t106.5 -13.5q66 -2 123.5 18.5t101.5 60.5t69.5 96t25.5 127v93q0 79 -20 138.5t-57 101t-90.5 63t-122.5 19.5 q-63 -1 -117.5 -12t-106.5 -31.5t-104 -51.5q-52 -32 -110 -73z" />
<glyph unicode="&#xe57;" horiz-adv-x="1470" d="M112 455v115q0 115 25.5 201.5t75.5 147.5t122.5 95.5t165.5 45.5l113 -109l112 109q112 -11 185 -49t114.5 -100.5t58 -147.5t16.5 -188v-109q-1 -28 -2.5 -53t-5.5 -50.5t-11 -53t-18 -57.5q32 33 53 71.5t33.5 77.5t18 79.5t5.5 78.5v351q0 79 20.5 136.5t56 94.5 t86 55.5t112.5 18.5l32 -179q-52 0 -75.5 -37t-23.5 -124v-291q0 -63 -12.5 -127.5t-37 -125t-61.5 -115t-87.5 -100t-113 -78.5t-137.5 -49l-158 121q44 43 68 84.5t35 84t13.5 87.5t2.5 94v115q0 72 -10 123t-28.5 86t-43.5 55t-53 25l-147 -143l-142 139q-25 -5 -52 -23 t-48 -53t-34.5 -87t-13.5 -124v-107v-55t4.5 -61.5t13.5 -61.5t24 -54t39 -38.5t58 -16.5q9 0 22.5 1t28.5 3.5t30 5.5t29 8l3 -181q-118 -35 -204.5 -16t-142.5 79.5t-83.5 157.5t-30.5 218z" />
<glyph unicode="&#xe58;" horiz-adv-x="1250" d="M104 381v230q0 107 31.5 189t94.5 137t157 84q93 28 219 28h235q44 0 71.5 12.5t42.5 34t21 50.5t6 65h215q0 -38 -5.5 -79t-19.5 -80.5t-39.5 -74t-64 -61t-92 -41.5t-124.5 -15h-266q-72 0 -124 -17.5t-86 -50t-49 -75.5t-15 -95v-241q0 -41 12.5 -75.5t33 -60.5 t46.5 -42.5t54 -17.5l174 136l185 -136q30 0 53 10.5t40 31.5t26 57.5t9 88.5q0 22 -4 46.5t-15 45.5t-32 35q-23 14 -56 14h-52v166h63q66 0 114 -14t81 -37t53.5 -53.5t33 -64.5t16.5 -69.5t4 -71.5q0 -93 -20.5 -164.5t-64.5 -119.5t-114 -72.5t-168 -24.5l-152 118 l-142 -118q-98 7 -170 40.5t-120.5 87t-72.5 121.5q-23 66 -23 143z" />
<glyph unicode="&#xe59;" horiz-adv-x="1285" d="M107 455v101q0 122 15 216t54 159t107 98.5t175 33.5q32 0 63.5 -2.5t62 -11t58 -25t51.5 -44.5q11 26 28 40t39 20.5t47.5 7.5t52.5 1h88q41 0 67 12.5t41 34t19.5 50.5t4.5 65h211q0 -38 -4.5 -79t-17.5 -79.5t-35.5 -72t-60 -59t-90.5 -40t-127 -14.5h-35 q-25 0 -42 -6t-27.5 -21t-14.5 -40t-4 -63l289 -737h-215l-285 729q-14 35 -29.5 62.5t-35.5 48t-45.5 31t-56.5 10.5q-36 0 -62 -16t-43.5 -53t-26 -98.5t-8.5 -149.5v-123v-58t4 -60.5t11 -57t21.5 -48t37 -32t58.5 -11.5q27 1 89 18l26 -181q-14 -4 -36.5 -7.5t-47.5 -6 t-50 -4t-50 1.5q-68 8 -115 32.5t-77 60t-46.5 80t-23 93.5t-8 98t-1.5 96z" />
<glyph unicode="&#xe5a;" horiz-adv-x="1376" d="M85 923q0 54 13.5 95.5t39 74t57.5 55t68.5 37t74 20.5t72.5 6h160v-167h-112q-18 0 -47 -4t-55.5 -16.5t-46.5 -37t-20 -65.5q0 -28 9 -55.5t29.5 -48t57.5 -33.5t92 -13q120 0 182 44.5t62 140.5v255h202v-1211h-202v666q-47 -34 -108 -54t-133 -20q-99 0 -173 23 t-123.5 67t-74 105.5t-24.5 135.5zM1066 0v1211h203v-1211h-203z" />
<glyph unicode="&#xe5b;" horiz-adv-x="2538" d="M107 614q0 68 15 136.5t44 132.5t72.5 118.5t100 95t125.5 63.5q68 24 150 24q115 0 198.5 -38.5t135.5 -103t76.5 -145t24.5 -165.5l-191 -3q0 122 -57.5 188.5t-160.5 73.5q-77 0 -136.5 -30.5t-101.5 -82t-63 -120t-21 -147.5q0 -74 27.5 -144t76.5 -123.5t120.5 -85 t158.5 -31.5q84 0 149 26t116 71.5t85 108.5t56.5 137.5t33 157.5t10.5 171l145 76q30 -31 60 -67.5t56 -73.5t49.5 -72.5t40.5 -65.5q32 51 76 117.5t103 137.5q25 -36 47.5 -71.5t44.5 -69t39.5 -63.5l31.5 -54q12 19 26.5 40t29.5 39t27 33q13 14 18 22h379l128 -198 h-446q-44 -52 -85 -124t-80 -149q-22 40 -43.5 82t-43 80t-40 71t-33.5 56q-19 -26 -41.5 -60t-46 -79.5t-48 -100t-46.5 -121.5q-43 117 -88.5 211t-89.5 156q-7 -91 -33 -171.5t-68.5 -150t-99.5 -125.5t-125.5 -96t-146.5 -61.5t-163 -21.5q-96 0 -177 21.5t-145 61.5 t-112 95t-79.5 120.5t-48 139.5t-16.5 151z" />
<glyph unicode="&#x2000;" horiz-adv-x="1135" />
<glyph unicode="&#x2001;" horiz-adv-x="2270" />
<glyph unicode="&#x2002;" horiz-adv-x="1135" />
<glyph unicode="&#x2003;" horiz-adv-x="2270" />
<glyph unicode="&#x2004;" horiz-adv-x="756" />
<glyph unicode="&#x2005;" horiz-adv-x="567" />
<glyph unicode="&#x2006;" horiz-adv-x="378" />
<glyph unicode="&#x2007;" horiz-adv-x="378" />
<glyph unicode="&#x2008;" horiz-adv-x="283" />
<glyph unicode="&#x2009;" horiz-adv-x="454" />
<glyph unicode="&#x200a;" horiz-adv-x="126" />
<glyph unicode="&#x200b;" />
<glyph unicode="&#x2010;" horiz-adv-x="695" d="M73 401v166h549v-166h-549z" />
<glyph unicode="&#x2011;" horiz-adv-x="695" d="M73 401v166h549v-166h-549z" />
<glyph unicode="&#x2012;" horiz-adv-x="695" d="M73 401v166h549v-166h-549z" />
<glyph unicode="&#x2013;" horiz-adv-x="1001" d="M0 501v181h1001v-181h-1001z" />
<glyph unicode="&#x2014;" horiz-adv-x="2008" d="M0 501v181h2008v-181h-2008z" />
<glyph unicode="&#x2018;" horiz-adv-x="445" d="M110 973v205q0 50 10 97.5t35.5 89t69.5 73t112 50.5v-126q-30 -6 -49 -23t-31 -39.5t-17 -48.5q-4 -26 -4 -51h93v-227h-219z" />
<glyph unicode="&#x2019;" horiz-adv-x="445" d="M110 937v126q30 6 49 23t30 39.5t16.5 48.5t5.5 49h-93v228h219v-204q0 -50 -10.5 -98t-35.5 -89t-69.5 -73t-111.5 -50z" />
<glyph unicode="&#x201c;" horiz-adv-x="785" d="M110 973v205q0 50 10 97.5t35.5 89t69.5 73t112 50.5v-126q-30 -6 -49 -23t-31 -39.5t-17 -48.5q-4 -26 -4 -51h93v-227h-219zM449 973v205q0 50 10 97.5t36 89t69.5 73t112.5 50.5v-126q-30 -6 -49.5 -23t-31 -39.5t-16.5 -48.5t-5 -51h94v-227h-220z" />
<glyph unicode="&#x201d;" horiz-adv-x="785" d="M110 937v126q30 6 49 22t30 39t16.5 48t5.5 51h-93v228h219v-204q0 -50 -10.5 -98t-35.5 -89t-69.5 -73t-111.5 -50zM449 937v126q31 6 50 22t30 39t16.5 48t5.5 51h-93v228h219v-204q0 -50 -11 -98t-36.5 -89t-69.5 -73q-42 -32 -111 -50z" />
<glyph unicode="&#x2022;" horiz-adv-x="776" d="M67 559q0 60 25.5 115t69.5 96.5t102 65.5q57 24 122 24q66 0 125 -24t103 -65.5t70 -96.5t26 -115q0 -63 -26 -119t-70 -98.5t-103 -67.5t-125 -25q-65 0 -122.5 25t-101.5 67.5t-69.5 98.5t-25.5 119z" />
<glyph unicode="&#x202f;" horiz-adv-x="454" />
<glyph unicode="&#x205f;" horiz-adv-x="567" />
<glyph unicode="&#x20ac;" horiz-adv-x="1205" d="M19 538v144h152v50v68h-152v143h163q8 65 23.5 129.5t40.5 121.5t63.5 105.5t90.5 84t121 55.5q71 20 159 20q112 0 197.5 -36.5t143 -100.5t85.5 -152t26 -190h-211q-2 61 -15 116t-42.5 94.5t-78 63t-119.5 23.5q-44 0 -79 -14t-61.5 -37t-47 -54.5t-36 -69.5t-25 -78 t-16.5 -81h317v-143h-329v-66v-52h329v-144h-322q4 -46 12 -92t22 -87t33 -77.5t48 -62.5t67 -41t88 -15q79 0 129 31.5t78 85t39 123.5q11 71 9 148h211q2 -77 -7.5 -149.5t-31.5 -135.5t-57.5 -116.5t-87 -92t-118.5 -58.5q-66 -21 -150 -21q-99 0 -174.5 21.5t-130 60.5 t-91 91t-59 115t-35 132t-16.5 140h-155z" />
<glyph unicode="&#x2122;" horiz-adv-x="1630" d="M56 1277v153h604v-153h-222v-691h-160v691h-222zM737 586v844h214l197 -557l193 557h210v-844h-151l-3 587l-208 -587h-96l-204 584v-584h-152z" />
<glyph unicode="&#x25cc;" horiz-adv-x="1346" d="M329 575l89 44q-3 -22 -3 -46t3 -43zM423 332l35 91q26 -37 61 -64zM441 822l89 -33q-42 -25 -67 -60zM625 827l49 91l41 -88q-19 3 -38 3q-28 0 -52 -6zM632 315q23 -5 45 -5q19 0 35 5l-38 -85zM822 789l101 33l-37 -96q-26 38 -64 63zM825 356q34 23 59 56l26 -80z M934 536q3 13 3 37q0 22 -3 43l85 -43z" />
<glyph unicode="&#x25fc;" horiz-adv-x="1061" d="M0 0v1062h1062v-1062h-1062z" />
<glyph unicode="&#xf700;" horiz-adv-x="923" d="M77 838q0 85 25 156.5t76 123.5t126 80t176 28q41 0 82 -6t81 -23q19 9 33 21t22.5 27t12.5 29t4 25h222q-1 -30 -10 -61.5t-27 -60.5t-46 -54q-27 -24 -65 -41q36 -50 55 -123.5t11 -174.5q-3 -39 -8.5 -78.5t-16.5 -85t-27.5 -103t-39.5 -131.5t-55.5 -168.5 t-73.5 -217.5h-250l-170 570h-129v159h285l144 -488q22 73 39 129.5t30 103.5t22.5 84t17 70.5t11.5 65.5t9 66q5 58 -1 109.5t-26.5 91.5t-55 64t-83.5 24q-88 0 -134.5 -49t-50.5 -162h-215z" />
<glyph unicode="&#xf701;" d="M-1108 1373l86 172h595v-172h-681z" />
<glyph unicode="&#xf702;" d="M-1108 1373l86 172h414v170h181v-342h-681z" />
<glyph unicode="&#xf703;" d="M-1108 1373l86 172h244q-3 3 -3 6v5q0 39 15 73t40.5 58.5t59 40t72 15.5t71.5 -15.5t59 -40t40 -58.5t14 -73q0 -38 -14 -71t-40 -58t-59 -39.5t-72 -14.5h-513zM-656 1554q0 -25 17.5 -43t43.5 -18q25 0 43.5 18t18.5 43q0 24 -18.5 43.5t-43.5 19.5q-26 0 -43.5 -19.5 t-17.5 -43.5z" />
<glyph unicode="&#xf704;" d="M-1108 1373l86 172h158v170h174v-170h90v170h173v-342h-681z" />
<glyph unicode="&#xf705;" d="M-640 1373v327h188v-327h-188z" />
<glyph unicode="&#xf706;" d="M-899 1521v142h230v-167q83 6 129.5 51t46.5 116h156q0 -63 -23.5 -119t-68 -99t-109.5 -68.5t-150 -27.5h-126v172h-85z" />
<glyph unicode="&#xf707;" d="M-1022 1362q0 79 13 131t34 85t48.5 47t56.5 14q19 0 35 -6.5t29.5 -16.5t23 -24t16.5 -30q14 35 43.5 56t71.5 21q22 0 43.5 -7t39 -22t30.5 -40.5t19 -62.5q16 23 29 64q13 40 13 89h137q0 -49 -12 -98.5t-35.5 -91t-56.5 -71t-72 -37.5h-121q0 13 -0.5 34t-5 41.5 t-10.5 35.5q-7 15 -18 15q-10 0 -16 -13t-11 -31.5t-7 -41.5q-2 -21 -2 -40h-110q0 19 -1 41t-5 40.5t-11 31.5t-18 13t-19.5 -15t-11.5 -35.5t-4.5 -41.5t-1.5 -34h-133z" />
<glyph unicode="&#xf708;" d="M-870 1518v140h163v134h164v-134h165v-140h-165v-145h-164v145h-163z" />
<glyph unicode="&#xf709;" d="M-808 1373q0 68 24.5 130t76.5 108.5t131.5 73.5t189.5 30v-156q-59 0 -102.5 -12.5t-70.5 -37t-40 -59.5q-12 -33 -12 -77h-197z" />
<glyph unicode="&#xf70a;" d="M-310 1373v327h198v-327h-198z" />
<glyph unicode="&#xf70b;" d="M-651 1548v147h276v-174q43 2 76 16t56.5 37t34.5 53.5t11 67.5h189q0 -63 -23.5 -121.5t-71.5 -103t-121 -71t-172 -26.5h-157v175h-98z" />
<glyph unicode="&#xf70c;" d="M-884 1370q0 95 16 158.5t42 102t61.5 55.5t74.5 17q24 0 46 -7.5t38.5 -20t29 -30t20.5 -37.5q9 22 22 38.5t31 29.5t41.5 20t54.5 7q30 0 55.5 -11.5t46 -33.5t34 -51t19.5 -64q26 23 43 71.5t17 111.5h167q0 -55 -15 -113.5t-43.5 -108.5t-70 -86.5t-93.5 -47.5h-145 q0 11 -0.5 26.5t-2 33.5t-4 36t-7.5 32t-11 23q-8 8 -16 8q-16 0 -27 -16.5t-18 -40.5t-9.5 -52t-2.5 -50h-129q0 23 -3 50.5t-9.5 51.5t-17.5 40.5t-28 16.5q-11 0 -17.5 -8.5t-12 -22.5t-8.5 -32t-4.5 -36t-1.5 -33.5v-26.5h-163z" />
<glyph unicode="&#xf70d;" d="M-471 1532v152h174v146h179v-146h174v-152h-174v-157h-179v157h-174z" />
<glyph unicode="&#xf70e;" d="M-460 1373q0 71 26 134t79.5 111t135.5 76.5t194 31.5v-160q-60 0 -104.5 -13.5t-72.5 -39t-42 -61t-14 -79.5h-202z" />
<glyph unicode="&#xf70f;" horiz-adv-x="1633" d="M51 934q37 74 88 129.5t113.5 92t132.5 53.5t145 17q85 0 161 -21t135 -63.5t93.5 -103t34.5 -137.5v-548q0 -41 10 -75t29 -58.5t48 -37.5t67 -13h54q38 0 67.5 13t49.5 37.5t29.5 58.5t9.5 75v858h205v-905q0 -83 -32 -142.5t-84 -98t-118 -56t-133 -17.5h-48 q-65 0 -130.5 19t-116.5 57.5t-82.5 97.5t-31.5 140v554q0 44 -16 79.5t-44.5 60.5t-68.5 37t-88 12q-38 0 -74.5 -6.5t-67 -19t-56 -30.5t-40.5 -39q8 -14 15.5 -30.5t12.5 -35.5t8.5 -38.5t3.5 -38.5v-640h126v-171h-335v819q0 19 -3.5 37.5t-11.5 34t-22.5 27t-34.5 16.5 z" />
<glyph unicode="&#xf710;" d="M-774 1375v261h177v-93h707v-168h-884z" />
<glyph unicode="&#xf711;" d="M-808 1569q0 43 15.5 80t43 65.5t64 43.5t80 15t80.5 -15t64.5 -43.5t43.5 -66t16 -80t-16 -79.5t-43.5 -64.5t-64.5 -42.5t-81 -15q-42 0 -79 15t-64.5 42.5t-43 64.5t-15.5 80zM-680 1569q0 -15 6.5 -29t16.5 -23.5t23 -14.5q15 -6 28 -6q17 0 30.5 5.5t23 15t16 23.5 t6.5 29q0 16 -6.5 29t-16 24t-23.5 17q-13 5 -30 5q-13 0 -27 -5.5t-24 -16.5t-16.5 -24t-6.5 -29z" />
<glyph unicode="&#xf712;" d="M-1071 1630q0 78 21.5 129.5t57.5 83t78.5 44t83.5 12.5h512v-151h-507q-24 0 -40.5 -9.5t-26 -26t-14 -37t-4.5 -42.5t3 -41t9 -34t18 -25q14 -10 33 -10q22 0 34 12t18 31.5t7.5 47t1.5 57.5h141q0 -30 2 -57.5t9 -47t19 -31.5t31 -12q22 0 34.5 12.5t19.5 33t7 47.5 q0 25 -2 55h152q6 -90 -8 -149t-41 -93t-65 -47q-39 -12 -80 -9q-28 2 -51 10.5t-41 21t-31.5 28.5t-21.5 34q-9 -16 -24 -33t-34.5 -31t-43.5 -22t-50 -8q-55 0 -94 20.5t-64.5 55.5t-37 82t-11.5 99z" />
<glyph unicode="&#xf713;" d="M-603 1841v309h176v-309h-176z" />
<glyph unicode="&#xf714;" d="M-858 2019v141h255v-174q99 3 146 49.5t47 124.5h174q0 -63 -26 -119.5t-75 -100.5t-121 -71q-71 -25 -161 -28h-139v178h-100z" />
<glyph unicode="&#xf715;" d="M-954 1841q0 78 14 129.5t37 83t54.5 45.5t67.5 14q47 0 75.5 -23t45.5 -58q15 35 50 58t85 23q28 0 53 -7t45 -22t33 -40.5t19 -62.5q23 19 37.5 60t14.5 93h154q0 -49 -14 -97t-41.5 -88.5t-65.5 -69.5q-36 -29 -83 -38h-131q0 14 -1.5 36t-6 42.5t-13.5 35.5t-23 15 t-23.5 -13.5t-15 -33t-8 -41.5t-2.5 -41h-121q0 19 -2.5 41t-8 41.5t-14.5 33t-23 13.5q-15 0 -23 -15t-12.5 -35.5t-5.5 -42.5t-1 -36h-146z" />
<glyph unicode="&#xf716;" d="M-774 1981v140h171v149h156v-149h173v-140h-173v-158h-156v158h-171z" />
<glyph unicode="&#xf717;" d="M-603 1700q0 60 25.5 118.5t75.5 104.5t122.5 74t165.5 28v-145q-55 0 -94.5 -14t-65 -37t-37.5 -56t-12 -73h-180z" />
<glyph unicode="&#xf718;" d="M-389 -501h279v-439h-190v269h-89v170z" />
<glyph unicode="&#xf719;" d="M-743 -501h280v-203q0 -99 82 -99t81 99v203h190v-203q-1 -52 -15.5 -100t-46.5 -83.5t-83.5 -56t-125.5 -20.5t-126 20.5t-84 56t-46.5 83.5t-15.5 100v35h-90v168z" />
<glyph unicode="&#xf71a;" d="M-353 -622q0 27 10 52t27 44t41 30t50 11q29 0 54.5 -11t43 -30t28.5 -44t11 -52t-11 -50.5t-28.5 -41.5t-43 -28t-54.5 -10q-26 0 -50 10t-41 28t-27 41.5t-10 50.5z" />
<glyph unicode="&#xf71d;" horiz-adv-x="1276" d="M70 1211h211l78 -764l5 -110l20 112l135 555h193l129 -555l19 -123l15 121q13 102 22 175.5t15 125.5t9.5 83.5t5.5 50.5t2 29.5v17.5q0 27 -5.5 49t-19.5 38.5t-37.5 24.5t-60.5 8l-25 157q49 0 95.5 11.5t82.5 32.5t59 52.5t29 75.5h227q-5 -53 -24.5 -97.5 t-45.5 -77.5t-59 -56.5t-68 -35.5q33 -27 48 -70.5t15 -103.5q0 -23 -4 -47q-2 -24 -4 -43l-136 -847h-249l-136 608l-131 -608h-247z" />
<glyph unicode="&#xf881;" horiz-adv-x="1601" d="M51 934q37 74 87.5 129.5t112 92t134.5 53.5t151 17q45 0 89.5 -6t86.5 -19t78.5 -33t67.5 -46q53 52 123.5 78t147.5 26q66 0 131 -20.5t116.5 -61t84 -102t32.5 -141.5v-1293h-208v1259q0 44 -11 79t-31.5 58.5t-49.5 35.5t-64 12q-30 0 -57.5 -11t-49.5 -30.5t-37 -49 t-21 -65.5v-1288h-206v1252q0 44 -16 79.5t-44.5 60.5t-70 37t-91.5 12q-85 0 -149 -26t-95 -69q8 -14 15.5 -30.5t12.5 -35.5t8.5 -38.5t3.5 -38.5v-634h126v-177h-335v819q0 41 -16.5 71.5t-55.5 43.5z" />
<glyph unicode="&#xf882;" horiz-adv-x="1598" d="M22 0v177h112v642q0 41 -17.5 71.5t-57.5 43.5q37 74 86.5 129.5t111 92t132.5 53.5t149 17q46 0 90.5 -6t85.5 -18.5t77 -31.5t67 -45q53 52 123 76.5t144 24.5q66 0 131.5 -20.5t117 -61t84.5 -102t33 -141.5v-1293h-209v1259q0 44 -11 79t-31.5 58.5t-50 35.5 t-64.5 12q-30 0 -57.5 -11t-49 -30.5t-36.5 -49t-20 -65.5v-1288h-207v1252q0 91 -56 140t-161 49q-85 0 -145 -26t-90 -69q8 -14 15 -30.5t11.5 -35.5t7.5 -38.5t3 -38.5v-811h-318z" />
<glyph d="M-830 1403q0 48 12 97t39.5 91t68.5 72t102 43q9 43 36 78t70.5 61t103.5 41q61 13 135 16v-151q-99 0 -144 -34q-45 -32 -45 -106v-34h-38q-46 0 -76.5 -13t-48.5 -36.5t-25.5 -55t-7.5 -69.5h-182z" />
<glyph horiz-adv-x="857" d="M-808 1569q0 43 15.5 80t43 65.5t64 43.5t80 15t80.5 -15t64.5 -43.5t43.5 -66t16 -80t-16 -79.5t-43.5 -64.5t-64.5 -42.5t-81 -15q-42 0 -79 15t-64.5 42.5t-43 64.5t-15.5 80zM-680 1569q0 -15 6.5 -29t16.5 -23.5t23 -14.5q15 -6 28 -6q17 0 30.5 5.5t23 15t16 23.5 t6.5 29q0 16 -6.5 29t-16 24t-23.5 17q-13 5 -30 5q-13 0 -27 -5.5t-24 -16.5t-16.5 -24t-6.5 -29zM19 873q0 87 31.5 153.5t83.5 110.5t118 66.5t134 22.5q66 0 132 -20.5t118 -61t84 -102t32 -141.5v-901h-207v867q0 44 -11.5 79t-32 58.5t-50 35.5t-65.5 12 q-33 0 -61 -12t-50.5 -35.5t-36 -56.5t-16.5 -75h-203z" />
<glyph horiz-adv-x="857" d="M-808 1569q0 43 15.5 80t43 65.5t64 43.5t80 15t80.5 -15t64.5 -43.5t43.5 -66t16 -80t-16 -79.5t-43.5 -64.5t-64.5 -42.5t-81 -15q-42 0 -79 15t-64.5 42.5t-43 64.5t-15.5 80zM-680 1569q0 -15 6.5 -29t16.5 -23.5t23 -14.5q15 -6 28 -6q17 0 30.5 5.5t23 15t16 23.5 t6.5 29q0 16 -6.5 29t-16 24t-23.5 17q-13 5 -30 5q-13 0 -27 -5.5t-24 -16.5t-16.5 -24t-6.5 -29zM19 873q0 87 31.5 153.5t83.5 110.5t118 66.5t134 22.5q66 0 132 -20.5t118 -61t84 -102t32 -141.5v-901h-207v867q0 44 -11.5 79t-32 58.5t-50 35.5t-65.5 12 q-33 0 -61 -12t-50.5 -35.5t-36 -56.5t-16.5 -75h-203z" />
<glyph d="M-867 1373l86 172h671v-172h-757z" />
<glyph d="M-867 1373l86 172h489v184h182v-356h-757z" />
<glyph d="M-867 1373l86 172h343q-3 3 -3 6v5q0 39 15 73t40.5 58.5t59 40t71.5 15.5q39 0 71.5 -15.5t58.5 -40t40.5 -58.5t14.5 -73q0 -38 -14.5 -71t-40.5 -58t-59 -40q-32 -14 -71 -14h-612zM-318 1554q0 -25 19 -43q20 -18 44 -18q25 0 42.5 18t17.5 43q0 24 -17.5 43.5 t-42.5 19.5q-24 0 -43.5 -19.5t-19.5 -43.5z" />
<glyph d="M-867 1373l86 172h233v184h175v-184h89v184h174v-356h-757z" />
<glyph d="M-1221 1373l87 172h764v-172h-851z" />
<glyph d="M-1221 1373l87 172h581v184h183v-356h-851z" />
<glyph d="M-1221 1373l87 172h441q-3 3 -3 6v5q0 39 15 73t40 58.5t59 40t72.5 15.5t71 -15.5t58 -40t40 -58.5t14.5 -73q0 -38 -14.5 -71t-40 -58t-58.5 -40q-32 -14 -71 -14h-711zM-573 1554q0 -25 18 -43t45 -18q25 0 43 18t18 43q0 24 -18 43.5t-43 19.5q-26 0 -44.5 -19.5 t-18.5 -43.5z" />
<glyph d="M-1221 1373l87 172h326v184h174v-184h89v184h175v-356h-851z" />
<glyph d="M-548 1841v309h178v-309h-178z" />
<glyph d="M-841 2019v141h255v-174q98 3 146 49.5t48 124.5h173q0 -63 -26 -119.5t-75.5 -100.5t-120.5 -71q-71 -25 -162 -28h-137v178h-101z" />
<glyph d="M-889 1841q0 78 13.5 129.5t37.5 83t55.5 45.5t67.5 14q46 0 75 -23t45 -58q14 35 49 58t86 23q27 0 51.5 -7t45.5 -22t34.5 -40.5t16.5 -62.5q23 19 38.5 60t15.5 93h154q0 -49 -15 -97t-41 -88.5t-64.5 -69.5t-85.5 -38h-131q0 14 -1.5 36t-5.5 42.5t-12.5 35.5 t-21.5 15q-14 0 -23.5 -13.5t-15.5 -33t-9 -41.5t-3 -41h-120q0 19 -2.5 41t-8 41.5t-15 33t-23 13.5t-22.5 -15t-13 -35.5t-5 -42.5t-1 -36h-146z" />
<glyph d="M-704 1981v140h171v149h158v-149h169v-140h-169v-158h-158v158h-171z" />
<glyph d="M-1226 1373l86 172h1030v-172h-1116z" />
<glyph d="M-1226 1373l86 172h848v184h182v-356h-1116z" />
<glyph d="M-1226 1373l86 172h693q-2 3 -2 6v5q0 39 15 73t40 58.5t59 40t72 15.5t71 -15.5t58.5 -40t40 -58.5t14.5 -73q0 -38 -14.5 -71t-40 -58t-58.5 -40q-33 -14 -71 -14h-963zM-326 1554q0 -25 18 -43q20 -18 45 -18t42.5 18t17.5 43q0 24 -17.5 43.5t-42.5 19.5t-44 -19.5 t-19 -43.5z" />
<glyph d="M-1226 1373l86 172h592v184h175v-184h89v184h174v-356h-1116z" />
<glyph d="M-286 1697v309h176v-309h-176z" />
<glyph d="M-634 1880v139h256v-172q49 0 85.5 13t60.5 35.5t35.5 54t11.5 69.5h174q0 -63 -26 -119t-75.5 -100t-121.5 -71t-162 -29h-137v180h-101z" />
<glyph d="M-701 1700q0 78 13.5 130t37 83.5t55.5 45.5t68 14q46 0 74 -23.5t46 -58.5q15 35 49.5 58.5t86.5 23.5q27 0 51.5 -7t44.5 -22.5t34 -41t18 -61.5q23 19 38 60.5t15 93.5h155q0 -50 -15 -97.5t-42 -89t-64.5 -70t-84.5 -38.5h-131q0 14 -1.5 36t-6 43t-13 36t-22.5 15 q-13 0 -22.5 -13.5t-16 -32.5t-9 -42t-2.5 -42h-121q0 19 -2.5 42t-8 42t-14.5 32.5t-22.5 13.5t-22.5 -15t-13 -36t-5.5 -43t-1.5 -36h-145z" />
<glyph d="M-438 1858v139h172v148h156v-148h172v-139h-172v-158h-156v158h-172z" />
<glyph d="M-603 1697v309h176v-309h-176z" />
<glyph d="M-858 1880v139h255v-172q50 0 86 13t60 35.5t35.5 54t11.5 69.5h174q0 -63 -26 -119t-75 -100t-120.5 -71t-161.5 -29h-139v180h-100z" />
<glyph d="M-982 1700q0 78 13.5 130t37.5 83.5t55.5 45.5t67.5 14q46 0 75 -23.5t45 -58.5q15 35 50 58.5t85 23.5q27 0 52.5 -7t45 -22.5t33.5 -41t18 -61.5q23 19 38 60.5t15 93.5h154q0 -50 -14.5 -97.5t-41 -89t-65 -70t-83.5 -38.5h-132q0 14 -1.5 36t-6 43t-13 36t-21.5 15 q-14 0 -23.5 -13.5t-15 -32.5t-8.5 -42t-3 -42h-122q0 19 -2 42t-7.5 42t-15 32.5t-23.5 13.5q-15 0 -23 -15t-12 -36t-5 -43t-1 -36h-146z" />
<glyph d="M-774 1855v140h171v148h156v-148h173v-140h-173v-158h-156v158h-171z" />
<glyph d="M-562 -182h281v-461h-190v292h-91v169z" />
<glyph d="M-786 -182h282v-202q0 -49 20.5 -73.5t60 -24.5t60.5 24.5t21 73.5v202h191v-202q-1 -52 -15.5 -100t-47.5 -83.5t-83.5 -56.5t-125.5 -21q-74 0 -126 21t-84.5 56.5t-47.5 83.5t-15 100v36h-90v166z" />
<glyph d="M-543 -300q0 27 11 52.5t29 44t41.5 29.5t49.5 11q27 0 52.5 -11t44.5 -29.5t30 -43t11 -53.5q0 -27 -11 -50t-30 -40.5t-44 -28.5t-53 -11t-50.5 11t-40.5 28.5t-29 40.5t-11 50z" />
<glyph d="M-556 -182h282v-461h-192v292h-90v169z" />
<glyph d="M-915 -182h281v-202q0 -49 20 -74q19 -24 61 -24q41 0 61.5 24.5t20.5 73.5v202h190v-202q-1 -52 -15.5 -100t-46.5 -83.5t-84 -56.5q-53 -21 -126 -21q-74 0 -125.5 21t-84 56.5t-47.5 83.5t-15 100v36h-90v166z" />
<glyph d="M-525 -289q0 29 10.5 53.5t28 43.5t41 30t49.5 11q29 0 53.5 -11t44 -30t30 -43.5t10.5 -53.5q0 -26 -10.5 -49.5t-30 -41t-44 -28t-53.5 -10.5q-26 0 -49.5 10.5t-41 28t-28 41t-10.5 49.5z" />
<glyph d="M-774 1375v264h177v-94h734v-170h-911z" />
<glyph d="M-586 1841v309h176v-309h-176z" />
<glyph d="M-858 1978v140h255v-173q50 0 86 12.5t60 36t35.5 55t11.5 69.5h174q0 -62 -26 -118.5t-75 -100.5t-120.5 -71.5t-161.5 -28.5h-139v179h-100z" />
<glyph d="M-806 1841q0 78 14 129.5t37 83t55.5 45.5t67.5 14q47 0 76 -23q30 -23 46 -58q14 35 48.5 58t86.5 23q27 0 51.5 -7t45 -22t33.5 -40.5t18 -62.5q23 19 38 60t15 93h155q0 -49 -15 -97t-42 -88.5t-64.5 -69.5t-84.5 -38h-131q0 14 -1.5 36t-5.5 42.5t-13 35.5t-23 15 q-13 0 -23 -13.5t-16 -33t-8.5 -41.5t-2.5 -41h-121q0 19 -2 41t-7.5 41.5t-14.5 33t-22.5 13.5t-23 -15t-14 -35.5t-5.5 -42.5t-1 -36h-146z" />
<glyph d="M-677 1954v139h173v148h156v-148h171v-139h-171v-159h-156v159h-173z" />
<glyph d="M-1030 1373l87 172h833v-172h-920z" />
<glyph d="M-1030 1373l87 172h651v184h182v-356h-920z" />
<glyph d="M-1030 1373l87 172h496q-2 3 -2 6v5q0 39 15 73t40 58.5t59 40t72 15.5t71 -15.5t58.5 -40t40 -58.5t14.5 -73q0 -38 -14.5 -71t-40 -58t-58.5 -40q-33 -14 -71 -14h-767zM-326 1554q0 -25 18 -43q20 -18 45 -18t42.5 18t17.5 43q0 24 -17.5 43.5t-42.5 19.5t-44 -19.5 t-19 -43.5z" />
<glyph d="M-1030 1373l87 172h395v184h175v-184h89v184h174v-356h-920z" />
</font>
</defs>
</svg>
